<svg
   width="384"
   height = "768"
   version="1.1"
   id="svg2"
   xmlns="http://www.w3.org/2000/svg"
   xmlns:svg="http://www.w3.org/2000/svg">
  <defs
     id="defs6" />

<rect
   style="fill:#F3F3F3;stroke-width:0;stroke-opacity:0"
   id="Background"
   width="384"
   height="768"
   x="0"
   y="0"
   rx="0" />
  <path
     style="fill:none;stroke:#000000;stroke-width:5;stroke-opacity:1"
     d = "M 332.9923,590.9467 336.0555,595.5155 "
id = "68" />
  <path
     style="fill:none;stroke:#000000;stroke-width:5;stroke-opacity:1"
     d = "M 329.4353,593.2131 336.0365,603.4741 "
id = "69" />
  <path
     style="fill:none;stroke:#000000;stroke-width:5;stroke-opacity:1"
     d = "M 325.8393,595.417 336.0165,611.9349 "
id = "70" />
  <path
     style="fill:none;stroke:#000000;stroke-width:5;stroke-opacity:1"
     d = "M 322.2053,597.5579 336.0178,620.9827 "
id = "71" />
  <path
     style="fill:none;stroke:#000000;stroke-width:5;stroke-opacity:1"
     d = "M 318.5345,599.635 336.0424,630.7505 "
id = "72" />
  <path
     style="fill:none;stroke:#000000;stroke-width:5;stroke-opacity:1"
     d = "M 314.828,601.6478 336.0468,641.1048 "
id = "73" />
  <path
     style="fill:none;stroke:#000000;stroke-width:5;stroke-opacity:1"
     d = "M 311.087,603.5955 336.0143,652.1836 "
id = "74" />
  <path
     style="fill:none;stroke:#000000;stroke-width:5;stroke-opacity:1"
     d = "M 307.3126,605.4777 336.0005,663.9262 "
id = "75" />
  <path
     style="fill:none;stroke:#000000;stroke-width:5;stroke-opacity:1"
     d = "M 303.5058,607.2936 336.0267,676.5377 "
id = "76" />
  <path
     style="fill:none;stroke:#000000;stroke-width:5;stroke-opacity:1"
     d = "M 299.668,609.043 336.0223,690.162 "
id = "77" />
  <path
     style="fill:none;stroke:#000000;stroke-width:5;stroke-opacity:1"
     d = "M 295.8002,610.725 336.034,704.6661 "
id = "78" />
  <path
     style="fill:none;stroke:#000000;stroke-width:5;stroke-opacity:1"
     d = "M 291.9037,612.3392 335.7717,720.0218 "
id = "79" />
  <path
     style="fill:none;stroke:#000000;stroke-width:5;stroke-opacity:1"
     d = "M 287.9796,613.8853 329.064,720.0171 "
id = "80" />
  <path
     style="fill:none;stroke:#000000;stroke-width:5;stroke-opacity:1"
     d = "M 284.0289,615.3626 322.4796,720.03 "
id = "81" />
  <path
     style="fill:none;stroke:#000000;stroke-width:5;stroke-opacity:1"
     d = "M 280.0533,616.7708 315.944,720.04 "
id = "82" />
  <path
     style="fill:none;stroke:#000000;stroke-width:5;stroke-opacity:1"
     d = "M 276.0536,618.1093 309.5194,720.0783 "
id = "83" />
  <path
     style="fill:none;stroke:#000000;stroke-width:5;stroke-opacity:1"
     d = "M 272.0312,619.3778 303.1674,720.0559 "
id = "84" />
  <path
     style="fill:none;stroke:#000000;stroke-width:5;stroke-opacity:1"
     d = "M 267.9873,620.5759 296.8845,720.0405 "
id = "85" />
  <path
     style="fill:none;stroke:#000000;stroke-width:5;stroke-opacity:1"
     d = "M 265.2799,621.3354 292.7755,720.0567 "
id = "86" />
  <path
     style="fill:none;stroke:#000000;stroke-width:5;stroke-opacity:1"
     d = "M 261.2029,622.4154 286.6064,720.0884 "
id = "87" />
  <path
     style="fill:none;stroke:#000000;stroke-width:5;stroke-opacity:1"
     d = "M 257.1076,623.4241 280.5258,720.009 "
id = "88" />
  <path
     style="fill:none;stroke:#000000;stroke-width:5;stroke-opacity:1"
     d = "M 252.9952,624.3612 274.4109,720.0045 "
id = "89" />
  <path
     style="fill:none;stroke:#000000;stroke-width:5;stroke-opacity:1"
     d = "M 248.8672,625.2263 268.3589,720.053 "
id = "90" />
  <path
     style="fill:none;stroke:#000000;stroke-width:5;stroke-opacity:1"
     d = "M 244.7247,626.0193 262.239,720.0205 "
id = "91" />
  <path
     style="fill:none;stroke:#000000;stroke-width:5;stroke-opacity:1"
     d = "M 240.569,626.7399 256.0576,720.0465 "
id = "92" />
  <path
     style="fill:none;stroke:#000000;stroke-width:5;stroke-opacity:1"
     d = "M 236.4014,627.3878 249.984,720.0927 "
id = "93" />
  <path
     style="fill:none;stroke:#000000;stroke-width:5;stroke-opacity:1"
     d = "M 232.223,627.9629 243.9335,720.0039 "
id = "94" />
  <path
     style="fill:none;stroke:#000000;stroke-width:5;stroke-opacity:1"
     d = "M 228.0353,628.465 237.971,720.0366 "
id = "95" />
  <path
     style="fill:none;stroke:#000000;stroke-width:5;stroke-opacity:1"
     d = "M 223.8395,628.8939 232.1607,720.0364 "
id = "96" />
  <path
     style="fill:none;stroke:#000000;stroke-width:5;stroke-opacity:1"
     d = "M 219.6369,629.2495 226.3297,720.0051 "
id = "97" />
  <path
     style="fill:none;stroke:#000000;stroke-width:5;stroke-opacity:1"
     d = "M 215.4286,629.5317 220.494,720.0989 "
id = "98" />
  <path
     style="fill:none;stroke:#000000;stroke-width:5;stroke-opacity:1"
     d = "M 211.216,629.7405 214.7197,720.0632 "
id = "99" />
  <path
     style="fill:none;stroke:#000000;stroke-width:5;stroke-opacity:1"
     d = "M 207.0005,629.8756 208.9549,720.0536 "
id = "100" />
  <path
     style="fill:none;stroke:#000000;stroke-width:5;stroke-opacity:1"
     d = "M 202.7832,629.9373 203.2782,720.0153 "
id = "101" />
  <path
     style="fill:none;stroke:#000000;stroke-width:5;stroke-opacity:1"
     d = "M 198.5656,629.9252 197.6582,720.0032 "
id = "102" />
  <path
     style="fill:none;stroke:#000000;stroke-width:5;stroke-opacity:1"
     d = "M 194.3487,629.8396 192.1052,720.0176 "
id = "103" />
  <path
     style="fill:none;stroke:#000000;stroke-width:5;stroke-opacity:1"
     d = "M 190.1761,629.6823 186.6311,720.005 "
id = "104" />
  <path
     style="fill:none;stroke:#000000;stroke-width:5;stroke-opacity:1"
     d = "M 185.9227,629.4476 181.065,720.0148 "
id = "105" />
  <path
     style="fill:none;stroke:#000000;stroke-width:5;stroke-opacity:1"
     d = "M 181.7162,629.1414 175.5442,720.0524 "
id = "106" />
  <path
     style="fill:none;stroke:#000000;stroke-width:5;stroke-opacity:1"
     d = "M 177.5156,628.7619 170.0658,720.06 "
id = "107" />
  <path
     style="fill:none;stroke:#000000;stroke-width:5;stroke-opacity:1"
     d = "M 173.3222,628.3091 164.5715,720.0927 "
id = "108" />
  <path
     style="fill:none;stroke:#000000;stroke-width:5;stroke-opacity:1"
     d = "M 169.1374,627.7831 159.0412,720.0507 "
id = "109" />
  <path
     style="fill:none;stroke:#000000;stroke-width:5;stroke-opacity:1"
     d = "M 164.9626,627.1843 153.4368,720.0759 "
id = "110" />
  <path
     style="fill:none;stroke:#000000;stroke-width:5;stroke-opacity:1"
     d = "M 160.7985,626.5126 147.8202,720.0253 "
id = "111" />
  <path
     style="fill:none;stroke:#000000;stroke-width:5;stroke-opacity:1"
     d = "M 156.647,625.7683 142.1775,720.0387 "
id = "112" />
  <path
     style="fill:none;stroke:#000000;stroke-width:5;stroke-opacity:1"
     d = "M 152.5091,624.9518 136.5199,720.0338 "
id = "113" />
  <path
     style="fill:none;stroke:#000000;stroke-width:5;stroke-opacity:1"
     d = "M 148.3861,624.0631 130.7533,720.0309 "
id = "114" />
  <path
     style="fill:none;stroke:#000000;stroke-width:5;stroke-opacity:1"
     d = "M 144.2793,623.1027 124.9963,720.0092 "
id = "115" />
  <path
     style="fill:none;stroke:#000000;stroke-width:5;stroke-opacity:1"
     d = "M 140.1898,622.0706 119.1058,720.0445 "
id = "116" />
  <path
     style="fill:none;stroke:#000000;stroke-width:5;stroke-opacity:1"
     d = "M 136.1189,620.9674 113.147,720.0355 "
id = "117" />
  <path
     style="fill:none;stroke:#000000;stroke-width:5;stroke-opacity:1"
     d = "M 132.068,619.7933 107.132,720.0417 "
id = "118" />
  <path
     style="fill:none;stroke:#000000;stroke-width:5;stroke-opacity:1"
     d = "M 128.0381,618.5487 101.0238,720.0949 "
id = "119" />
  <path
     style="fill:none;stroke:#000000;stroke-width:5;stroke-opacity:1"
     d = "M 124.0304,617.2339 94.79991,720.0625 "
id = "120" />
  <path
     style="fill:none;stroke:#000000;stroke-width:5;stroke-opacity:1"
     d = "M 120.0464,615.8494 88.52429,720.0701 "
id = "121" />
  <path
     style="fill:none;stroke:#000000;stroke-width:5;stroke-opacity:1"
     d = "M 116.0872,614.3956 82.2127,720.084 "
id = "122" />
  <path
     style="fill:none;stroke:#000000;stroke-width:5;stroke-opacity:1"
     d = "M 112.154,612.8729 75.89558,720.0086 "
id = "123" />
  <path
     style="fill:none;stroke:#000000;stroke-width:5;stroke-opacity:1"
     d = "M 108.2479,611.2817 69.55294,720.0327 "
id = "124" />
  <path
     style="fill:none;stroke:#000000;stroke-width:5;stroke-opacity:1"
     d = "M 104.3703,609.6227 63.04707,720.0101 "
id = "125" />
  <path
     style="fill:none;stroke:#000000;stroke-width:5;stroke-opacity:1"
     d = "M 100.5221,607.8963 56.3929,720.056 "
id = "126" />
  <path
     style="fill:none;stroke:#000000;stroke-width:5;stroke-opacity:1"
     d = "M 96.70469,606.1029 49.50159,720.041 "
id = "127" />
  <path
     style="fill:none;stroke:#000000;stroke-width:5;stroke-opacity:1"
     d = "M 92.91914,604.2432 47.97666,707.3774 "
id = "128" />
  <path
     style="fill:none;stroke:#000000;stroke-width:5;stroke-opacity:1"
     d = "M 89.16663,602.3177 47.97443,692.2598 "
id = "129" />
  <path
     style="fill:none;stroke:#000000;stroke-width:5;stroke-opacity:1"
     d = "M 85.4481,600.3269 47.95825,678.3959 "
id = "130" />
  <path
     style="fill:none;stroke:#000000;stroke-width:5;stroke-opacity:1"
     d = "M 81.76507,598.2717 47.98518,665.467 "
id = "131" />
  <path
     style="fill:none;stroke:#000000;stroke-width:5;stroke-opacity:1"
     d = "M 78.15482,596.1738 47.98183,653.6506 "
id = "132" />
  <path
     style="fill:none;stroke:#000000;stroke-width:5;stroke-opacity:1"
     d = "M 74.50941,593.9698 47.95468,642.4721 "
id = "133" />
  <path
     style="fill:none;stroke:#000000;stroke-width:5;stroke-opacity:1"
     d = "M 69.75771,590.9625 47.99853,628.6373 "
id = "134" />
  <path
     style="fill:none;stroke:#000000;stroke-width:5;stroke-opacity:1"
     d = "M 66.2405,588.6348 47.98576,618.9703 "
id = "135" />
  <path
     style="fill:none;stroke:#000000;stroke-width:5;stroke-opacity:1"
     d = "M 62.76426,586.246 47.95984,609.899 "
id = "136" />
  <path
     style="fill:none;stroke:#000000;stroke-width:5;stroke-opacity:1"
     d = "M 59.33043,583.7969 47.97289,601.2276 "
id = "137" />
  <path
     style="fill:none;stroke:#000000;stroke-width:5;stroke-opacity:1"
     d = "M 55.93988,581.2884 47.96625,593.0408 "
id = "138" />
  <path
     style="fill:none;stroke:#000000;stroke-width:5;stroke-opacity:1"
     d = "M 52.59362,578.721 47.97784,585.2542 "
id = "139" />
  <path
     style="fill:none;stroke:#000000;stroke-width:5;stroke-opacity:1"
     d = "M 49.29266,576.0956 47.99042,577.8694 "
id = "140" />
  <path
     style="fill:none;stroke:#000000;stroke-width:5;stroke-opacity:1"
     d = "M 48.18021,201.3738 47.94695,201.0489 "
id = "242" />
  <path
     style="fill:none;stroke:#000000;stroke-width:5;stroke-opacity:1"
     d = "M 51.46551,198.7289 47.9853,193.7194 "
id = "243" />
  <path
     style="fill:none;stroke:#000000;stroke-width:5;stroke-opacity:1"
     d = "M 54.79646,196.1417 47.99334,186.0148 "
id = "244" />
  <path
     style="fill:none;stroke:#000000;stroke-width:5;stroke-opacity:1"
     d = "M 58.17226,193.6129 47.98066,177.9335 "
id = "245" />
  <path
     style="fill:none;stroke:#000000;stroke-width:5;stroke-opacity:1"
     d = "M 61.59148,191.1436 47.94793,169.4834 "
id = "246" />
  <path
     style="fill:none;stroke:#000000;stroke-width:5;stroke-opacity:1"
     d = "M 65.05329,188.7342 47.95043,160.7469 "
id = "247" />
  <path
     style="fill:none;stroke:#000000;stroke-width:5;stroke-opacity:1"
     d = "M 68.55662,186.3857 47.9713,151.6238 "
id = "248" />
  <path
     style="fill:none;stroke:#000000;stroke-width:5;stroke-opacity:1"
     d = "M 72.10039,184.0987 47.99861,142.1283 "
id = "249" />
  <path
     style="fill:none;stroke:#000000;stroke-width:5;stroke-opacity:1"
     d = "M 75.68353,181.8739 47.96022,132.0719 "
id = "250" />
  <path
     style="fill:none;stroke:#000000;stroke-width:5;stroke-opacity:1"
     d = "M 79.30497,179.7119 47.96593,121.6241 "
id = "251" />
  <path
     style="fill:none;stroke:#000000;stroke-width:5;stroke-opacity:1"
     d = "M 82.96358,177.6135 47.98325,110.7031 "
id = "252" />
  <path
     style="fill:none;stroke:#000000;stroke-width:5;stroke-opacity:1"
     d = "M 86.62119,175.5993 47.99696,99.5459 "
id = "253" />
  <path
     style="fill:none;stroke:#000000;stroke-width:5;stroke-opacity:1"
     d = "M 90.38808,173.6096 47.97334,87.37245 "
id = "254" />
  <path
     style="fill:none;stroke:#000000;stroke-width:5;stroke-opacity:1"
     d = "M 94.1515,171.7056 47.99101,74.50832 "
id = "255" />
  <path
     style="fill:none;stroke:#000000;stroke-width:5;stroke-opacity:1"
     d = "M 97.94758,169.8675 47.9781,60.76759 "
id = "256" />
  <path
     style="fill:none;stroke:#000000;stroke-width:5;stroke-opacity:1"
     d = "M 101.7752,168.0959 48.86328,47.92725 "
id = "257" />
  <path
     style="fill:none;stroke:#000000;stroke-width:5;stroke-opacity:1"
     d = "M 105.6331,166.3914 55.54504,47.94817 "
id = "258" />
  <path
     style="fill:none;stroke:#000000;stroke-width:5;stroke-opacity:1"
     d = "M 109.5202,164.7545 62.34898,47.91765 "
id = "259" />
  <path
     style="fill:none;stroke:#000000;stroke-width:5;stroke-opacity:1"
     d = "M 113.4352,163.1857 69.24273,47.96892 "
id = "260" />
  <path
     style="fill:none;stroke:#000000;stroke-width:5;stroke-opacity:1"
     d = "M 117.377,161.6854 76.12116,47.93405 "
id = "261" />
  <path
     style="fill:none;stroke:#000000;stroke-width:5;stroke-opacity:1"
     d = "M 121.3445,160.2542 83.08756,47.99833 "
id = "262" />
  <path
     style="fill:none;stroke:#000000;stroke-width:5;stroke-opacity:1"
     d = "M 125.3363,158.8924 90.07133,47.96217 "
id = "263" />
  <path
     style="fill:none;stroke:#000000;stroke-width:5;stroke-opacity:1"
     d = "M 129.3112,157.6131 97.01085,47.96922 "
id = "264" />
  <path
     style="fill:none;stroke:#000000;stroke-width:5;stroke-opacity:1"
     d = "M 133.3883,156.3788 104.0934,47.96744 "
id = "265" />
  <path
     style="fill:none;stroke:#000000;stroke-width:5;stroke-opacity:1"
     d = "M 137.4459,155.2278 110.9013,47.96404 "
id = "266" />
  <path
     style="fill:none;stroke:#000000;stroke-width:5;stroke-opacity:1"
     d = "M 142.886,153.8036 119.8527,47.98145 "
id = "267" />
  <path
     style="fill:none;stroke:#000000;stroke-width:5;stroke-opacity:1"
     d = "M 146.9871,152.8188 126.6003,47.98416 "
id = "268" />
  <path
     style="fill:none;stroke:#000000;stroke-width:5;stroke-opacity:1"
     d = "M 151.1048,151.9057 133.3647,47.90688 "
id = "269" />
  <path
     style="fill:none;stroke:#000000;stroke-width:5;stroke-opacity:1"
     d = "M 155.2379,151.0645 140.1333,47.96561 "
id = "270" />
  <path
     style="fill:none;stroke:#000000;stroke-width:5;stroke-opacity:1"
     d = "M 159.3849,150.2957 146.768,47.96983 "
id = "271" />
  <path
     style="fill:none;stroke:#000000;stroke-width:5;stroke-opacity:1"
     d = "M 163.5448,149.5993 153.2836,47.91384 "
id = "272" />
  <path
     style="fill:none;stroke:#000000;stroke-width:5;stroke-opacity:1"
     d = "M 167.7161,148.9756 159.7093,47.99406 "
id = "273" />
  <path
     style="fill:none;stroke:#000000;stroke-width:5;stroke-opacity:1"
     d = "M 171.8976,148.4249 165.9358,47.90312 "
id = "274" />
  <path
     style="fill:none;stroke:#000000;stroke-width:5;stroke-opacity:1"
     d = "M 176.0882,147.9472 172.1933,47.92294 "
id = "275" />
  <path
     style="fill:none;stroke:#000000;stroke-width:5;stroke-opacity:1"
     d = "M 180.2864,147.5427 178.4019,47.96088 "
id = "276" />
  <path
     style="fill:none;stroke:#000000;stroke-width:5;stroke-opacity:1"
     d = "M 184.4911,147.2115 184.4911,47.91157 "
id = "277" />
  <path
     style="fill:none;stroke:#000000;stroke-width:5;stroke-opacity:1"
     d = "M 188.7009,146.9538 190.4985,47.96894 "
id = "278" />
  <path
     style="fill:none;stroke:#000000;stroke-width:5;stroke-opacity:1"
     d = "M 192.9148,146.7695 196.446,47.93285 "
id = "279" />
  <path
     style="fill:none;stroke:#000000;stroke-width:5;stroke-opacity:1"
     d = "M 197.131,146.6589 202.4279,47.90314 "
id = "280" />
  <path
     style="fill:none;stroke:#000000;stroke-width:5;stroke-opacity:1"
     d = "M 201.3485,146.6218 208.4111,47.97295 "
id = "281" />
  <path
     style="fill:none;stroke:#000000;stroke-width:5;stroke-opacity:1"
     d = "M 205.566,146.6584 214.4272,47.95448 "
id = "282" />
  <path
     style="fill:none;stroke:#000000;stroke-width:5;stroke-opacity:1"
     d = "M 209.7823,146.7685 220.46,47.94434 "
id = "283" />
  <path
     style="fill:none;stroke:#000000;stroke-width:5;stroke-opacity:1"
     d = "M 213.996,146.9523 226.4527,47.93188 "
id = "284" />
  <path
     style="fill:none;stroke:#000000;stroke-width:5;stroke-opacity:1"
     d = "M 218.2058,147.2095 232.4696,47.92877 "
id = "285" />
  <path
     style="fill:none;stroke:#000000;stroke-width:5;stroke-opacity:1"
     d = "M 222.4105,147.5402 238.484,47.9279 "
id = "286" />
  <path
     style="fill:none;stroke:#000000;stroke-width:5;stroke-opacity:1"
     d = "M 226.6088,147.9442 244.4836,47.92854 "
id = "287" />
  <path
     style="fill:none;stroke:#000000;stroke-width:5;stroke-opacity:1"
     d = "M 230.7994,148.4214 250.3931,47.91196 "
id = "288" />
  <path
     style="fill:none;stroke:#000000;stroke-width:5;stroke-opacity:1"
     d = "M 234.9812,148.9716 256.1138,47.95981 "
id = "289" />
  <path
     style="fill:none;stroke:#000000;stroke-width:5;stroke-opacity:1"
     d = "M 239.1526,149.5948 261.9327,47.9165 "
id = "290" />
  <path
     style="fill:none;stroke:#000000;stroke-width:5;stroke-opacity:1"
     d = "M 243.3125,150.2907 267.744,47.96801 "
id = "291" />
  <path
     style="fill:none;stroke:#000000;stroke-width:5;stroke-opacity:1"
     d = "M 247.4596,151.0591 273.696,47.9477 "
id = "292" />
  <path
     style="fill:none;stroke:#000000;stroke-width:5;stroke-opacity:1"
     d = "M 251.5927,151.8997 279.7929,47.95706 "
id = "293" />
  <path
     style="fill:none;stroke:#000000;stroke-width:5;stroke-opacity:1"
     d = "M 255.7104,152.8123 286.1028,47.92189 "
id = "294" />
  <path
     style="fill:none;stroke:#000000;stroke-width:5;stroke-opacity:1"
     d = "M 259.8116,153.7967 292.4417,47.90976 "
id = "295" />
  <path
     style="fill:none;stroke:#000000;stroke-width:5;stroke-opacity:1"
     d = "M 263.895,154.8524 298.7456,47.99603 "
id = "296" />
  <path
     style="fill:none;stroke:#000000;stroke-width:5;stroke-opacity:1"
     d = "M 267.9594,155.9793 305.1455,47.99972 "
id = "297" />
  <path
     style="fill:none;stroke:#000000;stroke-width:5;stroke-opacity:1"
     d = "M 270.6174,156.7579 309.3547,47.94215 "
id = "298" />
  <path
     style="fill:none;stroke:#000000;stroke-width:5;stroke-opacity:1"
     d = "M 276.0262,158.4451 317.8341,47.9901 "
id = "299" />
  <path
     style="fill:none;stroke:#000000;stroke-width:5;stroke-opacity:1"
     d = "M 280.026,159.7831 324.2648,47.91312 "
id = "300" />
  <path
     style="fill:none;stroke:#000000;stroke-width:5;stroke-opacity:1"
     d = "M 284.0019,161.1908 330.9197,47.92484 "
id = "301" />
  <path
     style="fill:none;stroke:#000000;stroke-width:5;stroke-opacity:1"
     d = "M 287.9525,162.6676 336.0305,51.63031 "
id = "302" />
  <path
     style="fill:none;stroke:#000000;stroke-width:5;stroke-opacity:1"
     d = "M 291.8769,164.2132 336.0176,66.40791 "
id = "303" />
  <path
     style="fill:none;stroke:#000000;stroke-width:5;stroke-opacity:1"
     d = "M 295.7736,165.827 336.0161,79.99372 "
id = "304" />
  <path
     style="fill:none;stroke:#000000;stroke-width:5;stroke-opacity:1"
     d = "M 299.6415,167.5085 336.0333,92.80064 "
id = "305" />
  <path
     style="fill:none;stroke:#000000;stroke-width:5;stroke-opacity:1"
     d = "M 303.4796,169.2573 336.0233,104.8088 "
id = "306" />
  <path
     style="fill:none;stroke:#000000;stroke-width:5;stroke-opacity:1"
     d = "M 307.2865,171.0729 336.0358,116.0274 "
id = "307" />
  <path
     style="fill:none;stroke:#000000;stroke-width:5;stroke-opacity:1"
     d = "M 311.0614,172.9547 336.0072,126.7561 "
id = "308" />
  <path
     style="fill:none;stroke:#000000;stroke-width:5;stroke-opacity:1"
     d = "M 313.5218,174.2261 336.0339,133.4255 "
id = "309" />
  <path
     style="fill:none;stroke:#000000;stroke-width:5;stroke-opacity:1"
     d = "M 318.5093,176.9142 336.0443,146.5092 "
id = "310" />
  <path
     style="fill:none;stroke:#000000;stroke-width:5;stroke-opacity:1"
     d = "M 322.1803,178.9909 336.0148,155.8043 "
id = "311" />
  <path
     style="fill:none;stroke:#000000;stroke-width:5;stroke-opacity:1"
     d = "M 325.8145,181.1313 336.0213,164.6311 "
id = "312" />
  <path
     style="fill:none;stroke:#000000;stroke-width:5;stroke-opacity:1"
     d = "M 329.4108,183.3348 336.0008,173.0664 "
id = "313" />
  <path
     style="fill:none;stroke:#000000;stroke-width:5;stroke-opacity:1"
     d = "M 332.9681,185.6008 336.0196,181.0244 "
id = "314" />
  <path
     style="fill:none;stroke:#000000;stroke-width:5;stroke-opacity:1"
     d = "M 48,48 336,48 336,720 48,720 48,48 "
id = "360" />
</svg>
