<svg
   width="384"
   height = "768"
   version="1.1"
   id="svg2"
   xmlns="http://www.w3.org/2000/svg"
   xmlns:svg="http://www.w3.org/2000/svg">
  <defs
     id="defs6" />

<rect
   style="fill:#F3F3F3;stroke-width:0;stroke-opacity:0"
   id="Background"
   width="384"
   height="768"
   x="0"
   y="0"
   rx="0" />
  <path
     style="fill:none;stroke:#000000;stroke-width:5;stroke-opacity:1"
     d = "M 310.2244,389.9166 336.0153,387.5137 "
id = "0" />
  <path
     style="fill:none;stroke:#000000;stroke-width:5;stroke-opacity:1"
     d = "M 310.0552,392.6591 336.0171,391.3102 "
id = "1" />
  <path
     style="fill:none;stroke:#000000;stroke-width:5;stroke-opacity:1"
     d = "M 309.8224,395.3969 335.4354,395.0653 336.014,395.2241 "
id = "2" />
  <path
     style="fill:none;stroke:#000000;stroke-width:5;stroke-opacity:1"
     d = "M 309.5237,398.149 334.4319,398.8679 336.0469,399.3991 "
id = "3" />
  <path
     style="fill:none;stroke:#000000;stroke-width:5;stroke-opacity:1"
     d = "M 309.1636,400.8731 333.3032,402.6632 336.0131,403.6951 "
id = "4" />
  <path
     style="fill:none;stroke:#000000;stroke-width:5;stroke-opacity:1"
     d = "M 308.7404,403.588 332.1839,406.3897 336.0484,408.0354 "
id = "5" />
  <path
     style="fill:none;stroke:#000000;stroke-width:5;stroke-opacity:1"
     d = "M 308.2504,406.3126 331.1253,410.151 336.0131,412.4466 "
id = "6" />
  <path
     style="fill:none;stroke:#000000;stroke-width:5;stroke-opacity:1"
     d = "M 307.7012,409.0049 329.9646,413.8429 336.0838,417.0309 "
id = "7" />
  <path
     style="fill:none;stroke:#000000;stroke-width:5;stroke-opacity:1"
     d = "M 307.0896,411.6837 328.825,417.4244 336.0211,421.5582 "
id = "8" />
  <path
     style="fill:none;stroke:#000000;stroke-width:5;stroke-opacity:1"
     d = "M 306.4108,414.3675 327.5579,420.8944 336.0021,426.2502 "
id = "9" />
  <path
     style="fill:none;stroke:#000000;stroke-width:5;stroke-opacity:1"
     d = "M 305.6751,417.0149 326.3462,424.0615 336.0294,430.8063 "
id = "10" />
  <path
     style="fill:none;stroke:#000000;stroke-width:5;stroke-opacity:1"
     d = "M 304.8781,419.6445 325.0248,427.1604 336.0666,435.2714 "
id = "11" />
  <path
     style="fill:none;stroke:#000000;stroke-width:5;stroke-opacity:1"
     d = "M 304.0138,422.2744 323.7247,430.2027 336.0233,439.6348 "
id = "12" />
  <path
     style="fill:none;stroke:#000000;stroke-width:5;stroke-opacity:1"
     d = "M 303.0952,424.864 322.3301,433.0557 336.0619,443.7449 "
id = "13" />
  <path
     style="fill:none;stroke:#000000;stroke-width:5;stroke-opacity:1"
     d = "M 302.1167,427.4316 320.7505,435.8344 334.9067,446.9404 336.0548,448.1938 "
id = "14" />
  <path
     style="fill:none;stroke:#000000;stroke-width:5;stroke-opacity:1"
     d = "M 300.8016,430.6286 318.6689,439.2253 332.5981,450.1048 336.0106,453.6219 "
id = "15" />
  <path
     style="fill:none;stroke:#000000;stroke-width:5;stroke-opacity:1"
     d = "M 299.974,432.5141 317.4217,441.2308 331.2441,451.917 336.0062,456.63 "
id = "16" />
  <path
     style="fill:none;stroke:#000000;stroke-width:5;stroke-opacity:1"
     d = "M 298.8188,435.0072 315.7332,443.7938 329.5216,454.3106 336.0157,460.3973 "
id = "17" />
  <path
     style="fill:none;stroke:#000000;stroke-width:5;stroke-opacity:1"
     d = "M 297.5969,437.4912 313.8991,446.3499 327.7964,456.6213 336.0713,464.1682 "
id = "18" />
  <path
     style="fill:none;stroke:#000000;stroke-width:5;stroke-opacity:1"
     d = "M 296.3268,439.9278 312.0037,448.9007 326.1152,459.054 336.0269,467.9225 "
id = "19" />
  <path
     style="fill:none;stroke:#000000;stroke-width:5;stroke-opacity:1"
     d = "M 295.0006,442.3343 310.0527,451.4512 324.2656,461.4867 336.0579,471.6985 "
id = "20" />
  <path
     style="fill:none;stroke:#000000;stroke-width:5;stroke-opacity:1"
     d = "M 293.6083,444.727 308.2346,454.0591 322.4182,464.0343 335.4358,474.9302 336.0349,475.4605 "
id = "21" />
  <path
     style="fill:none;stroke:#000000;stroke-width:5;stroke-opacity:1"
     d = "M 292.1714,447.0691 306.6696,456.6887 320.8015,466.6697 334.0132,477.4045 336.0518,479.1752 "
id = "22" />
  <path
     style="fill:none;stroke:#000000;stroke-width:5;stroke-opacity:1"
     d = "M 290.6805,449.3771 304.9976,459.3534 319.07,469.3287 332.1293,479.8431 336.0047,483.1582 "
id = "23" />
  <path
     style="fill:none;stroke:#000000;stroke-width:5;stroke-opacity:1"
     d = "M 289.1247,451.6669 303.1301,461.9868 317.1113,471.9897 329.9449,482.2902 336.0638,487.2879 "
id = "24" />
  <path
     style="fill:none;stroke:#000000;stroke-width:5;stroke-opacity:1"
     d = "M 287.5279,453.903 301.0605,464.6162 314.705,474.7007 327.2288,484.8883 336.0259,491.9784 "
id = "25" />
  <path
     style="fill:none;stroke:#000000;stroke-width:5;stroke-opacity:1"
     d = "M 285.8796,456.1014 298.8497,467.2288 312.0632,477.3889 324.2455,487.585 336.0143,497.6746 "
id = "26" />
  <path
     style="fill:none;stroke:#000000;stroke-width:5;stroke-opacity:1"
     d = "M 283.7342,458.8121 295.901,470.3656 308.4876,480.7706 319.9496,491.0452 330.9161,501.4369 336.0093,507.0798 "
id = "27" />
  <path
     style="fill:none;stroke:#000000;stroke-width:5;stroke-opacity:1"
     d = "M 282.419,460.3964 294.0141,472.1217 306.0634,482.5962 317.0666,493.0838 327.2999,503.5797 336.0086,514.4136 "
id = "28" />
  <path
     style="fill:none;stroke:#000000;stroke-width:5;stroke-opacity:1"
     d = "M 280.6214,462.4745 291.4691,474.3226 302.7187,485.0238 313.0312,495.8726 322.2616,506.6469 329.8416,517.8703 336.0325,528.6174 "
id = "29" />
  <path
     style="fill:none;stroke:#000000;stroke-width:5;stroke-opacity:1"
     d = "M 278.2921,465.0289 288.3051,476.9517 298.3805,488.0663 307.8248,499.4855 315.6487,510.5574 321.2274,521.8862 325.4368,533.1766 329.6416,542.6965 334.2824,550.6219 336.0204,552.4194 "
id = "30" />
  <path
     style="fill:none;stroke:#000000;stroke-width:5;stroke-opacity:1"
     d = "M 276.8696,466.5176 286.3533,478.474 295.7017,489.8528 304.5626,501.6222 311.2946,513.064 315.2146,524.5199 317.3167,535.7889 319.1849,545.2192 321.6602,552.8235 325.9099,559.1515 331.7832,564.8291 336.0282,567.8315 "
id = "31" />
  <path
     style="fill:none;stroke:#000000;stroke-width:5;stroke-opacity:1"
     d = "M 274.9314,468.4653 283.708,480.4116 292.0771,492.0888 299.9648,504.513 305.0855,516.7731 306.6653,528.678 305.5573,540.2567 304.9343,549.9729 306.0864,557.7386 308.8016,563.6243 312.9241,568.1882 318.4991,572.4122 325.6102,576.9085 334.5378,581.7786 336.0807,582.4914 "
id = "32" />
  <path
     style="fill:none;stroke:#000000;stroke-width:5;stroke-opacity:1"
     d = "M 272.9335,470.3816 280.9318,482.2554 288.2442,494.1073 295.0865,507.2735 298.8024,520.8547 298.0381,533.7996 295.8904,545.8323 295.5356,556.0447 297.2842,563.371 300.8925,568.4525 305.7921,572.1774 311.5776,575.5704 318.5907,579.6516 327.1519,584.3155 336.0343,588.6902 "
id = "33" />
  <path
     style="fill:none;stroke:#000000;stroke-width:5;stroke-opacity:1"
     d = "M 270.9067,472.2368 278.1301,484.0632 284.3038,496.2642 289.8975,510.0686 292.2311,524.8654 290.8309,539.0081 289.2955,552.0928 289.8785,561.8707 292.931,568.1332 298.0647,572.3706 304.0929,575.5901 310.6209,578.8303 318.169,583.0075 327.0548,587.8337 336.0058,592.5126 "
id = "34" />
  <path
     style="fill:none;stroke:#000000;stroke-width:5;stroke-opacity:1"
     d = "M 268.8374,474.0445 275.2397,485.9277 280.3017,498.5745 284.6562,513.0209 285.9042,529.0095 284.3882,544.5803 284.0115,558.0718 286.0187,566.6028 290.9539,572.2086 297.5693,576.0542 304.6027,579.0604 312.0055,582.5485 320.3426,587.096 329.5896,592.1032 336.028,595.9484 "
id = "35" />
  <path
     style="fill:none;stroke:#000000;stroke-width:5;stroke-opacity:1"
     d = "M 266.7107,475.8168 272.3692,487.9886 276.5386,501.2199 279.7374,516.5202 280.2563,533.6226 279.0491,550.1068 279.8483,562.818 283.6085,570.7537 290.1181,575.9785 297.9131,579.4006 305.85,582.3323 314.046,586.1937 322.9771,591.1161 332.1993,596.4203 336.0163,598.9865 "
id = "36" />
  <path
     style="fill:none;stroke:#000000;stroke-width:5;stroke-opacity:1"
     d = "M 264.5594,477.5261 269.5558,490.1232 273.0047,503.9213 275.4104,520.0571 275.5061,538.29 274.929,555.3938 276.9101,567.0331 282.248,574.3087 290.0106,579.1866 298.7266,582.2667 307.2581,585.3976 315.9805,589.6135 325.1969,594.9494 334.1616,600.7273 336.0104,602.0946 "
id = "37" />
  <path
     style="fill:none;stroke:#000000;stroke-width:5;stroke-opacity:1"
     d = "M 262.369,479.1851 266.8428,492.2132 269.7304,506.5196 271.4513,523.3165 271.5165,542.6033 271.7036,559.597 274.7985,570.3259 281.318,577.0717 289.9203,581.717 299.2723,584.7415 308.2531,588.0714 317.3289,592.6127 326.54,598.2866 335.312,604.2605 336.0063,604.8329 "
id = "38" />
  <path
     style="fill:none;stroke:#000000;stroke-width:5;stroke-opacity:1"
     d = "M 260.1407,480.7928 264.1642,494.2379 266.9248,509.163 268.0574,526.6754 268.1229,546.7893 269.1703,563.1048 273.3593,573.1397 280.801,579.5501 289.9878,584.0426 299.692,587.2367 308.9745,590.7994 318.4008,595.6977 327.3924,601.5964 335.8526,607.7269 336.0018,607.86 "
id = "39" />
  <path
     style="fill:none;stroke:#000000;stroke-width:5;stroke-opacity:1"
     d = "M 257.8586,482.3598 261.3692,496.1663 264.077,511.6495 264.8201,529.9944 264.9727,550.4791 266.9995,565.9429 272.0309,575.4594 279.979,581.8535 289.5762,586.4009 299.6493,589.8785 309.2762,593.7414 318.9039,598.9222 327.8296,604.786 335.6767,611.051 336.0385,611.3961 "
id = "40" />
  <path
     style="fill:none;stroke:#000000;stroke-width:5;stroke-opacity:1"
     d = "M 255.5578,483.8619 258.5801,497.8925 261.0975,513.7246 261.795,532.9069 262.1952,553.3937 264.9329,568.161 270.5792,577.4557 278.8612,583.9116 288.6463,588.696 298.9528,592.534 308.8974,596.7198 318.5544,602.0648 327.3284,607.9338 334.7172,614.2158 336.0004,615.4781 "
id = "41" />
  <path
     style="fill:none;stroke:#000000;stroke-width:5;stroke-opacity:1"
     d = "M 253.2052,485.321 255.8037,499.4376 258.1914,515.3991 259.0052,535.0195 259.7567,555.5711 262.9755,569.9181 269.1018,579.1275 277.5768,585.7731 287.4034,590.8489 297.817,595.0392 308.0112,599.3702 317.5169,604.7321 325.9932,610.678 333.0914,617.0925 336.0624,620.061 "
id = "42" />
  <path
     style="fill:none;stroke:#000000;stroke-width:5;stroke-opacity:1"
     d = "M 250.8369,486.7143 253.0544,500.8503 255.2188,516.8137 256.2395,536.6463 257.3609,557.4344 261.0998,571.4786 267.5029,580.661 275.9787,587.611 285.8415,593.0496 296.3159,597.6238 306.3282,602.0469 315.6983,607.5135 324.0743,613.546 330.8627,620.3086 336.0377,625.7377 "
id = "43" />
  <path
     style="fill:none;stroke:#000000;stroke-width:5;stroke-opacity:1"
     d = "M 248.437,488.0522 250.2069,502.1269 251.992,518.1667 253.4055,538.1727 255.048,558.926 259.2301,572.9 265.7484,582.2357 274.2063,589.4076 284.0341,595.237 294.2966,600.2598 303.9752,604.9217 313.1826,610.6089 321.4725,616.8934 328.034,623.8697 334.9533,631.723 336.0338,632.9027 "
id = "44" />
  <path
     style="fill:none;stroke:#000000;stroke-width:5;stroke-opacity:1"
     d = "M 245.9883,489.3436 247.2016,503.2618 248.6428,519.445 250.4938,539.5787 252.7265,560.033 257.2759,574.1158 263.7813,583.6681 272.0649,591.1641 281.6043,597.5656 291.5939,603.1628 301.1718,608.3193 310.2878,614.1877 318.4438,620.5461 324.8401,627.3352 331.2049,635.2113 336.006,640.8435 "
id = "45" />
  <path
     style="fill:none;stroke:#000000;stroke-width:5;stroke-opacity:1"
     d = "M 243.5286,490.5683 244.258,504.2172 245.5045,520.6223 247.6526,540.9959 250.4721,560.9345 255.0409,575.1316 261.4396,584.9991 269.4813,592.9185 278.7273,599.9586 288.4557,606.1989 298.037,611.9418 307.0881,618.2084 314.8689,624.7421 321.1231,631.4556 327.105,639.0032 333.5763,647.2031 336.059,650.5894 "
id = "46" />
  <path
     style="fill:none;stroke:#000000;stroke-width:5;stroke-opacity:1"
     d = "M 241.0412,491.7356 241.3348,505.2352 242.3821,521.8905 244.777,542.6467 247.9724,562.2298 252.5144,576.5466 258.8409,586.6198 266.6822,594.8906 275.7278,602.5422 285.2407,609.6064 294.6164,616.3123 303.4016,623.4457 310.7376,630.4335 316.8115,637.1729 322.1902,644.3132 327.7013,652.3495 333.5223,661.9828 336.019,666.7717 "
id = "47" />
  <path
     style="fill:none;stroke:#000000;stroke-width:5;stroke-opacity:1"
     d = "M 238.5084,492.853 238.4009,506.3672 239.3192,523.2157 241.9202,544.2159 245.4108,563.6451 249.866,578.1617 256.0974,588.3978 263.6271,597.062 272.3032,605.5493 281.6352,613.8258 290.8525,621.9792 298.7966,630.0127 305.2314,637.5415 310.1758,644.5214 314.216,651.5983 318.1319,659.7218 321.8681,669.0831 325.5482,679.922 330.0486,693.3909 334.5023,710.697 336.021,716.2938 "
id = "48" />
  <path
     style="fill:none;stroke:#000000;stroke-width:5;stroke-opacity:1"
     d = "M 235.9693,493.9032 235.5399,507.5939 236.3617,524.3786 238.8677,545.3979 242.2752,564.8458 246.6566,579.5559 252.5803,590.2442 259.5736,599.5414 267.6601,609.1232 276.6289,618.9391 285.4288,629.4474 292.2878,639.3608 296.6239,648.2893 299.3204,655.9823 301.1193,663.4167 302.6658,671.2613 304.3587,679.8525 306.0042,690.6962 308.0381,704.1598 310.128,720.0192 "
id = "49" />
  <path
     style="fill:none;stroke:#000000;stroke-width:5;stroke-opacity:1"
     d = "M 233.4065,494.8941 232.7203,508.8242 233.3736,525.601 235.7307,546.5378 238.7981,565.8767 243.0189,580.7152 248.6375,591.9738 255.2617,602.1354 262.6644,613.0604 270.8817,624.9722 278.243,638.1677 282.7809,650.3721 285.5005,660.8682 288.1793,669.6487 290.9591,677.8458 293.4041,687.0386 295.3957,699.0455 298.352,713.8744 299.4517,720.0767 "
id = "50" />
  <path
     style="fill:none;stroke:#000000;stroke-width:5;stroke-opacity:1"
     d = "M 230.1506,496.056 229.3268,510.0481 229.7202,527.0095 231.6661,547.7843 234.1288,567.1225 237.9751,581.9752 243.3856,593.7768 249.6324,604.9883 256.3243,617.7839 263.1795,632.0549 269.3773,647.3061 272.9079,660.8003 276.9546,672.4724 280.9838,683.1805 284.4376,694.2597 287.8764,707.961 290.5139,720.0779 "
id = "51" />
  <path
     style="fill:none;stroke:#000000;stroke-width:5;stroke-opacity:1"
     d = "M 228.1957,496.7026 227.308,510.8311 227.6283,528.0378 229.3313,548.7577 231.3677,568.0277 234.8002,582.9113 239.8965,594.8755 245.8194,606.6825 251.905,620.3513 257.9772,635.9507 263.6382,652.4755 267.9468,666.8767 273.0182,679.0315 277.7679,690.902 282.3816,704.6389 286.4527,720.011 "
id = "52" />
  <path
     style="fill:none;stroke:#000000;stroke-width:5;stroke-opacity:1"
     d = "M 225.57,497.5124 224.5877,511.8507 224.8932,529.2863 226.1444,549.8787 227.6091,569.065 230.1404,583.9691 234.1821,596.0267 239.1127,608.4853 244.1098,622.9977 249.218,640.1544 253.9317,657.6891 259.5468,672.8213 266.2111,686.5171 273.1801,700.7527 279.429,717.5412 279.9289,720.093 "
id = "53" />
  <path
     style="fill:none;stroke:#000000;stroke-width:5;stroke-opacity:1"
     d = "M 222.2411,498.4443 221.1443,513.0059 221.2533,530.5701 221.9405,551.0115 222.6516,569.9643 223.8498,585.0937 226.1002,597.2186 228.9425,610.4354 232.2051,625.3148 236.0872,642.0969 240.2442,659.8696 246.512,675.9323 255.1268,690.4216 264.386,705.4794 271.0315,720.0302 "
id = "54" />
  <path
     style="fill:none;stroke:#000000;stroke-width:5;stroke-opacity:1"
     d = "M 220.2458,498.953 219.1037,513.6087 219.0511,531.1268 219.3379,551.4308 219.632,570.1516 220.1012,585.4346 221.2711,598.1671 222.7733,611.8219 224.4518,626.8301 227.3877,643.0439 230.8352,659.4407 236.6291,674.568 245.3566,689.109 254.9111,703.9011 263.3587,720.0194 "
id = "55" />
  <path
     style="fill:none;stroke:#000000;stroke-width:5;stroke-opacity:1"
     d = "M 217.5701,499.5776 216.3384,514.3334 216.0348,531.7524 215.7137,551.8918 215.4135,570.2733 214.9023,585.8173 214.9788,599.7506 215.2118,614.2208 215.4637,629.4075 216.855,644.9925 219.4444,659.199 224.8594,671.8882 232.5142,685.6838 241.2563,700.1581 249.2998,715.436 250.9843,720.0387 "
id = "56" />
  <path
     style="fill:none;stroke:#000000;stroke-width:5;stroke-opacity:1"
     d = "M 214.1842,500.275 212.7621,515.2718 211.979,532.742 210.8517,552.6484 209.6277,570.815 207.9206,586.8336 206.6777,602.8145 205.0114,618.523 203.2757,634.8269 203.0717,649.6317 205.6429,661.7344 210.6795,672.8632 216.753,684.1063 223.8774,696.8713 230.7978,711.2808 233.5493,720.0574 "
id = "57" />
  <path
     style="fill:none;stroke:#000000;stroke-width:5;stroke-opacity:1"
     d = "M 212.1583,500.6432 210.6134,515.7068 209.4571,533.1645 207.8886,552.9141 206.1135,571.2405 203.6884,587.6071 201.7898,604.5513 199.5634,621.0216 197.1021,637.8079 196.685,651.6929 199.1469,663.3292 203.5803,674.0696 209.2117,684.3356 215.2842,695.655 221.6831,708.7083 225.1948,720.0752 "
id = "58" />
  <path
     style="fill:none;stroke:#000000;stroke-width:5;stroke-opacity:1"
     d = "M 209.4455,501.0797 207.7606,516.1922 206.0578,533.5522 203.7845,553.2542 201.1779,571.9064 197.8334,589.036 195.1208,606.7355 192.0807,624.6097 188.7619,641.7835 188.2163,654.6463 190.2301,665.5267 193.7203,675.4963 198.2971,685.495 203.5395,696.2725 207.7111,708.1884 209.652,720.0316 "
id = "59" />
  <path
     style="fill:none;stroke:#000000;stroke-width:5;stroke-opacity:1"
     d = "M 206.0192,501.5392 203.8845,516.6068 201.5078,533.7974 198.4523,553.662 194.5673,572.3297 189.8696,590.5114 185.7558,609.287 181.0914,629.0776 177.7294,646.1907 176.9498,658.2446 178.7176,669.2891 181.2012,679.8353 184.4854,691.1829 188.2403,704.3223 188.436,719.3903 188.3103,720.079 "
id = "60" />
  <path
     style="fill:none;stroke:#000000;stroke-width:5;stroke-opacity:1"
     d = "M 203.9726,501.7653 201.5347,516.7835 198.7869,533.8019 195.2831,553.7947 190.6451,572.6316 185.3047,591.3118 180.2771,610.8139 174.8923,631.6947 171.2364,648.6054 170.4388,661.3461 172.1905,673.3403 174.1201,685.0514 176.534,697.6794 178.9091,713.2734 178.4681,720.0593 "
id = "61" />
  <path
     style="fill:none;stroke:#000000;stroke-width:5;stroke-opacity:1"
     d = "M 201.2359,502.0114 198.4232,517.0431 195.2737,533.9153 191.0324,554.0613 185.4243,573.3091 179.4561,592.8083 173.2268,613.2382 167.3728,635.4423 163.3021,652.617 162.8882,667.2013 164.5838,680.5678 166.3444,694.1273 168.5428,709.5925 168.8905,720.0836 "
id = "62" />
  <path
     style="fill:none;stroke:#000000;stroke-width:5;stroke-opacity:1"
     d = "M 197.7859,502.2309 194.3862,517.367 190.629,534.162 185.3056,554.3261 178.6356,574.3273 171.7717,595.0203 164.3848,617.2811 158.1765,639.6519 154.2397,658.1069 155.0317,673.759 157.7043,688.1973 160.1114,703.385 162.0776,720.0681 "
id = "63" />
  <path
     style="fill:none;stroke:#000000;stroke-width:5;stroke-opacity:1"
     d = "M 195.7285,502.3136 191.9815,517.5392 187.8356,534.3918 181.8179,554.5768 174.6163,575.3015 167.4257,596.8306 159.6505,619.8577 153.6259,641.9883 150.1945,660.6971 151.8418,676.5742 154.7663,691.6237 157.1438,707.4456 158.4557,720.0804 "
id = "64" />
  <path
     style="fill:none;stroke:#000000;stroke-width:5;stroke-opacity:1"
     d = "M 192.9814,502.3683 188.8193,517.7063 183.9597,534.6484 176.9181,554.9506 169.2011,576.8196 161.6331,599.3469 153.2753,623.5029 147.8516,645.486 145.3008,664.1251 147.6137,680.3945 150.9978,696.5953 153.4567,713.5625 153.9715,720.0411 "
id = "65" />
  <path
     style="fill:none;stroke:#000000;stroke-width:5;stroke-opacity:1"
     d = "M 190.213,502.3589 185.6996,517.7953 180.0714,534.8064 172.1929,555.3264 164.1102,578.0956 156.1925,601.498 147.4329,626.0073 142.6755,647.8471 141.0933,666.8466 143.6377,683.6939 147.255,700.8176 149.8348,719.2051 149.9042,720.002 "
id = "66" />
  <path
     style="fill:none;stroke:#000000;stroke-width:5;stroke-opacity:1"
     d = "M 187.4663,502.2855 182.7781,517.7024 176.4783,534.8358 168.0319,555.6073 159.3031,578.6946 150.9384,602.4777 142.1386,626.5662 137.9112,648.3367 136.7726,667.7155 139.3236,685.246 143.0364,703.2772 145.6382,720.0759 "
id = "67" />
  <path
     style="fill:none;stroke:#000000;stroke-width:5;stroke-opacity:1"
     d = "M 184.722,502.1483 179.8528,517.627 172.9516,534.9498 164.1425,555.902 154.805,579.1839 145.9581,602.9973 137.3485,626.3509 133.2732,648.0394 132.5598,667.9606 135.1904,686.1293 138.8333,705.0632 141.3313,720.0554 "
id = "68" />
  <path
     style="fill:none;stroke:#000000;stroke-width:5;stroke-opacity:1"
     d = "M 181.9611,501.9459 176.8557,517.5104 169.3778,535.0527 160.2406,556.2055 150.3275,579.6192 141.0522,603.1376 132.5746,625.7094 128.6148,646.9074 128.299,667.7996 130.7228,686.7226 134.1924,706.344 136.5975,720.037 "
id = "69" />
  <path
     style="fill:none;stroke:#000000;stroke-width:5;stroke-opacity:1"
     d = "M 179.2262,501.6811 173.7849,517.4763 165.8631,535.2401 156.3208,556.7568 145.9673,580.3392 136.3804,603.345 127.8899,625.1162 124.078,645.8297 123.898,667.2311 125.8897,687.2163 128.9502,707.577 130.9324,720.0201 "
id = "70" />
  <path
     style="fill:none;stroke:#000000;stroke-width:5;stroke-opacity:1"
     d = "M 176.4981,501.3529 170.624,517.54 162.3077,535.4935 152.3399,557.4869 141.6991,581.204 131.9017,603.4728 123.6345,624.2769 119.6647,644.5513 119.2799,666.1112 120.7058,687.3996 123.0621,708.6044 124.5422,720.0103 "
id = "71" />
  <path
     style="fill:none;stroke:#000000;stroke-width:5;stroke-opacity:1"
     d = "M 173.758,500.9583 167.4108,517.5101 158.7234,535.6968 148.2591,558.135 137.3613,581.7023 127.5791,603.1452 119.6854,622.9573 115.4088,642.5966 114.6335,664.1204 115.736,686.8016 117.3288,708.968 118.196,720.0314 "
id = "72" />
  <path
     style="fill:none;stroke:#000000;stroke-width:5;stroke-opacity:1"
     d = "M 171.0482,500.5034 164.3223,517.3547 155.2508,535.8994 144.2138,558.4857 133.2484,581.6 123.6079,602.2174 115.9813,621.0365 111.4179,639.9879 110.2369,661.3269 111.428,685.1996 112.584,708.4081 112.8406,720.0052 "
id = "73" />
  <path
     style="fill:none;stroke:#000000;stroke-width:5;stroke-opacity:1"
     d = "M 168.3498,499.9857 161.3085,517.0594 151.7875,535.94 140.23,558.3922 129.3241,581.0511 119.921,600.8635 112.5054,618.3401 107.5491,635.9763 105.3353,656.4406 106.0737,680.7999 106.6307,705.4114 105.7346,720.0809 "
id = "74" />
  <path
     style="fill:none;stroke:#000000;stroke-width:5;stroke-opacity:1"
     d = "M 165.6439,499.4009 158.1983,516.8068 148.1826,536.0684 136.1548,558.3881 125.4805,580.8429 116.2867,599.7552 109.0148,615.9634 103.7438,632.3049 100.3245,651.2452 99.56505,675.4891 98.93098,701.4695 96.34059,720.0928 "
id = "75" />
  <path
     style="fill:none;stroke:#000000;stroke-width:5;stroke-opacity:1"
     d = "M 162.9724,498.7581 155.1162,516.5955 144.4332,536.1951 132.0101,558.3267 121.4668,580.6918 112.2504,598.4973 104.8215,613.3915 98.97959,628.5869 94.65823,645.8026 91.90974,668.961 89.75742,696.0545 85.15003,720.0167 "
id = "76" />
  <path
     style="fill:none;stroke:#000000;stroke-width:5;stroke-opacity:1"
     d = "M 160.3166,498.0534 151.9551,516.3251 140.6129,536.1814 127.8649,557.8854 117.6183,579.7515 108.3934,596.8947 100.6127,610.5212 94.17097,624.1263 88.75565,639.4973 85.01059,660.1232 81.36776,686.7169 74.49232,714.2454 72.48462,720.0051 "
id = "77" />
  <path
     style="fill:none;stroke:#000000;stroke-width:5;stroke-opacity:1"
     d = "M 157.6779,497.2872 148.8154,515.9901 136.9302,536.1402 123.8246,557.5545 113.9833,578.7723 104.4631,595.1163 96.19607,607.6852 89.08056,619.7709 82.5876,633.4036 77.25185,651.5697 72.57225,675.8493 64.78789,703.1492 57.06752,720.0759 "
id = "78" />
  <path
     style="fill:none;stroke:#000000;stroke-width:5;stroke-opacity:1"
     d = "M 155.038,496.4536 145.6716,515.4608 133.2128,535.8459 119.9118,557.0999 110.1473,577.6213 100.6583,593.1972 92.11534,604.8846 83.912,615.8973 76.26355,628.1571 68.66751,643.7611 63.21169,664.3503 56.48158,690.4368 47.97296,708.7579 "
id = "79" />
  <path
     style="fill:none;stroke:#000000;stroke-width:5;stroke-opacity:1"
     d = "M 152.4379,495.5654 142.5576,514.8563 129.6221,535.4174 116.1474,556.4595 106.3627,576.354 96.85125,591.0511 87.88017,602.124 78.66175,612.0126 69.74729,622.7624 60.77685,635.6344 53.84267,652.0477 48.20829,673.0366 47.99199,673.7023 "
id = "80" />
  <path
     style="fill:none;stroke:#000000;stroke-width:5;stroke-opacity:1"
     d = "M 149.8397,494.6098 139.4421,514.2272 126.0714,534.762 112.4936,555.6741 102.5984,575.0664 93.10139,588.9496 83.7067,599.6298 73.98908,608.6204 64.38683,618.1942 54.75867,629.2519 47.96881,640.8084 "
id = "81" />
  <path
     style="fill:none;stroke:#000000;stroke-width:5;stroke-opacity:1"
     d = "M 147.2837,493.6014 136.5057,513.7086 122.7412,534.3042 109.3622,555.0242 99.19605,573.8357 89.644,587.1858 80.08316,597.6405 69.8054,606.1594 59.63749,614.9609 49.432,624.9332 47.99812,627.1025 "
id = "82" />
  <path
     style="fill:none;stroke:#000000;stroke-width:5;stroke-opacity:1"
     d = "M 144.7518,492.5339 133.5373,513.1571 119.4937,533.7879 106.3668,554.4297 95.95808,572.6296 86.30139,585.5663 76.53905,595.721 65.80785,603.9124 55.46496,612.2093 47.95267,618.8072 "
id = "83" />
  <path
     style="fill:none;stroke:#000000;stroke-width:5;stroke-opacity:1"
     d = "M 142.2266,491.3994 130.5791,512.3121 116.3284,533.0997 103.1437,553.9265 92.63708,571.5141 82.93089,584.1995 72.89285,593.8832 61.93893,601.7242 51.40715,609.8455 47.97426,612.7541 "
id = "84" />
  <path
     style="fill:none;stroke:#000000;stroke-width:5;stroke-opacity:1"
     d = "M 139.7472,490.2151 127.6825,511.3845 113.1344,532.3953 99.75017,553.1226 89.23168,570.4052 79.65511,582.8001 69.36431,592.0086 58.28075,599.6782 47.98465,607.6127 "
id = "85" />
  <path
     style="fill:none;stroke:#000000;stroke-width:5;stroke-opacity:1"
     d = "M 137.296,488.9737 124.8414,510.4466 109.9194,531.7491 96.46112,552.3807 86.03105,569.3457 76.60034,581.4913 66.07703,590.3259 54.85653,597.9521 47.99759,603.3046 "
id = "86" />
  <path
     style="fill:none;stroke:#000000;stroke-width:5;stroke-opacity:1"
     d = "M 134.8561,487.6657 121.9942,509.4228 106.6994,530.952 93.19162,551.4061 82.91565,568.2195 73.42392,580.1853 62.69674,588.7817 51.4156,596.6141 47.96433,599.3426 "
id = "87" />
  <path
     style="fill:none;stroke:#000000;stroke-width:5;stroke-opacity:1"
     d = "M 132.4653,486.3114 119.1794,508.1948 103.4841,529.8425 89.81944,550.0374 79.52862,566.8713 69.79151,578.6481 58.85868,587.2563 47.97013,595.4077 "
id = "88" />
  <path
     style="fill:none;stroke:#000000;stroke-width:5;stroke-opacity:1"
     d = "M 130.1066,484.902 116.3745,506.963 100.3034,528.5673 86.49239,548.4971 75.96111,565.3326 65.78132,577.1004 54.6264,585.9893 47.97346,591.281 "
id = "89" />
  <path
     style="fill:none;stroke:#000000;stroke-width:5;stroke-opacity:1"
     d = "M 127.7639,483.427 113.639,505.5588 97.24398,527.2413 83.43447,546.9925 72.48193,563.6117 61.80909,575.4821 50.41953,584.8264 47.95408,586.8654 "
id = "90" />
  <path
     style="fill:none;stroke:#000000;stroke-width:5;stroke-opacity:1"
     d = "M 125.4734,481.9092 111.059,504.082 94.39069,525.9351 80.62556,545.6243 69.32074,561.8605 58.16544,573.8851 47.96658,582.5791 "
id = "91" />
  <path
     style="fill:none;stroke:#000000;stroke-width:5;stroke-opacity:1"
     d = "M 123.2188,480.3387 108.5718,502.7582 91.63711,524.7961 77.87302,544.3266 66.37806,560.1482 54.64746,572.6424 47.92932,578.6299 "
id = "92" />
  <path
     style="fill:none;stroke:#000000;stroke-width:5;stroke-opacity:1"
     d = "M 120.9847,478.704 106.0882,501.429 88.92339,523.6245 75.09513,542.9055 63.45629,558.3455 51.22229,571.3297 47.97277,574.2972 "
id = "93" />
  <path
     style="fill:none;stroke:#000000;stroke-width:5;stroke-opacity:1"
     d = "M 118.8057,477.0301 103.6874,499.9704 86.17953,522.4174 72.18307,541.3629 60.43997,556.6052 48.04982,570.031 47.97581,570.0983 "
id = "94" />
  <path
     style="fill:none;stroke:#000000;stroke-width:5;stroke-opacity:1"
     d = "M 116.6661,475.3061 101.4722,498.3516 83.63965,520.9191 69.37373,539.6245 57.20913,554.9255 47.99032,565.1929 "
id = "95" />
  <path
     style="fill:none;stroke:#000000;stroke-width:5;stroke-opacity:1"
     d = "M 114.5515,473.5195 99.44029,496.6355 81.36377,519.2456 66.76888,537.8083 54.00655,553.2796 47.98788,560.1057 "
id = "96" />
  <path
     style="fill:none;stroke:#000000;stroke-width:5;stroke-opacity:1"
     d = "M 112.4945,471.6977 97.60526,494.7655 79.45218,517.4223 64.35484,535.8286 50.93264,551.4643 47.96581,554.8481 "
id = "97" />
  <path
     style="fill:none;stroke:#000000;stroke-width:5;stroke-opacity:1"
     d = "M 110.4804,469.8287 95.82756,492.8234 77.61166,515.4551 62.02555,533.7246 47.95046,549.3105 "
id = "98" />
  <path
     style="fill:none;stroke:#000000;stroke-width:5;stroke-opacity:1"
     d = "M 108.5103,467.9134 94.11804,490.7848 75.98941,513.3138 59.86215,531.5394 47.95671,543.9586 "
id = "99" />
  <path
     style="fill:none;stroke:#000000;stroke-width:5;stroke-opacity:1"
     d = "M 106.5707,465.938 92.51654,488.5267 74.53588,510.9055 57.86048,529.1049 47.99902,538.9037 "
id = "100" />
  <path
     style="fill:none;stroke:#000000;stroke-width:5;stroke-opacity:1"
     d = "M 104.6919,463.9331 90.87595,486.2943 73.10857,508.5662 55.9335,526.7925 47.9675,534.3792 "
id = "101" />
  <path
     style="fill:none;stroke:#000000;stroke-width:5;stroke-opacity:1"
     d = "M 102.395,461.3495 88.64129,483.4056 71.17284,505.7328 53.3981,524.1356 47.98682,529.0367 "
id = "102" />
  <path
     style="fill:none;stroke:#000000;stroke-width:5;stroke-opacity:1"
     d = "M 101.0631,459.7792 87.35629,481.5627 70.17007,503.9679 52.01949,522.4509 47.96141,526.0137 "
id = "103" />
  <path
     style="fill:none;stroke:#000000;stroke-width:5;stroke-opacity:1"
     d = "M 99.32874,457.6481 85.75978,478.8276 69.07683,501.2501 50.54905,519.8331 47.9474,522.0224 "
id = "104" />
  <path
     style="fill:none;stroke:#000000;stroke-width:5;stroke-opacity:1"
     d = "M 97.21762,454.9106 83.67848,475.0222 67.54547,497.1264 48.86675,515.7032 47.93062,516.454 "
id = "105" />
  <path
     style="fill:none;stroke:#000000;stroke-width:5;stroke-opacity:1"
     d = "M 95.99854,453.2512 82.42139,472.6807 66.46172,494.593 47.94839,512.85 "
id = "106" />
  <path
     style="fill:none;stroke:#000000;stroke-width:5;stroke-opacity:1"
     d = "M 94.41705,451.0042 80.81586,469.5266 64.96312,491.0167 47.96236,507.8141 "
id = "107" />
  <path
     style="fill:none;stroke:#000000;stroke-width:5;stroke-opacity:1"
     d = "M 92.50204,448.1262 78.87067,465.3597 63.04529,486.1985 47.96635,501.2401 "
id = "108" />
  <path
     style="fill:none;stroke:#000000;stroke-width:5;stroke-opacity:1"
     d = "M 91.40167,446.3857 77.7489,462.8894 61.89106,483.3073 47.99215,497.2671 "
id = "109" />
  <path
     style="fill:none;stroke:#000000;stroke-width:5;stroke-opacity:1"
     d = "M 89.98077,444.034 76.29085,459.6612 60.32412,479.2198 47.9518,491.7399 "
id = "110" />
  <path
     style="fill:none;stroke:#000000;stroke-width:5;stroke-opacity:1"
     d = "M 88.27119,441.0294 74.3192,455.6886 57.86065,473.6842 47.93748,483.2736 "
id = "111" />
  <path
     style="fill:none;stroke:#000000;stroke-width:5;stroke-opacity:1"
     d = "M 87.29492,439.2164 73.14479,453.3439 56.3534,470.3686 47.97661,478.2475 "
id = "112" />
  <path
     style="fill:none;stroke:#000000;stroke-width:5;stroke-opacity:1"
     d = "M 86.04153,436.7712 71.5808,450.2565 54.37585,465.968 47.97269,471.7104 "
id = "113" />
  <path
     style="fill:none;stroke:#000000;stroke-width:5;stroke-opacity:1"
     d = "M 84.5457,433.6547 69.68958,446.3394 52.17787,460.4293 47.95821,463.9574 "
id = "114" />
  <path
     style="fill:none;stroke:#000000;stroke-width:5;stroke-opacity:1"
     d = "M 83.69827,431.778 68.60226,444.0075 50.80724,457.2327 47.92212,459.5497 "
id = "115" />
  <path
     style="fill:none;stroke:#000000;stroke-width:5;stroke-opacity:1"
     d = "M 82.6185,429.2514 67.17097,440.7688 48.85202,452.8476 47.96424,453.4971 "
id = "116" />
  <path
     style="fill:none;stroke:#000000;stroke-width:5;stroke-opacity:1"
     d = "M 81.34372,426.0381 65.44696,436.5388 47.99941,446.5189 "
id = "117" />
  <path
     style="fill:none;stroke:#000000;stroke-width:5;stroke-opacity:1"
     d = "M 80.62926,424.1069 64.33163,433.9633 47.97306,442.6013 "
id = "118" />
  <path
     style="fill:none;stroke:#000000;stroke-width:5;stroke-opacity:1"
     d = "M 79.72837,421.5111 62.70395,430.4894 47.99971,437.2872 "
id = "119" />
  <path
     style="fill:none;stroke:#000000;stroke-width:5;stroke-opacity:1"
     d = "M 78.68085,418.2167 60.59531,425.9885 47.99038,430.5359 "
id = "120" />
  <path
     style="fill:none;stroke:#000000;stroke-width:5;stroke-opacity:1"
     d = "M 78.10284,416.2404 59.43225,423.3333 47.93414,426.7683 "
id = "121" />
  <path
     style="fill:none;stroke:#000000;stroke-width:5;stroke-opacity:1"
     d = "M 77.38521,413.5881 57.9797,419.9666 47.92582,422.2046 "
id = "122" />
  <path
     style="fill:none;stroke:#000000;stroke-width:5;stroke-opacity:1"
     d = "M 76.57005,410.2286 56.3334,415.7451 47.91784,416.941 "
id = "123" />
  <path
     style="fill:none;stroke:#000000;stroke-width:5;stroke-opacity:1"
     d = "M 76.13131,408.2168 55.42356,413.2965 47.96259,414.0587 "
id = "124" />
  <path
     style="fill:none;stroke:#000000;stroke-width:5;stroke-opacity:1"
     d = "M 75.60045,405.5209 54.35439,409.9936 47.96426,410.351 "
id = "125" />
  <path
     style="fill:none;stroke:#000000;stroke-width:5;stroke-opacity:1"
     d = "M 75.02162,402.1127 53.21917,405.7508 47.91925,405.7847 "
id = "126" />
  <path
     style="fill:none;stroke:#000000;stroke-width:5;stroke-opacity:1"
     d = "M 74.72428,400.0752 52.6629,403.3393 47.96333,403.2776 "
id = "127" />
  <path
     style="fill:none;stroke:#000000;stroke-width:5;stroke-opacity:1"
     d = "M 74.38277,397.3488 52.13462,400.2275 47.93725,400.0814 "
id = "128" />
  <path
     style="fill:none;stroke:#000000;stroke-width:5;stroke-opacity:1"
     d = "M 74.10273,394.5947 51.8194,397.2511 47.92481,397.0464 "
id = "129" />
  <path
     style="fill:none;stroke:#000000;stroke-width:5;stroke-opacity:1"
     d = "M 73.8886,391.8553 51.55389,394.2549 47.96232,394.0089 "
id = "130" />
  <path
     style="fill:none;stroke:#000000;stroke-width:5;stroke-opacity:1"
     d = "M 73.73811,389.1118 51.30052,391.2358 47.91095,390.9702 "
id = "131" />
  <path
     style="fill:none;stroke:#000000;stroke-width:5;stroke-opacity:1"
     d = "M 73.65088,386.3448 51.01879,388.1467 47.92948,387.8893 "
id = "132" />
  <path
     style="fill:none;stroke:#000000;stroke-width:5;stroke-opacity:1"
     d = "M 73.62836,383.5972 50.84937,385.0529 47.96014,384.8025 "
id = "133" />
  <path
     style="fill:none;stroke:#000000;stroke-width:5;stroke-opacity:1"
     d = "M 73.66962,380.8498 50.75257,381.8575 47.96447,381.5994 "
id = "134" />
  <path
     style="fill:none;stroke:#000000;stroke-width:5;stroke-opacity:1"
     d = "M 73.77561,378.0834 50.71084,378.4763 47.92712,378.1746 "
id = "135" />
  <path
     style="fill:none;stroke:#000000;stroke-width:5;stroke-opacity:1"
     d = "M 73.94482,375.3409 50.88442,375.0513 47.90724,374.6823 "
id = "136" />
  <path
     style="fill:none;stroke:#000000;stroke-width:5;stroke-opacity:1"
     d = "M 74.17761,372.6031 51.18224,371.7332 47.91653,371.2589 "
id = "137" />
  <path
     style="fill:none;stroke:#000000;stroke-width:5;stroke-opacity:1"
     d = "M 74.47632,369.8509 51.5555,368.634 47.90496,368.031 "
id = "138" />
  <path
     style="fill:none;stroke:#000000;stroke-width:5;stroke-opacity:1"
     d = "M 74.83641,367.1269 51.95975,365.6365 47.92472,364.9095 "
id = "139" />
  <path
     style="fill:none;stroke:#000000;stroke-width:5;stroke-opacity:1"
     d = "M 75.25963,364.412 52.44379,362.7243 47.92773,361.8497 "
id = "140" />
  <path
     style="fill:none;stroke:#000000;stroke-width:5;stroke-opacity:1"
     d = "M 75.74959,361.6873 53.0268,359.7729 47.93618,358.7128 "
id = "141" />
  <path
     style="fill:none;stroke:#000000;stroke-width:5;stroke-opacity:1"
     d = "M 76.29883,358.9951 53.66859,356.6039 47.90845,355.3274 "
id = "142" />
  <path
     style="fill:none;stroke:#000000;stroke-width:5;stroke-opacity:1"
     d = "M 76.9104,356.3163 54.32217,353.3806 47.99262,351.9008 "
id = "143" />
  <path
     style="fill:none;stroke:#000000;stroke-width:5;stroke-opacity:1"
     d = "M 77.58922,353.6325 55.01205,350.1246 47.92575,348.3714 "
id = "144" />
  <path
     style="fill:none;stroke:#000000;stroke-width:5;stroke-opacity:1"
     d = "M 78.32492,350.9851 55.69469,346.7575 47.95147,344.7482 "
id = "145" />
  <path
     style="fill:none;stroke:#000000;stroke-width:5;stroke-opacity:1"
     d = "M 79.12186,348.3555 56.37302,343.2973 47.97782,341.014 "
id = "146" />
  <path
     style="fill:none;stroke:#000000;stroke-width:5;stroke-opacity:1"
     d = "M 79.98626,345.7256 57.21535,339.8923 47.97841,337.2761 "
id = "147" />
  <path
     style="fill:none;stroke:#000000;stroke-width:5;stroke-opacity:1"
     d = "M 80.90482,343.136 58.05656,336.5156 47.9881,333.5355 "
id = "148" />
  <path
     style="fill:none;stroke:#000000;stroke-width:5;stroke-opacity:1"
     d = "M 81.88326,340.5684 59.01564,333.2148 47.92337,329.8199 "
id = "149" />
  <path
     style="fill:none;stroke:#000000;stroke-width:5;stroke-opacity:1"
     d = "M 82.92899,338.0051 60.09977,329.8186 47.99537,325.9739 "
id = "150" />
  <path
     style="fill:none;stroke:#000000;stroke-width:5;stroke-opacity:1"
     d = "M 84.02598,335.4859 61.26256,326.5211 47.94049,322.2145 "
id = "151" />
  <path
     style="fill:none;stroke:#000000;stroke-width:5;stroke-opacity:1"
     d = "M 85.18114,332.9928 62.47297,323.4274 47.91969,318.7068 "
id = "152" />
  <path
     style="fill:none;stroke:#000000;stroke-width:5;stroke-opacity:1"
     d = "M 86.40314,330.5087 63.70155,320.4378 47.92184,315.2858 "
id = "153" />
  <path
     style="fill:none;stroke:#000000;stroke-width:5;stroke-opacity:1"
     d = "M 87.67318,328.0722 64.98958,317.5082 47.97962,311.9363 "
id = "154" />
  <path
     style="fill:none;stroke:#000000;stroke-width:5;stroke-opacity:1"
     d = "M 88.99944,325.6657 66.23928,314.6365 47.96975,308.7303 "
id = "155" />
  <path
     style="fill:none;stroke:#000000;stroke-width:5;stroke-opacity:1"
     d = "M 90.38119,323.2907 67.66656,311.7181 47.97762,305.3315 "
id = "156" />
  <path
     style="fill:none;stroke:#000000;stroke-width:5;stroke-opacity:1"
     d = "M 91.82863,320.9309 69.3195,308.7673 47.91741,301.8253 "
id = "157" />
  <path
     style="fill:none;stroke:#000000;stroke-width:5;stroke-opacity:1"
     d = "M 93.31952,318.6229 71.03102,305.9315 47.97168,298.2636 "
id = "158" />
  <path
     style="fill:none;stroke:#000000;stroke-width:5;stroke-opacity:1"
     d = "M 94.87534,316.3331 72.75262,303.1431 48.28413,294.6492 47.99078,294.5864 "
id = "159" />
  <path
     style="fill:none;stroke:#000000;stroke-width:5;stroke-opacity:1"
     d = "M 96.47212,314.097 74.58533,300.4227 50.47216,291.6479 47.92923,291.106 "
id = "160" />
  <path
     style="fill:none;stroke:#000000;stroke-width:5;stroke-opacity:1"
     d = "M 98.12038,311.8986 76.60227,297.6862 52.89565,288.7668 47.90954,287.696 "
id = "161" />
  <path
     style="fill:none;stroke:#000000;stroke-width:5;stroke-opacity:1"
     d = "M 99.83214,309.7228 78.66909,294.9877 55.33508,285.7635 47.90915,284.1469 "
id = "162" />
  <path
     style="fill:none;stroke:#000000;stroke-width:5;stroke-opacity:1"
     d = "M 101.581,307.6036 80.8832,292.3454 57.96073,283.0078 47.91785,280.7195 "
id = "163" />
  <path
     style="fill:none;stroke:#000000;stroke-width:5;stroke-opacity:1"
     d = "M 103.3786,305.5255 83.21487,289.7605 60.72458,280.3812 47.94272,277.0861 "
id = "164" />
  <path
     style="fill:none;stroke:#000000;stroke-width:5;stroke-opacity:1"
     d = "M 105.238,303.4745 85.71127,287.1645 63.64714,277.7251 47.91742,273.0856 "
id = "165" />
  <path
     style="fill:none;stroke:#000000;stroke-width:5;stroke-opacity:1"
     d = "M 107.1304,301.4824 88.13186,284.5443 66.62897,274.9113 47.98929,268.8521 "
id = "166" />
  <path
     style="fill:none;stroke:#000000;stroke-width:5;stroke-opacity:1"
     d = "M 109.0686,299.5347 90.62214,281.9551 69.76864,272.1509 49.26191,264.9725 47.92955,264.5427 "
id = "167" />
  <path
     style="fill:none;stroke:#000000;stroke-width:5;stroke-opacity:1"
     d = "M 111.0665,297.6184 93.24738,279.432 72.7998,269.2902 52.96142,261.7005 47.90984,259.7922 "
id = "168" />
  <path
     style="fill:none;stroke:#000000;stroke-width:5;stroke-opacity:1"
     d = "M 113.0933,295.7632 95.98152,277.0074 75.74796,266.6413 56.61841,258.7301 47.98735,255.0066 "
id = "169" />
  <path
     style="fill:none;stroke:#000000;stroke-width:5;stroke-opacity:1"
     d = "M 115.1626,293.9555 98.81322,274.7775 78.88018,263.9478 60.27735,255.7087 47.96051,249.4842 "
id = "170" />
  <path
     style="fill:none;stroke:#000000;stroke-width:5;stroke-opacity:1"
     d = "M 117.2893,292.1832 101.7137,272.6878 82.04974,261.3132 63.93332,252.8709 47.97913,243.5046 "
id = "171" />
  <path
     style="fill:none;stroke:#000000;stroke-width:5;stroke-opacity:1"
     d = "M 119.4406,290.4739 104.6138,270.633 85.21475,258.7899 67.353,249.8098 51.96103,239.6145 47.97919,236.4278 "
id = "172" />
  <path
     style="fill:none;stroke:#000000;stroke-width:5;stroke-opacity:1"
     d = "M 121.631,288.8149 107.4712,268.6659 88.40639,256.398 70.64366,246.7956 55.84925,235.9818 47.97398,228.8862 "
id = "173" />
  <path
     style="fill:none;stroke:#000000;stroke-width:5;stroke-opacity:1"
     d = "M 123.8761,287.1953 110.2327,266.8219 91.75824,254.0494 74.10766,243.612 59.58466,232.1607 47.95332,220.1765 "
id = "174" />
  <path
     style="fill:none;stroke:#000000;stroke-width:5;stroke-opacity:1"
     d = "M 126.1414,285.6402 112.9625,265.1323 95.10435,251.7276 77.48992,240.5365 62.9823,228.4889 51.33163,215.1099 47.94875,211.428 "
id = "175" />
  <path
     style="fill:none;stroke:#000000;stroke-width:5;stroke-opacity:1"
     d = "M 128.4422,284.1381 115.7798,263.3954 98.46965,249.522 80.83038,237.6582 66.2942,224.8669 54.70258,210.5135 47.97786,202.7119 "
id = "176" />
  <path
     style="fill:none;stroke:#000000;stroke-width:5;stroke-opacity:1"
     d = "M 130.7948,282.679 118.582,261.8218 101.7563,247.5011 84.05325,234.9436 69.55444,221.2448 58.07223,205.9472 47.94409,193.8204 "
id = "177" />
  <path
     style="fill:none;stroke:#000000;stroke-width:5;stroke-opacity:1"
     d = "M 133.1631,281.2857 121.2555,260.4194 104.8979,245.7698 87.30884,232.5313 72.72591,217.8723 61.27922,201.9794 48.84475,186.9656 47.94415,186.1726 "
id = "178" />
  <path
     style="fill:none;stroke:#000000;stroke-width:5;stroke-opacity:1"
     d = "M 135.563,279.9478 124.1464,259.1515 108.378,244.1293 90.98483,230.3587 76.56908,215.0553 65.04266,198.7309 52.32242,183.1796 47.9447,178.9315 "
id = "179" />
  <path
     style="fill:none;stroke:#000000;stroke-width:5;stroke-opacity:1"
     d = "M 138.0117,278.6564 126.9892,257.7385 111.6693,242.436 94.53905,228.3194 80.39368,212.6527 69.06048,195.8176 56.34177,179.7686 47.98028,171.0226 "
id = "180" />
  <path
     style="fill:none;stroke:#000000;stroke-width:5;stroke-opacity:1"
     d = "M 140.4714,277.4317 129.7457,256.3722 114.6644,240.7907 97.98654,226.3623 84.16182,210.3671 72.9431,192.9747 60.49131,176.6757 47.94032,162.2784 "
id = "181" />
  <path
     style="fill:none;stroke:#000000;stroke-width:5;stroke-opacity:1"
     d = "M 142.9588,276.2644 132.5473,255.054 117.6383,239.1755 101.2268,224.3938 87.5069,207.9593 76.4754,190.1244 64.57796,173.5217 52.0801,157.719 47.96159,152.1831 "
id = "182" />
  <path
     style="fill:none;stroke:#000000;stroke-width:5;stroke-opacity:1"
     d = "M 145.4916,275.147 135.4595,253.875 120.7818,237.666 104.3574,222.4228 90.87798,205.5679 80.02946,187.2643 68.97054,170.2735 57.09608,154.3068 47.99445,140.9065 "
id = "183" />
  <path
     style="fill:none;stroke:#000000;stroke-width:5;stroke-opacity:1"
     d = "M 148.0307,274.0968 138.3399,252.782 123.9835,236.1888 107.65,220.585 94.38216,203.4055 83.99219,184.8296 73.89143,167.59 62.95106,151.7322 52.76464,135.6717 47.98736,126.3214 "
id = "184" />
  <path
     style="fill:none;stroke:#000000;stroke-width:5;stroke-opacity:1"
     d = "M 150.5935,273.1059 141.3073,251.8048 127.3176,234.9159 111.2431,219.1073 97.88739,201.7579 88.09476,183.0232 78.86239,165.7254 69.11377,149.9097 60.37805,134.3859 52.01206,116.0744 47.9992,105.0842 "
id = "185" />
  <path
     style="fill:none;stroke:#000000;stroke-width:5;stroke-opacity:1"
     d = "M 153.1981,272.1678 144.3617,250.8654 130.8346,233.9492 115.1259,218.0794 101.9281,200.6591 92.76311,181.8843 84.63133,164.5895 76.29817,148.8555 69.23212,133.2688 63.50953,115.86 59.22134,97.68317 55.68868,79.64856 50.96658,63.22812 47.98985,57.78955 "
id = "186" />
  <path
     style="fill:none;stroke:#000000;stroke-width:5;stroke-opacity:1"
     d = "M 155.8043,271.2974 147.4097,250.1621 134.5281,233.1297 119.2812,217.099 106.5399,199.8264 97.90114,181.0389 91.0796,164.0737 84.43414,148.3181 79.23826,133.1423 76.36584,116.995 75.39374,101.5396 75.15935,86.27827 73.51901,72.08145 69.85954,59.66604 62.94914,47.9526 "
id = "187" />
  <path
     style="fill:none;stroke:#000000;stroke-width:5;stroke-opacity:1"
     d = "M 158.43,270.4876 150.4677,249.5204 138.2421,232.3376 123.783,215.9914 111.6271,198.9859 103.4437,180.3511 97.64404,163.4201 92.833,147.256 90.19481,132.3308 90.35351,118.1073 92.86317,104.539 96.36859,91.12056 99.74062,76.93526 101.8185,61.32277 101.2961,47.9332 "
id = "188" />
  <path
     style="fill:none;stroke:#000000;stroke-width:5;stroke-opacity:1"
     d = "M 161.0936,269.7336 153.5415,248.9271 141.9485,231.5554 128.3719,215.0311 116.7262,198.4175 108.6246,179.9484 103.6532,162.9961 100.1897,146.2581 99.19431,131.4381 100.8201,117.698 104.6106,104.4778 109.5062,91.52177 113.792,77.02325 117.258,59.54011 117.9262,47.95932 "
id = "189" />
  <path
     style="fill:none;stroke:#000000;stroke-width:5;stroke-opacity:1"
     d = "M 163.7542,269.047 156.702,248.4877 145.828,230.8811 133.1954,214.2981 122.4272,197.9315 114.7618,179.6528 110.4556,162.362 108.4521,145.0566 108.779,130.0388 110.985,116.1838 115.2172,102.4521 119.7459,88.45122 122.9941,72.24229 125.694,52.15509 125.7308,47.95531 "
id = "190" />
  <path
     style="fill:none;stroke:#000000;stroke-width:5;stroke-opacity:1"
     d = "M 166.4299,268.4224 160.0331,248.1389 150.0506,230.2827 138.4282,213.4272 128.593,197.3743 121.6376,179.7662 117.8681,162.2498 116.7702,145.0316 117.4277,129.5487 119.6686,114.926 123.4129,100.8707 126.4324,86.15312 128.9152,68.51447 130.7101,47.99275 "
id = "191" />
  <path
     style="fill:none;stroke:#000000;stroke-width:5;stroke-opacity:1"
     d = "M 169.1398,267.856 163.3118,247.7158 154.1897,229.7397 143.5394,212.4734 134.4384,196.5471 128.2,179.5003 124.5064,162.5273 123.5379,145.7752 124.2716,130.1621 126.1927,115.2468 129.1896,101.2831 131.0587,86.11257 132.8569,68.08486 133.9573,47.91445 "
id = "192" />
  <path
     style="fill:none;stroke:#000000;stroke-width:5;stroke-opacity:1"
     d = "M 171.8417,267.3567 166.472,247.2859 158.1552,229.1066 148.4944,211.3214 140.2844,195.219 134.6087,178.5862 131.2189,162.1568 130.0255,145.9137 130.3595,130.475 131.7893,115.7255 133.9216,101.9284 134.9894,86.65982 136.15,68.48186 136.8506,47.99373 "
id = "193" />
  <path
     style="fill:none;stroke:#000000;stroke-width:5;stroke-opacity:1"
     d = "M 174.5545,266.9203 169.6283,246.9078 162.0733,228.2744 153.7167,209.7586 146.3579,193.17 141.6068,176.7085 138.9812,160.5525 137.9107,144.4859 137.3322,128.9474 137.97,114.9755 138.9422,101.1568 139.0655,85.72229 139.6087,67.1235 139.972,47.92673 "
id = "194" />
  <path
     style="fill:none;stroke:#000000;stroke-width:5;stroke-opacity:1"
     d = "M 177.2972,266.5443 172.896,246.453 165.9641,227.0394 158.5914,207.5994 152.5691,190.3659 148.9018,173.9883 147.1036,157.4806 145.5108,140.6213 143.9033,124.3604 143.5637,110.6284 143.1811,96.34088 142.7622,79.79244 142.8601,59.79187 143.0528,47.9934 "
id = "195" />
  <path
     style="fill:none;stroke:#000000;stroke-width:5;stroke-opacity:1"
     d = "M 180.0274,266.2347 176.0823,245.9551 169.7845,225.8616 163.3403,205.5096 158.8039,187.6537 155.9466,170.6195 154.0217,153.5131 151.5031,135.6352 149.3967,118.7891 148.0597,104.7884 146.7067,89.54999 146.0103,71.79621 145.9323,50.13656 146.0125,47.93802 "
id = "196" />
  <path
     style="fill:none;stroke:#000000;stroke-width:5;stroke-opacity:1"
     d = "M 182.7641,265.9886 179.3383,245.4679 173.8292,224.4876 168.5758,203.2763 165.3643,184.7406 162.8701,166.7635 160.4766,148.9754 157.5773,130.5436 155.0092,113.8427 152.2825,99.14706 150.4832,83.11681 149.6383,64.35536 150.0487,47.96062 "
id = "197" />
  <path
     style="fill:none;stroke:#000000;stroke-width:5;stroke-opacity:1"
     d = "M 185.5057,265.806 182.6191,245.205 177.8481,223.1733 174.0585,201.1241 172.3864,182.2312 170.0795,163.6277 167.0039,145.4326 163.7854,127.0222 160.2206,110.5568 156.8345,95.32235 154.1479,78.95854 153.2856,59.76573 153.6781,47.97221 "
id = "198" />
  <path
     style="fill:none;stroke:#000000;stroke-width:5;stroke-opacity:1"
     d = "M 188.2715,265.6864 185.8018,244.8608 181.8396,221.8856 179.5973,198.9861 179.253,179.4672 177.0005,160.6576 173.2154,142.3817 169.703,124.2481 165.7301,107.8918 162.2839,92.26064 159.0737,75.71582 158.0356,56.30204 158.3573,47.90826 "
id = "199" />
  <path
     style="fill:none;stroke:#000000;stroke-width:5;stroke-opacity:1"
     d = "M 191.0187,265.6317 188.9655,244.5781 185.8861,220.867 185.0384,197.0215 185.5294,176.6752 183.4755,157.6347 179.569,139.0544 175.407,120.9837 171.5343,104.7669 167.94,88.88169 165.0357,71.93996 163.1707,51.58371 163.3844,47.99008 "
id = "200" />
  <path
     style="fill:none;stroke:#000000;stroke-width:5;stroke-opacity:1"
     d = "M 194.4756,265.6535 192.9891,244.2987 191.2479,219.7996 192.0453,194.8019 192.8781,172.9703 191.2409,153.6277 186.9979,134.3586 182.6781,116.5007 179.8308,100.2495 177.281,84.39294 174.6079,67.33843 173.0715,47.99941 "
id = "201" />
  <path
     style="fill:none;stroke:#000000;stroke-width:5;stroke-opacity:1"
     d = "M 196.5337,265.7145 195.4119,244.2598 194.3625,219.4344 195.9199,193.8761 197.0597,171.1764 195.1989,151.4532 190.8341,132.0807 187.0787,114.5945 185.1916,98.32047 183.6595,82.65559 181.6609,65.98785 181.3506,47.99026 "
id = "202" />
  <path
     style="fill:none;stroke:#000000;stroke-width:5;stroke-opacity:1"
     d = "M 199.278,265.8517 198.7668,244.2844 198.5306,218.9976 200.9927,192.6961 202.5878,168.7585 200.3314,148.5731 196.0608,129.518 193.1229,112.3383 192.5546,96.09531 192.3483,80.54967 192.8407,64.33557 194.9153,47.96613 "
id = "203" />
  <path
     style="fill:none;stroke:#000000;stroke-width:5;stroke-opacity:1"
     d = "M 202.7249,266.1145 203.0533,244.5055 204.0095,218.799 207.9663,191.6708 209.8905,166.3234 206.874,145.8549 202.8294,127.7717 201.2339,111.1357 202.3971,95.03143 204.6697,79.44918 207.8033,64.0294 211.664,48.88083 211.9125,47.9122 "
id = "204" />
  <path
     style="fill:none;stroke:#000000;stroke-width:5;stroke-opacity:1"
     d = "M 204.7739,266.3189 205.6942,244.8895 207.3263,219.0067 212.1406,191.3496 214.4877,165.2576 210.8448,144.8113 207.0622,127.2928 206.34,110.9891 208.5891,94.69001 212.4542,79.03887 216.988,63.68045 222.0392,49.1465 222.5082,47.93405 "
id = "205" />
  <path
     style="fill:none;stroke:#000000;stroke-width:5;stroke-opacity:1"
     d = "M 207.5019,266.6471 209.3437,245.7069 211.9131,219.7386 218.0701,191.2484 221.0824,164.3234 216.7081,143.4918 213.5668,126.5815 213.9007,111.0124 217.554,95.04227 223.2575,80.16214 229.796,66.18254 236.3714,52.79319 238.9294,47.92395 "
id = "206" />
  <path
     style="fill:none;stroke:#000000;stroke-width:5;stroke-opacity:1"
     d = "M 210.9221,267.1498 213.8857,246.9794 217.6689,221.0526 225.2806,191.4174 229.1782,163.5978 224.554,141.8089 221.6676,125.2095 222.6915,110.1059 227.283,94.88854 234.7017,81.43195 242.0823,68.51926 248.5635,55.71792 253.1036,47.94646 "
id = "207" />
  <path
     style="fill:none;stroke:#000000;stroke-width:5;stroke-opacity:1"
     d = "M 212.9518,267.4966 216.5244,247.8287 221.0083,222.1443 229.6145,191.9949 234.2254,163.4986 229.7698,140.8572 226.8982,124.2488 228.2287,109.0197 233.538,94.18887 241.5975,81.01204 248.9688,67.89451 256.5526,55.53226 261.7523,47.94328 "
id = "208" />
  <path
     style="fill:none;stroke:#000000;stroke-width:5;stroke-opacity:1"
     d = "M 215.6502,268.0143 220.1265,248.9265 225.5149,223.6526 235.3085,193.0337 240.7467,163.4602 236.6751,139.6918 234.0112,122.7234 236.1085,107.6627 242.5712,93.58888 250.8273,79.81877 259.1149,66.19759 268.5951,53.71677 273.0641,47.94514 "
id = "209" />
  <path
     style="fill:none;stroke:#000000;stroke-width:5;stroke-opacity:1"
     d = "M 219.0271,268.7544 224.4738,250.2931 231.2323,225.6822 241.9446,194.5311 248.1467,163.9323 244.6178,139.0388 242.747,121.4582 246.0754,106.5788 253.6444,92.39591 262.017,77.71567 272.009,63.35006 282.7317,50.03577 284.3424,47.9948 "
id = "210" />
  <path
     style="fill:none;stroke:#000000;stroke-width:5;stroke-opacity:1"
     d = "M 221.0276,269.2419 227.0725,251.1346 234.7302,226.954 246.0191,195.6345 252.2661,164.245 249.2339,138.8213 247.9631,120.7337 252.1118,105.605 260.0267,91.11208 269.2701,75.90388 280.2686,61.40247 290.3739,47.9801 "
id = "211" />
  <path
     style="fill:none;stroke:#000000;stroke-width:5;stroke-opacity:1"
     d = "M 223.6834,269.9467 230.4431,252.2939 239.2267,228.7358 251.2164,197.5199 257.8839,165.2282 255.6507,139.1531 255.1008,120.2529 260.3061,104.8231 268.2573,90.09653 278.454,74.35211 289.9492,58.73911 298.5826,47.97207 "
id = "212" />
  <path
     style="fill:none;stroke:#000000;stroke-width:5;stroke-opacity:1"
     d = "M 227.0004,270.9204 234.6474,253.8201 244.3425,230.8113 257.0404,199.6221 264.4313,166.6749 263.3533,139.762 264.6414,120.3487 270.6514,104.8474 278.6645,89.81964 289.5589,73.22176 301.4357,56.35328 308.8835,47.9878 "
id = "213" />
  <path
     style="fill:none;stroke:#000000;stroke-width:5;stroke-opacity:1"
     d = "M 228.962,271.5464 237.1461,254.6737 247.2921,232.043 260.3425,201.1463 268.2069,167.9612 268.0469,140.777 270.1962,121.0222 276.3787,105.2181 284.8077,89.65803 296.391,72.49868 309.4567,55.78597 316.4646,47.96537 "
id = "214" />
  <path
     style="fill:none;stroke:#000000;stroke-width:5;stroke-opacity:1"
     d = "M 231.5622,272.4346 240.3519,255.8636 250.9338,233.8026 264.4554,203.5926 273.1953,170.2126 274.5973,142.7136 277.5686,122.8922 283.7258,106.8647 292.3515,91.16231 304.7289,73.95885 318.6053,56.63908 325.6942,47.9694 "
id = "215" />
  <path
     style="fill:none;stroke:#000000;stroke-width:5;stroke-opacity:1"
     d = "M 234.8031,273.6374 244.4793,257.4832 255.6842,236.1647 269.8243,206.9821 279.3005,173.789 282.6961,146.3083 286.3172,126.9103 293.3171,111.6411 301.3633,96.8033 312.5459,80.90115 325.6129,63.21576 336.0472,49.29278 "
id = "216" />
  <path
     style="fill:none;stroke:#000000;stroke-width:5;stroke-opacity:1"
     d = "M 236.7163,274.3986 247.0287,258.4485 258.606,237.585 272.8195,209.0742 282.3262,176.3741 286.583,148.8959 290.8051,129.9803 298.1786,115.1367 306.2006,100.86 316.0013,85.48412 327.8164,67.98532 336.058,56.66685 "
id = "217" />
  <path
     style="fill:none;stroke:#000000;stroke-width:5;stroke-opacity:1"
     d = "M 239.2482,275.4661 250.3991,259.8215 262.444,239.6118 276.5336,211.9853 286.1331,179.9566 291.5299,152.65 296.8942,134.057 304.8155,119.7234 312.9297,105.8266 321.4311,90.93117 331.8677,73.56024 336.0425,67.20874 "
id = "218" />
  <path
     style="fill:none;stroke:#000000;stroke-width:5;stroke-opacity:1"
     d = "M 242.3974,276.8921 254.6437,261.6494 267.3792,242.3333 280.8304,215.3982 290.4665,184.1904 296.7068,157.4413 303.7323,139.1783 312.264,125.7682 321.4457,112.825 329.429,98.10095 336.0043,85.74179 "
id = "219" />
  <path
     style="fill:none;stroke:#000000;stroke-width:5;stroke-opacity:1"
     d = "M 244.2528,277.7849 257.2739,262.7554 270.3614,243.7399 283.4117,216.8207 292.8468,185.9231 299.5247,159.7597 307.5305,141.8064 316.6534,128.7597 326.5847,115.9592 335.2033,101.2069 336.0415,99.61414 "
id = "220" />
  <path
     style="fill:none;stroke:#000000;stroke-width:5;stroke-opacity:1"
     d = "M 246.7041,279.0264 260.6837,264.222 274.1904,245.3438 286.7318,218.5467 295.8227,187.9676 303.0981,162.513 312.5794,145.0152 322.9606,132.3348 333.4599,119.7744 336.0483,115.7322 "
id = "221" />
  <path
     style="fill:none;stroke:#000000;stroke-width:5;stroke-opacity:1"
     d = "M 249.7461,280.6685 264.6168,266.033 278.5781,247.0806 290.7137,220.2402 299.7955,190.1279 307.8497,165.6844 319.1744,148.7995 331.1906,136.0337 336.0549,130.8617 "
id = "222" />
  <path
     style="fill:none;stroke:#000000;stroke-width:5;stroke-opacity:1"
     d = "M 251.5347,281.6886 266.9573,267.0442 281.156,247.7799 293.2118,220.9629 302.2625,191.1807 310.8626,167.4286 323.2204,151.2294 336.0521,138.75 "
id = "223" />
  <path
     style="fill:none;stroke:#000000;stroke-width:5;stroke-opacity:1"
     d = "M 253.8934,283.098 269.9842,268.4281 284.3476,248.7695 296.0639,222.1877 305.178,192.5547 314.5641,169.604 328.143,154.0881 336.049,147.331 "
id = "224" />
  <path
     style="fill:none;stroke:#000000;stroke-width:5;stroke-opacity:1"
     d = "M 256.8134,284.9484 273.5939,270.3233 288.0073,250.1929 299.1794,223.9249 308.3561,194.5269 318.7858,172.3167 333.7759,157.2433 336.001,155.5433 "
id = "225" />
  <path
     style="fill:none;stroke:#000000;stroke-width:5;stroke-opacity:1"
     d = "M 258.5266,286.0907 275.6531,271.4604 290.0194,251.1443 300.9451,224.8829 310.1395,195.609 321.0949,173.777 336.0633,159.6227 "
id = "226" />
  <path
     style="fill:none;stroke:#000000;stroke-width:5;stroke-opacity:1"
     d = "M 260.7812,287.6613 278.3029,273.0357 292.4793,252.5574 303.1197,226.2942 312.1097,197.1712 323.6737,175.7213 336.0548,164.6674 "
id = "227" />
  <path
     style="fill:none;stroke:#000000;stroke-width:5;stroke-opacity:1"
     d = "M 263.5651,289.7108 281.0735,275.0448 295.2436,254.6434 305.6093,228.6317 314.2921,199.5117 326.5727,178.3989 336.0244,170.5256 "
id = "228" />
  <path
     style="fill:none;stroke:#000000;stroke-width:5;stroke-opacity:1"
     d = "M 265.1943,290.9699 282.5955,276.0309 296.8738,255.6626 307.0671,229.7008 315.5994,200.6101 328.3054,179.6764 336.0488,173.5085 "
id = "229" />
  <path
     style="fill:none;stroke:#000000;stroke-width:5;stroke-opacity:1"
     d = "M 267.3339,292.6939 284.5368,277.17 298.9989,256.8741 308.8983,230.9319 317.2719,201.9117 330.4794,181.2379 336.0048,177.1044 "
id = "230" />
  <path
     style="fill:none;stroke:#000000;stroke-width:5;stroke-opacity:1"
     d = "M 269.968,294.9326 286.9733,278.8286 301.5963,258.6614 311.3517,232.7891 319.5038,203.7964 333.0757,183.4053 336.0321,181.3509 "
id = "231" />
  <path
     style="fill:none;stroke:#000000;stroke-width:5;stroke-opacity:1"
     d = "M 271.5055,296.3023 288.4333,279.9581 303.1316,259.9505 312.9165,234.205 320.9828,205.2029 334.5731,184.8763 336.0667,183.8716 "
id = "232" />
  <path
     style="fill:none;stroke:#000000;stroke-width:5;stroke-opacity:1"
     d = "M 273.5196,298.1713 290.4349,281.5586 305.2013,261.7793 315.0727,236.2857 323.058,207.3641 336.0135,187.9984 "
id = "233" />
  <path
     style="fill:none;stroke:#000000;stroke-width:5;stroke-opacity:1"
     d = "M 275.9911,300.5884 293.0921,283.5859 307.7505,263.9344 317.7284,238.7886 325.5075,209.9981 336.0461,194.0678 "
id = "234" />
  <path
     style="fill:none;stroke:#000000;stroke-width:5;stroke-opacity:1"
     d = "M 277.4293,302.062 294.7925,284.9077 309.389,265.3225 319.5677,240.41 327.3406,211.6845 336.0198,198.4824 "
id = "235" />
  <path
     style="fill:none;stroke:#000000;stroke-width:5;stroke-opacity:1"
     d = "M 279.3081,304.0669 297.0504,286.7266 311.6642,267.331 322.0156,242.7672 330.0185,214.329 336.0512,204.8937 "
id = "236" />
  <path
     style="fill:none;stroke:#000000;stroke-width:5;stroke-opacity:1"
     d = "M 281.605,306.6505 299.844,289.076 314.5935,269.9955 325.0919,245.8719 333.4072,217.7034 336.018,213.4394 "
id = "237" />
  <path
     style="fill:none;stroke:#000000;stroke-width:5;stroke-opacity:1"
     d = "M 282.9369,308.2208 301.3859,290.5244 316.3191,271.6194 326.9591,247.7852 335.6142,219.8352 336.0266,219.1498 "
id = "238" />
  <path
     style="fill:none;stroke:#000000;stroke-width:5;stroke-opacity:1"
     d = "M 284.6713,310.3519 303.2242,292.5877 318.3842,273.9808 329.439,250.647 336.0079,230.7 "
id = "239" />
  <path
     style="fill:none;stroke:#000000;stroke-width:5;stroke-opacity:1"
     d = "M 286.7824,313.0894 305.4213,295.3532 320.6556,277.1103 332.474,254.5493 336.0323,244.8836 "
id = "240" />
  <path
     style="fill:none;stroke:#000000;stroke-width:5;stroke-opacity:1"
     d = "M 288.0015,314.7488 306.6162,297.0865 321.9745,279.1236 334.2306,257.2788 336.0103,252.8208 "
id = "241" />
  <path
     style="fill:none;stroke:#000000;stroke-width:5;stroke-opacity:1"
     d = "M 289.583,316.9958 308.1753,299.4942 323.7623,282.0249 336.025,262.3281 "
id = "242" />
  <path
     style="fill:none;stroke:#000000;stroke-width:5;stroke-opacity:1"
     d = "M 291.498,319.8738 309.9432,302.5853 325.9283,285.8945 336.044,271.7379 "
id = "243" />
  <path
     style="fill:none;stroke:#000000;stroke-width:5;stroke-opacity:1"
     d = "M 292.5983,321.6142 310.8985,304.4069 327.3207,288.2861 336.028,277.323 "
id = "244" />
  <path
     style="fill:none;stroke:#000000;stroke-width:5;stroke-opacity:1"
     d = "M 294.0192,323.966 312.1482,306.8462 329.2048,291.3867 336.0259,283.94 "
id = "245" />
  <path
     style="fill:none;stroke:#000000;stroke-width:5;stroke-opacity:1"
     d = "M 295.7288,326.9707 313.7849,309.7613 331.3728,295.112 336.0082,290.8458 "
id = "246" />
  <path
     style="fill:none;stroke:#000000;stroke-width:5;stroke-opacity:1"
     d = "M 296.7051,328.7836 314.8405,311.618 332.6276,297.564 336.0114,294.7522 "
id = "247" />
  <path
     style="fill:none;stroke:#000000;stroke-width:5;stroke-opacity:1"
     d = "M 297.9585,331.2288 316.4706,314.343 334.4491,301.0164 336.0781,299.8561 "
id = "248" />
  <path
     style="fill:none;stroke:#000000;stroke-width:5;stroke-opacity:1"
     d = "M 299.4543,334.3454 318.5198,317.9254 336.0463,306.0017 "
id = "249" />
  <path
     style="fill:none;stroke:#000000;stroke-width:5;stroke-opacity:1"
     d = "M 300.3017,336.222 319.7257,320.1122 336.0009,309.5502 "
id = "250" />
  <path
     style="fill:none;stroke:#000000;stroke-width:5;stroke-opacity:1"
     d = "M 301.3815,338.7486 321.3507,323.2199 336.0408,314.4632 "
id = "251" />
  <path
     style="fill:none;stroke:#000000;stroke-width:5;stroke-opacity:1"
     d = "M 302.6563,341.9619 323.2176,327.2727 336.0478,320.0994 "
id = "252" />
  <path
     style="fill:none;stroke:#000000;stroke-width:5;stroke-opacity:1"
     d = "M 303.3708,343.8931 324.2419,329.5265 336.0642,323.2207 "
id = "253" />
  <path
     style="fill:none;stroke:#000000;stroke-width:5;stroke-opacity:1"
     d = "M 304.2716,346.4889 325.5757,332.4601 336.0803,327.3042 "
id = "254" />
  <path
     style="fill:none;stroke:#000000;stroke-width:5;stroke-opacity:1"
     d = "M 305.3192,349.7834 327.144,336.3884 336.0187,332.475 "
id = "255" />
  <path
     style="fill:none;stroke:#000000;stroke-width:5;stroke-opacity:1"
     d = "M 305.8972,351.7596 328.0481,338.8644 336.0822,335.527 "
id = "256" />
  <path
     style="fill:none;stroke:#000000;stroke-width:5;stroke-opacity:1"
     d = "M 306.6148,354.412 329.3179,342.238 336.0569,339.7046 "
id = "257" />
  <path
     style="fill:none;stroke:#000000;stroke-width:5;stroke-opacity:1"
     d = "M 307.2754,357.1003 330.5257,345.6186 336.0145,343.7424 "
id = "258" />
  <path
     style="fill:none;stroke:#000000;stroke-width:5;stroke-opacity:1"
     d = "M 307.8687,359.7832 331.6721,348.9943 336.0674,347.6368 "
id = "259" />
  <path
     style="fill:none;stroke:#000000;stroke-width:5;stroke-opacity:1"
     d = "M 308.3996,362.4792 332.7668,352.339 336.0363,351.4062 "
id = "260" />
  <path
     style="fill:none;stroke:#000000;stroke-width:5;stroke-opacity:1"
     d = "M 308.871,365.2071 333.6329,355.8208 336.0476,355.1723 "
id = "261" />
  <path
     style="fill:none;stroke:#000000;stroke-width:5;stroke-opacity:1"
     d = "M 309.2757,367.9248 334.2969,359.3193 336.0481,358.903 "
id = "262" />
  <path
     style="fill:none;stroke:#000000;stroke-width:5;stroke-opacity:1"
     d = "M 309.6172,370.6512 335.0301,362.7096 336.0094,362.5075 "
id = "263" />
  <path
     style="fill:none;stroke:#000000;stroke-width:5;stroke-opacity:1"
     d = "M 309.8973,373.4053 335.6441,366.2241 336.0382,366.1551 "
id = "264" />
  <path
     style="fill:none;stroke:#000000;stroke-width:5;stroke-opacity:1"
     d = "M 310.1114,376.1447 336.0226,369.7158 "
id = "265" />
  <path
     style="fill:none;stroke:#000000;stroke-width:5;stroke-opacity:1"
     d = "M 310.2619,378.8882 336.0512,373.2486 "
id = "266" />
  <path
     style="fill:none;stroke:#000000;stroke-width:5;stroke-opacity:1"
     d = "M 310.3491,381.6552 336.0047,376.8682 "
id = "267" />
  <path
     style="fill:none;stroke:#000000;stroke-width:5;stroke-opacity:1"
     d = "M 310.3716,384.4029 336.0638,380.4276 "
id = "268" />
  <path
     style="fill:none;stroke:#000000;stroke-width:5;stroke-opacity:1"
     d = "M 310.3304,387.1503 336.0265,383.9096 "
id = "269" />
  <path
     style="fill:none;stroke:#000000;stroke-width:5;stroke-opacity:1"
     d = "M 48,48 336,48 336,720 48,720 48,48 "
id = "270" />
</svg>
