<svg
   width="384"
   height = "768"
   version="1.1"
   id="svg2"
   xmlns="http://www.w3.org/2000/svg"
   xmlns:svg="http://www.w3.org/2000/svg">
  <defs
     id="defs6" />

<rect
   style="fill:#F3F3F3;stroke-width:0;stroke-opacity:0"
   id="Background"
   width="384"
   height="768"
   x="0"
   y="0"
   rx="0" />
  <path
     style="fill:none;stroke:#000000;stroke-width:5;stroke-opacity:1"
     d = "M 291.5081,261.1236 304.5231,253.6811 315.4794,247.4475 326.8785,240.9233 336.0283,234.1254 "
id = "0" />
  <path
     style="fill:none;stroke:#000000;stroke-width:5;stroke-opacity:1"
     d = "M 293.1399,262.8253 306.2833,255.8768 317.7135,250.1849 330.0066,244.3562 336.0009,240.7417 "
id = "1" />
  <path
     style="fill:none;stroke:#000000;stroke-width:5;stroke-opacity:1"
     d = "M 294.7417,264.5553 307.9897,258.1151 319.937,253.0492 333.0158,247.9482 336.0383,246.3918 "
id = "2" />
  <path
     style="fill:none;stroke:#000000;stroke-width:5;stroke-opacity:1"
     d = "M 296.3131,266.313 309.7413,260.3313 322.1143,256.0163 335.7747,251.4705 336.0458,251.342 "
id = "3" />
  <path
     style="fill:none;stroke:#000000;stroke-width:5;stroke-opacity:1"
     d = "M 297.8536,268.0978 311.5674,262.6313 324.2643,259.0655 336.0257,255.8189 "
id = "4" />
  <path
     style="fill:none;stroke:#000000;stroke-width:5;stroke-opacity:1"
     d = "M 299.8587,270.5189 313.8053,265.7136 326.9264,263.1268 336.0283,261.2196 "
id = "5" />
  <path
     style="fill:none;stroke:#000000;stroke-width:5;stroke-opacity:1"
     d = "M 300.84,271.7468 315.0184,267.3352 328.3998,265.1885 336.067,263.7603 "
id = "6" />
  <path
     style="fill:none;stroke:#000000;stroke-width:5;stroke-opacity:1"
     d = "M 302.2849,273.6098 316.7614,269.7768 330.4413,268.1929 336.0704,267.2988 "
id = "7" />
  <path
     style="fill:none;stroke:#000000;stroke-width:5;stroke-opacity:1"
     d = "M 303.6971,275.4978 318.4465,272.1951 332.4467,271.0039 336.0107,270.4963 "
id = "8" />
  <path
     style="fill:none;stroke:#000000;stroke-width:5;stroke-opacity:1"
     d = "M 305.5285,278.0528 320.7181,275.3982 335.2442,274.4157 336.0377,274.3127 "
id = "9" />
  <path
     style="fill:none;stroke:#000000;stroke-width:5;stroke-opacity:1"
     d = "M 306.8626,279.9967 322.3351,277.7787 336.0108,276.9383 "
id = "10" />
  <path
     style="fill:none;stroke:#000000;stroke-width:5;stroke-opacity:1"
     d = "M 307.7332,281.3054 323.3457,279.3015 336.0193,278.5031 "
id = "11" />
  <path
     style="fill:none;stroke:#000000;stroke-width:5;stroke-opacity:1"
     d = "M 309.0103,283.2873 324.8031,281.4478 336.0797,280.7133 "
id = "12" />
  <path
     style="fill:none;stroke:#000000;stroke-width:5;stroke-opacity:1"
     d = "M 310.2403,285.271 326.2121,283.411 336.0916,282.7614 "
id = "13" />
  <path
     style="fill:none;stroke:#000000;stroke-width:5;stroke-opacity:1"
     d = "M 311.4597,287.3163 327.6373,285.45 336.0173,284.8809 "
id = "14" />
  <path
     style="fill:none;stroke:#000000;stroke-width:5;stroke-opacity:1"
     d = "M 312.6313,289.3623 328.905,287.5848 336.0879,287.0948 "
id = "15" />
  <path
     style="fill:none;stroke:#000000;stroke-width:5;stroke-opacity:1"
     d = "M 313.767,291.4284 330.0109,289.7124 336.0982,289.3066 "
id = "16" />
  <path
     style="fill:none;stroke:#000000;stroke-width:5;stroke-opacity:1"
     d = "M 315.2249,294.2134 331.2269,292.5583 336.0184,292.283 "
id = "17" />
  <path
     style="fill:none;stroke:#000000;stroke-width:5;stroke-opacity:1"
     d = "M 316.2756,296.3241 332.0768,294.75 336.0697,294.5217 "
id = "18" />
  <path
     style="fill:none;stroke:#000000;stroke-width:5;stroke-opacity:1"
     d = "M 317.2892,298.4528 332.8195,296.8184 336.0139,296.6348 "
id = "19" />
  <path
     style="fill:none;stroke:#000000;stroke-width:5;stroke-opacity:1"
     d = "M 318.2656,300.5988 333.6144,298.8613 336.0095,298.709 "
id = "20" />
  <path
     style="fill:none;stroke:#000000;stroke-width:5;stroke-opacity:1"
     d = "M 319.2044,302.7615 334.4617,300.8828 336.0579,300.7719 "
id = "21" />
  <path
     style="fill:none;stroke:#000000;stroke-width:5;stroke-opacity:1"
     d = "M 319.8092,304.2123 335.0299,302.2271 336.0269,302.1499 "
id = "22" />
  <path
     style="fill:none;stroke:#000000;stroke-width:5;stroke-opacity:1"
     d = "M 320.6847,306.4015 335.8034,304.1786 336.0026,304.1605 "
id = "23" />
  <path
     style="fill:none;stroke:#000000;stroke-width:5;stroke-opacity:1"
     d = "M 321.5218,308.6055 336.0163,306.1561 "
id = "24" />
  <path
     style="fill:none;stroke:#000000;stroke-width:5;stroke-opacity:1"
     d = "M 322.3203,310.8238 336.0776,308.2304 "
id = "25" />
  <path
     style="fill:none;stroke:#000000;stroke-width:5;stroke-opacity:1"
     d = "M 323.0725,313.0334 336.0974,310.3424 "
id = "26" />
  <path
     style="fill:none;stroke:#000000;stroke-width:5;stroke-opacity:1"
     d = "M 323.8007,315.3007 336.0001,312.577 "
id = "27" />
  <path
     style="fill:none;stroke:#000000;stroke-width:5;stroke-opacity:1"
     d = "M 324.482,317.5577 336.0341,314.7033 "
id = "28" />
  <path
     style="fill:none;stroke:#000000;stroke-width:5;stroke-opacity:1"
     d = "M 325.1238,319.8264 336.0349,316.8814 "
id = "29" />
  <path
     style="fill:none;stroke:#000000;stroke-width:5;stroke-opacity:1"
     d = "M 325.726,322.1059 336.0949,319.0901 "
id = "30" />
  <path
     style="fill:none;stroke:#000000;stroke-width:5;stroke-opacity:1"
     d = "M 326.2883,324.3955 336.0126,321.3201 "
id = "31" />
  <path
     style="fill:none;stroke:#000000;stroke-width:5;stroke-opacity:1"
     d = "M 326.8105,326.6947 336.0817,323.5245 "
id = "32" />
  <path
     style="fill:none;stroke:#000000;stroke-width:5;stroke-opacity:1"
     d = "M 327.2878,328.9795 336.0122,325.7553 "
id = "33" />
  <path
     style="fill:none;stroke:#000000;stroke-width:5;stroke-opacity:1"
     d = "M 327.8724,332.0922 336.0016,328.7218 "
id = "34" />
  <path
     style="fill:none;stroke:#000000;stroke-width:5;stroke-opacity:1"
     d = "M 328.2601,334.4178 336.0838,330.8484 "
id = "35" />
  <path
     style="fill:none;stroke:#000000;stroke-width:5;stroke-opacity:1"
     d = "M 328.6071,336.7498 336.0388,333.0542 "
id = "36" />
  <path
     style="fill:none;stroke:#000000;stroke-width:5;stroke-opacity:1"
     d = "M 328.9134,339.0875 336.0301,335.4327 "
id = "37" />
  <path
     style="fill:none;stroke:#000000;stroke-width:5;stroke-opacity:1"
     d = "M 329.1788,341.4302 336.0771,337.7882 "
id = "38" />
  <path
     style="fill:none;stroke:#000000;stroke-width:5;stroke-opacity:1"
     d = "M 329.4033,343.7772 336.0272,340.2593 "
id = "39" />
  <path
     style="fill:none;stroke:#000000;stroke-width:5;stroke-opacity:1"
     d = "M 329.5868,346.1277 336.0518,342.7348 "
id = "40" />
  <path
     style="fill:none;stroke:#000000;stroke-width:5;stroke-opacity:1"
     d = "M 329.7293,348.4811 336.041,345.2288 "
id = "41" />
  <path
     style="fill:none;stroke:#000000;stroke-width:5;stroke-opacity:1"
     d = "M 329.8306,350.8366 336.0834,347.69 "
id = "42" />
  <path
     style="fill:none;stroke:#000000;stroke-width:5;stroke-opacity:1"
     d = "M 329.8753,352.4078 336.0535,349.3355 "
id = "43" />
  <path
     style="fill:none;stroke:#000000;stroke-width:5;stroke-opacity:1"
     d = "M 329.9081,354.7652 336.0217,351.7894 "
id = "44" />
  <path
     style="fill:none;stroke:#000000;stroke-width:5;stroke-opacity:1"
     d = "M 329.8998,357.1229 336.0216,354.1637 "
id = "45" />
  <path
     style="fill:none;stroke:#000000;stroke-width:5;stroke-opacity:1"
     d = "M 329.8503,359.4801 336.0727,356.4963 "
id = "46" />
  <path
     style="fill:none;stroke:#000000;stroke-width:5;stroke-opacity:1"
     d = "M 329.7597,361.8361 336.0829,358.8325 "
id = "47" />
  <path
     style="fill:none;stroke:#000000;stroke-width:5;stroke-opacity:1"
     d = "M 329.628,364.19 336.0004,361.2933 "
id = "48" />
  <path
     style="fill:none;stroke:#000000;stroke-width:5;stroke-opacity:1"
     d = "M 329.4552,366.5414 336.0756,363.7113 "
id = "49" />
  <path
     style="fill:none;stroke:#000000;stroke-width:5;stroke-opacity:1"
     d = "M 329.2414,368.8893 336.0272,366.2004 "
id = "50" />
  <path
     style="fill:none;stroke:#000000;stroke-width:5;stroke-opacity:1"
     d = "M 328.9867,371.2333 336.0225,368.6378 "
id = "51" />
  <path
     style="fill:none;stroke:#000000;stroke-width:5;stroke-opacity:1"
     d = "M 328.6941,373.549 336.0685,371.0091 "
id = "52" />
  <path
     style="fill:none;stroke:#000000;stroke-width:5;stroke-opacity:1"
     d = "M 328.3547,375.9059 336.077,373.4587 "
id = "53" />
  <path
     style="fill:none;stroke:#000000;stroke-width:5;stroke-opacity:1"
     d = "M 327.9776,378.2332 336.0577,375.9338 "
id = "54" />
  <path
     style="fill:none;stroke:#000000;stroke-width:5;stroke-opacity:1"
     d = "M 327.56,380.5536 336.003,378.4588 "
id = "55" />
  <path
     style="fill:none;stroke:#000000;stroke-width:5;stroke-opacity:1"
     d = "M 327.1019,382.8665 336.0192,381.053 "
id = "56" />
  <path
     style="fill:none;stroke:#000000;stroke-width:5;stroke-opacity:1"
     d = "M 326.6036,385.1709 336.0782,383.6299 "
id = "57" />
  <path
     style="fill:none;stroke:#000000;stroke-width:5;stroke-opacity:1"
     d = "M 326.0651,387.4662 336.0077,386.4042 "
id = "58" />
  <path
     style="fill:none;stroke:#000000;stroke-width:5;stroke-opacity:1"
     d = "M 325.4866,389.7518 335.6329,389.4329 336.0294,389.38 "
id = "59" />
  <path
     style="fill:none;stroke:#000000;stroke-width:5;stroke-opacity:1"
     d = "M 324.8683,392.0271 335.0483,392.5086 336.0453,392.4329 "
id = "60" />
  <path
     style="fill:none;stroke:#000000;stroke-width:5;stroke-opacity:1"
     d = "M 324.2104,394.2911 334.4664,395.6125 336.066,395.588 "
id = "61" />
  <path
     style="fill:none;stroke:#000000;stroke-width:5;stroke-opacity:1"
     d = "M 323.5132,396.5433 333.7836,398.6049 336.0809,398.7094 "
id = "62" />
  <path
     style="fill:none;stroke:#000000;stroke-width:5;stroke-opacity:1"
     d = "M 322.7767,398.783 333.0605,401.5389 336.0469,401.8236 "
id = "63" />
  <path
     style="fill:none;stroke:#000000;stroke-width:5;stroke-opacity:1"
     d = "M 322.0012,401.0095 332.3816,404.3655 336.0479,404.8646 "
id = "64" />
  <path
     style="fill:none;stroke:#000000;stroke-width:5;stroke-opacity:1"
     d = "M 321.187,403.2222 331.8514,407.1795 336.0887,407.9117 "
id = "65" />
  <path
     style="fill:none;stroke:#000000;stroke-width:5;stroke-opacity:1"
     d = "M 320.343,405.3983 331.2555,409.9579 336.0481,410.9792 "
id = "66" />
  <path
     style="fill:none;stroke:#000000;stroke-width:5;stroke-opacity:1"
     d = "M 319.1379,408.3272 330.3226,413.7357 336.0285,415.2392 "
id = "67" />
  <path
     style="fill:none;stroke:#000000;stroke-width:5;stroke-opacity:1"
     d = "M 318.1964,410.4888 329.5419,416.438 336.0642,418.3638 "
id = "68" />
  <path
     style="fill:none;stroke:#000000;stroke-width:5;stroke-opacity:1"
     d = "M 317.2174,412.6336 328.7612,419.088 336.081,421.4755 "
id = "69" />
  <path
     style="fill:none;stroke:#000000;stroke-width:5;stroke-opacity:1"
     d = "M 316.201,414.7609 327.9594,421.7196 336.0744,424.5645 "
id = "70" />
  <path
     style="fill:none;stroke:#000000;stroke-width:5;stroke-opacity:1"
     d = "M 315.1477,416.8703 327.0456,424.3214 336.0485,427.6583 "
id = "71" />
  <path
     style="fill:none;stroke:#000000;stroke-width:5;stroke-opacity:1"
     d = "M 314.0577,418.9609 325.9326,426.8738 336.0914,430.8256 "
id = "72" />
  <path
     style="fill:none;stroke:#000000;stroke-width:5;stroke-opacity:1"
     d = "M 312.9314,421.0322 324.7276,429.2413 336.0862,433.9597 "
id = "73" />
  <path
     style="fill:none;stroke:#000000;stroke-width:5;stroke-opacity:1"
     d = "M 311.7691,423.0834 323.4225,431.4924 336.0063,437.1568 "
id = "74" />
  <path
     style="fill:none;stroke:#000000;stroke-width:5;stroke-opacity:1"
     d = "M 310.5713,425.1141 321.9498,433.772 335.4612,440.4847 336.0546,440.5728 "
id = "75" />
  <path
     style="fill:none;stroke:#000000;stroke-width:5;stroke-opacity:1"
     d = "M 309.3381,427.1237 320.46,436.0906 333.5232,442.9441 336.0845,443.3916 "
id = "76" />
  <path
     style="fill:none;stroke:#000000;stroke-width:5;stroke-opacity:1"
     d = "M 308.07,429.1113 319.0844,438.1874 331.862,445.2058 336.0664,446.106 "
id = "77" />
  <path
     style="fill:none;stroke:#000000;stroke-width:5;stroke-opacity:1"
     d = "M 306.7675,431.0765 317.6437,440.2076 330.1368,447.4094 336.0566,448.8838 "
id = "78" />
  <path
     style="fill:none;stroke:#000000;stroke-width:5;stroke-opacity:1"
     d = "M 305.4309,433.0187 316.1696,442.3027 328.3506,449.6293 336.063,451.7582 "
id = "79" />
  <path
     style="fill:none;stroke:#000000;stroke-width:5;stroke-opacity:1"
     d = "M 304.0606,434.9373 314.6047,444.4111 326.5095,451.8744 336.0584,454.8437 "
id = "80" />
  <path
     style="fill:none;stroke:#000000;stroke-width:5;stroke-opacity:1"
     d = "M 302.657,436.8317 313.0685,446.4434 324.7146,454.0466 336.0855,457.8808 "
id = "81" />
  <path
     style="fill:none;stroke:#000000;stroke-width:5;stroke-opacity:1"
     d = "M 301.2205,438.7012 311.4726,448.6475 322.7952,456.2409 336.0441,461.0645 "
id = "82" />
  <path
     style="fill:none;stroke:#000000;stroke-width:5;stroke-opacity:1"
     d = "M 299.7516,440.5454 309.7164,450.7816 320.5655,458.3952 333.47,463.5749 336.0721,464.2967 "
id = "83" />
  <path
     style="fill:none;stroke:#000000;stroke-width:5;stroke-opacity:1"
     d = "M 298.2508,442.3637 307.9837,452.7261 318.3081,460.5383 330.4846,466.1107 336.0933,467.9419 "
id = "84" />
  <path
     style="fill:none;stroke:#000000;stroke-width:5;stroke-opacity:1"
     d = "M 296.7185,444.1556 306.2382,454.5817 316.0446,462.7133 327.4171,468.8445 336.082,472.2219 "
id = "85" />
  <path
     style="fill:none;stroke:#000000;stroke-width:5;stroke-opacity:1"
     d = "M 295.6797,445.3352 305.0211,455.7579 314.5945,464.0633 325.5412,470.5829 336.0803,475.1804 "
id = "86" />
  <path
     style="fill:none;stroke:#000000;stroke-width:5;stroke-opacity:1"
     d = "M 294.0959,447.0817 303.1946,457.4572 312.489,466.0573 322.9419,472.9845 335.8993,479.3924 336.0858,479.4644 "
id = "87" />
  <path
     style="fill:none;stroke:#000000;stroke-width:5;stroke-opacity:1"
     d = "M 292.4819,448.8003 301.4126,459.117 310.3673,467.9739 320.4273,475.3622 332.8149,482.095 336.0256,483.4879 "
id = "88" />
  <path
     style="fill:none;stroke:#000000;stroke-width:5;stroke-opacity:1"
     d = "M 290.838,450.4905 299.7456,460.8181 308.3796,469.8858 318.192,477.676 330.2368,484.6675 336.0024,487.4468 "
id = "89" />
  <path
     style="fill:none;stroke:#000000;stroke-width:5;stroke-opacity:1"
     d = "M 289.165,452.1517 298.0256,462.548 306.424,471.7903 315.9747,479.9468 327.6694,487.2319 336.0741,491.659 "
id = "90" />
  <path
     style="fill:none;stroke:#000000;stroke-width:5;stroke-opacity:1"
     d = "M 287.4633,453.7835 296.2165,464.3101 304.3897,473.8188 313.6545,482.216 324.9703,489.8302 336.0641,496.213 "
id = "91" />
  <path
     style="fill:none;stroke:#000000;stroke-width:5;stroke-opacity:1"
     d = "M 285.7333,455.3853 294.3819,466.1654 302.3823,476.026 311.4146,484.7411 322.523,492.8194 336.0609,501.1605 "
id = "92" />
  <path
     style="fill:none;stroke:#000000;stroke-width:5;stroke-opacity:1"
     d = "M 283.9756,456.9567 292.5799,468.0003 300.5164,478.1815 309.3947,487.3443 320.6078,495.9151 334.0734,504.6126 336.0275,505.8262 "
id = "93" />
  <path
     style="fill:none;stroke:#000000;stroke-width:5;stroke-opacity:1"
     d = "M 282.1908,458.4972 290.774,469.7982 298.703,480.2207 307.569,489.8361 318.9413,498.8289 332.335,507.9493 336.0101,510.369 "
id = "94" />
  <path
     style="fill:none;stroke:#000000;stroke-width:5;stroke-opacity:1"
     d = "M 280.3793,460.0063 288.9522,471.4615 296.8447,482.1053 305.639,492.2393 317.057,501.6896 330.3959,511.2306 336.0218,515.0493 "
id = "95" />
  <path
     style="fill:none;stroke:#000000;stroke-width:5;stroke-opacity:1"
     d = "M 278.5418,461.4835 287.2227,473.0298 295.0097,484.0424 303.7802,494.7767 315.068,504.7838 328.2649,514.7786 336.052,520.2233 "
id = "96" />
  <path
     style="fill:none;stroke:#000000;stroke-width:5;stroke-opacity:1"
     d = "M 276.6788,462.9285 285.4286,474.615 293.0782,486.0339 301.7876,497.3352 312.8126,507.8552 325.9529,518.3542 336.0542,525.7166 "
id = "97" />
  <path
     style="fill:none;stroke:#000000;stroke-width:5;stroke-opacity:1"
     d = "M 274.7909,464.3407 283.6613,476.1264 291.227,487.9609 299.8803,499.8416 310.7794,510.8443 323.9378,521.9163 336.0114,531.4755 "
id = "98" />
  <path
     style="fill:none;stroke:#000000;stroke-width:5;stroke-opacity:1"
     d = "M 272.8785,465.7198 281.8372,477.6851 289.456,489.8747 298.1157,502.2192 309.0178,513.6078 322.1308,525.2648 336.02,537.1826 "
id = "99" />
  <path
     style="fill:none;stroke:#000000;stroke-width:5;stroke-opacity:1"
     d = "M 270.9425,467.0652 279.9675,479.2435 287.7403,491.7629 296.446,504.463 307.3733,516.2229 320.4806,528.4225 335.0349,541.8929 336.0569,542.85 "
id = "100" />
  <path
     style="fill:none;stroke:#000000;stroke-width:5;stroke-opacity:1"
     d = "M 268.9832,468.3767 278.0136,480.8486 285.9065,493.8305 294.6451,506.8467 305.6038,519.0175 318.7118,531.6771 333.0212,545.7134 336.0589,549.0341 "
id = "101" />
  <path
     style="fill:none;stroke:#000000;stroke-width:5;stroke-opacity:1"
     d = "M 267.0014,469.6538 276.0345,482.4753 284.0081,495.967 292.7777,509.4169 303.7623,521.9483 316.7768,535.0283 330.8992,549.5041 336.0544,556.1332 "
id = "102" />
  <path
     style="fill:none;stroke:#000000;stroke-width:5;stroke-opacity:1"
     d = "M 264.9975,470.8961 274.056,484.1395 282.1438,498.2053 290.8882,512.1792 301.793,525.1421 314.6676,538.6501 328.3093,553.5526 336.0273,565.4697 "
id = "103" />
  <path
     style="fill:none;stroke:#000000;stroke-width:5;stroke-opacity:1"
     d = "M 262.9926,472.0913 272.1826,485.8112 280.2958,500.6183 289.0868,515.121 299.8421,528.4935 312.4701,542.4079 325.0928,557.8799 334.9928,576.506 336.0097,579.8557 "
id = "104" />
  <path
     style="fill:none;stroke:#000000;stroke-width:5;stroke-opacity:1"
     d = "M 260.9263,473.2749 270.2373,487.4912 278.2577,502.9436 287.0454,517.9837 297.4164,531.7351 309.631,546.0426 321.1343,562.0563 329.5872,581.0484 334.4492,602.225 336.0073,611.3922 "
id = "105" />
  <path
     style="fill:none;stroke:#000000;stroke-width:5;stroke-opacity:1"
     d = "M 258.8602,474.4106 268.2237,489.2506 276.1437,505.2983 284.9731,520.8585 294.9113,535.0851 306.6274,549.8259 317.0441,566.3831 324.5208,585.5383 328.8218,605.4813 331.8027,622.6748 336.0173,635.5041 "
id = "106" />
  <path
     style="fill:none;stroke:#000000;stroke-width:5;stroke-opacity:1"
     d = "M 256.7746,475.5101 266.1766,491.0462 273.9465,507.7592 282.6466,523.8249 292.0396,538.55 303.1511,553.4924 312.6093,570.5319 319.7024,589.5148 324.1838,607.6691 327.3381,622.915 332.5354,637.3519 336.0115,646.1943 "
id = "107" />
  <path
     style="fill:none;stroke:#000000;stroke-width:5;stroke-opacity:1"
     d = "M 254.6701,476.573 264.2016,492.7527 271.7914,510.101 280.2888,526.7025 289.2473,541.8878 299.6265,557.0568 308.1587,574.5427 314.8593,592.8179 319.4036,608.9464 323.2487,622.4987 328.5155,635.215 334.4905,650.3143 336.0016,653.8002 "
id = "108" />
  <path
     style="fill:none;stroke:#000000;stroke-width:5;stroke-opacity:1"
     d = "M 252.5474,477.5991 262.294,494.432 269.707,512.302 278.0644,529.436 286.581,545.2145 296.0562,560.7804 304.271,578.305 311.0021,595.4669 315.8499,609.5309 320.1619,621.9861 325.5585,633.594 331.3711,647.9031 336.0322,659.9338 "
id = "109" />
  <path
     style="fill:none;stroke:#000000;stroke-width:5;stroke-opacity:1"
     d = "M 250.4071,478.5879 260.253,496.076 267.5353,514.4775 275.7443,532.1187 284.0091,548.4251 292.8041,564.4414 300.7307,581.6835 307.5788,597.4673 312.6257,610.0074 317.3114,621.3755 322.7816,632.1592 328.5285,645.3814 334.3734,661.181 336.0013,665.0518 "
id = "110" />
  <path
     style="fill:none;stroke:#000000;stroke-width:5;stroke-opacity:1"
     d = "M 248.2498,479.5392 258.1288,497.5652 265.293,516.5577 273.3774,534.6033 281.2001,551.3162 289.4928,567.7851 297.4239,584.6755 304.1403,599.1941 309.3073,610.4131 314.3732,620.5726 319.7966,630.4933 325.59,642.4211 331.3266,657.3714 336.028,669.5967 "
id = "111" />
  <path
     style="fill:none;stroke:#000000;stroke-width:5;stroke-opacity:1"
     d = "M 246.0763,480.4528 255.9857,498.9847 263.0464,518.5716 270.7655,537.1834 277.8675,554.2643 285.7098,571.0292 293.4426,587.535 300.4659,600.935 306.1425,610.8872 311.6485,619.9565 316.9593,629.2169 322.7679,640.1217 328.4512,653.9896 333.9711,670.2869 336.0239,675.3894 "
id = "112" />
  <path
     style="fill:none;stroke:#000000;stroke-width:5;stroke-opacity:1"
     d = "M 243.8872,481.3282 253.8239,500.3675 260.7627,520.5409 267.961,539.7347 274.5036,557.2604 282.118,574.2262 289.6642,590.4076 296.7126,602.9219 302.8979,611.8671 308.7787,620.062 314.0085,628.5308 319.7823,638.3694 325.5583,651.0052 330.586,666.9224 335.8698,682.7441 336.0293,683.1108 "
id = "113" />
  <path
     style="fill:none;stroke:#000000;stroke-width:5;stroke-opacity:1"
     d = "M 241.6831,482.1653 251.6093,501.7198 258.3638,522.5405 264.7383,542.2599 270.8276,560.147 278.0596,577.2028 285.5288,593.1008 292.9213,604.5556 299.572,612.7785 305.7478,620.1387 311.1132,627.8011 316.7514,636.7074 322.5147,648.2378 327.5481,663.1287 332.1732,679.3785 336.0002,690.1147 "
id = "114" />
  <path
     style="fill:none;stroke:#000000;stroke-width:5;stroke-opacity:1"
     d = "M 239.4648,482.9639 249.3613,503.074 255.9519,524.511 261.5796,544.7878 267.0127,562.9675 273.8075,580.3021 281.2545,595.6255 288.8147,606.5165 295.9761,613.9908 302.4608,620.3947 308.1387,627.2661 313.6069,635.2709 319.3278,645.5753 324.5806,659.33 328.8421,675.6343 333.1831,690.4197 336.0044,699.5955 "
id = "115" />
  <path
     style="fill:none;stroke:#000000;stroke-width:5;stroke-opacity:1"
     d = "M 237.2328,483.7236 247.0325,504.4038 253.3041,526.4033 258.1698,547.3149 263.0044,565.7833 269.2392,583.2676 276.512,597.6786 283.9577,608.2093 291.5191,615.0139 298.5416,620.5779 304.6414,626.64 310.0754,633.6597 315.6925,642.6123 321.0577,654.7089 325.3913,670.1736 328.9327,685.8806 332.4911,699.5729 335.9565,712.1555 336.0311,712.3411 "
id = "116" />
  <path
     style="fill:none;stroke:#000000;stroke-width:5;stroke-opacity:1"
     d = "M 234.988,484.4442 244.6763,505.7155 250.5751,528.3273 254.5288,549.6713 259.0164,568.4935 264.6741,585.8104 271.4677,599.2114 278.4909,609.2028 285.7531,615.6566 293.3437,620.6874 300.133,625.8737 305.9848,631.9166 311.4852,639.4525 316.9795,649.674 321.6178,663.4242 324.7391,679.6798 327.403,694.2401 329.6702,707.6913 332.5987,719.7364 332.7216,720.0101 "
id = "117" />
  <path
     style="fill:none;stroke:#000000;stroke-width:5;stroke-opacity:1"
     d = "M 232.7309,485.1255 242.257,506.9032 247.8224,530.2258 250.803,552.1196 254.7953,571.186 259.7478,588.2301 265.7111,600.8665 272.0405,610.1237 278.4582,615.955 285.7067,620.4451 293.0954,624.7784 299.7568,629.7174 305.552,635.8019 311.1705,643.5612 316.5168,654.4813 320.5695,668.9521 322.7906,684.9568 324.5222,699.2747 325.9892,712.8751 327.5598,720.004 "
id = "118" />
  <path
     style="fill:none;stroke:#000000;stroke-width:5;stroke-opacity:1"
     d = "M 230.4622,485.7674 239.8081,508.0291 245.0154,532.0489 247.1442,554.4 250.6564,573.8458 254.8674,590.8115 259.6065,603.2944 264.7545,612.1452 269.8547,617.334 275.7969,620.5032 282.7817,623.3977 289.9247,626.6642 296.6183,631.0324 302.5381,636.7094 308.1903,643.8002 313.5734,653.8329 317.4843,667.4041 319.215,683.392 319.7938,698.2328 320.0354,712.4554 320.8077,720.0165 "
id = "119" />
  <path
     style="fill:none;stroke:#000000;stroke-width:5;stroke-opacity:1"
     d = "M 228.1827,486.3695 237.3043,509.1482 242.126,533.8539 243.5139,556.6486 246.5865,576.4926 250.2442,593.4077 254.0564,605.7024 258.1065,614.3187 261.9403,619.1274 266.294,622.1801 271.654,624.0504 277.9167,625.6615 284.7819,627.8149 291.4512,631.0264 297.5862,635.6038 303.1235,641.7562 308.6406,649.8981 312.9757,661.1733 315.2466,676.1854 315.3154,691.7996 314.7045,706.723 314.1363,720.0117 "
id = "120" />
  <path
     style="fill:none;stroke:#000000;stroke-width:5;stroke-opacity:1"
     d = "M 225.8931,486.9318 234.6351,510.2168 238.9821,535.5306 239.7154,558.5648 242.3322,578.2752 245.3989,595.0023 248.3274,607.2913 251.4387,615.7072 254.2496,621.2146 257.2619,624.8843 260.6458,627.2493 264.6467,628.7506 269.521,629.7425 275.4479,630.5674 282.0206,631.8725 288.4237,634.394 294.4296,638.3819 299.713,644.0028 304.853,651.7048 308.9456,662.4572 310.6971,676.9494 309.7205,692.9875 307.8687,708.4301 306.9653,720.0986 "
id = "121" />
  <path
     style="fill:none;stroke:#000000;stroke-width:5;stroke-opacity:1"
     d = "M 223.594,487.454 231.8886,511.2859 235.7362,537.2105 236.0716,560.2169 238.3997,579.6149 240.8041,595.9759 242.8591,608.1393 244.8583,616.5903 246.5904,622.7624 248.5697,627.4357 251.0402,631.2181 253.9551,634.1042 257.4073,636.3181 261.3418,638.0724 265.9412,639.549 271.5056,641.0773 277.9222,642.9853 284.6408,646.1288 290.4016,651.1425 295.4474,658.4797 299.0979,668.9181 300.0286,682.9355 298.6201,698.9196 296.3496,715.3489 296.2162,720.0478 "
id = "122" />
  <path
     style="fill:none;stroke:#000000;stroke-width:5;stroke-opacity:1"
     d = "M 221.286,487.9361 229.0527,512.2291 232.4161,538.5507 232.5043,561.4961 234.3405,580.649 236.1885,596.5154 237.5128,608.6854 238.4203,617.1623 239.503,623.6035 240.6701,628.8491 241.8769,633.4863 243.3721,637.665 245.4983,641.4592 248.3315,645.1716 251.9249,648.8294 256.4032,652.8075 261.6622,657.579 267.1428,663.759 272.7564,672.1152 277.0251,683.3729 278.3253,697.5302 277.4239,713.0397 277.2658,720.038 "
id = "123" />
  <path
     style="fill:none;stroke:#000000;stroke-width:5;stroke-opacity:1"
     d = "M 218.9701,488.3777 226.1902,513.0361 229.0528,539.622 228.8324,562.4695 230.1841,581.1507 231.5924,596.4139 232.4681,608.518 232.9326,617.0949 233.5633,624.059 234.4384,629.793 235.2931,634.917 236.3237,639.7419 237.8302,644.5765 240.1038,649.6002 243.2848,654.9699 247.2665,660.7901 252.3031,667.6766 257.8272,676.1603 263.1754,686.4917 266.0977,699.1174 266.8016,713.4609 267.4803,720.027 "
id = "124" />
  <path
     style="fill:none;stroke:#000000;stroke-width:5;stroke-opacity:1"
     d = "M 216.6468,488.7789 223.3494,513.7468 225.7061,540.4299 225.138,563.2657 225.8891,581.4759 226.8574,596.3175 227.5365,608.2697 227.7849,616.9017 228.0112,624.0737 228.5035,630.3491 229.3672,635.9615 230.3596,641.6017 231.8226,647.4813 233.8702,653.913 236.975,661.0487 241.4526,669.0326 247.2746,678.3432 253.3191,688.7847 257.6876,701.0184 259.8455,714.5277 260.835,720.0409 "
id = "125" />
  <path
     style="fill:none;stroke:#000000;stroke-width:5;stroke-opacity:1"
     d = "M 214.3169,489.1395 220.6617,514.3813 222.5658,541.0206 221.7383,563.8154 221.8888,581.6024 222.8487,596.095 223.6071,608.0198 223.843,616.8463 223.7925,624.2648 224.0481,630.9916 224.7664,637.4019 225.642,644.0847 227.0719,651.516 229.5487,659.9531 233.4196,669.6832 239.1376,680.3711 245.2262,691.8066 250.0415,703.841 253.2963,716.7916 254.1648,720.0787 "
id = "126" />
  <path
     style="fill:none;stroke:#000000;stroke-width:5;stroke-opacity:1"
     d = "M 211.9809,489.4594 217.9405,514.9669 219.4241,541.5956 218.2756,564.3365 218.0999,581.7145 219.3782,595.9681 220.4022,608.0107 220.7704,617.1419 220.7013,624.8319 220.8811,632.1349 221.4812,639.2785 222.219,646.9499 223.7649,656.103 226.7269,666.4825 231.2517,678.3303 236.9266,691.0074 241.8238,703.1549 245.5697,715.7192 246.785,720.0533 "
id = "127" />
  <path
     style="fill:none;stroke:#000000;stroke-width:5;stroke-opacity:1"
     d = "M 209.6398,489.7384 215.2587,515.5366 216.3548,542.1601 214.7184,564.8015 214.3627,581.8636 216.0509,595.9025 217.3006,607.876 217.9248,617.3056 217.9072,625.3773 218.1237,633.2601 218.7108,641.1863 219.2793,650.0051 220.9502,660.7231 224.1312,673.0306 228.9502,686.8442 234.1129,700.3443 238.3563,713.2758 240.2437,720.0178 "
id = "128" />
  <path
     style="fill:none;stroke:#000000;stroke-width:5;stroke-opacity:1"
     d = "M 207.2942,489.9766 212.576,516.0668 213.4045,542.7114 211.2279,565.4003 210.7886,582.2894 212.7824,596.422 214.2732,608.3276 215.1531,617.9545 215.254,626.5298 215.5177,634.9785 216.2054,643.6488 216.808,653.7418 218.8224,666.0687 222.6993,680.397 227.5322,695.0967 232.2859,709.0168 235.4427,720.0718 "
id = "129" />
  <path
     style="fill:none;stroke:#000000;stroke-width:5;stroke-opacity:1"
     d = "M 204.9448,490.1738 209.8825,516.4967 210.3024,543.0616 207.6038,565.9063 207.2133,582.9274 209.5099,597.2488 211.3129,609.0895 212.507,618.8276 212.8253,627.8773 213.2247,636.8227 213.7704,646.3104 214.6695,657.8576 217.1279,671.8197 221.2023,687.8358 226.0659,703.4376 230.6568,717.6582 231.4251,720.037 "
id = "130" />
  <path
     style="fill:none;stroke:#000000;stroke-width:5;stroke-opacity:1"
     d = "M 202.5923,490.3299 207.0931,516.8458 207.1012,543.3027 204.1916,566.1451 203.9654,583.4626 206.2948,598.0007 208.4054,609.9816 209.9417,619.8996 210.4364,629.3959 210.9906,638.9314 211.3864,649.4896 212.5968,662.623 215.513,678.2604 219.9316,695.4811 224.9161,711.7683 227.3949,720.004 "
id = "131" />
  <path
     style="fill:none;stroke:#000000;stroke-width:5;stroke-opacity:1"
     d = "M 200.2609,490.444 204.2535,517.0577 204.0195,543.4724 200.9759,566.3019 200.9402,584.0269 203.1917,598.7509 205.5557,610.8422 207.3128,620.9363 208.0339,630.8403 208.5652,640.9433 208.9135,652.6656 210.3776,667.2377 213.504,684.7984 218.2298,703.1494 223.2094,719.6609 223.3332,720.0413 "
id = "132" />
  <path
     style="fill:none;stroke:#000000;stroke-width:5;stroke-opacity:1"
     d = "M 197.8808,490.5189 201.2233,517.2408 200.777,543.5853 197.6321,566.5388 197.8831,584.6462 200.0832,599.5669 202.5347,611.6891 204.3752,621.984 205.3966,632.2802 205.8951,643.026 206.2587,656.0229 207.9399,672.1981 211.2791,691.6266 215.9492,710.9814 218.5826,720.0062 "
id = "133" />
  <path
     style="fill:none;stroke:#000000;stroke-width:5;stroke-opacity:1"
     d = "M 194.7375,490.5535 197.2004,517.3837 196.3268,543.5809 193.2963,566.5549 193.7257,585.0724 195.9574,600.3111 198.4405,612.3486 200.3688,622.9849 201.7494,633.8241 202.2084,645.4537 202.8306,659.9623 204.6375,678.2591 208.3984,699.3467 213.2238,719.358 213.4265,720.0279 "
id = "134" />
  <path
     style="fill:none;stroke:#000000;stroke-width:5;stroke-opacity:1"
     d = "M 192.3799,490.5314 194.1354,517.4044 192.8377,543.4615 189.8933,566.4911 190.3467,585.3386 192.5768,600.9598 195.0425,613.2076 197.002,624.0616 198.5185,635.3445 198.9844,647.9191 199.7085,663.8683 201.8676,684.0877 205.6048,706.4999 208.4999,720.0911 "
id = "135" />
  <path
     style="fill:none;stroke:#000000;stroke-width:5;stroke-opacity:1"
     d = "M 190.0231,490.4682 190.9772,517.342 189.1241,543.188 186.1897,566.2897 186.6594,585.6637 188.8662,601.9098 191.5233,614.4384 193.5471,625.6744 195.0766,637.6591 195.5029,651.4337 196.3195,669.1781 199.1825,691.5217 203.0246,714.6971 204.1668,720.0783 "
id = "136" />
  <path
     style="fill:none;stroke:#000000;stroke-width:5;stroke-opacity:1"
     d = "M 187.6677,490.3639 187.8131,517.2595 185.4652,542.9725 182.4297,566.1481 182.7807,586.3031 184.97,603.0778 187.8524,616.212 190.0591,628.1924 191.346,641.2068 191.9147,656.9274 193.5158,677.2346 196.9044,701.4092 200.0018,720.0508 "
id = "137" />
  <path
     style="fill:none;stroke:#000000;stroke-width:5;stroke-opacity:1"
     d = "M 185.3144,490.2185 184.5895,517.121 181.6439,542.7429 178.517,566.0693 178.8681,587.1647 181.0943,604.4665 183.8784,618.4502 186.1756,631.6497 187.2128,646.2241 188.202,664.6047 190.8285,687.674 194.4249,712.7365 195.6015,720.0443 "
id = "138" />
  <path
     style="fill:none;stroke:#000000;stroke-width:5;stroke-opacity:1"
     d = "M 182.9642,490.032 181.285,516.9463 177.6188,542.436 174.3925,565.9952 174.5933,588.2585 176.8943,606.5543 179.4635,621.6429 181.4406,636.6542 182.6313,653.9426 184.5166,675.3456 188.2963,700.8951 190.7759,720.0372 "
id = "139" />
  <path
     style="fill:none;stroke:#000000;stroke-width:5;stroke-opacity:1"
     d = "M 180.6175,489.8046 177.9771,516.6732 173.5821,541.9709 170.2221,565.9156 170.2751,589.5784 172.5937,608.7952 174.6865,625.0064 175.6727,642.0061 177.0016,661.4551 179.4935,685.6475 184.3037,711.6236 185.3867,720.0541 "
id = "140" />
  <path
     style="fill:none;stroke:#000000;stroke-width:5;stroke-opacity:1"
     d = "M 178.2751,489.5362 174.7495,516.2576 169.492,541.2372 165.7846,565.6253 165.6434,590.5894 167.8646,610.8803 169.1959,628.3638 169.2895,646.9592 170.3707,667.8693 173.656,692.997 179.1263,718.1497 179.3466,720.0365 "
id = "141" />
  <path
     style="fill:none;stroke:#000000;stroke-width:5;stroke-opacity:1"
     d = "M 175.9378,489.227 171.4798,515.7048 165.2051,540.3134 161.0484,565.0729 161.0601,591.2316 162.7583,612.6984 162.831,631.6992 162.0101,651.3893 162.6021,672.8525 166.1324,697.3525 171.4333,720.0353 "
id = "142" />
  <path
     style="fill:none;stroke:#000000;stroke-width:5;stroke-opacity:1"
     d = "M 173.6062,488.877 168.1143,515.0753 160.7877,539.2637 156.0179,564.31 156.4036,591.2094 157.1852,613.9514 156.1572,633.9857 154.2411,654.2089 154.0713,675.0554 157.3344,697.1272 162.0869,719.6333 162.1074,720.0327 "
id = "143" />
  <path
     style="fill:none;stroke:#000000;stroke-width:5;stroke-opacity:1"
     d = "M 171.2811,488.4865 164.8852,514.4151 156.5747,538.2841 151.1314,563.4394 151.6774,590.6876 151.5804,614.4762 149.2455,635.1776 145.7777,655.6558 144.1731,675.3514 146.1783,693.8919 149.0562,713.082 149.2581,720.0803 "
id = "144" />
  <path
     style="fill:none;stroke:#000000;stroke-width:5;stroke-opacity:1"
     d = "M 168.9632,488.0553 161.6559,513.7046 152.3521,537.3192 146.1837,562.0654 146.4558,589.4443 145.6729,614.3489 142.105,635.6158 136.9294,656.3663 132.9841,674.9102 131.5699,690.6058 130.3536,706.1082 128.8903,720.0278 "
id = "145" />
  <path
     style="fill:none;stroke:#000000;stroke-width:5;stroke-opacity:1"
     d = "M 166.6531,487.5838 158.4241,512.9126 148.2093,536.3151 141.1474,560.6575 140.3526,587.9659 138.7893,614.3124 133.7713,636.9211 126.2499,657.654 119.0467,674.7597 112.6123,688.426 105.4654,702.4262 98.29548,718.6259 97.83131,720.0522 "
id = "146" />
  <path
     style="fill:none;stroke:#000000;stroke-width:5;stroke-opacity:1"
     d = "M 164.3516,487.0721 155.1286,512.1447 143.814,535.3116 135.6659,559.1675 133.5835,586.3545 130.7143,614.012 123.5837,637.827 113.1491,657.7563 102.5073,673.4795 91.96804,687.3422 81.91461,702.8347 77.25656,720.0111 "
id = "147" />
  <path
     style="fill:none;stroke:#000000;stroke-width:5;stroke-opacity:1"
     d = "M 162.0594,486.5203 151.855,511.2852 139.2494,534.092 130.0902,557.2128 126.6644,583.8361 122.3252,611.9545 113.5038,636.7778 101.618,656.4802 89.36435,672.6481 76.99336,687.8851 69.04301,706.5865 67.14732,720.0504 "
id = "148" />
  <path
     style="fill:none;stroke:#000000;stroke-width:5;stroke-opacity:1"
     d = "M 160.5596,486.1361 149.7283,510.7325 136.3301,533.2777 126.5525,556.0391 122.1649,582.0956 117.0573,609.947 107.7023,635.2352 95.12435,655.11 81.86106,671.7474 69.30689,688.3107 63.11582,707.6585 61.74778,720.0868 "
id = "149" />
  <path
     style="fill:none;stroke:#000000;stroke-width:5;stroke-opacity:1"
     d = "M 157.5056,485.297 145.5392,509.6731 130.5066,531.5918 119.5943,553.3975 113.0752,577.3307 107.0178,603.5751 97.0797,628.9509 83.39285,649.6882 69.43281,667.0003 58.56503,685.2392 53.72881,705.5908 52.55008,720.043 "
id = "150" />
  <path
     style="fill:none;stroke:#000000;stroke-width:5;stroke-opacity:1"
     d = "M 155.2454,484.6259 142.4186,508.8863 126.2185,530.4851 114.4558,551.2355 106.6426,573.538 99.97618,598.3468 89.70608,623.1146 76.39597,644.0099 62.84747,661.7401 52.51999,680.1885 47.97952,697.7097 "
id = "151" />
  <path
     style="fill:none;stroke:#000000;stroke-width:5;stroke-opacity:1"
     d = "M 152.9973,483.9156 139.3713,508.1125 122.153,529.4431 109.6961,548.9208 100.9357,569.7458 93.53316,593.1182 83.4031,616.5417 71.34892,636.5845 58.77743,654.3047 48.09007,672.2257 47.99626,672.5106 "
id = "152" />
  <path
     style="fill:none;stroke:#000000;stroke-width:5;stroke-opacity:1"
     d = "M 150.7619,483.166 136.2894,507.2645 118.2726,528.1577 105.1641,546.3531 95.59149,565.9293 87.39769,587.4747 77.88281,609.4003 67.175,628.9532 55.96021,646.1882 47.96014,659.2339 "
id = "153" />
  <path
     style="fill:none;stroke:#000000;stroke-width:5;stroke-opacity:1"
     d = "M 148.54,482.3777 133.3708,506.3078 114.6951,526.8134 101.0086,544.2343 90.72647,562.8998 81.60886,582.842 72.70658,602.8236 63.19044,621.444 52.95349,637.8256 47.9915,646.2774 "
id = "154" />
  <path
     style="fill:none;stroke:#000000;stroke-width:5;stroke-opacity:1"
     d = "M 146.3321,481.5506 130.6281,505.3549 111.4678,525.449 97.0486,542.2172 85.61731,560.1504 75.78773,578.7092 67.33909,596.675 58.89382,613.6845 49.1497,628.847 47.95023,630.8096 "
id = "155" />
  <path
     style="fill:none;stroke:#000000;stroke-width:5;stroke-opacity:1"
     d = "M 144.1391,480.6851 128.0789,504.3682 108.6356,524.1748 93.5365,540.4366 81.1395,557.5795 70.73504,575.0781 62.63034,591.4606 54.79191,606.4815 47.96377,617.0712 "
id = "156" />
  <path
     style="fill:none;stroke:#000000;stroke-width:5;stroke-opacity:1"
     d = "M 141.9614,479.7815 125.6589,503.3998 106.0398,522.8788 90.38157,538.6398 77.24683,555.0013 66.36892,571.5823 58.49656,586.9809 51.18946,600.7744 47.95322,605.7078 "
id = "157" />
  <path
     style="fill:none;stroke:#000000;stroke-width:5;stroke-opacity:1"
     d = "M 139.7999,478.84 123.2287,502.4029 103.5584,521.4976 87.42237,536.8157 73.67442,552.4998 62.62382,568.538 54.84496,583.2744 48.0741,596.0763 47.96323,596.2428 "
id = "158" />
  <path
     style="fill:none;stroke:#000000;stroke-width:5;stroke-opacity:1"
     d = "M 137.6551,477.8609 120.8127,501.3209 101.0112,519.8908 84.42329,534.7062 70.1636,549.6189 58.85815,565.2239 50.91043,579.5344 47.99236,585.0063 "
id = "159" />
  <path
     style="fill:none;stroke:#000000;stroke-width:5;stroke-opacity:1"
     d = "M 135.5276,476.8445 118.5699,500.1277 98.74986,518.355 81.85154,532.8525 67.07681,547.314 55.59048,562.645 47.95727,575.554 "
id = "160" />
  <path
     style="fill:none;stroke:#000000;stroke-width:5;stroke-opacity:1"
     d = "M 133.4183,475.7912 116.3552,498.8669 96.56099,516.7949 79.46173,531.0704 64.08633,545.3969 52.27454,560.7054 47.99818,567.7023 "
id = "161" />
  <path
     style="fill:none;stroke:#000000;stroke-width:5;stroke-opacity:1"
     d = "M 131.3277,474.7013 114.1701,497.499 94.40661,515.1134 77.12681,529.1805 61.13232,543.3472 48.85243,558.5616 47.98756,559.9073 "
id = "162" />
  <path
     style="fill:none;stroke:#000000;stroke-width:5;stroke-opacity:1"
     d = "M 129.2565,473.575 112.1228,495.9734 92.32665,513.3122 74.84943,527.0755 58.15469,541.1056 47.99884,553.3431 "
id = "163" />
  <path
     style="fill:none;stroke:#000000;stroke-width:5;stroke-opacity:1"
     d = "M 127.2052,472.4127 110.0779,494.4105 90.24933,511.4542 72.62605,524.9194 55.57578,538.8328 47.99014,547.7378 "
id = "164" />
  <path
     style="fill:none;stroke:#000000;stroke-width:5;stroke-opacity:1"
     d = "M 125.1745,471.2148 108.2093,492.8995 88.35699,509.616 70.69125,522.9289 53.49848,536.8263 47.99694,543.1735 "
id = "165" />
  <path
     style="fill:none;stroke:#000000;stroke-width:5;stroke-opacity:1"
     d = "M 123.165,469.9817 106.3579,491.4371 86.5699,507.7 68.88904,521.0104 51.68203,534.9143 47.97268,539.1082 "
id = "166" />
  <path
     style="fill:none;stroke:#000000;stroke-width:5;stroke-opacity:1"
     d = "M 121.1774,468.7136 104.5132,489.9853 84.96096,505.7479 67.2104,518.9775 50.02412,532.8104 47.94991,535.1149 "
id = "167" />
  <path
     style="fill:none;stroke:#000000;stroke-width:5;stroke-opacity:1"
     d = "M 119.2121,467.4111 102.7089,488.4963 83.45866,503.7086 65.54848,516.6862 48.26999,530.3887 47.93273,530.758 "
id = "168" />
  <path
     style="fill:none;stroke:#000000;stroke-width:5;stroke-opacity:1"
     d = "M 117.2699,466.0744 101.0423,486.9261 82.1685,501.5911 64.0406,514.3503 47.92957,526.8637 "
id = "169" />
  <path
     style="fill:none;stroke:#000000;stroke-width:5;stroke-opacity:1"
     d = "M 115.3513,464.7041 99.44844,485.2292 80.94172,499.434 62.60881,511.9279 47.95452,522.8851 "
id = "170" />
  <path
     style="fill:none;stroke:#000000;stroke-width:5;stroke-opacity:1"
     d = "M 114.0857,463.7721 98.35726,483.9962 80.137,497.8751 61.68082,510.124 47.98645,520.0264 "
id = "171" />
  <path
     style="fill:none;stroke:#000000;stroke-width:5;stroke-opacity:1"
     d = "M 112.2079,462.3465 96.74367,482.1033 78.86443,495.4728 60.29366,507.3532 47.94033,515.8609 "
id = "172" />
  <path
     style="fill:none;stroke:#000000;stroke-width:5;stroke-opacity:1"
     d = "M 110.355,460.8884 95.17087,480.1851 77.64091,493.0166 58.95778,504.5091 47.95391,511.8004 "
id = "173" />
  <path
     style="fill:none;stroke:#000000;stroke-width:5;stroke-opacity:1"
     d = "M 108.528,459.3981 93.56205,478.167 76.46371,490.4912 57.69201,501.5354 47.97634,507.6876 "
id = "174" />
  <path
     style="fill:none;stroke:#000000;stroke-width:5;stroke-opacity:1"
     d = "M 106.7273,457.8763 91.95987,476.0702 75.34375,487.9195 56.58208,498.4468 47.93784,503.6713 "
id = "175" />
  <path
     style="fill:none;stroke:#000000;stroke-width:5;stroke-opacity:1"
     d = "M 104.9534,456.3232 90.33947,473.8374 74.16575,485.3568 55.53841,495.3589 47.98352,499.6733 "
id = "176" />
  <path
     style="fill:none;stroke:#000000;stroke-width:5;stroke-opacity:1"
     d = "M 103.2069,454.7394 88.77467,471.3613 73.06581,482.6045 54.71476,492.1444 47.93514,495.7937 "
id = "177" />
  <path
     style="fill:none;stroke:#000000;stroke-width:5;stroke-opacity:1"
     d = "M 101.4883,453.1254 87.23932,468.7957 72.03874,479.7037 53.97625,488.8282 47.98279,491.8237 "
id = "178" />
  <path
     style="fill:none;stroke:#000000;stroke-width:5;stroke-opacity:1"
     d = "M 99.79817,451.4816 85.77668,466.1824 70.8232,476.6884 53.04131,485.4637 47.96478,487.8272 "
id = "179" />
  <path
     style="fill:none;stroke:#000000;stroke-width:5;stroke-opacity:1"
     d = "M 98.13696,449.8086 84.14836,463.5889 69.47181,473.4805 52.01846,481.9907 47.99686,483.7752 "
id = "180" />
  <path
     style="fill:none;stroke:#000000;stroke-width:5;stroke-opacity:1"
     d = "M 96.50519,448.1069 82.45376,461.1631 67.91246,470.3525 50.72356,478.5055 47.96908,479.6939 "
id = "181" />
  <path
     style="fill:none;stroke:#000000;stroke-width:5;stroke-opacity:1"
     d = "M 94.90327,446.3768 80.78339,458.7016 66.22908,467.1714 49.27171,474.8708 47.98106,475.413 "
id = "182" />
  <path
     style="fill:none;stroke:#000000;stroke-width:5;stroke-opacity:1"
     d = "M 93.33189,444.6191 79.12765,456.2628 64.46967,464.1003 47.95381,471.2579 "
id = "183" />
  <path
     style="fill:none;stroke:#000000;stroke-width:5;stroke-opacity:1"
     d = "M 91.79143,442.8343 77.4957,453.9269 62.75048,461.2439 47.958,467.3425 "
id = "184" />
  <path
     style="fill:none;stroke:#000000;stroke-width:5;stroke-opacity:1"
     d = "M 90.28234,441.0229 75.89569,451.6639 61.11586,458.4992 47.98693,463.6412 "
id = "185" />
  <path
     style="fill:none;stroke:#000000;stroke-width:5;stroke-opacity:1"
     d = "M 88.8051,439.1854 74.29823,449.3936 59.40187,455.8182 47.95181,460.0291 "
id = "186" />
  <path
     style="fill:none;stroke:#000000;stroke-width:5;stroke-opacity:1"
     d = "M 87.36015,437.3224 72.72764,447.077 57.71167,453.0711 47.90573,456.537 "
id = "187" />
  <path
     style="fill:none;stroke:#000000;stroke-width:5;stroke-opacity:1"
     d = "M 85.94794,435.4344 71.223,444.6695 56.00756,450.3568 47.99601,453.1972 "
id = "188" />
  <path
     style="fill:none;stroke:#000000;stroke-width:5;stroke-opacity:1"
     d = "M 84.56889,433.5221 69.79201,442.3221 54.33575,447.7743 47.92651,450.0466 "
id = "189" />
  <path
     style="fill:none;stroke:#000000;stroke-width:5;stroke-opacity:1"
     d = "M 83.22343,431.5861 68.36115,440.0016 52.69071,445.2409 47.97784,446.9118 "
id = "190" />
  <path
     style="fill:none;stroke:#000000;stroke-width:5;stroke-opacity:1"
     d = "M 81.91195,429.6268 66.96204,437.6389 50.99767,442.699 47.9901,443.7918 "
id = "191" />
  <path
     style="fill:none;stroke:#000000;stroke-width:5;stroke-opacity:1"
     d = "M 80.6348,427.6449 65.63525,435.3116 49.45697,440.3228 47.95624,440.8774 "
id = "192" />
  <path
     style="fill:none;stroke:#000000;stroke-width:5;stroke-opacity:1"
     d = "M 79.3925,425.641 64.39387,432.9712 48.17818,437.9053 47.991,437.9757 "
id = "193" />
  <path
     style="fill:none;stroke:#000000;stroke-width:5;stroke-opacity:1"
     d = "M 78.18537,423.6158 63.21748,430.6097 47.99765,435.2097 "
id = "194" />
  <path
     style="fill:none;stroke:#000000;stroke-width:5;stroke-opacity:1"
     d = "M 77.01376,421.5699 62.08868,428.1109 47.91615,432.3746 "
id = "195" />
  <path
     style="fill:none;stroke:#000000;stroke-width:5;stroke-opacity:1"
     d = "M 75.87804,419.5038 60.9416,425.6676 47.98872,429.4743 "
id = "196" />
  <path
     style="fill:none;stroke:#000000;stroke-width:5;stroke-opacity:1"
     d = "M 74.77856,417.4182 59.89881,423.1759 47.98952,426.6309 "
id = "197" />
  <path
     style="fill:none;stroke:#000000;stroke-width:5;stroke-opacity:1"
     d = "M 73.71564,415.3137 58.97529,420.6153 47.90714,423.7387 "
id = "198" />
  <path
     style="fill:none;stroke:#000000;stroke-width:5;stroke-opacity:1"
     d = "M 72.6896,413.1909 58.14809,418.1137 47.92593,420.9184 "
id = "199" />
  <path
     style="fill:none;stroke:#000000;stroke-width:5;stroke-opacity:1"
     d = "M 71.70077,411.0507 57.36716,415.6295 47.90714,418.1895 "
id = "200" />
  <path
     style="fill:none;stroke:#000000;stroke-width:5;stroke-opacity:1"
     d = "M 70.7494,408.8933 56.68556,413.0701 47.91444,415.4945 "
id = "201" />
  <path
     style="fill:none;stroke:#000000;stroke-width:5;stroke-opacity:1"
     d = "M 69.83585,406.7198 56.03267,410.675 47.93016,412.8924 "
id = "202" />
  <path
     style="fill:none;stroke:#000000;stroke-width:5;stroke-opacity:1"
     d = "M 68.9604,404.5307 55.39518,408.3743 47.94908,410.3341 "
id = "203" />
  <path
     style="fill:none;stroke:#000000;stroke-width:5;stroke-opacity:1"
     d = "M 68.12328,402.3267 54.72822,406.0692 47.94569,407.7996 "
id = "204" />
  <path
     style="fill:none;stroke:#000000;stroke-width:5;stroke-opacity:1"
     d = "M 67.32475,400.1083 54.08929,403.7494 47.97443,405.2644 "
id = "205" />
  <path
     style="fill:none;stroke:#000000;stroke-width:5;stroke-opacity:1"
     d = "M 66.56506,397.8764 53.46374,401.455 47.91842,402.7735 "
id = "206" />
  <path
     style="fill:none;stroke:#000000;stroke-width:5;stroke-opacity:1"
     d = "M 65.84443,395.6315 52.97433,399.1454 47.90711,400.3134 "
id = "207" />
  <path
     style="fill:none;stroke:#000000;stroke-width:5;stroke-opacity:1"
     d = "M 65.16978,393.3971 52.42265,396.8223 47.92537,397.7895 "
id = "208" />
  <path
     style="fill:none;stroke:#000000;stroke-width:5;stroke-opacity:1"
     d = "M 64.52126,391.1058 51.94022,394.462 47.90847,395.2077 "
id = "209" />
  <path
     style="fill:none;stroke:#000000;stroke-width:5;stroke-opacity:1"
     d = "M 63.91911,388.8263 51.47835,392.0609 47.91891,392.5992 "
id = "210" />
  <path
     style="fill:none;stroke:#000000;stroke-width:5;stroke-opacity:1"
     d = "M 63.3568,386.5366 50.94033,389.6989 47.96212,390.0596 "
id = "211" />
  <path
     style="fill:none;stroke:#000000;stroke-width:5;stroke-opacity:1"
     d = "M 62.83458,384.2375 50.39692,387.3129 47.90783,387.5464 "
id = "212" />
  <path
     style="fill:none;stroke:#000000;stroke-width:5;stroke-opacity:1"
     d = "M 62.35255,381.9296 49.86303,384.9649 47.96842,385.1075 "
id = "213" />
  <path
     style="fill:none;stroke:#000000;stroke-width:5;stroke-opacity:1"
     d = "M 61.91087,379.6136 49.34372,382.5475 47.94721,382.6461 "
id = "214" />
  <path
     style="fill:none;stroke:#000000;stroke-width:5;stroke-opacity:1"
     d = "M 61.50969,377.2903 48.84472,380.0812 47.94762,380.1531 "
id = "215" />
  <path
     style="fill:none;stroke:#000000;stroke-width:5;stroke-opacity:1"
     d = "M 61.14911,374.9604 48.34795,377.5867 47.94964,377.6235 "
id = "216" />
  <path
     style="fill:none;stroke:#000000;stroke-width:5;stroke-opacity:1"
     d = "M 60.82925,372.6245 47.97331,375.1431 "
id = "217" />
  <path
     style="fill:none;stroke:#000000;stroke-width:5;stroke-opacity:1"
     d = "M 60.5502,370.2834 47.97745,372.6819 "
id = "218" />
  <path
     style="fill:none;stroke:#000000;stroke-width:5;stroke-opacity:1"
     d = "M 60.3143,367.9613 47.9279,370.2722 "
id = "219" />
  <path
     style="fill:none;stroke:#000000;stroke-width:5;stroke-opacity:1"
     d = "M 60.11488,365.5884 47.9284,367.8816 "
id = "220" />
  <path
     style="fill:none;stroke:#000000;stroke-width:5;stroke-opacity:1"
     d = "M 59.95873,363.2357 47.99162,365.6074 "
id = "221" />
  <path
     style="fill:none;stroke:#000000;stroke-width:5;stroke-opacity:1"
     d = "M 59.84367,360.8809 47.90448,363.3903 "
id = "222" />
  <path
     style="fill:none;stroke:#000000;stroke-width:5;stroke-opacity:1"
     d = "M 59.76973,358.5244 47.96163,361.1646 "
id = "223" />
  <path
     style="fill:none;stroke:#000000;stroke-width:5;stroke-opacity:1"
     d = "M 59.73693,356.1669 47.95652,358.929 "
id = "224" />
  <path
     style="fill:none;stroke:#000000;stroke-width:5;stroke-opacity:1"
     d = "M 59.74527,353.8093 47.98195,356.6452 "
id = "225" />
  <path
     style="fill:none;stroke:#000000;stroke-width:5;stroke-opacity:1"
     d = "M 59.79475,351.4521 47.95143,354.3785 "
id = "226" />
  <path
     style="fill:none;stroke:#000000;stroke-width:5;stroke-opacity:1"
     d = "M 59.88538,349.0962 47.95765,352.0991 "
id = "227" />
  <path
     style="fill:none;stroke:#000000;stroke-width:5;stroke-opacity:1"
     d = "M 60.0171,346.7422 47.91783,349.8817 "
id = "228" />
  <path
     style="fill:none;stroke:#000000;stroke-width:5;stroke-opacity:1"
     d = "M 60.18988,344.3908 47.9043,347.6077 "
id = "229" />
  <path
     style="fill:none;stroke:#000000;stroke-width:5;stroke-opacity:1"
     d = "M 60.40368,342.0428 47.92807,345.326 "
id = "230" />
  <path
     style="fill:none;stroke:#000000;stroke-width:5;stroke-opacity:1"
     d = "M 60.65843,339.6989 47.99339,343.049 "
id = "231" />
  <path
     style="fill:none;stroke:#000000;stroke-width:5;stroke-opacity:1"
     d = "M 60.95404,337.3598 47.98567,340.7335 "
id = "232" />
  <path
     style="fill:none;stroke:#000000;stroke-width:5;stroke-opacity:1"
     d = "M 61.29042,335.0262 47.92178,338.4501 "
id = "233" />
  <path
     style="fill:none;stroke:#000000;stroke-width:5;stroke-opacity:1"
     d = "M 61.66748,332.6989 48.2537,335.9384 47.96653,336.0252 "
id = "234" />
  <path
     style="fill:none;stroke:#000000;stroke-width:5;stroke-opacity:1"
     d = "M 62.0851,330.3785 48.77676,333.3586 47.92054,333.636 "
id = "235" />
  <path
     style="fill:none;stroke:#000000;stroke-width:5;stroke-opacity:1"
     d = "M 62.54316,328.0658 49.27531,330.7442 47.95352,331.2057 "
id = "236" />
  <path
     style="fill:none;stroke:#000000;stroke-width:5;stroke-opacity:1"
     d = "M 63.0415,325.7614 49.86165,328.1046 47.97543,328.7698 "
id = "237" />
  <path
     style="fill:none;stroke:#000000;stroke-width:5;stroke-opacity:1"
     d = "M 63.57999,323.466 50.5686,325.3921 47.92437,326.3133 "
id = "238" />
  <path
     style="fill:none;stroke:#000000;stroke-width:5;stroke-opacity:1"
     d = "M 64.15845,321.1804 51.31846,322.5645 47.99435,323.6604 "
id = "239" />
  <path
     style="fill:none;stroke:#000000;stroke-width:5;stroke-opacity:1"
     d = "M 64.77675,318.9051 52.15979,319.8081 47.9413,321.0596 "
id = "240" />
  <path
     style="fill:none;stroke:#000000;stroke-width:5;stroke-opacity:1"
     d = "M 65.43463,316.6411 52.99481,316.962 47.95676,318.249 "
id = "241" />
  <path
     style="fill:none;stroke:#000000;stroke-width:5;stroke-opacity:1"
     d = "M 66.13192,314.3889 53.91045,314.0417 47.91455,315.1642 "
id = "242" />
  <path
     style="fill:none;stroke:#000000;stroke-width:5;stroke-opacity:1"
     d = "M 66.86842,312.1492 54.86473,311.1129 47.91878,311.9823 "
id = "243" />
  <path
     style="fill:none;stroke:#000000;stroke-width:5;stroke-opacity:1"
     d = "M 67.64389,309.9227 55.84857,308.3134 47.96527,308.8269 "
id = "244" />
  <path
     style="fill:none;stroke:#000000;stroke-width:5;stroke-opacity:1"
     d = "M 68.45809,307.7101 56.9172,305.575 47.91802,305.7095 "
id = "245" />
  <path
     style="fill:none;stroke:#000000;stroke-width:5;stroke-opacity:1"
     d = "M 69.31079,305.512 58.01776,302.8742 47.92832,302.4119 "
id = "246" />
  <path
     style="fill:none;stroke:#000000;stroke-width:5;stroke-opacity:1"
     d = "M 70.20172,303.3291 59.11065,300.2092 47.98131,298.9548 "
id = "247" />
  <path
     style="fill:none;stroke:#000000;stroke-width:5;stroke-opacity:1"
     d = "M 71.13062,301.1621 60.2766,297.6501 48.87965,295.6164 47.98454,295.5227 "
id = "248" />
  <path
     style="fill:none;stroke:#000000;stroke-width:5;stroke-opacity:1"
     d = "M 72.09723,299.0116 61.46049,295.1256 50.09222,292.4719 47.93036,292.0644 "
id = "249" />
  <path
     style="fill:none;stroke:#000000;stroke-width:5;stroke-opacity:1"
     d = "M 73.10119,296.8783 62.61776,292.622 51.19131,289.3957 47.9966,288.5688 "
id = "250" />
  <path
     style="fill:none;stroke:#000000;stroke-width:5;stroke-opacity:1"
     d = "M 74.14222,294.7629 63.70195,290.0584 52.15129,286.3136 47.95193,285.0003 "
id = "251" />
  <path
     style="fill:none;stroke:#000000;stroke-width:5;stroke-opacity:1"
     d = "M 75.22001,292.666 64.69234,287.3948 53.03744,283.0648 47.96567,281.2109 "
id = "252" />
  <path
     style="fill:none;stroke:#000000;stroke-width:5;stroke-opacity:1"
     d = "M 76.32297,290.609 65.69339,284.7667 53.8089,279.6617 47.9317,277.1285 "
id = "253" />
  <path
     style="fill:none;stroke:#000000;stroke-width:5;stroke-opacity:1"
     d = "M 77.48455,288.5302 66.66159,282.1368 54.39227,276.2736 47.95208,273.0546 "
id = "254" />
  <path
     style="fill:none;stroke:#000000;stroke-width:5;stroke-opacity:1"
     d = "M 78.6706,286.4926 67.60611,279.5718 55.01648,272.8929 47.96223,268.9131 "
id = "255" />
  <path
     style="fill:none;stroke:#000000;stroke-width:5;stroke-opacity:1"
     d = "M 79.89204,284.476 68.52269,276.9405 55.57838,269.3243 47.93361,264.5754 "
id = "256" />
  <path
     style="fill:none;stroke:#000000;stroke-width:5;stroke-opacity:1"
     d = "M 81.14848,282.481 69.29232,274.3596 56.03952,265.8079 47.93316,260.302 "
id = "257" />
  <path
     style="fill:none;stroke:#000000;stroke-width:5;stroke-opacity:1"
     d = "M 82.43955,280.5082 69.98573,271.8061 56.56763,262.6456 47.94621,256.3075 "
id = "258" />
  <path
     style="fill:none;stroke:#000000;stroke-width:5;stroke-opacity:1"
     d = "M 83.76493,278.5582 70.81889,269.3332 57.28088,259.6909 47.92999,252.3306 "
id = "259" />
  <path
     style="fill:none;stroke:#000000;stroke-width:5;stroke-opacity:1"
     d = "M 85.12407,276.6317 71.77675,266.9225 58.18306,256.7701 47.96341,248.2588 "
id = "260" />
  <path
     style="fill:none;stroke:#000000;stroke-width:5;stroke-opacity:1"
     d = "M 86.51662,274.7292 72.7701,264.5445 59.02694,253.8089 47.9536,244.1414 "
id = "261" />
  <path
     style="fill:none;stroke:#000000;stroke-width:5;stroke-opacity:1"
     d = "M 87.94215,272.8513 73.83546,262.1704 59.95978,250.7765 47.95241,239.9025 "
id = "262" />
  <path
     style="fill:none;stroke:#000000;stroke-width:5;stroke-opacity:1"
     d = "M 89.40025,270.9986 74.91801,259.7974 60.81232,247.8334 47.98816,235.778 "
id = "263" />
  <path
     style="fill:none;stroke:#000000;stroke-width:5;stroke-opacity:1"
     d = "M 90.87546,269.1898 75.96812,257.4731 61.70009,245.0382 48.06487,231.7454 47.93771,231.591 "
id = "264" />
  <path
     style="fill:none;stroke:#000000;stroke-width:5;stroke-opacity:1"
     d = "M 92.41232,267.3709 77.12727,254.9913 62.689,242.0453 48.9781,228.2802 47.99025,227.0216 "
id = "265" />
  <path
     style="fill:none;stroke:#000000;stroke-width:5;stroke-opacity:1"
     d = "M 93.96539,265.597 78.35657,252.4577 63.77406,238.8737 50.0248,224.489 47.95305,221.6681 "
id = "266" />
  <path
     style="fill:none;stroke:#000000;stroke-width:5;stroke-opacity:1"
     d = "M 96.08391,263.2745 80.23958,249.2308 65.45116,234.522 51.76778,219.2151 47.96473,213.5778 "
id = "267" />
  <path
     style="fill:none;stroke:#000000;stroke-width:5;stroke-opacity:1"
     d = "M 97.7079,261.5653 81.80291,246.7603 66.71519,231.0978 53.25954,214.9007 47.98466,206.6418 "
id = "268" />
  <path
     style="fill:none;stroke:#000000;stroke-width:5;stroke-opacity:1"
     d = "M 99.36147,259.8847 83.43712,244.2142 68.02547,227.6216 54.90456,210.5059 47.95887,199.1635 "
id = "269" />
  <path
     style="fill:none;stroke:#000000;stroke-width:5;stroke-opacity:1"
     d = "M 101.0441,258.2333 85.06827,241.6662 69.34813,224.1402 56.53426,205.9653 47.96383,191.4006 "
id = "270" />
  <path
     style="fill:none;stroke:#000000;stroke-width:5;stroke-opacity:1"
     d = "M 102.7553,256.6114 86.67168,239.2224 70.61371,220.7426 57.94712,201.6242 47.95261,184.2994 "
id = "271" />
  <path
     style="fill:none;stroke:#000000;stroke-width:5;stroke-opacity:1"
     d = "M 104.4946,255.0197 88.29082,236.8623 72.02997,217.5006 59.46973,197.5476 47.99217,177.5021 "
id = "272" />
  <path
     style="fill:none;stroke:#000000;stroke-width:5;stroke-opacity:1"
     d = "M 106.2614,253.4586 90.05446,234.5434 73.61759,214.4955 61.07026,193.7981 48.63702,172.0121 47.97977,171.0082 "
id = "273" />
  <path
     style="fill:none;stroke:#000000;stroke-width:5;stroke-opacity:1"
     d = "M 108.0551,251.9285 91.78645,232.2828 75.13192,211.6638 62.39918,190.3205 49.63062,167.8355 47.95726,165.3457 "
id = "274" />
  <path
     style="fill:none;stroke:#000000;stroke-width:5;stroke-opacity:1"
     d = "M 109.8754,250.4299 93.6386,230.1991 76.84409,209.0409 63.95384,187.0168 51.03701,164.0166 47.97574,159.5679 "
id = "275" />
  <path
     style="fill:none;stroke:#000000;stroke-width:5;stroke-opacity:1"
     d = "M 111.7215,248.9634 95.51767,228.2537 78.72349,206.5291 65.74894,183.9212 52.68605,160.3823 47.99836,153.7761 "
id = "276" />
  <path
     style="fill:none;stroke:#000000;stroke-width:5;stroke-opacity:1"
     d = "M 113.5929,247.5293 97.43923,226.3557 80.75783,204.0598 67.60524,180.9226 54.12797,156.7235 47.95342,148.1075 "
id = "277" />
  <path
     style="fill:none;stroke:#000000;stroke-width:5;stroke-opacity:1"
     d = "M 115.489,246.1281 99.49113,224.5817 82.99602,201.8495 69.71303,178.2597 55.6643,153.3494 47.9833,142.614 "
id = "278" />
  <path
     style="fill:none;stroke:#000000;stroke-width:5;stroke-opacity:1"
     d = "M 117.4093,244.7602 101.6208,222.9039 85.36859,199.7783 71.99963,175.7393 57.42709,150.0897 47.94471,136.833 "
id = "279" />
  <path
     style="fill:none;stroke:#000000;stroke-width:5;stroke-opacity:1"
     d = "M 119.3531,243.426 103.8683,221.2587 87.89764,197.922 74.43967,173.3345 59.39462,146.9606 47.97529,131.0321 "
id = "280" />
  <path
     style="fill:none;stroke:#000000;stroke-width:5;stroke-opacity:1"
     d = "M 121.32,242.1259 106.2561,219.7114 90.59113,196.1986 77.04715,170.9708 61.64003,144.1472 47.9721,124.7854 "
id = "281" />
  <path
     style="fill:none;stroke:#000000;stroke-width:5;stroke-opacity:1"
     d = "M 123.3092,240.8604 108.7785,218.2937 93.45824,194.5806 79.82022,168.8021 64.21317,141.6645 47.98358,117.9946 "
id = "282" />
  <path
     style="fill:none;stroke:#000000;stroke-width:5;stroke-opacity:1"
     d = "M 125.3203,239.6298 111.2757,216.9926 96.26254,193.2651 82.55545,167.1234 67.03822,139.745 49.70832,113.5602 47.95282,111.0051 "
id = "283" />
  <path
     style="fill:none;stroke:#000000;stroke-width:5;stroke-opacity:1"
     d = "M 127.3526,238.4344 113.7697,215.5762 99.08321,191.9166 85.45261,165.5486 70.10838,137.989 53.09224,111.2819 47.95906,103.1696 "
id = "284" />
  <path
     style="fill:none;stroke:#000000;stroke-width:5;stroke-opacity:1"
     d = "M 129.4053,237.2747 116.3778,214.1451 101.8932,190.4256 88.41994,164.0119 73.21751,136.2513 56.86441,109.1136 47.96526,93.81355 "
id = "285" />
  <path
     style="fill:none;stroke:#000000;stroke-width:5;stroke-opacity:1"
     d = "M 131.478,236.151 118.9876,212.8658 104.6726,189.0377 91.56952,162.495 76.59682,134.7494 61.28373,107.3291 47.97651,81.56202 "
id = "286" />
  <path
     style="fill:none;stroke:#000000;stroke-width:5;stroke-opacity:1"
     d = "M 133.57,235.0637 121.6491,211.6378 107.5469,187.735 94.90165,161.1715 80.60578,133.416 66.51007,105.9519 53.62279,76.65448 47.96581,66.52731 "
id = "287" />
  <path
     style="fill:none;stroke:#000000;stroke-width:5;stroke-opacity:1"
     d = "M 135.6806,234.013 124.3153,210.448 110.3936,186.5614 98.24324,160.1553 84.92561,132.2274 72.10622,104.8065 61.33974,75.84746 48.7446,47.96005 "
id = "288" />
  <path
     style="fill:none;stroke:#000000;stroke-width:5;stroke-opacity:1"
     d = "M 137.8092,232.9994 126.889,209.3574 113.2716,185.5551 101.5071,159.6312 89.2916,131.5977 77.8726,104.1367 69.37507,75.89513 60.21944,47.9574 "
id = "289" />
  <path
     style="fill:none;stroke:#000000;stroke-width:5;stroke-opacity:1"
     d = "M 139.9552,232.023 129.4836,208.3701 116.2417,184.69 104.9154,159.329 93.82111,131.2603 83.91271,103.8514 77.42057,76.67651 71.64203,47.95146 "
id = "290" />
  <path
     style="fill:none;stroke:#000000;stroke-width:5;stroke-opacity:1"
     d = "M 142.118,231.0843 132.1316,207.4591 119.4471,183.8724 108.6096,158.8599 98.51405,130.8306 90.12894,103.4816 85.53749,77.29111 82.89916,49.2103 82.62949,47.93859 "
id = "291" />
  <path
     style="fill:none;stroke:#000000;stroke-width:5;stroke-opacity:1"
     d = "M 144.2967,230.1834 134.9238,206.5079 122.875,183.1865 112.6371,158.4537 103.5531,130.5802 96.64734,103.2304 93.51414,77.97593 92.66817,50.85994 92.36639,47.97569 "
id = "292" />
  <path
     style="fill:none;stroke:#000000;stroke-width:5;stroke-opacity:1"
     d = "M 146.4909,229.3207 137.7704,205.6108 126.4428,182.5541 117.0046,158.1047 108.9945,130.7153 103.2375,103.7886 100.7873,79.53078 100.8104,54.3522 100.3358,47.96987 "
id = "293" />
  <path
     style="fill:none;stroke:#000000;stroke-width:5;stroke-opacity:1"
     d = "M 148.6999,228.4963 140.602,204.8257 129.9385,182.0171 121.3171,157.8405 114.326,131.0117 109.1858,104.8824 106.87,81.47008 107.0426,57.96376 106.2964,47.99176 "
id = "294" />
  <path
     style="fill:none;stroke:#000000;stroke-width:5;stroke-opacity:1"
     d = "M 150.9229,227.7107 143.4871,204.1194 133.5736,181.4683 125.8436,157.5922 119.6119,131.2792 115.0342,105.9424 112.581,83.20445 112.5698,60.74991 111.2904,47.91359 "
id = "295" />
  <path
     style="fill:none;stroke:#000000;stroke-width:5;stroke-opacity:1"
     d = "M 153.1592,226.9641 146.3534,203.5863 137.2023,181.1909 130.2737,157.7529 124.5097,131.7536 120.3288,106.5519 117.8247,84.17303 117.3749,62.26042 115.5973,47.9705 "
id = "296" />
  <path
     style="fill:none;stroke:#000000;stroke-width:5;stroke-opacity:1"
     d = "M 155.4082,226.2565 149.2325,203.1075 140.7906,181.0287 134.5735,157.851 129.2758,132.0867 125.528,106.8004 122.8995,84.88203 121.5653,63.48206 119.0247,47.98892 "
id = "297" />
  <path
     style="fill:none;stroke:#000000;stroke-width:5;stroke-opacity:1"
     d = "M 156.8916,225.8133 151.097,202.7484 143.1232,180.8281 137.3668,157.8264 132.4517,132.1794 128.9982,106.7654 125.8834,85.05708 123.8865,63.86235 120.8732,47.94501 "
id = "298" />
  <path
     style="fill:none;stroke:#000000;stroke-width:5;stroke-opacity:1"
     d = "M 159.9415,224.9597 155.1455,201.9994 148.2869,180.401 143.6056,157.7141 139.9731,132.4707 136.6743,106.8475 132.4131,85.70498 128.5437,65.29098 124.52,47.95162 "
id = "299" />
  <path
     style="fill:none;stroke:#000000;stroke-width:5;stroke-opacity:1"
     d = "M 162.2245,224.3708 158.1457,201.3111 152.2505,179.7954 148.4124,157.1392 146.0945,132.2342 142.8149,106.5946 138.1772,85.54747 132.576,65.92921 127.5683,47.91224 "
id = "300" />
  <path
     style="fill:none;stroke:#000000;stroke-width:5;stroke-opacity:1"
     d = "M 164.5173,223.8218 161.1413,200.6161 156.4084,179.186 153.4519,156.7619 152.1469,132.0372 149.2688,106.8442 144.4473,85.67484 137.183,66.72455 130.8022,47.98142 "
id = "301" />
  <path
     style="fill:none;stroke:#000000;stroke-width:5;stroke-opacity:1"
     d = "M 166.8195,223.313 164.2552,199.9664 160.7025,178.707 158.3963,156.3053 157.8165,131.5754 155.3981,106.6364 150.0732,85.40669 142.0245,67.20558 134.4249,47.95094 "
id = "302" />
  <path
     style="fill:none;stroke:#000000;stroke-width:5;stroke-opacity:1"
     d = "M 169.1302,222.8444 167.3226,199.4095 164.6836,178.2113 163.2718,155.8494 163.3181,131.1034 161.2026,106.0369 155.6702,84.75572 147.5945,67.01165 138.9999,47.96072 "
id = "303" />
  <path
     style="fill:none;stroke:#000000;stroke-width:5;stroke-opacity:1"
     d = "M 171.4487,222.4162 170.5141,198.9218 168.8091,177.4973 168.5081,155.3529 169.5003,130.1816 167.8225,104.6406 162.498,83.31651 154.6781,65.75298 146.1742,47.98312 "
id = "304" />
  <path
     style="fill:none;stroke:#000000;stroke-width:5;stroke-opacity:1"
     d = "M 173.7743,222.0285 173.689,198.4975 172.9577,176.8036 173.629,154.851 175.2077,129.3722 174.4863,103.4193 169.7923,82.1144 162.6143,64.90298 154.2568,47.95203 "
id = "305" />
  <path
     style="fill:none;stroke:#000000;stroke-width:5;stroke-opacity:1"
     d = "M 176.1063,221.6815 176.8925,198.2446 177.2081,176.4231 178.6543,154.7244 180.5218,129.2405 180.828,102.9768 177.2663,82.23522 171.2379,65.86643 163.5768,49.14509 163.0057,47.97722 "
id = "306" />
  <path
     style="fill:none;stroke:#000000;stroke-width:5;stroke-opacity:1"
     d = "M 178.444,221.3752 180.0651,197.9203 181.3581,176.127 183.7092,154.613 185.9259,129.5745 186.9983,103.3193 184.7143,83.22215 180.6211,66.89116 175.0306,50.9737 173.8035,47.91029 "
id = "307" />
  <path
     style="fill:none;stroke:#000000;stroke-width:5;stroke-opacity:1"
     d = "M 180.7867,221.1098 183.2721,197.6193 185.406,175.8087 188.5326,154.4587 191.1117,129.9254 192.7705,104.1089 192.0442,84.60886 190.1045,68.27119 186.9226,52.81309 185.7339,47.95641 "
id = "308" />
  <path
     style="fill:none;stroke:#000000;stroke-width:5;stroke-opacity:1"
     d = "M 182.3275,220.9578 185.3864,197.4704 188.0049,175.7797 191.5485,154.5967 194.4694,130.2557 196.3242,104.8703 196.4738,85.79296 195.7129,69.62798 194.2313,54.19688 193.2845,47.96835 "
id = "309" />
  <path
     style="fill:none;stroke:#000000;stroke-width:5;stroke-opacity:1"
     d = "M 185.4842,220.7018 189.6033,197.2098 192.9718,175.648 197.3305,154.4666 200.6169,130.701 202.7791,106.5783 204.2726,87.99408 205.2335,72.08832 205.5899,56.54518 205.2907,47.95023 "
id = "310" />
  <path
     style="fill:none;stroke:#000000;stroke-width:5;stroke-opacity:1"
     d = "M 187.8375,220.5594 192.7283,197.0019 196.4273,175.5064 201.1287,154.3641 204.6596,130.9615 206.6613,107.6443 208.6035,89.10648 210.231,73.09591 211.1158,57.3367 211.0398,47.93684 "
id = "311" />
  <path
     style="fill:none;stroke:#000000;stroke-width:5;stroke-opacity:1"
     d = "M 190.193,220.458 195.7938,196.8385 199.934,175.295 204.7355,154.4026 208.3201,131.4672 210.2269,108.6402 212.2379,89.9513 214.2343,73.91695 215.4172,58.05564 215.4434,47.9558 "
id = "312" />
  <path
     style="fill:none;stroke:#000000;stroke-width:5;stroke-opacity:1"
     d = "M 192.5501,220.3978 198.7093,196.796 203.3504,175.1573 208.2414,154.5523 211.624,132.1533 213.4753,109.6594 215.4695,90.9043 217.782,74.92713 219.0945,59.15236 219.3286,47.95467 "
id = "313" />
  <path
     style="fill:none;stroke:#000000;stroke-width:5;stroke-opacity:1"
     d = "M 194.9077,220.3787 201.5448,196.8825 206.682,175.0948 211.7157,154.8227 214.7001,133.0302 216.4159,110.8722 218.4435,92.04021 221.1663,76.17188 222.7166,60.29497 223.1915,47.90414 "
id = "314" />
  <path
     style="fill:none;stroke:#000000;stroke-width:5;stroke-opacity:1"
     d = "M 197.2652,220.4007 204.3441,196.9344 209.9815,175.0861 215.0994,155.2486 217.6908,133.9629 219.1311,112.0937 221.3028,93.28635 224.1978,77.3813 225.9524,61.41186 226.6713,47.93112 "
id = "315" />
  <path
     style="fill:none;stroke:#000000;stroke-width:5;stroke-opacity:1"
     d = "M 199.6221,220.4639 207.0642,197.1192 213.2406,175.5602 218.3823,156.2706 220.6507,135.5802 221.6453,114.1098 223.7823,95.24088 226.8379,79.30461 228.7803,63.20308 229.922,47.94592 "
id = "316" />
  <path
     style="fill:none;stroke:#000000;stroke-width:5;stroke-opacity:1"
     d = "M 201.9774,220.5683 209.8632,197.4426 216.5348,176.1997 221.5873,157.4623 223.4368,137.3351 224.017,116.2907 226.0675,97.43831 229.2568,81.30447 231.3823,65.06296 232.9412,47.93408 "
id = "317" />
  <path
     style="fill:none;stroke:#000000;stroke-width:5;stroke-opacity:1"
     d = "M 204.3306,220.7137 212.5936,197.7715 219.6971,176.9855 224.5057,158.8125 225.9316,139.4057 226.1208,118.7673 227.9877,99.91674 231.4233,83.57632 233.7446,67.19639 235.6197,49.20926 235.6142,47.90928 "
id = "318" />
  <path
     style="fill:none;stroke:#000000;stroke-width:5;stroke-opacity:1"
     d = "M 206.6809,220.9001 215.3069,198.2221 222.812,178.1082 227.246,160.5239 228.4662,141.8597 228.2737,121.6109 229.7487,102.771 233.4241,86.12897 235.8272,69.5876 237.7923,51.76719 237.8433,47.96753 "
id = "319" />
  <path
     style="fill:none;stroke:#000000;stroke-width:5;stroke-opacity:1"
     d = "M 209.0276,221.1276 218.0413,198.7318 225.7708,179.3473 229.6707,162.2121 230.6772,144.3346 230.2466,124.5603 231.127,105.7606 234.8327,88.8119 237.4669,72.18436 239.4389,54.56112 239.6746,47.96524 "
id = "320" />
  <path
     style="fill:none;stroke:#000000;stroke-width:5;stroke-opacity:1"
     d = "M 211.3699,221.396 220.7784,199.3001 228.5048,180.7127 232.0139,164.0027 232.696,146.8611 232.0804,127.591 232.4942,108.9364 235.8295,91.66108 238.7439,74.94932 240.8463,57.4893 241.4528,47.90849 "
id = "321" />
  <path
     style="fill:none;stroke:#000000;stroke-width:5;stroke-opacity:1"
     d = "M 213.7074,221.7052 223.5208,199.8941 231.0338,182.1588 234.3126,165.985 234.8319,149.4693 234.2005,130.6216 233.9554,112.1897 236.8252,94.685 240.0017,77.81415 242.276,60.27887 243.3904,47.9292 "
id = "322" />
  <path
     style="fill:none;stroke:#000000;stroke-width:5;stroke-opacity:1"
     d = "M 216.0389,222.0552 226.2785,200.5327 233.4447,183.4913 236.4491,167.6829 236.8345,151.6608 236.1742,133.1972 235.4453,114.9239 237.8065,97.269 241.116,80.34362 243.5197,62.67765 245.1209,47.96426 "
id = "323" />
  <path
     style="fill:none;stroke:#000000;stroke-width:5;stroke-opacity:1"
     d = "M 218.364,222.4457 228.9686,201.1922 235.7928,184.7052 238.5056,169.3417 238.7862,153.7649 238.0033,135.6982 237.0295,117.4477 238.9065,99.73275 242.3649,82.66609 244.8585,64.87702 246.8118,47.9895 "
id = "324" />
  <path
     style="fill:none;stroke:#000000;stroke-width:5;stroke-opacity:1"
     d = "M 220.682,222.8769 231.642,201.9572 238.1172,185.8763 240.5539,170.9381 240.6095,155.6288 239.6924,137.9704 238.5826,119.7521 239.9776,102.1209 243.3899,84.92803 246.106,67.06791 248.5474,47.92281 "
id = "325" />
  <path
     style="fill:none;stroke:#000000;stroke-width:5;stroke-opacity:1"
     d = "M 222.992,223.3484 234.3092,202.8182 240.4278,187.0612 242.6395,172.4773 242.4498,157.3244 241.4117,140.1209 240.2401,121.8274 241.0926,104.2662 244.4253,86.92326 247.3861,69.04284 250.0918,49.21374 250.1474,47.91495 "
id = "326" />
  <path
     style="fill:none;stroke:#000000;stroke-width:5;stroke-opacity:1"
     d = "M 225.2935,223.8601 236.9233,203.7186 242.658,188.2462 244.6588,173.7935 244.2744,158.7341 243.1108,141.8482 241.9825,123.4662 242.4756,105.9349 245.6177,88.46152 248.6951,70.44849 251.5428,50.55501 251.6888,47.95911 "
id = "327" />
  <path
     style="fill:none;stroke:#000000;stroke-width:5;stroke-opacity:1"
     d = "M 227.5857,224.4119 239.3955,204.7385 244.8704,189.6054 246.7046,175.3055 246.2386,160.2886 244.8553,143.6321 243.6828,125.2502 243.8862,107.664 246.7641,90.13068 249.9001,72.08593 252.8813,52.2032 253.1858,47.91393 "
id = "328" />
  <path
     style="fill:none;stroke:#000000;stroke-width:5;stroke-opacity:1"
     d = "M 229.8679,225.0037 241.8386,205.8916 247.0537,191.0987 248.8385,176.9476 248.3714,161.941 246.7422,145.4552 245.4363,127.1429 245.3522,109.5047 247.9612,91.95832 251.1115,73.89436 254.2791,54.12399 254.7947,47.94537 "
id = "329" />
  <path
     style="fill:none;stroke:#000000;stroke-width:5;stroke-opacity:1"
     d = "M 232.1394,225.6352 244.1125,206.9494 249.088,192.3627 250.8304,178.302 250.3999,163.3766 248.6395,147.0303 247.2741,128.9038 246.9626,111.1553 249.2916,93.55095 252.4417,75.45287 255.7232,55.71028 256.4734,47.9464 "
id = "330" />
  <path
     style="fill:none;stroke:#000000;stroke-width:5;stroke-opacity:1"
     d = "M 234.3996,226.3062 246.2505,207.9882 251.2376,193.6318 252.9414,179.5864 252.5257,164.7756 250.6344,148.6084 249.232,130.6592 248.7255,112.7703 250.7848,94.98375 253.8806,76.82981 257.2686,57.10882 258.2513,47.96125 "
id = "331" />
  <path
     style="fill:none;stroke:#000000;stroke-width:5;stroke-opacity:1"
     d = "M 236.6478,227.0166 248.4531,209.1529 253.6268,195.1496 255.3921,181.2443 255.0426,166.5375 252.9861,150.4394 251.6228,132.5173 251.0559,114.5061 252.7955,96.44014 255.8781,78.09727 259.3929,58.24627 260.5799,47.91427 "
id = "332" />
  <path
     style="fill:none;stroke:#000000;stroke-width:5;stroke-opacity:1"
     d = "M 238.8832,227.7662 250.5697,210.4255 255.9678,196.7245 257.8215,183.1214 257.6785,168.3897 255.5589,152.269 254.1023,134.4327 253.5479,116.181 255.0257,97.82991 258.1385,79.21968 261.7852,59.17498 263.2025,47.96395 "
id = "333" />
  <path
     style="fill:none;stroke:#000000;stroke-width:5;stroke-opacity:1"
     d = "M 241.1051,228.5546 252.6091,211.7647 258.1888,198.2783 260.1476,184.8951 260.1205,170.2706 258.0101,154.168 256.3956,136.3291 255.7872,117.6302 257.0431,98.994 260.1966,80.06282 264.0332,59.80135 265.6775,47.9146 "
id = "334" />
  <path
     style="fill:none;stroke:#000000;stroke-width:5;stroke-opacity:1"
     d = "M 243.313,229.3816 254.6835,213.1147 260.4023,199.8209 262.4521,186.6864 262.5599,172.4194 260.6474,156.4081 258.7831,138.5372 258.2159,119.3021 259.1845,100.2904 262.3815,81.02682 266.5521,60.63996 268.556,47.99787 "
id = "335" />
  <path
     style="fill:none;stroke:#000000;stroke-width:5;stroke-opacity:1"
     d = "M 245.5061,230.2471 256.792,214.5926 262.5857,201.4878 264.768,188.5748 264.9939,174.7592 263.477,158.854 261.3854,140.8239 260.9946,121.1641 261.7913,101.8138 265.0334,82.18917 269.4903,61.70834 272.0752,47.94888 "
id = "336" />
  <path
     style="fill:none;stroke:#000000;stroke-width:5;stroke-opacity:1"
     d = "M 247.6837,231.1507 258.9669,215.9481 264.7975,203.0096 267.0717,190.2839 267.2358,176.5938 266.0683,160.7591 263.9403,142.6365 263.7825,122.702 264.761,102.9006 268.0859,82.756 272.8224,62.10579 276.0041,47.95891 "
id = "337" />
  <path
     style="fill:none;stroke:#000000;stroke-width:5;stroke-opacity:1"
     d = "M 249.8452,232.0922 261.1533,217.3967 267.0087,204.6653 269.3427,192.0932 269.5401,178.5181 268.739,162.8757 266.8201,144.7013 266.7372,124.5341 268.0053,104.1398 271.7195,83.46198 276.7504,62.63455 280.5773,47.92416 "
id = "338" />
  <path
     style="fill:none;stroke:#000000;stroke-width:5;stroke-opacity:1"
     d = "M 251.99,233.0713 263.3486,218.7486 269.2502,206.125 271.569,193.6651 271.6828,180.2169 271.2142,164.508 269.618,146.1813 269.7728,125.6884 271.4817,104.6012 275.7463,83.44257 281.1862,62.4903 285.6486,47.96082 "
id = "339" />
  <path
     style="fill:none;stroke:#000000;stroke-width:5;stroke-opacity:1"
     d = "M 254.1174,234.0876 265.4167,219.9869 271.3093,207.4988 273.5875,195.1574 273.696,181.7812 273.5745,165.9056 272.5158,147.4257 273.0132,126.5386 275.1943,104.7795 279.855,83.23985 285.9403,62.13178 291.0416,47.91966 "
id = "340" />
  <path
     style="fill:none;stroke:#000000;stroke-width:5;stroke-opacity:1"
     d = "M 256.2268,235.141 267.4962,221.1873 273.5159,208.853 275.6952,196.5072 275.8844,183.1575 276.0717,167.118 275.5616,148.3266 276.6133,126.9439 279.3388,104.4811 284.6,82.55646 291.7855,61.33487 297.5421,47.91804 "
id = "341" />
  <path
     style="fill:none;stroke:#000000;stroke-width:5;stroke-opacity:1"
     d = "M 257.6226,235.8635 268.882,222.0287 275.0164,209.7855 277.2053,197.379 277.5043,184.0285 277.9223,167.8897 277.8158,148.8989 279.2878,127.1717 282.3729,104.343 287.9897,82.05531 296.1348,60.90648 302.3926,47.93711 "
id = "342" />
  <path
     style="fill:none;stroke:#000000;stroke-width:5;stroke-opacity:1"
     d = "M 259.7003,236.9778 270.9228,223.5974 277.2808,211.543 279.6332,199.2847 280.1615,185.9939 280.9553,169.9025 281.5415,150.7498 283.7292,128.5453 287.5569,105.2061 294.1503,82.25563 304.0024,61.39928 311.8957,47.94363 "
id = "343" />
  <path
     style="fill:none;stroke:#000000;stroke-width:5;stroke-opacity:1"
     d = "M 261.7584,238.1281 272.9385,225.2443 279.5244,213.3902 282.1359,201.2055 283.0677,187.8712 284.3451,171.8062 285.8284,152.5412 288.9571,129.8537 294.03,105.7678 302.6794,82.8367 314.5512,62.92614 325.6426,47.99684 "
id = "344" />
  <path
     style="fill:none;stroke:#000000;stroke-width:5;stroke-opacity:1"
     d = "M 263.7961,239.3142 275.0243,226.8508 281.8095,215.1937 284.7813,203.0332 286.1938,189.4897 288.0184,173.3463 290.5487,154.1513 294.9549,130.9558 301.8994,106.1758 313.3112,84.07044 327.8537,66.02934 336.0374,57.66799 "
id = "345" />
  <path
     style="fill:none;stroke:#000000;stroke-width:5;stroke-opacity:1"
     d = "M 265.8127,240.5356 277.1412,228.3772 284.0568,216.8949 287.4607,204.827 289.5075,191.115 291.8359,174.9183 295.4193,155.8681 301.0322,132.5257 309.6292,107.685 323.4299,86.73959 336.0466,74.46799 "
id = "346" />
  <path
     style="fill:none;stroke:#000000;stroke-width:5;stroke-opacity:1"
     d = "M 267.8077,241.7921 279.2085,230.0795 286.0961,218.8105 289.9295,206.9385 292.661,193.2576 295.4965,176.9937 300.0621,158.1696 306.8212,135.0235 317.0665,110.4485 331.9797,90.5378 336.0437,86.68575 "
id = "347" />
  <path
     style="fill:none;stroke:#000000;stroke-width:5;stroke-opacity:1"
     d = "M 269.7805,243.0832 281.2754,231.8121 288.1855,220.8219 292.271,209.0986 295.5453,195.6452 298.9585,179.4999 304.351,160.9732 312.2553,138.505 324.0846,114.5267 336.0201,99.23129 "
id = "348" />
  <path
     style="fill:none;stroke:#000000;stroke-width:5;stroke-opacity:1"
     d = "M 271.7304,244.4085 283.4131,233.5844 290.3876,222.8852 294.6246,211.4264 298.319,198.18 302.4191,182.2421 308.526,163.864 317.7234,142.065 330.7903,119.038 336.0054,112.7112 "
id = "349" />
  <path
     style="fill:none;stroke:#000000;stroke-width:5;stroke-opacity:1"
     d = "M 273.6569,245.7676 285.4276,235.4253 292.4378,225.0774 296.8884,214.0112 301.0357,201.1842 305.8242,185.6109 312.5905,167.5881 323.1016,146.4262 336.0287,127.0426 "
id = "350" />
  <path
     style="fill:none;stroke:#000000;stroke-width:5;stroke-opacity:1"
     d = "M 275.5594,247.1601 287.4028,237.2352 294.558,227.1969 299.3437,216.5156 303.9831,203.9099 309.5838,188.5904 317.2782,170.9989 328.9325,150.4914 336.0192,141.6891 "
id = "351" />
  <path
     style="fill:none;stroke:#000000;stroke-width:5;stroke-opacity:1"
     d = "M 277.4373,248.5857 289.4267,239.0169 296.8776,229.2381 302.0716,218.9915 307.1824,206.602 313.5489,191.4527 322.1476,174.431 335.3734,154.8357 336.0566,154.1054 "
id = "352" />
  <path
     style="fill:none;stroke:#000000;stroke-width:5;stroke-opacity:1"
     d = "M 279.29,250.0438 291.3936,240.7179 299.1737,231.229 304.9424,221.385 310.4782,209.4445 317.5333,194.7777 327.0103,178.4139 336.0328,166.9363 "
id = "353" />
  <path
     style="fill:none;stroke:#000000;stroke-width:5;stroke-opacity:1"
     d = "M 281.117,251.534 293.3644,242.4117 301.5229,233.4306 307.7768,224.1005 313.7986,212.6099 321.3317,198.4047 331.926,182.7554 336.0186,178.0989 "
id = "354" />
  <path
     style="fill:none;stroke:#000000;stroke-width:5;stroke-opacity:1"
     d = "M 282.9178,253.0559 295.3354,244.1692 303.8969,235.721 310.7079,226.8944 317.2548,215.8878 325.5031,201.7353 336.0341,188.2637 "
id = "355" />
  <path
     style="fill:none;stroke:#000000;stroke-width:5;stroke-opacity:1"
     d = "M 284.6917,254.609 297.339,245.9018 306.3221,237.8802 313.8123,229.4636 321.2693,218.9001 330.7503,204.9475 336.0585,199.2334 "
id = "356" />
  <path
     style="fill:none;stroke:#000000;stroke-width:5;stroke-opacity:1"
     d = "M 286.4382,256.1928 299.2544,247.6779 308.6252,239.995 316.9385,231.8782 325.4046,221.5775 336.0032,208.4156 "
id = "357" />
  <path
     style="fill:none;stroke:#000000;stroke-width:5;stroke-opacity:1"
     d = "M 288.1568,257.8068 301.0276,249.5983 310.8797,242.2464 320.0155,234.5262 329.6347,224.2439 336.0663,217.3893 "
id = "358" />
  <path
     style="fill:none;stroke:#000000;stroke-width:5;stroke-opacity:1"
     d = "M 289.847,259.4506 302.7823,251.6095 313.2097,244.8063 323.5242,237.6207 334.5593,227.6125 336.0449,226.2731 "
id = "359" />
  <path
     style="fill:none;stroke:#000000;stroke-width:5;stroke-opacity:1"
     d = "M 48,48 336,48 336,720 48,720 48,48 "
id = "360" />
</svg>
