<svg
   width="384"
   height = "768"
   version="1.1"
   id="svg2"
   xmlns="http://www.w3.org/2000/svg"
   xmlns:svg="http://www.w3.org/2000/svg">
  <defs
     id="defs6" />

<rect
   style="fill:#F3F3F3;stroke-width:0;stroke-opacity:0"
   id="Background"
   width="384"
   height="768"
   x="0"
   y="0"
   rx="0" />
  <path
     style="fill:none;stroke:#000000;stroke-width:5;stroke-opacity:1"
     d = "M 197.6496,498.495 199.5811,523.5228 199.6894,546.7821 198.2158,566.1932 194.8082,587.9034 192.4087,612.8822 191.5177,638.1189 188.5443,662.7134 189.3127,687.3021 192.5239,710.8142 194.2279,720.057 "
id = "0" />
  <path
     style="fill:none;stroke:#000000;stroke-width:5;stroke-opacity:1"
     d = "M 195.1287,498.3727 196.6917,523.5714 196.7629,546.8654 194.8206,566.4343 191.0397,588.3267 188.094,613.3171 185.7482,638.8742 181.6917,663.4462 183.133,687.3713 185.9944,710.346 187.1996,720.0718 "
id = "1" />
  <path
     style="fill:none;stroke:#000000;stroke-width:5;stroke-opacity:1"
     d = "M 192.6104,498.2064 193.8154,523.559 193.803,546.8323 191.529,566.6434 187.3378,588.7763 183.9367,613.5983 179.9704,639.3269 175.2803,664.1237 177.2414,687.7772 179.3815,710.5597 180.0005,720.04 "
id = "2" />
  <path
     style="fill:none;stroke:#000000;stroke-width:5;stroke-opacity:1"
     d = "M 190.0953,497.9962 191.0155,523.3829 190.9092,546.6226 188.5392,566.7139 184.0298,589.0487 180.4783,613.9236 175.1917,639.6993 170.3866,664.8256 172.3983,688.4065 173.4902,711.4184 173.4876,720.0163 "
id = "3" />
  <path
     style="fill:none;stroke:#000000;stroke-width:5;stroke-opacity:1"
     d = "M 187.5843,497.7422 188.2451,522.9319 188.1484,546.0587 185.6505,566.4728 181.1549,588.9261 177.2797,613.8052 170.9607,639.6691 166.1603,664.9919 167.8422,688.488 167.8505,711.601 167.381,720.0885 "
id = "4" />
  <path
     style="fill:none;stroke:#000000;stroke-width:5;stroke-opacity:1"
     d = "M 184.2439,497.3353 184.5453,521.9591 184.4254,544.8514 181.8491,565.7244 177.5687,588.182 173.2813,613.199 165.807,638.9999 160.919,664.4924 161.5565,688.0266 160.245,710.6851 158.9288,720.0958 "
id = "5" />
  <path
     style="fill:none;stroke:#000000;stroke-width:5;stroke-opacity:1"
     d = "M 182.5775,497.1028 182.7139,521.3138 182.5427,544.1055 180.0009,565.1541 175.7632,587.5295 171.3261,612.6226 163.3961,638.3594 158.2403,663.8245 158.3538,687.499 156.469,709.9586 154.6885,720.0005 "
id = "6" />
  <path
     style="fill:none;stroke:#000000;stroke-width:5;stroke-opacity:1"
     d = "M 180.0832,496.7176 179.9034,520.434 179.5921,543.1521 176.9553,564.2518 172.6982,586.4476 168.1897,611.7957 159.8582,637.5272 154.4503,662.9872 153.7429,686.7579 151.0817,709.1514 148.6754,720.0889 "
id = "7" />
  <path
     style="fill:none;stroke:#000000;stroke-width:5;stroke-opacity:1"
     d = "M 177.5961,496.289 176.9645,519.8496 176.3115,542.3585 173.5069,563.3929 169.3546,585.5887 164.6375,611.28 156.2725,637.1565 150.9204,662.8203 149.215,686.3167 145.4337,708.5424 142.6483,720.0082 "
id = "8" />
  <path
     style="fill:none;stroke:#000000;stroke-width:5;stroke-opacity:1"
     d = "M 174.2922,495.6502 172.9304,519.0557 171.6676,540.8943 168.5848,561.4749 164.9624,583.9322 159.9793,609.9443 151.9953,636.1779 146.7898,661.9672 143.6678,685.1106 138.4672,706.9832 134.7298,720.0569 "
id = "9" />
  <path
     style="fill:none;stroke:#000000;stroke-width:5;stroke-opacity:1"
     d = "M 171.8245,495.1207 169.7897,518.3661 168.2049,539.7268 164.9644,559.907 161.5927,582.5655 156.8327,608.9645 149.3106,635.679 144.1086,661.3301 139.9174,684.2617 133.819,705.9434 129.1218,720.085 "
id = "10" />
  <path
     style="fill:none;stroke:#000000;stroke-width:5;stroke-opacity:1"
     d = "M 170.1847,494.7438 167.6365,517.8412 165.9111,538.9554 162.5524,558.8964 159.2956,581.6513 154.7762,608.3273 147.4575,635.323 142.2878,660.8959 137.4856,683.717 131.0762,705.2418 125.5625,720.0447 "
id = "11" />
  <path
     style="fill:none;stroke:#000000;stroke-width:5;stroke-opacity:1"
     d = "M 167.7335,494.1427 164.4387,517.1008 162.3669,537.7606 158.7931,557.3281 155.572,580.0032 151.6359,606.9905 144.3356,634.3995 139.1089,659.8072 133.4262,682.3748 126.7726,703.2449 119.9992,720.0259 "
id = "12" />
  <path
     style="fill:none;stroke:#000000;stroke-width:5;stroke-opacity:1"
     d = "M 165.3175,493.5056 161.2742,516.2653 158.5888,536.4594 154.7915,555.669 151.4975,578.0944 148.0984,605.5786 140.7453,633.2341 135.5461,658.3495 128.9837,680.5095 122.232,700.532 114.138,720.017 "
id = "13" />
  <path
     style="fill:none;stroke:#000000;stroke-width:5;stroke-opacity:1"
     d = "M 162.8644,492.8127 157.8343,515.3889 154.368,535.3228 150.1415,554.1415 146.6623,576.3177 143.0087,604.4351 135.9354,632.4263 130.6237,656.8775 123.3116,678.3327 116.7828,697.117 109.3378,716.1942 107.394,720.0286 "
id = "14" />
  <path
     style="fill:none;stroke:#000000;stroke-width:5;stroke-opacity:1"
     d = "M 160.448,492.0842 154.2955,514.5407 149.9864,534.5352 145.1674,553.2586 141.8536,575.2345 137.2937,603.4846 130.4489,631.3954 124.9115,654.9276 117.4655,674.966 110.914,692.2292 104.3222,710.4085 99.3693,720.0062 "
id = "15" />
  <path
     style="fill:none;stroke:#000000;stroke-width:5;stroke-opacity:1"
     d = "M 158.0447,491.3137 150.8332,513.6899 145.6394,533.8594 140.1285,552.395 136.4391,574.3503 131.0279,602.3727 123.9151,629.8738 118.1318,652.4081 110.4154,670.9312 104.5409,686.9142 98.65691,703.6544 90.95138,720.0266 "
id = "16" />
  <path
     style="fill:none;stroke:#000000;stroke-width:5;stroke-opacity:1"
     d = "M 154.8619,490.2212 146.4103,512.8526 139.9069,533.0941 133.7355,551.3177 129.5311,573.4194 123.1476,600.8636 115.6137,627.4689 109.7569,648.6122 102.7202,666.0598 97.73043,680.9013 92.08636,696.2506 85.44373,712.7421 82.45,720.0519 "
id = "17" />
  <path
     style="fill:none;stroke:#000000;stroke-width:5;stroke-opacity:1"
     d = "M 152.492,489.3534 143.1467,512.0718 135.6998,532.3217 129.3367,550.3984 124.3332,572.3715 117.2055,599.2451 108.9195,624.735 102.8847,644.9662 96.3839,661.8731 91.97179,675.7463 87.41525,690.0004 81.20329,705.0293 75.66618,720.0391 "
id = "18" />
  <path
     style="fill:none;stroke:#000000;stroke-width:5;stroke-opacity:1"
     d = "M 150.1375,488.4444 139.9564,511.2907 131.852,531.3282 125.0258,549.3284 118.9863,570.5198 111.3857,596.4597 102.587,621.4639 95.27545,642.5094 89.18396,659.8606 85.60913,673.1927 81.89742,686.5398 76.3817,700.2652 71.04492,715.4001 69.95874,720.0759 "
id = "19" />
  <path
     style="fill:none;stroke:#000000;stroke-width:5;stroke-opacity:1"
     d = "M 147.7993,487.4944 136.6614,510.6691 127.9518,530.5944 120.7046,548.4362 113.9405,568.778 106.0498,593.8553 97.22991,618.6089 89.06708,640.4633 82.78344,658.0492 80.08872,671.4379 76.85848,684.0909 72.14144,697.0318 67.36031,711.565 65.53963,720.0717 "
id = "20" />
  <path
     style="fill:none;stroke:#000000;stroke-width:5;stroke-opacity:1"
     d = "M 145.478,486.5038 133.3278,510.0417 124.1083,529.9282 116.3901,547.591 109.1463,567.2385 100.6008,591.3187 91.32863,615.6816 82.06744,638.0516 75.44695,656.3187 73.43205,669.5496 70.52348,681.6428 66.53653,694.4832 62.48006,709.1462 59.94393,720.0563 "
id = "21" />
  <path
     style="fill:none;stroke:#000000;stroke-width:5;stroke-opacity:1"
     d = "M 143.9403,485.821 131.1797,509.6357 121.5092,529.4916 113.4493,546.9388 105.7568,566.2189 96.81305,589.4425 87.23695,613.4189 77.41184,635.7877 69.76188,654.6931 67.58315,667.9628 64.90929,679.8934 60.96989,692.8999 57.09779,707.9722 54.12389,720.0135 "
id = "22" />
  <path
     style="fill:none;stroke:#000000;stroke-width:5;stroke-opacity:1"
     d = "M 141.6488,484.7632 128.0697,508.912 117.8071,528.8424 109.03,546.0502 100.5317,564.6611 90.7888,586.3847 81.19111,609.5792 70.79418,630.937 60.78722,650.6278 56.92232,664.8588 54.32603,677.9172 50.0816,692.3127 47.987,699.7242 "
id = "23" />
  <path
     style="fill:none;stroke:#000000;stroke-width:5;stroke-opacity:1"
     d = "M 139.3761,483.6657 125.0201,507.9173 114.2616,527.7835 104.5127,544.527 94.92525,562.3604 84.45844,582.6849 75.05305,604.767 63.98132,625.4739 51.55635,643.9075 47.98202,651.8407 "
id = "24" />
  <path
     style="fill:none;stroke:#000000;stroke-width:5;stroke-opacity:1"
     d = "M 137.1229,482.5286 121.9758,506.8694 110.8412,526.4206 100.1457,542.5234 89.3253,559.4521 78.32355,579.1193 68.80366,600.2263 57.01978,619.248 47.99322,628.6029 "
id = "25" />
  <path
     style="fill:none;stroke:#000000;stroke-width:5;stroke-opacity:1"
     d = "M 134.9122,481.3643 119.0728,505.7683 107.5525,524.9419 95.99741,540.3558 83.95901,556.3435 72.63795,575.7084 62.33856,596.4762 49.84815,612.9976 47.93193,614.6028 "
id = "26" />
  <path
     style="fill:none;stroke:#000000;stroke-width:5;stroke-opacity:1"
     d = "M 132.6778,480.1374 116.1638,504.5703 104.1296,523.2476 91.76734,537.9974 78.71582,553.3678 66.70856,572.7571 56.04162,593.7036 47.95861,603.6254 "
id = "27" />
  <path
     style="fill:none;stroke:#000000;stroke-width:5;stroke-opacity:1"
     d = "M 130.4872,478.884 113.3296,503.4431 100.6647,521.7799 87.54118,535.869 73.88448,550.8871 61.38814,570.425 50.79487,591.7491 47.99765,595.273 "
id = "28" />
  <path
     style="fill:none;stroke:#000000;stroke-width:5;stroke-opacity:1"
     d = "M 128.3188,477.5926 110.6816,502.3794 97.4252,520.291 83.50178,533.8383 69.56081,548.7758 57.05312,568.4493 47.98963,587.3934 "
id = "29" />
  <path
     style="fill:none;stroke:#000000;stroke-width:5;stroke-opacity:1"
     d = "M 126.1734,476.2635 108.3757,501.1012 94.69206,518.8281 80.27094,531.8221 66.1636,546.6055 53.97919,566.3054 47.99842,579.1845 "
id = "30" />
  <path
     style="fill:none;stroke:#000000;stroke-width:5;stroke-opacity:1"
     d = "M 124.0514,474.8971 106.3663,499.6191 92.37866,516.9243 77.54325,529.384 63.25452,543.8408 51.32539,563.5507 47.97594,570.9269 "
id = "31" />
  <path
     style="fill:none;stroke:#000000;stroke-width:5;stroke-opacity:1"
     d = "M 121.9536,473.494 104.5657,498.006 90.33298,514.936 75.17163,526.91 60.82462,540.8577 49.06984,560.1121 47.99758,562.4813 "
id = "32" />
  <path
     style="fill:none;stroke:#000000;stroke-width:5;stroke-opacity:1"
     d = "M 119.9012,472.0689 102.9475,496.439 88.43108,513.0647 73.0482,524.6122 58.6465,538.1281 47.99892,555.0592 "
id = "33" />
  <path
     style="fill:none;stroke:#000000;stroke-width:5;stroke-opacity:1"
     d = "M 117.1562,470.0791 100.8597,494.1996 85.8595,510.3994 70.26696,521.3931 55.71159,534.2513 47.97795,545.5565 "
id = "34" />
  <path
     style="fill:none;stroke:#000000;stroke-width:5;stroke-opacity:1"
     d = "M 115.1435,468.5563 99.32408,492.3721 83.93831,508.1971 68.26952,518.7779 53.58435,531.1321 47.9436,538.9016 "
id = "35" />
  <path
     style="fill:none;stroke:#000000;stroke-width:5;stroke-opacity:1"
     d = "M 113.1578,466.9987 97.66853,490.4917 81.92876,505.9882 66.22245,516.2272 51.64693,528.0353 47.98895,532.7924 "
id = "36" />
  <path
     style="fill:none;stroke:#000000;stroke-width:5;stroke-opacity:1"
     d = "M 111.1995,465.4066 95.92111,488.5504 79.87198,503.812 64.10793,513.9925 49.76531,525.2329 47.98092,527.3914 "
id = "37" />
  <path
     style="fill:none;stroke:#000000;stroke-width:5;stroke-opacity:1"
     d = "M 109.2692,463.7806 94.18324,486.4662 77.85296,501.5273 61.96997,511.9205 47.92187,522.5231 "
id = "38" />
  <path
     style="fill:none;stroke:#000000;stroke-width:5;stroke-opacity:1"
     d = "M 107.3677,462.1211 92.50908,484.2503 75.91223,499.2005 59.69802,509.7165 47.95309,518.0485 "
id = "39" />
  <path
     style="fill:none;stroke:#000000;stroke-width:5;stroke-opacity:1"
     d = "M 105.4954,460.4287 90.80332,481.9894 73.94814,496.9785 57.3296,507.5648 47.94129,513.6718 "
id = "40" />
  <path
     style="fill:none;stroke:#000000;stroke-width:5;stroke-opacity:1"
     d = "M 103.6529,458.7039 89.0164,479.6745 71.83955,494.6707 54.78097,505.3253 47.98859,509.3587 "
id = "41" />
  <path
     style="fill:none;stroke:#000000;stroke-width:5;stroke-opacity:1"
     d = "M 101.8408,456.9472 87.15273,477.2746 69.75874,492.2774 52.27836,502.612 47.9706,504.9477 "
id = "42" />
  <path
     style="fill:none;stroke:#000000;stroke-width:5;stroke-opacity:1"
     d = "M 100.6499,455.7586 85.87529,475.6875 68.29539,490.7919 50.69725,500.8332 47.93976,502.2494 "
id = "43" />
  <path
     style="fill:none;stroke:#000000;stroke-width:5;stroke-opacity:1"
     d = "M 98.88966,453.95 83.99792,473.2239 65.88616,488.4498 48.03571,498.0699 47.94464,498.1112 "
id = "44" />
  <path
     style="fill:none;stroke:#000000;stroke-width:5;stroke-opacity:1"
     d = "M 97.16127,452.1108 82.00938,470.6706 63.18039,485.7931 47.95801,493.5843 "
id = "45" />
  <path
     style="fill:none;stroke:#000000;stroke-width:5;stroke-opacity:1"
     d = "M 95.46521,450.2419 79.80287,468.0684 60.20406,482.691 47.95782,488.6053 "
id = "46" />
  <path
     style="fill:none;stroke:#000000;stroke-width:5;stroke-opacity:1"
     d = "M 93.80206,448.3435 77.52592,465.436 56.95758,479.5716 47.95326,483.4386 "
id = "47" />
  <path
     style="fill:none;stroke:#000000;stroke-width:5;stroke-opacity:1"
     d = "M 92.17226,446.4165 75.12967,462.6885 53.77615,476.3197 47.94118,478.4162 "
id = "48" />
  <path
     style="fill:none;stroke:#000000;stroke-width:5;stroke-opacity:1"
     d = "M 90.57637,444.4613 72.70051,460.0052 50.79341,472.9368 47.91579,473.7855 "
id = "49" />
  <path
     style="fill:none;stroke:#000000;stroke-width:5;stroke-opacity:1"
     d = "M 89.01485,442.4785 70.24639,457.1505 47.9493,469.3126 "
id = "50" />
  <path
     style="fill:none;stroke:#000000;stroke-width:5;stroke-opacity:1"
     d = "M 87.48814,440.4688 67.83537,454.1976 47.98465,464.3581 "
id = "51" />
  <path
     style="fill:none;stroke:#000000;stroke-width:5;stroke-opacity:1"
     d = "M 86.01155,438.4532 65.7234,451.4042 47.9846,459.7424 "
id = "52" />
  <path
     style="fill:none;stroke:#000000;stroke-width:5;stroke-opacity:1"
     d = "M 84.54112,436.371 63.71741,448.548 47.99862,455.2798 "
id = "53" />
  <path
     style="fill:none;stroke:#000000;stroke-width:5;stroke-opacity:1"
     d = "M 83.12171,434.2842 61.93961,445.6572 47.90893,451.2377 "
id = "54" />
  <path
     style="fill:none;stroke:#000000;stroke-width:5;stroke-opacity:1"
     d = "M 81.73893,432.1729 60.13654,442.7568 47.94111,447.2597 "
id = "55" />
  <path
     style="fill:none;stroke:#000000;stroke-width:5;stroke-opacity:1"
     d = "M 80.3932,430.0378 58.34262,439.9224 47.94619,443.5143 "
id = "56" />
  <path
     style="fill:none;stroke:#000000;stroke-width:5;stroke-opacity:1"
     d = "M 79.08495,427.8795 56.68321,437.0164 47.92976,439.8493 "
id = "57" />
  <path
     style="fill:none;stroke:#000000;stroke-width:5;stroke-opacity:1"
     d = "M 77.81454,425.6987 55.28831,434.1458 47.92035,436.3828 "
id = "58" />
  <path
     style="fill:none;stroke:#000000;stroke-width:5;stroke-opacity:1"
     d = "M 76.58241,423.4961 53.95029,431.3471 47.98264,433.0292 "
id = "59" />
  <path
     style="fill:none;stroke:#000000;stroke-width:5;stroke-opacity:1"
     d = "M 75.38889,421.2723 52.57206,428.6339 47.92301,429.8277 "
id = "60" />
  <path
     style="fill:none;stroke:#000000;stroke-width:5;stroke-opacity:1"
     d = "M 74.23437,419.028 51.21832,425.9314 47.91292,426.7283 "
id = "61" />
  <path
     style="fill:none;stroke:#000000;stroke-width:5;stroke-opacity:1"
     d = "M 73.11921,416.764 50.03778,423.1503 47.98844,423.6085 "
id = "62" />
  <path
     style="fill:none;stroke:#000000;stroke-width:5;stroke-opacity:1"
     d = "M 72.0437,414.4807 49.00855,420.3748 47.93169,420.5991 "
id = "63" />
  <path
     style="fill:none;stroke:#000000;stroke-width:5;stroke-opacity:1"
     d = "M 71.00823,412.1791 48.18354,417.61 47.987,417.6471 "
id = "64" />
  <path
     style="fill:none;stroke:#000000;stroke-width:5;stroke-opacity:1"
     d = "M 70.01307,409.8598 47.93931,414.7083 "
id = "65" />
  <path
     style="fill:none;stroke:#000000;stroke-width:5;stroke-opacity:1"
     d = "M 69.06796,407.5468 47.98227,411.7461 "
id = "66" />
  <path
     style="fill:none;stroke:#000000;stroke-width:5;stroke-opacity:1"
     d = "M 67.84955,404.3831 47.94884,407.8475 "
id = "67" />
  <path
     style="fill:none;stroke:#000000;stroke-width:5;stroke-opacity:1"
     d = "M 66.99094,402.0098 47.90769,404.8899 "
id = "68" />
  <path
     style="fill:none;stroke:#000000;stroke-width:5;stroke-opacity:1"
     d = "M 66.17388,399.6218 47.92437,401.9746 "
id = "69" />
  <path
     style="fill:none;stroke:#000000;stroke-width:5;stroke-opacity:1"
     d = "M 65.39862,397.2201 47.99769,399.0839 "
id = "70" />
  <path
     style="fill:none;stroke:#000000;stroke-width:5;stroke-opacity:1"
     d = "M 64.66539,394.8051 47.92655,396.2406 "
id = "71" />
  <path
     style="fill:none;stroke:#000000;stroke-width:5;stroke-opacity:1"
     d = "M 63.97442,392.3777 47.90845,393.4193 "
id = "72" />
  <path
     style="fill:none;stroke:#000000;stroke-width:5;stroke-opacity:1"
     d = "M 63.32593,389.9386 47.94085,390.6201 "
id = "73" />
  <path
     style="fill:none;stroke:#000000;stroke-width:5;stroke-opacity:1"
     d = "M 62.72009,387.4886 47.9237,387.8047 "
id = "74" />
  <path
     style="fill:none;stroke:#000000;stroke-width:5;stroke-opacity:1"
     d = "M 62.15711,385.0283 47.95733,384.9547 "
id = "75" />
  <path
     style="fill:none;stroke:#000000;stroke-width:5;stroke-opacity:1"
     d = "M 61.63715,382.5586 47.94311,382.1531 "
id = "76" />
  <path
     style="fill:none;stroke:#000000;stroke-width:5;stroke-opacity:1"
     d = "M 61.16037,380.0803 47.97517,379.4559 "
id = "77" />
  <path
     style="fill:none;stroke:#000000;stroke-width:5;stroke-opacity:1"
     d = "M 60.72692,377.5939 47.95446,376.7541 "
id = "78" />
  <path
     style="fill:none;stroke:#000000;stroke-width:5;stroke-opacity:1"
     d = "M 60.33693,375.1004 47.97685,374.1052 "
id = "79" />
  <path
     style="fill:none;stroke:#000000;stroke-width:5;stroke-opacity:1"
     d = "M 59.99052,372.6005 47.94009,371.5075 "
id = "80" />
  <path
     style="fill:none;stroke:#000000;stroke-width:5;stroke-opacity:1"
     d = "M 59.68778,370.0949 47.94693,368.9137 "
id = "81" />
  <path
     style="fill:none;stroke:#000000;stroke-width:5;stroke-opacity:1"
     d = "M 59.42882,367.5844 47.99919,366.3139 "
id = "82" />
  <path
     style="fill:none;stroke:#000000;stroke-width:5;stroke-opacity:1"
     d = "M 59.21372,365.0697 47.90348,363.6433 "
id = "83" />
  <path
     style="fill:none;stroke:#000000;stroke-width:5;stroke-opacity:1"
     d = "M 59.04253,362.5517 47.95251,360.9863 "
id = "84" />
  <path
     style="fill:none;stroke:#000000;stroke-width:5;stroke-opacity:1"
     d = "M 58.91531,360.0311 47.94421,358.3441 "
id = "85" />
  <path
     style="fill:none;stroke:#000000;stroke-width:5;stroke-opacity:1"
     d = "M 58.85496,358.3496 47.98983,356.6309 "
id = "86" />
  <path
     style="fill:none;stroke:#000000;stroke-width:5;stroke-opacity:1"
     d = "M 58.80111,355.8264 47.95528,353.9901 "
id = "87" />
  <path
     style="fill:none;stroke:#000000;stroke-width:5;stroke-opacity:1"
     d = "M 58.79131,353.3026 47.97527,351.2985 "
id = "88" />
  <path
     style="fill:none;stroke:#000000;stroke-width:5;stroke-opacity:1"
     d = "M 58.82555,350.779 47.9675,348.4721 "
id = "89" />
  <path
     style="fill:none;stroke:#000000;stroke-width:5;stroke-opacity:1"
     d = "M 58.90384,348.2563 47.92773,345.57 "
id = "90" />
  <path
     style="fill:none;stroke:#000000;stroke-width:5;stroke-opacity:1"
     d = "M 59.02613,345.7355 47.94131,342.6717 "
id = "91" />
  <path
     style="fill:none;stroke:#000000;stroke-width:5;stroke-opacity:1"
     d = "M 59.19241,343.2172 47.91249,339.7529 "
id = "92" />
  <path
     style="fill:none;stroke:#000000;stroke-width:5;stroke-opacity:1"
     d = "M 59.4026,340.7021 47.961,336.7658 "
id = "93" />
  <path
     style="fill:none;stroke:#000000;stroke-width:5;stroke-opacity:1"
     d = "M 59.65666,338.1911 47.92155,333.6038 "
id = "94" />
  <path
     style="fill:none;stroke:#000000;stroke-width:5;stroke-opacity:1"
     d = "M 59.95451,335.6849 47.97209,330.3918 "
id = "95" />
  <path
     style="fill:none;stroke:#000000;stroke-width:5;stroke-opacity:1"
     d = "M 60.29604,333.1843 47.91445,327.0904 "
id = "96" />
  <path
     style="fill:none;stroke:#000000;stroke-width:5;stroke-opacity:1"
     d = "M 60.68118,330.69 47.93703,323.7737 "
id = "97" />
  <path
     style="fill:none;stroke:#000000;stroke-width:5;stroke-opacity:1"
     d = "M 61.10978,328.2029 47.96951,320.3633 "
id = "98" />
  <path
     style="fill:none;stroke:#000000;stroke-width:5;stroke-opacity:1"
     d = "M 61.58172,325.7235 47.96265,316.9532 "
id = "99" />
  <path
     style="fill:none;stroke:#000000;stroke-width:5;stroke-opacity:1"
     d = "M 62.09686,323.2529 47.93827,313.4897 "
id = "100" />
  <path
     style="fill:none;stroke:#000000;stroke-width:5;stroke-opacity:1"
     d = "M 62.65504,320.7915 48.50012,310.3161 47.94052,309.7443 "
id = "101" />
  <path
     style="fill:none;stroke:#000000;stroke-width:5;stroke-opacity:1"
     d = "M 63.25609,318.3403 49.77982,307.5872 47.93958,305.6113 "
id = "102" />
  <path
     style="fill:none;stroke:#000000;stroke-width:5;stroke-opacity:1"
     d = "M 63.89983,315.9 50.93095,304.8742 47.99548,301.5965 "
id = "103" />
  <path
     style="fill:none;stroke:#000000;stroke-width:5;stroke-opacity:1"
     d = "M 64.57906,313.4955 52.01412,302.4339 47.95543,297.8805 "
id = "104" />
  <path
     style="fill:none;stroke:#000000;stroke-width:5;stroke-opacity:1"
     d = "M 65.31457,311.0548 52.97803,300.2528 47.94349,294.6933 "
id = "105" />
  <path
     style="fill:none;stroke:#000000;stroke-width:5;stroke-opacity:1"
     d = "M 66.08515,308.6515 53.97493,298.2205 47.94219,291.8128 "
id = "106" />
  <path
     style="fill:none;stroke:#000000;stroke-width:5;stroke-opacity:1"
     d = "M 66.89755,306.262 54.73846,296.1631 47.95478,289.2303 "
id = "107" />
  <path
     style="fill:none;stroke:#000000;stroke-width:5;stroke-opacity:1"
     d = "M 67.75154,303.8871 55.45036,294.1058 47.94579,286.7615 "
id = "108" />
  <path
     style="fill:none;stroke:#000000;stroke-width:5;stroke-opacity:1"
     d = "M 68.64684,301.5274 56.07154,292.0281 47.94716,284.4639 "
id = "109" />
  <path
     style="fill:none;stroke:#000000;stroke-width:5;stroke-opacity:1"
     d = "M 69.58318,299.1837 56.6894,289.8828 47.99197,282.208 "
id = "110" />
  <path
     style="fill:none;stroke:#000000;stroke-width:5;stroke-opacity:1"
     d = "M 70.56029,296.8567 57.26703,287.6056 47.95699,279.877 "
id = "111" />
  <path
     style="fill:none;stroke:#000000;stroke-width:5;stroke-opacity:1"
     d = "M 71.57785,294.5471 57.80664,285.3569 47.92705,277.7008 "
id = "112" />
  <path
     style="fill:none;stroke:#000000;stroke-width:5;stroke-opacity:1"
     d = "M 72.63558,292.2556 58.35072,283.0782 47.98695,275.5665 "
id = "113" />
  <path
     style="fill:none;stroke:#000000;stroke-width:5;stroke-opacity:1"
     d = "M 73.73313,289.9829 58.92757,280.6631 47.99118,273.2712 "
id = "114" />
  <path
     style="fill:none;stroke:#000000;stroke-width:5;stroke-opacity:1"
     d = "M 74.87019,287.7297 59.67643,278.1738 47.96018,270.6953 "
id = "115" />
  <path
     style="fill:none;stroke:#000000;stroke-width:5;stroke-opacity:1"
     d = "M 76.04638,285.4967 60.56465,275.8629 47.9526,268.1169 "
id = "116" />
  <path
     style="fill:none;stroke:#000000;stroke-width:5;stroke-opacity:1"
     d = "M 77.26137,283.2846 61.47115,273.7071 47.92135,265.5824 "
id = "117" />
  <path
     style="fill:none;stroke:#000000;stroke-width:5;stroke-opacity:1"
     d = "M 78.51479,281.094 62.59519,271.503 47.95337,262.6681 "
id = "118" />
  <path
     style="fill:none;stroke:#000000;stroke-width:5;stroke-opacity:1"
     d = "M 79.80624,278.9257 63.93938,269.1676 47.98891,259.409 "
id = "119" />
  <path
     style="fill:none;stroke:#000000;stroke-width:5;stroke-opacity:1"
     d = "M 81.13535,276.7802 65.51984,266.687 49.42714,256.522 47.9963,255.6041 "
id = "120" />
  <path
     style="fill:none;stroke:#000000;stroke-width:5;stroke-opacity:1"
     d = "M 82.50168,274.6582 67.30247,264.1767 51.36935,253.6165 47.93115,251.383 "
id = "121" />
  <path
     style="fill:none;stroke:#000000;stroke-width:5;stroke-opacity:1"
     d = "M 83.90484,272.5604 69.28358,261.6954 53.92108,250.6762 47.98929,246.5958 "
id = "122" />
  <path
     style="fill:none;stroke:#000000;stroke-width:5;stroke-opacity:1"
     d = "M 85.34441,270.4874 71.71906,259.1766 57.17579,247.5504 47.9497,240.6858 "
id = "123" />
  <path
     style="fill:none;stroke:#000000;stroke-width:5;stroke-opacity:1"
     d = "M 86.81994,268.4398 74.23768,256.5422 60.79177,244.1728 47.98825,233.4499 "
id = "124" />
  <path
     style="fill:none;stroke:#000000;stroke-width:5;stroke-opacity:1"
     d = "M 88.33098,266.4183 76.79793,253.865 64.9845,240.9598 51.9413,228.2676 47.92834,224.6545 "
id = "125" />
  <path
     style="fill:none;stroke:#000000;stroke-width:5;stroke-opacity:1"
     d = "M 89.87706,264.4235 79.58348,251.167 69.67549,237.5912 58.23915,224.0644 47.95297,214.7151 "
id = "126" />
  <path
     style="fill:none;stroke:#000000;stroke-width:5;stroke-opacity:1"
     d = "M 91.45773,262.4559 82.50195,248.2907 74.47853,233.768 64.37946,218.9534 49.50124,204.4912 47.99237,203.3364 "
id = "127" />
  <path
     style="fill:none;stroke:#000000;stroke-width:5;stroke-opacity:1"
     d = "M 93.07249,260.5163 85.39299,245.4409 79.0184,229.7156 69.77468,213.6373 55.50357,198.7423 47.9911,192.9281 "
id = "128" />
  <path
     style="fill:none;stroke:#000000;stroke-width:5;stroke-opacity:1"
     d = "M 94.72085,258.6051 88.38623,242.7691 83.36704,225.9221 74.83409,209.1537 60.25207,193.9697 47.92358,183.772 "
id = "129" />
  <path
     style="fill:none;stroke:#000000;stroke-width:5;stroke-opacity:1"
     d = "M 96.40233,256.723 91.17724,240.271 87.18793,222.5896 78.89442,205.4302 64.14592,190.1807 49.87865,177.1715 47.93993,175.4389 "
id = "130" />
  <path
     style="fill:none;stroke:#000000;stroke-width:5;stroke-opacity:1"
     d = "M 98.11639,254.8705 93.83541,237.8349 90.59219,219.6195 82.11653,202.1563 67.68723,187.2474 54.03654,173.3481 47.97412,167.1088 "
id = "131" />
  <path
     style="fill:none;stroke:#000000;stroke-width:5;stroke-opacity:1"
     d = "M 99.84496,253.0663 96.38445,235.5588 93.44611,216.9023 84.61069,199.2153 70.31382,184.4926 57.09585,169.7733 47.95743,159.5656 "
id = "132" />
  <path
     style="fill:none;stroke:#000000;stroke-width:5;stroke-opacity:1"
     d = "M 101.6402,251.2567 98.83264,233.5679 95.96451,214.644 86.76238,196.752 72.43724,181.9967 59.67792,166.5198 47.95979,152.4631 "
id = "133" />
  <path
     style="fill:none;stroke:#000000;stroke-width:5;stroke-opacity:1"
     d = "M 104.0585,248.9168 101.9462,230.9482 98.9175,211.8006 89.29716,193.745 75.04707,178.5116 62.63606,162.1061 50.13683,145.8663 47.99994,143.3517 "
id = "134" />
  <path
     style="fill:none;stroke:#000000;stroke-width:5;stroke-opacity:1"
     d = "M 105.9077,247.1991 104.1891,229.1526 100.967,209.8532 91.33924,191.9045 77.11333,176.1743 64.8311,159.212 53.30897,142.5931 47.96841,135.8521 "
id = "135" />
  <path
     style="fill:none;stroke:#000000;stroke-width:5;stroke-opacity:1"
     d = "M 107.7865,245.514 106.2806,227.4408 102.8301,208.1019 93.17199,190.2496 78.9875,174.0257 67.05966,156.5909 56.59126,139.2887 47.99577,127.9848 "
id = "136" />
  <path
     style="fill:none;stroke:#000000;stroke-width:5;stroke-opacity:1"
     d = "M 109.6945,243.8618 108.2871,225.6387 104.5841,206.271 94.93295,188.4213 80.82021,171.6787 69.36484,153.7175 59.4617,135.7017 47.95115,119.8382 "
id = "137" />
  <path
     style="fill:none;stroke:#000000;stroke-width:5;stroke-opacity:1"
     d = "M 111.631,242.2433 110.2997,223.8999 106.5008,204.5493 97.07597,186.6685 83.11499,169.4027 72.16282,150.86 62.6879,132.6755 51.40135,115.2222 47.97907,109.4623 "
id = "138" />
  <path
     style="fill:none;stroke:#000000;stroke-width:5;stroke-opacity:1"
     d = "M 113.5954,240.6588 112.2455,222.3806 108.496,203.0925 99.37899,185.1428 85.36568,167.3699 74.93482,148.2901 66.03323,130.2228 56.13684,112.5357 47.97731,97.28043 "
id = "139" />
  <path
     style="fill:none;stroke:#000000;stroke-width:5;stroke-opacity:1"
     d = "M 115.5872,239.1089 114.1721,220.9233 110.4514,201.6881 101.7197,183.4618 87.89466,165.212 77.75204,145.6315 69.45273,127.7461 60.47076,110.172 51.16424,91.40041 47.97631,84.50154 "
id = "140" />
  <path
     style="fill:none;stroke:#000000;stroke-width:5;stroke-opacity:1"
     d = "M 117.6057,237.5939 116.1416,219.6906 112.5941,200.4476 104.3109,181.834 90.83556,163.1569 80.94795,143.2809 73.3984,125.5715 65.19567,108.2975 56.63179,89.19501 48.35173,69.93132 47.99422,68.68143 "
id = "141" />
  <path
     style="fill:none;stroke:#000000;stroke-width:5;stroke-opacity:1"
     d = "M 119.6505,236.1143 117.9736,218.4618 114.7176,199.1846 106.8857,180.1871 93.75399,161.2418 84.09481,141.071 77.20678,123.5851 69.74807,106.687 61.82346,87.68818 53.6724,68.01506 47.97379,49.99494 "
id = "142" />
  <path
     style="fill:none;stroke:#000000;stroke-width:5;stroke-opacity:1"
     d = "M 121.7206,234.6707 119.7552,217.1467 116.758,197.7477 109.3603,178.2876 96.40936,159.003 87.06111,138.8343 80.7925,121.5242 73.87132,104.9456 66.46931,86.15157 58.3396,66.03073 52.08523,47.98378 "
id = "143" />
  <path
     style="fill:none;stroke:#000000;stroke-width:5;stroke-opacity:1"
     d = "M 123.8157,233.2635 121.366,215.843 118.5445,196.1742 111.3336,176.4086 98.55558,156.6676 89.70828,136.6415 84.00665,119.5344 77.34065,103.3937 70.35248,84.69585 62.38216,64.27101 56.37117,47.94258 "
id = "144" />
  <path
     style="fill:none;stroke:#000000;stroke-width:5;stroke-opacity:1"
     d = "M 125.935,231.893 122.9884,214.5918 120.3626,194.661 113.2841,174.6185 100.7185,154.5211 92.5516,134.7704 87.44221,117.9698 81.01677,102.2984 74.37494,83.84219 66.83339,63.26858 60.88884,47.98367 "
id = "145" />
  <path
     style="fill:none;stroke:#000000;stroke-width:5;stroke-opacity:1"
     d = "M 128.0779,230.5598 125.0918,213.249 122.7289,193.0575 115.8855,172.5746 103.5555,152.1913 96.02746,132.6073 91.36417,116.4173 85.01334,101.3668 78.58909,83.32191 71.57732,62.47218 65.65652,47.93131 "
id = "146" />
  <path
     style="fill:none;stroke:#000000;stroke-width:5;stroke-opacity:1"
     d = "M 130.2438,229.264 127.1451,211.9243 125.1173,191.5034 118.5558,170.3974 106.3075,149.783 99.50131,130.4663 95.16106,115.407 89.05642,101.1388 82.94637,83.68416 76.51151,62.59295 70.64702,47.92149 "
id = "147" />
  <path
     style="fill:none;stroke:#000000;stroke-width:5;stroke-opacity:1"
     d = "M 132.4319,228.0064 129.241,210.4793 127.3878,189.8264 121.0951,168.1693 108.9575,147.3018 102.7529,128.547 98.65804,114.411 92.73048,100.9488 86.76678,84.09265 80.75928,62.99367 74.74138,47.95325 "
id = "148" />
  <path
     style="fill:none;stroke:#000000;stroke-width:5;stroke-opacity:1"
     d = "M 133.8806,227.2014 130.6092,209.442 128.9644,188.6586 122.8465,166.7402 110.741,145.765 104.8525,127.3248 100.7106,113.7381 94.87435,100.5415 88.9629,83.93497 83.20367,62.87496 77.35772,47.98116 "
id = "149" />
  <path
     style="fill:none;stroke:#000000;stroke-width:5;stroke-opacity:1"
     d = "M 136.8723,225.6065 133.5191,207.2649 132.3241,186.2241 126.3727,163.8479 114.4263,143.0122 108.9316,125.408 104.8013,112.3161 98.95274,99.61203 93.13255,83.35102 87.56916,62.41771 82.28316,47.95319 "
id = "150" />
  <path
     style="fill:none;stroke:#000000;stroke-width:5;stroke-opacity:1"
     d = "M 139.1233,224.465 135.8896,205.6077 134.936,184.2719 128.6926,161.3044 117.0418,140.6134 111.952,123.9874 107.8828,111.013 101.9642,98.63332 96.24282,82.66164 90.82544,61.94118 86.0864,47.92052 "
id = "151" />
  <path
     style="fill:none;stroke:#000000;stroke-width:5;stroke-opacity:1"
     d = "M 141.3938,223.3631 138.3816,203.9907 137.5874,182.4177 131.1347,159.1717 119.7362,138.5876 115.0055,122.572 110.812,109.6542 104.7586,97.47427 99.08775,81.73029 93.83344,61.13316 89.69045,47.96982 "
id = "152" />
  <path
     style="fill:none;stroke:#000000;stroke-width:5;stroke-opacity:1"
     d = "M 143.6833,222.3009 140.8537,202.5839 140.2757,180.7908 133.8126,157.489 122.4527,137.083 117.958,121.5004 113.6337,108.7568 107.6384,96.72828 102.0857,81.219 96.89917,60.80429 93.13185,47.9448 "
id = "153" />
  <path
     style="fill:none;stroke:#000000;stroke-width:5;stroke-opacity:1"
     d = "M 145.9909,221.2788 143.3121,201.2413 142.8949,179.0771 136.1929,155.7892 125.1085,135.6266 120.7902,120.4471 116.3247,108.0118 110.3076,95.92745 104.8437,80.53023 99.78014,60.27186 96.45983,47.91004 "
id = "154" />
  <path
     style="fill:none;stroke:#000000;stroke-width:5;stroke-opacity:1"
     d = "M 148.3159,220.2972 145.8304,199.9494 145.4895,177.3755 138.4625,154.1292 127.9092,134.2197 123.8682,119.3489 119.4837,107.2246 113.4127,95.06085 107.9284,79.59525 103.1492,59.64727 100.2872,47.99353 "
id = "155" />
  <path
     style="fill:none;stroke:#000000;stroke-width:5;stroke-opacity:1"
     d = "M 150.6579,219.3562 148.4552,198.7012 148.3504,175.6808 141.2483,152.4695 131.2932,132.8565 127.3958,118.1466 123.3176,105.9773 117.4006,93.40224 111.7433,77.5956 107.3362,57.62947 105.1662,47.97018 "
id = "156" />
  <path
     style="fill:none;stroke:#000000;stroke-width:5;stroke-opacity:1"
     d = "M 153.0158,218.4564 151.1765,197.4612 151.0419,174.2618 144.0777,151.0793 134.7646,131.7285 130.8693,116.8405 127.4558,104.1563 121.7102,90.7209 116.0128,74.51015 112.1979,54.37085 110.9095,47.99989 "
id = "157" />
  <path
     style="fill:none;stroke:#000000;stroke-width:5;stroke-opacity:1"
     d = "M 155.3891,217.5977 153.9778,196.3647 153.8915,173.0349 147.1752,149.8401 138.2129,130.8535 134.8263,115.5249 132.1677,101.9068 126.9461,86.81026 121.56,69.8974 118.1692,50.10991 117.7882,47.94318 "
id = "158" />
  <path
     style="fill:none;stroke:#000000;stroke-width:5;stroke-opacity:1"
     d = "M 157.7769,216.7807 156.8826,195.4425 156.9201,172.3465 150.5893,149.1893 141.7817,130.0749 139.1002,114.1917 137.1986,99.24193 133.1167,82.50035 128.4707,64.44131 125.3253,47.93831 "
id = "159" />
  <path
     style="fill:none;stroke:#000000;stroke-width:5;stroke-opacity:1"
     d = "M 160.1787,216.0054 159.8391,194.5239 160.237,171.6411 154.0715,148.5834 145.4775,129.2252 143.4873,112.8836 142.7508,96.50282 139.9585,78.07331 135.5217,58.41756 133.901,47.94227 "
id = "160" />
  <path
     style="fill:none;stroke:#000000;stroke-width:5;stroke-opacity:1"
     d = "M 162.5938,215.2722 162.8083,193.5952 163.688,171 157.6028,148.1503 149.1791,128.6957 147.571,111.7903 147.4901,93.6707 145.242,73.45686 141.8764,53.37897 141.3058,47.90864 "
id = "161" />
  <path
     style="fill:none;stroke:#000000;stroke-width:5;stroke-opacity:1"
     d = "M 165.0211,214.5812 165.6488,192.7542 166.9681,170.4892 160.9961,147.7076 152.5903,128.3278 151.0467,110.735 151.4759,91.17062 149.7295,69.70457 147.1522,49.38408 147.056,47.98741 "
id = "162" />
  <path
     style="fill:none;stroke:#000000;stroke-width:5;stroke-opacity:1"
     d = "M 167.4602,213.9327 168.4023,192.1278 170.102,170.1295 164.5326,147.447 155.8946,127.8627 154.3645,109.9205 155.2229,88.97282 153.7792,66.53558 152.0957,47.91148 "
id = "163" />
  <path
     style="fill:none;stroke:#000000;stroke-width:5;stroke-opacity:1"
     d = "M 169.9102,213.3269 171.2607,191.5771 173.2285,169.714 168.0016,147.1117 159.0093,127.1483 157.4931,108.7183 158.4779,86.70157 157.3123,63.2812 156.3465,47.9114 "
id = "164" />
  <path
     style="fill:none;stroke:#000000;stroke-width:5;stroke-opacity:1"
     d = "M 172.3705,212.7639 174.1919,191.0115 176.3421,169.2131 171.4117,146.6416 161.8277,126.4302 160.2688,107.4222 161.3388,84.67273 160.5011,60.5755 160.1646,47.98001 "
id = "165" />
  <path
     style="fill:none;stroke:#000000;stroke-width:5;stroke-opacity:1"
     d = "M 174.8402,212.244 177.1228,190.5561 179.5222,168.8273 175.0071,146.0704 164.8762,125.8811 162.7426,106.2389 163.939,82.85208 163.3712,58.66728 163.4039,47.96745 "
id = "166" />
  <path
     style="fill:none;stroke:#000000;stroke-width:5;stroke-opacity:1"
     d = "M 177.3186,211.7672 180.007,190.0462 182.6576,168.2114 178.6748,145.0225 167.9758,125.1066 165.2041,104.7578 166.6413,80.84249 166.3958,56.95491 166.529,47.95573 "
id = "167" />
  <path
     style="fill:none;stroke:#000000;stroke-width:5;stroke-opacity:1"
     d = "M 179.8049,211.3337 182.8455,189.4647 185.6974,167.4193 182.2687,143.8424 171.1094,124.0999 167.9751,103.1729 169.6569,78.90967 169.7002,55.43822 169.8742,47.94034 "
id = "168" />
  <path
     style="fill:none;stroke:#000000;stroke-width:5;stroke-opacity:1"
     d = "M 182.2984,210.9437 185.6395,188.8942 188.5697,166.5858 185.5052,142.6989 174.203,122.8073 170.9559,101.6776 172.7751,77.34641 172.9644,53.87491 173.1435,47.9777 "
id = "169" />
  <path
     style="fill:none;stroke:#000000;stroke-width:5;stroke-opacity:1"
     d = "M 184.7984,210.5973 188.4637,188.4074 191.5689,165.7426 188.766,141.5824 177.8434,121.6212 174.2689,100.4221 176.1496,76.32572 176.3932,53.01951 176.4609,47.91998 "
id = "170" />
  <path
     style="fill:none;stroke:#000000;stroke-width:5;stroke-opacity:1"
     d = "M 186.4682,210.3906 190.3494,188.0973 193.6467,165.1209 191.0293,140.7118 180.5066,120.8265 176.4996,99.73875 178.3021,75.89908 178.5339,52.91656 178.5491,47.91664 "
id = "171" />
  <path
     style="fill:none;stroke:#000000;stroke-width:5;stroke-opacity:1"
     d = "M 188.9771,210.1171 193.2345,187.7251 196.8194,164.3016 194.5648,139.4218 184.8542,119.5606 180.404,99.07777 182.0102,75.95287 182.3664,53.47115 182.342,47.97123 "
id = "172" />
  <path
     style="fill:none;stroke:#000000;stroke-width:5;stroke-opacity:1"
     d = "M 191.4904,209.8874 196.114,187.4301 199.8753,163.6295 197.8967,138.5102 189.0712,118.4239 184.6458,98.88768 185.9413,76.87923 186.5192,55.04462 186.5029,47.94473 "
id = "173" />
  <path
     style="fill:none;stroke:#000000;stroke-width:5;stroke-opacity:1"
     d = "M 194.0075,209.7015 198.9036,187.2415 202.8516,163.3111 201.439,138.1046 193.9525,117.8218 189.4126,99.53477 190.353,78.91328 191.0391,57.87079 190.9273,47.97132 "
id = "174" />
  <path
     style="fill:none;stroke:#000000;stroke-width:5;stroke-opacity:1"
     d = "M 196.5273,209.5596 201.5574,187.0607 205.5956,163.246 205.0081,137.9981 199.1157,117.1766 194.8229,99.79207 195.5452,80.93985 196.1215,61.16455 195.7992,47.96828 "
id = "175" />
  <path
     style="fill:none;stroke:#000000;stroke-width:5;stroke-opacity:1"
     d = "M 199.0492,209.4618 204.071,186.7652 208.1164,162.9808 208.4033,137.6339 204.0293,116.4016 200.4778,99.48047 200.9319,82.52682 201.3415,64.12582 200.3725,47.9545 "
id = "176" />
  <path
     style="fill:none;stroke:#000000;stroke-width:5;stroke-opacity:1"
     d = "M 201.5724,209.4079 206.6761,186.4732 210.6843,162.7724 211.8352,137.331 208.4557,115.7831 205.9641,98.74237 206.2023,82.83132 206.6077,65.54874 205.2837,47.99869 "
id = "177" />
  <path
     style="fill:none;stroke:#000000;stroke-width:5;stroke-opacity:1"
     d = "M 204.0962,209.3981 209.299,186.2636 213.2091,162.6999 215.183,137.2403 212.6521,115.1352 210.8118,97.68888 211.0155,82.16188 210.9383,65.30414 209.4435,47.96874 "
id = "178" />
  <path
     style="fill:none;stroke:#000000;stroke-width:5;stroke-opacity:1"
     d = "M 206.6199,209.4324 212.0778,186.3377 216.006,162.9984 218.8833,137.8388 217.6396,114.7226 216.0877,96.75395 216.2847,80.99693 215.6189,64.20919 214.0619,47.98344 "
id = "179" />
  <path
     style="fill:none;stroke:#000000;stroke-width:5;stroke-opacity:1"
     d = "M 209.1425,209.5107 214.8843,186.5409 218.7776,163.5622 222.3574,138.7039 222.6498,114.7838 221.298,95.949 221.1737,79.52783 220.2553,62.40285 218.6202,47.99544 "
id = "180" />
  <path
     style="fill:none;stroke:#000000;stroke-width:5;stroke-opacity:1"
     d = "M 211.6633,209.6329 217.6427,186.8819 221.4665,164.2868 225.3188,140.0629 227.0079,115.6997 225.5467,95.51083 225.0742,78.14857 223.9761,60.54855 222.4762,47.9374 "
id = "181" />
  <path
     style="fill:none;stroke:#000000;stroke-width:5;stroke-opacity:1"
     d = "M 214.1816,209.7992 220.3536,187.2759 224.0903,165.1261 228.1237,141.6348 231.1562,116.9798 229.6333,95.65614 228.8732,77.28376 227.8207,59.17327 226.5706,47.94284 "
id = "182" />
  <path
     style="fill:none;stroke:#000000;stroke-width:5;stroke-opacity:1"
     d = "M 216.6967,210.0094 223.1125,187.6561 226.8155,166.0336 231.0441,143.2418 234.9739,118.7578 233.4664,96.83128 232.4554,77.58482 231.6731,58.9304 230.7801,47.96666 "
id = "183" />
  <path
     style="fill:none;stroke:#000000;stroke-width:5;stroke-opacity:1"
     d = "M 219.2077,210.2635 225.8795,188.1235 229.4598,167.1535 233.7038,145.1035 238.2478,121.1383 237.0806,98.81528 235.7715,78.83437 235.4456,59.77971 234.8875,47.99295 "
id = "184" />
  <path
     style="fill:none;stroke:#000000;stroke-width:5;stroke-opacity:1"
     d = "M 221.7139,210.5613 228.6126,188.7926 232.1307,168.3343 236.2847,147.14 241.2467,124.1377 240.7809,101.8736 239.009,81.27087 239.3463,61.6372 238.8216,47.94734 "
id = "185" />
  <path
     style="fill:none;stroke:#000000;stroke-width:5;stroke-opacity:1"
     d = "M 224.2145,210.9028 231.389,189.5231 234.9663,169.6149 238.9857,149.3341 244.2233,127.4755 244.8015,105.5338 242.5662,84.43134 243.382,64.35602 243.0192,47.96002 "
id = "186" />
  <path
     style="fill:none;stroke:#000000;stroke-width:5;stroke-opacity:1"
     d = "M 226.7088,211.288 234.3305,190.2185 238.0188,170.699 242.0767,151.3987 247.5574,130.7831 249.449,109.5057 247.5134,88.36819 247.7071,67.8851 248.2111,47.99148 "
id = "187" />
  <path
     style="fill:none;stroke:#000000;stroke-width:5;stroke-opacity:1"
     d = "M 229.196,211.7166 237.2672,190.7719 241.1245,171.4981 245.1567,153.0501 250.8102,133.6433 253.5963,113.4752 252.2059,92.40002 252.0461,71.83054 253.5988,51.34834 253.4463,47.95177 "
id = "188" />
  <path
     style="fill:none;stroke:#000000;stroke-width:5;stroke-opacity:1"
     d = "M 231.6753,212.1885 240.258,191.3242 244.2088,172.1316 248.0901,154.5005 253.8641,136.2051 257.4418,117.0796 256.8379,96.57032 256.5111,76.01661 258.9965,55.51653 258.6671,47.92361 "
id = "189" />
  <path
     style="fill:none;stroke:#000000;stroke-width:5;stroke-opacity:1"
     d = "M 234.146,212.7037 243.2229,191.7981 247.213,172.6689 250.8372,155.7629 256.4907,138.6262 260.7501,120.4558 260.8432,101.1421 260.4162,81.03028 263.4537,61.14375 263.2603,47.94495 "
id = "190" />
  <path
     style="fill:none;stroke:#000000;stroke-width:5;stroke-opacity:1"
     d = "M 236.6073,213.2618 246.1234,192.0666 250.1823,173.0772 253.5822,156.8358 259.0124,140.9156 263.8568,123.834 265.013,105.6179 264.6558,85.99188 268.0443,67.13525 269.8425,48.25777 269.8196,47.95865 "
id = "191" />
  <path
     style="fill:none;stroke:#000000;stroke-width:5;stroke-opacity:1"
     d = "M 239.0585,213.8629 249.0366,192.3924 253.3006,173.5221 256.5263,157.9722 261.5747,143.1378 266.8085,127.09 269.0473,109.8652 269.3594,91.44711 273.5361,73.39826 277.1282,55.96315 276.7425,47.97243 "
id = "192" />
  <path
     style="fill:none;stroke:#000000;stroke-width:5;stroke-opacity:1"
     d = "M 241.4989,214.5067 251.9359,192.6918 256.369,174.0592 259.7462,158.9962 264.6872,144.9348 270.1197,129.8106 273.2866,113.3587 274.5861,96.3362 279.7289,79.42944 285.2006,63.0605 286.7685,47.94133 "
id = "193" />
  <path
     style="fill:none;stroke:#000000;stroke-width:5;stroke-opacity:1"
     d = "M 243.9276,215.1929 254.7631,192.9945 259.3953,174.4803 263.1975,159.7195 268.2178,145.9376 273.9469,131.4128 277.8552,115.3941 280.8034,99.21658 287.0529,83.85782 294.9492,69.19971 298.9274,55.66049 299.6559,47.99498 "
id = "194" />
  <path
     style="fill:none;stroke:#000000;stroke-width:5;stroke-opacity:1"
     d = "M 246.344,215.9214 257.4618,193.1448 262.5432,174.7401 266.8163,160.3704 271.99,146.7442 277.9086,132.3013 282.5482,116.327 287.1832,100.8384 294.6085,86.58233 304.1877,74.11594 310.9936,61.00964 314.2401,47.90587 "
id = "195" />
  <path
     style="fill:none;stroke:#000000;stroke-width:5;stroke-opacity:1"
     d = "M 248.7473,216.692 260.1494,193.3935 265.7295,174.9716 270.496,160.7574 275.8858,147.2603 281.9843,132.6759 287.5475,116.8742 293.3902,102.2332 301.6588,88.94743 311.6718,76.3726 319.9635,61.76679 323.4809,47.90559 "
id = "196" />
  <path
     style="fill:none;stroke:#000000;stroke-width:5;stroke-opacity:1"
     d = "M 251.1367,217.5044 262.8736,193.8466 269.0452,175.2782 274.1809,161.1211 279.8071,147.6065 286.2473,132.5907 292.4167,117.1117 298.7409,103.2234 308.0485,90.50629 318.279,77.20095 326.6328,61.71465 330.556,47.96309 "
id = "197" />
  <path
     style="fill:none;stroke:#000000;stroke-width:5;stroke-opacity:1"
     d = "M 253.5118,218.3584 265.6203,194.397 272.3303,175.7384 277.8505,161.5303 283.7472,147.881 290.4457,132.4583 296.8163,117.4308 303.3683,104.106 313.2365,91.92761 323.5849,78.37547 332.1588,62.77377 336.0065,51.30124 "
id = "198" />
  <path
     style="fill:none;stroke:#000000;stroke-width:5;stroke-opacity:1"
     d = "M 255.8714,219.2537 268.2841,194.99 275.3902,176.3585 281.2491,162.3134 287.5078,148.5273 294.5712,132.7075 301.1393,117.9613 307.9817,105.2851 317.982,93.5677 328.5606,79.86366 336.0049,67.537 "
id = "199" />
  <path
     style="fill:none;stroke:#000000;stroke-width:5;stroke-opacity:1"
     d = "M 258.2151,220.19 270.8884,195.7787 278.6291,177.2704 284.7646,163.6791 291.5109,149.7438 298.8685,133.5584 305.7513,118.8269 312.8548,106.9514 322.7719,95.68102 333.8717,82.74194 336.0159,79.60475 "
id = "200" />
  <path
     style="fill:none;stroke:#000000;stroke-width:5;stroke-opacity:1"
     d = "M 260.5421,221.1671 273.3742,196.6542 281.7518,178.5029 288.5427,165.2473 295.8601,151.1002 303.5153,134.4711 310.9564,120.2591 318.4889,109.29 328.1047,98.80982 336.0344,90.34293 "
id = "201" />
  <path
     style="fill:none;stroke:#000000;stroke-width:5;stroke-opacity:1"
     d = "M 262.8517,222.1847 275.8123,197.6116 284.8627,180.0162 292.5145,167.2088 300.7118,153.0006 308.8878,136.1394 316.5986,122.836 323.8916,113.5525 332.5147,104.5636 336.0391,101.305 "
id = "202" />
  <path
     style="fill:none;stroke:#000000;stroke-width:5;stroke-opacity:1"
     d = "M 265.1432,223.2424 278.3601,198.7717 288.0435,182.0133 296.8156,169.4583 305.936,155.1982 314.8859,138.6006 322.4902,126.4442 329.564,118.7896 336.0201,112.8102 "
id = "203" />
  <path
     style="fill:none;stroke:#000000;stroke-width:5;stroke-opacity:1"
     d = "M 267.4159,224.34 280.9533,200.2468 291.3848,184.1659 301.3214,171.9903 311.1208,157.9727 320.5756,141.7559 328.1667,130.0753 335.2635,122.8677 336.0524,122.2531 "
id = "204" />
  <path
     style="fill:none;stroke:#000000;stroke-width:5;stroke-opacity:1"
     d = "M 269.6691,225.477 283.3646,201.8021 294.6075,186.4029 305.7879,174.4471 315.4093,160.5468 324.8089,144.5295 332.9405,132.8421 336.0115,129.9774 "
id = "205" />
  <path
     style="fill:none;stroke:#000000;stroke-width:5;stroke-opacity:1"
     d = "M 271.9021,226.6532 285.7537,203.4278 297.6274,188.77 309.2469,177.1921 318.4869,163.594 327.5191,147.4324 336.0203,135.5628 "
id = "206" />
  <path
     style="fill:none;stroke:#000000;stroke-width:5;stroke-opacity:1"
     d = "M 274.1142,227.8682 288.0695,205.1683 300.4074,191.1158 312.2065,179.9315 321.1391,166.6898 329.7141,150.439 336.011,141.5425 "
id = "207" />
  <path
     style="fill:none;stroke:#000000;stroke-width:5;stroke-opacity:1"
     d = "M 276.283,229.1089 290.2685,207.0765 302.9665,193.6135 314.6711,182.8656 323.5136,170.117 331.4403,153.9765 336.0183,147.2937 "
id = "208" />
  <path
     style="fill:none;stroke:#000000;stroke-width:5;stroke-opacity:1"
     d = "M 278.4732,230.4131 292.3311,209.0262 305.2672,196.0905 316.9113,185.9344 325.7066,173.6906 332.9315,157.608 336.0226,152.8192 "
id = "209" />
  <path
     style="fill:none;stroke:#000000;stroke-width:5;stroke-opacity:1"
     d = "M 280.6187,231.7422 294.1847,211.1994 307.2792,198.6202 318.8598,189.0546 327.5706,177.3869 334.1514,161.4694 336.0168,158.2739 "
id = "210" />
  <path
     style="fill:none;stroke:#000000;stroke-width:5;stroke-opacity:1"
     d = "M 282.7406,233.1085 295.961,213.5045 309.1752,201.1984 320.5942,192.2361 329.0739,181.1375 335.2251,165.8808 336.0282,164.27 "
id = "211" />
  <path
     style="fill:none;stroke:#000000;stroke-width:5;stroke-opacity:1"
     d = "M 284.8385,234.5117 297.6504,215.7678 311.0056,203.6659 322.1971,195.3076 330.2723,184.5422 336.0154,170.2527 "
id = "212" />
  <path
     style="fill:none;stroke:#000000;stroke-width:5;stroke-opacity:1"
     d = "M 286.9115,235.9512 299.2666,217.8876 312.6159,206.1359 323.6461,198.0903 331.4689,187.4445 336.0296,176.0222 "
id = "213" />
  <path
     style="fill:none;stroke:#000000;stroke-width:5;stroke-opacity:1"
     d = "M 288.959,237.4268 300.7892,219.9034 313.9987,208.4666 324.958,200.3834 332.718,189.737 336.0051,181.5743 "
id = "214" />
  <path
     style="fill:none;stroke:#000000;stroke-width:5;stroke-opacity:1"
     d = "M 290.9805,238.9378 302.1476,221.9266 315.1321,210.58 326.1226,202.4472 333.902,191.9478 336.0006,186.7559 "
id = "215" />
  <path
     style="fill:none;stroke:#000000;stroke-width:5;stroke-opacity:1"
     d = "M 292.9753,240.4839 303.505,223.9657 316.201,212.7447 327.2213,204.4863 335.0673,194.2265 336.0242,191.8088 "
id = "216" />
  <path
     style="fill:none;stroke:#000000;stroke-width:5;stroke-opacity:1"
     d = "M 294.9429,242.0646 305.0156,225.9672 317.1953,214.8379 328.1107,206.5323 336.0011,196.7097 "
id = "217" />
  <path
     style="fill:none;stroke:#000000;stroke-width:5;stroke-opacity:1"
     d = "M 296.8825,243.6793 306.6345,228.0646 318.3138,217.0201 328.9834,208.6684 336.007,200.4633 "
id = "218" />
  <path
     style="fill:none;stroke:#000000;stroke-width:5;stroke-opacity:1"
     d = "M 298.7747,245.3111 308.2196,230.2084 319.4083,219.3097 329.8698,210.9292 336.0488,204.2489 "
id = "219" />
  <path
     style="fill:none;stroke:#000000;stroke-width:5;stroke-opacity:1"
     d = "M 300.6758,247.0091 309.7359,232.6748 320.3791,221.8513 330.647,213.4214 336.0464,208.0719 "
id = "220" />
  <path
     style="fill:none;stroke:#000000;stroke-width:5;stroke-opacity:1"
     d = "M 302.5283,248.7232 311.1477,235.1876 321.2929,224.4974 331.2638,215.96 336.0543,211.5672 "
id = "221" />
  <path
     style="fill:none;stroke:#000000;stroke-width:5;stroke-opacity:1"
     d = "M 304.3506,250.4694 312.6006,237.6953 322.4453,227.0834 332.107,218.3433 336.006,214.9028 "
id = "222" />
  <path
     style="fill:none;stroke:#000000;stroke-width:5;stroke-opacity:1"
     d = "M 306.1421,252.247 314.1313,240.1853 323.7681,229.8123 333.3587,220.8059 336.0624,218.4295 "
id = "223" />
  <path
     style="fill:none;stroke:#000000;stroke-width:5;stroke-opacity:1"
     d = "M 307.9023,254.0557 315.7708,242.9159 325.3229,232.8384 335.0639,223.8086 336.0339,222.9431 "
id = "224" />
  <path
     style="fill:none;stroke:#000000;stroke-width:5;stroke-opacity:1"
     d = "M 309.6307,255.8948 317.4324,245.6795 326.8009,236.0173 336.0533,227.7602 "
id = "225" />
  <path
     style="fill:none;stroke:#000000;stroke-width:5;stroke-opacity:1"
     d = "M 311.3268,257.7638 319.2577,248.3617 328.4199,239.2324 336.0615,232.7825 "
id = "226" />
  <path
     style="fill:none;stroke:#000000;stroke-width:5;stroke-opacity:1"
     d = "M 312.99,259.6621 321.1919,250.9939 330.1766,242.4183 336.0497,237.7537 "
id = "227" />
  <path
     style="fill:none;stroke:#000000;stroke-width:5;stroke-opacity:1"
     d = "M 314.6198,261.5891 323.2437,253.7566 332.4743,245.9225 336.0354,243.3384 "
id = "228" />
  <path
     style="fill:none;stroke:#000000;stroke-width:5;stroke-opacity:1"
     d = "M 316.2156,263.5443 325.4196,256.6033 335.2341,249.4743 336.0666,248.9204 "
id = "229" />
  <path
     style="fill:none;stroke:#000000;stroke-width:5;stroke-opacity:1"
     d = "M 317.7772,265.5271 327.6312,259.3446 336.0333,254.1088 "
id = "230" />
  <path
     style="fill:none;stroke:#000000;stroke-width:5;stroke-opacity:1"
     d = "M 319.3039,267.5368 329.7909,262.0034 336.0031,258.7776 "
id = "231" />
  <path
     style="fill:none;stroke:#000000;stroke-width:5;stroke-opacity:1"
     d = "M 320.7953,269.5728 331.9099,264.3593 336.0119,262.5081 "
id = "232" />
  <path
     style="fill:none;stroke:#000000;stroke-width:5;stroke-opacity:1"
     d = "M 322.2509,271.6346 334.0836,266.5378 336.0139,265.7104 "
id = "233" />
  <path
     style="fill:none;stroke:#000000;stroke-width:5;stroke-opacity:1"
     d = "M 323.6703,273.7214 336.0294,268.8102 "
id = "234" />
  <path
     style="fill:none;stroke:#000000;stroke-width:5;stroke-opacity:1"
     d = "M 325.0531,275.8327 336.0147,271.7444 "
id = "235" />
  <path
     style="fill:none;stroke:#000000;stroke-width:5;stroke-opacity:1"
     d = "M 326.3988,277.9679 336.0928,274.4851 "
id = "236" />
  <path
     style="fill:none;stroke:#000000;stroke-width:5;stroke-opacity:1"
     d = "M 327.7071,280.1261 336.0349,277.2794 "
id = "237" />
  <path
     style="fill:none;stroke:#000000;stroke-width:5;stroke-opacity:1"
     d = "M 328.9774,282.3069 336.0143,280.0193 "
id = "238" />
  <path
     style="fill:none;stroke:#000000;stroke-width:5;stroke-opacity:1"
     d = "M 330.2096,284.5095 336.0121,282.6293 "
id = "239" />
  <path
     style="fill:none;stroke:#000000;stroke-width:5;stroke-opacity:1"
     d = "M 331.4031,286.7333 336.0656,285.2274 "
id = "240" />
  <path
     style="fill:none;stroke:#000000;stroke-width:5;stroke-opacity:1"
     d = "M 332.5576,288.9776 336.0704,287.8146 "
id = "241" />
  <path
     style="fill:none;stroke:#000000;stroke-width:5;stroke-opacity:1"
     d = "M 333.6728,291.2417 336.0417,290.4421 "
id = "242" />
  <path
     style="fill:none;stroke:#000000;stroke-width:5;stroke-opacity:1"
     d = "M 334.7483,293.5249 336.0685,293.0587 "
id = "243" />
  <path
     style="fill:none;stroke:#000000;stroke-width:5;stroke-opacity:1"
     d = "M 335.7838,295.8265 336.0644,295.7204 "
id = "244" />
  <path
     style="fill:none;stroke:#000000;stroke-width:5;stroke-opacity:1"
     d = "M 335.897,411.9208 336.0963,411.9367 "
id = "291" />
  <path
     style="fill:none;stroke:#000000;stroke-width:5;stroke-opacity:1"
     d = "M 334.866,414.2244 336.0591,414.3522 "
id = "292" />
  <path
     style="fill:none;stroke:#000000;stroke-width:5;stroke-opacity:1"
     d = "M 333.795,416.5097 336.0734,416.8242 "
id = "293" />
  <path
     style="fill:none;stroke:#000000;stroke-width:5;stroke-opacity:1"
     d = "M 332.6842,418.776 336.0346,419.3529 "
id = "294" />
  <path
     style="fill:none;stroke:#000000;stroke-width:5;stroke-opacity:1"
     d = "M 331.5341,421.0225 336.0403,421.949 "
id = "295" />
  <path
     style="fill:none;stroke:#000000;stroke-width:5;stroke-opacity:1"
     d = "M 330.3449,423.2486 336.0868,424.6044 "
id = "296" />
  <path
     style="fill:none;stroke:#000000;stroke-width:5;stroke-opacity:1"
     d = "M 329.1171,425.4536 336.0934,427.2334 "
id = "297" />
  <path
     style="fill:none;stroke:#000000;stroke-width:5;stroke-opacity:1"
     d = "M 328.2898,426.8898 336.0242,428.9381 "
id = "298" />
  <path
     style="fill:none;stroke:#000000;stroke-width:5;stroke-opacity:1"
     d = "M 326.5469,429.7977 336.088,432.4413 "
id = "299" />
  <path
     style="fill:none;stroke:#000000;stroke-width:5;stroke-opacity:1"
     d = "M 325.2053,431.9355 336.0542,435.0909 "
id = "300" />
  <path
     style="fill:none;stroke:#000000;stroke-width:5;stroke-opacity:1"
     d = "M 323.8267,434.0495 336.0493,437.8581 "
id = "301" />
  <path
     style="fill:none;stroke:#000000;stroke-width:5;stroke-opacity:1"
     d = "M 322.4113,436.1391 336.0739,440.6874 "
id = "302" />
  <path
     style="fill:none;stroke:#000000;stroke-width:5;stroke-opacity:1"
     d = "M 320.9597,438.2036 336.0623,443.4917 "
id = "303" />
  <path
     style="fill:none;stroke:#000000;stroke-width:5;stroke-opacity:1"
     d = "M 319.4723,440.2426 336.0822,446.3572 "
id = "304" />
  <path
     style="fill:none;stroke:#000000;stroke-width:5;stroke-opacity:1"
     d = "M 317.9495,442.2553 336.0304,449.2828 "
id = "305" />
  <path
     style="fill:none;stroke:#000000;stroke-width:5;stroke-opacity:1"
     d = "M 316.3918,444.2411 336.0081,452.2765 "
id = "306" />
  <path
     style="fill:none;stroke:#000000;stroke-width:5;stroke-opacity:1"
     d = "M 314.7998,446.1994 336.0331,455.2933 "
id = "307" />
  <path
     style="fill:none;stroke:#000000;stroke-width:5;stroke-opacity:1"
     d = "M 313.1738,448.1296 336.0085,458.2996 "
id = "308" />
  <path
     style="fill:none;stroke:#000000;stroke-width:5;stroke-opacity:1"
     d = "M 312.0877,449.3815 336.0296,460.265 "
id = "309" />
  <path
     style="fill:none;stroke:#000000;stroke-width:5;stroke-opacity:1"
     d = "M 309.8219,451.9034 333.9093,463.3876 336.0493,465.3443 "
id = "310" />
  <path
     style="fill:none;stroke:#000000;stroke-width:5;stroke-opacity:1"
     d = "M 308.0971,453.7459 331.7339,465.5165 336.0717,469.662 "
id = "311" />
  <path
     style="fill:none;stroke:#000000;stroke-width:5;stroke-opacity:1"
     d = "M 306.3404,455.558 329.3888,467.5906 336.0102,474.1212 "
id = "312" />
  <path
     style="fill:none;stroke:#000000;stroke-width:5;stroke-opacity:1"
     d = "M 304.5523,457.3392 327.0353,469.6801 336.0347,478.9237 "
id = "313" />
  <path
     style="fill:none;stroke:#000000;stroke-width:5;stroke-opacity:1"
     d = "M 302.7334,459.0889 324.7024,471.699 336.0298,483.8319 "
id = "314" />
  <path
     style="fill:none;stroke:#000000;stroke-width:5;stroke-opacity:1"
     d = "M 300.8843,460.8065 322.2192,473.6641 336.0452,488.7976 "
id = "315" />
  <path
     style="fill:none;stroke:#000000;stroke-width:5;stroke-opacity:1"
     d = "M 299.0055,462.4917 319.6865,475.528 334.5153,492.1177 336.0182,494.3605 "
id = "316" />
  <path
     style="fill:none;stroke:#000000;stroke-width:5;stroke-opacity:1"
     d = "M 297.0975,464.1438 317.1378,477.1994 331.506,493.8376 336.0122,500.8083 "
id = "317" />
  <path
     style="fill:none;stroke:#000000;stroke-width:5;stroke-opacity:1"
     d = "M 295.161,465.7623 314.5652,478.85 328.5708,495.5462 336.0408,507.2667 "
id = "318" />
  <path
     style="fill:none;stroke:#000000;stroke-width:5;stroke-opacity:1"
     d = "M 293.1966,467.3468 312.0437,480.3958 325.8424,496.9362 336.0475,512.9628 "
id = "319" />
  <path
     style="fill:none;stroke:#000000;stroke-width:5;stroke-opacity:1"
     d = "M 291.2048,468.8968 309.4395,481.8483 323.1087,498.1756 333.3892,514.1705 336.0466,517.6779 "
id = "320" />
  <path
     style="fill:none;stroke:#000000;stroke-width:5;stroke-opacity:1"
     d = "M 289.1862,470.4117 306.7303,483.2132 320.2051,499.222 330.5975,515.1744 336.0467,522.3375 "
id = "321" />
  <path
     style="fill:none;stroke:#000000;stroke-width:5;stroke-opacity:1"
     d = "M 287.1415,471.8913 304.301,484.4826 317.5233,500.1679 328.0161,516.1429 336.0157,526.5132 "
id = "322" />
  <path
     style="fill:none;stroke:#000000;stroke-width:5;stroke-opacity:1"
     d = "M 285.0714,473.3349 301.9437,485.5438 315.1093,500.8623 325.7131,516.9517 336.0487,530.3199 "
id = "323" />
  <path
     style="fill:none;stroke:#000000;stroke-width:5;stroke-opacity:1"
     d = "M 282.9763,474.7422 299.5132,486.5443 312.7666,501.5401 323.5564,517.75 336.045,533.8743 "
id = "324" />
  <path
     style="fill:none;stroke:#000000;stroke-width:5;stroke-opacity:1"
     d = "M 280.857,476.1126 297.0999,487.5667 310.4264,502.2163 321.5179,518.537 334.0477,534.6877 336.06,536.9124 "
id = "325" />
  <path
     style="fill:none;stroke:#000000;stroke-width:5;stroke-opacity:1"
     d = "M 278.7141,477.4459 294.7776,488.5865 308.1474,502.9154 319.485,519.2181 331.9831,535.4055 336.0187,539.8439 "
id = "326" />
  <path
     style="fill:none;stroke:#000000;stroke-width:5;stroke-opacity:1"
     d = "M 276.5482,478.7416 292.3994,489.6057 305.7355,503.5267 317.2162,519.7322 329.5308,535.944 336.0625,543.2533 "
id = "327" />
  <path
     style="fill:none;stroke:#000000;stroke-width:5;stroke-opacity:1"
     d = "M 274.36,479.9993 290.0435,490.6707 303.0657,504.185 314.6805,520.1841 326.8052,536.4784 336.0294,547.0143 "
id = "328" />
  <path
     style="fill:none;stroke:#000000;stroke-width:5;stroke-opacity:1"
     d = "M 272.1503,481.2186 287.6151,491.8191 300.3398,504.9396 311.9698,520.7333 323.9822,537.0449 336.0077,551.1028 "
id = "329" />
  <path
     style="fill:none;stroke:#000000;stroke-width:5;stroke-opacity:1"
     d = "M 269.9196,482.3991 285.0631,493.0693 297.7058,505.6438 309.3186,521.3175 321.1771,537.4876 332.8019,551.7056 336.0071,556.0529 "
id = "330" />
  <path
     style="fill:none;stroke:#000000;stroke-width:5;stroke-opacity:1"
     d = "M 267.6687,483.5406 282.658,494.4419 295.3192,506.6098 306.9017,522.2935 318.5673,538.403 329.3999,552.3332 336.0056,561.8701 "
id = "331" />
  <path
     style="fill:none;stroke:#000000;stroke-width:5;stroke-opacity:1"
     d = "M 265.3982,484.6425 280.2525,495.9171 293.0181,507.8504 304.6395,523.5364 315.9861,539.6313 325.8922,553.3932 334.775,566.9561 336.0531,568.868 "
id = "332" />
  <path
     style="fill:none;stroke:#000000;stroke-width:5;stroke-opacity:1"
     d = "M 263.1087,485.7047 277.7454,497.4988 290.7275,509.549 302.2276,525.2977 313.1655,541.3388 322.1896,554.9668 330.0995,567.8882 336.0433,577.3765 "
id = "333" />
  <path
     style="fill:none;stroke:#000000;stroke-width:5;stroke-opacity:1"
     d = "M 260.8011,486.7268 275.1801,499.0156 288.0387,511.4484 299.5097,527.3598 309.8941,543.4244 317.9738,557.0109 325.0589,569.4933 332.7389,581.7543 336.011,586.7824 "
id = "334" />
  <path
     style="fill:none;stroke:#000000;stroke-width:5;stroke-opacity:1"
     d = "M 258.476,487.7084 272.5397,500.5026 285.2699,513.3635 296.8191,529.5334 306.49,545.8572 313.8748,559.4639 320.456,571.7542 327.5918,583.4247 335.6334,595.5778 336.0047,596.1712 "
id = "335" />
  <path
     style="fill:none;stroke:#000000;stroke-width:5;stroke-opacity:1"
     d = "M 256.1342,488.6494 269.8888,501.8872 282.3522,515.2465 293.7788,531.7177 302.6449,548.3477 309.7774,562.1534 316.2726,574.429 322.6637,585.637 330.1906,596.9304 336.054,606.0007 "
id = "336" />
  <path
     style="fill:none;stroke:#000000;stroke-width:5;stroke-opacity:1"
     d = "M 253.7762,489.5493 267.1704,503.3882 279.3111,517.3506 290.4578,534.1623 298.4427,551.2314 305.3354,565.1865 311.7944,577.1514 317.9255,587.9012 325.1241,598.504 332.4899,609.946 336.0074,617.2432 "
id = "337" />
  <path
     style="fill:none;stroke:#000000;stroke-width:5;stroke-opacity:1"
     d = "M 251.4029,490.4079 264.4101,504.8495 276.1886,519.2876 286.7537,536.2619 293.9846,554.1659 300.2855,568.5638 307.2103,580.5456 313.3551,591.1427 319.8907,601.8891 326.1055,612.9693 332.072,626.2231 336.0365,634.743 "
id = "338" />
  <path
     style="fill:none;stroke:#000000;stroke-width:5;stroke-opacity:1"
     d = "M 249.015,491.2249 261.6204,506.3182 273.0233,521.094 282.698,538.371 288.9985,557.3044 294.5235,572.515 301.4973,585.7572 306.8745,597.4598 311.4017,609.0902 315.9411,621.0095 321.6444,634.7007 327.9092,649.5073 333.67,665.1237 336.0246,671.1817 "
id = "339" />
  <path
     style="fill:none;stroke:#000000;stroke-width:5;stroke-opacity:1"
     d = "M 246.6132,492.0002 258.7452,507.7275 269.6917,522.8783 278.2871,540.8315 283.5402,560.5668 288.663,577.2462 294.5632,591.9366 298.0998,605.8552 300.2213,620.1715 303.9818,634.6392 310.371,648.2976 316.0667,663.3151 320.5289,679.8745 325.8518,697.5162 335.5371,717.0068 336.0067,717.8893 "
id = "340" />
  <path
     style="fill:none;stroke:#000000;stroke-width:5;stroke-opacity:1"
     d = "M 244.1983,492.7334 255.7378,509.1366 266.1175,524.9976 273.6628,543.7618 277.5119,564.0867 282.2741,582.4293 286.6013,598.7667 288.7188,614.922 290.8802,631.4562 297.2678,644.9397 305.2524,657.6884 310.7699,672.6011 315.3259,690.808 322.4058,708.075 330.0067,720.0701 "
id = "341" />
  <path
     style="fill:none;stroke:#000000;stroke-width:5;stroke-opacity:1"
     d = "M 242.5813,493.1988 253.669,510.0047 263.597,526.4056 270.4921,545.6655 273.5242,566.3908 277.6379,585.6875 281.0999,603.1386 282.9686,620.6938 286.7531,636.976 294.6329,649.3546 302.8355,661.6287 308.3761,676.7866 313.211,694.7059 321.216,711.5789 326.8875,720.0582 "
id = "342" />
  <path
     style="fill:none;stroke:#000000;stroke-width:5;stroke-opacity:1"
     d = "M 240.146,493.8615 250.4994,511.3539 259.603,528.6886 265.2067,548.7732 266.707,570.2858 269.6004,591.1371 272.4954,610.7719 275.5653,629.5558 283.4247,644.1325 292.8039,654.9625 300.8193,667.809 305.769,684.1629 311.0708,701.1922 320.7674,717.1132 322.7071,720.027 "
id = "343" />
  <path
     style="fill:none;stroke:#000000;stroke-width:5;stroke-opacity:1"
     d = "M 237.6996,494.4815 247.3604,512.6882 255.4607,531.0469 259.8651,551.4348 259.7022,573.6151 261.0916,595.8853 264.3393,616.4067 271.0509,635.7452 281.1915,649.5583 290.8493,660.1401 298.3791,673.806 302.9849,690.6002 308.8114,706.2548 318.8779,720.0734 "
id = "344" />
  <path
     style="fill:none;stroke:#000000;stroke-width:5;stroke-opacity:1"
     d = "M 235.2427,495.0588 244.3397,513.9373 251.5287,533.1253 255.193,553.1463 254.3018,575.7696 254.3516,599.3495 258.4497,620.4324 267.3011,639.9146 278.0568,653.581 287.2659,664.4171 294.2341,678.5317 298.6046,694.8962 304.3075,708.6329 313.4637,720.0035 "
id = "345" />
  <path
     style="fill:none;stroke:#000000;stroke-width:5;stroke-opacity:1"
     d = "M 232.776,495.5931 241.3838,515.0349 247.6916,534.6225 250.7283,554.2822 249.383,577.2913 248.2672,601.7676 252.8646,623.1971 262.4322,642.4213 273.0708,657.0189 281.9547,668.5118 287.8971,682.4369 291.4121,697.3911 296.1561,709.3377 305.3171,720.0521 "
id = "346" />
  <path
     style="fill:none;stroke:#000000;stroke-width:5;stroke-opacity:1"
     d = "M 230.3004,496.0843 238.296,516.0723 243.9268,535.9348 246.6887,555.2963 244.8738,578.1606 242.6797,603.3365 247.0595,625.0027 256.6205,644.9337 266.9234,661.2195 274.7303,675.0445 278.6646,688.9485 280.868,702.4849 284.5837,713.2833 289.6133,720.0098 "
id = "347" />
  <path
     style="fill:none;stroke:#000000;stroke-width:5;stroke-opacity:1"
     d = "M 227.8167,496.5322 235.0891,517.0662 240.1579,537.202 242.8642,556.3698 240.6821,579.1669 237.8303,604.7463 242.0124,626.3588 251.2075,647.2031 260.8572,665.1153 267.2234,681.6631 269.3621,697.449 270.4293,710.6095 273.5291,720.0116 "
id = "348" />
  <path
     style="fill:none;stroke:#000000;stroke-width:5;stroke-opacity:1"
     d = "M 225.3255,496.9367 231.9722,518.0347 236.5034,538.2669 239.1835,557.3274 236.8072,580.0177 233.6117,605.6671 237.3,627.1183 245.5277,648.4944 254.0465,668.6816 258.7156,687.2974 260.7766,704.9877 263.5781,720.0319 "
id = "349" />
  <path
     style="fill:none;stroke:#000000;stroke-width:5;stroke-opacity:1"
     d = "M 222.8277,497.2977 228.8169,519.0267 232.7418,539.5138 235.3956,558.3529 232.9892,580.8088 229.9078,606.3409 232.9836,627.5817 240.0706,649.3862 247.0871,671.2859 251.0981,691.7475 253.3909,711.0547 255.5706,720.097 "
id = "350" />
  <path
     style="fill:none;stroke:#000000;stroke-width:5;stroke-opacity:1"
     d = "M 220.3238,497.615 225.6294,520.0192 228.8917,540.7775 231.3291,559.4326 229.1992,581.6774 226.1339,606.8135 228.8566,628.2758 234.9966,650.3796 240.55,673.2423 244.2207,695.5789 247.5003,716.4139 248.4744,720.0878 "
id = "351" />
  <path
     style="fill:none;stroke:#000000;stroke-width:5;stroke-opacity:1"
     d = "M 217.8148,497.8885 222.6233,520.7089 225.288,541.8419 227.417,560.3112 225.5161,582.2879 222.389,607.2804 224.9787,629.1995 230.2475,651.6272 234.7462,675.1203 238.5381,699.0563 242.9007,720.007 "
id = "352" />
  <path
     style="fill:none;stroke:#000000;stroke-width:5;stroke-opacity:1"
     d = "M 215.3015,498.1183 219.5812,521.2096 221.8219,542.7142 223.5669,561.0126 222.1253,582.7597 218.9822,607.7463 221.5164,630.1372 225.9731,652.9831 229.5111,676.7822 233.1852,701.4078 238.0385,720.0906 "
id = "353" />
  <path
     style="fill:none;stroke:#000000;stroke-width:5;stroke-opacity:1"
     d = "M 212.7846,498.3041 216.5117,521.5734 218.2738,543.494 219.5163,561.7571 218.5686,583.2998 215.5132,608.2202 217.8956,631.0519 221.5954,654.1401 224.1435,678.4525 227.5652,703.3036 232.4398,720.009 "
id = "354" />
  <path
     style="fill:none;stroke:#000000;stroke-width:5;stroke-opacity:1"
     d = "M 210.2647,498.446 213.6561,521.8364 214.995,544.2062 215.7949,562.6404 214.5448,584.1782 211.6678,609.1028 213.8422,632.1226 216.6445,655.4909 217.9731,680.2308 221.3198,705.2512 225.6718,720.0271 "
id = "355" />
  <path
     style="fill:none;stroke:#000000;stroke-width:5;stroke-opacity:1"
     d = "M 207.7428,498.5439 210.8751,522.2187 211.833,544.9023 212.3329,563.486 210.5203,585.0455 208.0205,610.1302 209.8213,633.2881 211.6001,657.0448 212.2371,682.1764 215.8842,707.1639 219.7899,720.0838 "
id = "356" />
  <path
     style="fill:none;stroke:#000000;stroke-width:5;stroke-opacity:1"
     d = "M 205.2195,498.5977 208.1012,522.7786 208.7333,545.6221 208.9108,564.285 206.526,585.9575 204.3403,611.0822 205.811,634.5869 206.2774,658.8353 206.4731,684.0341 210.4838,708.6077 213.9157,720.0037 "
id = "357" />
  <path
     style="fill:none;stroke:#000000;stroke-width:5;stroke-opacity:1"
     d = "M 202.6957,498.6075 205.3005,523.1569 205.6707,546.1393 205.3149,564.9878 202.4219,586.7418 200.4378,611.8922 201.5608,636.0389 200.7988,660.6455 200.8461,685.7449 204.7876,709.7778 207.715,720.0703 "
id = "358" />
  <path
     style="fill:none;stroke:#000000;stroke-width:5;stroke-opacity:1"
     d = "M 200.1721,498.5732 202.4522,523.3848 202.6447,546.585 201.7062,565.7333 198.4847,587.4742 196.4154,612.5341 196.7285,637.331 194.8769,662.101 195.2888,686.9306 198.7913,710.7233 201.0208,720.0631 "
id = "359" />
  <path
     style="fill:none;stroke:#000000;stroke-width:5;stroke-opacity:1"
     d = "M 48,48 336,48 336,720 48,720 48,48 "
id = "360" />
</svg>
