<svg
   width="384"
   height = "768"
   version="1.1"
   id="svg2"
   xmlns="http://www.w3.org/2000/svg"
   xmlns:svg="http://www.w3.org/2000/svg">
  <defs
     id="defs6" />

<rect
   style="fill:#79F145;stroke-width:0;stroke-opacity:0"
   id="Background"
   width="384"
   height="768"
   x="0"
   y="0"
   rx="0" />
  <path
     style="fill:none;stroke:#000000;stroke-width:2;stroke-opacity:1"
     d = "M 100.1542,338.5093 73.34354,330.7028 49.64913,318.904 47.98378,317.9896 "
id = "0" />
  <path
     style="fill:none;stroke:#000000;stroke-width:2;stroke-opacity:1"
     d = "M 101.2349,336.3897 74.78789,328.1512 51.78271,315.8331 47.96252,313.6497 "
id = "1" />
  <path
     style="fill:none;stroke:#000000;stroke-width:2;stroke-opacity:1"
     d = "M 102.3644,334.2958 76.27671,325.6657 53.91677,313.0175 47.92865,309.3923 "
id = "2" />
  <path
     style="fill:none;stroke:#000000;stroke-width:2;stroke-opacity:1"
     d = "M 103.5512,332.2133 77.8454,323.2646 56.15924,310.4141 47.93288,305.0876 "
id = "3" />
  <path
     style="fill:none;stroke:#000000;stroke-width:2;stroke-opacity:1"
     d = "M 104.7771,330.1743 79.53004,320.9579 58.40622,308.0481 47.98438,300.7889 "
id = "4" />
  <path
     style="fill:none;stroke:#000000;stroke-width:2;stroke-opacity:1"
     d = "M 106.0499,328.1643 81.27292,318.6589 60.70102,305.685 47.94252,296.1939 "
id = "5" />
  <path
     style="fill:none;stroke:#000000;stroke-width:2;stroke-opacity:1"
     d = "M 107.3792,326.1696 83.16107,316.4321 63.15702,303.3161 47.94273,291.1167 "
id = "6" />
  <path
     style="fill:none;stroke:#000000;stroke-width:2;stroke-opacity:1"
     d = "M 108.7443,324.221 85.23245,314.1357 65.57881,300.8847 47.94001,285.6609 "
id = "7" />
  <path
     style="fill:none;stroke:#000000;stroke-width:2;stroke-opacity:1"
     d = "M 110.1542,322.3047 87.35196,311.7771 68.07245,298.2532 50.06401,281.6596 47.97874,279.9449 "
id = "8" />
  <path
     style="fill:none;stroke:#000000;stroke-width:2;stroke-opacity:1"
     d = "M 111.6193,320.4076 89.46745,309.4905 70.48931,295.6789 52.76034,278.2626 47.97005,274.0185 "
id = "9" />
  <path
     style="fill:none;stroke:#000000;stroke-width:2;stroke-opacity:1"
     d = "M 113.117,318.559 91.70094,307.1741 73.05426,292.9175 55.60642,274.9907 47.97487,267.7777 "
id = "10" />
  <path
     style="fill:none;stroke:#000000;stroke-width:2;stroke-opacity:1"
     d = "M 114.6572,316.7457 94.00571,304.7935 75.68086,289.9802 58.17755,271.4661 47.935,261.3455 "
id = "11" />
  <path
     style="fill:none;stroke:#000000;stroke-width:2;stroke-opacity:1"
     d = "M 116.2511,314.9554 96.36227,302.4087 78.29488,287.0525 60.83471,267.9148 47.97874,254.333 "
id = "12" />
  <path
     style="fill:none;stroke:#000000;stroke-width:2;stroke-opacity:1"
     d = "M 117.8741,313.2158 98.68413,299.9776 80.68163,284.1277 63.5123,264.4444 47.9367,247.9293 "
id = "13" />
  <path
     style="fill:none;stroke:#000000;stroke-width:2;stroke-opacity:1"
     d = "M 119.5371,311.5144 101.0138,297.5244 83.36597,281.6243 66.44539,261.8094 49.45493,244.2188 47.9712,243.0319 "
id = "14" />
  <path
     style="fill:none;stroke:#000000;stroke-width:2;stroke-opacity:1"
     d = "M 121.6846,309.4293 103.9456,294.5989 87.25438,278.6791 70.90262,258.7214 53.32803,240.9549 47.97084,236.6066 "
id = "15" />
  <path
     style="fill:none;stroke:#000000;stroke-width:2;stroke-opacity:1"
     d = "M 122.9923,308.2175 105.6457,292.9758 89.61664,277.0131 73.69566,257.0247 55.88155,238.6836 47.96299,232.2541 "
id = "16" />
  <path
     style="fill:none;stroke:#000000;stroke-width:2;stroke-opacity:1"
     d = "M 124.7699,306.6362 107.9609,290.8597 92.62653,274.6008 77.1743,254.4837 59.25745,235.3621 47.97484,226.0967 "
id = "17" />
  <path
     style="fill:none;stroke:#000000;stroke-width:2;stroke-opacity:1"
     d = "M 126.5975,305.0851 110.3476,288.6948 95.4116,271.7996 80.23267,251.3918 62.12711,231.6023 47.92408,219.9029 "
id = "18" />
  <path
     style="fill:none;stroke:#000000;stroke-width:2;stroke-opacity:1"
     d = "M 128.4467,303.5884 112.7508,286.5836 98.06578,268.9233 83.00296,248.1392 64.66618,227.894 47.92914,214.4007 "
id = "19" />
  <path
     style="fill:none;stroke:#000000;stroke-width:2;stroke-opacity:1"
     d = "M 130.3303,302.1349 115.2221,284.4278 100.9321,265.9922 86.03566,244.7314 67.74908,224.244 50.11054,210.7932 47.93618,208.5837 "
id = "20" />
  <path
     style="fill:none;stroke:#000000;stroke-width:2;stroke-opacity:1"
     d = "M 132.2616,300.7151 117.7015,282.2814 103.7178,263.0875 89.05411,241.5947 71.16844,220.9006 52.77769,207.7665 47.98399,203.2296 "
id = "21" />
  <path
     style="fill:none;stroke:#000000;stroke-width:2;stroke-opacity:1"
     d = "M 134.2108,299.351 120.17,280.1782 106.4751,260.2697 92.09962,238.517 74.90323,217.491 55.87838,204.5013 47.95243,197.6152 "
id = "22" />
  <path
     style="fill:none;stroke:#000000;stroke-width:2;stroke-opacity:1"
     d = "M 136.1911,298.0325 122.7192,278.1016 109.3407,257.5316 95.66499,235.582 79.32343,214.2294 60.29778,200.738 47.98689,191.4866 "
id = "23" />
  <path
     style="fill:none;stroke:#000000;stroke-width:2;stroke-opacity:1"
     d = "M 138.2168,296.7509 125.5125,275.9196 112.4069,254.6934 99.33482,232.5693 83.99421,210.7257 65.64687,196.4255 49.68674,185.9084 47.94392,184.4074 "
id = "24" />
  <path
     style="fill:none;stroke:#000000;stroke-width:2;stroke-opacity:1"
     d = "M 140.2564,295.526 128.3168,273.7764 115.5928,252.0682 103.0742,229.6827 88.76198,207.3534 71.15025,192.473 55.36937,182.7774 47.94287,177.3475 "
id = "25" />
  <path
     style="fill:none;stroke:#000000;stroke-width:2;stroke-opacity:1"
     d = "M 142.3239,294.3488 131.2451,271.7122 118.7158,249.6458 106.4773,226.9875 93.02645,204.2641 76.47483,189.0361 61.43391,179.4739 47.96316,170.4736 "
id = "26" />
  <path
     style="fill:none;stroke:#000000;stroke-width:2;stroke-opacity:1"
     d = "M 144.963,292.9365 134.9058,269.3399 122.7582,246.9823 110.9014,224.2018 98.5316,201.3564 83.55235,185.2535 70.90907,175.0281 59.0139,166.876 47.96117,159.4788 "
id = "27" />
  <path
     style="fill:none;stroke:#000000;stroke-width:2;stroke-opacity:1"
     d = "M 146.5541,292.1321 137.1621,268.0308 125.466,245.416 113.9866,222.832 102.2439,199.8939 88.18151,183.0338 77.34447,172.1032 67.63293,163.3141 56.85822,154.9509 47.97444,147.034 "
id = "28" />
  <path
     style="fill:none;stroke:#000000;stroke-width:2;stroke-opacity:1"
     d = "M 148.6987,291.102 140.1024,266.2952 128.8605,243.1292 117.7885,220.9072 106.8434,197.9904 94.18281,179.781 85.73093,167.2253 78.77354,156.7391 71.68404,145.696 62.65355,131.2978 53.06583,110.7639 47.98058,98.58222 "
id = "29" />
  <path
     style="fill:none;stroke:#000000;stroke-width:2;stroke-opacity:1"
     d = "M 151.4298,289.8771 143.6147,264.1845 132.7638,240.6891 121.8002,219.0918 111.7664,195.9655 100.9475,176.3709 95.27889,161.8382 91.16518,148.7936 87.50109,134.1991 81.88257,116.1927 75.42941,94.43256 70.68298,72.85709 66.00547,51.49548 65.05952,47.91848 "
id = "30" />
  <path
     style="fill:none;stroke:#000000;stroke-width:2;stroke-opacity:1"
     d = "M 153.0732,289.1857 145.6726,263.0346 135.0319,239.4938 124.1791,218.3172 114.5646,195.0976 104.6569,174.7366 100.0495,159.1812 97.50679,144.2359 95.1589,127.8809 90.41081,109.4667 83.85477,90.18648 79.37402,71.1002 75.31754,51.12874 74.44768,47.94549 "
id = "31" />
  <path
     style="fill:none;stroke:#000000;stroke-width:2;stroke-opacity:1"
     d = "M 155.2844,288.3078 148.3738,261.7238 138.1081,238.2216 127.5243,217.5476 118.3653,194.3865 109.6003,173.2515 105.8524,156.0887 104.8134,138.4604 102.841,119.9771 97.39493,102.3081 90.63535,84.81059 85.79506,67.07597 80.74959,48.52869 80.57372,47.95504 "
id = "32" />
  <path
     style="fill:none;stroke:#000000;stroke-width:2;stroke-opacity:1"
     d = "M 157.5322,287.4753 151.0994,260.5392 141.2927,237.3241 130.9954,217.1178 122.3414,194.162 114.6412,172.482 111.1819,153.8957 111.0443,134.2189 108.6984,114.8188 102.4576,97.51473 95.09615,81.11013 89.22546,64.33253 84.02237,47.93852 "
id = "33" />
  <path
     style="fill:none;stroke:#000000;stroke-width:2;stroke-opacity:1"
     d = "M 159.7819,286.7013 153.9053,259.4547 144.754,236.4135 134.7622,216.7369 126.482,194.558 119.5904,172.557 116.1273,152.7569 116.4199,131.6915 114.2963,112.1286 107.7742,95.36761 99.6115,79.78288 92.21283,63.92106 86.626,47.97158 "
id = "34" />
  <path
     style="fill:none;stroke:#000000;stroke-width:2;stroke-opacity:1"
     d = "M 162.049,285.9797 156.81,258.5229 148.342,235.6148 138.8255,216.5457 130.5611,195.2171 124.1582,173.1469 120.6003,152.1987 120.8685,130.3235 118.9948,110.7184 112.7984,94.37454 104.2547,79.70023 95.46632,64.9288 88.85126,47.97322 "
id = "35" />
  <path
     style="fill:none;stroke:#000000;stroke-width:2;stroke-opacity:1"
     d = "M 164.3494,285.3061 159.7296,257.8409 152.1045,235.1001 142.9643,216.5878 135.0478,196.2971 128.7403,174.3113 124.9181,152.6242 124.7242,130.2296 123.4279,110.3235 117.9643,94.44379 109.6738,80.60297 99.57346,67.03439 92.22587,50.61144 91.33121,47.95824 "
id = "36" />
  <path
     style="fill:none;stroke:#000000;stroke-width:2;stroke-opacity:1"
     d = "M 166.6476,284.6909 162.587,257.3547 156.041,234.8241 147.7231,216.4388 140.5413,196.9306 134.319,175.2655 130.1346,152.8394 129.3358,130.2579 128.5718,110.1344 124.2122,94.59766 117.0474,81.16365 106.7624,68.5029 97.28619,53.32379 95.28142,47.98787 "
id = "37" />
  <path
     style="fill:none;stroke:#000000;stroke-width:2;stroke-opacity:1"
     d = "M 168.9594,284.1292 165.4429,256.9176 160.0162,234.5482 152.7364,216.3199 146.3587,197.5407 140.5601,176.7824 136.1505,153.8882 134.7117,131.2502 134.5081,110.9941 131.9481,95.22764 127.3498,82.08185 118.9261,70.09855 108.622,57.11963 103.6295,47.99646 "
id = "38" />
  <path
     style="fill:none;stroke:#000000;stroke-width:2;stroke-opacity:1"
     d = "M 171.2838,283.6213 168.4653,256.6419 164.0506,234.3933 157.9108,216.4218 152.1666,198.3798 147.0356,178.6203 142.1172,155.8788 139.9817,133.5278 139.798,113.2637 139.1436,96.67852 137.3927,83.36356 132.3723,71.48246 124.7474,60.32043 116.0645,47.96655 "
id = "39" />
  <path
     style="fill:none;stroke:#000000;stroke-width:2;stroke-opacity:1"
     d = "M 173.6368,283.1643 171.5824,256.5079 168.1992,234.3013 163.0905,216.2749 158.5342,198.5908 154.064,179.7866 148.6747,158.1998 145.6776,136.5868 145.4835,116.3267 146.4306,98.65411 147.5282,84.85691 146.0483,72.50853 142.3683,61.92473 137.0052,50.89067 135.5289,47.9393 "
id = "40" />
  <path
     style="fill:none;stroke:#000000;stroke-width:2;stroke-opacity:1"
     d = "M 175.9822,282.7653 174.703,256.4258 172.3355,234.2163 168.3875,216.0423 164.9091,198.4158 160.9254,180.2261 155.8775,159.8283 152.1147,139.1926 151.7066,119.0726 153.4329,100.647 156.5007,85.90337 157.9922,73.12478 157.9258,62.26684 156.4148,51.62626 155.6152,47.91141 "
id = "41" />
  <path
     style="fill:none;stroke:#000000;stroke-width:2;stroke-opacity:1"
     d = "M 178.354,282.4183 177.8365,256.4189 176.3712,234.2453 173.5852,216.1333 171.2751,198.04 167.8519,179.6249 163.1533,159.6381 158.8019,139.2195 158.0477,119.3012 159.9092,100.4468 163.8034,85.2184 166.4429,71.92796 167.2246,61.12275 166.284,50.61581 165.7995,47.95962 "
id = "42" />
  <path
     style="fill:none;stroke:#000000;stroke-width:2;stroke-opacity:1"
     d = "M 180.7155,282.129 180.9282,256.3742 180.2393,234.1819 178.5306,216.1248 177.4064,197.6851 174.71,178.6361 170.6679,158.2527 166.4444,137.2143 165.6796,116.645 167.6964,97.49211 171.8203,81.77937 174.4066,68.46078 174.5504,57.67078 173.4334,47.93448 "
id = "43" />
  <path
     style="fill:none;stroke:#000000;stroke-width:2;stroke-opacity:1"
     d = "M 183.083,281.8945 183.9721,256.4594 183.7187,234.4059 182.8636,216.1667 182.6183,197.2823 180.5766,177.4823 177.2426,156.3173 173.687,134.4895 172.5703,113.0988 174.8111,94.11453 178.5214,78.57941 180.7962,65.73087 180.7443,54.81508 180.2158,47.93545 "
id = "44" />
  <path
     style="fill:none;stroke:#000000;stroke-width:2;stroke-opacity:1"
     d = "M 185.4732,281.7139 186.9284,256.6436 187.0057,234.8155 187.0891,216.3955 187.7653,196.8051 186.2935,176.2319 183.3198,154.5522 180.3186,132.0662 179.0893,110.0537 181.5247,91.1144 184.8557,75.8604 187.2591,63.47271 187.9438,52.3524 187.9828,47.95263 "
id = "45" />
  <path
     style="fill:none;stroke:#000000;stroke-width:2;stroke-opacity:1"
     d = "M 187.8491,281.59 189.8047,256.9026 190.2386,235.1303 191.175,216.4716 192.3308,196.1471 191.5629,174.7344 189.3184,152.5228 187.0005,129.2516 185.8031,106.4902 188.2792,87.86508 191.9351,73.10146 194.57,60.59297 196.3282,48.65894 196.4476,47.9692 "
id = "46" />
  <path
     style="fill:none;stroke:#000000;stroke-width:2;stroke-opacity:1"
     d = "M 190.2273,281.5212 192.4827,257.0771 193.4568,235.2888 195.0487,216.0591 196.5079,195.2603 196.6692,173.0813 195.3994,150.1379 193.6702,125.6891 192.5212,102.3143 195.1254,84.42314 199.1478,70.27835 201.9837,57.18083 203.9042,47.97927 "
id = "47" />
  <path
     style="fill:none;stroke:#000000;stroke-width:2;stroke-opacity:1"
     d = "M 192.6243,281.5078 195.0641,257.2009 196.6946,235.339 198.768,215.4599 200.429,194.2864 201.6906,171.6501 201.5534,147.9813 199.8239,122.2464 198.5426,99.23599 201.5056,82.11436 206.0114,68.49899 209.5906,54.64878 211.2973,47.96315 "
id = "48" />
  <path
     style="fill:none;stroke:#000000;stroke-width:2;stroke-opacity:1"
     d = "M 195.003,281.5499 197.6806,257.3658 199.9231,235.372 202.5478,214.9413 204.3475,193.3056 206.6145,170.1802 207.2785,146.48 205.2989,120.415 203.8766,98.00955 207.0454,81.85838 211.9104,68.73312 216.1893,54.32091 217.9607,47.96296 "
id = "49" />
  <path
     style="fill:none;stroke:#000000;stroke-width:2;stroke-opacity:1"
     d = "M 197.3801,281.6472 200.379,257.6047 203.1572,235.3661 206.3286,214.427 208.3552,192.274 211.4006,168.622 212.5961,145.1171 210.5836,119.2747 208.9341,97.4187 212.3319,82.16529 217.6498,69.58696 222.0748,54.9272 224.0117,47.99263 "
id = "50" />
  <path
     style="fill:none;stroke:#000000;stroke-width:2;stroke-opacity:1"
     d = "M 200.3666,281.8479 203.8498,257.8896 207.2566,235.2271 210.6639,213.7324 213.0827,190.9079 217.1537,167.3157 218.5304,143.8443 215.6827,118.419 213.7798,97.33264 217.3129,82.64853 222.6901,70.01665 227.7076,55.34072 229.5956,47.97886 "
id = "51" />
  <path
     style="fill:none;stroke:#000000;stroke-width:2;stroke-opacity:1"
     d = "M 202.1423,282.0089 205.8918,258.0704 209.5272,235.1281 213.0351,213.3755 215.8547,190.2009 220.2835,166.7928 221.6781,143.3126 218.4212,117.9324 216.3832,97.18706 220.0547,82.85184 225.4617,70.09692 230.7712,55.24376 232.4569,47.93556 "
id = "52" />
  <path
     style="fill:none;stroke:#000000;stroke-width:2;stroke-opacity:1"
     d = "M 204.5068,282.2718 208.6625,258.307 212.6405,235.3056 216.2256,213.2359 219.6043,189.6928 224.2936,166.2651 225.7403,142.9899 221.9803,117.726 219.7098,97.22675 223.3744,83.26044 228.8874,70.33546 234.3445,55.2001 235.8056,47.94587 "
id = "53" />
  <path
     style="fill:none;stroke:#000000;stroke-width:2;stroke-opacity:1"
     d = "M 207.472,282.6804 212.0647,258.7487 216.4568,235.7346 220.384,213.633 224.5722,189.9767 229.5709,166.6262 231.404,143.7143 227.4233,119.1206 224.3046,98.14222 227.5108,84.14031 233.1418,71.03726 238.4348,55.57638 239.8345,47.90295 "
id = "54" />
  <path
     style="fill:none;stroke:#000000;stroke-width:2;stroke-opacity:1"
     d = "M 209.2321,282.9649 214.0468,259.0556 218.6343,236.013 222.8006,213.95 227.4804,190.2383 232.6011,167.1166 234.7287,144.3724 230.7411,120.1557 227.1196,98.80742 230.024,84.64516 235.5957,71.32591 240.6961,55.63451 242.0267,47.94889 "
id = "55" />
  <path
     style="fill:none;stroke:#000000;stroke-width:2;stroke-opacity:1"
     d = "M 211.5725,283.392 216.6957,259.4617 221.4771,236.3939 225.862,214.3709 231.233,190.5733 236.6676,167.8243 239.2677,145.4744 235.3349,121.5965 231.3284,99.959 233.7081,85.51749 238.9492,71.77577 243.5229,55.69552 244.8393,47.90594 "
id = "56" />
  <path
     style="fill:none;stroke:#000000;stroke-width:2;stroke-opacity:1"
     d = "M 214.502,284.0065 219.8437,260.1602 224.9454,237.072 229.4959,215.0575 235.4176,191.2461 241.3367,169.04 244.3474,147.1923 241.0659,123.7732 237.1634,101.8817 238.6129,86.4883 243.0817,72.39156 246.8477,56.05627 248.1928,47.96744 "
id = "57" />
  <path
     style="fill:none;stroke:#000000;stroke-width:2;stroke-opacity:1"
     d = "M 216.2379,284.413 221.6889,260.6014 226.9714,237.6071 231.596,215.6972 237.8855,192.0357 244.1071,170.0046 247.3759,148.5939 244.5029,125.5368 240.6024,103.3043 241.2933,87.38506 245.2165,73.36363 248.649,57.3175 250.1754,47.94086 "
id = "58" />
  <path
     style="fill:none;stroke:#000000;stroke-width:2;stroke-opacity:1"
     d = "M 218.5429,285.0024 224.1063,261.2493 229.6099,238.4006 234.371,216.7256 241.0015,193.3827 247.6798,171.5908 251.4845,150.7849 249.4538,128.2831 245.416,105.6408 244.8587,88.94307 247.9624,75.06104 250.9577,59.45758 252.8179,47.90639 "
id = "59" />
  <path
     style="fill:none;stroke:#000000;stroke-width:2;stroke-opacity:1"
     d = "M 221.4224,285.8197 227.195,262.0179 233.0375,239.4292 238.2478,218.3091 245.0856,195.4802 252.4149,173.9684 256.799,153.9694 256.6264,131.8582 253.4619,109.3336 251.3742,91.0704 253.1612,76.86138 255.1572,61.21178 257.0751,47.94949 "
id = "60" />
  <path
     style="fill:none;stroke:#000000;stroke-width:2;stroke-opacity:1"
     d = "M 223.1257,286.3463 229.0838,262.4998 235.1075,240.0658 240.6342,219.233 247.6596,196.8977 255.1068,175.4232 259.9152,155.8821 261.1753,134.0381 258.9662,111.5453 256.5422,92.88195 257.5398,77.91153 258.8027,62.00357 260.6314,47.92188 "
id = "61" />
  <path
     style="fill:none;stroke:#000000;stroke-width:2;stroke-opacity:1"
     d = "M 225.384,287.0952 231.6451,263.1441 238.0779,241.0408 244.1257,220.6766 251.4893,199.0334 259.2264,177.7787 264.6711,158.5603 268.0264,137.2767 267.9109,115.1153 266.3194,96.18314 266.1105,79.7328 266.6573,62.50466 268.4023,47.90862 "
id = "62" />
  <path
     style="fill:none;stroke:#000000;stroke-width:2;stroke-opacity:1"
     d = "M 228.1995,288.1113 234.9073,264.1207 242.2841,242.4014 249.2084,222.62 257.3288,202.1792 265.5528,181.1887 272.1349,162.3956 277.8832,142.0803 280.8848,120.2306 282.5704,101.0309 283.6586,83.73114 285.7848,64.33393 288.8325,47.91449 "
id = "63" />
  <path
     style="fill:none;stroke:#000000;stroke-width:2;stroke-opacity:1"
     d = "M 229.8619,288.7555 236.9149,264.7642 244.9136,243.2162 252.3635,223.7071 260.9851,203.9023 269.1715,183.3222 276.4545,164.7835 283.1389,144.8476 286.9265,123.2706 290.3742,104.39 293.1956,86.38323 297.9671,65.77885 302.6671,47.98916 "
id = "64" />
  <path
     style="fill:none;stroke:#000000;stroke-width:2;stroke-opacity:1"
     d = "M 232.0624,289.6599 239.6503,265.7048 248.4529,244.4096 256.615,225.3691 265.8176,205.8467 274.1147,186.0892 282.3908,168.1176 289.8489,148.766 295.2548,128.0925 300.1964,109.6983 305.4885,91.42245 313.1992,69.10795 320.8347,47.94382 "
id = "65" />
  <path
     style="fill:none;stroke:#000000;stroke-width:2;stroke-opacity:1"
     d = "M 234.2576,290.6226 242.4985,266.8086 252.0297,245.7894 261.0259,227.2631 270.5737,207.9805 279.1136,188.9745 288.5685,171.6091 296.7724,152.5846 303.0336,132.0996 308.7948,113.7707 316.0309,95.84527 325.9723,73.3915 336.0237,51.37738 "
id = "66" />
  <path
     style="fill:none;stroke:#000000;stroke-width:2;stroke-opacity:1"
     d = "M 236.4136,291.6286 245.3156,268.1169 255.5649,247.1802 265.4416,228.9705 274.7921,210.2744 283.311,192.2233 293.6808,175.1682 302.8247,156.3519 310.2145,135.6174 316.8112,116.7544 326.4164,97.94646 336.0024,81.31023 "
id = "67" />
  <path
     style="fill:none;stroke:#000000;stroke-width:2;stroke-opacity:1"
     d = "M 238.5457,292.6844 247.9878,269.411 258.9695,248.4831 269.4919,230.5272 278.7527,212.3823 287.1152,195.4167 298.0092,178.7936 308.1032,160.0146 316.1926,139.2767 323.6587,119.6868 335.2328,100.1281 336.0475,98.9897 "
id = "68" />
  <path
     style="fill:none;stroke:#000000;stroke-width:2;stroke-opacity:1"
     d = "M 240.6684,293.7978 250.6524,270.7079 262.3633,249.7589 273.5125,232.0878 282.765,214.671 291.0888,198.9312 301.7793,183.0244 312.9068,165.0196 321.9804,144.7554 330.263,124.6176 336.0013,115.9435 "
id = "69" />
  <path
     style="fill:none;stroke:#000000;stroke-width:2;stroke-opacity:1"
     d = "M 242.7489,294.9518 253.3039,272.0757 265.7106,251.0867 277.3529,233.6833 286.4281,217.1549 294.5732,202.5125 305.3263,187.8303 317.7853,170.995 328.5096,151.1505 336.0052,136.1157 "
id = "70" />
  <path
     style="fill:none;stroke:#000000;stroke-width:2;stroke-opacity:1"
     d = "M 244.8021,296.1537 255.8569,273.4281 269.0063,252.4762 281.0941,235.3236 289.9605,219.7736 298.0373,206.3207 308.8748,192.985 322.3221,177.7148 335.5679,158.7101 336.0148,157.9288 "
id = "71" />
  <path
     style="fill:none;stroke:#000000;stroke-width:2;stroke-opacity:1"
     d = "M 246.842,297.4125 258.3923,274.7928 272.3529,253.7887 284.9566,236.9323 293.4524,222.4416 301.4872,210.3421 311.9298,198.3091 325.754,184.8771 336.0069,172.727 "
id = "72" />
  <path
     style="fill:none;stroke:#000000;stroke-width:2;stroke-opacity:1"
     d = "M 248.837,298.7087 260.8258,276.2709 275.562,255.2128 288.6065,238.3561 296.7569,225.0001 304.5501,214.2014 314.4389,203.7095 328.2469,191.9266 336.0346,184.0169 "
id = "73" />
  <path
     style="fill:none;stroke:#000000;stroke-width:2;stroke-opacity:1"
     d = "M 250.8013,300.0509 263.152,277.9248 278.7226,256.79 292.3026,239.709 300.2939,227.5451 307.8566,218.051 317.3123,209.2077 330.5628,199.4136 336.0555,194.9155 "
id = "74" />
  <path
     style="fill:none;stroke:#000000;stroke-width:2;stroke-opacity:1"
     d = "M 252.7484,301.4489 265.3979,279.5789 281.6495,258.4084 295.4746,241.1102 303.5035,229.7715 311.1178,221.5271 320.4528,213.8031 333.1439,205.9886 336.0534,204.0431 "
id = "75" />
  <path
     style="fill:none;stroke:#000000;stroke-width:2;stroke-opacity:1"
     d = "M 254.6481,302.8812 267.5562,281.3441 284.2848,260.2166 298.3391,242.7329 306.4229,232.1294 314.1412,224.9218 323.3008,218.3167 335.4888,212.1422 336.0197,211.8625 "
id = "76" />
  <path
     style="fill:none;stroke:#000000;stroke-width:2;stroke-opacity:1"
     d = "M 256.5141,304.3572 269.888,283.3226 287.1862,262.4324 301.3732,244.7632 309.5352,234.8443 317.182,228.5215 326.0146,223.3707 336.0737,219.437 "
id = "77" />
  <path
     style="fill:none;stroke:#000000;stroke-width:2;stroke-opacity:1"
     d = "M 258.3453,305.8761 272.3163,285.4434 290.0971,264.7977 304.4078,247.1622 312.7534,237.7833 320.4995,232.2508 329.0605,228.4266 336.0691,226.3882 "
id = "78" />
  <path
     style="fill:none;stroke:#000000;stroke-width:2;stroke-opacity:1"
     d = "M 260.1541,307.4489 274.6165,287.6688 292.6945,267.2951 307.3646,249.6424 315.979,240.9843 324.1067,236.5009 332.7332,234.0067 336.0732,233.3717 "
id = "79" />
  <path
     style="fill:none;stroke:#000000;stroke-width:2;stroke-opacity:1"
     d = "M 261.9125,309.0515 276.8658,289.9716 294.9477,269.8924 310.0756,252.2032 319.1271,243.9306 327.6077,240.1187 336.0245,238.3563 "
id = "80" />
  <path
     style="fill:none;stroke:#000000;stroke-width:2;stroke-opacity:1"
     d = "M 263.6461,310.7069 279.1855,292.4052 297.2752,272.8351 312.6889,255.0833 322.3238,246.9776 331.3936,243.4581 336.0595,242.8894 "
id = "81" />
  <path
     style="fill:none;stroke:#000000;stroke-width:2;stroke-opacity:1"
     d = "M 265.328,312.3896 281.5117,294.8451 299.8271,275.8087 315.3506,258.204 325.6884,249.9632 335.1906,246.8048 336.0874,246.7283 "
id = "82" />
  <path
     style="fill:none;stroke:#000000;stroke-width:2;stroke-opacity:1"
     d = "M 266.9704,314.1109 283.8342,297.2824 302.3285,278.8109 317.915,261.4199 328.8983,252.8616 336.0783,250.6907 "
id = "83" />
  <path
     style="fill:none;stroke:#000000;stroke-width:2;stroke-opacity:1"
     d = "M 268.5843,315.8832 286.1548,299.863 304.7535,282.2861 320.5326,265.3862 332.1981,256.3081 336.025,255.1423 "
id = "84" />
  <path
     style="fill:none;stroke:#000000;stroke-width:2;stroke-opacity:1"
     d = "M 270.1447,317.6791 288.3336,302.4143 306.8544,286.145 322.7946,270.2018 335.0977,260.6743 336.0356,260.3274 "
id = "85" />
  <path
     style="fill:none;stroke:#000000;stroke-width:2;stroke-opacity:1"
     d = "M 271.663,319.5108 290.3858,304.9904 308.7823,290.201 324.6672,275.5808 336.0617,266.6112 "
id = "86" />
  <path
     style="fill:none;stroke:#000000;stroke-width:2;stroke-opacity:1"
     d = "M 273.1493,321.3914 292.2472,307.6897 310.4185,294.6495 325.9154,281.7415 336.0683,273.7853 "
id = "87" />
  <path
     style="fill:none;stroke:#000000;stroke-width:2;stroke-opacity:1"
     d = "M 274.5807,323.2918 293.9795,310.3731 311.9066,299.1501 327.0869,288.3176 336.0522,281.6047 "
id = "88" />
  <path
     style="fill:none;stroke:#000000;stroke-width:2;stroke-opacity:1"
     d = "M 275.9675,325.2249 295.6085,313.1778 313.2099,303.609 327.9335,294.9446 336.0114,289.3969 "
id = "89" />
  <path
     style="fill:none;stroke:#000000;stroke-width:2;stroke-opacity:1"
     d = "M 277.319,327.2046 297.1535,316.0669 314.4809,308.0001 328.4426,301.0697 336.0159,296.5902 "
id = "90" />
  <path
     style="fill:none;stroke:#000000;stroke-width:2;stroke-opacity:1"
     d = "M 278.6143,329.2002 298.525,318.9083 315.531,312.2897 328.9124,306.7303 336.0582,303.3599 "
id = "91" />
  <path
     style="fill:none;stroke:#000000;stroke-width:2;stroke-opacity:1"
     d = "M 279.8629,331.2254 299.9486,321.6874 316.7665,316.3492 329.7193,311.926 336.0901,309.5479 "
id = "92" />
  <path
     style="fill:none;stroke:#000000;stroke-width:2;stroke-opacity:1"
     d = "M 281.073,333.2945 301.2875,324.5377 318.1338,320.1723 331.0009,316.5518 336.0489,314.936 "
id = "93" />
  <path
     style="fill:none;stroke:#000000;stroke-width:2;stroke-opacity:1"
     d = "M 282.2259,335.3756 302.63,327.3965 319.4675,323.8248 332.5328,320.8732 336.0705,319.7903 "
id = "94" />
  <path
     style="fill:none;stroke:#000000;stroke-width:2;stroke-opacity:1"
     d = "M 283.3302,337.4829 303.8796,330.2501 320.8621,327.3977 334.1899,325.1256 336.0182,324.6084 "
id = "95" />
  <path
     style="fill:none;stroke:#000000;stroke-width:2;stroke-opacity:1"
     d = "M 284.3931,339.6314 304.9753,333.0951 322.1576,330.8011 335.7462,328.98 336.0358,328.9021 "
id = "96" />
  <path
     style="fill:none;stroke:#000000;stroke-width:2;stroke-opacity:1"
     d = "M 285.398,341.7879 305.9472,335.8732 323.2426,334.1302 336.0528,332.6106 "
id = "97" />
  <path
     style="fill:none;stroke:#000000;stroke-width:2;stroke-opacity:1"
     d = "M 286.3526,343.9671 306.8416,338.5928 324.3073,337.2514 336.0468,336.0666 "
id = "98" />
  <path
     style="fill:none;stroke:#000000;stroke-width:2;stroke-opacity:1"
     d = "M 287.2563,346.1679 307.6903,341.2567 325.1844,340.2321 336.0318,339.1809 "
id = "99" />
  <path
     style="fill:none;stroke:#000000;stroke-width:2;stroke-opacity:1"
     d = "M 288.1151,348.4059 308.5965,343.837 325.951,342.939 336.0956,341.89 "
id = "100" />
  <path
     style="fill:none;stroke:#000000;stroke-width:2;stroke-opacity:1"
     d = "M 288.9153,350.6464 309.5014,346.4103 326.8236,345.4728 336.0674,344.4425 "
id = "101" />
  <path
     style="fill:none;stroke:#000000;stroke-width:2;stroke-opacity:1"
     d = "M 289.848,353.4906 310.4712,349.6332 327.7823,348.2924 336.022,347.2843 "
id = "102" />
  <path
     style="fill:none;stroke:#000000;stroke-width:2;stroke-opacity:1"
     d = "M 290.3639,355.1972 310.9854,351.5996 328.3513,350.0317 336.0875,349.0367 "
id = "103" />
  <path
     style="fill:none;stroke:#000000;stroke-width:2;stroke-opacity:1"
     d = "M 291.0059,357.4881 311.6622,354.2245 329.3364,352.4935 336.0704,351.5472 "
id = "104" />
  <path
     style="fill:none;stroke:#000000;stroke-width:2;stroke-opacity:1"
     d = "M 291.7378,360.3904 312.5563,357.4427 330.7324,355.3787 336.0734,354.5778 "
id = "105" />
  <path
     style="fill:none;stroke:#000000;stroke-width:2;stroke-opacity:1"
     d = "M 292.1334,362.1289 313.0953,359.3315 331.6037,357.0846 336.0504,356.3938 "
id = "106" />
  <path
     style="fill:none;stroke:#000000;stroke-width:2;stroke-opacity:1"
     d = "M 292.614,364.459 313.7767,361.9131 332.6595,359.4892 336.0203,358.9756 "
id = "107" />
  <path
     style="fill:none;stroke:#000000;stroke-width:2;stroke-opacity:1"
     d = "M 293.1418,367.4053 314.6549,365.3047 333.8674,362.8809 336.0421,362.5486 "
id = "108" />
  <path
     style="fill:none;stroke:#000000;stroke-width:2;stroke-opacity:1"
     d = "M 293.4151,369.1671 315.0992,367.4375 334.5623,365.1207 336.0464,364.9041 "
id = "109" />
  <path
     style="fill:none;stroke:#000000;stroke-width:2;stroke-opacity:1"
     d = "M 293.7321,371.525 315.62,370.5028 335.4283,368.5791 336.023,368.4997 "
id = "110" />
  <path
     style="fill:none;stroke:#000000;stroke-width:2;stroke-opacity:1"
     d = "M 294.053,374.501 316.1428,374.2695 336.0075,373.1156 "
id = "111" />
  <path
     style="fill:none;stroke:#000000;stroke-width:2;stroke-opacity:1"
     d = "M 294.2028,376.2776 316.4121,376.4912 336.0013,375.7794 "
id = "112" />
  <path
     style="fill:none;stroke:#000000;stroke-width:2;stroke-opacity:1"
     d = "M 294.3545,378.6519 316.7206,379.4529 336.0218,379.3057 "
id = "113" />
  <path
     style="fill:none;stroke:#000000;stroke-width:2;stroke-opacity:1"
     d = "M 294.467,381.643 317.0812,383.1366 336.0766,383.4961 "
id = "114" />
  <path
     style="fill:none;stroke:#000000;stroke-width:2;stroke-opacity:1"
     d = "M 294.4925,383.4257 317.2722,385.415 336.0619,386.006 "
id = "115" />
  <path
     style="fill:none;stroke:#000000;stroke-width:2;stroke-opacity:1"
     d = "M 294.4782,385.8048 317.4922,388.4586 336.0707,389.3895 "
id = "116" />
  <path
     style="fill:none;stroke:#000000;stroke-width:2;stroke-opacity:1"
     d = "M 294.3818,388.7965 317.6329,392.4001 336.0719,393.8736 "
id = "117" />
  <path
     style="fill:none;stroke:#000000;stroke-width:2;stroke-opacity:1"
     d = "M 294.2829,390.5766 317.5525,394.7721 336.0628,396.5941 "
id = "118" />
  <path
     style="fill:none;stroke:#000000;stroke-width:2;stroke-opacity:1"
     d = "M 294.1027,392.9489 317.4055,397.9985 336.0689,400.2762 "
id = "119" />
  <path
     style="fill:none;stroke:#000000;stroke-width:2;stroke-opacity:1"
     d = "M 293.7979,395.9266 317.1985,402.1007 336.0782,404.986 "
id = "120" />
  <path
     style="fill:none;stroke:#000000;stroke-width:2;stroke-opacity:1"
     d = "M 293.575,397.6955 317.0316,404.4456 336.056,407.6792 "
id = "121" />
  <path
     style="fill:none;stroke:#000000;stroke-width:2;stroke-opacity:1"
     d = "M 293.2297,400.0495 316.8454,407.5396 336.0014,411.1875 "
id = "122" />
  <path
     style="fill:none;stroke:#000000;stroke-width:2;stroke-opacity:1"
     d = "M 292.7179,402.9987 316.4019,411.3718 336.086,415.4386 "
id = "123" />
  <path
     style="fill:none;stroke:#000000;stroke-width:2;stroke-opacity:1"
     d = "M 292.3722,404.7477 316.0832,413.5629 336.0424,417.7901 "
id = "124" />
  <path
     style="fill:none;stroke:#000000;stroke-width:2;stroke-opacity:1"
     d = "M 291.8636,407.0718 315.5842,416.4212 336.0071,420.8476 "
id = "125" />
  <path
     style="fill:none;stroke:#000000;stroke-width:2;stroke-opacity:1"
     d = "M 291.1473,409.9781 314.7679,419.8562 336.0504,424.5864 "
id = "126" />
  <path
     style="fill:none;stroke:#000000;stroke-width:2;stroke-opacity:1"
     d = "M 290.6804,411.6988 314.1306,421.8611 336.0758,426.8187 "
id = "127" />
  <path
     style="fill:none;stroke:#000000;stroke-width:2;stroke-opacity:1"
     d = "M 290.0109,413.9817 313.2127,424.662 336.0759,430.1053 "
id = "128" />
  <path
     style="fill:none;stroke:#000000;stroke-width:2;stroke-opacity:1"
     d = "M 289.283,416.2655 312.1916,427.5001 336.0273,433.5886 "
id = "129" />
  <path
     style="fill:none;stroke:#000000;stroke-width:2;stroke-opacity:1"
     d = "M 288.5079,418.5149 310.9123,430.314 334.7342,436.9505 336.0351,437.4679 "
id = "130" />
  <path
     style="fill:none;stroke:#000000;stroke-width:2;stroke-opacity:1"
     d = "M 287.6808,420.7456 309.4266,433.1635 332.249,440.1702 336.0715,441.6529 "
id = "131" />
  <path
     style="fill:none;stroke:#000000;stroke-width:2;stroke-opacity:1"
     d = "M 286.7953,422.9731 307.8344,435.9046 329.3773,443.4645 336.0878,446.0748 "
id = "132" />
  <path
     style="fill:none;stroke:#000000;stroke-width:2;stroke-opacity:1"
     d = "M 285.8651,425.1628 306.0222,438.5993 326.0907,446.7946 336.0435,450.7228 "
id = "133" />
  <path
     style="fill:none;stroke:#000000;stroke-width:2;stroke-opacity:1"
     d = "M 284.8844,427.3304 304.0235,441.2591 322.6285,449.9294 336.0452,455.4297 "
id = "134" />
  <path
     style="fill:none;stroke:#000000;stroke-width:2;stroke-opacity:1"
     d = "M 283.8458,429.4907 301.9247,443.8767 319.0585,453.0656 336.0249,460.6945 "
id = "135" />
  <path
     style="fill:none;stroke:#000000;stroke-width:2;stroke-opacity:1"
     d = "M 282.7651,431.6103 299.8067,446.3321 315.496,456.1391 331.3995,463.9464 336.0787,467.0208 "
id = "136" />
  <path
     style="fill:none;stroke:#000000;stroke-width:2;stroke-opacity:1"
     d = "M 281.6356,433.7042 297.657,448.6685 312.0134,458.9919 326.5401,467.3088 336.0299,473.8049 "
id = "137" />
  <path
     style="fill:none;stroke:#000000;stroke-width:2;stroke-opacity:1"
     d = "M 280.4488,435.7867 295.4097,451.0157 308.6436,461.718 321.8784,470.8053 335.9246,481.1302 336.0019,481.1936 "
id = "138" />
  <path
     style="fill:none;stroke:#000000;stroke-width:2;stroke-opacity:1"
     d = "M 279.2229,437.8257 293.3599,453.1589 305.5677,464.0629 317.7094,474.002 330.8731,484.5884 336.0482,488.8434 "
id = "139" />
  <path
     style="fill:none;stroke:#000000;stroke-width:2;stroke-opacity:1"
     d = "M 277.95,439.8358 291.3289,455.2892 302.472,466.4629 313.4786,477.179 325.6842,488.5363 336.0228,497.3725 "
id = "140" />
  <path
     style="fill:none;stroke:#000000;stroke-width:2;stroke-opacity:1"
     d = "M 276.6208,441.8305 289.1463,457.3935 299.2498,468.9793 309.0138,480.3777 320.0687,492.6465 335.1866,506.554 336.0668,507.2136 "
id = "141" />
  <path
     style="fill:none;stroke:#000000;stroke-width:2;stroke-opacity:1"
     d = "M 275.2557,443.779 286.8205,459.465 296.0133,471.5754 304.6831,483.5874 314.7027,496.6729 329.8025,512.2196 336.0342,517.3958 "
id = "142" />
  <path
     style="fill:none;stroke:#000000;stroke-width:2;stroke-opacity:1"
     d = "M 273.8458,445.6953 284.4263,461.5404 292.6104,474.1126 300.1607,486.5657 309.6589,500.4818 325.1506,517.443 336.0044,527.2096 "
id = "143" />
  <path
     style="fill:none;stroke:#000000;stroke-width:2;stroke-opacity:1"
     d = "M 272.3806,447.5925 281.9225,463.756 288.8856,476.6686 295.5522,489.1625 304.9744,503.4263 320.8627,521.4344 336.0321,535.9565 "
id = "144" />
  <path
     style="fill:none;stroke:#000000;stroke-width:2;stroke-opacity:1"
     d = "M 270.8829,449.441 279.5081,465.9165 285.4819,479.1415 291.7022,491.4867 301.1613,505.942 317.605,524.5043 336.0029,543.1661 "
id = "145" />
  <path
     style="fill:none;stroke:#000000;stroke-width:2;stroke-opacity:1"
     d = "M 269.3427,451.2543 277.2422,467.8632 282.6181,481.2236 288.7349,493.4566 298.3521,508.0576 315.1091,526.8823 334.2646,547.3491 336.0583,548.9443 "
id = "146" />
  <path
     style="fill:none;stroke:#000000;stroke-width:2;stroke-opacity:1"
     d = "M 267.7489,453.0446 275.0013,469.6726 280.0417,483.0547 286.2501,495.1285 296.0446,509.81 312.8508,528.646 331.882,549.733 336.0397,553.7758 "
id = "147" />
  <path
     style="fill:none;stroke:#000000;stroke-width:2;stroke-opacity:1"
     d = "M 266.1259,454.7841 272.7633,471.4872 277.6427,484.7652 283.9196,496.8773 294.0224,511.5212 310.7368,530.3295 329.7848,551.8579 336.0111,558.4952 "
id = "148" />
  <path
     style="fill:none;stroke:#000000;stroke-width:2;stroke-opacity:1"
     d = "M 264.463,456.4856 270.5884,473.0362 275.4109,486.2496 281.7581,498.4642 291.9853,512.8949 308.4517,531.6851 327.5011,553.4955 336.0085,563.458 "
id = "149" />
  <path
     style="fill:none;stroke:#000000;stroke-width:2;stroke-opacity:1"
     d = "M 262.748,458.1604 268.4344,474.381 273.3067,487.3119 279.5638,499.537 289.7819,513.6749 305.7995,532.4496 324.7857,554.5001 336.0098,568.696 "
id = "150" />
  <path
     style="fill:none;stroke:#000000;stroke-width:2;stroke-opacity:1"
     d = "M 261.0077,459.7825 266.3487,475.5494 271.1187,488.1446 277.0911,500.2451 287.0638,514.0245 302.408,532.6676 321.3338,554.8693 334.2913,572.2567 336.006,574.2117 "
id = "151" />
  <path
     style="fill:none;stroke:#000000;stroke-width:2;stroke-opacity:1"
     d = "M 259.2301,461.3638 264.4085,476.6153 269.0755,488.9462 274.8579,500.8499 284.5315,514.4295 299.2666,532.8503 318.1503,555.0581 331.0555,573.071 336.0605,579.1851 "
id = "152" />
  <path
     style="fill:none;stroke:#000000;stroke-width:2;stroke-opacity:1"
     d = "M 257.4025,462.9149 262.3416,477.6453 266.9553,489.7486 272.5703,501.442 281.9174,514.7518 296.0977,532.9716 314.682,555.0637 327.7978,573.6601 336.03,584.6141 "
id = "153" />
  <path
     style="fill:none;stroke:#000000;stroke-width:2;stroke-opacity:1"
     d = "M 255.5532,464.4116 260.2931,478.6424 264.8684,490.5274 270.347,502.1536 279.5098,515.2757 293.28,533.3026 311.3991,555.2804 324.6447,574.4796 335.0567,589.5605 336.0001,590.5944 "
id = "154" />
  <path
     style="fill:none;stroke:#000000;stroke-width:2;stroke-opacity:1"
     d = "M 253.6697,465.8651 258.1361,479.6194 262.761,491.4473 268.1474,503.041 277.1736,516.113 290.6493,534.0434 308.2932,556.0931 321.4629,575.696 331.593,591.4752 336.0341,596.4929 "
id = "155" />
  <path
     style="fill:none;stroke:#000000;stroke-width:2;stroke-opacity:1"
     d = "M 251.7529,467.2744 255.9466,480.5144 260.6135,492.4194 266.043,504.0601 275.0704,517.2725 288.2963,535.1779 305.4116,557.2672 318.3568,577.062 328.099,593.36 336.0628,602.6008 "
id = "156" />
  <path
     style="fill:none;stroke:#000000;stroke-width:2;stroke-opacity:1"
     d = "M 249.7892,468.649 253.7999,481.5733 258.6485,493.6544 264.2496,505.4276 273.3575,518.9135 286.3815,537.0776 302.9698,559.0964 315.3879,578.7452 324.6348,595.3085 335.7274,608.7006 336.037,608.954 "
id = "157" />
  <path
     style="fill:none;stroke:#000000;stroke-width:2;stroke-opacity:1"
     d = "M 247.8088,469.9675 251.7829,482.8787 256.778,495.044 262.6248,506.9259 271.8376,520.785 284.674,539.3523 300.5253,561.2809 312.2153,580.8607 321.0478,597.6504 331.6269,611.2009 336.0418,615.1153 "
id = "158" />
  <path
     style="fill:none;stroke:#000000;stroke-width:2;stroke-opacity:1"
     d = "M 245.7832,471.2492 249.8157,484.3109 254.8964,496.5704 260.9991,508.7325 270.369,523.1695 283.0417,542.246 297.582,564.1854 308.2678,583.7867 316.9643,600.4082 327.2716,614.246 336.0643,622.4125 "
id = "159" />
  <path
     style="fill:none;stroke:#000000;stroke-width:2;stroke-opacity:1"
     d = "M 243.7436,472.474 247.7987,485.6349 253.0097,498.0412 259.1419,510.5144 268.5708,525.479 280.896,544.9286 293.9794,566.7395 303.9879,586.4905 312.5247,603.2971 322.8202,617.3683 336.0369,630.3197 "
id = "160" />
  <path
     style="fill:none;stroke:#000000;stroke-width:2;stroke-opacity:1"
     d = "M 241.6761,473.6512 245.8002,486.8961 251.1643,499.4485 257.3539,512.3835 266.7359,527.9937 278.5912,547.7348 290.3647,569.412 299.6062,589.4187 307.5245,606.2619 318.0885,620.6662 330.8421,633.9141 336.04,639.3203 "
id = "161" />
  <path
     style="fill:none;stroke:#000000;stroke-width:2;stroke-opacity:1"
     d = "M 239.566,474.7884 243.9355,488.0747 249.3839,500.7564 255.653,514.2338 264.7125,530.5677 275.8108,550.6617 286.1385,572.2469 294.3248,592.5096 302.3738,609.4175 312.9206,623.7506 325.6335,636.9438 336.0252,649.237 "
id = "162" />
  <path
     style="fill:none;stroke:#000000;stroke-width:2;stroke-opacity:1"
     d = "M 237.4459,475.8679 242.089,489.2237 247.7182,502.1954 254.1006,516.298 262.7438,533.4424 272.9124,553.9943 281.7413,575.607 288.7433,596.17 296.8919,612.8446 307.6534,627.1147 320.5146,640.9951 334.5448,658.3877 336.0016,661.459 "
id = "163" />
  <path
     style="fill:none;stroke:#000000;stroke-width:2;stroke-opacity:1"
     d = "M 235.3013,476.898 240.1856,490.4286 246.016,503.7341 252.4441,518.5312 260.6412,536.571 269.9564,557.5966 277.3746,579.3762 283.0947,599.9705 291.4888,616.6508 303.1894,631.1339 316.6777,646.0573 330.4935,664.0568 336.035,677.3459 "
id = "164" />
  <path
     style="fill:none;stroke:#000000;stroke-width:2;stroke-opacity:1"
     d = "M 233.1171,477.8852 238.2645,491.601 244.1934,505.3255 250.6509,520.85 258.211,539.5812 266.5355,561.0298 272.6574,583.1329 277.2727,603.8119 285.8298,621.4829 298.5765,635.9835 313.0491,651.5029 326.5933,669.8632 334.5755,691.0346 336.012,697.9855 "
id = "165" />
  <path
     style="fill:none;stroke:#000000;stroke-width:2;stroke-opacity:1"
     d = "M 230.9268,478.8143 236.2892,492.8188 242.259,507.0577 248.6113,523.3823 255.5245,542.5833 262.8936,564.7034 267.9219,587.3743 272.3476,608.1773 281.8805,626.4713 296.1171,641.8901 311.0918,658.0557 323.2105,676.4194 330.3856,695.6149 334.6229,714.0334 336.0128,718.5228 "
id = "166" />
  <path
     style="fill:none;stroke:#000000;stroke-width:2;stroke-opacity:1"
     d = "M 228.7156,479.6922 234.1438,494.0647 239.983,508.8746 246.1114,526.1176 252.2136,545.7693 258.4429,568.4394 262.4214,591.7685 266.9359,613.1061 277.1695,631.7944 292.9328,648.9177 308.5156,665.3293 319.8081,681.9855 326.4619,698.9552 330.0832,716.003 331.2483,720.0379 "
id = "167" />
  <path
     style="fill:none;stroke:#000000;stroke-width:2;stroke-opacity:1"
     d = "M 226.4678,480.5247 231.8535,495.2047 237.3682,510.6218 243.0103,528.5231 248.2896,548.4341 253.3289,571.2816 256.8283,595.2237 261.0661,617.0981 270.9487,636.7862 286.4969,656.283 301.9683,672.744 312.7589,686.5665 319.0647,700.2257 321.955,714.2173 323.3246,720.0584 "
id = "168" />
  <path
     style="fill:none;stroke:#000000;stroke-width:2;stroke-opacity:1"
     d = "M 224.2181,481.2987 229.4731,496.296 234.4135,512.217 239.3689,530.5446 244.0032,550.6901 248.0855,573.4722 250.9185,597.5142 255.1169,619.6893 265.0769,640.6766 280.0053,661.9739 293.9568,678.688 303.0707,689.4267 309.3385,699.1385 312.4306,709.6078 315.0047,720.0953 "
id = "169" />
  <path
     style="fill:none;stroke:#000000;stroke-width:2;stroke-opacity:1"
     d = "M 221.951,482.0203 227.0003,497.489 231.2915,513.9673 235.3677,532.6732 239.2383,552.6275 242.7001,574.8091 245.1483,598.5866 248.5607,620.7994 258.1742,642.6192 272.6019,665.199 284.9098,681.7117 293.0544,691.0888 299.1334,698.4997 303.3969,706 306.6953,714.3427 308.6619,720.0116 "
id = "170" />
  <path
     style="fill:none;stroke:#000000;stroke-width:2;stroke-opacity:1"
     d = "M 219.6506,482.6939 224.371,498.7769 227.9917,515.8712 231.2455,534.9452 234.0531,554.4387 237.1645,575.755 239.5352,598.8558 242.0463,620.8926 250.4333,643.259 263.8173,667.4613 274.4521,684.1498 281.7314,693.0951 286.6841,699.6766 290.3625,705.2465 294.0482,710.9854 298.0411,717.3149 299.3613,720.0084 "
id = "171" />
  <path
     style="fill:none;stroke:#000000;stroke-width:2;stroke-opacity:1"
     d = "M 217.3524,483.3091 221.7311,499.9489 224.7577,517.7697 227.1317,537.0164 228.874,555.8439 231.7251,576.268 233.8045,598.5677 235.6251,620.472 242.9824,643.2131 256.3344,669.1141 265.9055,686.8807 271.9004,696.4973 275.8591,704.1107 279.2811,710.8077 283.5685,717.1949 285.6151,720.034 "
id = "172" />
  <path
     style="fill:none;stroke:#000000;stroke-width:2;stroke-opacity:1"
     d = "M 215.0405,483.8708 219.0702,501.0631 221.4866,519.611 222.9032,538.6658 223.5486,556.688 225.8667,576.2764 227.8264,597.9811 229.3127,619.7208 235.9445,642.3637 248.6192,668.679 258.1348,688.2714 263.1653,698.8092 266.4418,707.7399 269.4642,716.3078 271.3881,720.0428 "
id = "173" />
  <path
     style="fill:none;stroke:#000000;stroke-width:2;stroke-opacity:1"
     d = "M 212.6987,484.3823 216.3559,502.097 218.1658,521.3255 218.3449,539.8572 218.2561,557.0479 219.8646,575.5945 221.4557,596.5169 222.5687,618.0402 228.5865,640.2598 240.6013,666.3976 250.9742,687.9416 255.3177,699.3172 258.1157,708.4733 260.7865,717.7781 261.5987,720.0369 "
id = "174" />
  <path
     style="fill:none;stroke:#000000;stroke-width:2;stroke-opacity:1"
     d = "M 210.3632,484.8357 213.6201,502.9915 214.934,522.6231 214.1913,540.7233 213.441,557.2954 214.2659,574.9031 215.3654,595.0549 216.5787,616.502 222.5187,638.6291 233.9332,664.5794 244.7135,687.2671 249.2722,699.2566 251.6145,708.7596 253.4923,718.5012 253.9168,720.0441 "
id = "175" />
  <path
     style="fill:none;stroke:#000000;stroke-width:2;stroke-opacity:1"
     d = "M 208.0178,485.2347 210.7831,503.829 211.454,523.7058 209.7273,541.2912 208.3333,557.1563 208.5792,573.7543 209.1824,593.2508 210.501,614.8914 216.6021,637.2367 227.3013,663.209 238.4125,687.0732 243.8125,699.7656 245.8068,709.727 247.0858,720.0483 "
id = "176" />
  <path
     style="fill:none;stroke:#000000;stroke-width:2;stroke-opacity:1"
     d = "M 205.646,485.5817 207.8672,504.5697 207.7736,524.5558 205.08,541.6662 203.033,556.7963 202.1815,572.6082 202.1358,591.7487 202.8876,613.3863 209.3933,636.7808 219.3456,662.7961 230.2809,686.6227 237.0424,699.6471 239.2569,710.2823 240.2125,720.0381 "
id = "177" />
  <path
     style="fill:none;stroke:#000000;stroke-width:2;stroke-opacity:1"
     d = "M 203.2845,485.871 205.0764,505.2405 204.323,525.2109 200.8218,541.7954 197.83,556.5206 195.7303,572.1432 194.5168,591.4521 194.842,613.9838 202.2306,638.9657 212.1994,665.5507 222.2557,687.8018 229.6899,700.4998 232.7283,711.5217 233.3779,720.0986 "
id = "178" />
  <path
     style="fill:none;stroke:#000000;stroke-width:2;stroke-opacity:1"
     d = "M 200.9169,486.1055 202.3247,505.762 200.9031,525.6519 196.5507,541.8444 192.7015,556.3925 189.2931,572.1074 186.9488,591.7637 187.2904,615.3182 194.7486,641.7072 203.779,668.6436 211.9222,689.0873 219.3965,701.1354 224.0634,711.9404 225.6085,720.0966 "
id = "179" />
  <path
     style="fill:none;stroke:#000000;stroke-width:2;stroke-opacity:1"
     d = "M 198.5267,486.2861 199.5084,506.1656 197.3113,525.98 192.1742,541.9285 187.4146,556.5743 182.9313,572.4185 179.4139,592.4298 179.6416,616.7926 186.3784,644.3862 194.0304,671.7532 199.5947,690.8502 205.0257,703.7324 210.1263,715.067 211.3986,720.007 "
id = "180" />
  <path
     style="fill:none;stroke:#000000;stroke-width:2;stroke-opacity:1"
     d = "M 196.1508,486.4101 196.7561,506.5772 193.7684,526.3224 187.8178,542.2553 181.9308,557.0464 176.6335,573.4061 172.1171,593.6769 172.3903,618.7854 178.4348,647.5203 183.6233,674.7142 185.8539,693.0133 189.23,707.2113 192.8687,720.0048 "
id = "181" />
  <path
     style="fill:none;stroke:#000000;stroke-width:2;stroke-opacity:1"
     d = "M 193.7727,486.4788 193.9738,507.0278 190.1916,526.8735 183.6056,542.7602 177.008,557.8231 170.9581,574.6595 166.1362,595.224 166.3443,620.3877 171.5365,649.7225 174.3342,676.1133 174.8727,694.2993 176.7319,709.4696 178.2748,720.056 "
id = "182" />
  <path
     style="fill:none;stroke:#000000;stroke-width:2;stroke-opacity:1"
     d = "M 191.3758,486.4922 191.1762,507.4312 186.7797,527.3679 179.6711,543.3119 172.7169,558.7753 166.3969,576.1206 161.6921,596.8542 161.6353,621.8988 166.0839,651.3577 167.3796,676.9957 167.563,695.5284 168.3632,711.4634 168.6231,720.0613 "
id = "183" />
  <path
     style="fill:none;stroke:#000000;stroke-width:2;stroke-opacity:1"
     d = "M 188.997,486.4501 188.3365,507.6333 183.6342,527.6027 176.201,543.6716 169.0012,559.3369 162.592,577.0715 157.8824,597.6368 157.3418,622.1694 160.9446,650.9329 161.7933,676.2909 161.341,695.4551 161.4501,712.2053 161.045,720.0938 "
id = "184" />
  <path
     style="fill:none;stroke:#000000;stroke-width:2;stroke-opacity:1"
     d = "M 186.6199,486.3528 185.4453,507.7253 180.5343,527.7292 172.8159,543.806 165.5274,559.6871 159.1509,577.6577 154.4921,597.6834 153.297,621.4765 155.7341,649.0385 155.8976,674.0798 154.9881,694.2906 154.6395,711.7862 153.6389,720.0234 "
id = "185" />
  <path
     style="fill:none;stroke:#000000;stroke-width:2;stroke-opacity:1"
     d = "M 184.2278,486.199 182.5769,507.7432 177.3504,527.709 169.3473,543.6267 161.895,559.676 155.4577,577.6816 150.847,596.8328 148.9037,619.3335 149.9731,645.198 149.0542,670.0625 147.6889,691.4501 146.3835,709.7626 144.2911,720.0549 "
id = "186" />
  <path
     style="fill:none;stroke:#000000;stroke-width:2;stroke-opacity:1"
     d = "M 181.8578,485.9911 179.7173,507.4869 174.08,527.3 165.8973,542.9534 158.4124,559.014 152.0289,576.7795 147.4483,594.826 145.056,615.5562 144.7897,639.8164 143.8772,664.3424 141.4552,686.822 139.3675,705.7398 135.3115,720.0814 "
id = "187" />
  <path
     style="fill:none;stroke:#000000;stroke-width:2;stroke-opacity:1"
     d = "M 179.4932,485.7282 176.7927,507.1041 170.751,526.5665 162.5086,542.1216 154.9285,558.1102 148.7225,575.4182 144.2879,592.2552 141.731,611.2159 140.3206,633.9841 138.9618,657.3137 135.0258,680.2895 131.6276,700.2523 125.5464,718.5823 124.9192,720.054 "
id = "188" />
  <path
     style="fill:none;stroke:#000000;stroke-width:2;stroke-opacity:1"
     d = "M 177.1177,485.4079 173.8553,506.7172 167.3106,525.6765 158.9695,541.2065 151.4761,557.2498 145.5556,573.8959 141.2886,589.599 138.542,606.9847 136.5067,627.6875 134.3833,649.6319 130.0735,672.4158 124.8995,693.6177 118.0145,712.4586 114.3501,720.0157 "
id = "189" />
  <path
     style="fill:none;stroke:#000000;stroke-width:2;stroke-opacity:1"
     d = "M 174.7679,485.0351 171.0082,506.2382 164.1751,524.808 155.6586,540.2518 148.3213,556.2909 142.806,572.3214 138.5948,587.0712 135.7622,603.0577 133.7393,621.7787 131.2689,642.8416 127.0892,664.7827 120.2227,686.5439 112.5831,707.0831 105.8675,720.0488 "
id = "190" />
  <path
     style="fill:none;stroke:#000000;stroke-width:2;stroke-opacity:1"
     d = "M 172.4275,484.6079 168.2762,505.6219 161.1464,523.8087 152.5294,539.1419 145.3732,554.9126 140.3767,570.3486 136.3641,584.4706 133.5374,599.2843 131.5105,616.4724 129.03,636.6583 124.5303,657.5805 116.7047,678.9027 107.8552,700.7217 98.52839,718.9446 97.95683,720 "
id = "191" />
  <path
     style="fill:none;stroke:#000000;stroke-width:2;stroke-opacity:1"
     d = "M 170.0801,484.1227 165.512,504.8091 157.9659,522.6202 149.307,537.7566 142.3562,553.2977 137.9365,568.2181 134.2215,581.8342 131.4645,595.6313 129.2289,611.531 126.8695,630.1544 122.0952,649.9771 114.2135,670.7191 103.4725,693.0618 93.38099,713.1039 89.58263,720.0328 "
id = "192" />
  <path
     style="fill:none;stroke:#000000;stroke-width:2;stroke-opacity:1"
     d = "M 167.762,483.587 162.7886,503.9565 154.7318,521.3961 146.141,536.2958 139.3103,551.4993 135.3277,565.9767 131.9621,579.2488 129.4647,592.3634 126.8739,606.9415 124.6099,624.0173 119.8718,643.0613 112.1178,662.9711 100.1152,685.0559 88.756,706.47 81.88497,720.0242 "
id = "193" />
  <path
     style="fill:none;stroke:#000000;stroke-width:2;stroke-opacity:1"
     d = "M 165.4571,482.9976 160.0307,503.015 151.5087,520.0294 142.961,534.6587 136.1992,549.3795 132.3685,563.5109 129.4167,576.4931 127.1461,589.0413 124.4751,602.4008 122.0712,617.9583 118.0907,636.0483 110.1424,655.2337 97.50694,676.6583 84.25038,698.9738 74.47739,719.0504 73.93776,720.0091 "
id = "194" />
  <path
     style="fill:none;stroke:#000000;stroke-width:2;stroke-opacity:1"
     d = "M 163.1492,482.3498 157.4271,502.0869 148.4677,518.6392 139.9148,532.8674 132.9365,546.833 129.0145,560.5712 126.1666,573.149 124.1327,585.2386 121.8981,597.5768 119.0572,611.5535 116.0211,628.0048 108.6386,646.2617 96.41783,666.457 81.79117,688.8312 70.62094,711.5119 66.05927,720.0728 "
id = "195" />
  <path
     style="fill:none;stroke:#000000;stroke-width:2;stroke-opacity:1"
     d = "M 160.8743,481.6537 154.8514,501.1641 145.5307,517.3043 136.9351,531.0814 129.7377,544.2961 125.4753,557.4442 122.4158,569.651 120.2083,581.2667 118.7843,592.881 116.1506,605.56 113.2777,620.4847 107.3962,637.7852 95.82866,656.7377 80.65021,678.4404 68.70621,701.8091 60.45698,720.0342 "
id = "196" />
  <path
     style="fill:none;stroke:#000000;stroke-width:2;stroke-opacity:1"
     d = "M 158.616,480.9048 152.2439,500.1742 142.5515,515.986 133.9529,529.2862 126.5574,541.8637 121.7854,554.3729 118.6164,566.1478 116.0546,577.242 114.7193,588.0514 112.9983,599.9252 109.9763,613.6919 105.0908,630.0419 94.62383,648.053 79.77439,669.1631 66.42213,691.7348 56.83159,714.7514 53.23442,720.0444 "
id = "197" />
  <path
     style="fill:none;stroke:#000000;stroke-width:2;stroke-opacity:1"
     d = "M 156.3758,480.1039 149.5384,499.1346 139.6069,514.7656 130.7859,527.8345 122.911,539.9192 117.7737,551.8722 114.0893,563.1724 111.1335,573.7081 109.596,583.9142 108.3201,595.5312 105.4658,609.031 100.8749,624.9496 90.92346,642.8532 76.29594,663.2963 62.46547,684.9885 52.36172,707.8716 47.98202,715.0391 "
id = "198" />
  <path
     style="fill:none;stroke:#000000;stroke-width:2;stroke-opacity:1"
     d = "M 154.1381,479.2445 146.7421,497.9561 136.4157,513.3183 127.0491,526.0964 118.6869,538.012 113.0431,550.1303 109.0898,561.1196 105.4655,571.601 102.9332,581.3416 100.8961,592.6772 97.41459,606.874 91.79986,623.5998 80.7933,642.3433 65.15743,662.6993 52.52993,683.7388 47.9827,693.8672 "
id = "199" />
  <path
     style="fill:none;stroke:#000000;stroke-width:2;stroke-opacity:1"
     d = "M 151.9376,478.3401 143.7953,496.6034 132.9145,511.4558 122.8207,524.0684 114.1844,536.4312 108.1436,548.8788 103.6231,560.1255 99.16367,570.982 95.36348,581.4243 91.67255,594.1119 86.80499,609.8528 78.54601,628.0422 64.06158,648.1589 48.79628,668.1528 47.98034,669.6439 "
id = "200" />
  <path
     style="fill:none;stroke:#000000;stroke-width:2;stroke-opacity:1"
     d = "M 149.1998,477.13 140.0479,494.8757 128.4351,509.0605 117.6987,521.8995 109.3242,535.0146 102.5833,548.0505 96.76477,559.9701 91.14972,571.7928 85.6566,583.8765 79.44649,598.6081 71.63295,615.8037 58.45282,635.717 47.98551,648.2126 "
id = "201" />
  <path
     style="fill:none;stroke:#000000;stroke-width:2;stroke-opacity:1"
     d = "M 147.5864,476.3714 137.8245,493.7958 125.8011,507.769 114.8181,520.8255 106.3411,534.3634 99.00961,547.8582 92.3887,560.361 85.92615,572.9814 79.33842,586.4744 71.93671,602.2379 61.56359,620.4497 47.9872,637.6393 "
id = "202" />
  <path
     style="fill:none;stroke:#000000;stroke-width:2;stroke-opacity:1"
     d = "M 145.4543,475.3156 134.8721,492.285 122.3442,506.0682 111.0204,519.4464 102.2609,533.7615 94.15063,547.8375 86.27293,561.3474 78.6485,575.2986 70.57124,590.1457 61.19944,606.8498 47.94919,625.5231 "
id = "203" />
  <path
     style="fill:none;stroke:#000000;stroke-width:2;stroke-opacity:1"
     d = "M 142.8076,473.9175 131.3834,490.543 118.4131,504.3121 106.8875,518.3676 97.59911,533.5284 88.78612,548.3536 79.89855,563.0505 71.1547,578.1776 62.00581,593.9101 49.97107,610.9805 47.97574,613.3531 "
id = "204" />
  <path
     style="fill:none;stroke:#000000;stroke-width:2;stroke-opacity:1"
     d = "M 141.251,473.0482 129.4269,489.5906 116.189,503.4422 104.616,517.8659 94.91795,533.5231 85.67996,548.8455 76.41898,564.0222 67.39372,579.4794 57.63247,595.7111 47.97688,608.0917 "
id = "205" />
  <path
     style="fill:none;stroke:#000000;stroke-width:2;stroke-opacity:1"
     d = "M 139.1979,471.8463 126.8846,488.3132 113.298,502.3956 101.6203,517.3016 91.46408,533.5865 81.55585,549.4949 71.94693,565.2552 62.84979,581.0645 52.24244,597.3525 47.97785,602.256 "
id = "206" />
  <path
     style="fill:none;stroke:#000000;stroke-width:2;stroke-opacity:1"
     d = "M 136.6552,470.267 123.9623,486.6573 109.7804,501.1784 97.77879,516.7095 87.22342,533.7816 76.62244,550.4026 66.87469,566.7813 57.52648,582.8813 47.95947,595.4565 "
id = "207" />
  <path
     style="fill:none;stroke:#000000;stroke-width:2;stroke-opacity:1"
     d = "M 135.163,469.2913 122.2217,485.6602 107.6764,500.5466 95.53759,516.5413 84.81588,534.0359 73.90783,551.0025 64.16077,567.6719 54.30694,583.7065 47.97874,591.4518 "
id = "208" />
  <path
     style="fill:none;stroke:#000000;stroke-width:2;stroke-opacity:1"
     d = "M 133.1986,467.949 119.8819,484.3627 104.8179,499.7896 92.48314,516.4502 81.58446,534.3103 70.50588,551.6307 60.81906,568.578 50.49844,584.5895 47.98138,587.4354 "
id = "209" />
  <path
     style="fill:none;stroke:#000000;stroke-width:2;stroke-opacity:1"
     d = "M 130.7723,466.1962 116.9513,482.6972 101.2047,498.7939 88.71908,516.2267 77.69701,534.563 66.8606,552.3372 57.25513,569.2996 47.99084,583.0789 "
id = "210" />
  <path
     style="fill:none;stroke:#000000;stroke-width:2;stroke-opacity:1"
     d = "M 129.3519,465.1188 115.317,481.6072 99.15482,498.0094 86.59615,515.786 75.62808,534.4108 64.90027,552.421 55.3434,569.3667 47.97219,580.0784 "
id = "211" />
  <path
     style="fill:none;stroke:#000000;stroke-width:2;stroke-opacity:1"
     d = "M 127.4859,463.6428 113.197,480.0427 96.51319,496.8799 83.96025,515.0684 73.13768,534.053 62.45992,552.2754 52.94544,569.185 47.98774,576.2134 "
id = "212" />
  <path
     style="fill:none;stroke:#000000;stroke-width:2;stroke-opacity:1"
     d = "M 125.1877,461.7249 110.7002,478.0795 93.47046,495.2932 80.97249,513.8764 70.27614,533.1234 59.68471,551.3922 50.21262,568.295 47.94844,571.4704 "
id = "213" />
  <path
     style="fill:none;stroke:#000000;stroke-width:2;stroke-opacity:1"
     d = "M 123.8459,460.551 109.2244,476.8645 91.85445,494.2005 79.42774,512.9581 68.64298,532.2624 58.19072,550.4227 48.7713,567.2444 47.96199,568.3868 "
id = "214" />
  <path
     style="fill:none;stroke:#000000;stroke-width:2;stroke-opacity:1"
     d = "M 122.0875,458.9485 107.2812,475.1452 89.85977,492.6179 77.49877,511.4434 66.45602,530.5966 56.18801,548.5655 47.97192,563.1005 "
id = "215" />
  <path
     style="fill:none;stroke:#000000;stroke-width:2;stroke-opacity:1"
     d = "M 119.9287,456.8751 104.9006,472.8721 87.52145,490.427 75.18739,509.2584 64.02083,528.0506 53.86781,545.6757 47.95313,556.5742 "
id = "216" />
  <path
     style="fill:none;stroke:#000000;stroke-width:2;stroke-opacity:1"
     d = "M 118.672,455.6104 103.49,471.4167 86.2394,488.9124 73.75357,507.6066 62.54445,526.1353 52.57542,543.5323 47.99774,552.1994 "
id = "217" />
  <path
     style="fill:none;stroke:#000000;stroke-width:2;stroke-opacity:1"
     d = "M 117.0296,453.889 101.6933,469.2605 84.70168,486.6259 71.92625,504.9355 60.71153,522.904 50.9334,539.9713 47.98323,545.7635 "
id = "218" />
  <path
     style="fill:none;stroke:#000000;stroke-width:2;stroke-opacity:1"
     d = "M 115.0207,451.67 99.54503,466.4163 82.81902,483.3908 69.73513,500.965 58.68147,518.3123 48.88721,534.8756 47.96132,536.761 "
id = "219" />
  <path
     style="fill:none;stroke:#000000;stroke-width:2;stroke-opacity:1"
     d = "M 113.8553,450.3208 98.3927,464.7189 81.83223,481.2977 68.48067,498.3033 57.49712,515.3743 47.99263,531.1307 "
id = "220" />
  <path
     style="fill:none;stroke:#000000;stroke-width:2;stroke-opacity:1"
     d = "M 112.337,448.4892 97.04398,462.3213 80.66016,478.2681 66.83472,494.4802 55.88961,510.9871 47.94868,523.2399 "
id = "221" />
  <path
     style="fill:none;stroke:#000000;stroke-width:2;stroke-opacity:1"
     d = "M 110.4878,446.1354 95.50011,459.1732 79.09135,474.5093 64.87806,489.6273 53.48236,505.0472 47.96822,512.5368 "
id = "222" />
  <path
     style="fill:none;stroke:#000000;stroke-width:2;stroke-opacity:1"
     d = "M 109.4194,444.7082 94.59878,457.3491 78.16531,472.3153 63.83144,486.7324 52.01586,501.3878 47.99977,506.2424 "
id = "223" />
  <path
     style="fill:none;stroke:#000000;stroke-width:2;stroke-opacity:1"
     d = "M 108.0325,442.775 93.52246,454.9193 77.09432,469.2837 62.61543,482.8438 50.25658,496.3176 47.98146,498.7084 "
id = "224" />
  <path
     style="fill:none;stroke:#000000;stroke-width:2;stroke-opacity:1"
     d = "M 106.352,440.2981 92.28083,451.7396 76.0013,465.2335 61.14395,477.7701 48.40972,489.6935 47.96132,490.0921 "
id = "225" />
  <path
     style="fill:none;stroke:#000000;stroke-width:2;stroke-opacity:1"
     d = "M 105.3857,438.7997 91.61243,449.7083 75.52269,462.5775 60.25605,474.5191 47.98378,484.9402 "
id = "226" />
  <path
     style="fill:none;stroke:#000000;stroke-width:2;stroke-opacity:1"
     d = "M 104.1371,436.7746 90.79558,446.928 75.06956,458.9147 59.61923,470.0372 47.93489,478.6218 "
id = "227" />
  <path
     style="fill:none;stroke:#000000;stroke-width:2;stroke-opacity:1"
     d = "M 102.6335,434.1864 89.78959,443.3666 74.83707,454.3456 59.23209,464.5057 47.98861,471.6087 "
id = "228" />
  <path
     style="fill:none;stroke:#000000;stroke-width:2;stroke-opacity:1"
     d = "M 101.7741,432.6244 89.13866,441.3295 74.65253,451.744 59.10034,461.446 47.93911,467.9141 "
id = "229" />
  <path
     style="fill:none;stroke:#000000;stroke-width:2;stroke-opacity:1"
     d = "M 100.6698,430.5171 88.4494,438.6603 74.46622,448.2483 59.23775,457.4064 47.92352,463.1735 "
id = "230" />
  <path
     style="fill:none;stroke:#000000;stroke-width:2;stroke-opacity:1"
     d = "M 99.35037,427.8303 87.47005,435.341 74.04462,444.0504 59.32144,452.268 47.93863,457.1874 "
id = "231" />
  <path
     style="fill:none;stroke:#000000;stroke-width:2;stroke-opacity:1"
     d = "M 98.60202,426.2121 86.81651,433.3659 73.8166,441.5013 59.53357,449.0882 47.95351,453.5233 "
id = "232" />
  <path
     style="fill:none;stroke:#000000;stroke-width:2;stroke-opacity:1"
     d = "M 97.6474,424.0328 85.97745,430.6988 73.5287,438.1207 59.91808,445.0175 47.946,448.9474 "
id = "233" />
  <path
     style="fill:none;stroke:#000000;stroke-width:2;stroke-opacity:1"
     d = "M 96.5186,421.2606 84.94669,427.127 73.18908,433.6255 60.50182,439.8067 47.94834,443.1829 "
id = "234" />
  <path
     style="fill:none;stroke:#000000;stroke-width:2;stroke-opacity:1"
     d = "M 95.88495,419.5941 84.24899,424.9499 72.72212,430.8468 60.47136,436.4646 47.92734,439.4762 "
id = "235" />
  <path
     style="fill:none;stroke:#000000;stroke-width:2;stroke-opacity:1"
     d = "M 95.0847,417.3537 83.33879,422.0733 71.93628,427.1872 59.90441,431.9046 47.93264,434.2539 "
id = "236" />
  <path
     style="fill:none;stroke:#000000;stroke-width:2;stroke-opacity:1"
     d = "M 94.15203,414.5094 82.27127,418.474 70.93585,422.6625 58.93338,426.0825 47.99104,427.2071 "
id = "237" />
  <path
     style="fill:none;stroke:#000000;stroke-width:2;stroke-opacity:1"
     d = "M 93.63617,412.8028 81.61957,416.4323 70.15777,420.0748 58.0486,422.7738 47.95107,423.005 "
id = "238" />
  <path
     style="fill:none;stroke:#000000;stroke-width:2;stroke-opacity:1"
     d = "M 92.99414,410.5119 80.7616,413.6872 69.12868,416.6303 56.8242,418.1316 47.9593,417.3412 "
id = "239" />
  <path
     style="fill:none;stroke:#000000;stroke-width:2;stroke-opacity:1"
     d = "M 92.26215,407.6095 79.69246,410.114 67.65318,412.1553 54.71629,411.8364 47.97853,410.3498 "
id = "240" />
  <path
     style="fill:none;stroke:#000000;stroke-width:2;stroke-opacity:1"
     d = "M 91.86658,405.8711 79.03587,407.9636 66.61621,409.4635 53.09939,408.4044 47.90402,406.9312 "
id = "241" />
  <path
     style="fill:none;stroke:#000000;stroke-width:2;stroke-opacity:1"
     d = "M 91.38594,403.541 77.9076,405.2159 64.90834,405.8783 50.62613,404.0009 47.90649,402.9946 "
id = "242" />
  <path
     style="fill:none;stroke:#000000;stroke-width:2;stroke-opacity:1"
     d = "M 90.85818,400.5947 76.43453,401.8753 62.45897,401.5475 47.94035,398.6749 "
id = "243" />
  <path
     style="fill:none;stroke:#000000;stroke-width:2;stroke-opacity:1"
     d = "M 90.58485,398.8329 75.58252,399.9042 60.99675,399.1039 47.95937,396.0083 "
id = "244" />
  <path
     style="fill:none;stroke:#000000;stroke-width:2;stroke-opacity:1"
     d = "M 90.26791,396.4749 74.47305,397.2559 59.03713,395.7996 47.94748,392.7534 "
id = "245" />
  <path
     style="fill:none;stroke:#000000;stroke-width:2;stroke-opacity:1"
     d = "M 89.94698,393.499 73.06227,393.8904 56.3961,391.5249 47.9196,388.8116 "
id = "246" />
  <path
     style="fill:none;stroke:#000000;stroke-width:2;stroke-opacity:1"
     d = "M 89.79721,391.7224 72.27435,391.8897 54.88805,389.0708 47.98888,386.6848 "
id = "247" />
  <path
     style="fill:none;stroke:#000000;stroke-width:2;stroke-opacity:1"
     d = "M 89.64552,389.3481 71.26785,389.2082 53.02692,385.9572 47.98275,384.0291 "
id = "248" />
  <path
     style="fill:none;stroke:#000000;stroke-width:2;stroke-opacity:1"
     d = "M 89.53297,386.3569 70.05674,385.7857 50.66093,381.7796 47.99484,380.6389 "
id = "249" />
  <path
     style="fill:none;stroke:#000000;stroke-width:2;stroke-opacity:1"
     d = "M 89.50749,384.5742 69.32888,383.6887 49.29813,379.254 47.92627,378.6475 "
id = "250" />
  <path
     style="fill:none;stroke:#000000;stroke-width:2;stroke-opacity:1"
     d = "M 89.52179,382.1952 68.42439,380.886 47.97844,376.0923 "
id = "251" />
  <path
     style="fill:none;stroke:#000000;stroke-width:2;stroke-opacity:1"
     d = "M 89.61815,379.2035 67.56123,377.3752 47.9333,372.6038 "
id = "252" />
  <path
     style="fill:none;stroke:#000000;stroke-width:2;stroke-opacity:1"
     d = "M 89.71709,377.4234 67.15887,375.308 47.94441,370.5284 "
id = "253" />
  <path
     style="fill:none;stroke:#000000;stroke-width:2;stroke-opacity:1"
     d = "M 89.89732,375.051 66.75913,372.5878 47.97071,367.7567 "
id = "254" />
  <path
     style="fill:none;stroke:#000000;stroke-width:2;stroke-opacity:1"
     d = "M 90.20215,372.0733 66.39879,369.19 47.99709,364.0723 "
id = "255" />
  <path
     style="fill:none;stroke:#000000;stroke-width:2;stroke-opacity:1"
     d = "M 90.42502,370.3044 66.22054,367.1909 47.96945,361.9086 "
id = "256" />
  <path
     style="fill:none;stroke:#000000;stroke-width:2;stroke-opacity:1"
     d = "M 90.77028,367.9505 66.02711,364.6314 47.91615,359.227 "
id = "257" />
  <path
     style="fill:none;stroke:#000000;stroke-width:2;stroke-opacity:1"
     d = "M 91.17326,365.5876 65.90642,361.9866 47.93209,356.4788 "
id = "258" />
  <path
     style="fill:none;stroke:#000000;stroke-width:2;stroke-opacity:1"
     d = "M 91.62779,363.2523 65.86703,359.406 47.95725,353.6916 "
id = "259" />
  <path
     style="fill:none;stroke:#000000;stroke-width:2;stroke-opacity:1"
     d = "M 92.13643,360.9282 65.79929,356.8969 47.96983,350.9358 "
id = "260" />
  <path
     style="fill:none;stroke:#000000;stroke-width:2;stroke-opacity:1"
     d = "M 92.70324,358.5992 65.80489,354.3636 47.93682,348.2036 "
id = "261" />
  <path
     style="fill:none;stroke:#000000;stroke-width:2;stroke-opacity:1"
     d = "M 93.3196,356.3012 65.8952,351.8733 47.98348,345.5357 "
id = "262" />
  <path
     style="fill:none;stroke:#000000;stroke-width:2;stroke-opacity:1"
     d = "M 93.98909,354.0183 66.20554,349.3576 47.98103,342.709 "
id = "263" />
  <path
     style="fill:none;stroke:#000000;stroke-width:2;stroke-opacity:1"
     d = "M 94.71701,351.7344 66.80011,346.7159 47.9649,339.6986 "
id = "264" />
  <path
     style="fill:none;stroke:#000000;stroke-width:2;stroke-opacity:1"
     d = "M 95.49213,349.4851 67.57349,344.1118 47.95262,336.6265 "
id = "265" />
  <path
     style="fill:none;stroke:#000000;stroke-width:2;stroke-opacity:1"
     d = "M 96.31925,347.2545 68.42235,341.3265 47.97125,333.2162 "
id = "266" />
  <path
     style="fill:none;stroke:#000000;stroke-width:2;stroke-opacity:1"
     d = "M 97.20471,345.0269 69.46336,338.6176 47.94736,329.6796 "
id = "267" />
  <path
     style="fill:none;stroke:#000000;stroke-width:2;stroke-opacity:1"
     d = "M 98.13484,342.8372 70.72626,335.9932 47.99725,326.0711 "
id = "268" />
  <path
     style="fill:none;stroke:#000000;stroke-width:2;stroke-opacity:1"
     d = "M 99.11559,340.6696 72.02599,333.3883 47.98623,322.2361 "
id = "269" />
  <path
     style="fill:none;stroke:#000000;stroke-width:2;stroke-opacity:1"
     d = "M 48,48 336,48 336,720 48,720 48,48 "
id = "270" />
</svg>
