<?xml version="1.0" encoding="UTF-8" standalone="no"?>
<svg
   width="864"
   height="1152"
   version="1.1"
   id="svg2"
   sodipodi:docname="ObsoleteSweater0.svg"
   inkscape:version="1.2.1 (9c6d41e410, 2022-07-14)"
   xmlns:inkscape="http://www.inkscape.org/namespaces/inkscape"
   xmlns:sodipodi="http://sodipodi.sourceforge.net/DTD/sodipodi-0.dtd"
   xmlns="http://www.w3.org/2000/svg"
   xmlns:svg="http://www.w3.org/2000/svg">
  <sodipodi:namedview
     id="namedview17291"
     pagecolor="#ffffff"
     bordercolor="#000000"
     borderopacity="0.25"
     inkscape:showpageshadow="2"
     inkscape:pageopacity="0.0"
     inkscape:pagecheckerboard="0"
     inkscape:deskcolor="#d1d1d1"
     showgrid="false"
     inkscape:zoom="1.2607616"
     inkscape:cx="577.82535"
     inkscape:cy="298.23244"
     inkscape:window-width="2560"
     inkscape:window-height="1387"
     inkscape:window-x="-8"
     inkscape:window-y="-8"
     inkscape:window-maximized="1"
     inkscape:current-layer="svg2" />
  <defs
     id="defs6" />
  <path
     style="fill:none;stroke:#000000;stroke-width:2;stroke-opacity:1"
     d="M 314.5,76 314,76 313.5,76 313.5,76.5 313.5,77 313.5,77.5 313.5,78 313.5,78.5 313.5,79 313.5,79.5 313.5,80 313.5,80.5 313.5,81 313.5,81.5 313.5,82 314,82.5 314,83 314,83.5 314,84 314,84.5 314,85 314,85.5 314,86 314,86.5 314,87 314,87.5 314,88 314,88.5 314,89 314,89.5 314.5,90 314.5,90.5 314.5,91 314.5,91.5 314.5,92 314.5,92.5 314.5,93 314.5,93.5 314.5,94 314.5,94.5 314.5,95 314.5,95.5 314.5,96 314.5,96.5 314.5,97 315,97.5 315,98 315,98.5 315,99 315,99.5 315,100 315,100.5 315,101 315,101.5 315,102 315,102.5 315,103 315,103.5 315,104 315.5,104.5 315.5,105 315.5,105.5 315.5,106 315.5,106.5 315.5,107 315.5,107.5 315.5,108 315.5,108.5 315.5,109 315.5,109.5 315.5,110 315.5,110.5 315.5,111 316,111.5 316,112 316,112.5 316,113 316,113.5 316,114 316,114.5 316,115 316,115.5 316,116 316,116.5 316,117 316,117.5 316.5,118 316.5,118.5 316.5,119 316.5,119.5 316.5,120 316.5,120.5 316.5,121 316.5,121.5 316.5,122 316.5,122.5 316.5,123 316.5,123.5 316.5,124 317,124.5 317,125 317,125.5 317,126 317,126.5 317,127 317,127.5 317,128 317,128.5 317,129 317,129.5 317,130 317,130.5 317.5,131 317.5,131.5 317.5,132 317.5,132.5 317.5,133 317.5,133.5 317.5,134 317.5,134.5 317.5,135 317.5,135.5 317.5,136 317.5,136.5 317.5,137 318,137.5 318,138 318,138.5 318,139 318,139.5 318,140 318,140.5 318,141 318,141.5 318,142 318,142.5 318,143 318,143.5 318,144 317.5,144 317,144 316.5,144.5 316,144.5 315.5,144.5 315,145 314.5,145 314,145 313.5,145.5 313,145.5 312.5,146 312,146 311.5,146 311,146.5 310.5,146.5 310,147 309.5,147 309,147 308.5,147.5 308,147.5 307.5,148 307,148 306.5,148 306,148.5 305.5,148.5 305,148.5 304.5,149 304,149 303.5,149.5 303,149.5 302.5,149.5 302,150 301.5,150 301,150.5 300.5,150.5 300,150.5 299.5,151 299,151 298.5,151 298,151.5 297.5,151.5 297,152 296.5,152 296,152 295.5,152.5 295,152.5 294.5,152.5 294,153 293.5,153 293,153.5 292.5,153.5 292,153.5 291.5,154 291,154 290.5,154 290,154.5 289.5,154.5 289,154.5 288.5,155 288,155 287.5,155 287,155.5 286.5,155.5 286,156 285.5,156 285,156 284.5,156.5 284,156.5 283.5,156.5 283,157 282.5,157 282,157 281.5,157.5 281,157.5 280.5,157.5 280,158 279.5,158 279,158 278.5,158 278,158.5 277.5,158.5 277,158.5 276.5,159 276,159 275.5,159 275,159.5 274.5,159.5 274,159.5 274,160 274,160.5 274,161 274,161.5 274.5,162 274.5,162.5 274.5,163 274.5,163.5 274.5,164 274.5,164.5 274.5,165 274.5,165.5 274.5,166 274.5,166.5 274.5,167 274.5,167.5 275,168 275,168.5 275,169 275,169.5 275,170 275,170.5 275,171 275,171.5 275,172 275,172.5 275,173 275,173.5 275,174 275.5,174.5 275.5,175 275.5,175.5 275.5,176 275.5,176.5 275.5,177 275.5,177.5 275.5,178 275.5,178.5 275.5,179 275.5,179.5 275.5,180 275.5,180.5 276,181 276,181.5 276,182 276,182.5 276,183 276,183.5 276,184 276,184.5 276,185 276,185.5 276,186 276,186.5 276,187 276,187.5 276.5,188 276.5,188.5 276.5,189 276.5,189.5 276.5,190 276.5,190.5 276.5,191 276.5,191.5 276.5,192 276.5,192.5 276.5,193 276.5,193.5 276.5,194 276.5,194.5 276.5,195 276.5,195.5 277,196 277,196.5 277,197 277,197.5 277,198 277,198.5 277,199 277,199.5 277,200 277,200.5 277,201 277,201.5 277,202 277,202.5 277,203 277,203.5 277,204 277,204.5 277.5,205 277.5,205.5 277.5,206 277.5,206.5 277.5,207 277.5,207.5 277.5,208 277.5,208.5 277.5,209 277.5,209.5 277.5,210 277.5,210.5 277.5,211 277.5,211.5 277.5,212 277.5,212.5 277.5,213 277.5,213.5 277.5,214 277.5,214.5 277.5,215 277.5,215.5 277.5,216 278,216.5 278,217 278,217.5 278,218 278,218.5 278,219 278,219.5 278,220 278,220.5 278,221 278,221.5 278,222 278,222.5 278,223 278,223.5 278,224 278,224.5 278,225 278,225.5 278,226 277.5,226.5 277,226.5 276.5,227 276,227 275.5,227 275,227 274.5,227.5 274,227.5 273.5,227.5 273,228 272.5,228 272,228 271.5,228.5 271,228.5 270.5,228.5 270,229 269.5,229 269,229 268.5,229 268,229.5 267.5,229.5 267,229.5 266.5,230 266,230 265.5,230 265,230 264.5,230.5 264,230.5 263.5,230.5 263,231 262.5,231 262,231 261.5,231 261,231.5 260.5,231.5 260,231.5 259.5,231.5 259,232 258.5,232 258,232 257.5,232 257,232.5 256.5,232.5 256,232.5 255.5,232.5 255,232.5 254.5,233 254,233 253.5,233 253,233 252.5,233.5 252,233.5 251.5,233.5 251,233.5 250.5,233.5 250,234 249.5,234 249,234 248.5,234 248,234 247.5,234.5 247,234.5 246.5,234.5 246,234.5 245.5,234.5 245,234.5 244.5,235 244,235 243.5,235 243,235 242.5,235 242,235 241.5,235 241,235.5 240.5,235.5 240,235.5 239.5,235.5 239,235.5 238.5,235.5 238,235.5 237.5,235.5 237,235.5 236.5,236 236,236 235.5,236 235,236 234.5,236 234,236 233.5,236 233,236 232.5,236 232,236 231.5,236 231,236 230.5,236 230,236 229.5,236 229,236 228.5,236 228,236 228,236.5 228,237 228.5,237.5 228.5,238 228.5,238.5 228.5,239 228.5,239.5 228.5,240 228.5,240.5 228.5,241 228.5,241.5 228.5,242 229,242.5 229,243 229,243.5 229,244 229,244.5 229,245 229,245.5 229,246 229,246.5 229,247 229,247.5 229.5,248 229.5,248.5 229.5,249 229.5,249.5 229.5,250 229.5,250.5 229.5,251 229.5,251.5 229.5,252 229.5,252.5 229.5,253 229.5,253.5 230,254 230,254.5 230,255 230,255.5 230,256 230,256.5 230,257 230,257.5 230,258 230,258.5 230,259 230,259.5 230,260 230,260.5 230.5,261 230.5,261.5 230.5,262 230.5,262.5 230.5,263 230.5,263.5 230.5,264 230.5,264.5 230.5,265 230.5,265.5 230.5,266 230.5,266.5 230.5,267 230.5,267.5 230.5,268 230.5,268.5 231,269 231,269.5 231,270 231,270.5 231,271 231,271.5 231,272 231,272.5 231,273 231,273.5 231,274 231,274.5 231,275 231,275.5 231,276 231,276.5 231,277 231,277.5 231,278 231,278.5 231,279 231,279.5 231.5,280 231.5,280.5 231.5,281 231.5,281.5 231.5,282 231.5,282.5 231.5,283 231.5,283.5 231.5,284 231.5,284.5 231.5,285 231.5,285.5 231.5,286 231.5,286.5 231.5,287 231.5,287.5 231.5,288 231.5,288.5 231.5,289 231.5,289.5 231.5,290 231.5,290.5 231.5,291 231.5,291.5 231.5,292 231.5,292.5 231.5,293 231.5,293.5 231.5,294 231.5,294.5 231.5,295 231.5,295.5 231.5,296 231.5,296.5 231.5,297 231.5,297.5 231.5,298 231.5,298.5 231.5,299 231.5,299.5 231.5,300 231.5,300.5 231.5,301 231.5,301.5 231.5,302 232,302 232.5,302 233,301.5 233.5,301.5 234,301.5 234.5,301.5 235,301 235.5,301 236,301 236.5,301 237,300.5 237.5,300.5 238,300.5 238.5,300.5 239,300 239.5,300 240,300 240.5,300 241,299.5 241.5,299.5 242,299.5 242.5,299 243,299 243.5,299 244,299 244.5,298.5 245,298.5 245.5,298.5 246,298 246.5,298 247,298 247.5,297.5 248,297.5 248.5,297.5 249,297 249.5,297 250,297 250.5,297 251,296.5 251.5,296.5 252,296.5 252.5,296 253,296 253.5,296 254,295.5 254.5,295.5 255,295.5 255.5,295 256,295 256.5,295 257,294.5 257.5,294.5 258,294.5 258.5,294 259,294 259.5,294 260,293.5 260.5,293.5 261,293.5 261.5,293 262,293 262.5,292.5 263,292.5 263.5,292.5 264,292 264.5,292 265,292 265.5,291.5 266,291.5 266.5,291.5 267,291 267.5,291 268,291 268.5,290.5 269,290.5 269.5,290.5 270,290 270.5,290 271,290 271.5,289.5 272,289.5 272.5,289 273,289 273.5,289 274,288.5 274.5,288.5 275,288.5 275.5,288 276,288 276.5,288 277,287.5 277,287 277,286.5 277,286 277,285.5 277,285 277,284.5 277,284 277,283.5 277,283 277,282.5 277,282 277,281.5 277,281 277,280.5 277,280 277,279.5 277,279 277,278.5 277,278 277.5,277.5 277.5,277 277.5,276.5 277.5,276 277.5,275.5 277.5,275 277.5,274.5 277.5,274 277.5,273.5 277.5,273 277.5,272.5 277.5,272 277.5,271.5 277.5,271 277.5,270.5 277.5,270 277.5,269.5 277.5,269 277.5,268.5 277.5,268 277.5,267.5 277.5,267 277.5,266.5 277.5,266 277.5,265.5 277.5,265 277.5,264.5 277.5,264 277.5,263.5 277.5,263 277.5,262.5 277.5,262 277.5,261.5 277.5,261 277.5,260.5 277.5,260 277.5,259.5 277.5,259 277.5,258.5 277.5,258 277.5,257.5 278,257 278,256.5 278,256 278,255.5 278,255 278,254.5 278,254 278,253.5 278,253 278,252.5 278,252 278,251.5 278,251 278,250.5 278,250 278,249.5 278,249 278,248.5 278,248 278,247.5 278,247 278,246.5 278,246 278,245.5 278,245 278,244.5 278,244 278,243.5 278,243 278,242.5 278,242 278,241.5 278,241 278,240.5 278,240 278,239.5 278,239 278,238.5 278,238 278,237.5 278,237 278,236.5 278,236 278,235.5 277.5,235 277.5,234.5 277.5,234 277.5,233.5 277.5,233 277.5,232.5 277.5,232 277.5,231.5 277.5,231 277.5,230.5 277.5,230 277.5,229.5 277.5,229 277.5,228.5 277.5,228 277.5,227.5 277.5,227 278.5,225.5 279,225.5 279.5,225.5 280,225 280.5,225 281,225 281.5,224.5 282,224.5 282.5,224.5 283,224 283.5,224 284,224 284.5,223.5 285,223.5 285.5,223.5 286,223 286.5,223 287,223 287.5,222.5 288,222.5 288.5,222.5 289,222 289.5,222 290,221.5 290.5,221.5 291,221.5 291.5,221 292,221 292.5,221 293,220.5 293.5,220.5 294,220.5 294.5,220 295,220 295.5,220 296,219.5 296.5,219.5 297,219.5 297.5,219 298,219 298.5,218.5 299,218.5 299.5,218.5 300,218 300.5,218 301,218 301.5,217.5 302,217.5 302.5,217.5 303,217 303.5,217 304,217 304.5,216.5 305,216.5 305.5,216 306,216 306.5,216 307,215.5 307.5,215.5 308,215.5 308.5,215 309,215 309.5,215 310,214.5 310.5,214.5 311,214 311.5,214 312,214 312.5,213.5 313,213.5 313.5,213.5 314,213 314.5,213 315,213 315.5,212.5 316,212.5 316.5,212 317,212 317.5,212 318,211.5 318.5,211.5 319,211.5 319.5,211 320,211 320.5,211 321,210.5 321.5,210.5 322,210 322,209.5 322,209 322,208.5 322,208 322,207.5 322,207 322,206.5 322,206 322,205.5 322,205 322,204.5 321.5,204 321.5,203.5 321.5,203 321.5,202.5 321.5,202 321.5,201.5 321.5,201 321.5,200.5 321.5,200 321.5,199.5 321.5,199 321.5,198.5 321.5,198 321.5,197.5 321.5,197 321.5,196.5 321.5,196 321.5,195.5 321.5,195 321.5,194.5 321.5,194 321,193.5 321,193 321,192.5 321,192 321,191.5 321,191 321,190.5 321,190 321,189.5 321,189 321,188.5 321,188 321,187.5 321,187 321,186.5 321,186 321,185.5 321,185 320.5,184.5 320.5,184 320.5,183.5 320.5,183 320.5,182.5 320.5,182 320.5,181.5 320.5,181 320.5,180.5 320.5,180 320.5,179.5 320.5,179 320.5,178.5 320.5,178 320.5,177.5 320.5,177 320,176.5 320,176 320,175.5 320,175 320,174.5 320,174 320,173.5 320,173 320,172.5 320,172 320,171.5 320,171 320,170.5 320,170 319.5,169.5 319.5,169 319.5,168.5 319.5,168 319.5,167.5 319.5,167 319.5,166.5 319.5,166 319.5,165.5 319.5,165 319.5,164.5 319.5,164 319.5,163.5 319.5,163 319,162.5 319,162 319,161.5 319,161 319,160.5 319,160 319,159.5 319,159 319,158.5 319,158 319,157.5 319,157 319,156.5 318.5,156 318.5,155.5 318.5,155 318.5,154.5 318.5,154 318.5,153.5 318.5,153 318.5,152.5 318.5,152 318.5,151.5 318.5,151 318.5,150.5 318.5,150 318,149.5 318,149 318,148.5 318,148 318,147.5 318,147 318,146.5 318,146 318,145.5 318,145 318,144.5 318.5,143 319,143 319.5,142.5 320,142.5 320.5,142 321,142 321.5,142 322,141.5 322.5,141.5 323,141.5 323.5,141 324,141 324.5,140.5 325,140.5 325.5,140.5 326,140 326.5,140 327,140 327.5,139.5 328,139.5 328.5,139.5 329,139 329.5,139 330,139 330.5,138.5 331,138.5 331.5,138.5 332,138 332.5,138 333,138 333.5,137.5 334,137.5 334.5,137.5 335,137 335.5,137 336,137 336.5,136.5 337,136.5 337.5,136.5 338,136 338.5,136 339,136 339.5,136 340,135.5 340.5,135.5 341,135.5 341.5,135 342,135 342.5,135 343,135 343.5,134.5 344,134.5 344.5,134.5 345,134.5 345.5,134 346,134 346.5,134 347,134 347.5,134 348,133.5 348.5,133.5 349,133.5 349.5,133.5 350,133 350.5,133 351,133 351.5,133 352,133 352.5,133 353,132.5 353.5,132.5 354,132.5 354.5,132.5 355,132.5 355.5,132.5 356,132 356.5,132 357,132 357.5,132 358,132 358.5,132 359,132 359.5,132 360,131.5 360.5,131.5 361,131.5 361.5,131.5 362,131.5 362.5,131.5 363,131.5 363.5,131.5 364,131.5 364.5,131.5 365,131.5 367,131.5 367.5,131.5 368,131.5 368.5,131.5 369,131.5 369.5,131.5 370,131.5 370.5,131.5 371,131.5 371.5,131.5 372,131.5 372.5,131.5 373,131.5 373.5,131.5 374,131.5 374.5,131.5 375,131.5 375.5,131.5 376,131.5 376.5,131.5 377,131.5 377.5,131.5 378,131.5 378.5,131.5 379,131.5 379.5,132 380,132 380.5,132 381,132 381.5,132 382,132 382.5,132 383,132 383.5,132 384,132 384.5,132 385,132 385.5,132.5 386,132.5 386.5,132.5 387,132.5 387.5,132.5 388,132.5 388.5,132.5 389,132.5 389.5,133 390,133 390.5,133 391,133 391.5,133 392,133 392.5,133 393,133.5 393.5,133.5 394,133.5 394.5,133.5 395,133.5 395.5,133.5 396,134 396.5,134 397,134 397.5,134 398,134 398.5,134.5 399,134.5 399.5,134.5 400,134.5 400.5,134.5 401,135 401.5,135 402,135 402.5,135 403,135 403.5,135.5 404,135.5 404.5,135.5 405,135.5 405.5,136 406,136 406.5,136 407,136 407.5,136 408,136.5 408.5,136.5 409,136.5 409.5,136.5 410,137 410.5,137 411,137 411.5,137 412,137.5 412.5,137.5 413,137.5 413.5,137.5 414,138 414.5,138 415,138 415.5,138.5 416,138.5 416.5,138.5 417,138.5 417.5,139 418,139 418.5,139 419,139 419.5,139.5 420,139.5 420.5,139.5 421,140 421.5,140 422,140 422.5,140 423,140.5 423.5,140.5 424,140.5 424.5,141 425,141 425.5,141 426,141 426.5,141.5 427,141.5 427.5,141.5 428,142 428.5,142 429,142 429.5,142 430,142.5 430.5,142.5 431,142.5 431.5,143 432,143 432.5,143 433,143 433.5,143.5 434,143.5 434.5,143.5 435,144 435.5,144 436,144 436.5,144 437,144.5 437,145 437,145.5 437,146 437,146.5 437,147 437,147.5 437,148 437,148.5 437,149 437,149.5 437,150 437,150.5 437,151 437,151.5 437,152 437,152.5 437,153 437,153.5 437,154 437,154.5 "
     id="93" />
  <path
     style="fill:none;stroke:#000000;stroke-width:2;stroke-opacity:1"
     d="M 278,226 281,225 280,225 279,225 278,225 278,224 279,224 280,224 281,224 282,224 283,224 284,224 287,223 286,223 285,223 284,223 283,223 282,223 281,223 280,223 279,223 278,223 278,222 279,222 280,222 281,222 282,222 283,222 284,222 285,222 286,222 287,222 288,222 289,222 292,221 291,221 290,221 289,221 288,221 287,221 286,221 285,221 284,221 283,221 282,221 281,221 280,221 279,221 278,221 278,220 279,220 280,220 281,220 282,220 283,220 284,220 285,220 286,220 287,220 288,220 289,220 290,220 291,220 292,220 293,220 294,220 295,220 298,219 297,219 296,219 295,219 294,219 293,219 292,219 291,219 290,219 289,219 288,219 287,219 286,219 285,219 284,219 283,219 282,219 281,219 280,219 279,219 278,219 278,218 279,218 280,218 281,218 282,218 283,218 284,218 285,218 286,218 287,218 288,218 289,218 290,218 291,218 292,218 293,218 294,218 295,218 296,218 297,218 298,218 299,218 300,218 301,218 304,217 303,217 302,217 301,217 300,217 299,217 298,217 297,217 296,217 295,217 294,217 293,217 292,217 291,217 290,217 289,217 288,217 287,217 286,217 285,217 284,217 283,217 282,217 281,217 280,217 279,217 278,217 278,216 279,216 280,216 281,216 282,216 283,216 284,216 285,216 286,216 287,216 288,216 289,216 290,216 291,216 292,216 293,216 294,216 295,216 296,216 297,216 298,216 299,216 300,216 301,216 302,216 303,216 304,216 305,216 306,216 309,215 308,215 307,215 306,215 305,215 304,215 303,215 302,215 301,215 300,215 299,215 298,215 297,215 296,215 295,215 294,215 293,215 292,215 291,215 290,215 289,215 288,215 287,215 286,215 285,215 284,215 283,215 282,215 281,215 280,215 279,215 278,215 278,214 279,214 280,214 281,214 282,214 283,214 284,214 285,214 286,214 287,214 288,214 289,214 290,214 291,214 292,214 293,214 294,214 295,214 296,214 297,214 298,214 299,214 300,214 301,214 302,214 303,214 304,214 305,214 306,214 307,214 308,214 309,214 310,214 311,214 312,214 315,213 314,213 313,213 312,213 311,213 310,213 309,213 308,213 307,213 306,213 305,213 304,213 303,213 302,213 301,213 300,213 299,213 298,213 297,213 296,213 295,213 294,213 293,213 292,213 291,213 290,213 289,213 288,213 287,213 286,213 285,213 284,213 283,213 282,213 281,213 280,213 279,213 278,213 278,212 279,212 280,212 281,212 282,212 283,212 284,212 285,212 286,212 287,212 288,212 289,212 290,212 291,212 292,212 293,212 294,212 295,212 296,212 297,212 298,212 299,212 300,212 301,212 302,212 303,212 304,212 305,212 306,212 307,212 308,212 309,212 310,212 311,212 312,212 313,212 314,212 315,212 316,212 317,212 320,211 319,211 318,211 317,211 316,211 315,211 314,211 313,211 312,211 311,211 310,211 309,211 308,211 307,211 306,211 305,211 304,211 303,211 302,211 301,211 300,211 299,211 298,211 297,211 296,211 295,211 294,211 293,211 292,211 291,211 290,211 289,211 288,211 287,211 286,211 285,211 284,211 283,211 282,211 281,211 280,211 279,211 278,211 278,210 279,210 280,210 281,210 282,210 283,210 284,210 285,210 286,210 287,210 288,210 289,210 290,210 291,210 292,210 293,210 294,210 295,210 296,210 297,210 298,210 299,210 300,210 301,210 302,210 303,210 304,210 305,210 306,210 307,210 308,210 309,210 310,210 311,210 312,210 313,210 314,210 315,210 316,210 317,210 318,210 319,210 320,210 321,210 322,210 322,209 321,209 320,209 319,209 318,209 317,209 316,209 315,209 314,209 313,209 312,209 311,209 310,209 309,209 308,209 307,209 306,209 305,209 304,209 303,209 302,209 301,209 300,209 299,209 298,209 297,209 296,209 295,209 294,209 293,209 292,209 291,209 290,209 289,209 288,209 287,209 286,209 285,209 284,209 283,209 282,209 281,209 280,209 279,209 278,209 278,208 279,208 280,208 281,208 282,208 283,208 284,208 285,208 286,208 287,208 288,208 289,208 290,208 291,208 292,208 293,208 294,208 295,208 296,208 297,208 298,208 299,208 300,208 301,208 302,208 303,208 304,208 305,208 306,208 307,208 308,208 309,208 310,208 311,208 312,208 313,208 314,208 315,208 316,208 317,208 318,208 319,208 320,208 321,208 322,208 322,207 321,207 320,207 319,207 318,207 317,207 316,207 315,207 314,207 313,207 312,207 311,207 310,207 309,207 308,207 307,207 306,207 305,207 304,207 303,207 302,207 301,207 300,207 299,207 298,207 297,207 296,207 295,207 294,207 293,207 292,207 291,207 290,207 289,207 288,207 287,207 286,207 285,207 284,207 283,207 282,207 281,207 280,207 279,207 278,207 278,206 279,206 280,206 281,206 282,206 283,206 284,206 285,206 286,206 287,206 288,206 289,206 290,206 291,206 292,206 293,206 294,206 295,206 296,206 297,206 298,206 299,206 300,206 301,206 302,206 303,206 304,206 305,206 306,206 307,206 308,206 309,206 310,206 311,206 312,206 313,206 314,206 315,206 316,206 317,206 318,206 319,206 320,206 321,206 322,206 322,205 321,205 320,205 319,205 318,205 317,205 316,205 315,205 314,205 313,205 312,205 311,205 310,205 309,205 308,205 307,205 306,205 305,205 304,205 303,205 302,205 301,205 300,205 299,205 298,205 297,205 296,205 295,205 294,205 293,205 292,205 291,205 290,205 289,205 288,205 287,205 286,205 285,205 284,205 283,205 282,205 281,205 280,205 279,205 278,205 277,204 278,204 279,204 280,204 281,204 282,204 283,204 284,204 285,204 286,204 287,204 288,204 289,204 290,204 291,204 292,204 293,204 294,204 295,204 296,204 297,204 298,204 299,204 300,204 301,204 302,204 303,204 304,204 305,204 306,204 307,204 308,204 309,204 310,204 311,204 312,204 313,204 314,204 315,204 316,204 317,204 318,204 319,204 320,204 321,204 321,203 320,203 319,203 318,203 317,203 316,203 315,203 314,203 313,203 312,203 311,203 310,203 309,203 308,203 307,203 306,203 305,203 304,203 303,203 302,203 301,203 300,203 299,203 298,203 297,203 296,203 295,203 294,203 293,203 292,203 291,203 290,203 289,203 288,203 287,203 286,203 285,203 284,203 283,203 282,203 281,203 280,203 279,203 278,203 277,203 277,202 278,202 279,202 280,202 281,202 282,202 283,202 284,202 285,202 286,202 287,202 288,202 289,202 290,202 291,202 292,202 293,202 294,202 295,202 296,202 297,202 298,202 299,202 300,202 301,202 302,202 303,202 304,202 305,202 306,202 307,202 308,202 309,202 310,202 311,202 312,202 313,202 314,202 315,202 316,202 317,202 318,202 319,202 320,202 321,202 321,201 320,201 319,201 318,201 317,201 316,201 315,201 314,201 313,201 312,201 311,201 310,201 309,201 308,201 307,201 306,201 305,201 304,201 303,201 302,201 301,201 300,201 299,201 298,201 297,201 296,201 295,201 294,201 293,201 292,201 291,201 290,201 289,201 288,201 287,201 286,201 285,201 284,201 283,201 282,201 281,201 280,201 279,201 278,201 277,201 277,200 278,200 279,200 280,200 281,200 282,200 283,200 284,200 285,200 286,200 287,200 288,200 289,200 290,200 291,200 292,200 293,200 294,200 295,200 296,200 297,200 298,200 299,200 300,200 301,200 302,200 303,200 304,200 305,200 306,200 307,200 308,200 309,200 310,200 311,200 312,200 313,200 314,200 315,200 316,200 317,200 318,200 319,200 320,200 321,200 321,199 320,199 319,199 318,199 317,199 316,199 315,199 314,199 313,199 312,199 311,199 310,199 309,199 308,199 307,199 306,199 305,199 304,199 303,199 302,199 301,199 300,199 299,199 298,199 297,199 296,199 295,199 294,199 293,199 292,199 291,199 290,199 289,199 288,199 287,199 286,199 285,199 284,199 283,199 282,199 281,199 280,199 279,199 278,199 277,199 277,198 278,198 279,198 280,198 281,198 282,198 283,198 284,198 285,198 286,198 287,198 288,198 289,198 290,198 291,198 292,198 293,198 294,198 295,198 296,198 297,198 298,198 299,198 300,198 301,198 302,198 303,198 304,198 305,198 306,198 307,198 308,198 309,198 310,198 311,198 312,198 313,198 314,198 315,198 316,198 317,198 318,198 319,198 320,198 321,198 321,197 320,197 319,197 318,197 317,197 316,197 315,197 314,197 313,197 312,197 311,197 310,197 309,197 308,197 307,197 306,197 305,197 304,197 303,197 302,197 301,197 300,197 299,197 298,197 297,197 296,197 295,197 294,197 293,197 292,197 291,197 290,197 289,197 288,197 287,197 286,197 285,197 284,197 283,197 282,197 281,197 280,197 279,197 278,197 277,197 277,196 278,196 279,196 280,196 281,196 282,196 283,196 284,196 285,196 286,196 287,196 288,196 289,196 290,196 291,196 292,196 293,196 294,196 295,196 296,196 297,196 298,196 299,196 300,196 301,196 302,196 303,196 304,196 305,196 306,196 307,196 308,196 309,196 310,196 311,196 312,196 313,196 314,196 315,196 316,196 317,196 318,196 319,196 320,196 321,196 321,195 320,195 319,195 318,195 317,195 316,195 315,195 314,195 313,195 312,195 311,195 310,195 309,195 308,195 307,195 306,195 305,195 304,195 303,195 302,195 301,195 300,195 299,195 298,195 297,195 296,195 295,195 294,195 293,195 292,195 291,195 290,195 289,195 288,195 287,195 286,195 285,195 284,195 283,195 282,195 281,195 280,195 279,195 278,195 277,195 277,194 278,194 279,194 280,194 281,194 282,194 283,194 284,194 285,194 286,194 287,194 288,194 289,194 290,194 291,194 292,194 293,194 294,194 295,194 296,194 297,194 298,194 299,194 300,194 301,194 302,194 303,194 304,194 305,194 306,194 307,194 308,194 309,194 310,194 311,194 312,194 313,194 314,194 315,194 316,194 317,194 318,194 319,194 320,194 321,194 321,193 320,193 319,193 318,193 317,193 316,193 315,193 314,193 313,193 312,193 311,193 310,193 309,193 308,193 307,193 306,193 305,193 304,193 303,193 302,193 301,193 300,193 299,193 298,193 297,193 296,193 295,193 294,193 293,193 292,193 291,193 290,193 289,193 288,193 287,193 286,193 285,193 284,193 283,193 282,193 281,193 280,193 279,193 278,193 277,193 277,192 278,192 279,192 280,192 281,192 282,192 283,192 284,192 285,192 286,192 287,192 288,192 289,192 290,192 291,192 292,192 293,192 294,192 295,192 296,192 297,192 298,192 299,192 300,192 301,192 302,192 303,192 304,192 305,192 306,192 307,192 308,192 309,192 310,192 311,192 312,192 313,192 314,192 315,192 316,192 317,192 318,192 319,192 320,192 321,192 321,191 320,191 319,191 318,191 317,191 316,191 315,191 314,191 313,191 312,191 311,191 310,191 309,191 308,191 307,191 306,191 305,191 304,191 303,191 302,191 301,191 300,191 299,191 298,191 297,191 296,191 295,191 294,191 293,191 292,191 291,191 290,191 289,191 288,191 287,191 286,191 285,191 284,191 283,191 282,191 281,191 280,191 279,191 278,191 277,191 277,190 278,190 279,190 280,190 281,190 282,190 283,190 284,190 285,190 286,190 287,190 288,190 289,190 290,190 291,190 292,190 293,190 294,190 295,190 296,190 297,190 298,190 299,190 300,190 301,190 302,190 303,190 304,190 305,190 306,190 307,190 308,190 309,190 310,190 311,190 312,190 313,190 314,190 315,190 316,190 317,190 318,190 319,190 320,190 321,190 321,189 320,189 319,189 318,189 317,189 316,189 315,189 314,189 313,189 312,189 311,189 310,189 309,189 308,189 307,189 306,189 305,189 304,189 303,189 302,189 301,189 300,189 299,189 298,189 297,189 296,189 295,189 294,189 293,189 292,189 291,189 290,189 289,189 288,189 287,189 286,189 285,189 284,189 283,189 282,189 281,189 280,189 279,189 278,189 277,189 277,188 278,188 279,188 280,188 281,188 282,188 283,188 284,188 285,188 286,188 287,188 288,188 289,188 290,188 291,188 292,188 293,188 294,188 295,188 296,188 297,188 298,188 299,188 300,188 301,188 302,188 303,188 304,188 305,188 306,188 307,188 308,188 309,188 310,188 311,188 312,188 313,188 314,188 315,188 316,188 317,188 318,188 319,188 320,188 321,188 321,187 320,187 319,187 318,187 317,187 316,187 315,187 314,187 313,187 312,187 311,187 310,187 309,187 308,187 307,187 306,187 305,187 304,187 303,187 302,187 301,187 300,187 299,187 298,187 297,187 296,187 295,187 294,187 293,187 292,187 291,187 290,187 289,187 288,187 287,187 286,187 285,187 284,187 283,187 282,187 281,187 280,187 279,187 278,187 277,187 276,187 276,186 277,186 278,186 279,186 280,186 281,186 282,186 283,186 284,186 285,186 286,186 287,186 288,186 289,186 290,186 291,186 292,186 293,186 294,186 295,186 296,186 297,186 298,186 299,186 300,186 301,186 302,186 303,186 304,186 305,186 306,186 307,186 308,186 309,186 310,186 311,186 312,186 313,186 314,186 315,186 316,186 317,186 318,186 319,186 320,186 321,186 321,185 320,185 319,185 318,185 317,185 316,185 315,185 314,185 313,185 312,185 311,185 310,185 309,185 308,185 307,185 306,185 305,185 304,185 303,185 302,185 301,185 300,185 299,185 298,185 297,185 296,185 295,185 294,185 293,185 292,185 291,185 290,185 289,185 288,185 287,185 286,185 285,185 284,185 283,185 282,185 281,185 280,185 279,185 278,185 277,185 276,185 276,184 277,184 278,184 279,184 280,184 281,184 282,184 283,184 284,184 285,184 286,184 287,184 288,184 289,184 290,184 291,184 292,184 293,184 294,184 295,184 296,184 297,184 298,184 299,184 300,184 301,184 302,184 303,184 304,184 305,184 306,184 307,184 308,184 309,184 310,184 311,184 312,184 313,184 314,184 315,184 316,184 317,184 318,184 319,184 320,184 320,183 319,183 318,183 317,183 316,183 315,183 314,183 313,183 312,183 311,183 310,183 309,183 308,183 307,183 306,183 305,183 304,183 303,183 302,183 301,183 300,183 299,183 298,183 297,183 296,183 295,183 294,183 293,183 292,183 291,183 290,183 289,183 288,183 287,183 286,183 285,183 284,183 283,183 282,183 281,183 280,183 279,183 278,183 277,183 276,183 276,182 277,182 278,182 279,182 280,182 281,182 282,182 283,182 284,182 285,182 286,182 287,182 288,182 289,182 290,182 291,182 292,182 293,182 294,182 295,182 296,182 297,182 298,182 299,182 300,182 301,182 302,182 303,182 304,182 305,182 306,182 307,182 308,182 309,182 310,182 311,182 312,182 313,182 314,182 315,182 316,182 317,182 318,182 319,182 320,182 320,181 319,181 318,181 317,181 316,181 315,181 314,181 313,181 312,181 311,181 310,181 309,181 308,181 307,181 306,181 305,181 304,181 303,181 302,181 301,181 300,181 299,181 298,181 297,181 296,181 295,181 294,181 293,181 292,181 291,181 290,181 289,181 288,181 287,181 286,181 285,181 284,181 283,181 282,181 281,181 280,181 279,181 278,181 277,181 276,181 276,180 277,180 278,180 279,180 280,180 281,180 282,180 283,180 284,180 285,180 286,180 287,180 288,180 289,180 290,180 291,180 292,180 293,180 294,180 295,180 296,180 297,180 298,180 299,180 300,180 301,180 302,180 303,180 304,180 305,180 306,180 307,180 308,180 309,180 310,180 311,180 312,180 313,180 314,180 315,180 316,180 317,180 318,180 319,180 320,180 320,179 319,179 318,179 317,179 316,179 315,179 314,179 313,179 312,179 311,179 310,179 309,179 308,179 307,179 306,179 305,179 304,179 303,179 302,179 301,179 300,179 299,179 298,179 297,179 296,179 295,179 294,179 293,179 292,179 291,179 290,179 289,179 288,179 287,179 286,179 285,179 284,179 283,179 282,179 281,179 280,179 279,179 278,179 277,179 276,179 276,178 277,178 278,178 279,178 280,178 281,178 282,178 283,178 284,178 285,178 286,178 287,178 288,178 289,178 290,178 291,178 292,178 293,178 294,178 295,178 296,178 297,178 298,178 299,178 300,178 301,178 302,178 303,178 304,178 305,178 306,178 307,178 308,178 309,178 310,178 311,178 312,178 313,178 314,178 315,178 316,178 317,178 318,178 319,178 320,178 320,177 319,177 318,177 317,177 316,177 315,177 314,177 313,177 312,177 311,177 310,177 309,177 308,177 307,177 306,177 305,177 304,177 303,177 302,177 301,177 300,177 299,177 298,177 297,177 296,177 295,177 294,177 293,177 292,177 291,177 290,177 289,177 288,177 287,177 286,177 285,177 284,177 283,177 282,177 281,177 280,177 279,177 278,177 277,177 276,177 276,176 277,176 278,176 279,176 280,176 281,176 282,176 283,176 284,176 285,176 286,176 287,176 288,176 289,176 290,176 291,176 292,176 293,176 294,176 295,176 296,176 297,176 298,176 299,176 300,176 301,176 302,176 303,176 304,176 305,176 306,176 307,176 308,176 309,176 310,176 311,176 312,176 313,176 314,176 315,176 316,176 317,176 318,176 319,176 320,176 320,175 319,175 318,175 317,175 316,175 315,175 314,175 313,175 312,175 311,175 310,175 309,175 308,175 307,175 306,175 305,175 304,175 303,175 302,175 301,175 300,175 299,175 298,175 297,175 296,175 295,175 294,175 293,175 292,175 291,175 290,175 289,175 288,175 287,175 286,175 285,175 284,175 283,175 282,175 281,175 280,175 279,175 278,175 277,175 276,175 275,174 276,174 277,174 278,174 279,174 280,174 281,174 282,174 283,174 284,174 285,174 286,174 287,174 288,174 289,174 290,174 291,174 292,174 293,174 294,174 295,174 296,174 297,174 298,174 299,174 300,174 301,174 302,174 303,174 304,174 305,174 306,174 307,174 308,174 309,174 310,174 311,174 312,174 313,174 314,174 315,174 316,174 317,174 318,174 319,174 320,174 320,173 319,173 318,173 317,173 316,173 315,173 314,173 313,173 312,173 311,173 310,173 309,173 308,173 307,173 306,173 305,173 304,173 303,173 302,173 301,173 300,173 299,173 298,173 297,173 296,173 295,173 294,173 293,173 292,173 291,173 290,173 289,173 288,173 287,173 286,173 285,173 284,173 283,173 282,173 281,173 280,173 279,173 278,173 277,173 276,173 275,173 275,172 276,172 277,172 278,172 279,172 280,172 281,172 282,172 283,172 284,172 285,172 286,172 287,172 288,172 289,172 290,172 291,172 292,172 293,172 294,172 295,172 296,172 297,172 298,172 299,172 300,172 301,172 302,172 303,172 304,172 305,172 306,172 307,172 308,172 309,172 310,172 311,172 312,172 313,172 314,172 315,172 316,172 317,172 318,172 319,172 320,172 320,171 319,171 318,171 317,171 316,171 315,171 314,171 313,171 312,171 311,171 310,171 309,171 308,171 307,171 306,171 305,171 304,171 303,171 302,171 301,171 300,171 299,171 298,171 297,171 296,171 295,171 294,171 293,171 292,171 291,171 290,171 289,171 288,171 287,171 286,171 285,171 284,171 283,171 282,171 281,171 280,171 279,171 278,171 277,171 276,171 275,171 275,170 276,170 277,170 278,170 279,170 280,170 281,170 282,170 283,170 284,170 285,170 286,170 287,170 288,170 289,170 290,170 291,170 292,170 293,170 294,170 295,170 296,170 297,170 298,170 299,170 300,170 301,170 302,170 303,170 304,170 305,170 306,170 307,170 308,170 309,170 310,170 311,170 312,170 313,170 314,170 315,170 316,170 317,170 318,170 319,170 320,170 319,169 318,169 317,169 316,169 315,169 314,169 313,169 312,169 311,169 310,169 309,169 308,169 307,169 306,169 305,169 304,169 303,169 302,169 301,169 300,169 299,169 298,169 297,169 296,169 295,169 294,169 293,169 292,169 291,169 290,169 289,169 288,169 287,169 286,169 285,169 284,169 283,169 282,169 281,169 280,169 279,169 278,169 277,169 276,169 275,169 275,168 276,168 277,168 278,168 279,168 280,168 281,168 282,168 283,168 284,168 285,168 286,168 287,168 288,168 289,168 290,168 291,168 292,168 293,168 294,168 295,168 296,168 297,168 298,168 299,168 300,168 301,168 302,168 303,168 304,168 305,168 306,168 307,168 308,168 309,168 310,168 311,168 312,168 313,168 314,168 315,168 316,168 317,168 318,168 319,168 319,167 318,167 317,167 316,167 315,167 314,167 313,167 312,167 311,167 310,167 309,167 308,167 307,167 306,167 305,167 304,167 303,167 302,167 301,167 300,167 299,167 298,167 297,167 296,167 295,167 294,167 293,167 292,167 291,167 290,167 289,167 288,167 287,167 286,167 285,167 284,167 283,167 282,167 281,167 280,167 279,167 278,167 277,167 276,167 275,167 275,166 276,166 277,166 278,166 279,166 280,166 281,166 282,166 283,166 284,166 285,166 286,166 287,166 288,166 289,166 290,166 291,166 292,166 293,166 294,166 295,166 296,166 297,166 298,166 299,166 300,166 301,166 302,166 303,166 304,166 305,166 306,166 307,166 308,166 309,166 310,166 311,166 312,166 313,166 314,166 315,166 316,166 317,166 318,166 319,166 319,165 318,165 317,165 316,165 315,165 314,165 313,165 312,165 311,165 310,165 309,165 308,165 307,165 306,165 305,165 304,165 303,165 302,165 301,165 300,165 299,165 298,165 297,165 296,165 295,165 294,165 293,165 292,165 291,165 290,165 289,165 288,165 287,165 286,165 285,165 284,165 283,165 282,165 281,165 280,165 279,165 278,165 277,165 276,165 275,165 275,164 276,164 277,164 278,164 279,164 280,164 281,164 282,164 283,164 284,164 285,164 286,164 287,164 288,164 289,164 290,164 291,164 292,164 293,164 294,164 295,164 296,164 297,164 298,164 299,164 300,164 301,164 302,164 303,164 304,164 305,164 306,164 307,164 308,164 309,164 310,164 311,164 312,164 313,164 314,164 315,164 316,164 317,164 318,164 319,164 319,163 318,163 317,163 316,163 315,163 314,163 313,163 312,163 311,163 310,163 309,163 308,163 307,163 306,163 305,163 304,163 303,163 302,163 301,163 300,163 299,163 298,163 297,163 296,163 295,163 294,163 293,163 292,163 291,163 290,163 289,163 288,163 287,163 286,163 285,163 284,163 283,163 282,163 281,163 280,163 279,163 278,163 277,163 276,163 275,163 275,162 276,162 277,162 278,162 279,162 280,162 281,162 282,162 283,162 284,162 285,162 286,162 287,162 288,162 289,162 290,162 291,162 292,162 293,162 294,162 295,162 296,162 297,162 298,162 299,162 300,162 301,162 302,162 303,162 304,162 305,162 306,162 307,162 308,162 309,162 310,162 311,162 312,162 313,162 314,162 315,162 316,162 317,162 318,162 319,162 319,161 318,161 317,161 316,161 315,161 314,161 313,161 312,161 311,161 310,161 309,161 308,161 307,161 306,161 305,161 304,161 303,161 302,161 301,161 300,161 299,161 298,161 297,161 296,161 295,161 294,161 293,161 292,161 291,161 290,161 289,161 288,161 287,161 286,161 285,161 284,161 283,161 282,161 281,161 280,161 279,161 278,161 277,161 276,161 275,161 274,161 274,160 275,160 276,160 277,160 278,160 279,160 280,160 281,160 282,160 283,160 284,160 285,160 286,160 287,160 288,160 289,160 290,160 291,160 292,160 293,160 294,160 295,160 296,160 297,160 298,160 299,160 300,160 301,160 302,160 303,160 304,160 305,160 306,160 307,160 308,160 309,160 310,160 311,160 312,160 313,160 314,160 315,160 316,160 317,160 318,160 319,160 319,159 318,159 317,159 316,159 315,159 314,159 313,159 312,159 311,159 310,159 309,159 308,159 307,159 306,159 305,159 304,159 303,159 302,159 301,159 300,159 299,159 298,159 297,159 296,159 295,159 294,159 293,159 292,159 291,159 290,159 289,159 288,159 287,159 286,159 285,159 284,159 283,159 282,159 281,159 280,159 279,159 278,159 277,159 276,159 279,158 280,158 281,158 282,158 283,158 284,158 285,158 286,158 287,158 288,158 289,158 290,158 291,158 292,158 293,158 294,158 295,158 296,158 297,158 298,158 299,158 300,158 301,158 302,158 303,158 304,158 305,158 306,158 307,158 308,158 309,158 310,158 311,158 312,158 313,158 314,158 315,158 316,158 317,158 318,158 319,158 319,157 318,157 317,157 316,157 315,157 314,157 313,157 312,157 311,157 310,157 309,157 308,157 307,157 306,157 305,157 304,157 303,157 302,157 301,157 300,157 299,157 298,157 297,157 296,157 295,157 294,157 293,157 292,157 291,157 290,157 289,157 288,157 287,157 286,157 285,157 284,157 283,157 282,157 285,156 286,156 287,156 288,156 289,156 290,156 291,156 292,156 293,156 294,156 295,156 296,156 297,156 298,156 299,156 300,156 301,156 302,156 303,156 304,156 305,156 306,156 307,156 308,156 309,156 310,156 311,156 312,156 313,156 314,156 315,156 316,156 317,156 318,156 318,155 317,155 316,155 315,155 314,155 313,155 312,155 311,155 310,155 309,155 308,155 307,155 306,155 305,155 304,155 303,155 302,155 301,155 300,155 299,155 298,155 297,155 296,155 295,155 294,155 293,155 292,155 291,155 290,155 289,155 288,155 291,154 292,154 293,154 294,154 295,154 296,154 297,154 298,154 299,154 300,154 301,154 302,154 303,154 304,154 305,154 306,154 307,154 308,154 309,154 310,154 311,154 312,154 313,154 314,154 315,154 316,154 317,154 318,154 318,153 317,153 316,153 315,153 314,153 313,153 312,153 311,153 310,153 309,153 308,153 307,153 306,153 305,153 304,153 303,153 302,153 301,153 300,153 299,153 298,153 297,153 296,153 295,153 294,153 296,152 297,152 298,152 299,152 300,152 301,152 302,152 303,152 304,152 305,152 306,152 307,152 308,152 309,152 310,152 311,152 312,152 313,152 314,152 315,152 316,152 317,152 318,152 318,151 317,151 316,151 315,151 314,151 313,151 312,151 311,151 310,151 309,151 308,151 307,151 306,151 305,151 304,151 303,151 302,151 301,151 300,151 299,151 302,150 303,150 304,150 305,150 306,150 307,150 308,150 309,150 310,150 311,150 312,150 313,150 314,150 315,150 316,150 317,150 318,150 318,149 317,149 316,149 315,149 314,149 313,149 312,149 311,149 310,149 309,149 308,149 307,149 306,149 305,149 304,149 307,148 308,148 309,148 310,148 311,148 312,148 313,148 314,148 315,148 316,148 317,148 318,148 318,147 317,147 316,147 315,147 314,147 313,147 312,147 311,147 310,147 309,147 312,146 313,146 314,146 315,146 316,146 317,146 318,146 318,145 317,145 316,145 315,145 314,145 317,144 318,144 319,143 318,143 318,142 319,142 320,142 321,142 324,141 323,141 322,141 321,141 320,141 319,141 318,141 318,140 319,140 320,140 321,140 322,140 323,140 324,140 325,140 326,140 327,140 330,139 329,139 328,139 327,139 326,139 325,139 324,139 323,139 322,139 321,139 320,139 319,139 318,139 318,138 319,138 320,138 321,138 322,138 323,138 324,138 325,138 326,138 327,138 328,138 329,138 330,138 331,138 332,138 333,138 336,137 335,137 334,137 333,137 332,137 331,137 330,137 329,137 328,137 327,137 326,137 325,137 324,137 323,137 322,137 321,137 320,137 319,137 318,137 318,136 319,136 320,136 321,136 322,136 323,136 324,136 325,136 326,136 327,136 328,136 329,136 330,136 331,136 332,136 333,136 334,136 335,136 336,136 337,136 338,136 339,136 343,135 342,135 341,135 340,135 339,135 338,135 337,135 336,135 335,135 334,135 333,135 332,135 331,135 330,135 329,135 328,135 327,135 326,135 325,135 324,135 323,135 322,135 321,135 320,135 319,135 318,135 318,134 319,134 320,134 321,134 322,134 323,134 324,134 325,134 326,134 327,134 328,134 329,134 330,134 331,134 332,134 333,134 334,134 335,134 336,134 337,134 338,134 339,134 340,134 341,134 342,134 343,134 344,134 345,134 346,134 347,134 352,133 351,133 350,133 349,133 348,133 347,133 346,133 345,133 344,133 343,133 342,133 341,133 340,133 339,133 338,133 337,133 336,133 335,133 334,133 333,133 332,133 331,133 330,133 329,133 328,133 327,133 326,133 325,133 324,133 323,133 322,133 321,133 320,133 319,133 318,133 318,132 319,132 320,132 321,132 322,132 323,132 324,132 325,132 326,132 327,132 328,132 329,132 330,132 331,132 332,132 333,132 334,132 335,132 336,132 337,132 338,132 339,132 340,132 341,132 342,132 343,132 344,132 345,132 346,132 347,132 348,132 349,132 350,132 351,132 352,132 353,132 354,132 355,132 356,132 357,132 358,132 359,132 365,131 364,131 363,131 362,131 361,131 360,131 359,131 358,131 357,131 356,131 355,131 354,131 353,131 352,131 351,131 350,131 349,131 348,131 347,131 346,131 345,131 344,131 343,131 342,131 341,131 340,131 339,131 338,131 337,131 336,131 335,131 334,131 333,131 332,131 331,131 330,131 329,131 328,131 327,131 326,131 325,131 324,131 323,131 322,131 321,131 320,131 319,131 318,131 317,130 318,130 319,130 320,130 321,130 322,130 323,130 324,130 325,130 326,130 327,130 328,130 329,130 330,130 331,130 332,130 333,130 334,130 335,130 336,130 337,130 338,130 339,130 340,130 341,130 342,130 343,130 344,130 345,130 346,130 347,130 348,130 349,130 350,130 351,130 352,130 353,130 354,130 355,130 356,130 357,130 358,130 359,130 360,130 361,130 362,130 363,130 364,130 365,130 365,129 364,129 363,129 362,129 361,129 360,129 359,129 358,129 357,129 356,129 355,129 354,129 353,129 352,129 351,129 350,129 349,129 348,129 347,129 346,129 345,129 344,129 343,129 342,129 341,129 340,129 339,129 338,129 337,129 336,129 335,129 334,129 333,129 332,129 331,129 330,129 329,129 328,129 327,129 326,129 325,129 324,129 323,129 322,129 321,129 320,129 319,129 318,129 317,129 317,128 318,128 319,128 320,128 321,128 322,128 323,128 324,128 325,128 326,128 327,128 328,128 329,128 330,128 331,128 332,128 333,128 334,128 335,128 336,128 337,128 338,128 339,128 340,128 341,128 342,128 343,128 344,128 345,128 346,128 347,128 348,128 349,128 350,128 351,128 352,128 353,128 354,128 355,128 356,128 357,128 358,128 359,128 360,128 361,128 362,128 363,128 364,128 365,128 365,127 364,127 363,127 362,127 361,127 360,127 359,127 358,127 357,127 356,127 355,127 354,127 353,127 352,127 351,127 350,127 349,127 348,127 347,127 346,127 345,127 344,127 343,127 342,127 341,127 340,127 339,127 338,127 337,127 336,127 335,127 334,127 333,127 332,127 331,127 330,127 329,127 328,127 327,127 326,127 325,127 324,127 323,127 322,127 321,127 320,127 319,127 318,127 317,127 317,126 318,126 319,126 320,126 321,126 322,126 323,126 324,126 325,126 326,126 327,126 328,126 329,126 330,126 331,126 332,126 333,126 334,126 335,126 336,126 337,126 338,126 339,126 340,126 341,126 342,126 343,126 344,126 345,126 346,126 347,126 348,126 349,126 350,126 351,126 352,126 353,126 354,126 355,126 356,126 357,126 358,126 359,126 360,126 361,126 362,126 363,126 364,126 365,126 365,125 364,125 363,125 362,125 361,125 360,125 359,125 358,125 357,125 356,125 355,125 354,125 353,125 352,125 351,125 350,125 349,125 348,125 347,125 346,125 345,125 344,125 343,125 342,125 341,125 340,125 339,125 338,125 337,125 336,125 335,125 334,125 333,125 332,125 331,125 330,125 329,125 328,125 327,125 326,125 325,125 324,125 323,125 322,125 321,125 320,125 319,125 318,125 317,125 317,124 318,124 319,124 320,124 321,124 322,124 323,124 324,124 325,124 326,124 327,124 328,124 329,124 330,124 331,124 332,124 333,124 334,124 335,124 336,124 337,124 338,124 339,124 340,124 341,124 342,124 343,124 344,124 345,124 346,124 347,124 348,124 349,124 350,124 351,124 352,124 353,124 354,124 355,124 356,124 357,124 358,124 359,124 360,124 361,124 362,124 363,124 364,124 365,124 365,123 364,123 363,123 362,123 361,123 360,123 359,123 358,123 357,123 356,123 355,123 354,123 353,123 352,123 351,123 350,123 349,123 348,123 347,123 346,123 345,123 344,123 343,123 342,123 341,123 340,123 339,123 338,123 337,123 336,123 335,123 334,123 333,123 332,123 331,123 330,123 329,123 328,123 327,123 326,123 325,123 324,123 323,123 322,123 321,123 320,123 319,123 318,123 317,123 317,122 318,122 319,122 320,122 321,122 322,122 323,122 324,122 325,122 326,122 327,122 328,122 329,122 330,122 331,122 332,122 333,122 334,122 335,122 336,122 337,122 338,122 339,122 340,122 341,122 342,122 343,122 344,122 345,122 346,122 347,122 348,122 349,122 350,122 351,122 352,122 353,122 354,122 355,122 356,122 357,122 358,122 359,122 360,122 361,122 362,122 363,122 364,122 365,122 365,121 364,121 363,121 362,121 361,121 360,121 359,121 358,121 357,121 356,121 355,121 354,121 353,121 352,121 351,121 350,121 349,121 348,121 347,121 346,121 345,121 344,121 343,121 342,121 341,121 340,121 339,121 338,121 337,121 336,121 335,121 334,121 333,121 332,121 331,121 330,121 329,121 328,121 327,121 326,121 325,121 324,121 323,121 322,121 321,121 320,121 319,121 318,121 317,121 317,120 318,120 319,120 320,120 321,120 322,120 323,120 324,120 325,120 326,120 327,120 328,120 329,120 330,120 331,120 332,120 333,120 334,120 335,120 336,120 337,120 338,120 339,120 340,120 341,120 342,120 343,120 344,120 345,120 346,120 347,120 348,120 349,120 350,120 351,120 352,120 353,120 354,120 355,120 356,120 357,120 358,120 359,120 360,120 361,120 362,120 363,120 364,120 364,119 363,119 362,119 361,119 360,119 359,119 358,119 357,119 356,119 355,119 354,119 353,119 352,119 351,119 350,119 349,119 348,119 347,119 346,119 345,119 344,119 343,119 342,119 341,119 340,119 339,119 338,119 337,119 336,119 335,119 334,119 333,119 332,119 331,119 330,119 329,119 328,119 327,119 326,119 325,119 324,119 323,119 322,119 321,119 320,119 319,119 318,119 317,119 317,118 318,118 319,118 320,118 321,118 322,118 323,118 324,118 325,118 326,118 327,118 328,118 329,118 330,118 331,118 332,118 333,118 334,118 335,118 336,118 337,118 338,118 339,118 340,118 341,118 342,118 343,118 344,118 345,118 346,118 347,118 348,118 349,118 350,118 351,118 352,118 353,118 354,118 355,118 356,118 357,118 358,118 359,118 360,118 361,118 362,118 363,118 364,118 364,117 363,117 362,117 361,117 360,117 359,117 358,117 357,117 356,117 355,117 354,117 353,117 352,117 351,117 350,117 349,117 348,117 347,117 346,117 345,117 344,117 343,117 342,117 341,117 340,117 339,117 338,117 337,117 336,117 335,117 334,117 333,117 332,117 331,117 330,117 329,117 328,117 327,117 326,117 325,117 324,117 323,117 322,117 321,117 320,117 319,117 318,117 317,117 316,117 316,116 317,116 318,116 319,116 320,116 321,116 322,116 323,116 324,116 325,116 326,116 327,116 328,116 329,116 330,116 331,116 332,116 333,116 334,116 335,116 336,116 337,116 338,116 339,116 340,116 341,116 342,116 343,116 344,116 345,116 346,116 347,116 348,116 349,116 350,116 351,116 352,116 353,116 354,116 355,116 356,116 357,116 358,116 359,116 360,116 361,116 362,116 363,116 364,116 364,115 363,115 362,115 361,115 360,115 359,115 358,115 357,115 356,115 355,115 354,115 353,115 352,115 351,115 350,115 349,115 348,115 347,115 346,115 345,115 344,115 343,115 342,115 341,115 340,115 339,115 338,115 337,115 336,115 335,115 334,115 333,115 332,115 331,115 330,115 329,115 328,115 327,115 326,115 325,115 324,115 323,115 322,115 321,115 320,115 319,115 318,115 317,115 316,115 316,114 317,114 318,114 319,114 320,114 321,114 322,114 323,114 324,114 325,114 326,114 327,114 328,114 329,114 330,114 331,114 332,114 333,114 334,114 335,114 336,114 337,114 338,114 339,114 340,114 341,114 342,114 343,114 344,114 345,114 346,114 347,114 348,114 349,114 350,114 351,114 352,114 353,114 354,114 355,114 356,114 357,114 358,114 359,114 360,114 361,114 362,114 363,114 364,114 364,113 363,113 362,113 361,113 360,113 359,113 358,113 357,113 356,113 355,113 354,113 353,113 352,113 351,113 350,113 349,113 348,113 347,113 346,113 345,113 344,113 343,113 342,113 341,113 340,113 339,113 338,113 337,113 336,113 335,113 334,113 333,113 332,113 331,113 330,113 329,113 328,113 327,113 326,113 325,113 324,113 323,113 322,113 321,113 320,113 319,113 318,113 317,113 316,113 316,112 317,112 318,112 319,112 320,112 321,112 322,112 323,112 324,112 325,112 326,112 327,112 328,112 329,112 330,112 331,112 332,112 333,112 334,112 335,112 336,112 337,112 338,112 339,112 340,112 341,112 342,112 343,112 344,112 345,112 346,112 347,112 348,112 349,112 350,112 351,112 352,112 353,112 354,112 355,112 356,112 357,112 358,112 359,112 360,112 361,112 362,112 363,112 364,112 364,111 363,111 362,111 361,111 360,111 359,111 358,111 357,111 356,111 355,111 354,111 353,111 352,111 351,111 350,111 349,111 348,111 347,111 346,111 345,111 344,111 343,111 342,111 341,111 340,111 339,111 338,111 337,111 336,111 335,111 334,111 333,111 332,111 331,111 330,111 329,111 328,111 327,111 326,111 325,111 324,111 323,111 322,111 321,111 320,111 319,111 318,111 317,111 316,111 316,110 317,110 318,110 319,110 320,110 321,110 322,110 323,110 324,110 325,110 326,110 327,110 328,110 329,110 330,110 331,110 332,110 333,110 334,110 335,110 336,110 337,110 338,110 339,110 340,110 341,110 342,110 343,110 344,110 345,110 346,110 347,110 348,110 349,110 350,110 351,110 352,110 353,110 354,110 355,110 356,110 357,110 358,110 359,110 360,110 361,110 362,110 363,110 364,110 364,109 363,109 362,109 361,109 360,109 359,109 358,109 357,109 356,109 355,109 354,109 353,109 352,109 351,109 350,109 349,109 348,109 347,109 346,109 345,109 344,109 343,109 342,109 341,109 340,109 339,109 338,109 337,109 336,109 335,109 334,109 333,109 332,109 331,109 330,109 329,109 328,109 327,109 326,109 325,109 324,109 323,109 322,109 321,109 320,109 319,109 318,109 317,109 316,109 316,108 317,108 318,108 319,108 320,108 321,108 322,108 323,108 324,108 325,108 326,108 327,108 328,108 329,108 330,108 331,108 332,108 333,108 334,108 335,108 336,108 337,108 338,108 339,108 340,108 341,108 342,108 343,108 344,108 345,108 346,108 347,108 348,108 349,108 350,108 351,108 352,108 353,108 354,108 355,108 356,108 357,108 358,108 359,108 360,108 361,108 362,108 363,108 363,107 362,107 361,107 360,107 359,107 358,107 357,107 356,107 355,107 354,107 353,107 352,107 351,107 350,107 349,107 348,107 347,107 346,107 345,107 344,107 343,107 342,107 341,107 340,107 339,107 338,107 337,107 336,107 335,107 334,107 333,107 332,107 331,107 330,107 329,107 328,107 327,107 326,107 325,107 324,107 323,107 322,107 321,107 320,107 319,107 318,107 317,107 316,107 316,106 317,106 318,106 319,106 320,106 321,106 322,106 323,106 324,106 325,106 326,106 327,106 328,106 329,106 330,106 331,106 332,106 333,106 334,106 335,106 336,106 337,106 338,106 339,106 340,106 341,106 342,106 343,106 344,106 345,106 346,106 347,106 348,106 349,106 350,106 351,106 352,106 353,106 354,106 355,106 356,106 357,106 358,106 359,106 360,106 361,106 362,106 363,106 363,105 362,105 361,105 360,105 359,105 358,105 357,105 356,105 355,105 354,105 353,105 352,105 351,105 350,105 349,105 348,105 347,105 346,105 345,105 344,105 343,105 342,105 341,105 340,105 339,105 338,105 337,105 336,105 335,105 334,105 333,105 332,105 331,105 330,105 329,105 328,105 327,105 326,105 325,105 324,105 323,105 322,105 321,105 320,105 319,105 318,105 317,105 316,105 315,104 316,104 317,104 318,104 319,104 320,104 321,104 322,104 323,104 324,104 325,104 326,104 327,104 328,104 329,104 330,104 331,104 332,104 333,104 334,104 335,104 336,104 337,104 338,104 339,104 340,104 341,104 342,104 343,104 344,104 345,104 346,104 347,104 348,104 349,104 350,104 351,104 352,104 353,104 354,104 355,104 356,104 357,104 358,104 359,104 360,104 361,104 362,104 363,104 363,103 362,103 361,103 360,103 359,103 358,103 357,103 356,103 355,103 354,103 353,103 352,103 351,103 350,103 349,103 348,103 347,103 346,103 345,103 344,103 343,103 342,103 341,103 340,103 339,103 338,103 337,103 336,103 335,103 334,103 333,103 332,103 331,103 330,103 329,103 328,103 327,103 326,103 325,103 324,103 323,103 322,103 321,103 320,103 319,103 318,103 317,103 316,103 315,103 315,102 316,102 317,102 318,102 319,102 320,102 321,102 322,102 323,102 324,102 325,102 326,102 327,102 328,102 329,102 330,102 331,102 332,102 333,102 334,102 335,102 336,102 337,102 338,102 339,102 340,102 341,102 342,102 343,102 344,102 345,102 346,102 347,102 348,102 349,102 350,102 351,102 352,102 353,102 354,102 355,102 356,102 357,102 358,102 359,102 360,102 361,102 362,102 363,102 363,101 362,101 361,101 360,101 359,101 358,101 357,101 356,101 355,101 354,101 353,101 352,101 351,101 350,101 349,101 348,101 347,101 346,101 345,101 344,101 343,101 342,101 341,101 340,101 339,101 338,101 337,101 336,101 335,101 334,101 333,101 332,101 331,101 330,101 329,101 328,101 327,101 326,101 325,101 324,101 323,101 322,101 321,101 320,101 319,101 318,101 317,101 316,101 315,101 315,100 316,100 317,100 318,100 319,100 320,100 321,100 322,100 323,100 324,100 325,100 326,100 327,100 328,100 329,100 330,100 331,100 332,100 333,100 334,100 335,100 336,100 337,100 338,100 339,100 340,100 341,100 342,100 343,100 344,100 345,100 346,100 347,100 348,100 349,100 350,100 351,100 352,100 353,100 354,100 355,100 356,100 357,100 358,100 359,100 360,100 361,100 362,100 363,100 363,99 362,99 361,99 360,99 359,99 358,99 357,99 356,99 355,99 354,99 353,99 352,99 351,99 350,99 349,99 348,99 347,99 346,99 345,99 344,99 343,99 342,99 341,99 340,99 339,99 338,99 337,99 336,99 335,99 334,99 333,99 332,99 331,99 330,99 329,99 328,99 327,99 326,99 325,99 324,99 323,99 322,99 321,99 320,99 319,99 318,99 317,99 316,99 315,99 315,98 316,98 317,98 318,98 319,98 320,98 321,98 322,98 323,98 324,98 325,98 326,98 327,98 328,98 329,98 330,98 331,98 332,98 333,98 334,98 335,98 336,98 337,98 338,98 339,98 340,98 341,98 342,98 343,98 344,98 345,98 346,98 347,98 348,98 349,98 350,98 351,98 352,98 353,98 354,98 355,98 356,98 357,98 358,98 359,98 360,98 361,98 362,98 363,98 363,97 362,97 361,97 360,97 359,97 358,97 357,97 356,97 355,97 354,97 353,97 352,97 351,97 350,97 349,97 348,97 347,97 346,97 345,97 344,97 343,97 342,97 341,97 340,97 339,97 338,97 337,97 336,97 335,97 334,97 333,97 332,97 331,97 330,97 329,97 328,97 327,97 326,97 325,97 324,97 323,97 322,97 321,97 320,97 319,97 318,97 317,97 316,97 315,97 315,96 316,96 317,96 318,96 319,96 320,96 321,96 322,96 323,96 324,96 325,96 326,96 327,96 328,96 329,96 330,96 331,96 332,96 333,96 334,96 335,96 336,96 337,96 338,96 339,96 340,96 341,96 342,96 343,96 344,96 345,96 346,96 347,96 348,96 349,96 350,96 351,96 352,96 353,96 354,96 355,96 356,96 357,96 358,96 359,96 360,96 361,96 362,96 362,95 361,95 360,95 359,95 358,95 357,95 356,95 355,95 354,95 353,95 352,95 351,95 350,95 349,95 348,95 347,95 346,95 345,95 344,95 343,95 342,95 341,95 340,95 339,95 338,95 337,95 336,95 335,95 334,95 333,95 332,95 331,95 330,95 329,95 328,95 327,95 326,95 325,95 324,95 323,95 322,95 321,95 320,95 319,95 318,95 317,95 316,95 315,95 315,94 316,94 317,94 318,94 319,94 320,94 321,94 322,94 323,94 324,94 325,94 326,94 327,94 328,94 329,94 330,94 331,94 332,94 333,94 334,94 335,94 336,94 337,94 338,94 339,94 340,94 341,94 342,94 343,94 344,94 345,94 346,94 347,94 348,94 349,94 350,94 351,94 352,94 353,94 354,94 355,94 356,94 357,94 358,94 359,94 360,94 361,94 362,94 362,93 361,93 360,93 359,93 358,93 357,93 356,93 355,93 354,93 353,93 352,93 351,93 350,93 349,93 348,93 347,93 346,93 345,93 344,93 343,93 342,93 341,93 340,93 339,93 338,93 337,93 336,93 335,93 334,93 333,93 332,93 331,93 330,93 329,93 328,93 327,93 326,93 325,93 324,93 323,93 322,93 321,93 320,93 319,93 318,93 317,93 316,93 315,93 315,92 316,92 317,92 318,92 319,92 320,92 321,92 322,92 323,92 324,92 325,92 326,92 327,92 328,92 329,92 330,92 331,92 332,92 333,92 334,92 335,92 336,92 337,92 338,92 339,92 340,92 341,92 342,92 343,92 344,92 345,92 346,92 347,92 348,92 349,92 350,92 351,92 352,92 353,92 354,92 355,92 356,92 357,92 358,92 359,92 360,92 361,92 362,92 362,91 361,91 360,91 359,91 358,91 357,91 356,91 355,91 354,91 353,91 352,91 351,91 350,91 349,91 348,91 347,91 346,91 345,91 344,91 343,91 342,91 341,91 340,91 339,91 338,91 337,91 336,91 335,91 334,91 333,91 332,91 331,91 330,91 329,91 328,91 327,91 326,91 325,91 324,91 323,91 322,91 321,91 320,91 319,91 318,91 317,91 316,91 315,91 315,90 316,90 317,90 318,90 319,90 320,90 321,90 322,90 323,90 324,90 325,90 326,90 327,90 328,90 329,90 330,90 331,90 332,90 333,90 334,90 335,90 336,90 337,90 338,90 339,90 340,90 341,90 342,90 343,90 344,90 345,90 346,90 347,90 348,90 349,90 350,90 351,90 352,90 353,90 354,90 355,90 356,90 357,90 358,90 359,90 360,90 361,90 362,90 362,89 361,89 360,89 359,89 358,89 357,89 356,89 355,89 354,89 353,89 352,89 351,89 350,89 349,89 348,89 347,89 346,89 345,89 344,89 343,89 342,89 341,89 340,89 339,89 338,89 337,89 336,89 335,89 334,89 333,89 332,89 331,89 330,89 329,89 328,89 327,89 326,89 325,89 324,89 323,89 322,89 321,89 320,89 319,89 318,89 317,89 316,89 315,89 314,89 314,88 315,88 316,88 317,88 318,88 319,88 320,88 321,88 322,88 323,88 324,88 325,88 326,88 327,88 328,88 329,88 330,88 331,88 332,88 333,88 334,88 335,88 336,88 337,88 338,88 339,88 340,88 341,88 342,88 343,88 344,88 345,88 346,88 347,88 348,88 349,88 350,88 351,88 352,88 353,88 354,88 355,88 356,88 357,88 358,88 359,88 360,88 361,88 362,88 362,87 361,87 360,87 359,87 358,87 357,87 356,87 355,87 354,87 353,87 352,87 351,87 350,87 349,87 348,87 347,87 346,87 345,87 344,87 343,87 342,87 341,87 340,87 339,87 338,87 337,87 336,87 335,87 334,87 333,87 332,87 331,87 330,87 329,87 328,87 327,87 326,87 325,87 324,87 323,87 322,87 321,87 320,87 319,87 318,87 317,87 316,87 315,87 314,87 314,86 315,86 316,86 317,86 318,86 319,86 320,86 321,86 322,86 323,86 324,86 325,86 326,86 327,86 328,86 329,86 330,86 331,86 332,86 333,86 334,86 335,86 336,86 337,86 338,86 339,86 340,86 341,86 342,86 343,86 344,86 345,86 346,86 347,86 348,86 349,86 350,86 351,86 352,86 353,86 354,86 355,86 356,86 357,86 358,86 359,86 360,86 361,86 362,86 362,85 361,85 360,85 359,85 358,85 357,85 356,85 355,85 354,85 353,85 352,85 351,85 350,85 349,85 348,85 347,85 346,85 345,85 344,85 343,85 342,85 341,85 340,85 339,85 338,85 337,85 336,85 335,85 334,85 333,85 332,85 331,85 330,85 329,85 328,85 327,85 326,85 325,85 324,85 323,85 322,85 321,85 320,85 319,85 318,85 317,85 316,85 315,85 314,85 314,84 315,84 316,84 317,84 318,84 319,84 320,84 321,84 322,84 323,84 324,84 325,84 326,84 327,84 328,84 329,84 330,84 331,84 332,84 333,84 334,84 335,84 336,84 337,84 338,84 339,84 340,84 341,84 342,84 343,84 344,84 345,84 346,84 347,84 348,84 349,84 350,84 351,84 352,84 353,84 354,84 355,84 356,84 357,84 358,84 359,84 360,84 361,84 361,83 360,83 359,83 358,83 357,83 356,83 355,83 354,83 353,83 352,83 351,83 350,83 349,83 348,83 347,83 346,83 345,83 344,83 343,83 342,83 341,83 340,83 339,83 338,83 337,83 336,83 335,83 334,83 333,83 332,83 331,83 330,83 329,83 328,83 327,83 326,83 325,83 324,83 323,83 322,83 321,83 320,83 319,83 318,83 317,83 316,83 315,83 314,83 314,82 315,82 316,82 317,82 318,82 319,82 320,82 321,82 322,82 323,82 324,82 325,82 326,82 327,82 328,82 329,82 330,82 331,82 332,82 333,82 334,82 335,82 336,82 337,82 338,82 339,82 340,82 341,82 342,82 343,82 344,82 345,82 346,82 347,82 348,82 349,82 350,82 351,82 352,82 353,82 354,82 355,82 356,82 357,82 358,82 359,82 360,82 361,82 361,81 360,81 359,81 358,81 357,81 356,81 355,81 354,81 353,81 352,81 351,81 350,81 349,81 348,81 347,81 346,81 345,81 344,81 343,81 342,81 341,81 340,81 339,81 338,81 337,81 336,81 335,81 334,81 333,81 332,81 331,81 330,81 329,81 328,81 327,81 326,81 325,81 324,81 323,81 322,81 321,81 320,81 319,81 318,81 317,81 316,81 315,81 314,81 314,80 315,80 316,80 317,80 318,80 319,80 320,80 321,80 322,80 323,80 324,80 325,80 326,80 327,80 328,80 329,80 330,80 331,80 332,80 333,80 334,80 335,80 336,80 337,80 338,80 339,80 340,80 341,80 342,80 343,80 344,80 345,80 346,80 347,80 348,80 349,80 350,80 351,80 352,80 353,80 354,80 355,80 356,80 357,80 358,80 359,80 360,80 361,80 361,79 360,79 359,79 358,79 357,79 356,79 355,79 354,79 353,79 352,79 351,79 350,79 349,79 348,79 347,79 346,79 345,79 344,79 343,79 342,79 341,79 340,79 339,79 338,79 337,79 336,79 335,79 334,79 333,79 332,79 331,79 330,79 329,79 328,79 327,79 326,79 325,79 324,79 323,79 322,79 321,79 320,79 319,79 318,79 317,79 316,79 315,79 314,79 314,78 315,78 316,78 317,78 318,78 319,78 320,78 321,78 322,78 323,78 324,78 325,78 326,78 327,78 328,78 329,78 330,78 331,78 332,78 333,78 334,78 335,78 336,78 337,78 338,78 339,78 340,78 341,78 342,78 343,78 344,78 345,78 346,78 347,78 348,78 349,78 350,78 351,78 352,78 353,78 354,78 355,78 356,78 357,78 358,78 359,78 360,78 361,78 361,77 360,77 359,77 358,77 357,77 356,77 355,77 354,77 353,77 352,77 351,77 350,77 349,77 348,77 347,77 346,77 345,77 344,77 343,77 342,77 341,77 340,77 339,77 338,77 337,77 336,77 335,77 334,77 333,77 332,77 331,77 330,77 329,77 328,77 327,77 326,77 325,77 324,77 323,77 322,77 321,77 320,77 319,77 318,77 317,77 316,77 315,77 314,77 314,76 315,76 316,76 317,76 318,76 319,76 320,76 321,76 322,76 323,76 324,76 325,76 326,76 327,76 328,76 329,76 330,76 331,76 332,76 333,76 334,76 335,76 336,76 337,76 338,76 339,76 340,76 341,76 342,76 343,76 344,76 345,76 346,76 347,76 348,76 349,76 350,76 351,76 352,76 353,76 354,76 355,76 356,76 357,76 358,76 359,76 360,76 361,76 "
     id="299" />
</svg>
