<svg
   width="864"
   height = "1152"
   version="1.1"
   id="svg2"
   xmlns="http://www.w3.org/2000/svg"
   xmlns:svg="http://www.w3.org/2000/svg">
  <defs
     id="defs6" />

<path  style="fill:none;stroke:#000000;stroke-width:2;stroke-opacity:1"
       d="M 146,596 146,597 146,598 146,599 146,600 146,600 145,601 145,602 145,603 145,604 145,605 145,606 145,606 144,607 144,608 144,609 144,610 144,611 144,611 143,612 143,613 143,614 143,615 143,616 143,617 143,617 142,618 142,619 142,620 142,621 142,622 142,622 141,623 141,624 141,625 141,626 141,627 141,627 140,628 140,629 140,630 140,631 140,632 140,632 139,633 139,634 139,635 139,636 139,637 139,638 139,638 138,639 138,640 138,641 138,642 138,643 138,643 137,644 137,645 137,646 137,647 137,648 137,649 137,650 137,650 136,651 136,652 136,653 136,654 136,655 136,656 136,656 135,657 135,658 135,659 135,660 135,661 135,662 135,663 135,664 135,665 135,666 135,666 134,667 134,668 134,669 134,670 134,671 134,672 134,673 134,674 134,675 134,676 134,676 133,677 133,678 133,679 133,680 133,681 133,682 133,683 133,684 133,685 133,686 133,687 133,688 133,689 133,690 133,691 133,692 133,693 133,694 133,695 133,696 133,697 133,698 133,699 133,700 133,701 133,702 133,703 133,704 133,705 133,706 133,707 133,708 133,709 133,710 133,711 133,712 133,713 133,714 133,715 133,716 133,717 133,718 133,719 134,720 134,721 134,722 134,723 134,724 134,725 134,726 134,727 134,728 134,729 135,730 135,731 135,732 135,733 135,734 135,735 135,736 136,737 136,738 136,739 136,740 136,741 136,742 136,743 137,744 137,745 137,746 137,748 138,750 138,752 138,753 139,755 139,757 139,758 140,760 140,762 141,764 141,766 142,768 142,770 143,772 143,774 144,776 144,778 145,780 145,781 146,783 146,784 147,786 147,787 148,789 148,790 149,792 149,793 150,795 151,797 151,799 152,801 153,803 153,805 154,807 155,809 155,811 156,813 157,815 158,817 158,819 159,821 160,823 161,825 162,827 163,829 163,831 164,833 165,835 166,837 167,839 167,841 168,843 169,845 170,847 171,849 172,851 173,853 174,855 175,857 176,859 177,861 178,863 180,866 181,868 183,871 185,874 187,877 189,880 191,882 192,884 194,886 195,888 197,890 199,892 201,894 203,896 204,898 206,900 208,902 210,904 212,906 214,908 216,910 218,912 220,914 222,915 224,917 226,919 227,920 230,922 232,924 233,925 236,927 237,928 240,930 243,932 244,933 247,935 248,936 251,938 254,940 257,942 260,944 263,946 266,948 268,949 270,950 273,952 275,953 277,954 279,955 281,956 284,958 286,959 288,960 290,961 292,962 294,963 296,964 298,965 300,966 302,967 304,968 306,969 308,970 311,971 313,972 315,973 318,974 320,975 322,976 325,977 328,978 331,979 334,980 337,981 340,982 344,983 347,984 351,985 353,985 356,986 360,987 362,987 366,988 368,988 372,989 374,989 376,989 380,990 382,990 384,990 386,990 "
      id = "0" />
<path  style="fill:none;stroke:#000000;stroke-width:2;stroke-opacity:1"
       d="M 391,991 393,991 395,991 397,991 400,991 403,991 406,991 409,991 412,991 415,991 418,991 421,991 424,991 427,991 430,991 433,991 436,991 438,991 441,990 444,990 447,990 448,990 451,989 454,989 457,989 460,988 463,988 465,988 468,987 471,987 472,987 475,986 478,986 481,985 483,985 486,984 488,984 491,983 492,983 495,982 496,982 500,981 501,981 505,980 509,979 512,978 515,977 518,976 521,975 524,974 527,973 529,972 532,971 534,970 537,969 539,968 541,967 543,966 545,965 547,964 549,963 551,962 553,961 555,960 557,959 559,958 560,957 562,956 564,955 565,954 567,953 568,952 570,951 571,950 573,949 574,948 574,948 575,947 577,946 578,945 578,945 579,944 581,943 582,942 582,942 583,941 583,941 584,940 584,940 585,939 587,938 588,937 589,936 590,935 591,934 592,933 593,932 594,931 595,930 596,929 597,928 598,927 599,926 600,925 601,924 602,923 603,922 604,921 605,920 606,919 605,920 604,921 603,922 602,923 601,924 600,925 599,926 598,927 597,928 596,929 595,930 594,931 593,932 592,933 591,934 590,935 589,936 588,937 586,938 586,938 585,939 "
      id = "1" />
<path  style="fill:none;stroke:#000000;stroke-width:2;stroke-opacity:1"
       d="M 580,943 580,943 579,944 576,946 576,946 575,947 572,949 572,949 571,950 569,951 569,951 568,952 566,953 566,953 565,954 563,955 563,955 561,956 561,956 560,957 558,958 558,958 556,959 556,959 554,960 554,960 552,961 552,961 550,962 550,962 548,963 548,963 546,964 546,964 544,965 544,965 542,966 542,966 540,967 540,967 538,968 538,968 536,969 535,969 535,969 533,970 533,970 531,971 530,971 530,971 528,972 528,972 526,973 525,973 525,973 523,974 522,974 522,974 520,975 519,975 519,975 517,976 516,976 516,976 514,977 513,977 513,977 511,978 510,978 510,978 508,979 507,979 506,979 506,979 504,980 503,980 502,980 502,980 499,981 498,981 497,981 497,981 494,982 493,982 493,982 490,983 489,983 489,983 487,984 485,984 484,984 484,984 482,985 480,985 479,985 479,985 477,986 476,986 474,986 473,986 473,986 470,987 469,987 467,987 466,987 466,987 464,988 462,988 461,988 459,988 458,988 458,988 456,989 455,989 453,989 452,989 450,989 449,989 449,989 446,990 445,990 443,990 442,990 440,990 439,990 439,990 437,991 435,991 434,991 432,991 431,991 429,991 428,991 426,991 425,991 423,991 422,991 420,991 419,991 417,991 416,991 414,991 413,991 411,991 410,991 408,991 407,991 405,991 404,991 402,991 401,991 399,991 398,991 396,991 394,991 392,991 390,990 390,990 389,990 388,990 387,990 385,990 383,990 381,990 379,989 379,989 378,989 377,989 375,989 373,989 371,988 371,988 370,988 369,988 367,988 365,987 365,987 364,987 363,987 361,987 359,986 359,986 358,986 357,986 355,985 355,985 354,985 352,985 350,984 350,984 349,984 348,984 346,983 346,983 345,983 343,982 343,982 342,982 341,982 339,981 339,981 338,981 336,980 336,980 335,980 333,979 333,979 332,979 330,978 330,978 329,978 327,977 327,977 326,977 324,976 324,976 323,976 321,975 321,975 319,974 319,974 317,973 317,973 316,973 314,972 314,972 312,971 312,971 310,970 310,970 309,970 307,969 307,969 305,968 305,968 303,967 303,967 301,966 301,966 299,965 299,965 297,964 297,964 295,963 295,963 293,962 293,962 291,961 291,961 289,960 289,960 287,959 287,959 285,958 285,958 283,957 283,957 282,956 282,956 280,955 280,955 278,954 278,954 276,953 276,953 274,952 274,952 272,951 272,951 271,950 271,950 269,949 269,949 267,948 267,948 265,947 265,947 264,946 264,946 262,945 262,945 261,944 261,944 259,943 259,943 258,942 258,942 256,941 256,941 255,941 254,940 253,939 253,939 252,938 252,938 250,937 250,937 249,936 249,936 247,935 246,934 246,934 245,933 245,933 243,932 242,931 242,931 241,930 241,930 239,929 239,929 238,928 238,928 236,927 235,926 235,926 234,925 234,925 232,924 231,923 231,923 230,922 229,921 229,921 228,920 228,920 226,919 225,918 225,918 224,917 223,916 223,916 222,915 221,914 221,914 219,913 219,913 218,912 217,911 217,911 216,910 215,909 215,909 214,908 213,907 213,907 212,906 211,905 211,905 210,904 209,903 209,903 208,902 207,901 207,901 206,900 205,899 205,899 204,897 204,897 203,896 202,895 202,895 201,894 200,893 200,893 199,892 198,891 198,891 197,890 196,889 196,889 195,887 195,887 194,886 193,885 193,885 192,883 192,883 191,882 190,881 190,881 189,879 189,879 188,878 188,878 187,876 187,876 186,875 186,875 185,873 185,873 184,872 184,872 183,870 183,870 182,869 182,869 181,867 181,867 180,865 180,865 179,864 179,864 178,862 178,862 177,860 177,860 176,858 176,858 175,856 175,856 174,854 174,854 173,852 173,852 172,850 172,850 171,848 171,848 170,846 170,846 169,844 169,844 168,842 168,842 167,840 167,839 166,838 166,837 165,836 165,834 165,834 164,832 164,832 163,830 163,829 162,828 162,827 161,826 161,825 160,824 160,822 160,822 159,820 159,820 158,818 158,817 157,816 157,814 157,814 156,812 156,812 155,810 155,809 154,808 154,806 154,806 153,804 153,803 152,802 152,800 152,800 151,798 151,797 150,796 150,794 150,794 149,791 149,791 148,788 148,788 147,785 147,785 146,782 146,782 145,779 145,779 144,777 144,775 144,775 143,773 143,771 143,771 142,769 142,767 142,767 141,765 141,763 141,763 140,761 140,759 140,759 139,756 139,754 139,754 138,751 138,749 138,749 137,747 137,744 "
      id = "2" />
<path  style="fill:none;stroke:#000000;stroke-width:2;stroke-opacity:1"
       d="M 147,595 147,595 147,594 147,593 147,592 147,591 148,590 148,590 148,589 148,588 148,587 148,586 149,585 149,585 149,584 149,583 150,582 150,582 150,581 151,580 151,580 151,579 151,578 152,577 152,577 152,576 153,575 153,575 153,574 153,573 154,572 154,572 154,571 155,570 155,570 155,569 156,568 156,568 156,567 156,566 157,565 157,565 157,564 157,563 158,562 158,562 158,561 158,560 159,559 159,559 159,558 159,557 160,556 160,556 160,555 160,554 161,553 161,553 161,552 162,551 162,551 162,550 162,549 163,548 163,548 163,547 164,546 164,546 164,545 165,544 165,543 166,542 166,541 167,540 167,539 168,538 168,538 169,537 169,536 170,535 170,534 171,533 171,532 172,531 172,531 173,530 173,529 174,528 174,528 175,527 175,526 176,525 177,524 177,523 178,522 179,521 179,520 180,519 181,518 181,517 182,516 182,515 183,514 184,513 184,512 185,511 186,510 186,509 187,508 187,507 188,506 188,505 189,504 190,503 190,502 191,501 191,500 192,499 193,498 193,497 194,496 194,495 195,494 196,493 196,492 197,491 198,490 198,489 199,488 200,487 200,486 201,485 202,484 202,483 203,482 204,481 205,480 205,479 206,478 207,477 208,476 208,475 209,474 210,473 211,472 212,471 213,470 214,469 215,468 216,467 217,466 218,465 219,464 221,463 222,462 224,461 225,461 227,460 228,460 229,460 230,460 232,459 232,458 232,457 232,456 232,455 232,454 232,453 232,452 232,451 233,449 233,448 233,447 233,446 233,445 233,443 233,441 234,439 234,437 234,435 234,433 235,431 235,429 235,427 236,425 236,423 236,421 237,419 237,417 238,415 238,413 239,411 239,409 239,407 240,405 240,403 240,401 240,399 241,397 241,395 241,393 241,391 241,389 241,387 242,384 242,382 242,380 242,378 242,376 243,374 243,372 243,370 243,368 244,366 244,364 244,362 245,360 245,358 245,356 246,354 246,352 247,349 247,347 247,345 248,342 248,339 249,336 250,333 251,330 251,327 251,324 252,321 252,318 252,315 253,312 254,309 255,306 256,304 258,301 260,299 262,297 264,294 267,292 269,290 272,288 275,286 277,285 280,284 283,283 284,283 285,283 286,283 289,282 290,282 291,282 292,282 293,282 296,281 299,280 302,278 304,275 306,272 308,269 310,266 312,264 314,262 317,259 320,256 322,253 325,250 328,248 331,245 334,242 337,240 340,237 343,234 346,232 349,229 352,227 355,224 358,221 361,219 364,216 366,214 370,211 374,208 378,205 382,202 386,199 389,196 392,193 396,190 399,187 402,184 406,181 410,178 414,175 "
      id = "3" />
<path  style="fill:none;stroke:#000000;stroke-width:2;stroke-opacity:1"
       d="M 424,171 427,170 424,171 "
      id = "4" />
<path  style="fill:none;stroke:#000000;stroke-width:2;stroke-opacity:1"
       d="M 437,166 440,165 444,164 447,164 450,164 453,163 456,163 459,164 462,164 465,164 468,165 469,165 472,166 475,166 476,166 479,167 482,167 485,167 489,166 492,166 "
      id = "5" />
<path  style="fill:none;stroke:#000000;stroke-width:2;stroke-opacity:1"
       d="M 498,165 502,165 498,165 "
      id = "6" />
<path  style="fill:none;stroke:#000000;stroke-width:2;stroke-opacity:1"
       d="M 508,164 512,165 514,165 517,166 519,167 520,168 522,169 523,170 525,171 526,172 526,172 527,173 527,173 528,174 528,174 529,175 529,175 530,176 530,176 531,177 531,177 532,178 532,178 533,179 533,180 533,180 534,181 534,181 535,182 535,183 535,183 536,184 536,185 536,186 536,186 537,187 537,188 537,189 537,189 538,190 538,191 538,192 538,193 538,193 539,194 539,195 539,196 539,197 539,197 540,198 540,199 540,200 540,200 541,201 541,202 541,203 541,204 541,205 541,206 541,206 542,207 542,208 542,209 542,210 542,211 542,212 542,212 543,213 543,214 543,215 543,216 543,217 543,218 543,219 543,220 543,220 544,221 544,222 544,223 544,224 544,224 545,225 545,226 545,227 545,227 546,228 546,229 546,230 546,230 547,231 547,232 547,233 547,233 548,234 548,235 548,236 548,237 548,237 549,238 549,239 549,240 549,240 550,241 550,242 550,243 550,244 550,244 551,245 551,246 551,247 551,248 551,249 551,250 551,250 552,251 552,252 552,253 552,254 552,255 552,256 552,257 552,258 552,259 552,259 553,260 553,261 553,262 553,263 553,264 553,265 553,266 553,267 553,267 554,268 554,269 554,270 554,271 554,272 554,273 554,273 555,274 555,275 555,276 555,277 555,278 555,279 555,280 555,281 555,282 555,283 555,283 556,284 556,285 556,286 556,287 556,288 556,289 556,290 556,291 556,292 556,293 556,294 556,295 556,296 556,297 556,298 556,299 556,300 556,301 556,302 556,303 555,304 555,304 555,305 555,306 555,307 555,308 555,309 555,310 555,311 555,312 555,313 555,314 555,315 555,316 555,317 555,318 555,319 555,320 556,321 555,320 556,322 556,323 556,324 556,325 556,326 556,327 556,328 557,329 556,328 557,330 557,331 557,332 558,333 557,332 558,334 558,335 558,336 558,337 559,338 558,337 559,339 559,340 559,341 560,342 559,341 560,343 560,344 561,345 560,344 561,346 562,347 561,346 562,348 562,349 563,350 562,349 563,351 564,352 563,351 564,353 564,354 565,355 564,354 565,356 565,357 566,358 565,357 566,359 567,360 566,359 567,361 567,362 568,363 568,364 569,365 569,366 570,367 570,368 569,366 568,364 567,362 "
      id = "7" />
<path  style="fill:none;stroke:#000000;stroke-width:2;stroke-opacity:1"
       d="M 570,369 571,370 571,371 570,369 571,372 572,373 573,375 573,376 572,374 572,374 571,372 570,369 "
      id = "8" />
<path  style="fill:none;stroke:#000000;stroke-width:2;stroke-opacity:1"
       d="M 573,377 574,378 574,379 573,377 574,380 575,381 575,382 576,384 576,385 577,387 577,388 580,391 581,392 582,393 583,394 584,395 585,397 586,399 586,400 587,402 587,403 587,404 587,405 587,406 587,407 587,408 587,409 587,410 587,411 587,412 587,413 587,414 587,415 587,416 587,417 587,418 587,419 587,420 587,421 588,423 588,424 589,426 589,427 589,428 590,430 590,431 591,433 591,434 592,436 592,437 592,438 593,440 593,441 593,442 594,444 594,445 594,446 595,448 595,449 595,450 595,451 596,453 597,455 599,457 602,459 605,461 608,463 610,465 612,467 614,469 616,471 618,473 619,475 620,477 621,478 622,480 623,482 624,483 625,485 626,487 627,488 628,490 630,492 631,493 632,495 633,496 634,498 636,500 637,502 638,504 639,505 640,507 641,509 642,511 644,514 645,516 646,518 647,520 648,522 648,523 649,525 650,527 "
      id = "9" />
<path  style="fill:none;stroke:#000000;stroke-width:2;stroke-opacity:1"
       d="M 656,531 660,531 664,533 668,535 670,537 672,540 673,541 675,544 676,546 676,547 677,549 677,550 678,552 678,553 678,554 678,555 678,556 679,559 679,560 679,561 679,562 679,563 680,566 680,567 680,568 680,569 681,572 681,573 681,574 681,575 681,576 681,577 681,578 681,579 681,580 682,583 682,584 682,585 682,586 682,587 682,588 682,589 682,590 682,591 682,592 682,593 682,594 682,595 681,596 681,596 681,597 681,598 681,599 681,600 681,601 681,602 681,603 681,604 681,605 680,606 680,606 680,607 680,608 680,609 680,610 679,611 679,611 679,612 679,613 679,614 678,615 678,615 678,616 678,617 678,618 678,619 677,620 677,620 677,621 677,622 677,623 676,624 676,624 676,625 676,626 676,627 675,628 675,628 675,629 675,630 675,631 675,632 674,633 674,633 674,634 674,635 674,636 673,637 673,637 673,638 673,639 673,640 672,641 672,641 672,642 672,643 672,644 671,645 671,645 671,646 671,647 670,648 670,649 670,650 670,648 669,651 669,652 669,653 669,651 668,654 668,655 668,656 668,657 667,658 667,659 667,660 667,661 666,662 666,663 666,664 666,665 665,666 665,667 665,668 665,669 664,670 664,671 664,672 664,673 663,674 663,675 663,676 663,677 663,678 662,679 662,680 662,681 662,682 662,683 662,684 662,685 662,686 661,687 661,688 661,689 661,690 661,691 661,692 661,693 661,694 661,695 662,699 662,700 662,701 662,702 663,706 663,707 664,711 664,712 665,716 665,717 665,718 665,719 665,720 664,721 664,722 664,723 664,724 664,725 664,726 663,727 663,728 663,729 663,730 663,731 662,732 662,733 662,734 662,735 661,736 661,737 661,738 661,739 661,740 661,741 660,742 660,743 660,744 660,745 659,746 659,747 659,749 659,748 658,750 658,752 658,751 658,750 657,753 657,755 657,754 657,753 656,756 656,758 656,757 656,756 655,759 655,761 655,760 655,759 654,762 654,764 654,763 654,762 653,765 653,767 653,766 653,765 652,768 652,770 652,771 651,773 651,774 650,776 650,777 649,779 649,780 648,782 648,784 648,783 647,785 647,787 647,788 646,790 646,792 646,793 645,795 645,797 645,799 645,800 644,802 644,804 644,806 644,808 644,810 644,812 644,814 644,815 643,817 643,819 643,821 643,823 643,825 643,827 643,826 642,828 642,830 642,832 642,834 642,835 641,837 641,839 641,841 641,843 640,845 640,847 640,848 639,851 639,853 638,856 638,857 637,860 637,861 636,864 635,867 635,868 634,870 633,873 632,876 631,878 630,881 629,883 628,885 627,888 626,890 625,892 624,893 624,893 623,895 622,897 621,898 621,898 620,900 619,901 619,901 618,903 617,904 617,904 616,906 615,907 615,907 614,908 614,908 613,910 612,911 612,911 611,912 611,912 610,914 609,915 609,915 608,916 608,916 607,917 607,917 606,918 606,918 "
      id = "10" />
<path  style="fill:none;stroke:#000000;stroke-width:2;stroke-opacity:1"
       d="M 610,913 610,913 613,909 613,909 616,905 616,905 618,902 618,902 620,899 620,899 622,896 622,896 623,894 623,894 625,891 625,891 626,889 626,889 627,887 627,886 627,886 628,884 628,884 629,882 629,882 630,880 630,879 630,879 631,877 631,877 632,875 632,874 632,874 633,872 633,871 633,871 634,869 634,869 635,866 635,865 635,865 636,863 636,862 636,862 637,859 637,858 637,858 638,855 638,854 638,854 639,852 639,850 639,849 639,849 640,846 640,844 640,844 641,842 641,840 641,838 641,836 641,836 642,833 642,831 642,829 642,828 643,824 643,822 643,820 643,818 643,816 643,816 644,813 644,811 644,809 644,807 644,805 644,803 644,801 644,801 645,798 645,796 645,794 645,794 646,791 646,789 646,789 647,786 647,785 648,781 648,781 649,778 649,778 650,775 650,775 651,772 651,772 652,769 652,768 "
      id = "11" />
<path  style="fill:none;stroke:#000000;stroke-width:2;stroke-opacity:1"
       d="M 664,715 664,715 664,714 664,713 663,710 663,710 663,709 663,708 662,705 662,705 662,704 662,703 "
      id = "12" />
<path  style="fill:none;stroke:#000000;stroke-width:2;stroke-opacity:1"
       d="M 663,674 664,670 665,666 666,662 667,658 668,654 "
      id = "13" />
<path  style="fill:none;stroke:#000000;stroke-width:2;stroke-opacity:1"
       d="M 677,551 677,551 676,548 676,548 675,545 675,545 674,543 674,543 673,542 673,542 672,540 671,539 671,539 670,538 670,538 669,536 669,536 667,535 667,535 666,534 665,534 665,534 663,533 663,533 662,532 661,532 661,532 659,531 658,531 657,531 655,532 655,532 654,532 653,532 652,533 652,533 651,532 651,531 651,533 651,533 650,530 650,529 650,528 650,530 649,526 649,526 648,524 648,524 647,521 647,521 646,519 646,519 645,517 645,517 644,515 644,515 643,513 643,513 642,512 642,512 641,510 641,510 640,508 640,508 639,506 639,506 638,504 637,503 637,503 636,501 636,501 635,499 635,499 634,498 633,497 633,497 632,495 631,494 631,494 630,492 629,491 629,491 628,490 627,489 627,489 626,487 625,486 625,486 624,484 624,484 623,482 622,481 622,481 621,479 621,479 620,477 619,476 619,476 618,474 618,474 617,472 617,472 616,471 615,470 615,470 614,469 613,468 613,468 612,467 611,466 611,466 610,465 609,464 609,464 607,463 607,463 606,462 606,462 604,461 604,461 603,460 603,460 601,459 601,459 600,458 600,458 599,457 598,456 597,456 597,456 596,454 596,454 595,452 595,452 "
      id = "14" />
<path  style="fill:none;stroke:#000000;stroke-width:2;stroke-opacity:1"
       d="M 594,447 594,447 593,443 593,443 592,439 592,439 591,435 591,435 590,432 590,432 589,429 589,429 588,425 588,425 587,422 587,422 "
      id = "15" />
<path  style="fill:none;stroke:#000000;stroke-width:2;stroke-opacity:1"
       d="M 586,401 586,401 585,398 585,398 584,396 584,396 583,394 582,393 581,392 579,391 578,390 578,391 578,391 577,389 577,389 576,386 576,386 575,383 575,383 574,380 "
      id = "16" />
<path  style="fill:none;stroke:#000000;stroke-width:2;stroke-opacity:1"
       d="M 524,171 524,171 523,170 521,169 521,169 520,168 518,167 518,167 516,166 515,166 515,166 513,165 511,165 510,165 509,165 509,165 507,165 507,165 506,165 505,165 504,165 503,165 501,165 500,165 499,165 497,166 497,166 496,166 495,166 494,166 493,166 491,166 490,166 488,167 488,167 487,167 486,167 484,167 483,167 481,167 480,167 478,167 477,167 477,167 474,166 473,166 471,166 470,166 470,166 467,165 466,165 466,165 464,164 463,164 461,164 460,164 458,164 457,164 457,164 455,163 454,163 452,164 452,164 451,164 449,164 448,164 446,164 445,164 443,165 443,165 442,165 441,165 439,166 439,166 438,166 436,167 436,167 435,167 434,168 434,168 433,168 431,169 431,169 430,169 429,170 429,170 428,170 426,171 426,171 425,171 423,172 423,172 422,172 421,173 421,173 420,173 418,174 418,174 417,174 416,175 416,175 415,175 413,176 413,176 412,177 412,177 411,177 410,178 409,179 409,179 408,179 407,180 407,180 406,181 405,182 405,182 404,182 403,183 403,183 402,184 401,185 401,185 400,186 400,186 399,187 398,188 398,188 397,189 397,189 396,190 395,191 395,191 394,191 393,192 393,192 392,193 391,194 391,194 390,195 390,195 389,196 388,197 388,197 387,198 387,198 386,199 385,200 385,200 384,200 383,201 383,201 382,202 381,203 381,203 380,204 380,204 379,204 378,205 377,206 377,206 376,207 376,207 375,207 374,208 373,209 373,209 372,210 372,210 371,211 371,211 369,212 369,212 368,213 368,213 367,214 367,214 365,215 365,215 364,216 363,217 363,217 362,218 362,218 361,219 360,220 360,220 359,221 359,221 357,222 357,222 356,223 356,223 355,224 354,225 354,225 353,226 353,226 352,227 351,228 351,228 350,229 350,229 348,230 348,230 347,231 347,231 346,232 345,233 345,233 344,234 344,234 342,235 342,235 341,236 341,236 340,237 339,238 339,238 338,239 338,239 337,240 336,241 336,241 335,242 335,242 333,243 333,243 332,244 332,244 331,245 330,246 330,246 329,247 329,247 328,248 327,249 327,249 326,249 325,250 324,251 324,251 323,252 323,252 322,254 322,254 321,255 321,255 320,256 319,257 319,257 318,258 318,258 317,259 316,260 316,260 315,261 315,261 314,262 313,263 313,263 312,264 311,265 311,265 310,267 310,267 309,268 309,268 308,269 307,270 307,271 307,271 306,272 305,273 305,274 305,274 304,275 303,276 303,277 303,277 302,278 301,279 301,279 300,280 300,280 298,281 298,281 297,281 295,282 295,282 294,282 "
      id = "17" />
<path  style="fill:none;stroke:#000000;stroke-width:2;stroke-opacity:1"
       d="M 282,284 282,284 281,284 279,285 279,285 278,285 276,286 276,286 274,287 274,287 273,287 272,288 271,289 271,289 270,289 269,290 268,291 268,291 267,292 266,293 266,293 265,294 265,294 263,295 263,296 263,296 262,297 261,298 261,298 260,299 259,300 259,300 258,302 258,302 257,303 257,303 256,305 256,305 255,307 255,307 254,308 254,309 253,310 253,311 253,313 253,313 252,314 252,316 252,317 252,319 252,320 252,322 252,322 251,323 251,325 251,326 251,328 251,329 251,330 250,331 250,332 250,334 250,334 249,335 249,337 249,338 249,338 248,340 248,341 248,343 248,343 247,344 247,346 247,348 247,349 246,350 246,351 246,353 246,354 245,355 245,357 245,359 245,360 244,361 244,363 244,365 244,366 243,367 243,369 243,371 243,373 243,374 242,375 242,377 242,379 242,381 242,383 242,384 241,385 241,386 241,388 241,390 241,392 241,394 241,396 241,397 240,398 240,400 240,402 240,404 240,405 239,406 239,408 239,410 239,411 238,412 238,414 238,416 238,416 237,418 237,420 237,420 236,422 236,424 236,425 235,426 235,428 235,430 235,431 234,432 234,434 234,436 234,438 234,440 234,440 233,442 233,444 233,449 232,450 "
      id = "18" />
<path  style="fill:none;stroke:#000000;stroke-width:2;stroke-opacity:1"
       d="M 226,461 226,461 223,462 223,462 221,463 220,464 220,464 218,465 217,466 216,467 215,468 214,469 213,470 212,471 211,472 210,473 209,474 208,476 207,477 206,478 205,480 204,481 203,482 202,484 201,485 200,487 199,488 198,490 197,491 196,493 195,494 194,496 193,498 192,499 191,501 190,503 189,504 188,506 187,508 186,510 185,511 184,513 183,514 182,516 181,518 180,519 179,521 178,522 177,524 176,525 175,527 173,530 171,533 170,535 169,537 167,540 166,542 "
      id = "19" />
<path  style="fill:none;stroke:#000000;stroke-width:2;stroke-opacity:1"
       d="M 329,377 329,377 329,378 328,379 328,379 327,380 327,380 327,381 326,382 326,382 325,383 325,383 325,384 324,385 324,385 324,386 323,387 323,387 323,388 322,389 322,389 322,390 321,391 321,391 321,392 321,393 320,394 320,394 320,395 320,396 319,397 319,397 319,398 319,399 319,400 319,401 318,402 318,402 318,403 318,404 318,405 317,406 317,406 317,407 317,408 317,409 317,410 316,411 316,411 316,412 316,413 316,414 316,415 316,416 315,417 315,417 315,418 315,419 315,420 315,421 315,422 314,423 314,423 314,424 314,425 314,426 314,427 314,428 314,429 314,430 314,431 314,432 314,433 314,434 314,435 314,436 313,437 313,438 313,439 313,440 313,441 313,442 312,443 312,444 312,445 312,446 311,447 311,448 311,449 311,450 310,451 310,452 310,453 309,454 309,455 308,456 308,457 308,458 308,459 307,459 307,459 307,459 309,459 309,459 310,458 311,458 311,458 312,457 313,457 314,457 315,457 315,457 316,456 317,456 318,456 319,456 320,456 320,456 321,455 322,455 323,455 324,455 325,455 326,455 327,455 328,455 329,455 330,455 331,455 332,456 332,456 333,456 334,456 335,457 335,457 336,457 337,458 337,458 338,458 339,458 340,459 340,459 341,459 342,460 342,460 343,460 344,461 344,461 345,461 346,462 346,462 347,462 348,463 348,463 349,463 350,464 350,464 351,464 352,465 352,465 353,465 354,466 354,466 355,466 356,466 357,467 357,467 358,467 359,467 359,467 359,466 359,465 359,465 358,464 358,463 358,462 358,461 358,460 358,459 358,458 358,457 358,456 358,455 358,454 358,453 358,452 358,451 358,451 357,450 358,449 358,449 358,448 358,447 358,446 359,445 359,445 359,444 360,443 360,443 360,442 361,441 361,441 362,440 362,440 362,439 362,438 362,437 362,437 361,436 361,435 361,435 360,434 360,433 360,433 359,432 359,431 359,430 359,430 358,429 358,428 358,427 358,426 358,426 357,425 357,424 357,423 357,422 357,421 357,420 357,419 357,418 357,417 358,416 358,416 358,415 358,414 358,413 358,412 359,411 359,411 359,410 359,409 360,408 360,408 361,407 362,407 362,407 363,406 364,407 364,407 365,407 366,407 366,407 367,406 367,406 368,405 369,405 370,405 370,405 371,404 372,405 372,405 373,405 374,405 375,405 376,405 377,405 377,405 378,404 378,404 379,403 380,403 381,403 382,403 383,403 383,403 384,402 385,402 385,402 386,401 386,401 387,400 388,400 388,400 389,399 390,400 391,400 392,401 392,401 392,401 393,400 394,400 394,400 395,399 396,399 396,399 397,398 398,399 399,399 400,399 400,399 401,398 402,398 403,398 404,398 405,398 406,398 407,398 407,398 408,397 409,397 409,397 410,396 411,396 412,396 413,396 414,396 415,396 416,396 417,396 418,396 419,396 419,396 420,395 420,395 421,394 421,394 422,393 422,393 423,392 424,392 425,392 425,392 427,392 428,392 429,392 430,393 431,393 432,394 432,394 432,394 433,393 434,393 435,393 436,393 437,394 438,394 438,394 439,393 440,393 441,393 442,393 442,393 443,392 443,392 444,391 445,390 446,390 447,389 448,389 449,390 450,390 451,391 452,392 453,393 454,394 455,395 456,395 457,396 458,397 459,398 459,399 460,400 462,400 462,401 462,402 462,402 462,403 463,404 463,404 463,405 463,406 463,406 463,407 463,407 463,408 463,408 463,409 463,409 463,410 463,410 463,411 463,411 463,412 464,413 464,413 464,414 464,415 464,416 464,417 464,418 464,419 465,420 465,420 465,421 466,422 466,422 466,423 466,423 465,423 464,424 464,424 463,424 462,425 462,425 461,425 461,425 461,424 461,423 461,422 461,421 461,421 462,420 462,419 462,418 462,417 462,417 463,416 463,415 463,414 463,413 463,412 "
      id = "20" />
<path  style="fill:none;stroke:#000000;stroke-width:2;stroke-opacity:1"
       d="M 462,405 462,405 462,404 462,403 461,401 461,401 462,399 462,398 462,397 462,396 462,395 462,394 462,394 462,392 462,392 462,391 463,390 464,389 465,389 466,389 467,389 468,389 469,389 470,389 471,389 472,389 473,389 474,389 475,388 476,388 477,388 478,388 479,388 481,388 483,388 485,388 487,388 488,388 489,389 490,390 492,390 492,391 492,392 492,393 492,394 492,395 492,396 492,397 492,398 492,399 493,400 493,400 493,401 493,402 493,403 493,404 493,405 493,406 493,407 493,408 493,409 493,410 494,411 494,411 494,412 494,413 495,415 495,415 495,416 495,417 495,418 495,419 495,420 496,422 496,422 496,423 496,424 497,426 497,426 497,426 496,426 496,425 495,426 494,426 493,426 492,426 492,426 491,425 490,425 489,425 488,425 487,425 486,425 486,425 486,424 487,423 487,422 488,421 488,420 488,419 489,418 489,417 489,416 490,415 490,414 490,413 490,412 491,411 491,410 491,409 491,408 491,407 491,406 491,405 491,404 491,403 491,402 491,401 491,400 491,399 491,398 491,397 491,396 491,395 491,394 491,393 491,392 491,391 492,389 492,388 493,387 493,387 493,386 494,385 496,384 498,383 499,383 501,382 503,382 505,382 507,382 509,382 511,382 513,382 515,382 517,382 519,382 521,382 523,382 525,382 526,382 526,383 526,384 526,385 526,386 526,387 526,388 526,389 526,390 526,391 526,392 526,393 526,394 526,395 526,396 527,398 527,398 527,399 527,400 527,401 527,402 527,403 527,404 527,405 527,405 526,406 526,407 526,408 526,409 526,410 526,411 526,412 526,413 526,414 526,415 526,416 526,417 526,418 526,419 526,420 526,421 526,422 526,423 526,423 525,423 524,423 524,423 523,422 522,423 522,423 521,423 520,423 520,423 520,422 521,421 521,420 521,419 521,418 521,417 522,416 522,415 522,414 522,413 522,412 522,411 522,410 522,409 523,408 523,407 523,406 523,405 523,404 523,403 523,402 523,401 523,400 523,399 523,398 526,397 524,395 524,394 524,393 524,392 524,391 525,390 525,389 525,388 525,387 525,386 525,385 524,384 524,384 524,382 526,381 526,381 526,381 523,383 523,383 522,382 522,382 521,382 520,382 520,381 520,381 519,380 519,379 519,379 518,378 518,377 518,376 518,375 518,375 517,374 517,373 517,372 517,371 517,370 517,369 517,368 517,368 516,367 516,366 516,366 515,365 515,365 514,364 514,363 514,363 513,362 513,362 512,361 512,361 511,360 511,359 511,359 510,358 510,358 509,357 509,356 509,356 508,355 508,354 508,354 507,353 507,352 507,352 506,351 506,350 506,349 506,349 505,348 505,347 505,346 505,345 505,344 505,343 505,343 504,342 504,341 504,340 504,339 504,338 504,337 504,336 504,335 504,334 504,333 504,332 504,331 504,330 504,329 504,328 504,327 504,326 504,325 504,324 504,323 504,322 504,321 504,320 505,318 505,317 505,316 506,314 507,312 508,310 509,308 510,307 511,305 511,305 511,305 510,305 510,306 510,307 509,305 508,305 507,305 506,305 505,305 504,305 503,305 502,304 502,304 501,303 501,302 501,301 501,300 501,299 501,298 501,297 501,296 501,295 501,294 501,293 501,292 501,292 500,291 500,290 500,289 500,289 499,288 499,287 499,286 499,286 498,285 498,285 497,285 496,285 495,285 495,285 495,286 495,286 496,287 496,288 496,289 496,290 496,291 496,291 497,292 497,293 497,294 497,294 498,295 498,296 498,297 498,297 499,298 499,299 499,300 499,300 500,301 500,302 500,303 500,304 499,305 499,305 498,306 497,306 496,306 495,306 494,306 493,306 492,306 491,305 491,305 491,305 490,306 489,306 488,306 487,306 486,306 485,306 484,306 483,306 482,306 481,306 480,306 480,306 479,307 478,307 477,306 477,306 476,305 476,305 475,304 475,303 475,302 475,302 474,301 474,300 474,299 474,298 474,297 474,296 474,296 473,295 473,294 473,293 473,292 473,291 473,290 473,289 473,288 473,287 473,287 472,287 471,287 470,287 470,287 470,288 470,288 471,289 471,290 471,291 471,291 472,292 472,293 472,294 472,295 472,296 472,297 472,297 473,298 473,299 473,300 473,301 473,302 473,302 474,303 474,304 474,305 473,306 473,306 472,307 471,307 471,307 470,308 469,308 468,308 468,308 467,309 466,309 465,309 465,309 464,310 463,310 462,310 462,310 461,311 460,311 459,311 458,311 458,311 457,312 456,312 455,312 454,312 453,312 452,311 452,310 452,309 452,308 452,307 452,306 452,305 452,305 451,304 451,303 451,302 451,301 451,300 451,299 451,298 451,298 450,297 450,296 450,295 450,294 450,293 450,292 450,291 450,291 449,291 448,291 448,291 448,292 448,293 448,293 449,294 449,295 449,296 449,297 449,298 449,298 450,299 450,300 450,301 450,302 450,303 450,304 450,305 449,306 449,306 449,307 449,308 448,309 448,309 447,310 446,310 446,310 445,311 445,311 444,312 444,312 443,313 442,313 442,313 441,314 441,314 440,315 440,315 440,316 439,317 439,317 439,318 439,319 438,320 438,320 437,321 437,321 436,322 435,322 434,322 433,322 432,322 431,322 431,322 430,323 429,323 429,323 428,324 428,324 427,325 426,325 426,325 425,326 424,326 423,326 423,326 422,327 421,327 420,327 419,326 419,326 418,326 417,325 417,325 417,325 417,326 417,327 416,328 416,328 416,329 416,330 415,331 415,331 414,332 414,332 413,333 413,333 412,334 411,334 411,334 410,335 409,335 409,335 408,336 408,336 407,337 407,337 406,338 406,338 405,339 404,339 404,339 403,340 402,340 401,340 400,340 399,340 398,340 397,339 397,339 396,339 395,339 395,339 395,340 395,341 394,342 394,342 394,343 393,344 393,344 392,345 391,345 391,345 390,346 389,346 389,346 388,347 388,347 387,348 387,348 386,349 386,349 385,350 384,350 384,350 384,351 384,352 384,353 383,354 383,354 383,355 382,356 382,356 381,357 381,357 380,358 380,358 379,359 379,359 379,360 378,361 378,361 377,362 377,362 377,363 376,364 375,364 375,364 374,365 374,365 373,366 372,366 371,366 370,366 370,366 370,367 370,368 370,369 369,370 369,370 369,371 368,372 367,372 367,372 366,373 365,373 365,373 364,374 364,374 364,375 364,376 363,377 363,377 362,378 362,378 361,379 361,379 360,380 359,380 359,380 358,381 357,381 356,380 356,380 355,380 354,380 353,379 353,379 352,379 351,379 350,379 349,379 349,379 348,380 347,380 346,380 345,380 344,379 344,379 343,378 343,378 342,377 342,376 342,375 342,375 341,374 341,373 341,372 341,371 341,370 341,369 341,369 340,368 340,367 340,367 339,367 339,367 338,368 338,368 337,369 337,369 336,370 336,370 335,371 335,371 334,372 334,372 333,373 333,373 332,374 332,374 331,375 331,375 330,376 330,376 "
      id = "21" />
<path  style="fill:none;stroke:#000000;stroke-width:2;stroke-opacity:1"
       d="M 312,443 311,447 310,451 309,454 308,456 "
      id = "22" />
<path  style="fill:none;stroke:#000000;stroke-width:2;stroke-opacity:1"
       d="M 426,391 427,392 430,393 426,391 "
      id = "23" />
<path  style="fill:none;stroke:#000000;stroke-width:2;stroke-opacity:1"
       d="M 444,391 446,390 449,390 451,391 452,392 453,393 454,394 455,395 457,396 458,397 459,399 460,400 "
      id = "24" />
<path  style="fill:none;stroke:#000000;stroke-width:2;stroke-opacity:1"
       d="M 461,393 463,390 461,393 "
      id = "25" />
<path  style="fill:none;stroke:#000000;stroke-width:2;stroke-opacity:1"
       d="M 480,388 482,388 484,388 486,388 489,389 490,390 "
      id = "26" />
<path  style="fill:none;stroke:#000000;stroke-width:2;stroke-opacity:1"
       d="M 494,385 496,384 497,383 499,383 500,382 502,382 504,382 506,382 508,382 510,382 512,382 514,382 516,382 518,382 "
      id = "27" />
<path  style="fill:none;stroke:#000000;stroke-width:2;stroke-opacity:1"
       d="M 494,414 490,412 489,416 488,419 487,422 486,424 "
      id = "28" />
<path  style="fill:none;stroke:#000000;stroke-width:2;stroke-opacity:1"
       d="M 504,319 505,318 505,315 506,314 507,312 508,310 509,308 508,309 507,311 "
      id = "29" />
<path  style="fill:none;stroke:#000000;stroke-width:2;stroke-opacity:1"
       d="M 613,536 613,535 613,534 613,533 613,532 613,531 613,530 613,529 613,528 613,527 613,526 613,525 613,525 613,525 614,526 615,526 615,526 616,527 616,527 617,528 617,528 618,529 618,529 619,530 619,530 620,531 620,531 621,532 621,532 622,533 622,533 623,534 623,534 624,535 624,535 625,536 625,536 625,537 626,538 626,538 627,539 627,539 628,540 628,540 629,541 629,541 630,542 630,542 630,543 631,543 631,543 631,543 629,544 629,544 628,544 627,545 627,545 626,545 625,545 624,545 623,545 622,545 621,545 620,545 619,545 618,545 617,545 617,545 616,544 615,544 614,544 614,544 614,543 614,542 614,541 614,540 614,539 613,538 613,538 613,536 "
      id = "30" />
<path  style="fill:none;stroke:#000000;stroke-width:2;stroke-opacity:1"
       d="M 645,795 647,785 "
      id = "31" />
<path  style="fill:none;stroke:#000000;stroke-width:2;stroke-opacity:1"
       d="M 135,666 136,656 "
      id = "32" />
<path  style="fill:none;stroke:#000000;stroke-width:2;stroke-opacity:1"
       d="M 76,76 788,76 788,1076 76,1076 76,76 "
      id = "33" />
</svg>
