<svg
   width="384"
   height = "768"
   version="1.1"
   id="svg2"
   xmlns="http://www.w3.org/2000/svg"
   xmlns:svg="http://www.w3.org/2000/svg">
  <defs
     id="defs6" />

<rect
   style="fill:#F3F3F3;stroke-width:0;stroke-opacity:0"
   id="Background"
   width="384"
   height="768"
   x="0"
   y="0"
   rx="0" />
  <path
     style="fill:none;stroke:#000000;stroke-width:5;stroke-opacity:1"
     d = "M 284.1529,274.1921 296.7163,254.7997 312.011,231.0226 327.4691,209.5025 336.0247,200.2509 "
id = "0" />
  <path
     style="fill:none;stroke:#000000;stroke-width:5;stroke-opacity:1"
     d = "M 285.8831,274.3245 298.6776,254.8439 314.1288,231.0217 329.5885,209.8586 336.0083,203.1293 "
id = "1" />
  <path
     style="fill:none;stroke:#000000;stroke-width:5;stroke-opacity:1"
     d = "M 287.6107,274.487 300.6393,254.9655 316.2489,231.2006 331.7183,210.3356 336.0531,205.9025 "
id = "2" />
  <path
     style="fill:none;stroke:#000000;stroke-width:5;stroke-opacity:1"
     d = "M 289.3352,274.6797 302.6207,255.1415 318.3712,231.4931 333.9104,210.8861 336.0372,208.7703 "
id = "3" />
  <path
     style="fill:none;stroke:#000000;stroke-width:5;stroke-opacity:1"
     d = "M 291.0561,274.9023 304.5763,255.3522 320.4562,231.8695 336.0421,211.5609 "
id = "4" />
  <path
     style="fill:none;stroke:#000000;stroke-width:5;stroke-opacity:1"
     d = "M 293.3441,275.246 307.1393,255.6729 323.1705,232.4233 336.0308,216.0749 "
id = "5" />
  <path
     style="fill:none;stroke:#000000;stroke-width:5;stroke-opacity:1"
     d = "M 294.4849,275.4377 308.391,255.8594 324.4863,232.7376 336.0149,218.2703 "
id = "6" />
  <path
     style="fill:none;stroke:#000000;stroke-width:5;stroke-opacity:1"
     d = "M 296.1918,275.7502 310.2639,256.1796 326.4359,233.2751 336.0565,221.5068 "
id = "7" />
  <path
     style="fill:none;stroke:#000000;stroke-width:5;stroke-opacity:1"
     d = "M 297.893,276.0924 312.1413,256.5868 328.4078,233.9316 336.0025,224.8983 "
id = "8" />
  <path
     style="fill:none;stroke:#000000;stroke-width:5;stroke-opacity:1"
     d = "M 300.1514,276.5948 314.6296,257.2652 331.0472,234.9704 336.0547,229.2544 "
id = "9" />
  <path
     style="fill:none;stroke:#000000;stroke-width:5;stroke-opacity:1"
     d = "M 301.8372,277.006 316.504,257.8378 333.0228,235.8303 336.0536,232.5035 "
id = "10" />
  <path
     style="fill:none;stroke:#000000;stroke-width:5;stroke-opacity:1"
     d = "M 302.957,277.2964 317.749,258.2453 334.3224,236.4274 336.0306,234.602 "
id = "11" />
  <path
     style="fill:none;stroke:#000000;stroke-width:5;stroke-opacity:1"
     d = "M 304.6302,277.7564 319.6329,258.872 336.0189,237.7926 "
id = "12" />
  <path
     style="fill:none;stroke:#000000;stroke-width:5;stroke-opacity:1"
     d = "M 306.2784,278.2407 321.4988,259.5266 336.0471,241.3235 "
id = "13" />
  <path
     style="fill:none;stroke:#000000;stroke-width:5;stroke-opacity:1"
     d = "M 307.9511,278.7638 323.3915,260.2385 336.0051,244.8495 "
id = "14" />
  <path
     style="fill:none;stroke:#000000;stroke-width:5;stroke-opacity:1"
     d = "M 309.5979,279.3108 325.2293,260.955 336.0523,248.1033 "
id = "15" />
  <path
     style="fill:none;stroke:#000000;stroke-width:5;stroke-opacity:1"
     d = "M 311.2349,279.8864 327.0473,261.7041 336.007,251.3387 "
id = "16" />
  <path
     style="fill:none;stroke:#000000;stroke-width:5;stroke-opacity:1"
     d = "M 313.4014,280.6982 329.4011,262.72 336.063,255.2644 "
id = "17" />
  <path
     style="fill:none;stroke:#000000;stroke-width:5;stroke-opacity:1"
     d = "M 315.0136,281.34 331.1978,263.5198 336.056,258.2047 "
id = "18" />
  <path
     style="fill:none;stroke:#000000;stroke-width:5;stroke-opacity:1"
     d = "M 316.6143,282.0099 332.9987,264.3401 336.0051,261.1281 "
id = "19" />
  <path
     style="fill:none;stroke:#000000;stroke-width:5;stroke-opacity:1"
     d = "M 318.2032,282.7076 334.8003,265.1498 336.0483,263.8529 "
id = "20" />
  <path
     style="fill:none;stroke:#000000;stroke-width:5;stroke-opacity:1"
     d = "M 319.7795,283.4328 336.0256,266.5869 "
id = "21" />
  <path
     style="fill:none;stroke:#000000;stroke-width:5;stroke-opacity:1"
     d = "M 320.8233,283.9316 336.065,268.3441 "
id = "22" />
  <path
     style="fill:none;stroke:#000000;stroke-width:5;stroke-opacity:1"
     d = "M 322.378,284.7025 336.0131,271.0438 "
id = "23" />
  <path
     style="fill:none;stroke:#000000;stroke-width:5;stroke-opacity:1"
     d = "M 323.9189,285.5003 336.064,273.6095 "
id = "24" />
  <path
     style="fill:none;stroke:#000000;stroke-width:5;stroke-opacity:1"
     d = "M 325.4456,286.325 336.0687,276.164 "
id = "25" />
  <path
     style="fill:none;stroke:#000000;stroke-width:5;stroke-opacity:1"
     d = "M 326.9427,287.1675 336.0713,278.6302 "
id = "26" />
  <path
     style="fill:none;stroke:#000000;stroke-width:5;stroke-opacity:1"
     d = "M 328.4549,288.0535 336.0586,281.1068 "
id = "27" />
  <path
     style="fill:none;stroke:#000000;stroke-width:5;stroke-opacity:1"
     d = "M 329.9364,288.9569 336.0599,283.5041 "
id = "28" />
  <path
     style="fill:none;stroke:#000000;stroke-width:5;stroke-opacity:1"
     d = "M 331.4019,289.8861 336.0075,285.8856 "
id = "29" />
  <path
     style="fill:none;stroke:#000000;stroke-width:5;stroke-opacity:1"
     d = "M 332.851,290.8406 336.0528,288.1221 "
id = "30" />
  <path
     style="fill:none;stroke:#000000;stroke-width:5;stroke-opacity:1"
     d = "M 334.2833,291.8203 336.0542,290.3526 "
id = "31" />
  <path
     style="fill:none;stroke:#000000;stroke-width:5;stroke-opacity:1"
     d = "M 335.6982,292.8249 336.0092,292.5733 "
id = "32" />
  <path
     style="fill:none;stroke:#000000;stroke-width:5;stroke-opacity:1"
     d = "M 335.5835,454.0346 336.0471,454.222 "
id = "140" />
  <path
     style="fill:none;stroke:#000000;stroke-width:5;stroke-opacity:1"
     d = "M 334.1672,455.0372 336.0178,455.7964 "
id = "141" />
  <path
     style="fill:none;stroke:#000000;stroke-width:5;stroke-opacity:1"
     d = "M 332.7336,456.0148 336.0558,457.4013 "
id = "142" />
  <path
     style="fill:none;stroke:#000000;stroke-width:5;stroke-opacity:1"
     d = "M 331.2831,456.9674 336.074,458.9891 "
id = "143" />
  <path
     style="fill:none;stroke:#000000;stroke-width:5;stroke-opacity:1"
     d = "M 329.8163,457.8944 336.0667,460.5735 "
id = "144" />
  <path
     style="fill:none;stroke:#000000;stroke-width:5;stroke-opacity:1"
     d = "M 328.3334,458.7957 336.0316,462.1564 "
id = "145" />
  <path
     style="fill:none;stroke:#000000;stroke-width:5;stroke-opacity:1"
     d = "M 326.8351,459.671 336.0604,463.7797 "
id = "146" />
  <path
     style="fill:none;stroke:#000000;stroke-width:5;stroke-opacity:1"
     d = "M 325.3218,460.52 336.0638,465.4066 "
id = "147" />
  <path
     style="fill:none;stroke:#000000;stroke-width:5;stroke-opacity:1"
     d = "M 323.7938,461.3424 336.0298,467.0443 "
id = "148" />
  <path
     style="fill:none;stroke:#000000;stroke-width:5;stroke-opacity:1"
     d = "M 322.7827,461.8679 336.066,468.1664 "
id = "149" />
  <path
     style="fill:none;stroke:#000000;stroke-width:5;stroke-opacity:1"
     d = "M 320.696,462.9067 336.0332,470.4631 "
id = "150" />
  <path
     style="fill:none;stroke:#000000;stroke-width:5;stroke-opacity:1"
     d = "M 319.1271,463.6481 336.0757,472.2354 "
id = "151" />
  <path
     style="fill:none;stroke:#000000;stroke-width:5;stroke-opacity:1"
     d = "M 317.5455,464.362 336.0805,474.0122 "
id = "152" />
  <path
     style="fill:none;stroke:#000000;stroke-width:5;stroke-opacity:1"
     d = "M 315.9517,465.0482 336.0603,475.7983 "
id = "153" />
  <path
     style="fill:none;stroke:#000000;stroke-width:5;stroke-opacity:1"
     d = "M 314.3462,465.7064 336.0674,477.6644 "
id = "154" />
  <path
     style="fill:none;stroke:#000000;stroke-width:5;stroke-opacity:1"
     d = "M 312.7294,466.3365 334.6473,478.7816 336.0164,479.3946 "
id = "155" />
  <path
     style="fill:none;stroke:#000000;stroke-width:5;stroke-opacity:1"
     d = "M 311.1018,466.9383 332.9262,479.7436 336.0203,481.1537 "
id = "156" />
  <path
     style="fill:none;stroke:#000000;stroke-width:5;stroke-opacity:1"
     d = "M 309.464,467.5116 331.1838,480.6787 336.0832,482.9513 "
id = "157" />
  <path
     style="fill:none;stroke:#000000;stroke-width:5;stroke-opacity:1"
     d = "M 307.8165,468.0563 329.4208,481.5859 336.0262,484.6937 "
id = "158" />
  <path
     style="fill:none;stroke:#000000;stroke-width:5;stroke-opacity:1"
     d = "M 306.1596,468.5721 327.6569,482.5072 336.0435,486.5288 "
id = "159" />
  <path
     style="fill:none;stroke:#000000;stroke-width:5;stroke-opacity:1"
     d = "M 304.4941,469.0589 325.8825,483.3804 336.0211,488.3738 "
id = "160" />
  <path
     style="fill:none;stroke:#000000;stroke-width:5;stroke-opacity:1"
     d = "M 302.8203,469.5165 324.0909,484.2113 336.0482,490.2635 "
id = "161" />
  <path
     style="fill:none;stroke:#000000;stroke-width:5;stroke-opacity:1"
     d = "M 301.1387,469.9449 322.287,484.9965 336.0378,492.1486 "
id = "162" />
  <path
     style="fill:none;stroke:#000000;stroke-width:5;stroke-opacity:1"
     d = "M 299.45,470.3439 320.4681,485.7394 336.0626,494.1119 "
id = "163" />
  <path
     style="fill:none;stroke:#000000;stroke-width:5;stroke-opacity:1"
     d = "M 297.7545,470.7133 318.6496,486.42 336.0305,496.1065 "
id = "164" />
  <path
     style="fill:none;stroke:#000000;stroke-width:5;stroke-opacity:1"
     d = "M 296.0529,471.0531 316.7925,487.0645 335.1184,497.6543 336.0846,498.18 "
id = "165" />
  <path
     style="fill:none;stroke:#000000;stroke-width:5;stroke-opacity:1"
     d = "M 294.3456,471.3632 314.9068,487.671 333.0649,498.5625 336.0397,500.2102 "
id = "166" />
  <path
     style="fill:none;stroke:#000000;stroke-width:5;stroke-opacity:1"
     d = "M 292.6331,471.6434 312.994,488.2722 331.0306,499.4704 336.0021,502.2588 "
id = "167" />
  <path
     style="fill:none;stroke:#000000;stroke-width:5;stroke-opacity:1"
     d = "M 290.916,471.8936 311.0709,488.873 328.9794,500.3395 336.0269,504.3316 "
id = "168" />
  <path
     style="fill:none;stroke:#000000;stroke-width:5;stroke-opacity:1"
     d = "M 289.1948,472.1139 309.1011,489.4526 326.8783,501.1398 336.0556,506.445 "
id = "169" />
  <path
     style="fill:none;stroke:#000000;stroke-width:5;stroke-opacity:1"
     d = "M 287.47,472.3041 307.1292,489.9846 324.765,501.8948 336.0188,508.6031 "
id = "170" />
  <path
     style="fill:none;stroke:#000000;stroke-width:5;stroke-opacity:1"
     d = "M 286.3184,472.4142 305.7723,490.248 323.2692,502.2892 336.082,510.0941 "
id = "171" />
  <path
     style="fill:none;stroke:#000000;stroke-width:5;stroke-opacity:1"
     d = "M 284.5888,472.5541 303.8616,490.6017 321.1569,502.8514 336.0456,512.2348 "
id = "172" />
  <path
     style="fill:none;stroke:#000000;stroke-width:5;stroke-opacity:1"
     d = "M 282.8571,472.6638 301.9603,490.9068 319.0447,503.3952 333.778,512.9493 336.0415,514.5984 "
id = "173" />
  <path
     style="fill:none;stroke:#000000;stroke-width:5;stroke-opacity:1"
     d = "M 281.1237,472.7433 300.0586,491.2409 316.8787,504.0119 331.4142,513.6965 336.0658,517.1586 "
id = "174" />
  <path
     style="fill:none;stroke:#000000;stroke-width:5;stroke-opacity:1"
     d = "M 279.3891,472.7926 298.1647,491.5547 314.7096,504.6288 329.0178,514.4474 336.0714,519.8741 "
id = "175" />
  <path
     style="fill:none;stroke:#000000;stroke-width:5;stroke-opacity:1"
     d = "M 277.6539,472.8116 296.2669,491.8355 312.5523,505.247 326.646,515.3004 336.032,522.7784 "
id = "176" />
  <path
     style="fill:none;stroke:#000000;stroke-width:5;stroke-opacity:1"
     d = "M 275.9187,472.8002 294.3842,492.0918 310.4015,505.8126 324.2924,516.1288 336.0653,525.7402 "
id = "177" />
  <path
     style="fill:none;stroke:#000000;stroke-width:5;stroke-opacity:1"
     d = "M 274.184,472.7586 292.4867,492.3053 308.2688,506.3288 321.95,516.8972 334.3565,527.2435 336.0484,528.9457 "
id = "178" />
  <path
     style="fill:none;stroke:#000000;stroke-width:5;stroke-opacity:1"
     d = "M 272.4503,472.6867 290.5822,492.4396 306.179,506.76 319.7308,517.5568 332.108,527.991 336.0096,532.0071 "
id = "179" />
  <path
     style="fill:none;stroke:#000000;stroke-width:5;stroke-opacity:1"
     d = "M 270.718,472.5846 288.6751,492.5366 304.0971,507.1674 317.5367,518.2116 329.868,528.7692 336.0643,535.2951 "
id = "180" />
  <path
     style="fill:none;stroke:#000000;stroke-width:5;stroke-opacity:1"
     d = "M 268.9878,472.4522 286.7527,492.609 301.9828,507.5045 315.3003,518.7675 327.5339,529.4324 336.0369,538.5953 "
id = "181" />
  <path
     style="fill:none;stroke:#000000;stroke-width:5;stroke-opacity:1"
     d = "M 267.2602,472.2897 284.7917,492.6359 299.8328,507.889 313.0211,519.3574 325.142,530.1679 336.0201,542.0385 "
id = "182" />
  <path
     style="fill:none;stroke:#000000;stroke-width:5;stroke-opacity:1"
     d = "M 265.5357,472.0971 282.807,492.643 297.701,508.2692 310.7288,519.9053 322.7671,530.8744 334.1228,543.4211 336.0037,546.009 "
id = "183" />
  <path
     style="fill:none;stroke:#000000;stroke-width:5;stroke-opacity:1"
     d = "M 263.8148,471.8744 280.8276,492.59 295.6182,508.5788 308.4751,520.3698 320.4353,531.5043 331.7694,544.1312 336.0245,550.0616 "
id = "184" />
  <path
     style="fill:none;stroke:#000000;stroke-width:5;stroke-opacity:1"
     d = "M 262.0981,471.6217 278.8427,492.4963 293.5705,508.8758 306.2559,520.884 318.1627,532.2065 329.4393,544.8471 336.0251,554.15 "
id = "185" />
  <path
     style="fill:none;stroke:#000000;stroke-width:5;stroke-opacity:1"
     d = "M 260.386,471.3391 276.8517,492.3265 291.5227,509.1183 303.9886,521.3661 315.8714,532.8793 327.1461,545.5122 336.0058,558.2271 "
id = "186" />
  <path
     style="fill:none;stroke:#000000;stroke-width:5;stroke-opacity:1"
     d = "M 258.679,471.0266 274.8435,492.1137 289.4479,509.332 301.7173,521.8488 313.5683,533.5535 324.8111,546.213 335.2866,561.2647 336.0249,562.3351 "
id = "187" />
  <path
     style="fill:none;stroke:#000000;stroke-width:5;stroke-opacity:1"
     d = "M 256.9779,470.6843 272.8198,491.8584 287.3488,509.5305 299.4504,522.3404 311.2296,534.195 322.3925,546.858 332.8515,561.9579 336.0296,566.6894 "
id = "188" />
  <path
     style="fill:none;stroke:#000000;stroke-width:5;stroke-opacity:1"
     d = "M 255.283,470.3125 270.7978,491.5854 285.2439,509.6947 297.2877,522.8418 308.9691,534.7993 320.0592,547.4767 330.5274,562.6737 336.0023,571.0416 "
id = "189" />
  <path
     style="fill:none;stroke:#000000;stroke-width:5;stroke-opacity:1"
     d = "M 253.5948,469.9111 268.7726,491.2716 283.1257,509.8221 295.1583,523.3231 306.7646,535.4566 317.7996,548.1967 328.2784,563.4832 336.0347,575.6208 "
id = "190" />
  <path
     style="fill:none;stroke:#000000;stroke-width:5;stroke-opacity:1"
     d = "M 251.9139,469.4803 266.7787,490.903 281.0036,509.886 293.0467,523.7371 304.5351,536.0641 315.4917,548.9089 325.9781,564.2318 336.0314,580.2318 "
id = "191" />
  <path
     style="fill:none;stroke:#000000;stroke-width:5;stroke-opacity:1"
     d = "M 250.2407,469.0203 264.7529,490.5049 278.8025,509.9172 290.8614,524.1905 302.2297,536.7099 313.1555,549.701 323.6956,565.0471 334.7885,582.7715 336.0482,584.3255 "
id = "192" />
  <path
     style="fill:none;stroke:#000000;stroke-width:5;stroke-opacity:1"
     d = "M 248.5759,468.5311 262.7239,490.0601 276.6041,509.7809 288.6688,524.5208 299.9331,537.2591 310.8153,550.3751 321.3611,565.7526 332.6332,583.7168 336.023,587.9224 "
id = "193" />
  <path
     style="fill:none;stroke:#000000;stroke-width:5;stroke-opacity:1"
     d = "M 246.9198,468.013 260.6712,489.5896 274.3739,509.5958 286.4405,524.8149 297.6151,537.8308 308.4368,551.0041 318.9621,566.3522 330.4257,584.5404 336.0452,591.5717 "
id = "194" />
  <path
     style="fill:none;stroke:#000000;stroke-width:5;stroke-opacity:1"
     d = "M 245.273,467.466 258.5611,489.0781 272.0638,509.3302 284.1118,525.095 295.2066,538.4913 305.9482,551.6939 316.507,567.0475 328.1419,585.4227 336.0291,595.3756 "
id = "195" />
  <path
     style="fill:none;stroke:#000000;stroke-width:5;stroke-opacity:1"
     d = "M 243.6361,466.8904 256.4812,488.5376 269.756,508.9919 281.7891,525.2528 292.8196,539.0538 303.4238,552.3066 314.0345,567.7289 325.8277,586.2283 336.0305,599.3288 "
id = "196" />
  <path
     style="fill:none;stroke:#000000;stroke-width:5;stroke-opacity:1"
     d = "M 242.0093,466.2862 254.3919,487.9976 267.4331,508.6275 279.4514,525.2433 290.4672,539.3665 300.9337,552.665 311.5749,568.0813 323.4401,586.6456 336.0561,603.3054 "
id = "197" />
  <path
     style="fill:none;stroke:#000000;stroke-width:5;stroke-opacity:1"
     d = "M 240.3934,465.6538 252.2716,487.4034 265.0421,508.1209 277.0492,525.0958 288.0978,539.4728 298.4484,552.8604 309.0302,568.229 320.8682,586.8018 334.566,605.6064 336.0592,607.083 "
id = "198" />
  <path
     style="fill:none;stroke:#000000;stroke-width:5;stroke-opacity:1"
     d = "M 238.7888,464.9933 250.1643,486.717 262.6532,507.5175 274.6294,524.8623 285.6975,539.5029 295.9461,553.0417 306.3446,568.3187 318.0982,586.8607 331.4312,605.9705 336.0502,610.8246 "
id = "199" />
  <path
     style="fill:none;stroke:#000000;stroke-width:5;stroke-opacity:1"
     d = "M 237.196,464.3048 248.0812,486.0105 260.2407,506.8631 272.1227,524.6222 283.1952,539.541 293.3587,553.3319 303.5702,568.5389 315.1696,586.9883 328.1139,606.4433 336.0435,615.1795 "
id = "200" />
  <path
     style="fill:none;stroke:#000000;stroke-width:5;stroke-opacity:1"
     d = "M 235.6154,463.5887 246.0307,485.3209 257.8684,506.1565 269.6593,524.2488 280.6967,539.3969 290.8542,553.4544 300.8725,568.5963 312.2617,586.9086 324.8167,606.6638 336.0602,619.6814 "
id = "201" />
  <path
     style="fill:none;stroke:#000000;stroke-width:5;stroke-opacity:1"
     d = "M 234.0476,462.8451 244.0163,484.618 255.5019,505.4279 267.1773,523.8044 278.1601,539.1831 288.3493,553.4978 298.1719,568.6531 309.3249,586.8257 321.5358,606.8342 336.0293,624.4379 "
id = "202" />
  <path
     style="fill:none;stroke:#000000;stroke-width:5;stroke-opacity:1"
     d = "M 232.493,462.0743 242.0273,483.8729 253.2161,504.7254 264.7589,523.3774 275.619,539.0546 285.8704,553.6238 295.567,568.8636 306.4377,586.9749 318.3273,607.1877 332.776,625.6897 336.0409,628.4874 "
id = "203" />
  <path
     style="fill:none;stroke:#000000;stroke-width:5;stroke-opacity:1"
     d = "M 230.952,461.2764 240.0504,483.1019 250.96,504.0046 262.3945,522.9516 273.161,538.9612 283.4895,553.7939 293.101,569.2012 303.7271,587.3018 315.4399,607.6889 329.563,626.7112 336.0067,632.5576 "
id = "204" />
  <path
     style="fill:none;stroke:#000000;stroke-width:5;stroke-opacity:1"
     d = "M 229.4253,460.4518 238.1261,482.3412 248.7666,503.3048 260.0989,522.4747 270.8357,538.8784 281.1134,553.9437 290.6598,569.5646 301.0955,587.7098 312.6325,608.2642 326.3692,627.7692 336.0674,637.1625 "
id = "205" />
  <path
     style="fill:none;stroke:#000000;stroke-width:5;stroke-opacity:1"
     d = "M 227.913,459.6006 236.1901,481.57 246.5048,502.6287 257.7212,521.9987 268.4684,538.783 278.7198,554.0458 288.2898,569.8779 298.5461,588.0855 309.8394,608.8477 323.1563,628.8386 336.0116,642.14 "
id = "206" />
  <path
     style="fill:none;stroke:#000000;stroke-width:5;stroke-opacity:1"
     d = "M 226.416,458.7232 234.2847,480.7874 244.2272,501.911 255.3384,521.4523 266.0996,538.5405 276.3235,554.0001 285.9145,570.0375 296.0805,588.3132 307.1128,609.2083 319.8943,629.696 333.7264,644.9551 336.0131,646.5718 "
id = "207" />
  <path
     style="fill:none;stroke:#000000;stroke-width:5;stroke-opacity:1"
     d = "M 224.9492,457.8289 232.4849,480.0553 242.035,501.2614 253.0326,520.9097 263.7884,538.3107 273.9654,553.9816 283.5695,570.2297 293.6298,588.5435 304.3978,609.5137 316.6993,630.4808 329.9411,646.3341 336.0502,650.8522 "
id = "208" />
  <path
     style="fill:none;stroke:#000000;stroke-width:5;stroke-opacity:1"
     d = "M 223.4689,456.8907 230.669,479.2949 239.7956,500.5865 250.6619,520.3043 261.3911,538.0127 271.473,553.9498 281.0877,570.42 291.0039,588.7527 301.4621,609.7988 313.232,631.2658 325.9606,647.8074 336.0781,655.8069 "
id = "209" />
  <path
     style="fill:none;stroke:#000000;stroke-width:5;stroke-opacity:1"
     d = "M 222.0198,455.9361 228.875,478.5025 237.6072,499.8844 248.3326,519.6391 259.0183,537.653 268.9967,553.7856 278.5935,570.4357 288.3461,588.7876 298.5406,609.9144 309.7901,631.8636 321.9568,649.0779 336.0453,661.2251 "
id = "210" />
  <path
     style="fill:none;stroke:#000000;stroke-width:5;stroke-opacity:1"
     d = "M 220.5876,454.9564 227.0799,477.6797 235.5393,499.1021 246.0675,518.8217 256.6857,537.113 266.5497,553.4409 276.0936,570.2272 285.6787,588.5899 295.6599,609.7163 306.4751,632.0583 318.1028,650.0302 332.4955,663.7753 336.032,666.2213 "
id = "211" />
  <path
     style="fill:none;stroke:#000000;stroke-width:5;stroke-opacity:1"
     d = "M 219.1727,453.9518 225.2973,476.812 233.4648,498.2538 243.8246,517.9475 254.3529,536.5244 264.0729,553.1218 273.5849,569.9858 282.9952,588.3838 292.7894,609.4501 303.2484,632.1135 314.3401,650.8441 328.0417,665.4061 336.0238,671.2612 "
id = "212" />
  <path
     style="fill:none;stroke:#000000;stroke-width:5;stroke-opacity:1"
     d = "M 217.7756,452.9228 223.5733,475.9253 231.483,497.3937 241.6225,517.0882 252.0628,535.9241 261.6802,552.8327 271.1144,569.7658 280.3664,588.2383 289.9557,609.2504 300.0567,632.1335 310.7131,651.6768 323.7043,666.9988 336.0658,676.6772 "
id = "213" />
  <path
     style="fill:none;stroke:#000000;stroke-width:5;stroke-opacity:1"
     d = "M 216.3966,451.8694 221.8808,474.993 229.4933,496.5087 239.3154,516.2402 249.6508,535.2537 259.1725,552.4691 268.4832,569.4874 277.5833,587.9959 286.9434,608.9653 296.6878,632.0208 306.9086,652.3309 319.2683,668.3199 334.5862,681.2859 336.0617,682.3176 "
id = "214" />
  <path
     style="fill:none;stroke:#000000;stroke-width:5;stroke-opacity:1"
     d = "M 215.0362,450.7922 220.1992,474.0288 227.5366,495.6393 237.0322,515.396 247.2757,534.5089 256.7579,551.9667 265.9769,569.023 274.9001,587.5535 283.9958,608.4575 293.4379,631.6369 303.2842,652.6044 315.0145,669.389 329.8994,682.8866 336.0174,687.2262 "
id = "215" />
  <path
     style="fill:none;stroke:#000000;stroke-width:5;stroke-opacity:1"
     d = "M 213.6948,449.6913 218.5292,473.0722 225.5517,494.7711 234.6905,514.5875 244.8462,533.7897 254.3017,551.532 263.4413,568.667 272.1439,587.2672 280.9991,608.0906 290.1378,631.3405 299.5849,652.8016 310.7482,670.3753 325.1747,684.2429 336.0223,692.2766 "
id = "216" />
  <path
     style="fill:none;stroke:#000000;stroke-width:5;stroke-opacity:1"
     d = "M 212.3728,448.5673 216.8726,472.088 223.5309,493.8731 232.3246,513.7692 242.4177,533.0865 251.8064,551.1428 260.8576,568.3781 269.3746,587.0759 277.9445,607.8361 286.7169,631.1219 295.7117,653.0248 306.4241,671.2389 320.1043,685.6226 336.0194,698.2233 "
id = "217" />
  <path
     style="fill:none;stroke:#000000;stroke-width:5;stroke-opacity:1"
     d = "M 211.0707,447.4204 215.2259,471.0413 221.4787,492.8952 229.9341,512.9529 239.9228,532.2432 249.2339,550.6255 258.1658,568.0084 266.5403,586.7689 274.8085,607.419 283.185,630.6935 291.733,653.0043 302.0125,671.9511 314.9676,686.8861 330.7313,700.2111 336.0527,704.1146 "
id = "218" />
  <path
     style="fill:none;stroke:#000000;stroke-width:5;stroke-opacity:1"
     d = "M 209.8015,446.2627 213.6067,469.9768 219.4358,491.9334 227.5869,512.1041 237.43,531.3493 246.6169,550.0794 255.4671,567.644 263.7015,586.4225 271.7001,606.8998 279.6578,630.1456 287.7256,653.0255 297.5022,672.6895 309.7469,688.1432 324.686,701.7396 336.0761,710.3891 "
id = "219" />
  <path
     style="fill:none;stroke:#000000;stroke-width:5;stroke-opacity:1"
     d = "M 208.5275,445.0592 211.9733,468.8665 217.3418,490.9381 225.1909,511.2197 234.8195,530.3649 243.8587,549.4597 252.6154,567.1747 260.7334,585.8373 268.473,606.0135 276.1055,629.2243 283.6872,652.7351 293.0918,673.0997 304.6593,689.1995 318.7767,703.1738 335.0854,716.5486 336.0411,717.4301 "
id = "220" />
  <path
     style="fill:none;stroke:#000000;stroke-width:5;stroke-opacity:1"
     d = "M 207.2871,443.8457 210.4108,467.7498 215.3159,489.9339 222.8462,510.3254 232.1904,529.3145 241.1006,548.7965 249.7078,566.7014 257.7272,585.1517 265.2318,605.0063 272.5944,628.1469 279.7136,652.1807 288.888,673.3384 299.7631,690.0436 313.1462,704.3309 328.405,718.0089 330.5034,720.0108 "
id = "221" />
  <path
     style="fill:none;stroke:#000000;stroke-width:5;stroke-opacity:1"
     d = "M 206.0682,442.6107 208.8046,466.6374 213.2534,488.9387 220.5248,509.3527 229.5247,528.1619 238.3005,547.8094 246.7625,565.9881 254.6693,584.2073 261.9,603.7646 268.9346,626.6312 275.768,651.0121 284.4234,672.9869 294.7029,690.3577 307.231,705.1479 321.3822,719.3903 322.0133,720.0319 "
id = "222" />
  <path
     style="fill:none;stroke:#000000;stroke-width:5;stroke-opacity:1"
     d = "M 204.871,441.3546 207.1885,465.5098 211.2155,487.957 218.1255,508.3511 226.6229,527.02 235.1986,546.596 243.5077,565.0565 251.3495,583.0792 258.2921,602.4195 264.9239,624.9226 271.4803,649.5706 279.5421,672.2147 289.1865,690.5717 300.8935,705.9969 313.2145,720.0585 "
id = "223" />
  <path
     style="fill:none;stroke:#000000;stroke-width:5;stroke-opacity:1"
     d = "M 203.6958,440.0779 205.6025,464.358 209.2272,486.9207 215.717,507.2487 223.6364,525.8439 231.8834,545.1126 240.0519,563.8073 247.7223,581.6673 254.4527,600.8314 260.7423,622.8791 267.0333,647.6407 274.4932,670.8537 283.6652,690.4169 294.4532,706.412 304.7963,720.0323 "
id = "224" />
  <path
     style="fill:none;stroke:#000000;stroke-width:5;stroke-opacity:1"
     d = "M 202.5431,438.7807 204.0593,463.1699 207.2991,485.8491 213.3445,506.2234 220.8699,524.7744 228.8837,543.802 236.916,562.7066 244.3599,580.5911 250.8811,599.7988 256.8699,621.4848 262.92,646.1086 269.8198,669.7736 278.478,690.0626 288.2651,706.558 297.1986,720.0745 "
id = "225" />
  <path
     style="fill:none;stroke:#000000;stroke-width:5;stroke-opacity:1"
     d = "M 201.4133,437.4637 202.5327,461.9325 205.3837,484.7414 210.9661,505.135 218.116,523.6633 225.8506,542.4427 233.7438,561.5532 241.0907,579.5898 247.4386,598.7413 253.1923,620.0347 258.9598,644.3852 265.3542,668.4852 273.4678,689.7211 282.3535,706.7045 290.2009,720.0721 "
id = "226" />
  <path
     style="fill:none;stroke:#000000;stroke-width:5;stroke-opacity:1"
     d = "M 200.3066,436.1272 201.0535,460.6525 203.5947,483.5808 208.7026,503.9473 215.5795,522.5261 222.9551,541.1257 230.6034,560.3074 237.874,578.4976 244.0193,597.5031 249.4933,618.3776 254.9934,642.3956 260.9375,666.8409 268.6532,688.8812 276.8881,706.3727 283.8125,720.0161 "
id = "227" />
  <path
     style="fill:none;stroke:#000000;stroke-width:5;stroke-opacity:1"
     d = "M 199.2234,434.7715 199.5901,459.3415 201.8307,482.3548 206.4491,502.6968 213.0854,521.3416 220.1691,539.6707 227.4477,558.8843 234.6163,577.2733 240.5695,596.0739 245.6363,616.602 250.7664,640.2056 256.4323,664.8743 263.6525,687.6625 271.62,705.7313 277.8852,720.023 "
id = "228" />
  <path
     style="fill:none;stroke:#000000;stroke-width:5;stroke-opacity:1"
     d = "M 198.164,433.3972 198.1478,458.041 200.0607,481.2233 204.234,501.5414 210.6449,520.1564 217.4897,538.2619 224.4192,557.3834 231.3362,575.8726 237.1616,594.4394 241.8679,614.6526 246.4988,637.7144 251.843,662.4171 258.4501,685.8043 266.0693,704.6521 272.3307,720.0221 "
id = "229" />
  <path
     style="fill:none;stroke:#000000;stroke-width:5;stroke-opacity:1"
     d = "M 197.1288,432.0046 196.6773,456.7214 198.2478,480.0926 201.9727,500.376 208.0469,518.9695 214.6712,536.8431 221.2997,555.7675 227.9421,574.2791 233.4468,592.7177 237.7849,612.7115 241.8727,635.1411 246.8977,659.8969 252.9852,683.7525 260.347,703.5121 266.6669,720.041 "
id = "230" />
  <path
     style="fill:none;stroke:#000000;stroke-width:5;stroke-opacity:1"
     d = "M 196.1181,430.5941 195.2599,455.3077 196.4684,478.8794 199.7479,499.1866 205.4416,517.7899 211.7775,535.5655 218.1151,554.2228 224.3979,572.7748 229.4642,591.0493 233.5371,610.7235 237.0424,632.5129 241.6,657.1019 247.1492,681.4048 254.1302,701.8495 260.7133,719.6016 260.8515,720.0822 "
id = "231" />
  <path
     style="fill:none;stroke:#000000;stroke-width:5;stroke-opacity:1"
     d = "M 195.1321,429.1663 193.8679,453.8341 194.7268,477.6297 197.5563,497.9443 202.8607,516.5941 208.8788,534.3577 214.9136,552.7359 220.6862,571.1534 225.2816,589.309 229.0619,608.4723 231.8631,629.6757 235.5958,653.7463 240.432,678.2635 246.8022,698.9954 253.2117,717.3922 253.9696,720.0873 "
id = "232" />
  <path
     style="fill:none;stroke:#000000;stroke-width:5;stroke-opacity:1"
     d = "M 194.1712,427.7214 192.5982,452.4229 193.1206,476.4487 195.4909,496.7645 200.386,515.4269 206.07,533.1302 211.9015,551.2913 217.211,569.6526 221.3264,587.778 224.5299,606.5016 226.6373,627.2243 229.3484,650.6802 233.5026,675.0714 239.0694,696.2111 244.7207,714.9471 246.1707,720.0453 "
id = "233" />
  <path
     style="fill:none;stroke:#000000;stroke-width:5;stroke-opacity:1"
     d = "M 193.2356,426.2599 191.3669,451.0023 191.5404,475.2551 193.4336,495.6256 197.8172,514.2968 203.0752,531.9057 208.6766,549.8781 213.5818,568.1852 217.1926,586.3246 219.6927,604.754 220.9171,625.1614 222.3633,647.956 225.4239,672.1096 229.8566,693.3296 234.6909,711.6627 237.0048,720.0473 "
id = "234" />
  <path
     style="fill:none;stroke:#000000;stroke-width:5;stroke-opacity:1"
     d = "M 192.3257,424.7823 190.1609,449.5276 189.9392,473.9857 191.3564,494.5625 195.261,513.1725 200.1332,530.7479 205.4434,548.6839 209.9861,567.1135 213.0933,585.3333 214.7764,603.5184 215.225,623.5753 215.6145,646.1816 217.1442,669.7396 220.3309,690.8856 224.3584,708.621 227.2932,720.0508 "
id = "235" />
  <path
     style="fill:none;stroke:#000000;stroke-width:5;stroke-opacity:1"
     d = "M 191.4417,423.2892 188.9436,448.0344 188.3801,472.5533 189.2926,493.3691 192.7212,511.8992 197.2021,529.4618 202.0962,547.3631 206.2425,565.9261 208.841,584.2301 209.7341,602.1627 209.2998,621.9012 208.7088,644.4145 209.0019,667.4269 211.1629,687.9133 214.5709,705.3621 218.0824,720.0437 "
id = "236" />
  <path
     style="fill:none;stroke:#000000;stroke-width:5;stroke-opacity:1"
     d = "M 190.5839,421.7808 187.7275,446.5108 186.8225,471.0379 187.2373,492.1714 190.1429,510.5963 194.1796,528.1483 198.5796,545.9834 202.3739,564.44 204.5166,582.8401 204.5862,600.6215 203.2352,620.0029 201.4669,642.1536 200.5381,664.7272 201.6738,684.6241 204.1898,701.6168 207.3278,715.7417 208.504,720.084 "
id = "237" />
  <path
     style="fill:none;stroke:#000000;stroke-width:5;stroke-opacity:1"
     d = "M 189.7526,420.2576 186.4769,444.939 185.2119,469.4429 185.0878,490.9089 187.433,509.219 190.9752,526.7572 194.9375,544.4619 198.3854,562.7608 200.0457,581.3251 199.4034,599.0739 197.0591,618.0562 194.0508,639.6182 192.236,661.8643 192.9056,681.5836 194.7607,698.601 197.5303,712.905 199.092,720.0339 "
id = "238" />
  <path
     style="fill:none;stroke:#000000;stroke-width:5;stroke-opacity:1"
     d = "M 188.9479,418.7202 185.2034,443.269 183.5418,467.7606 182.8249,489.5807 184.5414,507.6689 187.565,525.1358 191.0591,542.5823 194.1042,560.6528 195.2283,579.3099 193.9333,597.1375 190.4951,615.9736 186.3017,636.9785 183.6094,659.1578 184.3691,679.152 186.3214,696.8636 189.0084,711.7038 190.6413,720.0461 "
id = "239" />
  <path
     style="fill:none;stroke:#000000;stroke-width:5;stroke-opacity:1"
     d = "M 188.1703,417.169 183.9494,441.5681 181.8157,466.0435 180.4819,488.203 181.4956,506.1393 183.9737,523.4909 186.9051,540.7236 189.3636,558.6153 189.997,577.2774 188.0474,595.4619 183.4315,614.2193 178.2062,634.8234 175.0816,656.4962 176.4938,677.1842 179.3271,695.6249 182.1994,711.2198 183.7841,720.0803 "
id = "240" />
  <path
     style="fill:none;stroke:#000000;stroke-width:5;stroke-opacity:1"
     d = "M 187.4198,415.6044 182.7146,439.8195 180.0574,464.2321 178.1145,486.7015 178.3347,504.6388 180.2729,521.7894 182.5067,538.871 184.3496,556.6506 184.6332,575.1768 181.9823,593.6162 176.4513,612.3865 170.2488,632.5435 167.0508,653.9105 169.3259,675.173 173.2609,693.9598 176.3972,710.3386 178.1148,720.0912 "
id = "241" />
  <path
     style="fill:none;stroke:#000000;stroke-width:5;stroke-opacity:1"
     d = "M 186.6967,414.027 181.4516,438.0026 178.2374,462.3425 175.667,485.1355 175.0718,503.1812 176.2316,520.1265 177.8301,536.9522 179.0918,554.4881 178.9599,572.7576 175.8892,591.0498 169.6754,610.0078 162.9398,630.0035 159.8563,651.1075 162.4693,672.7758 167.317,691.9249 171.0601,709.1865 172.9249,720.0294 "
id = "242" />
  <path
     style="fill:none;stroke:#000000;stroke-width:5;stroke-opacity:1"
     d = "M 186.0013,412.4373 180.1801,436.1019 176.3155,460.355 173.1752,483.3418 171.7659,501.682 172.0137,518.4367 172.8923,535.054 173.5541,552.2146 172.8251,570.2481 169.3597,588.3353 162.6151,607.1964 155.7363,627.144 152.8326,647.8539 155.5144,669.7914 160.9923,689.6063 165.5518,707.7279 167.5564,720.0646 "
id = "243" />
  <path
     style="fill:none;stroke:#000000;stroke-width:5;stroke-opacity:1"
     d = "M 185.3337,410.8356 178.8193,434.1726 174.266,458.3491 170.6916,481.3871 168.3718,500.0744 167.7114,516.6605 167.7269,533.0721 167.4919,550.0443 166.052,568.1407 161.9279,586.0781 154.596,604.4633 147.4988,623.9873 144.5369,644.4904 147.257,666.7424 152.9974,687.3359 158.4807,706.5221 160.6485,720.0515 "
id = "244" />
  <path
     style="fill:none;stroke:#000000;stroke-width:5;stroke-opacity:1"
     d = "M 184.6942,409.2224 177.3919,432.2142 172.1383,456.2916 168.1331,479.2994 164.8311,498.1785 163.1555,514.8818 162.194,531.3287 161.0128,548.3884 158.6991,566.693 153.8697,584.4952 145.939,602.5087 138.6976,621.517 135.3533,641.759 137.746,664.1312 143.0354,685.073 148.8605,705.5942 150.723,720.0748 "
id = "245" />
  <path
     style="fill:none;stroke:#000000;stroke-width:5;stroke-opacity:1"
     d = "M 184.0829,407.5984 175.9232,430.2074 169.9335,454.1479 165.3869,477.1075 161.0912,496.1739 158.2568,513.064 156.3828,529.5219 154.3124,546.6422 151.2273,564.8167 145.9669,582.3788 138.1237,600.037 130.7621,618.5802 126.4856,638.2053 126.93,660.0328 130.8158,681.4777 136.1181,703.1436 137.7938,720.0565 "
id = "246" />
  <path
     style="fill:none;stroke:#000000;stroke-width:5;stroke-opacity:1"
     d = "M 183.5001,405.964 174.3797,428.1342 167.6472,451.8268 162.3043,474.674 156.9956,493.7871 152.7394,510.8677 149.8032,527.3785 146.9916,544.5845 143.2909,562.3263 137.6786,579.1913 130.2547,596.2064 122.9689,613.8359 117.2046,632.6627 113.7047,653.3776 112.9731,674.3977 114.2736,695.2625 114.8534,716.3651 114.4139,720.0393 "
id = "247" />
  <path
     style="fill:none;stroke:#000000;stroke-width:5;stroke-opacity:1"
     d = "M 182.9459,404.3196 172.7799,425.9833 165.3251,449.5027 159.0977,472.1977 152.7397,491.1967 147.0355,508.2752 142.7181,525.0349 138.8715,542.0648 134.7062,558.7811 128.7244,574.6965 121.41,590.2673 113.8325,606.4116 106.4291,624.2934 98.76097,643.9431 90.50819,664.2149 82.83038,684.1255 75.79423,704.5304 72.64922,720.0179 "
id = "248" />
  <path
     style="fill:none;stroke:#000000;stroke-width:5;stroke-opacity:1"
     d = "M 182.4205,402.6658 171.117,423.7553 162.8941,447.0401 155.7225,469.4845 148.1943,488.3018 141.1903,505.2542 135.0803,522.0848 129.8117,538.515 125.2742,553.9633 119.5353,568.4805 112.5271,582.7585 104.6033,596.7278 96.40868,612.2332 87.24579,630.3039 75.39691,649.5804 61.49033,667.9206 49.50347,684.7848 47.98969,687.94 "
id = "249" />
  <path
     style="fill:none;stroke:#000000;stroke-width:5;stroke-opacity:1"
     d = "M 181.924,401.0031 169.3704,421.415 160.2187,444.2673 152.1287,466.4901 143.2477,485.1522 134.6958,501.7037 126.7421,517.9938 119.7472,533.643 114.6305,548.194 108.7613,561.7016 102.1999,574.9659 94.83107,587.3418 86.63637,601.067 76.78395,617.9261 64.33986,636.563 48.4957,654.0185 47.93729,654.5912 "
id = "250" />
  <path
     style="fill:none;stroke:#000000;stroke-width:5;stroke-opacity:1"
     d = "M 181.4566,399.332 167.6187,418.9476 157.5939,441.1611 148.5974,463.1731 138.4994,481.6674 128.0248,497.3871 118.154,512.4019 109.5534,526.9235 103.0256,541.1589 97.05515,554.3643 90.90357,566.7355 84.26965,578.312 77.1351,590.9781 67.96353,606.4065 55.6248,623.5878 47.95309,632.2892 "
id = "251" />
  <path
     style="fill:none;stroke:#000000;stroke-width:5;stroke-opacity:1"
     d = "M 181.0184,397.653 165.7912,416.222 154.7787,437.6276 144.8063,459.2075 133.5573,477.1527 120.864,491.7619 108.5066,505.0181 97.43842,517.7953 88.77428,531.1478 81.35981,543.626 74.64761,555.6096 67.72353,567.19 60.43882,578.9664 52.46616,591.7375 47.95802,598.5892 "
id = "252" />
  <path
     style="fill:none;stroke:#000000;stroke-width:5;stroke-opacity:1"
     d = "M 180.6136,395.9835 164.0017,413.33 151.9667,433.7955 141.1468,454.816 128.6803,472.0501 113.6424,485.3454 98.31878,496.8261 84.37564,508.191 72.01111,520.2398 61.42166,532.7554 51.63241,545.8386 47.95732,551.3211 "
id = "253" />
  <path
     style="fill:none;stroke:#000000;stroke-width:5;stroke-opacity:1"
     d = "M 180.2303,394.2733 162.1731,410.0994 149.0107,429.2621 137.3521,449.5944 123.7173,466.0495 106.4665,478.1894 88.43385,487.5925 70.74123,496.9498 54.01738,506.3871 47.95952,510.2785 "
id = "254" />
  <path
     style="fill:none;stroke:#000000;stroke-width:5;stroke-opacity:1"
     d = "M 179.8806,392.5736 160.3844,406.6138 145.9744,424.1237 133.4343,443.1569 118.9186,458.8019 100.2089,469.4628 79.45058,476.7584 58.94944,483.3435 47.98682,487.1349 "
id = "255" />
  <path
     style="fill:none;stroke:#000000;stroke-width:5;stroke-opacity:1"
     d = "M 179.5607,390.8682 158.6857,402.8194 142.9795,418.1926 129.7601,435.2717 114.9531,449.3602 95.57613,458.707 72.94778,463.9579 50.06167,468.5457 47.92507,469.0701 "
id = "256" />
  <path
     style="fill:none;stroke:#000000;stroke-width:5;stroke-opacity:1"
     d = "M 179.2705,389.1573 157.1475,398.7447 140.0366,411.4229 126.2404,426.0634 110.8974,438.6338 91.63022,446.635 68.43622,450.8716 47.94026,453.7711 "
id = "257" />
  <path
     style="fill:none;stroke:#000000;stroke-width:5;stroke-opacity:1"
     d = "M 179.0103,387.4417 155.9001,394.4364 137.3379,403.8411 122.1949,414.8079 105.8848,425.4132 86.71742,431.9405 63.33396,436.1381 47.91689,438.5232 "
id = "258" />
  <path
     style="fill:none;stroke:#000000;stroke-width:5;stroke-opacity:1"
     d = "M 178.78,385.7219 154.9887,389.9587 135.0194,395.9781 118.3186,403.0639 101.4557,410.4763 81.66414,415.6608 57.79803,419.6417 47.97824,421.5307 "
id = "259" />
  <path
     style="fill:none;stroke:#000000;stroke-width:5;stroke-opacity:1"
     d = "M 178.5798,383.9982 154.4008,385.4369 133.4126,388.2016 115.4393,390.8015 97.64363,393.1562 76.46716,394.2239 50.79409,396.216 47.94967,396.7815 "
id = "260" />
  <path
     style="fill:none;stroke:#000000;stroke-width:5;stroke-opacity:1"
     d = "M 178.4097,382.2713 154.2046,381.0497 132.7047,380.6736 113.4277,378.7536 94.50856,375.7115 71.20565,372.057 47.94217,370.7557 "
id = "261" />
  <path
     style="fill:none;stroke:#000000;stroke-width:5;stroke-opacity:1"
     d = "M 178.2697,380.5417 154.325,376.8355 132.6375,373.3671 112.3495,367.0377 92.18433,358.8817 68.6999,350.3211 47.9761,344.5997 "
id = "262" />
  <path
     style="fill:none;stroke:#000000;stroke-width:5;stroke-opacity:1"
     d = "M 178.16,378.81 154.6958,372.8351 133.077,366.5716 112.4162,356.5466 92.33441,343.6549 69.86354,330.4884 47.95015,320.7032 "
id = "263" />
  <path
     style="fill:none;stroke:#000000;stroke-width:5;stroke-opacity:1"
     d = "M 178.0812,377.0938 155.2359,369.1057 133.7682,360.363 113.5836,347.2356 94.44698,331.0547 74.19781,315.6939 55.85015,302.9983 47.91841,298.5383 "
id = "264" />
  <path
     style="fill:none;stroke:#000000;stroke-width:5;stroke-opacity:1"
     d = "M 178.0312,375.3419 155.9138,365.5607 134.7183,354.6202 115.2544,338.9633 97.25986,320.5134 79.89997,303.5329 64.60188,289.5538 50.98639,278.546 47.93446,276.118 "
id = "265" />
  <path
     style="fill:none;stroke:#000000;stroke-width:5;stroke-opacity:1"
     d = "M 178.0123,373.6068 156.6574,362.2887 135.8277,349.451 117.1241,331.8589 100.3287,311.6916 85.26247,293.6717 72.14508,279.1895 60.43246,267.3548 49.30447,254.3806 47.96135,253.0369 "
id = "266" />
  <path
     style="fill:none;stroke:#000000;stroke-width:5;stroke-opacity:1"
     d = "M 178.0341,371.2933 157.7072,358.2874 137.6269,343.5165 119.9683,324.1171 105.1397,303.0312 92.21509,284.7221 80.63271,270.0394 69.99385,256.7658 59.50024,242.9406 47.99463,229.7547 "
id = "267" />
  <path
     style="fill:none;stroke:#000000;stroke-width:5;stroke-opacity:1"
     d = "M 178.0858,369.5589 158.5457,355.5343 139.0427,339.6024 122.3152,319.1496 108.8955,297.646 97.41592,279.5313 86.80875,264.8363 76.34377,250.7723 65.29776,236.9274 52.14582,222.0054 47.93402,217.4559 "
id = "268" />
  <path
     style="fill:none;stroke:#000000;stroke-width:5;stroke-opacity:1"
     d = "M 178.1678,367.8256 159.3439,352.961 140.4536,336.0361 124.7169,315.0096 112.8442,293.0579 102.8486,275.0861 92.66859,260.3948 81.79939,246.3694 70.17123,232.8496 56.80573,218.2155 47.96459,208.5488 "
id = "269" />
  <path
     style="fill:none;stroke:#000000;stroke-width:5;stroke-opacity:1"
     d = "M 178.28,366.0939 160.1239,350.5139 141.8684,332.7516 127.2314,311.2668 116.804,288.8505 107.579,271.0819 97.70274,256.2889 86.60496,242.7529 74.53394,229.4433 61.02428,215.0286 47.9951,200.7897 "
id = "270" />
  <path
     style="fill:none;stroke:#000000;stroke-width:5;stroke-opacity:1"
     d = "M 178.4224,364.3645 160.9034,348.1862 143.2008,329.7132 129.796,307.7514 120.8148,284.7698 112.4364,266.9816 102.6964,252.2711 91.14628,239.37 78.77819,226.1533 64.96469,211.989 49.28687,194.7369 47.9368,193.1283 "
id = "271" />
  <path
     style="fill:none;stroke:#000000;stroke-width:5;stroke-opacity:1"
     d = "M 178.595,362.6379 161.6418,345.9386 144.6532,326.8181 132.5001,304.5457 125.0202,281.1847 116.9709,263.0883 107.2792,248.5016 95.54222,236.0556 83.06668,223.0272 68.96153,208.9687 53.77074,192.082 47.97898,184.9338 "
id = "272" />
  <path
     style="fill:none;stroke:#000000;stroke-width:5;stroke-opacity:1"
     d = "M 178.7976,360.9145 162.3526,343.7848 146.1685,324.1498 135.3627,301.6222 129.5335,278.0666 121.9098,259.4927 112.2791,244.904 100.5218,233.084 87.9543,220.4128 73.51662,206.5822 58.78093,190.3012 47.99288,176.6491 "
id = "273" />
  <path
     style="fill:none;stroke:#000000;stroke-width:5;stroke-opacity:1"
     d = "M 179.0303,359.1949 163.0113,341.6888 147.6758,321.7397 138.1634,298.9178 133.4017,275.302 126.3645,256.3611 117.0154,241.7624 105.4772,230.3965 92.89058,218.1609 78.44757,204.5978 63.91538,188.7924 50.28515,171.4225 47.99823,168.0198 "
id = "274" />
  <path
     style="fill:none;stroke:#000000;stroke-width:5;stroke-opacity:1"
     d = "M 179.293,357.4797 163.6491,339.6237 149.2618,319.3999 141.1462,296.279 137.2812,272.7204 131.188,253.5005 122.3832,238.5828 110.9561,227.3627 98.40299,215.5667 84.24442,202.3737 69.8147,187.1818 56.40831,170.0431 47.97173,157.4004 "
id = "275" />
  <path
     style="fill:none;stroke:#000000;stroke-width:5;stroke-opacity:1"
     d = "M 179.5856,355.7693 164.2894,337.6012 150.9066,317.1196 144.2421,293.7631 141.3789,270.3172 136.3489,250.8045 128.157,235.5701 116.8282,223.9773 104.7386,212.1766 90.97758,199.5135 77.23653,184.9639 64.28679,167.8385 52.83458,149.379 47.95855,139.8539 "
id = "276" />
  <path
     style="fill:none;stroke:#000000;stroke-width:5;stroke-opacity:1"
     d = "M 179.908,354.0643 165.0355,335.6932 152.7185,314.9445 147.4192,291.401 145.6599,268.0532 141.5337,248.2337 134.1819,232.6599 123.4775,220.569 112.1581,208.6761 99.26755,195.9913 86.17752,181.6597 73.76791,164.401 62.9357,145.1806 53.96878,125.4574 47.97794,111.488 "
id = "277" />
  <path
     style="fill:none;stroke:#000000;stroke-width:5;stroke-opacity:1"
     d = "M 180.2601,352.3652 165.8937,333.8508 154.6008,312.8874 150.4744,289.2151 149.687,265.7194 146.3977,245.6355 139.4199,230.1375 129.1642,218.3124 118.5704,206.4108 107.0008,193.5269 94.74005,179.082 83.06208,161.4936 72.76053,141.7534 64.33376,120.8425 56.82028,100.9733 49.74973,81.1548 47.97805,75.10916 "
id = "278" />
  <path
     style="fill:none;stroke:#000000;stroke-width:5;stroke-opacity:1"
     d = "M 180.6419,350.6723 166.8135,332.0167 156.6057,310.8523 153.4853,287.1405 153.6391,263.4508 151.105,243.2398 144.3868,227.9671 134.7933,216.2654 124.7374,204.6363 114.3484,191.4818 103.2603,176.7534 92.54587,158.328 83.11287,138.0117 75.3754,116.6654 68.22046,96.64806 61.38713,76.52568 55.53072,55.10703 54.33914,47.90488 "
id = "279" />
  <path
     style="fill:none;stroke:#000000;stroke-width:5;stroke-opacity:1"
     d = "M 181.0531,348.9865 167.7728,330.1761 158.7033,308.8328 156.5357,285.0939 157.5614,261.1361 155.5665,240.9904 149.0939,225.8349 140.1308,214.1574 130.7442,202.71 121.2541,189.337 111.2933,174.0946 101.9107,155.321 93.15034,134.4484 85.98066,112.8647 79.27213,93.01772 72.35538,73.19731 67.12933,51.86332 66.62945,47.99552 "
id = "280" />
  <path
     style="fill:none;stroke:#000000;stroke-width:5;stroke-opacity:1"
     d = "M 181.4936,347.3082 168.8394,328.4012 160.8771,306.9083 159.5871,283.0603 161.4217,258.8511 159.821,238.5546 153.5691,223.5306 145.0129,211.8664 136.2627,200.402 127.6541,186.8553 118.6695,171.3195 110.5698,152.4238 102.5024,131.2038 95.46008,109.3546 88.83974,89.38994 81.87328,70.35701 76.6524,50.27795 76.4027,47.9915 "
id = "281" />
  <path
     style="fill:none;stroke:#000000;stroke-width:5;stroke-opacity:1"
     d = "M 181.9634,345.6377 169.9925,326.6528 163.1711,305.0284 162.7191,281.0001 165.3943,256.5363 163.8269,236.2161 157.7169,221.2829 149.4397,209.6241 141.3338,198.2053 133.7254,184.9731 125.8661,169.233 118.9891,150.5574 111.6261,129.7156 104.4802,108.3048 97.74483,88.96665 91.22034,70.33804 86.18977,51.72999 85.70503,47.96107 "
id = "282" />
  <path
     style="fill:none;stroke:#000000;stroke-width:5;stroke-opacity:1"
     d = "M 182.4622,343.9757 171.2002,324.9165 165.4489,303.1548 165.7993,278.8172 169.3242,253.9936 167.5505,233.8451 161.4516,219.057 153.4346,207.4365 145.6875,196.1302 138.6789,183.0503 131.7806,167.2892 125.3092,149.1595 118.3719,128.6514 111.0794,107.7808 104.2655,89.19521 98.24408,71.0278 93.57973,53.26252 92.75493,47.92584 "
id = "283" />
  <path
     style="fill:none;stroke:#000000;stroke-width:5;stroke-opacity:1"
     d = "M 182.99,342.3227 172.424,323.1687 167.7121,301.2568 168.8295,276.6166 173.1397,251.4571 171.0421,231.4816 164.828,216.8906 157.1301,205.2598 149.6527,194.0558 142.9856,181.1223 136.705,165.4689 130.5898,147.7534 123.7441,127.6829 116.436,107.2184 109.407,89.07175 103.7967,71.31814 99.57106,53.89631 98.62029,47.97216 "
id = "284" />
  <path
     style="fill:none;stroke:#000000;stroke-width:5;stroke-opacity:1"
     d = "M 183.5466,340.6792 173.6889,321.4221 169.929,299.3379 171.8701,274.3673 176.4769,249.1057 174.0765,229.4177 167.6841,215.0471 160.1668,203.5089 152.8201,192.4011 146.2574,179.6961 140.3739,164.1913 134.5792,146.6399 127.8593,126.9212 120.7803,106.7286 113.7169,88.89416 108.3119,71.6078 104.2684,54.53365 103.1878,47.92142 "
id = "285" />
  <path
     style="fill:none;stroke:#000000;stroke-width:5;stroke-opacity:1"
     d = "M 184.1317,339.0456 174.9993,319.6555 172.1263,297.3724 174.8715,272.047 179.5438,246.8979 176.925,227.4938 170.3687,213.3788 162.891,201.9275 155.5622,190.9973 149.0418,178.4305 143.3211,163.2228 137.8486,145.7891 131.5259,126.1749 124.691,106.0962 117.8335,88.50217 112.4987,71.51559 108.5795,54.78394 107.4698,47.9738 "
id = "286" />
  <path
     style="fill:none;stroke:#000000;stroke-width:5;stroke-opacity:1"
     d = "M 184.7453,337.4224 176.3674,317.8687 174.3269,295.3611 177.8877,269.7199 182.4598,244.8158 179.5871,225.8001 172.8651,211.9823 165.3271,200.7444 157.9578,189.9167 151.4897,177.4268 145.9362,162.4669 140.7681,145.0526 134.7439,125.5897 128.1962,105.5767 121.4919,88.04022 116.2723,71.16132 112.4725,54.63847 111.4017,47.92339 "
id = "287" />
  <path
     style="fill:none;stroke:#000000;stroke-width:5;stroke-opacity:1"
     d = "M 185.3871,335.8102 177.8528,316.072 176.5008,293.3245 180.8519,267.3617 185.0941,242.8221 182.0893,224.2599 175.1213,210.8181 167.5067,199.7943 160.1766,189.0802 153.7967,176.7935 148.3788,162.1213 143.343,144.8401 137.5739,125.5354 131.1971,105.5848 124.73,87.78007 119.6554,70.98335 115.8999,54.60725 114.9134,47.98019 "
id = "288" />
  <path
     style="fill:none;stroke:#000000;stroke-width:5;stroke-opacity:1"
     d = "M 186.057,334.2094 179.3604,314.2462 178.6225,291.2992 183.6999,265.0567 187.4723,240.8676 184.2915,222.829 177.0648,209.8528 169.4356,198.9996 162.2079,188.4133 155.9094,176.3852 150.6539,162.0648 145.7282,145.036 140.1915,125.8966 134.0421,106.0285 127.8332,87.77541 122.7987,70.99101 119.0571,54.73583 118.1441,47.99741 "
id = "289" />
  <path
     style="fill:none;stroke:#000000;stroke-width:5;stroke-opacity:1"
     d = "M 186.7547,332.6206 180.8829,312.4417 180.7243,289.27 186.5116,262.7779 189.7499,238.9057 186.3268,221.4065 178.8823,208.8669 171.2811,198.2224 164.1709,187.7838 157.9775,176.0157 152.8623,162.0657 148.0406,145.3627 142.6398,126.4111 136.627,106.6661 130.6969,87.98766 125.6866,71.11611 121.9299,54.8883 121.0994,47.93781 "
id = "290" />
  <path
     style="fill:none;stroke:#000000;stroke-width:5;stroke-opacity:1"
     d = "M 187.4799,331.0443 182.4099,310.6564 182.8588,287.2562 189.3964,260.6254 192.1412,237.1251 188.41,220.1678 180.8028,208.0707 173.2258,197.6107 166.0952,187.3659 159.9704,175.9046 154.9431,162.356 150.2796,146.0116 145.0342,127.2503 139.0995,107.762 133.1939,88.73794 128.2851,71.68803 124.4788,55.45809 123.6903,47.99969 "
id = "291" />
  <path
     style="fill:none;stroke:#000000;stroke-width:5;stroke-opacity:1"
     d = "M 188.2327,329.4808 183.8903,308.8914 184.9377,285.2736 192.0069,258.6618 194.3427,235.5943 190.4221,219.0781 182.7487,207.4048 175.1936,197.1549 167.9702,187.1549 161.8773,176.0063 156.8944,162.8807 152.3817,146.9257 147.3535,128.5197 141.6201,109.2033 135.6687,89.93719 130.9291,72.65305 127.0262,56.36275 126.2482,47.99877 "
id = "292" />
  <path
     style="fill:none;stroke:#000000;stroke-width:5;stroke-opacity:1"
     d = "M 189.0125,327.9307 185.3668,307.1486 187.0253,283.341 194.4416,256.9522 196.5357,234.3078 192.4979,218.1323 184.8098,206.8901 177.2191,196.8448 169.9093,187.1251 163.8175,176.2982 158.8382,163.6389 154.4306,148.1661 149.5271,130.1134 144.0122,110.9529 138.1032,91.55284 133.477,73.89413 129.5481,57.42214 128.7523,47.95563 "
id = "293" />
  <path
     style="fill:none;stroke:#000000;stroke-width:5;stroke-opacity:1"
     d = "M 189.8193,326.3944 186.8321,305.4395 189.0935,281.4748 196.6703,255.3311 198.5909,233.0514 194.4269,217.2112 186.8253,206.3832 179.2064,196.5254 171.8379,187.0352 165.7453,176.5506 160.7848,164.3299 156.4758,149.3549 151.6624,131.6808 146.3372,112.7197 140.4676,93.35915 135.8606,75.34941 131.9996,58.7438 131.0982,47.98145 "
id = "294" />
  <path
     style="fill:none;stroke:#000000;stroke-width:5;stroke-opacity:1"
     d = "M 190.6528,324.8724 188.2969,303.7608 191.1416,279.6839 198.7402,253.7846 200.4957,231.78 196.2006,216.3103 188.8127,205.6754 181.1621,195.945 173.6898,186.7022 167.5846,176.5497 162.6678,164.7037 158.4093,150.2129 153.7466,132.9713 148.6185,114.2121 142.8066,94.88674 138.1593,76.50941 134.4416,59.79388 133.5046,47.93083 "
id = "295" />
  <path
     style="fill:none;stroke:#000000;stroke-width:5;stroke-opacity:1"
     d = "M 191.5128,323.3653 189.7354,302.1038 193.1684,277.8512 200.6105,252.1165 202.1333,230.4233 197.7301,215.3624 190.6115,204.7904 183.0074,195.1622 175.4366,186.0582 169.3146,176.145 164.4476,164.6104 160.2243,150.5489 155.6731,133.7085 150.7245,115.1555 145.0454,95.89088 140.3499,77.17812 136.8069,60.29676 135.9025,47.92958 "
id = "296" />
  <path
     style="fill:none;stroke:#000000;stroke-width:5;stroke-opacity:1"
     d = "M 192.3989,321.8734 191.1617,300.4731 195.1658,276.098 202.2158,250.6328 203.6028,229.2664 199.1718,214.5207 192.3911,203.8894 184.9066,194.2797 177.2952,185.267 171.1444,175.5396 166.25,164.3002 162.0354,150.6263 157.5225,134.1889 152.7439,115.868 147.2129,96.71043 142.5145,77.70353 139.1473,60.602 138.2927,47.93077 "
id = "297" />
  <path
     style="fill:none;stroke:#000000;stroke-width:5;stroke-opacity:1"
     d = "M 192.9949,320.9022 192.1125,299.4238 196.4804,274.9604 203.237,249.6955 204.5592,228.5596 200.1152,213.9714 193.5701,203.2564 186.2028,193.6321 178.599,184.6529 172.4114,175.0235 167.4518,163.9588 163.2473,150.4821 158.7257,134.3007 154.0514,116.1118 148.5848,97.05325 143.8864,77.91886 140.6351,60.706 139.8694,47.92866 "
id = "298" />
  <path
     style="fill:none;stroke:#000000;stroke-width:5;stroke-opacity:1"
     d = "M 194.2486,318.937 194.1178,297.332 199.1764,272.7198 205.3303,247.8726 206.5507,227.1739 202.2329,212.7296 196.1528,201.7618 189.0604,192.0597 181.5912,183.1069 175.3544,173.5896 170.1807,162.7614 165.8134,149.5936 161.1949,133.8089 156.6229,115.7977 151.2576,96.86026 146.6534,77.56147 143.6552,60.21104 143.094,47.9239 "
id = "299" />
  <path
     style="fill:none;stroke:#000000;stroke-width:5;stroke-opacity:1"
     d = "M 195.2115,317.4934 195.6392,295.8081 201.1328,271.123 206.8547,246.5516 207.9801,226.1376 203.8207,211.7629 198.1005,200.5692 191.333,190.7759 184.0321,181.778 177.6523,172.28 172.3333,161.5448 167.8458,148.5957 163.1734,133.0575 158.6412,115.1892 153.3654,96.2801 148.9266,76.89436 146.1278,59.45835 145.7786,47.96379 "
id = "300" />
  <path
     style="fill:none;stroke:#000000;stroke-width:5;stroke-opacity:1"
     d = "M 196.1996,316.067 197.1695,294.3004 202.9602,269.5524 208.3409,245.2338 209.3586,225.1726 205.4013,210.8016 200.0473,199.4583 193.5644,189.5564 186.463,180.4676 179.9693,171.0007 174.5306,160.4467 170.0022,147.7365 165.2849,132.4447 160.8548,114.753 155.7693,95.86143 151.536,76.36939 148.9039,58.79538 148.805,47.99596 "
id = "301" />
  <path
     style="fill:none;stroke:#000000;stroke-width:5;stroke-opacity:1"
     d = "M 197.2123,314.6579 198.6894,292.7951 204.7159,268.0164 209.8494,243.9524 210.7566,224.2429 206.9808,209.8143 201.9656,198.3214 195.7219,188.2319 188.7651,179.0415 182.276,169.6139 176.8189,159.1987 172.1972,146.6644 167.4298,131.6133 163.093,114.0955 158.2653,95.22215 154.3149,75.75452 151.9861,58.17825 152.1246,47.97919 "
id = "302" />
  <path
     style="fill:none;stroke:#000000;stroke-width:5;stroke-opacity:1"
     d = "M 198.2495,313.2668 200.1784,291.3455 206.4148,266.5397 211.334,242.7104 212.1449,223.3367 208.6073,208.8331 203.9394,197.1651 197.9192,186.8619 191.0825,177.6024 184.6371,168.1644 179.2121,157.8235 174.4173,145.4498 169.6027,130.5402 165.4014,113.163 160.8018,94.25298 157.1849,74.88924 155.1379,57.32064 155.4721,47.92652 "
id = "303" />
  <path
     style="fill:none;stroke:#000000;stroke-width:5;stroke-opacity:1"
     d = "M 199.3108,311.894 201.6736,289.9063 208.0674,265.0214 212.8053,241.4099 213.4961,222.3673 210.2657,207.8572 205.9314,196.0145 200.1592,185.4727 193.3972,176.0424 186.9958,166.5445 181.6566,156.1967 176.7769,143.8207 171.9735,128.8667 167.9558,111.62 163.6925,92.68241 160.5361,73.47781 158.8269,56.03135 159.3361,47.94754 "
id = "304" />
  <path
     style="fill:none;stroke:#000000;stroke-width:5;stroke-opacity:1"
     d = "M 200.396,310.5399 203.1915,288.5242 209.671,263.5583 214.2376,240.1417 214.8915,221.4204 212.0257,206.9014 208.0205,194.8896 202.5067,184.1021 195.8334,174.4349 189.5191,164.8284 184.3028,154.3521 179.3448,141.9011 174.6206,126.8581 170.8019,109.6446 166.9094,90.72624 164.3509,71.84888 163.0477,54.42845 163.6606,47.95731 "
id = "305" />
  <path
     style="fill:none;stroke:#000000;stroke-width:5;stroke-opacity:1"
     d = "M 201.5045,309.2049 204.7115,287.1932 211.234,262.1257 215.6351,238.8942 216.264,220.4935 213.7726,205.9576 210.1103,193.6904 204.7903,182.6662 198.2237,172.7272 192.0715,162.8813 186.7858,152.068 181.8189,139.3388 177.3456,124.1009 173.8703,106.7803 170.3437,87.97135 168.4345,69.56891 167.7413,52.25412 168.3003,47.9906 "
id = "306" />
  <path
     style="fill:none;stroke:#000000;stroke-width:5;stroke-opacity:1"
     d = "M 202.6363,307.8895 206.2123,285.8471 212.7571,260.6872 217.0122,237.6417 217.6699,219.5465 215.5754,204.9905 212.2725,192.4733 207.1547,181.1208 200.7615,170.7653 194.7307,160.5729 189.4151,149.3453 184.5733,136.1652 180.6603,120.6868 177.7101,103.1901 174.9508,84.39934 173.7823,66.41663 174.1658,49.26246 174.388,47.98158 "
id = "307" />
  <path
     style="fill:none;stroke:#000000;stroke-width:5;stroke-opacity:1"
     d = "M 203.7908,306.594 207.7504,284.5009 214.2181,259.3326 218.3728,236.4773 219.1331,218.6336 217.4992,204.0392 214.622,191.2352 209.7769,179.4925 203.6245,168.5684 197.8431,157.9321 192.6983,146.2186 188.24,132.7425 185.1342,117.1016 183.052,99.48975 181.3553,80.92238 181.3547,63.42218 183.1757,47.92894 "
id = "308" />
  <path
     style="fill:none;stroke:#000000;stroke-width:5;stroke-opacity:1"
     d = "M 204.5612,305.7545 208.7584,283.5691 215.1897,258.4554 219.3045,235.761 220.1232,218.0127 218.8293,203.3637 216.288,190.3427 211.6541,178.2631 205.7604,166.8992 200.2645,155.8243 195.3553,143.7236 191.2772,130.1569 188.6482,114.5533 187.1773,97.16622 186.3656,79.04858 187.3954,61.87756 190.0128,47.921 "
id = "309" />
  <path
     style="fill:none;stroke:#000000;stroke-width:5;stroke-opacity:1"
     d = "M 206.1668,304.0646 210.7794,281.6547 217.1114,256.6522 221.2427,234.3409 222.2054,216.7455 221.5697,201.9594 219.7014,188.4617 215.556,175.6644 210.1655,163.3646 205.3422,151.1743 201.0026,138.3584 198.1174,124.7873 196.7928,109.6072 196.7072,93.20527 198.1878,76.81371 201.7585,61.05281 206.3334,47.92718 "
id = "310" />
  <path
     style="fill:none;stroke:#000000;stroke-width:5;stroke-opacity:1"
     d = "M 207.3875,302.8313 212.2634,280.2828 218.4743,255.3383 222.6402,233.3327 223.7802,215.7958 223.647,200.8695 222.2285,186.9745 218.6099,173.6231 213.6853,160.5136 209.3237,147.496 205.5619,134.4474 203.687,120.8715 203.3512,106.1505 204.1846,90.81118 207.5385,76.19321 213.1225,62.04778 220.358,48.27214 220.5596,47.92665 "
id = "311" />
  <path
     style="fill:none;stroke:#000000;stroke-width:5;stroke-opacity:1"
     d = "M 208.6295,301.6196 213.7371,278.9569 219.8346,254.0877 224.0264,232.3734 225.4846,214.8968 225.9786,199.7774 225.0385,185.3554 221.9613,171.3052 217.5525,157.174 213.5901,143.3446 210.7577,129.8756 209.8964,116.189 210.9568,102.122 213.4417,88.06519 218.8184,74.90692 226.5202,62.31152 236.4254,49.31183 237.477,47.97605 "
id = "312" />
  <path
     style="fill:none;stroke:#000000;stroke-width:5;stroke-opacity:1"
     d = "M 209.8925,300.4297 215.209,277.6534 221.1554,252.9348 225.3773,231.4854 227.2062,214.0679 228.3321,198.7041 227.8907,183.7282 225.3995,168.9285 221.3565,153.7849 217.7368,139.2314 215.9443,125.3777 216.0997,111.6743 218.2484,97.81506 222.8921,84.61032 230.173,72.2278 239.7984,59.91817 249.8436,47.9824 "
id = "313" />
  <path
     style="fill:none;stroke:#000000;stroke-width:5;stroke-opacity:1"
     d = "M 211.1761,299.262 216.7037,276.4011 222.516,251.9075 226.774,230.7023 228.9915,213.3533 230.7783,197.7297 230.8856,182.2598 228.9987,166.6325 225.4258,150.4697 222.48,135.3108 221.4666,120.9345 222.6919,107.1288 226.2994,93.51299 232.5851,81.04018 241.4155,68.96611 252.4346,55.54202 258.4625,47.94244 "
id = "314" />
  <path
     style="fill:none;stroke:#000000;stroke-width:5;stroke-opacity:1"
     d = "M 212.4799,298.1169 218.1913,275.1789 223.8998,250.8951 228.1903,229.9441 230.8248,212.6385 233.2767,196.7529 233.9449,180.8313 232.6906,164.264 229.6491,147.0941 227.3371,131.2157 227.1948,116.7404 229.3457,102.7904 234.3609,89.66994 242.129,77.42437 251.979,64.49689 264.0644,49.4748 265.1991,47.951 "
id = "315" />
  <path
     style="fill:none;stroke:#000000;stroke-width:5;stroke-opacity:1"
     d = "M 213.8034,296.9948 219.6727,273.9841 225.3778,249.8923 229.6948,229.2124 232.8359,211.9201 235.9131,195.7159 237.1332,179.2096 236.4397,161.6233 233.801,143.6892 232.0168,127.3331 232.7254,112.653 235.9229,98.88208 242.0236,86.07109 250.7348,73.38673 261.638,59.27224 270.24,47.97481 "
id = "316" />
  <path
     style="fill:none;stroke:#000000;stroke-width:5;stroke-opacity:1"
     d = "M 215.1464,295.8959 221.1004,272.8366 226.8413,248.9694 231.2439,228.5544 234.8967,211.2192 238.5796,194.7215 240.366,177.5395 240.1406,159.1026 237.8833,140.6419 236.6085,123.8846 238.1824,109.0424 242.4549,95.53448 249.3711,82.56691 258.9647,68.9936 270.8667,53.36888 274.9444,47.9272 "
id = "317" />
  <path
     style="fill:none;stroke:#000000;stroke-width:5;stroke-opacity:1"
     d = "M 216.5084,294.8205 222.4869,271.738 228.275,248.0945 232.8207,227.926 237.0193,210.522 241.2968,193.6978 243.6968,175.8826 244.0657,156.7311 242.1505,137.8282 241.506,120.7835 243.7334,105.9429 248.5213,92.48978 256.271,78.80313 266.677,64.25299 278.8069,47.977 "
id = "318" />
  <path
     style="fill:none;stroke:#000000;stroke-width:5;stroke-opacity:1"
     d = "M 217.8888,293.7692 223.8846,270.6794 229.7212,247.2618 234.4392,227.29 239.2554,209.7387 244.1798,192.5337 247.2633,174.0864 248.2126,154.3684 246.8796,135.0361 247.0005,117.5203 249.7114,102.5363 255.1534,88.61309 263.8779,74.20469 275.2187,58.19532 282.914,47.96632 "
id = "319" />
  <path
     style="fill:none;stroke:#000000;stroke-width:5;stroke-opacity:1"
     d = "M 219.2874,292.7421 225.2456,269.6914 231.1369,246.5012 236.0101,226.6502 241.4533,208.9333 246.9337,191.2521 250.8099,172.301 252.0802,152.3194 251.3745,132.5061 252.276,114.6431 255.2836,99.28653 261.8977,84.53918 271.454,69.34602 283.8379,51.95271 286.9725,47.92923 "
id = "320" />
  <path
     style="fill:none;stroke:#000000;stroke-width:5;stroke-opacity:1"
     d = "M 220.7038,291.7395 226.6085,268.7927 232.5565,245.8214 237.6422,226.1032 243.7193,208.1334 249.7575,189.9443 254.4491,170.4958 255.9993,150.3035 256.0067,130.2057 257.6079,112.0273 261.1594,95.84746 268.6242,80.29512 279.1639,64.08953 290.9742,47.95107 "
id = "321" />
  <path
     style="fill:none;stroke:#000000;stroke-width:5;stroke-opacity:1"
     d = "M 222.1374,290.7619 227.9698,267.9047 233.963,245.1496 239.3244,225.5429 246.0585,207.3191 252.755,188.7463 258.2124,168.7733 260.2048,148.3835 260.7882,128.0057 262.873,109.4671 267.2683,92.48656 275.319,76.24425 286.692,59.07589 295.1729,47.93598 "
id = "322" />
  <path
     style="fill:none;stroke:#000000;stroke-width:5;stroke-opacity:1"
     d = "M 223.5878,289.8094 229.3457,267.0508 235.4057,244.5265 241.0782,224.9928 248.4652,206.5391 255.8352,187.5248 261.8281,167.2976 264.2884,146.6908 265.335,126.1007 267.8238,107.2633 272.9098,89.78327 281.5125,73.00261 293.6369,54.79857 298.8151,47.93219 "
id = "323" />
  <path
     style="fill:none;stroke:#000000;stroke-width:5;stroke-opacity:1"
     d = "M 225.0546,288.8824 230.7415,266.2379 236.8414,243.9187 242.8902,224.3305 250.879,205.6904 258.8242,186.2883 265.0957,165.9694 268.0436,145.1208 269.5695,124.4528 272.4702,105.2635 277.8643,87.37876 286.9929,70.17724 300.0175,51.37233 302.4976,47.98261 "
id = "324" />
  <path
     style="fill:none;stroke:#000000;stroke-width:5;stroke-opacity:1"
     d = "M 226.5374,287.981 232.1509,265.4967 238.2933,243.3605 244.7509,223.6324 253.2901,204.7991 261.7994,185.0795 268.3202,164.7109 271.7269,143.5778 273.8103,122.958 277.2772,103.4008 283.1942,85.18402 292.71,67.50954 306.1376,48.28648 306.3727,47.96284 "
id = "325" />
  <path
     style="fill:none;stroke:#000000;stroke-width:5;stroke-opacity:1"
     d = "M 228.0358,287.1058 233.6376,264.813 239.8477,242.8426 246.7168,222.9576 255.7893,203.8739 264.845,183.9347 271.5861,163.5376 275.5276,142.2047 278.3101,121.4396 282.4239,101.6846 288.7773,83.18027 298.799,64.80933 310.6492,47.96118 "
id = "326" />
  <path
     style="fill:none;stroke:#000000;stroke-width:5;stroke-opacity:1"
     d = "M 229.5492,286.2567 235.1719,264.1405 241.5103,242.2892 248.826,222.2729 258.465,202.8813 268.0348,182.654 274.8985,162.04 279.3435,140.6722 282.7418,119.8048 287.4548,100.0626 294.0563,81.46098 304.1661,62.58815 314.6855,47.98114 "
id = "327" />
  <path
     style="fill:none;stroke:#000000;stroke-width:5;stroke-opacity:1"
     d = "M 231.0771,285.4343 236.7264,263.5314 243.2015,241.7941 251.0195,221.6254 261.2351,201.9053 271.3027,181.5652 278.3831,160.7177 283.3292,139.5025 287.3642,118.6072 292.4674,98.82007 299.3488,80.2556 309.6904,61.37 319.4625,47.95229 "
id = "328" />
  <path
     style="fill:none;stroke:#000000;stroke-width:5;stroke-opacity:1"
     d = "M 232.6192,284.6386 238.2914,262.9636 244.9169,241.3413 253.265,221.0701 264.0475,201.0316 274.6068,180.6723 282.0075,159.5961 287.4995,138.5015 292.0076,117.6249 297.4521,97.80749 304.5788,79.22011 314.9952,60.29366 324.0955,47.99502 "
id = "329" />
  <path
     style="fill:none;stroke:#000000;stroke-width:5;stroke-opacity:1"
     d = "M 234.1749,283.87 239.886,262.3989 246.6772,240.9188 255.6033,220.4547 266.9429,200.1447 278.0736,179.8255 285.8321,158.7905 291.9627,137.8571 296.9016,116.9729 302.7248,97.27362 310.0276,78.59131 320.314,59.70645 329.1381,47.94899 "
id = "330" />
  <path
     style="fill:none;stroke:#000000;stroke-width:5;stroke-opacity:1"
     d = "M 235.7438,283.1286 241.5328,261.8447 248.4382,240.4536 257.9257,219.7827 269.8376,199.254 281.4622,178.9827 289.6559,158.2039 296.2052,137.5157 301.7095,116.7113 307.863,97.18875 315.3132,78.46861 325.3883,59.88863 334.328,47.96893 "
id = "331" />
  <path
     style="fill:none;stroke:#000000;stroke-width:5;stroke-opacity:1"
     d = "M 237.3254,282.4147 243.2023,261.2889 250.2069,239.9195 260.2489,219.0264 272.7372,198.3182 284.59,178.0829 293.1484,157.6964 300.1823,137.2751 306.2836,116.5254 312.648,97.26038 320.2418,78.84788 330.0093,60.86975 336.0334,52.88788 "
id = "332" />
  <path
     style="fill:none;stroke:#000000;stroke-width:5;stroke-opacity:1"
     d = "M 238.9192,281.7286 244.8663,260.7792 251.976,239.3513 262.544,218.2713 275.5606,197.4526 287.5921,177.2775 296.5479,157.3099 304.2798,137.1454 311.2267,116.3571 317.8803,97.28378 325.4711,79.54789 335.0227,62.42089 336.0463,61.06352 "
id = "333" />
  <path
     style="fill:none;stroke:#000000;stroke-width:5;stroke-opacity:1"
     d = "M 240.5247,281.0703 246.5456,260.3063 253.8244,238.7918 264.8949,217.5078 278.2772,196.6202 290.3883,176.5481 299.7357,157.0251 308.1084,137.0719 315.8523,116.2911 322.8602,97.41815 330.4923,80.38156 336.0342,70.76459 "
id = "334" />
  <path
     style="fill:none;stroke:#000000;stroke-width:5;stroke-opacity:1"
     d = "M 242.1415,280.4402 248.24,259.8705 255.7751,238.2505 267.3376,216.7852 281.0046,195.9109 293.1109,175.971 302.9646,156.7388 311.9255,136.9959 320.3633,116.4753 327.7446,98.03867 335.3051,81.7748 336.013,80.56687 "
id = "335" />
  <path
     style="fill:none;stroke:#000000;stroke-width:5;stroke-opacity:1"
     d = "M 243.7691,279.8384 249.9674,259.4639 257.8329,237.7412 269.8529,216.1576 283.7759,195.309 295.9094,175.5264 306.296,156.5384 315.8054,137.0048 324.9158,116.9276 332.7109,98.9767 336.0044,92.12712 "
id = "336" />
  <path
     style="fill:none;stroke:#000000;stroke-width:5;stroke-opacity:1"
     d = "M 245.4069,279.2651 251.7331,259.0509 259.9184,237.3005 272.3785,215.5653 286.5716,194.7169 298.7155,175.0589 309.6418,156.3771 319.702,137.1413 329.4821,117.5667 336.0186,103.4011 "
id = "337" />
  <path
     style="fill:none;stroke:#000000;stroke-width:5;stroke-opacity:1"
     d = "M 247.0545,278.7205 253.5234,258.6268 262.0371,236.856 274.874,214.9418 289.3618,194.1875 301.5428,174.6749 312.9933,156.2422 323.6105,137.2992 333.9928,118.2593 336.0143,114.1272 "
id = "338" />
  <path
     style="fill:none;stroke:#000000;stroke-width:5;stroke-opacity:1"
     d = "M 248.7113,278.2047 255.3054,258.192 264.2257,236.3853 277.4637,214.3398 292.2709,193.7016 304.5831,174.3955 316.541,156.119 327.7619,137.3568 336.0478,123.4353 "
id = "339" />
  <path
     style="fill:none;stroke:#000000;stroke-width:5;stroke-opacity:1"
     d = "M 250.3768,277.7178 257.1037,257.8152 266.4802,235.9758 280.0628,213.7612 295.1942,193.1757 307.7071,174.0813 319.9696,155.9202 331.7351,137.3395 336.0051,130.5744 "
id = "340" />
  <path
     style="fill:none;stroke:#000000;stroke-width:5;stroke-opacity:1"
     d = "M 252.0506,277.2602 258.8911,257.4577 268.6875,235.6185 282.5656,213.2069 297.8782,192.687 310.639,173.7628 323.0827,155.7036 335.2786,137.3476 336.0485,136.1782 "
id = "341" />
  <path
     style="fill:none;stroke:#000000;stroke-width:5;stroke-opacity:1"
     d = "M 253.1709,276.9713 260.1161,257.2372 270.1927,235.4129 284.2487,212.9144 299.6405,192.4004 312.583,173.5995 325.1259,155.6271 336.0009,139.8068 "
id = "342" />
  <path
     style="fill:none;stroke:#000000;stroke-width:5;stroke-opacity:1"
     d = "M 254.8573,276.5625 261.993,256.8897 272.5343,235.1284 286.7725,212.5609 302.2349,192.0382 315.3905,173.4451 328.2092,155.6165 336.0428,144.8667 "
id = "343" />
  <path
     style="fill:none;stroke:#000000;stroke-width:5;stroke-opacity:1"
     d = "M 256.5505,276.1832 263.9131,256.5584 274.915,234.8404 289.3051,212.2195 304.7892,191.6814 318.163,173.3236 331.3488,155.6696 336.0438,149.567 "
id = "344" />
  <path
     style="fill:none;stroke:#000000;stroke-width:5;stroke-opacity:1"
     d = "M 258.2502,275.8336 265.882,256.2575 277.3467,234.5156 291.8585,211.85 307.3344,191.3201 320.9213,173.227 334.4933,155.7803 336.0466,153.8215 "
id = "345" />
  <path
     style="fill:none;stroke:#000000;stroke-width:5;stroke-opacity:1"
     d = "M 259.9556,275.5136 267.9446,255.9405 279.8844,234.1113 294.4868,211.3837 309.8712,190.9508 323.6474,173.0954 336.026,157.7679 "
id = "346" />
  <path
     style="fill:none;stroke:#000000;stroke-width:5;stroke-opacity:1"
     d = "M 261.6664,275.2234 270.0122,255.6481 282.3693,233.7099 297.1699,210.9136 312.4264,190.6487 326.3812,173.0572 336.0583,161.4654 "
id = "347" />
  <path
     style="fill:none;stroke:#000000;stroke-width:5;stroke-opacity:1"
     d = "M 263.382,274.9632 272.0963,255.3812 284.8526,233.2336 299.8806,210.3502 314.9702,190.331 329.0273,173.0822 336.0476,164.8754 "
id = "348" />
  <path
     style="fill:none;stroke:#000000;stroke-width:5;stroke-opacity:1"
     d = "M 265.1019,274.7329 274.1844,255.1505 287.2773,232.8296 302.5056,209.8491 317.4161,190.0967 331.5427,173.1588 336.0314,168.0507 "
id = "349" />
  <path
     style="fill:none;stroke:#000000;stroke-width:5;stroke-opacity:1"
     d = "M 266.8257,274.5327 276.2596,254.9644 289.6622,232.4882 305.0587,209.4226 319.7635,189.9582 333.9871,173.2943 336.0022,171.0714 "
id = "350" />
  <path
     style="fill:none;stroke:#000000;stroke-width:5;stroke-opacity:1"
     d = "M 268.5526,274.3625 278.3038,254.8194 291.9664,232.2014 307.4459,209.0432 322.0089,189.876 336.0494,173.8594 "
id = "351" />
  <path
     style="fill:none;stroke:#000000;stroke-width:5;stroke-opacity:1"
     d = "M 270.2821,274.2226 280.3398,254.6717 294.2236,231.9252 309.8127,208.7179 324.2962,189.8707 336.0295,176.8851 "
id = "352" />
  <path
     style="fill:none;stroke:#000000;stroke-width:5;stroke-opacity:1"
     d = "M 272.0139,274.1129 282.4125,254.5692 296.4375,231.6753 312.1201,208.4418 326.5462,189.9379 336.0142,179.7614 "
id = "353" />
  <path
     style="fill:none;stroke:#000000;stroke-width:5;stroke-opacity:1"
     d = "M 273.7473,274.0334 284.4521,254.5008 298.6603,231.4808 314.3874,208.2602 328.8282,190.1353 336.0074,182.6117 "
id = "354" />
  <path
     style="fill:none;stroke:#000000;stroke-width:5;stroke-opacity:1"
     d = "M 275.4818,273.9841 286.4702,254.481 300.8835,231.3343 316.5128,208.2825 331.058,190.4914 336.0134,185.4071 "
id = "355" />
  <path
     style="fill:none;stroke:#000000;stroke-width:5;stroke-opacity:1"
     d = "M 277.217,273.9652 288.4812,254.4988 303.1009,231.2249 318.7018,208.4273 333.3428,190.9029 336.0204,188.2066 "
id = "356" />
  <path
     style="fill:none;stroke:#000000;stroke-width:5;stroke-opacity:1"
     d = "M 278.9522,273.9765 290.4984,254.534 305.305,231.1252 320.8735,208.6037 335.6125,191.3726 336.0405,190.952 "
id = "357" />
  <path
     style="fill:none;stroke:#000000;stroke-width:5;stroke-opacity:1"
     d = "M 280.6869,274.0181 292.5768,254.586 307.54,231.0034 323.0638,208.79 336.0616,193.9856 "
id = "358" />
  <path
     style="fill:none;stroke:#000000;stroke-width:5;stroke-opacity:1"
     d = "M 282.4207,274.09 294.6739,254.6921 309.8114,230.9932 325.3059,209.1333 336.0139,197.2461 "
id = "359" />
  <path
     style="fill:none;stroke:#000000;stroke-width:5;stroke-opacity:1"
     d = "M 48,48 336,48 336,720 48,720 48,48 "
id = "360" />
</svg>
