mtllib gBUSH2.mtl
v -513.4956 40 125.3092
vt 0 0.9777589
vn -0.3426741 -8.43055E-11 0.9394543
v -462.9021 0 143.7636
vt 0.5 0
vn 0.03085445 4.959E-10 0.9995239
v -513.4956 0 125.3092
vt 0 0
v -462.9021 40 143.7636
vt 0.5 0.9777589
v -413.5432 0 122.2237
vt 1 0
vn 0.3999667 1.005126E-09 0.9165297
v -413.5432 40 122.2237
vt 1 0.9777589
o bush03_0
g polygon_0
usemtl lambert_bush011
f 3/3/1 2/2/2 1/1/1
f 1/1/1 2/2/2 4/4/2
f 2/2/2 5/5/3 4/4/2
f 4/4/2 5/5/3 6/6/3
v -515.7856 40 137.0539
vn -0.3426743 -1.515229E-09 0.9394543
v -465.1922 1.137236E-06 155.5083
vn 0.03085424 -2.961082E-09 0.9995239
v -515.7856 2.461666E-06 137.0539
v -465.1922 40 155.5083
v -415.8333 7.22512E-07 133.9684
vn 0.3999666 -3.983109E-09 0.9165297
v -415.8333 40 133.9684
o bush03_1
g polygon_0
usemtl bush_b_m1
f 9/3/4 8/2/5 7/1/4
f 7/1/4 8/2/5 10/4/5
f 8/2/5 11/5/6 10/4/5
f 10/4/5 11/5/6 12/6/6
v -517.7571 40 151.7457
vn -0.3426749 4.747044E-09 0.939454
v -467.1636 -1.123538E-06 170.2002
vn 0.03085374 5.059088E-09 0.9995239
v -517.7571 2.326223E-06 151.7457
v -467.1636 40 170.2002
v -417.8047 -3.149297E-06 148.6604
vn 0.3999662 4.647014E-09 0.9165299
v -417.8047 40 148.6604
o bush03_2
g polygon_0
usemtl bush_c_m1
f 15/3/7 14/2/8 13/1/7
f 13/1/7 14/2/8 16/4/8
f 14/2/8 17/5/9 16/4/8
f 16/4/8 17/5/9 18/6/9
v -488.3358 40 437.5474
vn -0.4092502 4.840435E-09 0.9124222
v -439.1982 0 459.5872
vn -0.04099932 -5.911547E-10 0.9991592
v -488.3358 0 437.5474
v -439.1982 40 459.5872
v -388.42 0 441.6473
vn 0.3331198 -5.938131E-09 0.9428845
v -388.42 40 441.6473
o bush01_0
g polygon_0
usemtl lambert_bush011
f 21/3/10 20/2/11 19/1/10
f 19/1/10 20/2/11 22/4/11
f 20/2/11 23/5/12 22/4/11
f 22/4/11 23/5/12 24/6/12
v -490.8586 40 448.546
vn -0.40925 -5.174195E-09 0.9124223
v -441.7209 5.781135E-07 470.5858
vn -0.04099911 -5.063602E-09 0.9991592
v -490.8586 1.660053E-06 448.546
v -441.7209 40 470.5858
v -390.9427 -6.217393E-07 452.6459
vn 0.33312 -4.228245E-09 0.9428844
v -390.9427 40 452.6459
o bush01_1
g polygon_0
usemtl bush_b_m1
f 27/3/13 26/2/14 25/1/13
f 25/1/13 26/2/14 28/4/14
f 26/2/14 29/5/15 28/4/14
f 28/4/14 29/5/15 30/6/15
v -492.0302 40 460.1187
vn -0.4092506 -4.936628E-09 0.912422
v -442.8925 -3.152984E-07 482.1585
vn -0.04099966 -6.123294E-11 0.9991592
v -492.0302 1.980385E-07 460.1187
v -442.8925 40 482.1585
v -392.1144 -1.255776E-06 464.2187
vn 0.3331197 4.822927E-09 0.9428846
v -392.1144 40 464.2187
o bush01_2
g polygon_0
usemtl bush_c_m1
f 33/3/16 32/2/17 31/1/16
f 31/1/16 32/2/17 34/4/17
f 32/2/17 35/5/18 34/4/17
f 34/4/17 35/5/18 36/6/18
v 95.41698 40 422.7858
vn -0.3186468 -2.466848E-09 -0.9478735
v 46.33146 -1.32363E-16 439.2869
vn -0.522835 -1.276564E-09 -0.8524339
v 95.41698 4.737319E-16 422.7858
v 46.33146 40 439.2869
v 7.89634 2.167606E-15 477.0097
vn -0.7004624 -2.142776E-11 -0.7136893
v 7.89634 40 477.0097
o bush011_0
g polygon_0
usemtl lambert_bush011
f 39/3/19 38/2/20 37/1/19
f 37/1/19 38/2/20 40/4/20
f 38/2/20 41/5/21 40/4/20
f 40/4/20 41/5/21 42/6/21
v 90.67453 40 415.5429
vn -0.3186474 2.307742E-09 -0.9478734
v 41.58902 1.06721E-06 432.044
vn -0.522835 5.105534E-10 -0.8524339
v 90.67453 1.489556E-06 415.5429
v 41.58902 40 432.044
v 3.153893 3.956283E-07 469.7668
vn -0.700462 -1.312572E-09 -0.7136897
v 3.153893 40 469.7668
o bush011_1
g polygon_0
usemtl bush_b_m1
f 45/3/22 44/2/23 43/1/22
f 43/1/22 44/2/23 46/4/23
f 44/2/23 47/5/24 46/4/23
f 46/4/23 47/5/24 48/6/24
v 83.72702 40 407.1237
vn -0.318648 6.918953E-10 -0.9478731
v 34.64151 1.342298E-06 423.6248
vn -0.5228353 7.366848E-10 -0.8524337
v 83.72702 2.157006E-06 407.1237
v 34.64151 40 423.6248
v -3.793617 7.222824E-07 461.3476
vn -0.700462 7.440499E-10 -0.7136897
v -3.793617 40 461.3476
o bush011_2
g polygon_0
usemtl bush_c_m1
f 51/3/25 50/2/26 49/1/25
f 49/1/25 50/2/26 52/4/26
f 50/2/26 53/5/27 52/4/26
f 52/4/26 53/5/27 54/6/27
v 400.8355 40 508.6069
vn -0.2526421 -3.437069E-09 -0.9675598
v 348.7284 -2.273122E-13 522.2127
vn -0.5940077 -4.91133E-09 -0.8044594
v 400.8355 -2.249428E-13 508.6069
v 348.7284 40 522.2127
v 320.3896 -2.247798E-13 568.0077
vn -0.8503516 -5.682621E-09 -0.5262149
v 320.3896 40 568.0077
o bush010_0
g polygon_0
usemtl lambert_bush011
f 57/3/28 56/2/29 55/1/28
f 55/1/28 56/2/29 58/4/29
f 56/2/29 59/5/30 58/4/29
f 58/4/29 59/5/30 60/6/30
v 392.6485 40 501.4533
vn -0.2526414 2.247498E-09 -0.9675601
v 340.5414 -8.812743E-07 515.0591
vn -0.5940068 -1.739947E-09 -0.80446
v 392.6485 3.905879E-07 501.4533
v 340.5414 40 515.0591
v 312.2025 -2.608805E-06 560.8539
vn -0.8503509 -5.478349E-09 -0.526216
v 312.2025 40 560.8539
o bush010_1
g polygon_0
usemtl bush_b_m1
f 63/3/31 62/2/32 61/1/31
f 61/1/31 62/2/32 64/4/32
f 62/2/32 65/5/33 64/4/32
f 64/4/32 65/5/33 66/6/33
v 382.9963 40 494.7338
vn -0.2526419 6.035842E-09 -0.9675599
v 330.8892 -3.67999E-07 508.3396
vn -0.5940075 9.122427E-09 -0.8044596
v 382.9963 -7.613639E-07 494.7338
v 330.8892 40 508.3396
v 302.5504 -9.082411E-07 554.1345
vn -0.8503515 1.09033E-08 -0.5262151
v 302.5504 40 554.1345
o bush010_2
g polygon_0
usemtl bush_c_m1
f 69/3/34 68/2/35 67/1/34
f 67/1/34 68/2/35 70/4/35
f 68/2/35 71/5/36 70/4/35
f 70/4/35 71/5/36 72/6/36
v -0.5 -169.4205 -1596.874
vt 0 1
vn 0 0 1
v 0.5 -169.4205 -1596.874
vt 1 1
v 0.5 -170.4205 -1596.874
v -0.5 -170.4205 -1596.874
o kasu2_0
g polygon_0
usemtl lambert_bush011
f 75/5/37 74/8/37 73/7/37
f 76/3/37 75/5/37 73/7/37
