<svg
   width="864"
   height = "1152"
   version="1.1"
   id="svg2"
   xmlns="http://www.w3.org/2000/svg"
   xmlns:svg="http://www.w3.org/2000/svg">
  <defs
     id="defs6" />

<rect
   style="fill:#FFFFFF;stroke-width:0;stroke-opacity:0"
   id="Background"
   width="864"
   height="1152"
   x="0"
   y="0"
   rx="0" />
  <path
     style="fill:none;stroke:#000000;stroke-width:1;stroke-opacity:1"
     d = "M 72,72 792,72 792,1080 72,1080 72,72 "
id = "10" />
  <path
     style="fill:none;stroke:#000000;stroke-width:1;stroke-opacity:1"
     d = "M 72,72 792,72 792,1080 72,1080 72,72 "
id = "112" />
  <path
     style="fill:none;stroke:#000000;stroke-width:1;stroke-opacity:1"
     d = "M 772,736 786.7637,740.1766 792.0073,741.835 "
id = "122" />
  <path
     style="fill:none;stroke:#000000;stroke-width:1;stroke-opacity:1"
     d = "M 752,756 767.9432,760.7713 783.2466,765.8019 792.0878,768.9918 "
id = "123" />
  <path
     style="fill:none;stroke:#000000;stroke-width:1;stroke-opacity:1"
     d = "M 732,776 749.3638,781.373 766.3059,787.0865 782.3079,793.0676 792.0427,796.9962 "
id = "124" />
  <path
     style="fill:none;stroke:#000000;stroke-width:1;stroke-opacity:1"
     d = "M 712,796 730.0809,801.6122 747.8097,807.5228 764.9077,813.9846 781.5964,820.7394 792.0751,825.2274 "
id = "125" />
  <path
     style="fill:none;stroke:#000000;stroke-width:1;stroke-opacity:1"
     d = "M 692,816 710.5731,822.531 728.8194,828.8865 746.6968,834.8362 764.0068,840.9478 780.6133,847.3806 792.0491,852.1789 "
id = "126" />
  <path
     style="fill:none;stroke:#000000;stroke-width:1;stroke-opacity:1"
     d = "M 672,836 689.074,843.6718 707.062,850.9705 725.2985,857.7975 743.5068,864.0594 760.9691,870.3657 777.3207,877.1819 792.083,883.8462 "
id = "127" />
  <path
     style="fill:none;stroke:#000000;stroke-width:1;stroke-opacity:1"
     d = "M 652,856 665.4893,865.6977 679.8296,875.1804 695.3951,884.2468 711.6816,892.9412 727.7503,901.2629 743.3367,909.1973 758.5618,917.1302 772.973,925.2343 786.0685,933.4611 792.0122,937.7028 "
id = "128" />
  <path
     style="fill:none;stroke:#000000;stroke-width:1;stroke-opacity:1"
     d = "M 632,876 641.0432,887.9746 650.8109,900.1293 661.6581,912.0778 673.3765,923.9133 685.1617,935.988 696.2155,948.4412 706.2623,961.0995 715.6171,973.8357 724.3862,987.0356 732.2654,1000.383 738.7855,1013.438 744.259,1025.824 748.871,1037.487 752.7992,1048.518 756.262,1059.169 759.5182,1069.669 762.6229,1080.018 "
id = "129" />
  <path
     style="fill:none;stroke:#000000;stroke-width:1;stroke-opacity:1"
     d = "M 612,896 617.6498,910.6481 623.9799,925.4356 630.9831,940.1559 638.1064,954.5498 645.3508,968.8615 652.7635,983.2489 660.4523,997.3849 668.6908,1010.947 677.1917,1023.85 685.6653,1035.931 693.5372,1047.42 701.0007,1058.44 707.9713,1069.113 714.2826,1079.431 714.6248,1080.042 "
id = "130" />
  <path
     style="fill:none;stroke:#000000;stroke-width:1;stroke-opacity:1"
     d = "M 592,916 594.6545,931.7155 597.9824,946.9421 602.1503,961.4714 607.6148,975.8079 614.0026,989.5523 621.2534,1002.512 629.217,1014.696 637.7144,1026.1 646.445,1036.712 655.2449,1046.567 664.0693,1055.917 672.7527,1064.66 681.1154,1073.023 687.6779,1080.031 "
id = "131" />
  <path
     style="fill:none;stroke:#000000;stroke-width:1;stroke-opacity:1"
     d = "M 571.9999,936 573.1301,951.3315 574.8594,966.2883 577.8085,981.1083 581.9291,995.347 587.026,1008.635 592.8938,1021.167 599.1494,1032.881 605.6364,1043.472 612.3305,1052.802 619.5884,1061.019 627.5612,1068.418 636.3627,1075.092 643.7558,1080.046 "
id = "132" />
  <path
     style="fill:none;stroke:#000000;stroke-width:1;stroke-opacity:1"
     d = "M 552,956 552.5991,971.9108 554.3825,987.796 556.8748,1002.941 560.0621,1017.396 563.5132,1030.976 567.081,1043.374 570.8317,1054.684 574.6101,1065.06 578.476,1074.732 580.7841,1080.049 "
id = "133" />
  <path
     style="fill:none;stroke:#000000;stroke-width:1;stroke-opacity:1"
     d = "M 532,976 532.7024,992.9523 533.7704,1009.69 535.0099,1025.717 536.556,1041.139 538.0704,1055.713 539.0493,1069.594 539.1069,1080.092 "
id = "134" />
  <path
     style="fill:none;stroke:#000000;stroke-width:1;stroke-opacity:1"
     d = "M 512,996 512.0477,1014.745 512.184,1033.364 512.2896,1051.37 512.2319,1068.547 511.502,1080.03 "
id = "135" />
  <path
     style="fill:none;stroke:#000000;stroke-width:1;stroke-opacity:1"
     d = "M 492,1016 491.8963,1036.684 491.8816,1056.797 491.5818,1075.344 491.2863,1080.037 "
id = "136" />
  <path
     style="fill:none;stroke:#000000;stroke-width:1;stroke-opacity:1"
     d = "M 472,1036 472.5797,1056.934 472.8274,1075.997 472.7948,1080.096 "
id = "137" />
  <path
     style="fill:none;stroke:#000000;stroke-width:1;stroke-opacity:1"
     d = "M 452,1056 453.4485,1075.421 453.8443,1080.003 "
id = "138" />
  <path
     style="fill:none;stroke:#000000;stroke-width:1;stroke-opacity:1"
     d = "M 432,1076 432.787,1080.024 "
id = "139" />
  <path
     style="fill:none;stroke:#000000;stroke-width:1;stroke-opacity:1"
     d = "M 412,1056 416.2598,1073.44 417.8785,1080.047 "
id = "140" />
  <path
     style="fill:none;stroke:#000000;stroke-width:1;stroke-opacity:1"
     d = "M 392,1036 396.0754,1052.506 400.4699,1068.405 403.7748,1080.044 "
id = "141" />
  <path
     style="fill:none;stroke:#000000;stroke-width:1;stroke-opacity:1"
     d = "M 372,1016 374.563,1030.849 378.134,1045.376 382.4736,1059.549 386.7862,1073.166 389.1187,1080.081 "
id = "142" />
  <path
     style="fill:none;stroke:#000000;stroke-width:1;stroke-opacity:1"
     d = "M 352,996 352.3927,1009.433 353.8083,1022.52 355.8617,1034.994 358.44,1047.018 361.6704,1058.91 365.2949,1070.385 368.6194,1080.022 "
id = "143" />
  <path
     style="fill:none;stroke:#000000;stroke-width:1;stroke-opacity:1"
     d = "M 332,976 331.2822,988.8054 331.1191,1001.2 331.5797,1013.305 332.5128,1025.026 333.5506,1036.075 334.7542,1046.379 336.1246,1056.281 337.6263,1065.765 339.2068,1074.726 340.1626,1080.039 "
id = "144" />
  <path
     style="fill:none;stroke:#000000;stroke-width:1;stroke-opacity:1"
     d = "M 312,956 311.7108,968.5057 311.5799,980.6014 311.6512,992.3414 311.6509,1003.801 311.8089,1015.055 312.0663,1025.856 312.2011,1035.988 312.3096,1045.298 312.3941,1054.212 312.4016,1062.748 312.2765,1070.845 311.8904,1078.455 311.7195,1080.047 "
id = "145" />
  <path
     style="fill:none;stroke:#000000;stroke-width:1;stroke-opacity:1"
     d = "M 292,936 293.5531,949.1783 294.4106,961.9076 295.0349,974.0021 295.5252,985.6777 295.8116,996.888 295.7523,1007.85 295.5093,1018.65 295.1048,1028.731 294.4973,1038.14 293.7388,1047.069 292.7863,1055.635 291.515,1063.926 289.8806,1071.892 287.7934,1079.687 287.6688,1080.067 "
id = "146" />
  <path
     style="fill:none;stroke:#000000;stroke-width:1;stroke-opacity:1"
     d = "M 272,916 275.4244,929.4305 277.8595,942.6353 279.4176,955.4374 280.4795,967.7007 281.2964,979.3491 281.7617,990.7722 281.9196,1001.929 281.6099,1012.772 280.8235,1023.137 279.6265,1032.906 278.2466,1042.264 276.6623,1051.208 274.7588,1060.007 272.5186,1068.895 269.6972,1077.786 268.8109,1080.016 "
id = "147" />
  <path
     style="fill:none;stroke:#000000;stroke-width:1;stroke-opacity:1"
     d = "M 252,896 255.5441,908.6251 258.7175,921.5809 261.2439,934.6324 263.1024,947.3842 264.4022,959.7857 265.2387,971.877 265.9122,983.5609 266.1564,994.7408 265.8051,1005.507 264.855,1016.167 263.3497,1026.571 261.4833,1036.589 259.2654,1046.304 256.8249,1055.959 254.0108,1065.75 250.6502,1075.672 248.8279,1080.004 "
id = "148" />
  <path
     style="fill:none;stroke:#000000;stroke-width:1;stroke-opacity:1"
     d = "M 232,876 233.0415,886.2427 234.4775,896.9888 236.1781,908.39 237.9053,920.3575 239.4772,932.6136 240.7877,945.009 241.8747,957.2029 242.6489,969.2371 243.0767,981.1245 243.2919,992.6348 243.0907,1003.617 242.4317,1014.367 241.0635,1024.911 239.4659,1034.955 237.63,1044.705 235.4579,1054.616 232.8405,1064.772 229.6333,1075.088 227.7635,1080.05 "
id = "149" />
  <path
     style="fill:none;stroke:#000000;stroke-width:1;stroke-opacity:1"
     d = "M 212,856 209.8667,864.4489 207.7794,873.1345 205.7919,882.0573 203.9458,891.1812 202.1955,900.4493 200.4902,910.0651 198.7871,920.0072 197.4589,930.3377 196.5093,941.0208 195.9398,951.5818 195.5764,961.9789 195.3317,972.3001 195.3849,982.6447 195.7762,993.1108 196.2502,1003.585 196.9843,1013.998 197.7621,1024.406 198.1529,1034.858 198.119,1045.262 197.5391,1055.643 196.2274,1066.166 194.0064,1077.186 193.2259,1080.083 "
id = "150" />
  <path
     style="fill:none;stroke:#000000;stroke-width:1;stroke-opacity:1"
     d = "M 192,836 186.2433,842.4565 180.2119,849.0175 174.0639,855.6675 167.78,862.4433 161.2538,869.3881 154.4569,876.5655 147.2794,883.9151 139.6996,891.614 131.8847,899.7971 123.9644,908.3409 115.8629,917.2631 107.7369,926.4143 99.52779,935.2668 90.95107,943.4963 81.84546,951.2161 72.24279,958.5378 71.99796,958.7112 "
id = "151" />
  <path
     style="fill:none;stroke:#000000;stroke-width:1;stroke-opacity:1"
     d = "M 172,816 163.2692,820.8914 154.1216,826.2762 144.6313,832.5957 135.0198,840.058 125.3268,848.5455 115.5055,858.0501 105.8585,868.5704 96.44067,879.6614 86.9465,890.7267 77.21389,901.4722 71.95446,907.2327 "
id = "152" />
  <path
     style="fill:none;stroke:#000000;stroke-width:1;stroke-opacity:1"
     d = "M 152,795.9999 142.4915,802.2808 132.6729,809.233 122.6835,817.2505 112.7211,826.5004 102.8186,836.724 93.00189,848.1977 83.14319,860.4836 73.11073,873.0468 71.95126,874.4233 "
id = "153" />
  <path
     style="fill:none;stroke:#000000;stroke-width:1;stroke-opacity:1"
     d = "M 132,775.9999 122.4194,784.3705 112.7521,793.5667 103.1262,803.6573 93.65492,814.5557 84.49121,826.1702 75.09092,838.529 71.96073,842.6804 "
id = "154" />
  <path
     style="fill:none;stroke:#000000;stroke-width:1;stroke-opacity:1"
     d = "M 112,755.9999 102.8754,765.3956 93.69291,775.5823 84.46402,786.5306 75.47749,798.0905 71.98331,803.0906 "
id = "155" />
  <path
     style="fill:none;stroke:#000000;stroke-width:1;stroke-opacity:1"
     d = "M 91.99998,735.9999 83.66933,744.0233 75.49552,752.5548 71.99995,756.4047 "
id = "156" />
  <path
     style="fill:none;stroke:#000000;stroke-width:1;stroke-opacity:1"
     d = "M 92,416 78.56672,415.3963 71.98847,414.8625 "
id = "172" />
  <path
     style="fill:none;stroke:#000000;stroke-width:1;stroke-opacity:1"
     d = "M 112,395.9999 98.13805,393.8879 84.53282,391.4025 71.94993,388.5602 "
id = "173" />
  <path
     style="fill:none;stroke:#000000;stroke-width:1;stroke-opacity:1"
     d = "M 132,376 116.6115,371.9836 101.6455,367.8077 87.11001,363.0929 72.96579,357.6279 71.96349,357.1747 "
id = "174" />
  <path
     style="fill:none;stroke:#000000;stroke-width:1;stroke-opacity:1"
     d = "M 152,356 136.642,350.0148 121.179,343.9278 105.993,337.5712 91.25559,330.9634 76.98251,324.0617 71.97057,321.3464 "
id = "175" />
  <path
     style="fill:none;stroke:#000000;stroke-width:1;stroke-opacity:1"
     d = "M 172,336 158.2834,328.9474 144.4731,321.5346 130.5218,313.8292 116.576,306.3759 102.6367,299.3244 88.74234,292.2155 74.81916,284.8937 71.92431,283.3096 "
id = "176" />
  <path
     style="fill:none;stroke:#000000;stroke-width:1;stroke-opacity:1"
     d = "M 192,316 180.7944,307.3358 169.2438,298.4529 157.5432,289.5316 145.7254,281.077 133.459,273.223 120.6293,266.0938 107.5832,259.6445 94.34599,253.4658 81.26522,247.2826 71.95002,242.8867 "
id = "177" />
  <path
     style="fill:none;stroke:#000000;stroke-width:1;stroke-opacity:1"
     d = "M 212,296 203.9013,283.8865 195.9,271.38 188.0297,258.8296 180.3452,247.0673 172.7606,235.9924 165.2316,225.6753 157.7188,216.6124 149.7072,208.9079 141.3527,202.3742 132.773,197.056 124.0727,192.7584 115.3729,189.2548 106.6065,186.1187 97.5743,182.9062 88.28896,179.4477 78.9767,175.6678 71.97884,172.4556 "
id = "178" />
  <path
     style="fill:none;stroke:#000000;stroke-width:1;stroke-opacity:1"
     d = "M 232,276 227.1396,259.1893 222.5746,241.7281 218.2204,224.4406 214.0429,207.7583 210.393,192.3424 207.4714,178.517 205.1313,166.5173 203.14,155.9626 201.2597,146.4186 199.1425,137.4772 196.7543,129.004 194.0826,120.9349 191.3318,113.2903 188.458,106.0736 185.376,99.14946 181.9784,92.3965 178.0975,85.6656 173.4946,78.65573 168.5946,71.95605 "
id = "179" />
  <path
     style="fill:none;stroke:#000000;stroke-width:1;stroke-opacity:1"
     d = "M 252,256 249.2646,235.6017 246.142,215.1332 242.6513,195.2496 239.9795,176.9551 238.0868,160.9216 236.8604,147.1019 235.7746,134.87 234.6892,123.4785 233.7279,112.3903 232.6369,101.2558 231.2888,90.00563 229.5614,78.93196 228.0804,71.98808 "
id = "180" />
  <path
     style="fill:none;stroke:#000000;stroke-width:1;stroke-opacity:1"
     d = "M 272,236 270.1096,213.5183 267.3121,192.3142 264.1208,172.7856 261.4969,154.9565 259.7594,139.5252 258.5471,125.7423 257.6817,112.8114 257.021,99.76059 256.2956,86.85976 255.28,74.29855 254.9379,71.92312 "
id = "181" />
  <path
     style="fill:none;stroke:#000000;stroke-width:1;stroke-opacity:1"
     d = "M 292,216 289.8195,194.0768 286.8486,173.5883 283.2413,154.584 280.1206,138.0951 277.7122,123.5765 276.0398,109.7549 274.8131,95.95483 273.5573,82.15226 272.3283,71.92628 "
id = "182" />
  <path
     style="fill:none;stroke:#000000;stroke-width:1;stroke-opacity:1"
     d = "M 311.9445,196.0555 308.6165,175.4258 304.2426,156.3948 299.5844,138.7709 295.5955,122.7061 292.9407,107.6926 291.023,92.94509 289.2991,77.93397 288.6051,71.97434 "
id = "183" />
  <path
     style="fill:none;stroke:#000000;stroke-width:1;stroke-opacity:1"
     d = "M 332,176 327.029,156.5792 321.3701,138.3358 316.3219,121.3893 312.2627,105.3835 309.0162,89.53911 306.5877,73.50568 306.3953,71.9173 "
id = "184" />
  <path
     style="fill:none;stroke:#000000;stroke-width:1;stroke-opacity:1"
     d = "M 352,156 346.2928,137.1324 340.9257,118.9601 336.4328,101.8168 332.7741,84.68572 330.6994,71.95422 "
id = "185" />
  <path
     style="fill:none;stroke:#000000;stroke-width:1;stroke-opacity:1"
     d = "M 372,136 367.1458,116.9247 362.5975,98.05868 358.7106,78.96928 357.6706,71.94577 "
id = "186" />
  <path
     style="fill:none;stroke:#000000;stroke-width:1;stroke-opacity:1"
     d = "M 392,116 387.956,96.43306 384.6347,75.89243 384.1867,71.91752 "
id = "187" />
  <path
     style="fill:none;stroke:#000000;stroke-width:1;stroke-opacity:1"
     d = "M 412,96.00001 409.1093,75.21439 408.9219,71.91972 "
id = "188" />
  <path
     style="fill:none;stroke:#000000;stroke-width:1;stroke-opacity:1"
     d = "M 432,76 431.6534,71.91476 "
id = "189" />
  <path
     style="fill:none;stroke:#000000;stroke-width:1;stroke-opacity:1"
     d = "M 452,96.00001 448.7935,76.8496 448.1999,71.98557 "
id = "190" />
  <path
     style="fill:none;stroke:#000000;stroke-width:1;stroke-opacity:1"
     d = "M 472,116 467.6396,100.0897 463.7085,82.37509 461.9585,71.92082 "
id = "191" />
  <path
     style="fill:none;stroke:#000000;stroke-width:1;stroke-opacity:1"
     d = "M 492,136 488.0024,123.5312 483.3952,109.8577 478.6721,94.41129 474.2788,77.1071 473.276,71.90302 "
id = "192" />
  <path
     style="fill:none;stroke:#000000;stroke-width:1;stroke-opacity:1"
     d = "M 512,156 510.5731,145.6082 507.5029,134.8721 503.443,123.3855 498.8456,110.8602 493.8417,97.03522 488.5594,81.53255 485.9037,71.99525 "
id = "193" />
  <path
     style="fill:none;stroke:#000000;stroke-width:1;stroke-opacity:1"
     d = "M 532,176 534.7064,166.4732 536.2684,156.757 536.5742,146.6347 535.5001,136.1183 533.0531,125.1625 529.1846,113.8777 524.334,102.1295 518.5263,89.59633 512.3375,76.06398 510.7621,71.95543 "
id = "194" />
  <path
     style="fill:none;stroke:#000000;stroke-width:1;stroke-opacity:1"
     d = "M 552,196 556.8954,187.049 561.2505,177.7284 564.9227,168.0181 567.7769,157.916 569.6422,147.5382 570.4888,136.8536 570.5569,125.7256 569.8906,114.2628 568.3349,102.6793 565.6023,91.08614 561.6603,79.4679 558.7336,71.91617 "
id = "195" />
  <path
     style="fill:none;stroke:#000000;stroke-width:1;stroke-opacity:1"
     d = "M 572,216 578.9341,206.5548 585.5809,196.5471 591.9434,185.8969 597.885,174.496 603.5344,162.0173 609.0088,148.8785 614.474,135.8355 620.4601,123.3162 627.2706,111.3966 634.9573,100.5997 643.6702,90.76025 653.23,81.97768 663.7951,74.11379 667.286,71.96169 "
id = "196" />
  <path
     style="fill:none;stroke:#000000;stroke-width:1;stroke-opacity:1"
     d = "M 592,236 600.4048,225.4756 608.9984,214.1752 617.8074,202.0955 626.4129,189.0813 635.1271,175.1993 644.0821,160.8626 653.1939,146.8938 662.6682,133.7099 673.0831,121.9064 684.2451,111.4612 696.0079,102.1308 707.8469,93.9883 719.2838,86.555 730.0009,78.9638 738.4671,71.93774 "
id = "197" />
  <path
     style="fill:none;stroke:#000000;stroke-width:1;stroke-opacity:1"
     d = "M 612,256 621.8349,244.4227 631.6354,232.0314 641.2753,218.8436 650.9857,204.8942 661.0663,190.3561 671.4872,176.1045 682.0383,162.3835 692.4927,149.8028 702.9514,138.3765 713.5702,127.6585 724.3015,117.6962 734.4556,108.3411 743.8391,98.94203 752.5059,89.1775 760.491,79.00776 765.3779,71.93142 "
id = "198" />
  <path
     style="fill:none;stroke:#000000;stroke-width:1;stroke-opacity:1"
     d = "M 632,276 643.0341,264.7221 653.98,252.2744 665.1653,238.8453 676.3467,224.7827 687.7605,210.4745 698.8978,196.6972 709.7955,183.8007 719.9636,171.9972 729.5117,161.1288 738.6482,150.7785 747.3974,140.3903 755.4444,130.1302 762.7675,119.8134 769.7154,109.1475 776.19,97.85419 782.2071,85.88954 788.0098,73.37306 788.6131,71.99989 "
id = "199" />
  <path
     style="fill:none;stroke:#000000;stroke-width:1;stroke-opacity:1"
     d = "M 652,296 663.4014,285.6897 675.1382,274.672 687.4462,263.0605 699.7052,250.8553 711.7122,238.6171 723.3876,226.9076 734.3485,216.1781 744.5369,206.3528 754.1123,197.3247 762.7461,188.782 770.543,180.4705 777.6626,171.9772 784.2921,163.0582 790.423,153.6519 792.0199,150.9954 "
id = "200" />
  <path
     style="fill:none;stroke:#000000;stroke-width:1;stroke-opacity:1"
     d = "M 672,316 683.9756,306.959 696.3051,297.2768 709.0227,287.0424 722.0004,276.6744 734.9716,266.6821 747.5411,257.3298 759.4462,248.8072 770.2479,241.0578 779.5152,234.3326 787.771,228.4535 792.0281,225.2962 "
id = "201" />
  <path
     style="fill:none;stroke:#000000;stroke-width:1;stroke-opacity:1"
     d = "M 692,336 704.3922,327.9365 716.7797,319.4732 729.4753,310.7142 742.4262,301.8701 755.1219,293.6091 767.6157,285.8304 779.2699,278.5966 789.5742,271.6786 792.0604,269.8263 "
id = "202" />
  <path
     style="fill:none;stroke:#000000;stroke-width:1;stroke-opacity:1"
     d = "M 712,356 724.3117,348.4545 736.6865,340.2878 749.3068,331.9702 761.9161,323.7901 774.205,316.1539 786.0245,308.5405 792.0406,304.5832 "
id = "203" />
  <path
     style="fill:none;stroke:#000000;stroke-width:1;stroke-opacity:1"
     d = "M 732,376 744.582,368.5691 757.2261,360.635 770.1707,352.5421 783.3109,344.6286 792.0179,339.1215 "
id = "204" />
  <path
     style="fill:none;stroke:#000000;stroke-width:1;stroke-opacity:1"
     d = "M 752,396 765.8466,389.1141 779.7127,381.9713 792.0687,375.3917 "
id = "205" />
  <path
     style="fill:none;stroke:#000000;stroke-width:1;stroke-opacity:1"
     d = "M 772,416 787.006,409.7202 792.0212,407.4593 "
id = "206" />
  <path
     style="fill:none;stroke:#000000;stroke-width:1;stroke-opacity:1"
     d = "M 72,72 792,72 792,1080 72,1080 72,72 "
id = "214" />
  <path
     style="fill:none;stroke:#000000;stroke-width:1;stroke-opacity:1"
     d = "M 792,576 792,576.5555 792,577.1111 792,577.6667 792,578.2222 792,578.7778 792,579.3333 792,579.8889 792,580.4445 792,581 792,581.5555 792,582.1111 792,582.6667 792,583.2222 792,583.7778 792,584.3333 792,584.8889 792,585.4445 792,586 792,586.5555 792,587.1111 792,587.6667 792,588.2222 792,588.7778 792,589.3333 792,589.8889 792,590.4445 792,591 792,591.5555 792,592.1111 792,592.6667 792,593.2222 792,593.7778 792,594.3333 792,594.8889 792,595.4445 792,596 792,596.5555 792,597.1111 792,597.6667 792,598.2222 792,598.7778 792,599.3333 792,599.8889 792,600.4445 792,601 792,601.5555 792,602.1111 792,602.6667 792,603.2222 792,603.7778 792,604.3333 792,604.8889 792,605.4445 792,606 792,606.5555 792,607.1111 792,607.6667 792,608.2222 792,608.7778 792,609.3333 792,609.8889 792,610.4445 792,611 792,611.5555 792,612.1111 792,612.6667 792,613.2222 792,613.7778 792,614.3333 792,614.8889 792,615.4445 792,616 792,616.5555 792,617.1111 792,617.6667 792,618.2222 792,618.7778 792,619.3333 792,619.8889 792,620.4445 792,621 792,621.5555 792,622.1111 792,622.6667 792,623.2222 792,623.7778 792,624.3333 792,624.8889 792,625.4445 792,626 792,626.5555 792,627.1111 792,627.6667 792,628.2222 792,628.7778 792,629.3333 792,629.8889 792,630.4445 792,631 792,631.5555 792,632.1111 792,632.6667 792,633.2222 792,633.7778 792,634.3333 792,634.8889 792,635.4445 792,636 792,636.5555 792,637.1111 792,637.6667 792,638.2222 792,638.7778 792,639.3333 792,639.8889 792,640.4445 792,641 792,641.5555 792,642.1111 792,642.6667 792,643.2222 792,643.7778 792,644.3333 792,644.8889 792,645.4445 792,646 792,646.5555 792,647.1111 792,647.6667 792,648.2222 792,648.7778 792,649.3333 792,649.8889 792,650.4445 792,651 792,651.5555 792,652.1111 792,652.6667 792,653.2222 792,653.7778 792,654.3333 792,654.8889 792,655.4445 792,656 792,656.5555 792,657.1111 792,657.6667 792,658.2222 792,658.7778 792,659.3333 792,659.8889 792,660.4445 792,661 792,661.5555 792,662.1111 792,662.6667 792,663.2222 792,663.7778 792,664.3333 792,664.8889 792,665.4445 792,666 792,666.5555 792,667.1111 792,667.6667 792,668.2222 792,668.7778 792,669.3333 792,669.8889 792,670.4445 792,671 792,671.5555 792,672.1111 792,672.6667 792,673.2222 792,673.7778 792,674.3333 792,674.8889 792,675.4445 792,676 792,676.5555 792,677.1111 792,677.6667 792,678.2222 792,678.7778 792,679.3333 792,679.8889 792,680.4445 792,681 792,681.5555 792,682.1111 792,682.6667 792,683.2222 792,683.7778 792,684.3333 792,684.8889 792,685.4445 792,686 792,686.5555 792,687.1111 792,687.6667 792,688.2222 792,688.7778 792,689.3333 792,689.8889 792,690.4445 792,691 792,691.5555 792,692.1111 792,692.6667 792,693.2222 792,693.7778 792,694.3333 792,694.8889 792,695.4445 792,696 792,696.5555 792,697.1111 792,697.6667 792,698.2222 792,698.7778 792,699.3333 792,699.8889 792,700.4445 792,701 792,701.5555 792,702.1111 792,702.6667 792,703.2222 792,703.7778 792,704.3333 792,704.8889 792,705.4445 792,706 792,706.5555 792,707.1111 792,707.6667 792,708.2222 792,708.7778 792,709.3333 792,709.8889 792,710.4445 792,711 792,711.5555 792,712.1111 792,712.6667 792,713.2222 792,713.7778 792,714.3333 792,714.8889 792,715.4445 792,716 791.4445,716.5555 790.8889,717.1111 790.3333,717.6667 789.7778,718.2222 789.2222,718.7778 788.6667,719.3333 788.1111,719.8889 787.5555,720.4445 787,721 786.4445,721.5555 785.8889,722.1111 785.3333,722.6667 784.7778,723.2222 784.2222,723.7778 783.6667,724.3333 783.1111,724.8889 782.5555,725.4445 782,726 781.4445,726.5555 780.8889,727.1111 780.3333,727.6667 779.7778,728.2222 779.2222,728.7778 778.6666,729.3333 778.1111,729.8889 777.5555,730.4445 777,731 776.4445,731.5555 775.8889,732.1111 775.3333,732.6667 774.7778,733.2222 774.2222,733.7778 773.6667,734.3333 773.1111,734.8889 772.5555,735.4445 772,736 771.4445,736.5555 770.8889,737.1111 770.3333,737.6667 769.7778,738.2222 769.2222,738.7778 768.6667,739.3333 768.1111,739.8889 767.5555,740.4445 767,741 766.4445,741.5555 765.8889,742.1111 765.3333,742.6667 764.7778,743.2222 764.2222,743.7778 763.6666,744.3333 763.1111,744.8889 762.5555,745.4445 762,746 761.4445,746.5555 760.8889,747.1111 760.3333,747.6667 759.7778,748.2222 759.2222,748.7778 758.6667,749.3333 758.1111,749.8889 757.5555,750.4445 757,751 756.4445,751.5555 755.8889,752.1111 755.3333,752.6667 754.7778,753.2222 754.2222,753.7778 753.6667,754.3333 753.1111,754.8889 752.5555,755.4445 752,756 751.4445,756.5555 750.8889,757.1111 750.3333,757.6667 749.7778,758.2222 749.2222,758.7778 748.6666,759.3333 748.1111,759.8889 747.5555,760.4445 747,761 746.4444,761.5555 745.8889,762.1111 745.3333,762.6667 744.7778,763.2222 744.2222,763.7778 743.6666,764.3333 743.1111,764.8889 742.5555,765.4445 742,766 741.4445,766.5555 740.8889,767.1111 740.3333,767.6667 739.7778,768.2222 739.2222,768.7778 738.6667,769.3333 738.1111,769.8889 737.5555,770.4445 737,771 736.4445,771.5555 735.8889,772.1111 735.3333,772.6667 734.7778,773.2222 734.2222,773.7778 733.6666,774.3333 733.1111,774.8889 732.5555,775.4445 732,776 731.4444,776.5555 730.8889,777.1111 730.3333,777.6667 729.7778,778.2222 729.2222,778.7778 728.6666,779.3333 728.1111,779.8889 727.5555,780.4445 727,781 726.4445,781.5555 725.8889,782.1111 725.3333,782.6667 724.7778,783.2222 724.2222,783.7778 723.6667,784.3333 723.1111,784.8889 722.5555,785.4445 722,786 721.4445,786.5555 720.8889,787.1111 720.3333,787.6667 719.7778,788.2222 719.2222,788.7778 718.6666,789.3333 718.1111,789.8889 717.5555,790.4445 717,791 716.4445,791.5555 715.8889,792.1111 715.3333,792.6667 714.7778,793.2222 714.2222,793.7778 713.6666,794.3333 713.1111,794.8889 712.5555,795.4445 712,796 711.4445,796.5555 710.8889,797.1111 710.3333,797.6667 709.7778,798.2222 709.2222,798.7778 708.6667,799.3333 708.1111,799.8889 707.5555,800.4445 707,801 706.4445,801.5555 705.8889,802.1111 705.3333,802.6667 704.7778,803.2222 704.2222,803.7778 703.6666,804.3333 703.1111,804.8889 702.5555,805.4445 702,806 701.4445,806.5555 700.8889,807.1111 700.3333,807.6667 699.7778,808.2222 699.2222,808.7778 698.6666,809.3333 698.1111,809.8889 697.5555,810.4445 697,811 696.4444,811.5555 695.8889,812.1111 695.3333,812.6667 694.7778,813.2222 694.2222,813.7778 693.6666,814.3333 693.1111,814.8889 692.5555,815.4445 692,816 691.4445,816.5555 690.8889,817.1111 690.3333,817.6667 689.7778,818.2222 689.2222,818.7778 688.6666,819.3333 688.1111,819.8889 687.5555,820.4445 687,821 686.4445,821.5555 685.8889,822.1111 685.3333,822.6667 684.7778,823.2222 684.2222,823.7778 683.6666,824.3333 683.1111,824.8889 682.5555,825.4445 682,826 681.4445,826.5555 680.8889,827.1111 680.3333,827.6667 679.7778,828.2222 679.2222,828.7778 678.6666,829.3333 678.1111,829.8889 677.5555,830.4445 677,831 676.4444,831.5555 675.8889,832.1111 675.3333,832.6667 674.7778,833.2222 674.2222,833.7778 673.6667,834.3333 673.1111,834.8889 672.5555,835.4445 672,836 671.4444,836.5555 670.8889,837.1111 670.3333,837.6666 669.7778,838.2222 669.2222,838.7778 668.6667,839.3333 668.1111,839.8889 667.5555,840.4445 667,841 666.4444,841.5555 665.8889,842.1111 665.3333,842.6667 664.7778,843.2222 664.2222,843.7778 663.6666,844.3334 663.1111,844.8889 662.5555,845.4445 662,846 661.4445,846.5555 660.8889,847.1111 660.3333,847.6667 659.7778,848.2222 659.2222,848.7778 658.6666,849.3333 658.1111,849.8889 657.5555,850.4445 657,851 656.4445,851.5555 655.8889,852.1111 655.3333,852.6667 654.7778,853.2222 654.2222,853.7778 653.6666,854.3333 653.1111,854.8889 652.5555,855.4445 652,856 651.4445,856.5555 650.8889,857.1111 650.3333,857.6667 649.7778,858.2222 649.2222,858.7778 648.6666,859.3333 648.1111,859.8889 647.5555,860.4445 647,861 646.4445,861.5555 645.8889,862.1111 645.3333,862.6667 644.7778,863.2222 644.2222,863.7778 643.6666,864.3333 643.1111,864.8889 642.5555,865.4445 642,866 641.4444,866.5555 640.8889,867.1111 640.3333,867.6667 639.7778,868.2222 639.2222,868.7778 638.6667,869.3333 638.1111,869.8889 637.5555,870.4445 637,871 636.4444,871.5555 635.8889,872.1111 635.3333,872.6666 634.7778,873.2222 634.2222,873.7778 633.6666,874.3334 633.1111,874.8889 632.5555,875.4445 632,876 631.4444,876.5555 630.8889,877.1111 630.3333,877.6667 629.7778,878.2222 629.2222,878.7778 628.6666,879.3333 628.1111,879.8889 627.5555,880.4445 627,881 626.4445,881.5555 625.8889,882.1111 625.3333,882.6667 624.7778,883.2222 624.2222,883.7778 623.6666,884.3333 623.1111,884.8889 622.5555,885.4445 622,886 621.4445,886.5555 620.8889,887.1111 620.3333,887.6667 619.7778,888.2222 619.2222,888.7778 618.6666,889.3333 618.1111,889.8889 617.5555,890.4445 617,891 616.4445,891.5555 615.8889,892.1111 615.3333,892.6667 614.7778,893.2222 614.2222,893.7778 613.6666,894.3333 613.1111,894.8889 612.5555,895.4445 612,896 611.4444,896.5555 610.8889,897.1111 610.3333,897.6667 609.7778,898.2222 609.2222,898.7778 608.6667,899.3333 608.1111,899.8889 607.5555,900.4445 607,901 606.4444,901.5555 605.8889,902.1111 605.3333,902.6666 604.7778,903.2222 604.2222,903.7778 603.6666,904.3334 603.1111,904.8889 602.5555,905.4445 601.9999,906 601.4444,906.5555 600.8889,907.1111 600.3333,907.6667 599.7778,908.2222 599.2222,908.7778 598.6666,909.3333 598.1111,909.8889 597.5555,910.4445 597,911 596.4444,911.5555 595.8889,912.1111 595.3333,912.6667 594.7778,913.2222 594.2222,913.7778 593.6666,914.3333 593.1111,914.8889 592.5555,915.4445 592,916 591.4445,916.5555 590.8889,917.1111 590.3333,917.6667 589.7778,918.2222 589.2222,918.7778 588.6666,919.3333 588.1111,919.8889 587.5555,920.4445 587,921 586.4445,921.5555 585.8889,922.1111 585.3333,922.6667 584.7778,923.2222 584.2222,923.7778 583.6666,924.3333 583.1111,924.8889 582.5555,925.4445 582,926 581.4444,926.5555 580.8889,927.1111 580.3333,927.6667 579.7778,928.2222 579.2222,928.7778 578.6666,929.3333 578.1111,929.8889 577.5555,930.4445 577,931 576.4444,931.5555 575.8889,932.1111 575.3333,932.6666 574.7778,933.2222 574.2222,933.7778 573.6667,934.3333 573.1111,934.8889 572.5555,935.4445 571.9999,936 571.4444,936.5555 570.8889,937.1111 570.3333,937.6667 569.7778,938.2222 569.2222,938.7778 568.6666,939.3334 568.1111,939.8889 567.5555,940.4445 566.9999,941 566.4444,941.5555 565.8889,942.1111 565.3333,942.6667 564.7778,943.2222 564.2222,943.7778 563.6666,944.3333 563.1111,944.8889 562.5555,945.4445 562,946 561.4445,946.5555 560.8889,947.1111 560.3333,947.6667 559.7778,948.2222 559.2222,948.7778 558.6666,949.3333 558.1111,949.8889 557.5555,950.4445 557,951 556.4445,951.5555 555.8889,952.1111 555.3333,952.6667 554.7778,953.2222 554.2222,953.7778 553.6666,954.3333 553.1111,954.8889 552.5555,955.4445 552,956 551.4444,956.5555 550.8889,957.1111 550.3333,957.6667 549.7778,958.2222 549.2222,958.7778 548.6666,959.3333 548.1111,959.8889 547.5555,960.4445 547,961 546.4444,961.5555 545.8889,962.1111 545.3333,962.6666 544.7778,963.2222 544.2222,963.7778 543.6666,964.3333 543.1111,964.8889 542.5555,965.4445 542,966 541.4444,966.5555 540.8889,967.1111 540.3333,967.6667 539.7778,968.2222 539.2222,968.7778 538.6666,969.3334 538.1111,969.8889 537.5555,970.4445 536.9999,971 536.4444,971.5555 535.8889,972.1111 535.3333,972.6667 534.7778,973.2222 534.2222,973.7778 533.6666,974.3333 533.1111,974.8889 532.5555,975.4445 532,976 531.4444,976.5555 530.8889,977.1111 530.3333,977.6667 529.7778,978.2222 529.2222,978.7778 528.6666,979.3333 528.1111,979.8889 527.5555,980.4445 527,981 526.4445,981.5555 525.8889,982.1111 525.3333,982.6667 524.7778,983.2222 524.2222,983.7778 523.6666,984.3333 523.1111,984.8889 522.5555,985.4445 522,986 521.4445,986.5555 520.8889,987.1111 520.3333,987.6667 519.7777,988.2222 519.2222,988.7778 518.6666,989.3333 518.1111,989.8889 517.5555,990.4445 517,991 516.4444,991.5555 515.8889,992.1111 515.3333,992.6667 514.7778,993.2222 514.2222,993.7778 513.6666,994.3333 513.1111,994.8889 512.5555,995.4445 512,996 511.4444,996.5555 510.8889,997.1111 510.3333,997.6666 509.7777,998.2222 509.2222,998.7778 508.6666,999.3334 508.1111,999.8889 507.5555,1000.444 507,1001 506.4444,1001.556 505.8889,1002.111 505.3333,1002.667 504.7777,1003.222 504.2222,1003.778 503.6666,1004.333 503.1111,1004.889 502.5555,1005.444 502,1006 501.4444,1006.556 500.8889,1007.111 500.3333,1007.667 499.7778,1008.222 499.2222,1008.778 498.6666,1009.333 498.1111,1009.889 497.5555,1010.444 497,1011 496.4444,1011.556 495.8889,1012.111 495.3333,1012.667 494.7778,1013.222 494.2222,1013.778 493.6666,1014.333 493.1111,1014.889 492.5555,1015.444 492,1016 491.4444,1016.556 490.8889,1017.111 490.3333,1017.667 489.7778,1018.222 489.2222,1018.778 488.6667,1019.333 488.1111,1019.889 487.5555,1020.444 487,1021 486.4444,1021.556 485.8889,1022.111 485.3333,1022.667 484.7777,1023.222 484.2222,1023.778 483.6667,1024.333 483.1111,1024.889 482.5555,1025.444 482,1026 481.4444,1026.556 480.8889,1027.111 480.3333,1027.667 479.7777,1028.222 479.2222,1028.778 478.6666,1029.333 478.1111,1029.889 477.5555,1030.444 477,1031 476.4444,1031.556 475.8889,1032.111 475.3333,1032.667 474.7777,1033.222 474.2222,1033.778 473.6666,1034.333 473.1111,1034.889 472.5555,1035.444 472,1036 471.4444,1036.556 470.8889,1037.111 470.3333,1037.667 469.7777,1038.222 469.2222,1038.778 468.6666,1039.333 468.1111,1039.889 467.5555,1040.444 467,1041 466.4444,1041.556 465.8889,1042.111 465.3333,1042.667 464.7778,1043.222 464.2222,1043.778 463.6666,1044.333 463.1111,1044.889 462.5555,1045.444 462,1046 461.4444,1046.556 460.8889,1047.111 460.3333,1047.667 459.7778,1048.222 459.2222,1048.778 458.6667,1049.333 458.1111,1049.889 457.5555,1050.444 457,1051 456.4444,1051.556 455.8889,1052.111 455.3333,1052.667 454.7777,1053.222 454.2222,1053.778 453.6667,1054.333 453.1111,1054.889 452.5555,1055.444 452,1056 451.4444,1056.556 450.8889,1057.111 450.3333,1057.667 449.7777,1058.222 449.2222,1058.778 448.6667,1059.333 448.1111,1059.889 447.5555,1060.444 447,1061 446.4444,1061.556 445.8889,1062.111 445.3333,1062.667 444.7777,1063.222 444.2222,1063.778 443.6666,1064.333 443.1111,1064.889 442.5555,1065.444 442,1066 441.4444,1066.556 440.8889,1067.111 440.3333,1067.667 439.7777,1068.222 439.2222,1068.778 438.6666,1069.333 438.1111,1069.889 437.5555,1070.444 437,1071 436.4444,1071.556 435.8889,1072.111 435.3333,1072.667 434.7777,1073.222 434.2222,1073.778 433.6666,1074.333 433.1111,1074.889 432.5555,1075.444 432,1076 431.4444,1075.444 430.8889,1074.889 430.3333,1074.333 429.7777,1073.778 429.2222,1073.222 428.6666,1072.667 428.1111,1072.111 427.5555,1071.556 427,1071 426.4444,1070.444 425.8889,1069.889 425.3333,1069.333 424.7777,1068.778 424.2222,1068.222 423.6666,1067.667 423.1111,1067.111 422.5555,1066.556 422,1066 421.4444,1065.444 420.8889,1064.889 420.3333,1064.333 419.7777,1063.778 419.2222,1063.222 418.6666,1062.667 418.1111,1062.111 417.5555,1061.556 417,1061 416.4444,1060.444 415.8889,1059.889 415.3333,1059.333 414.7777,1058.778 414.2222,1058.222 413.6666,1057.667 413.1111,1057.111 412.5555,1056.556 412,1056 411.4444,1055.444 410.8889,1054.889 410.3333,1054.333 409.7777,1053.778 409.2222,1053.222 408.6666,1052.667 408.1111,1052.111 407.5555,1051.556 407,1051 406.4444,1050.444 405.8889,1049.889 405.3333,1049.333 404.7777,1048.778 404.2222,1048.222 403.6666,1047.667 403.1111,1047.111 402.5555,1046.556 402,1046 401.4444,1045.444 400.8889,1044.889 400.3333,1044.333 399.7777,1043.778 399.2222,1043.222 398.6666,1042.667 398.1111,1042.111 397.5555,1041.556 397,1041 396.4444,1040.444 395.8889,1039.889 395.3333,1039.333 394.7777,1038.778 394.2222,1038.222 393.6666,1037.667 393.1111,1037.111 392.5555,1036.556 392,1036 391.4444,1035.444 390.8889,1034.889 390.3333,1034.333 389.7777,1033.778 389.2222,1033.222 388.6666,1032.667 388.1111,1032.111 387.5555,1031.556 387,1031 386.4444,1030.444 385.8889,1029.889 385.3333,1029.333 384.7777,1028.778 384.2222,1028.222 383.6666,1027.667 383.1111,1027.111 382.5555,1026.556 382,1026 381.4444,1025.444 380.8889,1024.889 380.3333,1024.333 379.7777,1023.778 379.2222,1023.222 378.6666,1022.667 378.1111,1022.111 377.5555,1021.556 377,1021 376.4444,1020.444 375.8889,1019.889 375.3333,1019.333 374.7777,1018.778 374.2222,1018.222 373.6666,1017.667 373.1111,1017.111 372.5555,1016.556 372,1016 371.4444,1015.444 370.8889,1014.889 370.3333,1014.333 369.7777,1013.778 369.2222,1013.222 368.6666,1012.667 368.1111,1012.111 367.5555,1011.556 367,1011 366.4444,1010.444 365.8889,1009.889 365.3333,1009.333 364.7777,1008.778 364.2222,1008.222 363.6666,1007.667 363.1111,1007.111 362.5555,1006.556 362,1006 361.4444,1005.444 360.8889,1004.889 360.3333,1004.333 359.7777,1003.778 359.2222,1003.222 358.6667,1002.667 358.1111,1002.111 357.5555,1001.556 357,1001 356.4444,1000.444 355.8889,999.8889 355.3333,999.3333 354.7777,998.7778 354.2222,998.2222 353.6666,997.6667 353.1111,997.1111 352.5555,996.5555 352,996 351.4444,995.4445 350.8889,994.8889 350.3333,994.3333 349.7777,993.7778 349.2222,993.2222 348.6666,992.6666 348.1111,992.1111 347.5555,991.5555 347,991 346.4444,990.4445 345.8889,989.8889 345.3333,989.3333 344.7778,988.7778 344.2222,988.2222 343.6667,987.6667 343.1111,987.1111 342.5555,986.5555 342,986 341.4444,985.4445 340.8889,984.8889 340.3333,984.3333 339.7777,983.7778 339.2222,983.2222 338.6667,982.6666 338.1111,982.1111 337.5555,981.5555 337,981 336.4444,980.4445 335.8889,979.8889 335.3333,979.3333 334.7777,978.7778 334.2222,978.2222 333.6666,977.6666 333.1111,977.1111 332.5555,976.5555 332,976 331.4444,975.4445 330.8889,974.8889 330.3333,974.3333 329.7778,973.7778 329.2222,973.2222 328.6667,972.6666 328.1111,972.1111 327.5555,971.5555 327,971 326.4444,970.4445 325.8889,969.8889 325.3333,969.3333 324.7777,968.7778 324.2222,968.2222 323.6667,967.6666 323.1111,967.1111 322.5555,966.5555 322,966 321.4444,965.4445 320.8889,964.8889 320.3333,964.3333 319.7777,963.7778 319.2222,963.2222 318.6666,962.6666 318.1111,962.1111 317.5555,961.5555 317,961 316.4444,960.4445 315.8889,959.8889 315.3333,959.3333 314.7778,958.7778 314.2222,958.2222 313.6667,957.6666 313.1111,957.1111 312.5555,956.5555 312,956 311.4444,955.4445 310.8889,954.8889 310.3333,954.3333 309.7777,953.7778 309.2222,953.2222 308.6667,952.6666 308.1111,952.1111 307.5555,951.5555 307,951 306.4444,950.4444 305.8889,949.8889 305.3333,949.3333 304.7777,948.7778 304.2222,948.2222 303.6667,947.6666 303.1111,947.1111 302.5555,946.5555 302,946 301.4444,945.4445 300.8889,944.8889 300.3333,944.3333 299.7778,943.7778 299.2222,943.2222 298.6666,942.6666 298.1111,942.1111 297.5555,941.5555 297,941 296.4444,940.4445 295.8889,939.8889 295.3333,939.3333 294.7778,938.7778 294.2222,938.2222 293.6667,937.6666 293.1111,937.1111 292.5555,936.5555 292,936 291.4444,935.4444 290.8889,934.8889 290.3333,934.3333 289.7777,933.7778 289.2222,933.2222 288.6667,932.6666 288.1111,932.1111 287.5555,931.5555 287,931 286.4444,930.4444 285.8889,929.8889 285.3333,929.3333 284.7778,928.7778 284.2222,928.2222 283.6667,927.6666 283.1111,927.1111 282.5555,926.5555 282,926 281.4444,925.4445 280.8889,924.8889 280.3333,924.3333 279.7778,923.7778 279.2222,923.2222 278.6667,922.6666 278.1111,922.1111 277.5555,921.5555 277,921 276.4444,920.4444 275.8889,919.8889 275.3333,919.3333 274.7777,918.7778 274.2222,918.2222 273.6667,917.6666 273.1111,917.1111 272.5555,916.5555 272,916 271.4444,915.4444 270.8889,914.8889 270.3333,914.3333 269.7778,913.7778 269.2222,913.2222 268.6667,912.6666 268.1111,912.1111 267.5555,911.5555 267,911 266.4444,910.4445 265.8889,909.8889 265.3333,909.3333 264.7778,908.7778 264.2222,908.2222 263.6667,907.6666 263.1111,907.1111 262.5555,906.5555 262,906 261.4444,905.4444 260.8889,904.8889 260.3333,904.3333 259.7777,903.7778 259.2222,903.2222 258.6667,902.6666 258.1111,902.1111 257.5555,901.5555 257,901 256.4444,900.4444 255.8889,899.8889 255.3333,899.3333 254.7778,898.7778 254.2222,898.2222 253.6667,897.6666 253.1111,897.1111 252.5555,896.5555 252,896 251.4444,895.4444 250.8889,894.8889 250.3333,894.3333 249.7778,893.7778 249.2222,893.2222 248.6666,892.6666 248.1111,892.1111 247.5555,891.5555 247,891 246.4444,890.4444 245.8889,889.8889 245.3333,889.3333 244.7778,888.7778 244.2222,888.2222 243.6666,887.6666 243.1111,887.1111 242.5555,886.5555 242,886 241.4444,885.4444 240.8889,884.8889 240.3333,884.3333 239.7778,883.7778 239.2222,883.2222 238.6667,882.6666 238.1111,882.1111 237.5555,881.5555 237,881 236.4444,880.4444 235.8889,879.8889 235.3333,879.3333 234.7778,878.7778 234.2222,878.2222 233.6666,877.6666 233.1111,877.1111 232.5555,876.5555 232,876 231.4444,875.4444 230.8889,874.8889 230.3333,874.3333 229.7778,873.7778 229.2222,873.2222 228.6666,872.6666 228.1111,872.1111 227.5555,871.5555 227,871 226.4444,870.4444 225.8889,869.8889 225.3333,869.3333 224.7778,868.7778 224.2222,868.2222 223.6667,867.6666 223.1111,867.1111 222.5555,866.5555 222,866 221.4444,865.4444 220.8889,864.8889 220.3333,864.3333 219.7778,863.7778 219.2222,863.2222 218.6666,862.6666 218.1111,862.1111 217.5555,861.5555 217,861 216.4444,860.4444 215.8889,859.8889 215.3333,859.3333 214.7778,858.7778 214.2222,858.2222 213.6667,857.6666 213.1111,857.1111 212.5555,856.5555 212,856 211.4444,855.4444 210.8889,854.8889 210.3333,854.3333 209.7778,853.7778 209.2222,853.2222 208.6667,852.6666 208.1111,852.1111 207.5555,851.5555 207,851 206.4444,850.4444 205.8889,849.8889 205.3333,849.3333 204.7778,848.7778 204.2222,848.2222 203.6666,847.6666 203.1111,847.1111 202.5555,846.5555 202,845.9999 201.4444,845.4444 200.8889,844.8889 200.3333,844.3333 199.7778,843.7778 199.2222,843.2222 198.6667,842.6666 198.1111,842.1111 197.5555,841.5555 197,841 196.4444,840.4444 195.8889,839.8889 195.3333,839.3333 194.7778,838.7778 194.2222,838.2222 193.6667,837.6666 193.1111,837.1111 192.5555,836.5555 192,836 191.4444,835.4444 190.8889,834.8889 190.3333,834.3333 189.7778,833.7778 189.2222,833.2222 188.6666,832.6666 188.1111,832.1111 187.5555,831.5555 187,830.9999 186.4444,830.4444 185.8889,829.8889 185.3333,829.3333 184.7778,828.7778 184.2222,828.2222 183.6667,827.6666 183.1111,827.1111 182.5555,826.5555 182,826 181.4444,825.4444 180.8889,824.8889 180.3333,824.3333 179.7778,823.7778 179.2222,823.2222 178.6667,822.6666 178.1111,822.1111 177.5555,821.5555 177,821 176.4444,820.4444 175.8889,819.8889 175.3333,819.3333 174.7778,818.7777 174.2222,818.2222 173.6667,817.6666 173.1111,817.1111 172.5555,816.5555 172,816 171.4444,815.4444 170.8889,814.8889 170.3333,814.3333 169.7778,813.7777 169.2222,813.2222 168.6667,812.6666 168.1111,812.1111 167.5555,811.5555 167,811 166.4444,810.4444 165.8889,809.8889 165.3333,809.3333 164.7778,808.7778 164.2222,808.2222 163.6666,807.6666 163.1111,807.1111 162.5556,806.5555 162,805.9999 161.4444,805.4444 160.8889,804.8889 160.3333,804.3333 159.7778,803.7778 159.2222,803.2222 158.6666,802.6666 158.1111,802.1111 157.5556,801.5555 157,800.9999 156.4444,800.4444 155.8889,799.8889 155.3333,799.3333 154.7778,798.7778 154.2222,798.2222 153.6667,797.6666 153.1111,797.1111 152.5555,796.5555 152,795.9999 151.4444,795.4444 150.8889,794.8889 150.3333,794.3333 149.7778,793.7778 149.2222,793.2222 148.6667,792.6666 148.1111,792.1111 147.5555,791.5555 147,790.9999 146.4444,790.4444 145.8889,789.8889 145.3333,789.3333 144.7778,788.7777 144.2222,788.2222 143.6667,787.6666 143.1111,787.1111 142.5555,786.5555 142,786 141.4444,785.4444 140.8889,784.8889 140.3333,784.3333 139.7778,783.7777 139.2222,783.2222 138.6667,782.6666 138.1111,782.1111 137.5555,781.5555 137,781 136.4444,780.4444 135.8889,779.8889 135.3333,779.3333 134.7778,778.7777 134.2222,778.2222 133.6666,777.6666 133.1111,777.1111 132.5556,776.5555 132,775.9999 131.4444,775.4444 130.8889,774.8889 130.3333,774.3333 129.7778,773.7778 129.2222,773.2222 128.6666,772.6666 128.1111,772.1111 127.5556,771.5555 127,770.9999 126.4444,770.4444 125.8889,769.8889 125.3333,769.3333 124.7778,768.7778 124.2222,768.2222 123.6666,767.6666 123.1111,767.1111 122.5555,766.5555 122,765.9999 121.4444,765.4444 120.8889,764.8889 120.3333,764.3333 119.7778,763.7778 119.2222,763.2222 118.6667,762.6666 118.1111,762.1111 117.5555,761.5555 117,760.9999 116.4444,760.4444 115.8889,759.8889 115.3333,759.3333 114.7778,758.7778 114.2222,758.2222 113.6667,757.6666 113.1111,757.1111 112.5555,756.5555 112,755.9999 111.4444,755.4444 110.8889,754.8889 110.3333,754.3333 109.7778,753.7777 109.2222,753.2222 108.6667,752.6666 108.1111,752.1111 107.5555,751.5555 107,751 106.4444,750.4444 105.8889,749.8889 105.3333,749.3333 104.7778,748.7777 104.2222,748.2222 103.6666,747.6666 103.1111,747.1111 102.5555,746.5555 102,745.9999 101.4444,745.4444 100.8889,744.8889 100.3333,744.3333 99.77776,743.7777 99.22222,743.2222 98.66665,742.6666 98.1111,742.1111 97.55556,741.5555 96.99998,740.9999 96.44444,740.4444 95.88889,739.8889 95.33331,739.3333 94.77777,738.7777 94.22223,738.2222 93.66665,737.6666 93.11111,737.1111 92.55553,736.5555 91.99998,735.9999 91.44444,735.4444 90.88887,734.8889 90.33332,734.3333 89.77778,733.7778 89.2222,733.2222 88.66666,732.6666 88.11111,732.1111 87.55553,731.5555 86.99999,730.9999 86.44445,730.4444 85.88887,729.8889 85.33333,729.3333 84.77778,728.7778 84.22221,728.2222 83.66666,727.6666 83.11111,727.1111 82.55554,726.5555 82,725.9999 81.44442,725.4444 80.88888,724.8889 80.33333,724.3333 79.77776,723.7777 79.22221,723.2222 78.66666,722.6666 78.11109,722.1111 77.55555,721.5555 77,720.9999 76.44443,720.4444 75.88889,719.8889 75.33334,719.3333 74.77776,718.7777 74.22221,718.2222 73.66667,717.6666 73.1111,717.1111 72.55555,716.5555 72,715.9999 72,715.4444 72,714.8889 72,714.3333 72,713.7777 72,713.2222 72,712.6666 72,712.1111 72,711.5555 72,710.9999 72,710.4444 72,709.8889 72,709.3333 72,708.7777 72,708.2222 72,707.6666 72,707.1111 72,706.5555 72,705.9999 72,705.4444 72,704.8889 72,704.3333 72,703.7777 72,703.2222 72,702.6666 72,702.1111 72,701.5555 72,700.9999 72,700.4444 72,699.8889 72,699.3333 72,698.7778 72,698.2222 72,697.6666 72,697.1111 72,696.5555 72,695.9999 72,695.4444 72,694.8889 72,694.3333 72,693.7777 72,693.2222 72,692.6666 72,692.111 72,691.5555 72,690.9999 72,690.4444 72,689.8889 72,689.3333 72,688.7777 72,688.2222 72,687.6666 72,687.1111 72,686.5555 72,685.9999 72,685.4444 72,684.8889 72,684.3333 72,683.7777 72,683.2222 72,682.6666 72,682.1111 72,681.5555 72,680.9999 72,680.4444 72,679.8889 72,679.3333 72,678.7777 72,678.2222 72,677.6666 72,677.1111 72,676.5555 72,675.9999 72,675.4444 72,674.8889 72,674.3333 72,673.7777 72,673.2222 72,672.6666 72,672.1111 72,671.5555 72,670.9999 72,670.4444 72,669.8889 72,669.3333 72,668.7777 72,668.2222 72,667.6666 72,667.1111 72,666.5555 72,665.9999 72,665.4444 72,664.8889 72,664.3333 72,663.7777 72,663.2222 72,662.6666 72,662.111 72,661.5555 72,660.9999 72,660.4444 72,659.8889 72,659.3333 72,658.7777 72,658.2222 72,657.6666 72,657.111 72,656.5555 72,655.9999 72,655.4444 72,654.8889 72,654.3333 72,653.7777 72,653.2222 72,652.6666 72,652.1111 72,651.5555 72,650.9999 72,650.4444 72,649.8889 72,649.3333 72,648.7777 72,648.2222 72,647.6666 72,647.1111 72,646.5555 72,645.9999 72,645.4444 72,644.8889 72,644.3333 72,643.7777 72,643.2222 72,642.6666 72,642.1111 72,641.5555 72,640.9999 72,640.4444 72,639.8888 72,639.3333 72,638.7777 72,638.2222 72,637.6666 72,637.1111 72,636.5555 72,635.9999 72,635.4444 72,634.8889 72,634.3333 72,633.7777 72,633.2222 72,632.6666 72,632.111 72,631.5555 72,630.9999 72,630.4444 72,629.8889 72,629.3333 72,628.7777 72,628.2222 72,627.6666 72,627.111 72,626.5555 72,625.9999 72,625.4444 72,624.8889 72,624.3333 72,623.7777 72,623.2222 72,622.6666 72,622.111 72,621.5555 72,620.9999 72,620.4444 72,619.8889 72,619.3333 72,618.7777 72,618.2222 72,617.6666 72,617.1111 72,616.5555 72,615.9999 72,615.4444 72,614.8889 72,614.3333 72,613.7777 72,613.2222 72,612.6666 72,612.1111 72,611.5555 72,610.9999 72,610.4444 72,609.8888 72,609.3333 72,608.7777 72,608.2222 72,607.6666 72,607.1111 72,606.5555 72,605.9999 72,605.4444 72,604.8888 72,604.3333 72,603.7777 72,603.2222 72,602.6666 72,602.1111 72,601.5555 72,600.9999 72,600.4444 72,599.8889 72,599.3333 72,598.7777 72,598.2222 72,597.6666 72,597.111 72,596.5555 72,595.9999 72,595.4444 72,594.8889 72,594.3333 72,593.7777 72,593.2222 72,592.6666 72,592.111 72,591.5555 72,590.9999 72,590.4444 72,589.8889 72,589.3333 72,588.7777 72,588.2222 72,587.6666 72,587.111 72,586.5555 72,585.9999 72,585.4444 72,584.8889 72,584.3333 72,583.7777 72,583.2222 72,582.6666 72,582.1111 72,581.5555 72,580.9999 72,580.4444 72,579.8888 72,579.3333 72,578.7777 72,578.2222 72,577.6666 72,577.1111 72,576.5555 72,575.9999 72,575.4444 72,574.8889 72,574.3333 72,573.7777 72,573.2222 72,572.6666 72,572.111 72,571.5555 72,570.9999 72,570.4444 72,569.8889 72,569.3333 72,568.7777 72,568.2222 72,567.6666 72,567.111 72,566.5555 72,565.9999 72,565.4444 72,564.8889 72,564.3333 72,563.7777 72,563.2222 72,562.6666 72,562.111 72,561.5555 72,560.9999 72,560.4444 72,559.8889 72,559.3333 72,558.7777 72,558.2222 72,557.6666 72,557.111 72,556.5555 72,555.9999 72,555.4444 72,554.8889 72,554.3333 72,553.7777 72,553.2222 72,552.6666 72,552.111 72,551.5555 72,550.9999 72,550.4444 72,549.8889 72,549.3333 72,548.7777 72,548.2222 72,547.6666 72,547.1111 72,546.5555 72,545.9999 72,545.4444 72,544.8889 72,544.3333 72,543.7777 72,543.2222 72,542.6666 72,542.1111 72,541.5555 72,540.9999 72,540.4444 72,539.8889 72,539.3333 72,538.7777 72,538.2222 72,537.6666 72,537.111 72,536.5555 72,535.9999 72,535.4444 72,534.8889 72,534.3333 72,533.7777 72,533.2222 72,532.6666 72,532.1111 72,531.5555 72,530.9999 72,530.4444 72,529.8889 72,529.3333 72,528.7777 72,528.2222 72,527.6666 72,527.1111 72,526.5555 72,525.9999 72,525.4444 72,524.8889 72,524.3333 72,523.7777 72,523.2222 72,522.6666 72,522.1111 72,521.5555 72,520.9999 72,520.4444 72,519.8889 72,519.3333 72,518.7777 72,518.2222 72,517.6666 72,517.1111 72,516.5555 72,515.9999 72,515.4444 72,514.8889 72,514.3333 72,513.7777 72,513.2222 72,512.6666 72,512.1111 72,511.5555 72,510.9999 72,510.4444 72,509.8888 72,509.3333 72,508.7777 72,508.2222 72,507.6666 72,507.1111 72,506.5555 72,505.9999 72,505.4444 72,504.8888 72,504.3333 72,503.7777 72,503.2222 72,502.6666 72,502.1111 72,501.5555 72,500.9999 72,500.4444 72,499.8889 72,499.3333 72,498.7777 72,498.2222 72,497.6666 72,497.1111 72,496.5555 72,495.9999 72,495.4444 72,494.8888 72,494.3333 72,493.7777 72,493.2222 72,492.6666 72,492.1111 72,491.5555 72,490.9999 72,490.4444 72,489.8888 72,489.3333 72,488.7777 72,488.2222 72,487.6666 72,487.1111 72,486.5555 72,485.9999 72,485.4444 72,484.8889 72,484.3333 72,483.7777 72,483.2222 72,482.6666 72,482.1111 72,481.5555 72,480.9999 72,480.4444 72,479.8888 72,479.3333 72,478.7777 72,478.2222 72,477.6666 72,477.1111 72,476.5555 72,475.9999 72,475.4444 72,474.8888 72,474.3333 72,473.7777 72,473.2222 72,472.6666 72,472.1111 72,471.5555 72,471 72,470.4444 72,469.8889 72,469.3333 72,468.7777 72,468.2222 72,467.6666 72,467.1111 72,466.5555 72,465.9999 72,465.4444 72,464.8889 72,464.3333 72,463.7777 72,463.2222 72,462.6666 72,462.1111 72,461.5555 72,460.9999 72,460.4444 72,459.8888 72,459.3333 72,458.7777 72,458.2222 72,457.6666 72,457.1111 72,456.5555 72,456 72,455.4444 72,454.8889 72,454.3333 72,453.7777 72,453.2222 72,452.6666 72,452.1111 72,451.5555 72,450.9999 72,450.4444 72,449.8889 72,449.3333 72,448.7777 72,448.2222 72,447.6666 72,447.1111 72,446.5555 72,446 72,445.4444 72,444.8889 72,444.3333 72,443.7777 72,443.2222 72,442.6666 72,442.1111 72,441.5555 72,440.9999 72,440.4444 72,439.8889 72,439.3333 72,438.7777 72,438.2222 72,437.6666 72,437.1111 72,436.5555 72,436 72.55556,435.4444 73.11111,434.8889 73.66666,434.3333 74.22223,433.7777 74.77777,433.2222 75.33333,432.6666 75.88889,432.1111 76.44445,431.5555 76.99999,431 77.55556,430.4444 78.11111,429.8889 78.66666,429.3333 79.22222,428.7777 79.77778,428.2222 80.33333,427.6666 80.88889,427.1111 81.44444,426.5555 82.00001,425.9999 82.55555,425.4444 83.11111,424.8889 83.66667,424.3333 84.22221,423.7777 84.77778,423.2222 85.33334,422.6666 85.88889,422.1111 86.44444,421.5555 87,421 87.55556,420.4444 88.11111,419.8889 88.66666,419.3333 89.22223,418.7777 89.77777,418.2222 90.33333,417.6666 90.88889,417.1111 91.44445,416.5555 92,416 92.55556,415.4444 93.11111,414.8889 93.66666,414.3333 94.22222,413.7777 94.77778,413.2222 95.33333,412.6666 95.88889,412.1111 96.44444,411.5555 97.00001,410.9999 97.55555,410.4444 98.11111,409.8889 98.66667,409.3333 99.22221,408.7777 99.77778,408.2222 100.3333,407.6666 100.8889,407.1111 101.4444,406.5555 102,406 102.5556,405.4444 103.1111,404.8889 103.6667,404.3333 104.2222,403.7777 104.7778,403.2222 105.3333,402.6666 105.8889,402.1111 106.4444,401.5555 107,401 107.5556,400.4444 108.1111,399.8889 108.6667,399.3333 109.2222,398.7777 109.7778,398.2222 110.3333,397.6666 110.8889,397.1111 111.4445,396.5555 112,395.9999 112.5555,395.4444 113.1111,394.8889 113.6667,394.3333 114.2222,393.7777 114.7778,393.2222 115.3333,392.6666 115.8889,392.1111 116.4444,391.5555 117,391 117.5556,390.4444 118.1111,389.8889 118.6667,389.3333 119.2222,388.7777 119.7778,388.2222 120.3333,387.6666 120.8889,387.1111 121.4444,386.5555 122,386 122.5556,385.4444 123.1111,384.8889 123.6667,384.3333 124.2222,383.7777 124.7778,383.2222 125.3333,382.6666 125.8889,382.1111 126.4445,381.5555 127,381 127.5555,380.4444 128.1111,379.8889 128.6667,379.3333 129.2222,378.7777 129.7778,378.2222 130.3333,377.6666 130.8889,377.1111 131.4444,376.5555 132,376 132.5556,375.4444 133.1111,374.8889 133.6667,374.3333 134.2222,373.7777 134.7778,373.2222 135.3333,372.6666 135.8889,372.1111 136.4444,371.5555 137,371 137.5556,370.4444 138.1111,369.8889 138.6667,369.3333 139.2222,368.7777 139.7778,368.2222 140.3333,367.6666 140.8889,367.1111 141.4444,366.5555 142,366 142.5556,365.4444 143.1111,364.8889 143.6667,364.3333 144.2222,363.7777 144.7778,363.2222 145.3333,362.6666 145.8889,362.1111 146.4444,361.5555 147,361 147.5555,360.4444 148.1111,359.8889 148.6667,359.3333 149.2222,358.7777 149.7778,358.2222 150.3333,357.6666 150.8889,357.1111 151.4444,356.5555 152,356 152.5556,355.4444 153.1111,354.8889 153.6667,354.3333 154.2222,353.7777 154.7778,353.2222 155.3333,352.6666 155.8889,352.1111 156.4444,351.5555 157,351 157.5556,350.4444 158.1111,349.8889 158.6667,349.3333 159.2222,348.7777 159.7778,348.2222 160.3333,347.6666 160.8889,347.1111 161.4444,346.5555 162,346 162.5555,345.4444 163.1111,344.8889 163.6667,344.3333 164.2222,343.7777 164.7778,343.2222 165.3333,342.6666 165.8889,342.1111 166.4444,341.5555 167,341 167.5556,340.4444 168.1111,339.8889 168.6667,339.3333 169.2222,338.7777 169.7778,338.2222 170.3333,337.6666 170.8889,337.1111 171.4444,336.5555 172,336 172.5556,335.4444 173.1111,334.8889 173.6667,334.3333 174.2222,333.7777 174.7778,333.2222 175.3333,332.6666 175.8889,332.1111 176.4444,331.5555 177,331 177.5556,330.4444 178.1111,329.8889 178.6667,329.3333 179.2222,328.7777 179.7778,328.2222 180.3333,327.6666 180.8889,327.1111 181.4444,326.5555 182,326 182.5555,325.4444 183.1111,324.8889 183.6667,324.3333 184.2222,323.7778 184.7778,323.2222 185.3333,322.6666 185.8889,322.1111 186.4444,321.5555 187,321 187.5556,320.4444 188.1111,319.8889 188.6667,319.3333 189.2222,318.7777 189.7778,318.2222 190.3333,317.6667 190.8889,317.1111 191.4444,316.5555 192,316 192.5556,315.4444 193.1111,314.8889 193.6667,314.3333 194.2222,313.7777 194.7778,313.2222 195.3333,312.6667 195.8889,312.1111 196.4444,311.5555 197,311 197.5556,310.4444 198.1111,309.8889 198.6667,309.3333 199.2222,308.7777 199.7778,308.2222 200.3333,307.6666 200.8889,307.1111 201.4444,306.5555 202,306 202.5556,305.4444 203.1111,304.8889 203.6667,304.3333 204.2222,303.7777 204.7778,303.2222 205.3333,302.6666 205.8889,302.1111 206.4444,301.5555 207,301 207.5556,300.4444 208.1111,299.8889 208.6667,299.3333 209.2222,298.7778 209.7778,298.2222 210.3333,297.6666 210.8889,297.1111 211.4445,296.5555 212,296 212.5555,295.4444 213.1111,294.8889 213.6667,294.3333 214.2222,293.7778 214.7778,293.2222 215.3333,292.6667 215.8889,292.1111 216.4445,291.5555 217,291 217.5555,290.4444 218.1111,289.8889 218.6667,289.3333 219.2222,288.7777 219.7778,288.2222 220.3333,287.6667 220.8889,287.1111 221.4444,286.5555 222,286 222.5556,285.4444 223.1111,284.8889 223.6667,284.3333 224.2222,283.7777 224.7778,283.2222 225.3333,282.6667 225.8889,282.1111 226.4444,281.5555 227,281 227.5556,280.4444 228.1111,279.8889 228.6667,279.3333 229.2222,278.7777 229.7778,278.2222 230.3333,277.6666 230.8889,277.1111 231.4444,276.5555 232,276 232.5556,275.4444 233.1111,274.8889 233.6667,274.3333 234.2222,273.7777 234.7778,273.2222 235.3333,272.6666 235.8889,272.1111 236.4444,271.5555 237,271 237.5556,270.4444 238.1111,269.8889 238.6667,269.3333 239.2222,268.7778 239.7778,268.2222 240.3333,267.6666 240.8889,267.1111 241.4445,266.5555 242,266 242.5555,265.4444 243.1111,264.8889 243.6667,264.3333 244.2222,263.7778 244.7778,263.2222 245.3333,262.6667 245.8889,262.1111 246.4445,261.5555 247,261 247.5555,260.4444 248.1111,259.8889 248.6667,259.3333 249.2222,258.7778 249.7778,258.2222 250.3333,257.6667 250.8889,257.1111 251.4444,256.5555 252,256 252.5556,255.4444 253.1111,254.8889 253.6667,254.3333 254.2222,253.7777 254.7778,253.2222 255.3333,252.6667 255.8889,252.1111 256.4445,251.5555 257,251 257.5556,250.4444 258.1111,249.8889 258.6667,249.3333 259.2222,248.7778 259.7778,248.2222 260.3333,247.6666 260.8889,247.1111 261.4444,246.5555 262,246 262.5556,245.4444 263.1111,244.8889 263.6667,244.3333 264.2222,243.7778 264.7778,243.2222 265.3333,242.6666 265.8889,242.1111 266.4444,241.5555 267,241 267.5555,240.4444 268.1111,239.8889 268.6667,239.3333 269.2222,238.7778 269.7778,238.2222 270.3333,237.6666 270.8889,237.1111 271.4445,236.5555 272,236 272.5555,235.4444 273.1111,234.8889 273.6667,234.3333 274.2222,233.7778 274.7778,233.2222 275.3333,232.6666 275.8889,232.1111 276.4445,231.5555 277,231 277.5555,230.4444 278.1111,229.8889 278.6667,229.3333 279.2222,228.7778 279.7778,228.2222 280.3333,227.6667 280.8889,227.1111 281.4445,226.5555 282,226 282.5556,225.4444 283.1111,224.8889 283.6667,224.3333 284.2222,223.7777 284.7778,223.2222 285.3333,222.6667 285.8889,222.1111 286.4445,221.5555 287,221 287.5556,220.4444 288.1111,219.8889 288.6667,219.3333 289.2222,218.7778 289.7778,218.2222 290.3333,217.6667 290.8889,217.1111 291.4444,216.5555 292,216 292.5556,215.4444 293.1111,214.8889 293.6667,214.3333 294.2222,213.7778 294.7778,213.2222 295.3333,212.6666 295.8889,212.1111 296.4444,211.5555 297,211 297.5555,210.4444 298.1111,209.8889 298.6667,209.3333 299.2222,208.7778 299.7778,208.2222 300.3333,207.6666 300.8889,207.1111 301.4444,206.5556 302,206 302.5555,205.4444 303.1111,204.8889 303.6667,204.3333 304.2222,203.7778 304.7778,203.2222 305.3333,202.6667 305.8889,202.1111 306.4445,201.5555 307,201 307.5555,200.4444 308.1111,199.8889 308.6667,199.3333 309.2222,198.7778 309.7778,198.2222 310.3333,197.6667 310.8889,197.1111 311.4445,196.5555 312,196 312.5556,195.4444 313.1111,194.8889 313.6667,194.3333 314.2222,193.7778 314.7778,193.2222 315.3333,192.6667 315.8889,192.1111 316.4445,191.5555 317,191 317.5556,190.4444 318.1111,189.8889 318.6667,189.3333 319.2222,188.7778 319.7778,188.2222 320.3333,187.6667 320.8889,187.1111 321.4444,186.5555 322,186 322.5556,185.4444 323.1111,184.8889 323.6667,184.3333 324.2222,183.7778 324.7778,183.2222 325.3333,182.6666 325.8889,182.1111 326.4444,181.5556 327,181 327.5555,180.4444 328.1111,179.8889 328.6667,179.3333 329.2222,178.7778 329.7778,178.2222 330.3333,177.6666 330.8889,177.1111 331.4444,176.5556 332,176 332.5555,175.4444 333.1111,174.8889 333.6667,174.3333 334.2222,173.7778 334.7778,173.2222 335.3333,172.6667 335.8889,172.1111 336.4445,171.5555 337,171 337.5555,170.4444 338.1111,169.8889 338.6667,169.3333 339.2222,168.7778 339.7778,168.2222 340.3333,167.6667 340.8889,167.1111 341.4445,166.5555 342,166 342.5555,165.4444 343.1111,164.8889 343.6667,164.3333 344.2222,163.7778 344.7778,163.2222 345.3333,162.6667 345.8889,162.1111 346.4445,161.5555 347,161 347.5556,160.4444 348.1111,159.8889 348.6667,159.3333 349.2222,158.7778 349.7778,158.2222 350.3333,157.6667 350.8889,157.1111 351.4444,156.5555 352,156 352.5556,155.4444 353.1111,154.8889 353.6667,154.3333 354.2222,153.7778 354.7778,153.2222 355.3333,152.6666 355.8889,152.1111 356.4444,151.5556 357,151 357.5555,150.4444 358.1111,149.8889 358.6667,149.3333 359.2222,148.7778 359.7778,148.2222 360.3333,147.6667 360.8889,147.1111 361.4444,146.5556 362,146 362.5555,145.4444 363.1111,144.8889 363.6667,144.3333 364.2222,143.7778 364.7778,143.2222 365.3333,142.6667 365.8889,142.1111 366.4445,141.5555 367,141 367.5555,140.4444 368.1111,139.8889 368.6667,139.3333 369.2222,138.7778 369.7778,138.2222 370.3333,137.6667 370.8889,137.1111 371.4445,136.5555 372,136 372.5555,135.4444 373.1111,134.8889 373.6667,134.3333 374.2222,133.7778 374.7778,133.2222 375.3333,132.6667 375.8889,132.1111 376.4445,131.5555 377,131 377.5556,130.4444 378.1111,129.8889 378.6667,129.3333 379.2222,128.7778 379.7778,128.2222 380.3333,127.6667 380.8889,127.1111 381.4445,126.5555 382,126 382.5556,125.4444 383.1111,124.8889 383.6667,124.3333 384.2222,123.7778 384.7778,123.2222 385.3333,122.6666 385.8889,122.1111 386.4444,121.5556 387,121 387.5556,120.4444 388.1111,119.8889 388.6667,119.3333 389.2222,118.7778 389.7778,118.2222 390.3333,117.6666 390.8889,117.1111 391.4444,116.5556 392,116 392.5555,115.4444 393.1111,114.8889 393.6667,114.3333 394.2222,113.7778 394.7778,113.2222 395.3333,112.6667 395.8889,112.1111 396.4445,111.5555 397,111 397.5555,110.4445 398.1111,109.8889 398.6667,109.3333 399.2222,108.7778 399.7778,108.2222 400.3333,107.6667 400.8889,107.1111 401.4445,106.5555 402,106 402.5555,105.4445 403.1111,104.8889 403.6667,104.3333 404.2222,103.7778 404.7778,103.2222 405.3333,102.6667 405.8889,102.1111 406.4445,101.5555 407,101 407.5556,100.4444 408.1111,99.88889 408.6667,99.33334 409.2222,98.77776 409.7778,98.22222 410.3333,97.66667 410.8889,97.1111 411.4445,96.55555 412,96.00001 412.5556,95.44444 413.1111,94.88889 413.6667,94.33334 414.2222,93.77777 414.7778,93.22222 415.3333,92.66668 415.8889,92.11111 416.4444,91.55556 417,90.99998 417.5556,90.44444 418.1111,89.88889 418.6667,89.33332 419.2222,88.77777 419.7778,88.22223 420.3333,87.66666 420.8889,87.11111 421.4444,86.55556 422,85.99999 422.5555,85.44444 423.1111,84.8889 423.6667,84.33332 424.2222,83.77778 424.7778,83.22224 425.3333,82.66666 425.8889,82.11111 426.4444,81.55557 427,80.99999 427.5555,80.44445 428.1111,79.88888 428.6667,79.33333 429.2222,78.77779 429.7778,78.22221 430.3333,77.66666 430.8889,77.11112 431.4445,76.55554 432,76 432.5555,76.55554 433.1111,77.11112 433.6667,77.66666 434.2222,78.22221 434.7778,78.77779 435.3333,79.33333 435.8889,79.88888 436.4445,80.44445 437,80.99999 437.5556,81.55557 438.1111,82.11111 438.6667,82.66666 439.2222,83.22224 439.7778,83.77778 440.3333,84.33333 440.8889,84.8889 441.4445,85.44444 442,85.99999 442.5556,86.55556 443.1111,87.11111 443.6667,87.66666 444.2222,88.22223 444.7778,88.77778 445.3333,89.33332 445.8889,89.88889 446.4444,90.44444 447,90.99998 447.5556,91.55556 448.1111,92.11111 448.6667,92.66668 449.2222,93.22223 449.7778,93.77777 450.3333,94.33334 450.8889,94.88889 451.4444,95.44444 452,96.00001 452.5555,96.55556 453.1111,97.1111 453.6667,97.66668 454.2222,98.22222 454.7778,98.77776 455.3333,99.33334 455.8889,99.88889 456.4444,100.4444 457,101 457.5555,101.5555 458.1111,102.1111 458.6667,102.6667 459.2222,103.2222 459.7778,103.7778 460.3333,104.3333 460.8889,104.8889 461.4445,105.4445 462,106 462.5555,106.5555 463.1111,107.1111 463.6667,107.6667 464.2222,108.2222 464.7778,108.7778 465.3333,109.3333 465.8889,109.8889 466.4445,110.4445 467,111 467.5555,111.5555 468.1111,112.1111 468.6667,112.6667 469.2222,113.2222 469.7778,113.7778 470.3333,114.3333 470.8889,114.8889 471.4445,115.4444 472,116 472.5556,116.5556 473.1111,117.1111 473.6667,117.6667 474.2222,118.2222 474.7778,118.7778 475.3333,119.3333 475.8889,119.8889 476.4444,120.4444 477,121 477.5556,121.5556 478.1111,122.1111 478.6667,122.6666 479.2222,123.2222 479.7778,123.7778 480.3333,124.3333 480.8889,124.8889 481.4444,125.4444 482,126 482.5555,126.5556 483.1111,127.1111 483.6667,127.6667 484.2222,128.2222 484.7778,128.7778 485.3333,129.3333 485.8889,129.8889 486.4444,130.4444 487,131 487.5555,131.5556 488.1111,132.1111 488.6667,132.6667 489.2222,133.2222 489.7778,133.7778 490.3333,134.3333 490.8889,134.8889 491.4445,135.4445 492,136 492.5555,136.5555 493.1111,137.1111 493.6667,137.6667 494.2222,138.2222 494.7778,138.7778 495.3333,139.3333 495.8889,139.8889 496.4445,140.4445 497,141 497.5555,141.5555 498.1111,142.1111 498.6667,142.6667 499.2222,143.2222 499.7778,143.7778 500.3333,144.3333 500.8889,144.8889 501.4445,145.4444 502,146 502.5556,146.5556 503.1111,147.1111 503.6667,147.6667 504.2222,148.2222 504.7778,148.7778 505.3333,149.3333 505.8889,149.8889 506.4445,150.4444 507,151 507.5556,151.5556 508.1111,152.1111 508.6667,152.6667 509.2222,153.2222 509.7778,153.7778 510.3333,154.3333 510.8889,154.8889 511.4444,155.4444 512,156 512.5555,156.5556 513.1111,157.1111 513.6667,157.6667 514.2222,158.2222 514.7778,158.7778 515.3333,159.3333 515.8889,159.8889 516.4445,160.4444 517,161 517.5555,161.5556 518.1111,162.1111 518.6667,162.6667 519.2222,163.2222 519.7778,163.7778 520.3333,164.3333 520.8889,164.8889 521.4445,165.4445 522,166 522.5555,166.5555 523.1111,167.1111 523.6667,167.6667 524.2222,168.2222 524.7778,168.7778 525.3333,169.3333 525.8889,169.8889 526.4445,170.4445 527,171 527.5555,171.5555 528.1111,172.1111 528.6667,172.6667 529.2222,173.2222 529.7778,173.7778 530.3333,174.3333 530.8889,174.8889 531.4445,175.4444 532,176 532.5555,176.5556 533.1111,177.1111 533.6667,177.6667 534.2222,178.2222 534.7778,178.7778 535.3333,179.3333 535.8889,179.8889 536.4445,180.4444 537,181 537.5555,181.5556 538.1111,182.1111 538.6666,182.6667 539.2222,183.2222 539.7778,183.7778 540.3333,184.3333 540.8889,184.8889 541.4445,185.4444 542,186 542.5555,186.5556 543.1111,187.1111 543.6667,187.6667 544.2222,188.2222 544.7778,188.7778 545.3334,189.3333 545.8889,189.8889 546.4445,190.4444 547,191 547.5555,191.5556 548.1111,192.1111 548.6667,192.6667 549.2222,193.2222 549.7778,193.7778 550.3333,194.3333 550.8889,194.8889 551.4445,195.4444 552,196 552.5555,196.5556 553.1111,197.1111 553.6667,197.6667 554.2222,198.2222 554.7778,198.7778 555.3333,199.3333 555.8889,199.8889 556.4445,200.4445 557,201 557.5555,201.5555 558.1111,202.1111 558.6667,202.6667 559.2222,203.2222 559.7778,203.7778 560.3333,204.3333 560.8889,204.8889 561.4445,205.4444 562,206 562.5555,206.5556 563.1111,207.1111 563.6667,207.6667 564.2222,208.2222 564.7778,208.7778 565.3333,209.3333 565.8889,209.8889 566.4445,210.4444 567,211 567.5555,211.5556 568.1111,212.1111 568.6666,212.6667 569.2222,213.2222 569.7778,213.7778 570.3333,214.3333 570.8889,214.8889 571.4445,215.4444 572,216 572.5555,216.5556 573.1111,217.1111 573.6667,217.6667 574.2222,218.2222 574.7778,218.7778 575.3334,219.3333 575.8889,219.8889 576.4445,220.4444 577,221 577.5555,221.5556 578.1111,222.1111 578.6667,222.6667 579.2222,223.2222 579.7778,223.7778 580.3333,224.3333 580.8889,224.8889 581.4445,225.4444 582,226 582.5555,226.5556 583.1111,227.1111 583.6667,227.6667 584.2222,228.2222 584.7778,228.7778 585.3333,229.3333 585.8889,229.8889 586.4445,230.4445 587,231 587.5555,231.5555 588.1111,232.1111 588.6667,232.6667 589.2222,233.2222 589.7778,233.7778 590.3333,234.3333 590.8889,234.8889 591.4445,235.4445 592,236 592.5555,236.5555 593.1111,237.1111 593.6667,237.6667 594.2222,238.2222 594.7778,238.7778 595.3333,239.3333 595.8889,239.8889 596.4445,240.4444 597,241 597.5555,241.5556 598.1111,242.1111 598.6667,242.6667 599.2222,243.2222 599.7778,243.7778 600.3333,244.3333 600.8889,244.8889 601.4445,245.4444 602,246 602.5555,246.5556 603.1111,247.1111 603.6666,247.6667 604.2222,248.2222 604.7778,248.7778 605.3334,249.3333 605.8889,249.8889 606.4445,250.4444 607,251 607.5555,251.5556 608.1111,252.1111 608.6667,252.6667 609.2222,253.2222 609.7778,253.7778 610.3333,254.3333 610.8889,254.8889 611.4445,255.4444 612,256 612.5555,256.5555 613.1111,257.1111 613.6667,257.6667 614.2222,258.2222 614.7778,258.7778 615.3333,259.3333 615.8889,259.8889 616.4445,260.4445 617,261 617.5555,261.5555 618.1111,262.1111 618.6667,262.6667 619.2222,263.2222 619.7778,263.7778 620.3333,264.3333 620.8889,264.8889 621.4445,265.4445 622,266 622.5555,266.5555 623.1111,267.1111 623.6667,267.6667 624.2222,268.2222 624.7778,268.7778 625.3333,269.3333 625.8889,269.8889 626.4445,270.4445 627,271 627.5555,271.5556 628.1111,272.1111 628.6667,272.6667 629.2222,273.2222 629.7778,273.7778 630.3333,274.3333 630.8889,274.8889 631.4445,275.4445 632,276 632.5555,276.5556 633.1111,277.1111 633.6666,277.6667 634.2222,278.2222 634.7778,278.7778 635.3334,279.3333 635.8889,279.8889 636.4445,280.4444 637,281 637.5555,281.5556 638.1111,282.1111 638.6667,282.6667 639.2222,283.2222 639.7778,283.7778 640.3333,284.3333 640.8889,284.8889 641.4445,285.4444 642,286 642.5555,286.5555 643.1111,287.1111 643.6667,287.6667 644.2222,288.2222 644.7778,288.7778 645.3333,289.3333 645.8889,289.8889 646.4445,290.4445 647,291 647.5555,291.5555 648.1111,292.1111 648.6667,292.6667 649.2222,293.2222 649.7778,293.7778 650.3333,294.3333 650.8889,294.8889 651.4445,295.4445 652,296 652.5555,296.5555 653.1111,297.1111 653.6667,297.6667 654.2222,298.2222 654.7778,298.7778 655.3333,299.3333 655.8889,299.8889 656.4445,300.4445 657,301 657.5555,301.5556 658.1111,302.1111 658.6667,302.6667 659.2222,303.2222 659.7778,303.7778 660.3333,304.3333 660.8889,304.8889 661.4445,305.4445 662,306 662.5555,306.5556 663.1111,307.1111 663.6666,307.6667 664.2222,308.2222 664.7778,308.7778 665.3333,309.3333 665.8889,309.8889 666.4445,310.4444 667,311 667.5555,311.5556 668.1111,312.1111 668.6667,312.6667 669.2222,313.2222 669.7778,313.7778 670.3334,314.3333 670.8889,314.8889 671.4445,315.4444 672,316 672.5555,316.5555 673.1111,317.1111 673.6667,317.6667 674.2222,318.2222 674.7778,318.7778 675.3333,319.3333 675.8889,319.8889 676.4445,320.4444 677,321 677.5555,321.5555 678.1111,322.1111 678.6667,322.6667 679.2222,323.2222 679.7778,323.7778 680.3333,324.3333 680.8889,324.8889 681.4445,325.4445 682,326 682.5555,326.5556 683.1111,327.1111 683.6667,327.6667 684.2222,328.2222 684.7778,328.7778 685.3333,329.3333 685.8889,329.8889 686.4445,330.4445 687,331 687.5555,331.5555 688.1111,332.1111 688.6667,332.6667 689.2222,333.2222 689.7778,333.7778 690.3333,334.3333 690.8889,334.8889 691.4445,335.4445 692,336 692.5555,336.5555 693.1111,337.1111 693.6667,337.6667 694.2222,338.2222 694.7778,338.7778 695.3333,339.3333 695.8889,339.8889 696.4445,340.4444 697,341 697.5555,341.5556 698.1111,342.1111 698.6667,342.6667 699.2222,343.2222 699.7778,343.7778 700.3333,344.3333 700.8889,344.8889 701.4445,345.4445 702,346 702.5555,346.5555 703.1111,347.1111 703.6667,347.6667 704.2222,348.2222 704.7778,348.7778 705.3333,349.3333 705.8889,349.8889 706.4445,350.4445 707,351 707.5555,351.5555 708.1111,352.1111 708.6667,352.6667 709.2222,353.2222 709.7778,353.7778 710.3333,354.3333 710.8889,354.8889 711.4445,355.4444 712,356 712.5555,356.5556 713.1111,357.1111 713.6667,357.6667 714.2222,358.2222 714.7778,358.7778 715.3333,359.3333 715.8889,359.8889 716.4445,360.4445 717,361 717.5555,361.5555 718.1111,362.1111 718.6667,362.6667 719.2222,363.2222 719.7778,363.7778 720.3333,364.3333 720.8889,364.8889 721.4445,365.4445 722,366 722.5555,366.5555 723.1111,367.1111 723.6667,367.6667 724.2222,368.2222 724.7778,368.7778 725.3333,369.3333 725.8889,369.8889 726.4445,370.4444 727,371 727.5555,371.5556 728.1111,372.1111 728.6667,372.6667 729.2222,373.2222 729.7778,373.7778 730.3333,374.3333 730.8889,374.8889 731.4445,375.4444 732,376 732.5555,376.5555 733.1111,377.1111 733.6667,377.6667 734.2222,378.2222 734.7778,378.7778 735.3333,379.3333 735.8889,379.8889 736.4445,380.4445 737,381 737.5555,381.5555 738.1111,382.1111 738.6667,382.6667 739.2222,383.2222 739.7778,383.7778 740.3333,384.3333 740.8889,384.8889 741.4445,385.4444 742,386 742.5555,386.5556 743.1111,387.1111 743.6667,387.6667 744.2222,388.2222 744.7778,388.7778 745.3333,389.3333 745.8889,389.8889 746.4445,390.4444 747,391 747.5555,391.5556 748.1111,392.1111 748.6667,392.6667 749.2222,393.2222 749.7778,393.7778 750.3333,394.3333 750.8889,394.8889 751.4445,395.4445 752,396 752.5555,396.5555 753.1111,397.1111 753.6667,397.6667 754.2222,398.2222 754.7778,398.7778 755.3333,399.3333 755.8889,399.8889 756.4445,400.4445 757,401 757.5555,401.5556 758.1111,402.1111 758.6667,402.6667 759.2222,403.2222 759.7778,403.7778 760.3333,404.3333 760.8889,404.8889 761.4445,405.4444 762,406 762.5555,406.5556 763.1111,407.1111 763.6667,407.6667 764.2222,408.2222 764.7778,408.7778 765.3333,409.3333 765.8889,409.8889 766.4445,410.4445 767,411 767.5555,411.5555 768.1111,412.1111 768.6667,412.6667 769.2222,413.2222 769.7778,413.7778 770.3333,414.3333 770.8889,414.8889 771.4445,415.4445 772,416 772.5555,416.5555 773.1111,417.1111 773.6667,417.6667 774.2222,418.2222 774.7778,418.7778 775.3333,419.3333 775.8889,419.8889 776.4445,420.4444 777,421 777.5555,421.5556 778.1111,422.1111 778.6667,422.6667 779.2222,423.2222 779.7778,423.7778 780.3333,424.3333 780.8889,424.8889 781.4445,425.4445 782,426 782.5555,426.5555 783.1111,427.1111 783.6667,427.6667 784.2222,428.2222 784.7778,428.7778 785.3333,429.3333 785.8889,429.8889 786.4445,430.4445 787,431 787.5555,431.5555 788.1111,432.1111 788.6667,432.6667 789.2222,433.2222 789.7778,433.7778 790.3333,434.3333 790.8889,434.8889 791.4445,435.4444 792,436 792,436.5556 792,437.1111 792,437.6667 792,438.2222 792,438.7778 792,439.3333 792,439.8889 792,440.4445 792,441 792,441.5555 792,442.1111 792,442.6667 792,443.2222 792,443.7778 792,444.3333 792,444.8889 792,445.4445 792,446 792,446.5555 792,447.1111 792,447.6667 792,448.2222 792,448.7778 792,449.3333 792,449.8889 792,450.4444 792,451 792,451.5555 792,452.1111 792,452.6667 792,453.2222 792,453.7778 792,454.3333 792,454.8889 792,455.4444 792,456 792,456.5555 792,457.1111 792,457.6667 792,458.2222 792,458.7778 792,459.3333 792,459.8889 792,460.4445 792,461 792,461.5556 792,462.1111 792,462.6667 792,463.2222 792,463.7778 792,464.3333 792,464.8889 792,465.4445 792,466 792,466.5555 792,467.1111 792,467.6667 792,468.2222 792,468.7778 792,469.3333 792,469.8889 792,470.4445 792,471 792,471.5555 792,472.1111 792,472.6667 792,473.2222 792,473.7778 792,474.3333 792,474.8889 792,475.4445 792,476 792,476.5556 792,477.1111 792,477.6667 792,478.2222 792,478.7778 792,479.3333 792,479.8889 792,480.4444 792,481 792,481.5555 792,482.1111 792,482.6667 792,483.2222 792,483.7778 792,484.3333 792,484.8889 792,485.4445 792,486 792,486.5555 792,487.1111 792,487.6667 792,488.2222 792,488.7778 792,489.3333 792,489.8889 792,490.4445 792,491 792,491.5556 792,492.1111 792,492.6667 792,493.2222 792,493.7778 792,494.3333 792,494.8889 792,495.4444 792,496 792,496.5555 792,497.1111 792,497.6667 792,498.2222 792,498.7778 792,499.3333 792,499.8889 792,500.4445 792,501 792,501.5555 792,502.1111 792,502.6667 792,503.2222 792,503.7778 792,504.3333 792,504.8889 792,505.4445 792,506 792,506.5555 792,507.1111 792,507.6667 792,508.2222 792,508.7778 792,509.3333 792,509.8889 792,510.4444 792,511 792,511.5555 792,512.1111 792,512.6667 792,513.2222 792,513.7778 792,514.3333 792,514.8889 792,515.4445 792,516 792,516.5555 792,517.1111 792,517.6667 792,518.2222 792,518.7778 792,519.3333 792,519.8889 792,520.4445 792,521 792,521.5555 792,522.1111 792,522.6667 792,523.2222 792,523.7778 792,524.3333 792,524.8889 792,525.4445 792,526 792,526.5555 792,527.1111 792,527.6667 792,528.2222 792,528.7778 792,529.3333 792,529.8889 792,530.4445 792,531 792,531.5555 792,532.1111 792,532.6667 792,533.2222 792,533.7778 792,534.3333 792,534.8889 792,535.4445 792,536 792,536.5555 792,537.1111 792,537.6667 792,538.2222 792,538.7778 792,539.3333 792,539.8889 792,540.4445 792,541 792,541.5555 792,542.1111 792,542.6667 792,543.2222 792,543.7778 792,544.3333 792,544.8889 792,545.4445 792,546 792,546.5555 792,547.1111 792,547.6667 792,548.2222 792,548.7778 792,549.3333 792,549.8889 792,550.4445 792,551 792,551.5555 792,552.1111 792,552.6667 792,553.2222 792,553.7778 792,554.3333 792,554.8889 792,555.4445 792,556 792,556.5555 792,557.1111 792,557.6667 792,558.2222 792,558.7778 792,559.3333 792,559.8889 792,560.4445 792,561 792,561.5555 792,562.1111 792,562.6667 792,563.2222 792,563.7778 792,564.3333 792,564.8889 792,565.4445 792,566 792,566.5555 792,567.1111 792,567.6667 792,568.2222 792,568.7778 792,569.3333 792,569.8889 792,570.4445 792,571 792,571.5555 792,572.1111 792,572.6667 792,573.2222 792,573.7778 792,574.3333 792,574.8889 792,575.4445 792,576 "
id = "215" />
</svg>
