<?xml version="1.0" encoding="UTF-8" standalone="no"?>
<svg
   width="864"
   height="1152"
   version="1.1"
   id="svg2"
   sodipodi:docname="MixedAntibody0.svg"
   inkscape:version="1.2.1 (9c6d41e410, 2022-07-14)"
   xmlns:inkscape="http://www.inkscape.org/namespaces/inkscape"
   xmlns:sodipodi="http://sodipodi.sourceforge.net/DTD/sodipodi-0.dtd"
   xmlns="http://www.w3.org/2000/svg"
   xmlns:svg="http://www.w3.org/2000/svg">
  <sodipodi:namedview
     id="namedview15023"
     pagecolor="#ffffff"
     bordercolor="#000000"
     borderopacity="0.25"
     inkscape:showpageshadow="2"
     inkscape:pageopacity="0.0"
     inkscape:pagecheckerboard="0"
     inkscape:deskcolor="#d1d1d1"
     showgrid="false"
     inkscape:zoom="1.7829861"
     inkscape:cx="319.96884"
     inkscape:cy="240.04674"
     inkscape:window-width="2560"
     inkscape:window-height="1387"
     inkscape:window-x="-8"
     inkscape:window-y="-8"
     inkscape:window-maximized="1"
     inkscape:current-layer="svg2" />
  <defs
     id="defs6" />
  <path
     style="fill:none;stroke:#000000;stroke-width:0.5;stroke-opacity:1;stroke-dasharray:none"
     d="M 525,549 525,550 526,550 527,550 528,550 529,550 530,550 531,550 532,551 533,551 534,551 535,551 536,551 537,551 538,551 539,552 540,552 541,552 542,552 543,552 544,552 545,552 546,553 547,553 548,553 549,553 550,553 551,553 552,553 553,554 554,554 555,554 556,554 557,554 558,554 559,554 560,555 561,555 562,555 563,555 564,555 565,555 566,556 567,556 568,556 569,556 570,556 571,556 572,557 573,557 574,557 575,557 576,557 577,558 578,558 579,558 580,558 581,559 582,559 583,559 584,559 585,560 586,560 587,560 588,561 589,561 590,561 591,561 592,562 593,562 594,562 595,563 596,563 597,563 598,563 598,562 599,561 599,560 600,559 600,558 600,557 601,556 601,555 602,554 602,553 603,552 603,551 603,550 604,549 604,548 605,547 605,546 606,545 606,544 607,543 607,542 608,541 608,540 609,539 610,538 610,537 611,536 611,535 612,534 612,533 613,532 613,531 614,530 614,529 615,528 616,527 616,526 617,525 617,524 618,523 618,522 618,521 617,521 616,521 615,520 614,520 613,519 612,519 611,519 610,518 609,518 608,517 607,517 606,517 605,516 604,516 603,516 602,515 601,515 600,514 599,514 598,514 597,513 596,513 595,513 594,512 593,512 592,511 591,511 590,511 589,510 588,510 587,510 586,509 585,509 584,509 583,508 582,508 581,508 580,507 579,507 578,507 577,507 576,506 575,506 574,506 573,505 572,505 571,505 570,504 569,504 568,504 567,504 566,503 565,503 564,503 563,503 562,502 561,502 560,502 559,502 558,501 557,501 556,501 555,501 554,500 553,500 552,500 551,500 550,500 549,499 548,499 547,499 546,499 545,498 544,498 543,498 542,498 541,497 540,497 539,497 538,497 537,496 536,496 535,496 534,496 535,495 535,494 535,493 536,492 536,491 536,490 536,489 536,488 537,487 537,486 537,485 537,484 538,483 538,482 538,481 538,480 539,479 539,478 539,477 539,476 540,475 540,474 540,473 540,472 541,471 541,470 541,469 541,468 542,467 542,466 542,465 542,464 542,463 543,462 543,461 543,460 543,459 544,458 544,457 544,456 544,455 544,454 545,453 545,452 545,451 545,450 545,449 545,448 546,447 546,446 547,446 548,447 549,447 550,447 551,448 552,448 553,448 554,449 555,449 556,449 557,450 558,450 559,450 560,451 561,451 562,451 563,451 564,452 565,452 566,452 567,453 568,453 569,454 570,454 571,454 572,455 573,455 574,455 575,456 576,456 577,456 578,457 579,457 580,457 581,458 582,458 583,459 584,459 585,459 586,460 587,460 588,461 589,461 590,461 591,462 592,462 593,463 594,463 595,463 596,464 597,464 598,465 599,465 600,466 601,466 602,466 603,467 604,467 605,468 606,468 607,468 608,469 609,469 610,470 611,470 612,471 613,471 614,471 615,472 616,472 617,473 618,473 619,473 620,474 621,474 622,475 623,475 624,475 625,476 626,476 627,477 628,477 629,477 630,478 631,478 632,478 633,479 634,479 635,480 636,480 637,480 638,480 638,479 639,478 639,477 639,476 639,475 640,474 640,473 640,472 640,471 641,470 641,469 641,468 641,467 642,466 642,465 642,464 642,463 643,462 643,461 643,460 643,459 643,458 644,457 644,456 644,455 644,454 644,453 644,452 645,451 645,450 645,449 645,448 645,447 645,446 645,445 646,444 646,443 646,442 646,441 646,440 646,439 646,438 646,437 646,436 647,435 647,434 647,433 647,432 647,431 647,430 647,429 647,428 648,428 649,428 650,428 651,429 652,429 653,429 654,429 655,429 656,430 657,430 658,430 659,430 660,430 661,430 662,430 663,430 664,430 665,431 666,431 667,431 668,431 669,431 670,431 671,431 672,431 673,431 674,431 675,431 676,431 677,431 678,430 679,430 680,430 681,430 682,430 683,430 684,430 685,430 686,429 687,429 688,429 689,429 690,429 691,429 692,428 693,428 694,428 695,428 696,427 697,427 698,427 699,426 700,426 701,426 702,426 703,426 703,425 704,424 704,423 704,422 704,421 704,420 704,419 704,418 704,417 704,416 704,415 704,414 704,413 704,412 704,411 704,410 704,409 704,408 704,407 704,406 704,405 704,404 704,403 704,402 704,401 704,400 704,399 704,398 704,397 704,396 704,395 704,394 704,393 704,392 704,391 704,390 704,389 704,388 704,387 704,386 704,385 704,384 704,383 704,382 704,381 704,380 704,379 704,378 704,377 703,376 703,375 703,374 703,373 703,372 703,371 703,370 703,369 703,368 703,367 703,366 703,365 703,364 703,363 702,362 702,361 701,360 701,359 701,358 701,357 701,356 701,355 701,354 701,353 700,352 700,351 700,350 700,349 700,348 700,347 700,346 699,345 699,344 699,343 699,342 699,341 699,340 698,339 698,338 698,337 698,336 698,335 698,334 697,333 697,332 697,331 697,330 697,329 696,328 696,327 696,326 696,325 696,324 695,323 695,322 695,321 695,320 694,319 694,318 694,317 694,316 693,315 693,314 693,313 693,312 692,311 692,310 692,309 692,308 691,307 691,306 691,305 691,304 690,303 690,302 690,301 689,300 689,299 689,298 689,297 688,296 688,295 688,294 687,293 687,292 687,291 686,290 686,289 686,288 685,287 685,286 685,285 685,284 684,283 684,282 684,281 683,280 683,279 682,279 681,279 680,280 679,280 678,281 677,281 676,282 675,282 674,282 673,283 672,283 671,283 670,284 669,284 668,284 667,285 666,285 665,285 664,285 663,286 662,286 661,286 660,286 659,287 658,287 657,287 656,287 655,287 654,287 653,288 652,288 651,288 650,288 649,288 648,288 647,288 646,288 645,288 644,288 643,288 642,288 641,288 640,288 639,288 638,288 637,288 636,288 635,288 634,288 633,288 632,287 631,287 630,287 629,287 628,287 627,286 626,286 625,286 624,286 623,286 622,286 621,286 620,286 619,285 618,285 617,285 616,285 615,285 614,285 613,285 612,284 611,284 610,284 609,284 608,284 607,284 606,283 605,283 604,283 603,283 602,283 601,282 600,282 599,282 598,282 597,282 596,282 595,281 594,281 593,281 592,281 591,281 590,281 589,280 588,280 587,280 586,280 585,280 584,280 583,279 582,279 581,279 580,279 579,279 578,279 577,278 576,278 575,278 574,278 573,278 572,278 571,277 570,277 569,277 568,277 567,277 566,277 565,277 564,276 564,275 564,274 564,273 564,272 564,271 564,270 564,269 564,268 564,267 564,266 564,265 564,264 564,263 564,262 564,261 564,260 564,259 564,258 564,257 564,256 564,255 564,254 564,253 564,252 564,251 564,250 564,249 564,248 564,247 563,246 563,245 563,244 563,243 563,242 563,241 563,240 563,239 563,238 563,237 563,236 563,235 563,234 563,233 563,232 563,231 563,230 563,229 563,228 563,227 563,226 562,225 562,224 562,223 562,222 562,221 562,220 562,219 562,218 562,217 562,216 562,215 562,214 562,213 562,212 563,212 564,212 565,212 566,212 567,212 568,211 569,211 570,211 571,211 572,211 573,211 574,210 575,210 576,210 577,210 578,210 579,210 580,209 581,209 582,209 583,209 584,208 585,208 586,208 587,208 588,207 589,207 590,207 591,207 592,206 593,206 594,206 595,206 596,205 597,205 598,205 599,204 600,204 601,204 602,203 603,203 604,203 605,202 606,202 607,202 608,201 609,201 609,202 609,203 610,204 610,205 610,206 610,207 610,208 611,209 611,210 611,211 611,212 612,213 612,214 612,215 612,216 613,217 613,218 613,219 613,220 614,221 614,222 614,223 614,224 615,225 615,226 615,227 615,228 616,229 616,230 616,231 616,232 617,233 617,234 617,235 617,236 618,237 618,238 618,239 618,240 619,241 619,242 619,243 620,244 620,245 620,246 620,247 621,248 621,249 621,250 622,251 622,252 622,253 622,254 623,255 623,256 623,257 624,258 624,259 624,260 624,261 625,262 625,263 625,264 626,265 626,266 626,267 626,268 627,269 627,270 627,271 628,272 628,273 628,274 629,275 629,276 629,277 629,278 630,279 630,280 630,281 631,282 631,283 631,284 631,285 632,286 634,289 634,290 634,291 635,292 635,293 635,294 635,295 636,296 636,297 636,298 636,299 637,300 637,301 637,302 638,303 638,304 638,305 638,306 639,307 639,308 639,309 639,310 640,311 640,312 640,313 640,314 641,315 641,316 641,317 641,318 642,319 642,320 642,321 642,322 643,323 643,324 643,325 643,326 643,327 644,328 644,329 644,330 644,331 644,332 645,333 645,334 645,335 645,336 645,337 645,338 646,339 646,340 646,341 646,342 646,343 646,344 647,345 647,346 647,347 647,348 647,349 647,350 647,351 647,352 648,353 648,354 648,355 648,356 648,357 648,358 648,359 648,360 648,361 648,362 648,363 649,364 649,365 649,366 650,366 651,366 652,366 653,367 654,367 655,367 656,367 657,367 658,367 659,367 660,367 661,367 662,367 663,367 664,367 665,368 666,368 667,368 668,367 669,367 670,367 671,367 672,367 673,367 674,367 675,367 676,367 677,367 678,367 679,366 680,366 681,366 682,366 683,366 684,366 685,365 686,365 687,365 688,365 689,364 690,364 691,364 692,363 693,363 694,363 695,362 696,362 697,362 698,361 699,361 700,360 703,360 704,360 705,359 706,359 707,358 708,358 709,357 710,357 711,356 712,356 713,355 714,355 715,354 716,354 717,353 718,353 719,352 720,352 721,351 722,350 723,350 724,349 725,349 726,348 727,348 728,347 729,346 730,346 731,345 732,345 733,344 734,343 735,343 736,342 737,342 738,341 739,340 740,340 741,341 741,342 741,343 741,344 741,345 741,346 741,347 741,348 742,349 742,350 742,351 742,352 742,353 742,354 742,355 742,356 742,357 743,358 743,359 743,360 743,361 743,362 743,363 743,364 743,365 743,366 743,367 743,368 743,369 743,370 744,371 744,372 744,373 744,374 744,375 744,376 744,377 744,378 744,379 744,380 744,381 744,382 744,383 744,384 744,385 744,386 744,387 744,388 744,389 744,390 744,391 744,392 744,393 744,394 744,395 744,396 744,397 744,398 745,399 745,400 745,401 745,402 745,403 745,404 745,405 744,406 743,406 742,407 741,407 740,408 739,408 738,409 737,409 736,410 735,410 734,411 733,411 732,412 731,412 730,413 729,413 728,414 727,414 726,415 725,415 724,416 723,416 722,417 721,417 720,417 719,418 718,418 717,419 716,419 715,420 714,420 713,420 712,421 711,421 710,422 709,422 708,422 707,423 706,423 705,424 703,427 703,428 703,429 703,430 703,431 703,432 703,433 703,434 703,435 703,436 703,437 703,438 703,439 703,440 703,441 703,442 703,443 703,444 703,445 703,446 703,447 703,448 703,449 703,450 703,451 703,452 703,453 703,454 703,455 703,456 703,457 703,458 703,459 703,460 703,461 703,462 703,463 703,464 703,465 703,466 703,467 703,468 703,469 703,470 703,471 703,472 703,473 703,474 703,475 703,476 703,477 703,478 703,479 703,480 703,481 703,482 703,483 703,484 703,485 703,486 702,486 701,487 700,487 699,487 698,487 697,487 696,487 695,487 694,488 693,488 692,488 691,488 690,488 689,488 688,488 687,488 686,488 685,488 684,488 683,488 682,488 681,488 680,488 679,488 678,488 677,488 676,488 675,488 674,488 673,488 672,488 671,487 670,487 669,487 668,487 667,487 666,487 665,487 664,486 663,486 662,486 661,486 660,486 659,485 658,485 657,485 656,485 655,485 654,484 653,484 652,484 651,484 650,483 649,483 648,483 647,482 646,482 645,482 644,482 643,481 642,481 641,481 640,480 639,480 637,481 636,482 636,483 636,484 635,485 635,486 634,487 634,488 634,489 633,490 633,491 633,492 632,493 632,494 631,495 631,496 630,497 630,498 630,499 629,500 629,501 628,502 628,503 627,504 627,505 626,506 626,507 625,508 625,509 624,510 624,511 623,512 622,513 622,514 621,515 621,516 620,517 620,518 619,519 619,520 619,523 620,523 621,524 622,524 623,524 624,525 625,525 626,526 627,526 628,526 629,527 630,527 631,528 632,528 633,528 634,529 635,529 636,530 637,530 638,530 639,531 640,531 641,532 642,532 643,532 644,533 645,533 646,534 647,534 648,534 649,535 650,535 651,535 652,536 653,536 654,536 655,537 656,537 657,537 658,538 659,538 660,538 661,539 662,539 663,539 664,540 665,540 666,540 667,540 668,541 669,541 670,541 671,542 672,542 673,542 674,542 675,543 676,543 677,543 678,543 679,544 680,544 681,544 682,544 683,544 684,545 685,545 686,545 687,545 688,545 689,545 690,545 691,546 692,546 693,546 694,546 695,546 696,546 697,546 698,546 699,546 700,546 701,546 701,545 701,544 701,543 701,542 701,541 701,540 701,539 701,538 701,537 702,536 702,535 702,534 702,533 702,532 702,531 702,530 702,529 702,528 702,527 702,526 702,525 702,524 702,523 702,522 702,521 703,520 703,519 703,518 703,517 703,516 703,515 703,514 703,513 703,512 703,511 703,510 703,509 703,508 703,507 703,506 703,505 703,504 703,503 703,502 703,501 703,500 703,499 703,498 703,497 703,496 703,495 703,494 703,493 704,492 704,491 704,490 704,489 704,488 704,487 705,487 706,487 707,486 708,486 709,486 710,486 711,485 712,485 713,485 714,484 715,484 716,484 717,483 718,483 719,483 720,482 721,482 722,482 723,481 724,481 725,481 726,480 727,480 728,479 729,479 730,479 731,478 732,478 733,477 734,477 735,476 736,476 737,475 738,475 739,475 740,474 741,474 742,473 743,473 744,472 745,472 746,471 747,470 747,469 747,468 747,467 747,466 747,465 747,464 747,463 747,462 747,461 747,460 747,459 747,458 747,457 747,456 747,455 747,454 747,453 747,452 747,451 746,450 746,449 746,448 746,447 746,446 746,445 746,444 746,443 746,442 746,441 746,440 746,439 746,438 746,437 746,436 746,435 746,434 746,433 746,432 746,431 746,430 746,429 746,428 746,427 746,426 746,425 746,424 746,423 746,422 746,421 746,420 746,419 746,418 746,417 746,416 746,415 746,414 746,413 746,412 746,411 746,410 746,409 746,408 746,407 746,406 747,405 748,405 749,404 750,404 751,403 752,403 753,403 754,402 755,402 756,401 757,401 758,400 759,400 760,399 761,399 762,398 763,398 764,397 765,397 766,397 767,396 768,396 769,395 770,395 771,394 772,394 773,394 774,393 775,393 776,392 777,392 778,392 779,391 780,391 781,390 782,390 783,390 784,389 785,389 786,388 787,388 787,384 787,383 787,382 787,381 787,380 787,379 787,378 787,377 787,376 787,375 787,374 787,373 787,372 787,371 787,370 787,369 787,368 787,367 787,366 787,365 786,364 786,363 786,362 786,361 786,360 786,359 786,358 786,357 786,356 786,355 786,354 786,353 786,352 785,351 785,350 785,349 785,348 785,347 785,346 785,345 785,344 785,343 785,342 785,341 784,340 784,339 784,338 784,337 784,336 784,335 784,334 784,333 784,332 783,331 783,330 783,329 783,328 783,327 783,326 783,325 783,324 782,323 782,322 782,321 782,320 782,319 781,319 781,318 781,317 780,316 780,315 780,314 780,313 780,312 780,311 780,310 779,309 779,308 779,307 779,306 779,305 779,304 779,303 778,302 778,301 778,300 778,299 778,298 778,297 777,296 777,295 777,294 777,293 777,292 777,291 777,290 776,289 776,288 776,287 776,286 776,285 776,284 775,283 775,282 775,281 775,280 775,279 775,278 775,277 774,276 774,275 774,274 774,273 774,272 774,271 773,270 773,269 773,268 773,267 773,266 773,265 772,264 772,263 772,262 772,261 772,260 772,259 772,258 771,257 771,256 771,255 771,254 771,253 771,252 771,251 770,250 770,249 770,248 770,247 770,246 769,246 768,246 767,246 766,246 765,246 764,246 763,246 762,247 761,247 760,247 759,247 758,247 757,247 756,248 755,248 754,248 753,248 752,249 751,249 750,249 749,249 748,249 747,250 746,250 745,250 744,251 743,251 742,251 741,251 740,252 739,252 738,252 737,253 736,253 735,253 734,254 733,254 732,254 731,255 730,255 729,255 728,256 727,256 726,257 725,257 724,258 724,259 724,260 724,261 725,262 725,263 725,264 725,265 726,266 726,267 726,268 727,269 727,270 727,271 727,272 728,273 728,274 728,275 728,276 729,277 729,278 729,279 729,280 730,281 730,282 730,283 730,284 731,285 731,286 731,287 731,288 732,289 732,290 732,291 732,292 733,293 733,294 733,295 733,296 734,297 734,298 734,299 734,300 734,301 735,302 735,303 735,304 735,305 736,306 736,307 736,308 736,309 736,310 737,311 737,312 737,313 737,314 737,315 738,316 738,317 738,318 738,319 738,320 738,321 739,322 739,323 739,324 739,325 739,326 739,327 740,328 740,329 740,330 740,331 740,332 740,333 741,334 741,335 741,336 741,337 741,338 742,338 743,337 744,336 745,336 746,335 747,335 748,334 749,334 750,333 751,332 752,332 753,331 754,331 755,330 756,330 757,329 758,329 759,328 760,328 761,327 762,327 763,326 764,326 765,325 766,325 767,324 768,324 769,323 770,323 771,323 772,322 773,322 774,321 775,321 776,321 777,320 778,320 779,319 780,319 783,319 784,319 785,318 786,318 787,318 787,317 787,319 787,320 787,321 787,322 787,323 787,324 787,325 787,326 787,327 787,328 787,329 787,330 "
     id="24" />
  <path
     style="fill:none;stroke:#000000;stroke-width:0.5;stroke-opacity:1;stroke-dasharray:none"
     d="M 705,191 705,192 705,193 705,194 706,195 706,196 706,197 706,198 707,199 707,200 707,201 707,202 708,203 708,204 708,205 708,206 709,207 709,208 709,209 709,210 710,211 710,212 710,213 710,214 711,215 711,216 711,217 711,218 712,219 712,220 712,221 713,222 713,223 713,224 713,225 714,226 714,227 714,228 714,229 715,230 715,231 715,232 716,233 716,234 716,235 716,236 717,237 717,238 717,239 718,240 718,241 718,242 718,243 719,244 719,245 719,246 720,247 720,248 720,249 720,250 721,251 721,252 721,253 721,254 722,255 722,256 722,257 721,258 720,258 719,259 718,259 717,260 716,260 715,261 714,261 713,262 712,262 711,263 710,263 709,264 708,264 707,265 706,265 705,266 704,266 703,267 702,267 701,268 700,269 699,269 698,270 697,270 696,271 695,271 694,272 693,272 692,273 691,273 690,274 689,274 688,275 687,275 686,276 685,276 684,277 683,277 683,276 683,275 682,274 682,273 681,272 681,271 681,270 680,269 680,268 680,267 679,266 679,265 679,264 678,263 678,262 678,261 677,260 677,259 677,258 676,257 676,256 675,255 675,254 675,253 674,252 674,251 674,250 673,249 673,248 673,247 672,246 672,245 671,244 671,243 671,242 670,241 670,240 670,239 669,238 669,237 669,236 668,235 668,234 668,233 667,232 667,231 666,230 666,229 666,228 665,227 665,226 665,225 664,224 664,223 664,222 663,221 663,220 663,219 662,218 662,217 662,216 661,215 661,214 661,213 660,212 660,211 660,210 659,209 659,208 659,207 658,206 658,205 658,204 658,203 657,202 657,201 657,200 656,199 656,198 656,197 655,196 655,195 655,194 655,193 654,192 654,191 654,190 653,189 653,188 653,187 653,186 652,185 652,184 652,183 652,182 653,182 654,181 655,181 656,180 657,180 658,180 659,179 660,179 661,179 662,178 663,178 664,178 665,178 666,177 667,177 668,177 669,176 670,176 671,176 672,176 673,176 674,175 675,175 676,175 677,175 678,175 679,174 680,174 681,174 682,174 683,174 684,174 685,174 686,174 687,173 688,173 689,173 690,173 691,173 692,173 693,173 694,173 695,173 696,173 697,173 698,173 699,173 700,173 701,173 701,174 701,175 702,176 702,177 702,178 702,179 702,180 703,181 703,182 703,183 703,184 703,185 704,186 704,187 704,188 704,189 704,190 705,191 "
     id="27" />
  <path
     style="fill:none;stroke:#000000;stroke-width:0.5;stroke-opacity:1;stroke-dasharray:none"
     d="M 555,144 554,144 553,145 552,145 551,145 550,146 549,146 548,146 547,147 546,147 545,147 544,148 543,148 542,148 541,148 540,149 539,149 538,149 537,150 536,150 535,150 534,151 533,151 532,151 531,151 530,152 529,152 528,152 527,152 526,152 525,153 524,153 523,153 522,153 521,153 520,154 519,154 518,154 517,154 516,154 515,154 514,155 513,155 512,155 511,155 510,155 509,155 508,155 507,155 507,156 507,157 507,158 507,159 507,160 507,161 507,162 507,163 507,164 507,165 507,166 507,167 507,168 507,169 507,170 507,171 507,172 507,173 507,174 507,175 507,176 507,177 507,178 507,179 507,180 507,181 507,182 507,183 507,184 507,185 507,186 507,187 507,188 507,189 507,190 507,191 507,192 506,193 506,194 506,195 506,196 506,197 506,198 506,199 506,200 506,201 506,202 506,203 506,204 505,205 505,206 505,207 505,208 505,209 505,210 505,211 505,212 505,213 505,214 504,214 506,214 507,214 508,214 509,214 510,214 511,214 512,214 513,214 514,214 515,215 516,215 517,215 518,215 519,215 520,215 521,215 522,215 523,215 524,215 525,215 526,215 527,215 528,215 529,215 530,214 531,214 532,214 533,214 534,214 535,214 536,214 537,214 538,214 539,214 540,214 541,214 542,214 543,214 544,213 545,213 546,213 547,213 548,213 549,213 550,213 551,213 552,213 553,212 554,212 555,212 556,212 557,212 558,212 559,212 560,212 560,211 560,210 560,209 560,208 560,207 560,206 560,205 560,204 560,203 560,202 560,201 560,200 560,199 559,198 559,197 559,196 559,195 559,194 559,193 559,192 559,191 559,190 559,189 559,188 559,187 558,186 558,185 558,184 558,183 558,182 558,181 558,180 558,179 558,178 558,177 558,176 557,175 557,174 557,173 557,172 557,171 557,170 557,169 557,168 557,167 557,166 557,165 556,164 556,163 556,162 556,161 556,160 556,159 556,158 556,157 556,156 556,155 556,154 556,153 555,152 555,151 555,150 555,149 555,148 555,147 555,146 555,145 555,144 "
     id="30" />
  <path
     style="fill:none;stroke:#000000;stroke-width:0.5;stroke-opacity:1;stroke-dasharray:none"
     d="M 598,130 598,129 598,128 598,127 598,126 599,125 600,125 601,124 602,124 603,123 604,123 605,122 606,122 607,121 608,121 609,120 610,120 611,119 612,119 613,118 614,118 615,118 616,117 617,117 618,116 619,116 620,115 621,115 622,115 623,114 624,114 625,113 626,113 627,113 628,112 629,112 630,112 631,111 632,111 633,111 634,110 635,110 636,110 637,109 638,109 639,109 640,109 640,110 640,111 640,112 640,113 640,114 640,115 640,116 640,117 640,118 641,119 641,120 641,121 641,122 641,123 641,124 641,125 641,126 641,127 641,128 641,129 641,130 642,131 642,132 642,133 642,134 642,135 642,136 642,137 642,138 642,139 643,140 643,141 643,142 643,143 643,144 643,145 643,146 644,147 644,148 644,149 644,150 644,151 644,152 645,153 645,154 645,155 645,156 645,157 645,158 646,159 646,160 646,161 646,162 646,163 647,164 647,165 647,166 647,167 647,168 648,169 648,170 648,171 648,172 648,173 649,174 649,175 649,176 649,177 650,178 650,179 650,180 650,181 650,182 649,182 648,183 647,183 646,183 645,184 644,184 643,185 642,185 641,186 640,186 639,187 638,187 637,187 636,188 635,188 634,189 633,189 632,190 631,190 630,191 629,191 628,192 627,192 626,193 625,193 624,193 623,194 622,194 621,195 620,195 619,196 618,196 617,197 616,197 615,197 614,198 613,198 612,199 611,199 610,199 609,199 609,198 609,197 609,196 609,195 608,194 608,193 608,192 608,191 608,190 607,189 607,188 607,187 607,186 607,185 606,184 606,183 606,182 606,181 606,180 605,179 605,178 605,177 605,176 605,175 605,174 604,173 604,172 604,171 604,170 604,169 604,168 603,167 603,166 603,165 603,164 603,163 603,162 602,161 602,160 602,159 602,158 602,157 602,156 602,155 601,154 601,153 601,152 601,151 601,150 601,149 601,148 600,147 600,146 600,145 600,144 600,143 600,142 600,141 600,140 599,139 599,138 599,137 599,136 599,135 599,134 599,133 599,132 598,130 "
     id="87" />
  <path
     style="fill:none;stroke:#000000;stroke-width:0.5;stroke-opacity:1;stroke-dasharray:none"
     d="M 620,286 621,286 622,286 623,286 624,286 625,286 626,286 627,286 628,286 629,286 630,286 631,286 632,286 607,284 608,284 609,284 610,284 611,284 612,284 613,284 614,284 615,284 616,284 617,284 618,284 619,284 620,284 621,284 622,284 623,284 624,284 625,284 626,284 627,284 628,284 629,284 630,284 631,284 596,282 597,282 598,282 599,282 600,282 601,282 602,282 603,282 604,282 605,282 606,282 607,282 608,282 609,282 610,282 611,282 612,282 613,282 614,282 615,282 616,282 617,282 618,282 619,282 620,282 621,282 622,282 623,282 624,282 625,282 626,282 627,282 628,282 629,282 630,282 631,282 584,280 585,280 586,280 587,280 588,280 589,280 590,280 591,280 592,280 593,280 594,280 595,280 596,280 597,280 598,280 599,280 600,280 601,280 602,280 603,280 604,280 605,280 606,280 607,280 608,280 609,280 610,280 611,280 612,280 613,280 614,280 615,280 616,280 617,280 618,280 619,280 620,280 621,280 622,280 623,280 624,280 625,280 626,280 627,280 628,280 629,280 630,280 572,278 573,278 574,278 575,278 576,278 577,278 578,278 579,278 580,278 581,278 582,278 583,278 584,278 585,278 586,278 587,278 588,278 589,278 590,278 591,278 592,278 593,278 594,278 595,278 596,278 597,278 598,278 599,278 600,278 601,278 602,278 603,278 604,278 605,278 606,278 607,278 608,278 609,278 610,278 611,278 612,278 613,278 614,278 615,278 616,278 617,278 618,278 619,278 620,278 621,278 622,278 623,278 624,278 625,278 626,278 627,278 628,278 629,278 564,276 565,276 566,276 567,276 568,276 569,276 570,276 571,276 572,276 573,276 574,276 575,276 576,276 577,276 578,276 579,276 580,276 581,276 582,276 583,276 584,276 585,276 586,276 587,276 588,276 589,276 590,276 591,276 592,276 593,276 594,276 595,276 596,276 597,276 598,276 599,276 600,276 601,276 602,276 603,276 604,276 605,276 606,276 607,276 608,276 609,276 610,276 611,276 612,276 613,276 614,276 615,276 616,276 617,276 618,276 619,276 620,276 621,276 622,276 623,276 624,276 625,276 626,276 627,276 628,276 629,276 564,274 565,274 566,274 567,274 568,274 569,274 570,274 571,274 572,274 573,274 574,274 575,274 576,274 577,274 578,274 579,274 580,274 581,274 582,274 583,274 584,274 585,274 586,274 587,274 588,274 589,274 590,274 591,274 592,274 593,274 594,274 595,274 596,274 597,274 598,274 599,274 600,274 601,274 602,274 603,274 604,274 605,274 606,274 607,274 608,274 609,274 610,274 611,274 612,274 613,274 614,274 615,274 616,274 617,274 618,274 619,274 620,274 621,274 622,274 623,274 624,274 625,274 626,274 627,274 628,274 564,272 565,272 566,272 567,272 568,272 569,272 570,272 571,272 572,272 573,272 574,272 575,272 576,272 577,272 578,272 579,272 580,272 581,272 582,272 583,272 584,272 585,272 586,272 587,272 588,272 589,272 590,272 591,272 592,272 593,272 594,272 595,272 596,272 597,272 598,272 599,272 600,272 601,272 602,272 603,272 604,272 605,272 606,272 607,272 608,272 609,272 610,272 611,272 612,272 613,272 614,272 615,272 616,272 617,272 618,272 619,272 620,272 621,272 622,272 623,272 624,272 625,272 626,272 627,272 628,272 564,270 565,270 566,270 567,270 568,270 569,270 570,270 571,270 572,270 573,270 574,270 575,270 576,270 577,270 578,270 579,270 580,270 581,270 582,270 583,270 584,270 585,270 586,270 587,270 588,270 589,270 590,270 591,270 592,270 593,270 594,270 595,270 596,270 597,270 598,270 599,270 600,270 601,270 602,270 603,270 604,270 605,270 606,270 607,270 608,270 609,270 610,270 611,270 612,270 613,270 614,270 615,270 616,270 617,270 618,270 619,270 620,270 621,270 622,270 623,270 624,270 625,270 626,270 627,270 564,268 565,268 566,268 567,268 568,268 569,268 570,268 571,268 572,268 573,268 574,268 575,268 576,268 577,268 578,268 579,268 580,268 581,268 582,268 583,268 584,268 585,268 586,268 587,268 588,268 589,268 590,268 591,268 592,268 593,268 594,268 595,268 596,268 597,268 598,268 599,268 600,268 601,268 602,268 603,268 604,268 605,268 606,268 607,268 608,268 609,268 610,268 611,268 612,268 613,268 614,268 615,268 616,268 617,268 618,268 619,268 620,268 621,268 622,268 623,268 624,268 625,268 626,268 564,266 565,266 566,266 567,266 568,266 569,266 570,266 571,266 572,266 573,266 574,266 575,266 576,266 577,266 578,266 579,266 580,266 581,266 582,266 583,266 584,266 585,266 586,266 587,266 588,266 589,266 590,266 591,266 592,266 593,266 594,266 595,266 596,266 597,266 598,266 599,266 600,266 601,266 602,266 603,266 604,266 605,266 606,266 607,266 608,266 609,266 610,266 611,266 612,266 613,266 614,266 615,266 616,266 617,266 618,266 619,266 620,266 621,266 622,266 623,266 624,266 625,266 626,266 564,264 565,264 566,264 567,264 568,264 569,264 570,264 571,264 572,264 573,264 574,264 575,264 576,264 577,264 578,264 579,264 580,264 581,264 582,264 583,264 584,264 585,264 586,264 587,264 588,264 589,264 590,264 591,264 592,264 593,264 594,264 595,264 596,264 597,264 598,264 599,264 600,264 601,264 602,264 603,264 604,264 605,264 606,264 607,264 608,264 609,264 610,264 611,264 612,264 613,264 614,264 615,264 616,264 617,264 618,264 619,264 620,264 621,264 622,264 623,264 624,264 625,264 564,262 565,262 566,262 567,262 568,262 569,262 570,262 571,262 572,262 573,262 574,262 575,262 576,262 577,262 578,262 579,262 580,262 581,262 582,262 583,262 584,262 585,262 586,262 587,262 588,262 589,262 590,262 591,262 592,262 593,262 594,262 595,262 596,262 597,262 598,262 599,262 600,262 601,262 602,262 603,262 604,262 605,262 606,262 607,262 608,262 609,262 610,262 611,262 612,262 613,262 614,262 615,262 616,262 617,262 618,262 619,262 620,262 621,262 622,262 623,262 624,262 625,262 564,260 565,260 566,260 567,260 568,260 569,260 570,260 571,260 572,260 573,260 574,260 575,260 576,260 577,260 578,260 579,260 580,260 581,260 582,260 583,260 584,260 585,260 586,260 587,260 588,260 589,260 590,260 591,260 592,260 593,260 594,260 595,260 596,260 597,260 598,260 599,260 600,260 601,260 602,260 603,260 604,260 605,260 606,260 607,260 608,260 609,260 610,260 611,260 612,260 613,260 614,260 615,260 616,260 617,260 618,260 619,260 620,260 621,260 622,260 623,260 624,260 564,258 565,258 566,258 567,258 568,258 569,258 570,258 571,258 572,258 573,258 574,258 575,258 576,258 577,258 578,258 579,258 580,258 581,258 582,258 583,258 584,258 585,258 586,258 587,258 588,258 589,258 590,258 591,258 592,258 593,258 594,258 595,258 596,258 597,258 598,258 599,258 600,258 601,258 602,258 603,258 604,258 605,258 606,258 607,258 608,258 609,258 610,258 611,258 612,258 613,258 614,258 615,258 616,258 617,258 618,258 619,258 620,258 621,258 622,258 623,258 624,258 564,256 565,256 566,256 567,256 568,256 569,256 570,256 571,256 572,256 573,256 574,256 575,256 576,256 577,256 578,256 579,256 580,256 581,256 582,256 583,256 584,256 585,256 586,256 587,256 588,256 589,256 590,256 591,256 592,256 593,256 594,256 595,256 596,256 597,256 598,256 599,256 600,256 601,256 602,256 603,256 604,256 605,256 606,256 607,256 608,256 609,256 610,256 611,256 612,256 613,256 614,256 615,256 616,256 617,256 618,256 619,256 620,256 621,256 622,256 623,256 564,254 565,254 566,254 567,254 568,254 569,254 570,254 571,254 572,254 573,254 574,254 575,254 576,254 577,254 578,254 579,254 580,254 581,254 582,254 583,254 584,254 585,254 586,254 587,254 588,254 589,254 590,254 591,254 592,254 593,254 594,254 595,254 596,254 597,254 598,254 599,254 600,254 601,254 602,254 603,254 604,254 605,254 606,254 607,254 608,254 609,254 610,254 611,254 612,254 613,254 614,254 615,254 616,254 617,254 618,254 619,254 620,254 621,254 622,254 564,252 565,252 566,252 567,252 568,252 569,252 570,252 571,252 572,252 573,252 574,252 575,252 576,252 577,252 578,252 579,252 580,252 581,252 582,252 583,252 584,252 585,252 586,252 587,252 588,252 589,252 590,252 591,252 592,252 593,252 594,252 595,252 596,252 597,252 598,252 599,252 600,252 601,252 602,252 603,252 604,252 605,252 606,252 607,252 608,252 609,252 610,252 611,252 612,252 613,252 614,252 615,252 616,252 617,252 618,252 619,252 620,252 621,252 622,252 564,250 565,250 566,250 567,250 568,250 569,250 570,250 571,250 572,250 573,250 574,250 575,250 576,250 577,250 578,250 579,250 580,250 581,250 582,250 583,250 584,250 585,250 586,250 587,250 588,250 589,250 590,250 591,250 592,250 593,250 594,250 595,250 596,250 597,250 598,250 599,250 600,250 601,250 602,250 603,250 604,250 605,250 606,250 607,250 608,250 609,250 610,250 611,250 612,250 613,250 614,250 615,250 616,250 617,250 618,250 619,250 620,250 621,250 564,248 565,248 566,248 567,248 568,248 569,248 570,248 571,248 572,248 573,248 574,248 575,248 576,248 577,248 578,248 579,248 580,248 581,248 582,248 583,248 584,248 585,248 586,248 587,248 588,248 589,248 590,248 591,248 592,248 593,248 594,248 595,248 596,248 597,248 598,248 599,248 600,248 601,248 602,248 603,248 604,248 605,248 606,248 607,248 608,248 609,248 610,248 611,248 612,248 613,248 614,248 615,248 616,248 617,248 618,248 619,248 620,248 621,248 563,246 564,246 565,246 566,246 567,246 568,246 569,246 570,246 571,246 572,246 573,246 574,246 575,246 576,246 577,246 578,246 579,246 580,246 581,246 582,246 583,246 584,246 585,246 586,246 587,246 588,246 589,246 590,246 591,246 592,246 593,246 594,246 595,246 596,246 597,246 598,246 599,246 600,246 601,246 602,246 603,246 604,246 605,246 606,246 607,246 608,246 609,246 610,246 611,246 612,246 613,246 614,246 615,246 616,246 617,246 618,246 619,246 620,246 563,244 564,244 565,244 566,244 567,244 568,244 569,244 570,244 571,244 572,244 573,244 574,244 575,244 576,244 577,244 578,244 579,244 580,244 581,244 582,244 583,244 584,244 585,244 586,244 587,244 588,244 589,244 590,244 591,244 592,244 593,244 594,244 595,244 596,244 597,244 598,244 599,244 600,244 601,244 602,244 603,244 604,244 605,244 606,244 607,244 608,244 609,244 610,244 611,244 612,244 613,244 614,244 615,244 616,244 617,244 618,244 619,244 620,244 563,242 564,242 565,242 566,242 567,242 568,242 569,242 570,242 571,242 572,242 573,242 574,242 575,242 576,242 577,242 578,242 579,242 580,242 581,242 582,242 583,242 584,242 585,242 586,242 587,242 588,242 589,242 590,242 591,242 592,242 593,242 594,242 595,242 596,242 597,242 598,242 599,242 600,242 601,242 602,242 603,242 604,242 605,242 606,242 607,242 608,242 609,242 610,242 611,242 612,242 613,242 614,242 615,242 616,242 617,242 618,242 619,242 563,240 564,240 565,240 566,240 567,240 568,240 569,240 570,240 571,240 572,240 573,240 574,240 575,240 576,240 577,240 578,240 579,240 580,240 581,240 582,240 583,240 584,240 585,240 586,240 587,240 588,240 589,240 590,240 591,240 592,240 593,240 594,240 595,240 596,240 597,240 598,240 599,240 600,240 601,240 602,240 603,240 604,240 605,240 606,240 607,240 608,240 609,240 610,240 611,240 612,240 613,240 614,240 615,240 616,240 617,240 618,240 563,238 564,238 565,238 566,238 567,238 568,238 569,238 570,238 571,238 572,238 573,238 574,238 575,238 576,238 577,238 578,238 579,238 580,238 581,238 582,238 583,238 584,238 585,238 586,238 587,238 588,238 589,238 590,238 591,238 592,238 593,238 594,238 595,238 596,238 597,238 598,238 599,238 600,238 601,238 602,238 603,238 604,238 605,238 606,238 607,238 608,238 609,238 610,238 611,238 612,238 613,238 614,238 615,238 616,238 617,238 618,238 563,236 564,236 565,236 566,236 567,236 568,236 569,236 570,236 571,236 572,236 573,236 574,236 575,236 576,236 577,236 578,236 579,236 580,236 581,236 582,236 583,236 584,236 585,236 586,236 587,236 588,236 589,236 590,236 591,236 592,236 593,236 594,236 595,236 596,236 597,236 598,236 599,236 600,236 601,236 602,236 603,236 604,236 605,236 606,236 607,236 608,236 609,236 610,236 611,236 612,236 613,236 614,236 615,236 616,236 617,236 563,234 564,234 565,234 566,234 567,234 568,234 569,234 570,234 571,234 572,234 573,234 574,234 575,234 576,234 577,234 578,234 579,234 580,234 581,234 582,234 583,234 584,234 585,234 586,234 587,234 588,234 589,234 590,234 591,234 592,234 593,234 594,234 595,234 596,234 597,234 598,234 599,234 600,234 601,234 602,234 603,234 604,234 605,234 606,234 607,234 608,234 609,234 610,234 611,234 612,234 613,234 614,234 615,234 616,234 617,234 563,232 564,232 565,232 566,232 567,232 568,232 569,232 570,232 571,232 572,232 573,232 574,232 575,232 576,232 577,232 578,232 579,232 580,232 581,232 582,232 583,232 584,232 585,232 586,232 587,232 588,232 589,232 590,232 591,232 592,232 593,232 594,232 595,232 596,232 597,232 598,232 599,232 600,232 601,232 602,232 603,232 604,232 605,232 606,232 607,232 608,232 609,232 610,232 611,232 612,232 613,232 614,232 615,232 616,232 563,230 564,230 565,230 566,230 567,230 568,230 569,230 570,230 571,230 572,230 573,230 574,230 575,230 576,230 577,230 578,230 579,230 580,230 581,230 582,230 583,230 584,230 585,230 586,230 587,230 588,230 589,230 590,230 591,230 592,230 593,230 594,230 595,230 596,230 597,230 598,230 599,230 600,230 601,230 602,230 603,230 604,230 605,230 606,230 607,230 608,230 609,230 610,230 611,230 612,230 613,230 614,230 615,230 616,230 563,228 564,228 565,228 566,228 567,228 568,228 569,228 570,228 571,228 572,228 573,228 574,228 575,228 576,228 577,228 578,228 579,228 580,228 581,228 582,228 583,228 584,228 585,228 586,228 587,228 588,228 589,228 590,228 591,228 592,228 593,228 594,228 595,228 596,228 597,228 598,228 599,228 600,228 601,228 602,228 603,228 604,228 605,228 606,228 607,228 608,228 609,228 610,228 611,228 612,228 613,228 614,228 615,228 563,226 564,226 565,226 566,226 567,226 568,226 569,226 570,226 571,226 572,226 573,226 574,226 575,226 576,226 577,226 578,226 579,226 580,226 581,226 582,226 583,226 584,226 585,226 586,226 587,226 588,226 589,226 590,226 591,226 592,226 593,226 594,226 595,226 596,226 597,226 598,226 599,226 600,226 601,226 602,226 603,226 604,226 605,226 606,226 607,226 608,226 609,226 610,226 611,226 612,226 613,226 614,226 615,226 562,224 563,224 564,224 565,224 566,224 567,224 568,224 569,224 570,224 571,224 572,224 573,224 574,224 575,224 576,224 577,224 578,224 579,224 580,224 581,224 582,224 583,224 584,224 585,224 586,224 587,224 588,224 589,224 590,224 591,224 592,224 593,224 594,224 595,224 596,224 597,224 598,224 599,224 600,224 601,224 602,224 603,224 604,224 605,224 606,224 607,224 608,224 609,224 610,224 611,224 612,224 613,224 614,224 562,222 563,222 564,222 565,222 566,222 567,222 568,222 569,222 570,222 571,222 572,222 573,222 574,222 575,222 576,222 577,222 578,222 579,222 580,222 581,222 582,222 583,222 584,222 585,222 586,222 587,222 588,222 589,222 590,222 591,222 592,222 593,222 594,222 595,222 596,222 597,222 598,222 599,222 600,222 601,222 602,222 603,222 604,222 605,222 606,222 607,222 608,222 609,222 610,222 611,222 612,222 613,222 614,222 562,220 563,220 564,220 565,220 566,220 567,220 568,220 569,220 570,220 571,220 572,220 573,220 574,220 575,220 576,220 577,220 578,220 579,220 580,220 581,220 582,220 583,220 584,220 585,220 586,220 587,220 588,220 589,220 590,220 591,220 592,220 593,220 594,220 595,220 596,220 597,220 598,220 599,220 600,220 601,220 602,220 603,220 604,220 605,220 606,220 607,220 608,220 609,220 610,220 611,220 612,220 613,220 562,218 563,218 564,218 565,218 566,218 567,218 568,218 569,218 570,218 571,218 572,218 573,218 574,218 575,218 576,218 577,218 578,218 579,218 580,218 581,218 582,218 583,218 584,218 585,218 586,218 587,218 588,218 589,218 590,218 591,218 592,218 593,218 594,218 595,218 596,218 597,218 598,218 599,218 600,218 601,218 602,218 603,218 604,218 605,218 606,218 607,218 608,218 609,218 610,218 611,218 612,218 613,218 562,216 563,216 564,216 565,216 566,216 567,216 568,216 569,216 570,216 571,216 572,216 573,216 574,216 575,216 576,216 577,216 578,216 579,216 580,216 581,216 582,216 583,216 584,216 585,216 586,216 587,216 588,216 589,216 590,216 591,216 592,216 593,216 594,216 595,216 596,216 597,216 598,216 599,216 600,216 601,216 602,216 603,216 604,216 605,216 606,216 607,216 608,216 609,216 610,216 611,216 612,216 562,214 563,214 564,214 565,214 566,214 567,214 568,214 569,214 570,214 571,214 572,214 573,214 574,214 575,214 576,214 577,214 578,214 579,214 580,214 581,214 582,214 583,214 584,214 585,214 586,214 587,214 588,214 589,214 590,214 591,214 592,214 593,214 594,214 595,214 596,214 597,214 598,214 599,214 600,214 601,214 602,214 603,214 604,214 605,214 606,214 607,214 608,214 609,214 610,214 611,214 612,214 562,212 563,212 564,212 565,212 566,212 567,212 568,212 569,212 570,212 571,212 572,212 573,212 574,212 575,212 576,212 577,212 578,212 579,212 580,212 581,212 582,212 583,212 584,212 585,212 586,212 587,212 588,212 589,212 590,212 591,212 592,212 593,212 594,212 595,212 596,212 597,212 598,212 599,212 600,212 601,212 602,212 603,212 604,212 605,212 606,212 607,212 608,212 609,212 610,212 611,212 574,210 575,210 576,210 577,210 578,210 579,210 580,210 581,210 582,210 583,210 584,210 585,210 586,210 587,210 588,210 589,210 590,210 591,210 592,210 593,210 594,210 595,210 596,210 597,210 598,210 599,210 600,210 601,210 602,210 603,210 604,210 605,210 606,210 607,210 608,210 609,210 610,210 611,210 584,208 585,208 586,208 587,208 588,208 589,208 590,208 591,208 592,208 593,208 594,208 595,208 596,208 597,208 598,208 599,208 600,208 601,208 602,208 603,208 604,208 605,208 606,208 607,208 608,208 609,208 610,208 592,206 593,206 594,206 595,206 596,206 597,206 598,206 599,206 600,206 601,206 602,206 603,206 604,206 605,206 606,206 607,206 608,206 609,206 610,206 599,204 600,204 601,204 602,204 603,204 604,204 605,204 606,204 607,204 608,204 609,204 610,204 605,202 606,202 607,202 608,202 609,202 "
     id="192" />
  <path
     style="fill:none;stroke:#000000;stroke-width:0.5;stroke-opacity:1;stroke-dasharray:none"
     d="M 660,286 661,286 662,286 663,286 664,286 665,286 666,286 667,286 668,286 669,286 670,286 671,286 672,286 673,286 674,286 675,286 676,286 677,286 678,286 679,286 680,286 681,286 682,286 683,286 684,286 685,286 668,284 669,284 670,284 671,284 672,284 673,284 674,284 675,284 676,284 677,284 678,284 679,284 680,284 681,284 682,284 683,284 684,284 685,284 674,282 675,282 676,282 677,282 678,282 679,282 680,282 681,282 682,282 683,282 684,282 679,280 680,280 681,280 682,280 683,280 683,278 683,276 684,276 685,276 686,276 682,274 683,274 684,274 685,274 686,274 687,274 688,274 689,274 690,274 681,272 682,272 683,272 684,272 685,272 686,272 687,272 688,272 689,272 690,272 691,272 692,272 693,272 694,272 681,270 682,270 683,270 684,270 685,270 686,270 687,270 688,270 689,270 690,270 691,270 692,270 693,270 694,270 695,270 696,270 697,270 698,270 680,268 681,268 682,268 683,268 684,268 685,268 686,268 687,268 688,268 689,268 690,268 691,268 692,268 693,268 694,268 695,268 696,268 697,268 698,268 699,268 700,268 701,268 679,266 680,266 681,266 682,266 683,266 684,266 685,266 686,266 687,266 688,266 689,266 690,266 691,266 692,266 693,266 694,266 695,266 696,266 697,266 698,266 699,266 700,266 701,266 702,266 703,266 704,266 705,266 679,264 680,264 681,264 682,264 683,264 684,264 685,264 686,264 687,264 688,264 689,264 690,264 691,264 692,264 693,264 694,264 695,264 696,264 697,264 698,264 699,264 700,264 701,264 702,264 703,264 704,264 705,264 706,264 707,264 708,264 709,264 678,262 679,262 680,262 681,262 682,262 683,262 684,262 685,262 686,262 687,262 688,262 689,262 690,262 691,262 692,262 693,262 694,262 695,262 696,262 697,262 698,262 699,262 700,262 701,262 702,262 703,262 704,262 705,262 706,262 707,262 708,262 709,262 710,262 711,262 712,262 713,262 677,260 678,260 679,260 680,260 681,260 682,260 683,260 684,260 685,260 686,260 687,260 688,260 689,260 690,260 691,260 692,260 693,260 694,260 695,260 696,260 697,260 698,260 699,260 700,260 701,260 702,260 703,260 704,260 705,260 706,260 707,260 708,260 709,260 710,260 711,260 712,260 713,260 714,260 715,260 716,260 717,260 677,258 678,258 679,258 680,258 681,258 682,258 683,258 684,258 685,258 686,258 687,258 688,258 689,258 690,258 691,258 692,258 693,258 694,258 695,258 696,258 697,258 698,258 699,258 700,258 701,258 702,258 703,258 704,258 705,258 706,258 707,258 708,258 709,258 710,258 711,258 712,258 713,258 714,258 715,258 716,258 717,258 718,258 719,258 720,258 721,258 676,256 677,256 678,256 679,256 680,256 681,256 682,256 683,256 684,256 685,256 686,256 687,256 688,256 689,256 690,256 691,256 692,256 693,256 694,256 695,256 696,256 697,256 698,256 699,256 700,256 701,256 702,256 703,256 704,256 705,256 706,256 707,256 708,256 709,256 710,256 711,256 712,256 713,256 714,256 715,256 716,256 717,256 718,256 719,256 720,256 721,256 722,256 675,254 676,254 677,254 678,254 679,254 680,254 681,254 682,254 683,254 684,254 685,254 686,254 687,254 688,254 689,254 690,254 691,254 692,254 693,254 694,254 695,254 696,254 697,254 698,254 699,254 700,254 701,254 702,254 703,254 704,254 705,254 706,254 707,254 708,254 709,254 710,254 711,254 712,254 713,254 714,254 715,254 716,254 717,254 718,254 719,254 720,254 721,254 674,252 675,252 676,252 677,252 678,252 679,252 680,252 681,252 682,252 683,252 684,252 685,252 686,252 687,252 688,252 689,252 690,252 691,252 692,252 693,252 694,252 695,252 696,252 697,252 698,252 699,252 700,252 701,252 702,252 703,252 704,252 705,252 706,252 707,252 708,252 709,252 710,252 711,252 712,252 713,252 714,252 715,252 716,252 717,252 718,252 719,252 720,252 721,252 674,250 675,250 676,250 677,250 678,250 679,250 680,250 681,250 682,250 683,250 684,250 685,250 686,250 687,250 688,250 689,250 690,250 691,250 692,250 693,250 694,250 695,250 696,250 697,250 698,250 699,250 700,250 701,250 702,250 703,250 704,250 705,250 706,250 707,250 708,250 709,250 710,250 711,250 712,250 713,250 714,250 715,250 716,250 717,250 718,250 719,250 720,250 673,248 674,248 675,248 676,248 677,248 678,248 679,248 680,248 681,248 682,248 683,248 684,248 685,248 686,248 687,248 688,248 689,248 690,248 691,248 692,248 693,248 694,248 695,248 696,248 697,248 698,248 699,248 700,248 701,248 702,248 703,248 704,248 705,248 706,248 707,248 708,248 709,248 710,248 711,248 712,248 713,248 714,248 715,248 716,248 717,248 718,248 719,248 720,248 672,246 673,246 674,246 675,246 676,246 677,246 678,246 679,246 680,246 681,246 682,246 683,246 684,246 685,246 686,246 687,246 688,246 689,246 690,246 691,246 692,246 693,246 694,246 695,246 696,246 697,246 698,246 699,246 700,246 701,246 702,246 703,246 704,246 705,246 706,246 707,246 708,246 709,246 710,246 711,246 712,246 713,246 714,246 715,246 716,246 717,246 718,246 719,246 671,244 672,244 673,244 674,244 675,244 676,244 677,244 678,244 679,244 680,244 681,244 682,244 683,244 684,244 685,244 686,244 687,244 688,244 689,244 690,244 691,244 692,244 693,244 694,244 695,244 696,244 697,244 698,244 699,244 700,244 701,244 702,244 703,244 704,244 705,244 706,244 707,244 708,244 709,244 710,244 711,244 712,244 713,244 714,244 715,244 716,244 717,244 718,244 719,244 671,242 672,242 673,242 674,242 675,242 676,242 677,242 678,242 679,242 680,242 681,242 682,242 683,242 684,242 685,242 686,242 687,242 688,242 689,242 690,242 691,242 692,242 693,242 694,242 695,242 696,242 697,242 698,242 699,242 700,242 701,242 702,242 703,242 704,242 705,242 706,242 707,242 708,242 709,242 710,242 711,242 712,242 713,242 714,242 715,242 716,242 717,242 718,242 670,240 671,240 672,240 673,240 674,240 675,240 676,240 677,240 678,240 679,240 680,240 681,240 682,240 683,240 684,240 685,240 686,240 687,240 688,240 689,240 690,240 691,240 692,240 693,240 694,240 695,240 696,240 697,240 698,240 699,240 700,240 701,240 702,240 703,240 704,240 705,240 706,240 707,240 708,240 709,240 710,240 711,240 712,240 713,240 714,240 715,240 716,240 717,240 718,240 669,238 670,238 671,238 672,238 673,238 674,238 675,238 676,238 677,238 678,238 679,238 680,238 681,238 682,238 683,238 684,238 685,238 686,238 687,238 688,238 689,238 690,238 691,238 692,238 693,238 694,238 695,238 696,238 697,238 698,238 699,238 700,238 701,238 702,238 703,238 704,238 705,238 706,238 707,238 708,238 709,238 710,238 711,238 712,238 713,238 714,238 715,238 716,238 717,238 669,236 670,236 671,236 672,236 673,236 674,236 675,236 676,236 677,236 678,236 679,236 680,236 681,236 682,236 683,236 684,236 685,236 686,236 687,236 688,236 689,236 690,236 691,236 692,236 693,236 694,236 695,236 696,236 697,236 698,236 699,236 700,236 701,236 702,236 703,236 704,236 705,236 706,236 707,236 708,236 709,236 710,236 711,236 712,236 713,236 714,236 715,236 716,236 668,234 669,234 670,234 671,234 672,234 673,234 674,234 675,234 676,234 677,234 678,234 679,234 680,234 681,234 682,234 683,234 684,234 685,234 686,234 687,234 688,234 689,234 690,234 691,234 692,234 693,234 694,234 695,234 696,234 697,234 698,234 699,234 700,234 701,234 702,234 703,234 704,234 705,234 706,234 707,234 708,234 709,234 710,234 711,234 712,234 713,234 714,234 715,234 716,234 667,232 668,232 669,232 670,232 671,232 672,232 673,232 674,232 675,232 676,232 677,232 678,232 679,232 680,232 681,232 682,232 683,232 684,232 685,232 686,232 687,232 688,232 689,232 690,232 691,232 692,232 693,232 694,232 695,232 696,232 697,232 698,232 699,232 700,232 701,232 702,232 703,232 704,232 705,232 706,232 707,232 708,232 709,232 710,232 711,232 712,232 713,232 714,232 715,232 666,230 667,230 668,230 669,230 670,230 671,230 672,230 673,230 674,230 675,230 676,230 677,230 678,230 679,230 680,230 681,230 682,230 683,230 684,230 685,230 686,230 687,230 688,230 689,230 690,230 691,230 692,230 693,230 694,230 695,230 696,230 697,230 698,230 699,230 700,230 701,230 702,230 703,230 704,230 705,230 706,230 707,230 708,230 709,230 710,230 711,230 712,230 713,230 714,230 715,230 666,228 667,228 668,228 669,228 670,228 671,228 672,228 673,228 674,228 675,228 676,228 677,228 678,228 679,228 680,228 681,228 682,228 683,228 684,228 685,228 686,228 687,228 688,228 689,228 690,228 691,228 692,228 693,228 694,228 695,228 696,228 697,228 698,228 699,228 700,228 701,228 702,228 703,228 704,228 705,228 706,228 707,228 708,228 709,228 710,228 711,228 712,228 713,228 714,228 665,226 666,226 667,226 668,226 669,226 670,226 671,226 672,226 673,226 674,226 675,226 676,226 677,226 678,226 679,226 680,226 681,226 682,226 683,226 684,226 685,226 686,226 687,226 688,226 689,226 690,226 691,226 692,226 693,226 694,226 695,226 696,226 697,226 698,226 699,226 700,226 701,226 702,226 703,226 704,226 705,226 706,226 707,226 708,226 709,226 710,226 711,226 712,226 713,226 714,226 664,224 665,224 666,224 667,224 668,224 669,224 670,224 671,224 672,224 673,224 674,224 675,224 676,224 677,224 678,224 679,224 680,224 681,224 682,224 683,224 684,224 685,224 686,224 687,224 688,224 689,224 690,224 691,224 692,224 693,224 694,224 695,224 696,224 697,224 698,224 699,224 700,224 701,224 702,224 703,224 704,224 705,224 706,224 707,224 708,224 709,224 710,224 711,224 712,224 713,224 664,222 665,222 666,222 667,222 668,222 669,222 670,222 671,222 672,222 673,222 674,222 675,222 676,222 677,222 678,222 679,222 680,222 681,222 682,222 683,222 684,222 685,222 686,222 687,222 688,222 689,222 690,222 691,222 692,222 693,222 694,222 695,222 696,222 697,222 698,222 699,222 700,222 701,222 702,222 703,222 704,222 705,222 706,222 707,222 708,222 709,222 710,222 711,222 712,222 713,222 663,220 664,220 665,220 666,220 667,220 668,220 669,220 670,220 671,220 672,220 673,220 674,220 675,220 676,220 677,220 678,220 679,220 680,220 681,220 682,220 683,220 684,220 685,220 686,220 687,220 688,220 689,220 690,220 691,220 692,220 693,220 694,220 695,220 696,220 697,220 698,220 699,220 700,220 701,220 702,220 703,220 704,220 705,220 706,220 707,220 708,220 709,220 710,220 711,220 712,220 662,218 663,218 664,218 665,218 666,218 667,218 668,218 669,218 670,218 671,218 672,218 673,218 674,218 675,218 676,218 677,218 678,218 679,218 680,218 681,218 682,218 683,218 684,218 685,218 686,218 687,218 688,218 689,218 690,218 691,218 692,218 693,218 694,218 695,218 696,218 697,218 698,218 699,218 700,218 701,218 702,218 703,218 704,218 705,218 706,218 707,218 708,218 709,218 710,218 711,218 662,216 663,216 664,216 665,216 666,216 667,216 668,216 669,216 670,216 671,216 672,216 673,216 674,216 675,216 676,216 677,216 678,216 679,216 680,216 681,216 682,216 683,216 684,216 685,216 686,216 687,216 688,216 689,216 690,216 691,216 692,216 693,216 694,216 695,216 696,216 697,216 698,216 699,216 700,216 701,216 702,216 703,216 704,216 705,216 706,216 707,216 708,216 709,216 710,216 711,216 661,214 662,214 663,214 664,214 665,214 666,214 667,214 668,214 669,214 670,214 671,214 672,214 673,214 674,214 675,214 676,214 677,214 678,214 679,214 680,214 681,214 682,214 683,214 684,214 685,214 686,214 687,214 688,214 689,214 690,214 691,214 692,214 693,214 694,214 695,214 696,214 697,214 698,214 699,214 700,214 701,214 702,214 703,214 704,214 705,214 706,214 707,214 708,214 709,214 710,214 660,212 661,212 662,212 663,212 664,212 665,212 666,212 667,212 668,212 669,212 670,212 671,212 672,212 673,212 674,212 675,212 676,212 677,212 678,212 679,212 680,212 681,212 682,212 683,212 684,212 685,212 686,212 687,212 688,212 689,212 690,212 691,212 692,212 693,212 694,212 695,212 696,212 697,212 698,212 699,212 700,212 701,212 702,212 703,212 704,212 705,212 706,212 707,212 708,212 709,212 710,212 660,210 661,210 662,210 663,210 664,210 665,210 666,210 667,210 668,210 669,210 670,210 671,210 672,210 673,210 674,210 675,210 676,210 677,210 678,210 679,210 680,210 681,210 682,210 683,210 684,210 685,210 686,210 687,210 688,210 689,210 690,210 691,210 692,210 693,210 694,210 695,210 696,210 697,210 698,210 699,210 700,210 701,210 702,210 703,210 704,210 705,210 706,210 707,210 708,210 709,210 659,208 660,208 661,208 662,208 663,208 664,208 665,208 666,208 667,208 668,208 669,208 670,208 671,208 672,208 673,208 674,208 675,208 676,208 677,208 678,208 679,208 680,208 681,208 682,208 683,208 684,208 685,208 686,208 687,208 688,208 689,208 690,208 691,208 692,208 693,208 694,208 695,208 696,208 697,208 698,208 699,208 700,208 701,208 702,208 703,208 704,208 705,208 706,208 707,208 708,208 709,208 658,206 659,206 660,206 661,206 662,206 663,206 664,206 665,206 666,206 667,206 668,206 669,206 670,206 671,206 672,206 673,206 674,206 675,206 676,206 677,206 678,206 679,206 680,206 681,206 682,206 683,206 684,206 685,206 686,206 687,206 688,206 689,206 690,206 691,206 692,206 693,206 694,206 695,206 696,206 697,206 698,206 699,206 700,206 701,206 702,206 703,206 704,206 705,206 706,206 707,206 708,206 658,204 659,204 660,204 661,204 662,204 663,204 664,204 665,204 666,204 667,204 668,204 669,204 670,204 671,204 672,204 673,204 674,204 675,204 676,204 677,204 678,204 679,204 680,204 681,204 682,204 683,204 684,204 685,204 686,204 687,204 688,204 689,204 690,204 691,204 692,204 693,204 694,204 695,204 696,204 697,204 698,204 699,204 700,204 701,204 702,204 703,204 704,204 705,204 706,204 707,204 708,204 657,202 658,202 659,202 660,202 661,202 662,202 663,202 664,202 665,202 666,202 667,202 668,202 669,202 670,202 671,202 672,202 673,202 674,202 675,202 676,202 677,202 678,202 679,202 680,202 681,202 682,202 683,202 684,202 685,202 686,202 687,202 688,202 689,202 690,202 691,202 692,202 693,202 694,202 695,202 696,202 697,202 698,202 699,202 700,202 701,202 702,202 703,202 704,202 705,202 706,202 707,202 657,200 658,200 659,200 660,200 661,200 662,200 663,200 664,200 665,200 666,200 667,200 668,200 669,200 670,200 671,200 672,200 673,200 674,200 675,200 676,200 677,200 678,200 679,200 680,200 681,200 682,200 683,200 684,200 685,200 686,200 687,200 688,200 689,200 690,200 691,200 692,200 693,200 694,200 695,200 696,200 697,200 698,200 699,200 700,200 701,200 702,200 703,200 704,200 705,200 706,200 707,200 656,198 657,198 658,198 659,198 660,198 661,198 662,198 663,198 664,198 665,198 666,198 667,198 668,198 669,198 670,198 671,198 672,198 673,198 674,198 675,198 676,198 677,198 678,198 679,198 680,198 681,198 682,198 683,198 684,198 685,198 686,198 687,198 688,198 689,198 690,198 691,198 692,198 693,198 694,198 695,198 696,198 697,198 698,198 699,198 700,198 701,198 702,198 703,198 704,198 705,198 706,198 655,196 656,196 657,196 658,196 659,196 660,196 661,196 662,196 663,196 664,196 665,196 666,196 667,196 668,196 669,196 670,196 671,196 672,196 673,196 674,196 675,196 676,196 677,196 678,196 679,196 680,196 681,196 682,196 683,196 684,196 685,196 686,196 687,196 688,196 689,196 690,196 691,196 692,196 693,196 694,196 695,196 696,196 697,196 698,196 699,196 700,196 701,196 702,196 703,196 704,196 705,196 706,196 655,194 656,194 657,194 658,194 659,194 660,194 661,194 662,194 663,194 664,194 665,194 666,194 667,194 668,194 669,194 670,194 671,194 672,194 673,194 674,194 675,194 676,194 677,194 678,194 679,194 680,194 681,194 682,194 683,194 684,194 685,194 686,194 687,194 688,194 689,194 690,194 691,194 692,194 693,194 694,194 695,194 696,194 697,194 698,194 699,194 700,194 701,194 702,194 703,194 704,194 705,194 654,192 655,192 656,192 657,192 658,192 659,192 660,192 661,192 662,192 663,192 664,192 665,192 666,192 667,192 668,192 669,192 670,192 671,192 672,192 673,192 674,192 675,192 676,192 677,192 678,192 679,192 680,192 681,192 682,192 683,192 684,192 685,192 686,192 687,192 688,192 689,192 690,192 691,192 692,192 693,192 694,192 695,192 696,192 697,192 698,192 699,192 700,192 701,192 702,192 703,192 704,192 705,192 654,190 655,190 656,190 657,190 658,190 659,190 660,190 661,190 662,190 663,190 664,190 665,190 666,190 667,190 668,190 669,190 670,190 671,190 672,190 673,190 674,190 675,190 676,190 677,190 678,190 679,190 680,190 681,190 682,190 683,190 684,190 685,190 686,190 687,190 688,190 689,190 690,190 691,190 692,190 693,190 694,190 695,190 696,190 697,190 698,190 699,190 700,190 701,190 702,190 703,190 704,190 653,188 654,188 655,188 656,188 657,188 658,188 659,188 660,188 661,188 662,188 663,188 664,188 665,188 666,188 667,188 668,188 669,188 670,188 671,188 672,188 673,188 674,188 675,188 676,188 677,188 678,188 679,188 680,188 681,188 682,188 683,188 684,188 685,188 686,188 687,188 688,188 689,188 690,188 691,188 692,188 693,188 694,188 695,188 696,188 697,188 698,188 699,188 700,188 701,188 702,188 703,188 704,188 653,186 654,186 655,186 656,186 657,186 658,186 659,186 660,186 661,186 662,186 663,186 664,186 665,186 666,186 667,186 668,186 669,186 670,186 671,186 672,186 673,186 674,186 675,186 676,186 677,186 678,186 679,186 680,186 681,186 682,186 683,186 684,186 685,186 686,186 687,186 688,186 689,186 690,186 691,186 692,186 693,186 694,186 695,186 696,186 697,186 698,186 699,186 700,186 701,186 702,186 703,186 704,186 652,184 653,184 654,184 655,184 656,184 657,184 658,184 659,184 660,184 661,184 662,184 663,184 664,184 665,184 666,184 667,184 668,184 669,184 670,184 671,184 672,184 673,184 674,184 675,184 676,184 677,184 678,184 679,184 680,184 681,184 682,184 683,184 684,184 685,184 686,184 687,184 688,184 689,184 690,184 691,184 692,184 693,184 694,184 695,184 696,184 697,184 698,184 699,184 700,184 701,184 702,184 703,184 652,182 653,182 654,182 655,182 656,182 657,182 658,182 659,182 660,182 661,182 662,182 663,182 664,182 665,182 666,182 667,182 668,182 669,182 670,182 671,182 672,182 673,182 674,182 675,182 676,182 677,182 678,182 679,182 680,182 681,182 682,182 683,182 684,182 685,182 686,182 687,182 688,182 689,182 690,182 691,182 692,182 693,182 694,182 695,182 696,182 697,182 698,182 699,182 700,182 701,182 702,182 703,182 656,180 657,180 658,180 659,180 660,180 661,180 662,180 663,180 664,180 665,180 666,180 667,180 668,180 669,180 670,180 671,180 672,180 673,180 674,180 675,180 676,180 677,180 678,180 679,180 680,180 681,180 682,180 683,180 684,180 685,180 686,180 687,180 688,180 689,180 690,180 691,180 692,180 693,180 694,180 695,180 696,180 697,180 698,180 699,180 700,180 701,180 702,180 662,178 663,178 664,178 665,178 666,178 667,178 668,178 669,178 670,178 671,178 672,178 673,178 674,178 675,178 676,178 677,178 678,178 679,178 680,178 681,178 682,178 683,178 684,178 685,178 686,178 687,178 688,178 689,178 690,178 691,178 692,178 693,178 694,178 695,178 696,178 697,178 698,178 699,178 700,178 701,178 702,178 669,176 670,176 671,176 672,176 673,176 674,176 675,176 676,176 677,176 678,176 679,176 680,176 681,176 682,176 683,176 684,176 685,176 686,176 687,176 688,176 689,176 690,176 691,176 692,176 693,176 694,176 695,176 696,176 697,176 698,176 699,176 700,176 701,176 702,176 679,174 680,174 681,174 682,174 683,174 684,174 685,174 686,174 687,174 688,174 689,174 690,174 691,174 692,174 693,174 694,174 695,174 696,174 697,174 698,174 699,174 700,174 701,174 "
     id="193" />
  <path
     style="fill:none;stroke:#000000;stroke-width:0.5;stroke-opacity:1;stroke-dasharray:none"
     d="M 504,214 505,214 506,214 507,214 508,214 509,214 510,214 511,214 512,214 513,214 514,214 515,214 516,214 517,214 518,214 519,214 520,214 521,214 522,214 523,214 524,214 525,214 526,214 527,214 528,214 529,214 530,214 531,214 532,214 533,214 534,214 535,214 536,214 537,214 538,214 539,214 540,214 541,214 542,214 543,214 505,212 506,212 507,212 508,212 509,212 510,212 511,212 512,212 513,212 514,212 515,212 516,212 517,212 518,212 519,212 520,212 521,212 522,212 523,212 524,212 525,212 526,212 527,212 528,212 529,212 530,212 531,212 532,212 533,212 534,212 535,212 536,212 537,212 538,212 539,212 540,212 541,212 542,212 543,212 544,212 545,212 546,212 547,212 548,212 549,212 550,212 551,212 552,212 553,212 554,212 555,212 556,212 557,212 558,212 559,212 560,212 505,210 506,210 507,210 508,210 509,210 510,210 511,210 512,210 513,210 514,210 515,210 516,210 517,210 518,210 519,210 520,210 521,210 522,210 523,210 524,210 525,210 526,210 527,210 528,210 529,210 530,210 531,210 532,210 533,210 534,210 535,210 536,210 537,210 538,210 539,210 540,210 541,210 542,210 543,210 544,210 545,210 546,210 547,210 548,210 549,210 550,210 551,210 552,210 553,210 554,210 555,210 556,210 557,210 558,210 559,210 560,210 505,208 506,208 507,208 508,208 509,208 510,208 511,208 512,208 513,208 514,208 515,208 516,208 517,208 518,208 519,208 520,208 521,208 522,208 523,208 524,208 525,208 526,208 527,208 528,208 529,208 530,208 531,208 532,208 533,208 534,208 535,208 536,208 537,208 538,208 539,208 540,208 541,208 542,208 543,208 544,208 545,208 546,208 547,208 548,208 549,208 550,208 551,208 552,208 553,208 554,208 555,208 556,208 557,208 558,208 559,208 560,208 505,206 506,206 507,206 508,206 509,206 510,206 511,206 512,206 513,206 514,206 515,206 516,206 517,206 518,206 519,206 520,206 521,206 522,206 523,206 524,206 525,206 526,206 527,206 528,206 529,206 530,206 531,206 532,206 533,206 534,206 535,206 536,206 537,206 538,206 539,206 540,206 541,206 542,206 543,206 544,206 545,206 546,206 547,206 548,206 549,206 550,206 551,206 552,206 553,206 554,206 555,206 556,206 557,206 558,206 559,206 560,206 506,204 507,204 508,204 509,204 510,204 511,204 512,204 513,204 514,204 515,204 516,204 517,204 518,204 519,204 520,204 521,204 522,204 523,204 524,204 525,204 526,204 527,204 528,204 529,204 530,204 531,204 532,204 533,204 534,204 535,204 536,204 537,204 538,204 539,204 540,204 541,204 542,204 543,204 544,204 545,204 546,204 547,204 548,204 549,204 550,204 551,204 552,204 553,204 554,204 555,204 556,204 557,204 558,204 559,204 560,204 506,202 507,202 508,202 509,202 510,202 511,202 512,202 513,202 514,202 515,202 516,202 517,202 518,202 519,202 520,202 521,202 522,202 523,202 524,202 525,202 526,202 527,202 528,202 529,202 530,202 531,202 532,202 533,202 534,202 535,202 536,202 537,202 538,202 539,202 540,202 541,202 542,202 543,202 544,202 545,202 546,202 547,202 548,202 549,202 550,202 551,202 552,202 553,202 554,202 555,202 556,202 557,202 558,202 559,202 560,202 506,200 507,200 508,200 509,200 510,200 511,200 512,200 513,200 514,200 515,200 516,200 517,200 518,200 519,200 520,200 521,200 522,200 523,200 524,200 525,200 526,200 527,200 528,200 529,200 530,200 531,200 532,200 533,200 534,200 535,200 536,200 537,200 538,200 539,200 540,200 541,200 542,200 543,200 544,200 545,200 546,200 547,200 548,200 549,200 550,200 551,200 552,200 553,200 554,200 555,200 556,200 557,200 558,200 559,200 560,200 506,198 507,198 508,198 509,198 510,198 511,198 512,198 513,198 514,198 515,198 516,198 517,198 518,198 519,198 520,198 521,198 522,198 523,198 524,198 525,198 526,198 527,198 528,198 529,198 530,198 531,198 532,198 533,198 534,198 535,198 536,198 537,198 538,198 539,198 540,198 541,198 542,198 543,198 544,198 545,198 546,198 547,198 548,198 549,198 550,198 551,198 552,198 553,198 554,198 555,198 556,198 557,198 558,198 559,198 506,196 507,196 508,196 509,196 510,196 511,196 512,196 513,196 514,196 515,196 516,196 517,196 518,196 519,196 520,196 521,196 522,196 523,196 524,196 525,196 526,196 527,196 528,196 529,196 530,196 531,196 532,196 533,196 534,196 535,196 536,196 537,196 538,196 539,196 540,196 541,196 542,196 543,196 544,196 545,196 546,196 547,196 548,196 549,196 550,196 551,196 552,196 553,196 554,196 555,196 556,196 557,196 558,196 559,196 506,194 507,194 508,194 509,194 510,194 511,194 512,194 513,194 514,194 515,194 516,194 517,194 518,194 519,194 520,194 521,194 522,194 523,194 524,194 525,194 526,194 527,194 528,194 529,194 530,194 531,194 532,194 533,194 534,194 535,194 536,194 537,194 538,194 539,194 540,194 541,194 542,194 543,194 544,194 545,194 546,194 547,194 548,194 549,194 550,194 551,194 552,194 553,194 554,194 555,194 556,194 557,194 558,194 559,194 507,192 508,192 509,192 510,192 511,192 512,192 513,192 514,192 515,192 516,192 517,192 518,192 519,192 520,192 521,192 522,192 523,192 524,192 525,192 526,192 527,192 528,192 529,192 530,192 531,192 532,192 533,192 534,192 535,192 536,192 537,192 538,192 539,192 540,192 541,192 542,192 543,192 544,192 545,192 546,192 547,192 548,192 549,192 550,192 551,192 552,192 553,192 554,192 555,192 556,192 557,192 558,192 559,192 507,190 508,190 509,190 510,190 511,190 512,190 513,190 514,190 515,190 516,190 517,190 518,190 519,190 520,190 521,190 522,190 523,190 524,190 525,190 526,190 527,190 528,190 529,190 530,190 531,190 532,190 533,190 534,190 535,190 536,190 537,190 538,190 539,190 540,190 541,190 542,190 543,190 544,190 545,190 546,190 547,190 548,190 549,190 550,190 551,190 552,190 553,190 554,190 555,190 556,190 557,190 558,190 559,190 507,188 508,188 509,188 510,188 511,188 512,188 513,188 514,188 515,188 516,188 517,188 518,188 519,188 520,188 521,188 522,188 523,188 524,188 525,188 526,188 527,188 528,188 529,188 530,188 531,188 532,188 533,188 534,188 535,188 536,188 537,188 538,188 539,188 540,188 541,188 542,188 543,188 544,188 545,188 546,188 547,188 548,188 549,188 550,188 551,188 552,188 553,188 554,188 555,188 556,188 557,188 558,188 559,188 507,186 508,186 509,186 510,186 511,186 512,186 513,186 514,186 515,186 516,186 517,186 518,186 519,186 520,186 521,186 522,186 523,186 524,186 525,186 526,186 527,186 528,186 529,186 530,186 531,186 532,186 533,186 534,186 535,186 536,186 537,186 538,186 539,186 540,186 541,186 542,186 543,186 544,186 545,186 546,186 547,186 548,186 549,186 550,186 551,186 552,186 553,186 554,186 555,186 556,186 557,186 558,186 507,184 508,184 509,184 510,184 511,184 512,184 513,184 514,184 515,184 516,184 517,184 518,184 519,184 520,184 521,184 522,184 523,184 524,184 525,184 526,184 527,184 528,184 529,184 530,184 531,184 532,184 533,184 534,184 535,184 536,184 537,184 538,184 539,184 540,184 541,184 542,184 543,184 544,184 545,184 546,184 547,184 548,184 549,184 550,184 551,184 552,184 553,184 554,184 555,184 556,184 557,184 558,184 507,182 508,182 509,182 510,182 511,182 512,182 513,182 514,182 515,182 516,182 517,182 518,182 519,182 520,182 521,182 522,182 523,182 524,182 525,182 526,182 527,182 528,182 529,182 530,182 531,182 532,182 533,182 534,182 535,182 536,182 537,182 538,182 539,182 540,182 541,182 542,182 543,182 544,182 545,182 546,182 547,182 548,182 549,182 550,182 551,182 552,182 553,182 554,182 555,182 556,182 557,182 558,182 507,180 508,180 509,180 510,180 511,180 512,180 513,180 514,180 515,180 516,180 517,180 518,180 519,180 520,180 521,180 522,180 523,180 524,180 525,180 526,180 527,180 528,180 529,180 530,180 531,180 532,180 533,180 534,180 535,180 536,180 537,180 538,180 539,180 540,180 541,180 542,180 543,180 544,180 545,180 546,180 547,180 548,180 549,180 550,180 551,180 552,180 553,180 554,180 555,180 556,180 557,180 558,180 507,178 508,178 509,178 510,178 511,178 512,178 513,178 514,178 515,178 516,178 517,178 518,178 519,178 520,178 521,178 522,178 523,178 524,178 525,178 526,178 527,178 528,178 529,178 530,178 531,178 532,178 533,178 534,178 535,178 536,178 537,178 538,178 539,178 540,178 541,178 542,178 543,178 544,178 545,178 546,178 547,178 548,178 549,178 550,178 551,178 552,178 553,178 554,178 555,178 556,178 557,178 558,178 507,176 508,176 509,176 510,176 511,176 512,176 513,176 514,176 515,176 516,176 517,176 518,176 519,176 520,176 521,176 522,176 523,176 524,176 525,176 526,176 527,176 528,176 529,176 530,176 531,176 532,176 533,176 534,176 535,176 536,176 537,176 538,176 539,176 540,176 541,176 542,176 543,176 544,176 545,176 546,176 547,176 548,176 549,176 550,176 551,176 552,176 553,176 554,176 555,176 556,176 557,176 558,176 507,174 508,174 509,174 510,174 511,174 512,174 513,174 514,174 515,174 516,174 517,174 518,174 519,174 520,174 521,174 522,174 523,174 524,174 525,174 526,174 527,174 528,174 529,174 530,174 531,174 532,174 533,174 534,174 535,174 536,174 537,174 538,174 539,174 540,174 541,174 542,174 543,174 544,174 545,174 546,174 547,174 548,174 549,174 550,174 551,174 552,174 553,174 554,174 555,174 556,174 557,174 507,172 508,172 509,172 510,172 511,172 512,172 513,172 514,172 515,172 516,172 517,172 518,172 519,172 520,172 521,172 522,172 523,172 524,172 525,172 526,172 527,172 528,172 529,172 530,172 531,172 532,172 533,172 534,172 535,172 536,172 537,172 538,172 539,172 540,172 541,172 542,172 543,172 544,172 545,172 546,172 547,172 548,172 549,172 550,172 551,172 552,172 553,172 554,172 555,172 556,172 557,172 507,170 508,170 509,170 510,170 511,170 512,170 513,170 514,170 515,170 516,170 517,170 518,170 519,170 520,170 521,170 522,170 523,170 524,170 525,170 526,170 527,170 528,170 529,170 530,170 531,170 532,170 533,170 534,170 535,170 536,170 537,170 538,170 539,170 540,170 541,170 542,170 543,170 544,170 545,170 546,170 547,170 548,170 549,170 550,170 551,170 552,170 553,170 554,170 555,170 556,170 557,170 507,168 508,168 509,168 510,168 511,168 512,168 513,168 514,168 515,168 516,168 517,168 518,168 519,168 520,168 521,168 522,168 523,168 524,168 525,168 526,168 527,168 528,168 529,168 530,168 531,168 532,168 533,168 534,168 535,168 536,168 537,168 538,168 539,168 540,168 541,168 542,168 543,168 544,168 545,168 546,168 547,168 548,168 549,168 550,168 551,168 552,168 553,168 554,168 555,168 556,168 557,168 507,166 508,166 509,166 510,166 511,166 512,166 513,166 514,166 515,166 516,166 517,166 518,166 519,166 520,166 521,166 522,166 523,166 524,166 525,166 526,166 527,166 528,166 529,166 530,166 531,166 532,166 533,166 534,166 535,166 536,166 537,166 538,166 539,166 540,166 541,166 542,166 543,166 544,166 545,166 546,166 547,166 548,166 549,166 550,166 551,166 552,166 553,166 554,166 555,166 556,166 557,166 507,164 508,164 509,164 510,164 511,164 512,164 513,164 514,164 515,164 516,164 517,164 518,164 519,164 520,164 521,164 522,164 523,164 524,164 525,164 526,164 527,164 528,164 529,164 530,164 531,164 532,164 533,164 534,164 535,164 536,164 537,164 538,164 539,164 540,164 541,164 542,164 543,164 544,164 545,164 546,164 547,164 548,164 549,164 550,164 551,164 552,164 553,164 554,164 555,164 556,164 507,162 508,162 509,162 510,162 511,162 512,162 513,162 514,162 515,162 516,162 517,162 518,162 519,162 520,162 521,162 522,162 523,162 524,162 525,162 526,162 527,162 528,162 529,162 530,162 531,162 532,162 533,162 534,162 535,162 536,162 537,162 538,162 539,162 540,162 541,162 542,162 543,162 544,162 545,162 546,162 547,162 548,162 549,162 550,162 551,162 552,162 553,162 554,162 555,162 556,162 507,160 508,160 509,160 510,160 511,160 512,160 513,160 514,160 515,160 516,160 517,160 518,160 519,160 520,160 521,160 522,160 523,160 524,160 525,160 526,160 527,160 528,160 529,160 530,160 531,160 532,160 533,160 534,160 535,160 536,160 537,160 538,160 539,160 540,160 541,160 542,160 543,160 544,160 545,160 546,160 547,160 548,160 549,160 550,160 551,160 552,160 553,160 554,160 555,160 556,160 507,158 508,158 509,158 510,158 511,158 512,158 513,158 514,158 515,158 516,158 517,158 518,158 519,158 520,158 521,158 522,158 523,158 524,158 525,158 526,158 527,158 528,158 529,158 530,158 531,158 532,158 533,158 534,158 535,158 536,158 537,158 538,158 539,158 540,158 541,158 542,158 543,158 544,158 545,158 546,158 547,158 548,158 549,158 550,158 551,158 552,158 553,158 554,158 555,158 556,158 507,156 508,156 509,156 510,156 511,156 512,156 513,156 514,156 515,156 516,156 517,156 518,156 519,156 520,156 521,156 522,156 523,156 524,156 525,156 526,156 527,156 528,156 529,156 530,156 531,156 532,156 533,156 534,156 535,156 536,156 537,156 538,156 539,156 540,156 541,156 542,156 543,156 544,156 545,156 546,156 547,156 548,156 549,156 550,156 551,156 552,156 553,156 554,156 555,156 556,156 515,154 516,154 517,154 518,154 519,154 520,154 521,154 522,154 523,154 524,154 525,154 526,154 527,154 528,154 529,154 530,154 531,154 532,154 533,154 534,154 535,154 536,154 537,154 538,154 539,154 540,154 541,154 542,154 543,154 544,154 545,154 546,154 547,154 548,154 549,154 550,154 551,154 552,154 553,154 554,154 555,154 556,154 526,152 527,152 528,152 529,152 530,152 531,152 532,152 533,152 534,152 535,152 536,152 537,152 538,152 539,152 540,152 541,152 542,152 543,152 544,152 545,152 546,152 547,152 548,152 549,152 550,152 551,152 552,152 553,152 554,152 555,152 535,150 536,150 537,150 538,150 539,150 540,150 541,150 542,150 543,150 544,150 545,150 546,150 547,150 548,150 549,150 550,150 551,150 552,150 553,150 554,150 555,150 541,148 542,148 543,148 544,148 545,148 546,148 547,148 548,148 549,148 550,148 551,148 552,148 553,148 554,148 555,148 548,146 549,146 550,146 551,146 552,146 553,146 554,146 555,146 554,144 555,144 "
     id="199" />
  <path
     style="fill:none;stroke:#000000;stroke-width:0.5;stroke-opacity:1;stroke-dasharray:none"
     d="M 609,198 610,198 611,198 612,198 613,198 614,198 609,196 610,196 611,196 612,196 613,196 614,196 615,196 616,196 617,196 618,196 619,196 608,194 609,194 610,194 611,194 612,194 613,194 614,194 615,194 616,194 617,194 618,194 619,194 620,194 621,194 622,194 623,194 608,192 609,192 610,192 611,192 612,192 613,192 614,192 615,192 616,192 617,192 618,192 619,192 620,192 621,192 622,192 623,192 624,192 625,192 626,192 627,192 628,192 608,190 609,190 610,190 611,190 612,190 613,190 614,190 615,190 616,190 617,190 618,190 619,190 620,190 621,190 622,190 623,190 624,190 625,190 626,190 627,190 628,190 629,190 630,190 631,190 632,190 607,188 608,188 609,188 610,188 611,188 612,188 613,188 614,188 615,188 616,188 617,188 618,188 619,188 620,188 621,188 622,188 623,188 624,188 625,188 626,188 627,188 628,188 629,188 630,188 631,188 632,188 633,188 634,188 635,188 636,188 607,186 608,186 609,186 610,186 611,186 612,186 613,186 614,186 615,186 616,186 617,186 618,186 619,186 620,186 621,186 622,186 623,186 624,186 625,186 626,186 627,186 628,186 629,186 630,186 631,186 632,186 633,186 634,186 635,186 636,186 637,186 638,186 639,186 640,186 641,186 606,184 607,184 608,184 609,184 610,184 611,184 612,184 613,184 614,184 615,184 616,184 617,184 618,184 619,184 620,184 621,184 622,184 623,184 624,184 625,184 626,184 627,184 628,184 629,184 630,184 631,184 632,184 633,184 634,184 635,184 636,184 637,184 638,184 639,184 640,184 641,184 642,184 643,184 644,184 645,184 606,182 607,182 608,182 609,182 610,182 611,182 612,182 613,182 614,182 615,182 616,182 617,182 618,182 619,182 620,182 621,182 622,182 623,182 624,182 625,182 626,182 627,182 628,182 629,182 630,182 631,182 632,182 633,182 634,182 635,182 636,182 637,182 638,182 639,182 640,182 641,182 642,182 643,182 644,182 645,182 646,182 647,182 648,182 649,182 650,182 606,180 607,180 608,180 609,180 610,180 611,180 612,180 613,180 614,180 615,180 616,180 617,180 618,180 619,180 620,180 621,180 622,180 623,180 624,180 625,180 626,180 627,180 628,180 629,180 630,180 631,180 632,180 633,180 634,180 635,180 636,180 637,180 638,180 639,180 640,180 641,180 642,180 643,180 644,180 645,180 646,180 647,180 648,180 649,180 650,180 605,178 606,178 607,178 608,178 609,178 610,178 611,178 612,178 613,178 614,178 615,178 616,178 617,178 618,178 619,178 620,178 621,178 622,178 623,178 624,178 625,178 626,178 627,178 628,178 629,178 630,178 631,178 632,178 633,178 634,178 635,178 636,178 637,178 638,178 639,178 640,178 641,178 642,178 643,178 644,178 645,178 646,178 647,178 648,178 649,178 650,178 605,176 606,176 607,176 608,176 609,176 610,176 611,176 612,176 613,176 614,176 615,176 616,176 617,176 618,176 619,176 620,176 621,176 622,176 623,176 624,176 625,176 626,176 627,176 628,176 629,176 630,176 631,176 632,176 633,176 634,176 635,176 636,176 637,176 638,176 639,176 640,176 641,176 642,176 643,176 644,176 645,176 646,176 647,176 648,176 649,176 605,174 606,174 607,174 608,174 609,174 610,174 611,174 612,174 613,174 614,174 615,174 616,174 617,174 618,174 619,174 620,174 621,174 622,174 623,174 624,174 625,174 626,174 627,174 628,174 629,174 630,174 631,174 632,174 633,174 634,174 635,174 636,174 637,174 638,174 639,174 640,174 641,174 642,174 643,174 644,174 645,174 646,174 647,174 648,174 649,174 604,172 605,172 606,172 607,172 608,172 609,172 610,172 611,172 612,172 613,172 614,172 615,172 616,172 617,172 618,172 619,172 620,172 621,172 622,172 623,172 624,172 625,172 626,172 627,172 628,172 629,172 630,172 631,172 632,172 633,172 634,172 635,172 636,172 637,172 638,172 639,172 640,172 641,172 642,172 643,172 644,172 645,172 646,172 647,172 648,172 604,170 605,170 606,170 607,170 608,170 609,170 610,170 611,170 612,170 613,170 614,170 615,170 616,170 617,170 618,170 619,170 620,170 621,170 622,170 623,170 624,170 625,170 626,170 627,170 628,170 629,170 630,170 631,170 632,170 633,170 634,170 635,170 636,170 637,170 638,170 639,170 640,170 641,170 642,170 643,170 644,170 645,170 646,170 647,170 648,170 604,168 605,168 606,168 607,168 608,168 609,168 610,168 611,168 612,168 613,168 614,168 615,168 616,168 617,168 618,168 619,168 620,168 621,168 622,168 623,168 624,168 625,168 626,168 627,168 628,168 629,168 630,168 631,168 632,168 633,168 634,168 635,168 636,168 637,168 638,168 639,168 640,168 641,168 642,168 643,168 644,168 645,168 646,168 647,168 603,166 604,166 605,166 606,166 607,166 608,166 609,166 610,166 611,166 612,166 613,166 614,166 615,166 616,166 617,166 618,166 619,166 620,166 621,166 622,166 623,166 624,166 625,166 626,166 627,166 628,166 629,166 630,166 631,166 632,166 633,166 634,166 635,166 636,166 637,166 638,166 639,166 640,166 641,166 642,166 643,166 644,166 645,166 646,166 647,166 603,164 604,164 605,164 606,164 607,164 608,164 609,164 610,164 611,164 612,164 613,164 614,164 615,164 616,164 617,164 618,164 619,164 620,164 621,164 622,164 623,164 624,164 625,164 626,164 627,164 628,164 629,164 630,164 631,164 632,164 633,164 634,164 635,164 636,164 637,164 638,164 639,164 640,164 641,164 642,164 643,164 644,164 645,164 646,164 647,164 603,162 604,162 605,162 606,162 607,162 608,162 609,162 610,162 611,162 612,162 613,162 614,162 615,162 616,162 617,162 618,162 619,162 620,162 621,162 622,162 623,162 624,162 625,162 626,162 627,162 628,162 629,162 630,162 631,162 632,162 633,162 634,162 635,162 636,162 637,162 638,162 639,162 640,162 641,162 642,162 643,162 644,162 645,162 646,162 602,160 603,160 604,160 605,160 606,160 607,160 608,160 609,160 610,160 611,160 612,160 613,160 614,160 615,160 616,160 617,160 618,160 619,160 620,160 621,160 622,160 623,160 624,160 625,160 626,160 627,160 628,160 629,160 630,160 631,160 632,160 633,160 634,160 635,160 636,160 637,160 638,160 639,160 640,160 641,160 642,160 643,160 644,160 645,160 646,160 602,158 603,158 604,158 605,158 606,158 607,158 608,158 609,158 610,158 611,158 612,158 613,158 614,158 615,158 616,158 617,158 618,158 619,158 620,158 621,158 622,158 623,158 624,158 625,158 626,158 627,158 628,158 629,158 630,158 631,158 632,158 633,158 634,158 635,158 636,158 637,158 638,158 639,158 640,158 641,158 642,158 643,158 644,158 645,158 602,156 603,156 604,156 605,156 606,156 607,156 608,156 609,156 610,156 611,156 612,156 613,156 614,156 615,156 616,156 617,156 618,156 619,156 620,156 621,156 622,156 623,156 624,156 625,156 626,156 627,156 628,156 629,156 630,156 631,156 632,156 633,156 634,156 635,156 636,156 637,156 638,156 639,156 640,156 641,156 642,156 643,156 644,156 645,156 601,154 602,154 603,154 604,154 605,154 606,154 607,154 608,154 609,154 610,154 611,154 612,154 613,154 614,154 615,154 616,154 617,154 618,154 619,154 620,154 621,154 622,154 623,154 624,154 625,154 626,154 627,154 628,154 629,154 630,154 631,154 632,154 633,154 634,154 635,154 636,154 637,154 638,154 639,154 640,154 641,154 642,154 643,154 644,154 645,154 601,152 602,152 603,152 604,152 605,152 606,152 607,152 608,152 609,152 610,152 611,152 612,152 613,152 614,152 615,152 616,152 617,152 618,152 619,152 620,152 621,152 622,152 623,152 624,152 625,152 626,152 627,152 628,152 629,152 630,152 631,152 632,152 633,152 634,152 635,152 636,152 637,152 638,152 639,152 640,152 641,152 642,152 643,152 644,152 601,150 602,150 603,150 604,150 605,150 606,150 607,150 608,150 609,150 610,150 611,150 612,150 613,150 614,150 615,150 616,150 617,150 618,150 619,150 620,150 621,150 622,150 623,150 624,150 625,150 626,150 627,150 628,150 629,150 630,150 631,150 632,150 633,150 634,150 635,150 636,150 637,150 638,150 639,150 640,150 641,150 642,150 643,150 644,150 601,148 602,148 603,148 604,148 605,148 606,148 607,148 608,148 609,148 610,148 611,148 612,148 613,148 614,148 615,148 616,148 617,148 618,148 619,148 620,148 621,148 622,148 623,148 624,148 625,148 626,148 627,148 628,148 629,148 630,148 631,148 632,148 633,148 634,148 635,148 636,148 637,148 638,148 639,148 640,148 641,148 642,148 643,148 644,148 600,146 601,146 602,146 603,146 604,146 605,146 606,146 607,146 608,146 609,146 610,146 611,146 612,146 613,146 614,146 615,146 616,146 617,146 618,146 619,146 620,146 621,146 622,146 623,146 624,146 625,146 626,146 627,146 628,146 629,146 630,146 631,146 632,146 633,146 634,146 635,146 636,146 637,146 638,146 639,146 640,146 641,146 642,146 643,146 600,144 601,144 602,144 603,144 604,144 605,144 606,144 607,144 608,144 609,144 610,144 611,144 612,144 613,144 614,144 615,144 616,144 617,144 618,144 619,144 620,144 621,144 622,144 623,144 624,144 625,144 626,144 627,144 628,144 629,144 630,144 631,144 632,144 633,144 634,144 635,144 636,144 637,144 638,144 639,144 640,144 641,144 642,144 643,144 600,142 601,142 602,142 603,142 604,142 605,142 606,142 607,142 608,142 609,142 610,142 611,142 612,142 613,142 614,142 615,142 616,142 617,142 618,142 619,142 620,142 621,142 622,142 623,142 624,142 625,142 626,142 627,142 628,142 629,142 630,142 631,142 632,142 633,142 634,142 635,142 636,142 637,142 638,142 639,142 640,142 641,142 642,142 643,142 600,140 601,140 602,140 603,140 604,140 605,140 606,140 607,140 608,140 609,140 610,140 611,140 612,140 613,140 614,140 615,140 616,140 617,140 618,140 619,140 620,140 621,140 622,140 623,140 624,140 625,140 626,140 627,140 628,140 629,140 630,140 631,140 632,140 633,140 634,140 635,140 636,140 637,140 638,140 639,140 640,140 641,140 642,140 643,140 599,138 600,138 601,138 602,138 603,138 604,138 605,138 606,138 607,138 608,138 609,138 610,138 611,138 612,138 613,138 614,138 615,138 616,138 617,138 618,138 619,138 620,138 621,138 622,138 623,138 624,138 625,138 626,138 627,138 628,138 629,138 630,138 631,138 632,138 633,138 634,138 635,138 636,138 637,138 638,138 639,138 640,138 641,138 642,138 599,136 600,136 601,136 602,136 603,136 604,136 605,136 606,136 607,136 608,136 609,136 610,136 611,136 612,136 613,136 614,136 615,136 616,136 617,136 618,136 619,136 620,136 621,136 622,136 623,136 624,136 625,136 626,136 627,136 628,136 629,136 630,136 631,136 632,136 633,136 634,136 635,136 636,136 637,136 638,136 639,136 640,136 641,136 642,136 599,134 600,134 601,134 602,134 603,134 604,134 605,134 606,134 607,134 608,134 609,134 610,134 611,134 612,134 613,134 614,134 615,134 616,134 617,134 618,134 619,134 620,134 621,134 622,134 623,134 624,134 625,134 626,134 627,134 628,134 629,134 630,134 631,134 632,134 633,134 634,134 635,134 636,134 637,134 638,134 639,134 640,134 641,134 642,134 599,132 600,132 601,132 602,132 603,132 604,132 605,132 606,132 607,132 608,132 609,132 610,132 611,132 612,132 613,132 614,132 615,132 616,132 617,132 618,132 619,132 620,132 621,132 622,132 623,132 624,132 625,132 626,132 627,132 628,132 629,132 630,132 631,132 632,132 633,132 634,132 635,132 636,132 637,132 638,132 639,132 640,132 641,132 642,132 598,130 599,130 600,130 601,130 602,130 603,130 604,130 605,130 606,130 607,130 608,130 609,130 610,130 611,130 612,130 613,130 614,130 615,130 616,130 617,130 618,130 619,130 620,130 621,130 622,130 623,130 624,130 625,130 626,130 627,130 628,130 629,130 630,130 631,130 632,130 633,130 634,130 635,130 636,130 637,130 638,130 639,130 640,130 641,130 598,128 599,128 600,128 601,128 602,128 603,128 604,128 605,128 606,128 607,128 608,128 609,128 610,128 611,128 612,128 613,128 614,128 615,128 616,128 617,128 618,128 619,128 620,128 621,128 622,128 623,128 624,128 625,128 626,128 627,128 628,128 629,128 630,128 631,128 632,128 633,128 634,128 635,128 636,128 637,128 638,128 639,128 640,128 641,128 598,126 599,126 600,126 601,126 602,126 603,126 604,126 605,126 606,126 607,126 608,126 609,126 610,126 611,126 612,126 613,126 614,126 615,126 616,126 617,126 618,126 619,126 620,126 621,126 622,126 623,126 624,126 625,126 626,126 627,126 628,126 629,126 630,126 631,126 632,126 633,126 634,126 635,126 636,126 637,126 638,126 639,126 640,126 641,126 601,124 602,124 603,124 604,124 605,124 606,124 607,124 608,124 609,124 610,124 611,124 612,124 613,124 614,124 615,124 616,124 617,124 618,124 619,124 620,124 621,124 622,124 623,124 624,124 625,124 626,124 627,124 628,124 629,124 630,124 631,124 632,124 633,124 634,124 635,124 636,124 637,124 638,124 639,124 640,124 641,124 605,122 606,122 607,122 608,122 609,122 610,122 611,122 612,122 613,122 614,122 615,122 616,122 617,122 618,122 619,122 620,122 621,122 622,122 623,122 624,122 625,122 626,122 627,122 628,122 629,122 630,122 631,122 632,122 633,122 634,122 635,122 636,122 637,122 638,122 639,122 640,122 641,122 609,120 610,120 611,120 612,120 613,120 614,120 615,120 616,120 617,120 618,120 619,120 620,120 621,120 622,120 623,120 624,120 625,120 626,120 627,120 628,120 629,120 630,120 631,120 632,120 633,120 634,120 635,120 636,120 637,120 638,120 639,120 640,120 641,120 613,118 614,118 615,118 616,118 617,118 618,118 619,118 620,118 621,118 622,118 623,118 624,118 625,118 626,118 627,118 628,118 629,118 630,118 631,118 632,118 633,118 634,118 635,118 636,118 637,118 638,118 639,118 640,118 618,116 619,116 620,116 621,116 622,116 623,116 624,116 625,116 626,116 627,116 628,116 629,116 630,116 631,116 632,116 633,116 634,116 635,116 636,116 637,116 638,116 639,116 640,116 623,114 624,114 625,114 626,114 627,114 628,114 629,114 630,114 631,114 632,114 633,114 634,114 635,114 636,114 637,114 638,114 639,114 640,114 628,112 629,112 630,112 631,112 632,112 633,112 634,112 635,112 636,112 637,112 638,112 639,112 640,112 634,110 635,110 636,110 637,110 638,110 639,110 640,110 "
     id="200" />
</svg>
