<svg
   width="384"
   height = "768"
   version="1.1"
   id="svg2"
   xmlns="http://www.w3.org/2000/svg"
   xmlns:svg="http://www.w3.org/2000/svg">
  <defs
     id="defs6" />

<rect
   style="fill:#F3F3F3;stroke-width:0;stroke-opacity:0"
   id="Background"
   width="384"
   height="768"
   x="0"
   y="0"
   rx="0" />
  <path
     style="fill:none;stroke:#000000;stroke-width:5;stroke-opacity:1"
     d = "M 168.4581,230.1074 169.4677,215.103 168.5469,201.1428 166.1513,187.0665 163.631,171.1851 160.6294,153.2731 158.888,132.0528 159.6985,109.7421 162.8873,87.0993 166.4516,65.4537 166.8094,47.95736 "
id = "0" />
  <path
     style="fill:none;stroke:#000000;stroke-width:5;stroke-opacity:1"
     d = "M 171.1708,229.6828 172.4742,214.6402 171.9144,200.4372 169.7944,185.7279 167.4782,169.3813 164.7368,151.2273 163.387,129.6925 164.1991,107.6684 167.4734,85.66438 170.6019,64.73302 170.9813,47.93713 "
id = "1" />
  <path
     style="fill:none;stroke:#000000;stroke-width:5;stroke-opacity:1"
     d = "M 173.8906,229.3056 175.5103,214.0968 175.2755,199.6404 173.4111,184.2734 171.3246,167.6549 168.9357,149.1585 168.0924,127.2896 168.9801,105.6493 172.0598,84.443 174.7604,64.20856 175.1932,47.9144 "
id = "2" />
  <path
     style="fill:none;stroke:#000000;stroke-width:5;stroke-opacity:1"
     d = "M 176.6166,228.976 178.5643,213.5598 178.6735,198.7964 177.0966,182.8551 175.2668,165.9676 173.3625,147.0049 172.9844,125.0236 173.7217,103.623 176.3566,83.29816 178.6245,63.60538 179.2617,47.9182 "
id = "3" />
  <path
     style="fill:none;stroke:#000000;stroke-width:5;stroke-opacity:1"
     d = "M 179.3478,228.6939 181.6567,212.9743 182.1431,197.8117 180.9269,181.3873 179.4257,164.1726 178.3728,144.7101 178.3361,122.8029 178.9178,101.5502 181.0742,82.09666 182.9817,63.04517 184.0093,47.97996 "
id = "4" />
  <path
     style="fill:none;stroke:#000000;stroke-width:5;stroke-opacity:1"
     d = "M 182.9964,228.3921 185.8217,212.1712 186.8382,196.355 186.2584,179.5087 185.5957,161.4987 185.7043,141.2772 186.3108,119.6946 186.8893,99.36359 188.2728,80.70245 189.9224,62.49593 191.3616,47.96689 "
id = "5" />
  <path
     style="fill:none;stroke:#000000;stroke-width:5;stroke-opacity:1"
     d = "M 184.823,228.2731 187.8698,211.7989 189.1145,195.6901 188.9002,178.6411 188.767,160.2966 189.5309,139.817 190.564,118.421 191.0889,98.61485 192.247,80.50331 193.9437,62.70458 195.5042,47.98724 "
id = "6" />
  <path
     style="fill:none;stroke:#000000;stroke-width:5;stroke-opacity:1"
     d = "M 187.5653,228.1344 190.931,211.3851 192.5982,194.8886 193.0589,177.549 193.8464,158.7255 195.6992,137.8924 197.3336,116.8933 197.8603,97.96915 198.6055,80.812 200.4124,63.42667 202.1953,47.92926 "
id = "7" />
  <path
     style="fill:none;stroke:#000000;stroke-width:5;stroke-opacity:1"
     d = "M 190.3096,228.0436 194.0148,211.0723 196.2736,194.2917 197.6572,176.7466 199.8727,157.3655 203.0456,136.4991 205.3337,116.3068 206.0383,97.7617 206.3326,81.33584 207.7716,64.72401 209.5535,47.9184 "
id = "8" />
  <path
     style="fill:none;stroke:#000000;stroke-width:5;stroke-opacity:1"
     d = "M 193.9704,227.997 198.3081,210.6978 201.3741,193.4036 204.1832,175.4115 208.2111,155.3659 213.2622,134.5474 216.3133,115.2784 217.4995,97.30441 217.3125,81.31361 217.5785,65.58093 219.2029,49.41035 219.5022,47.94053 "
id = "9" />
  <path
     style="fill:none;stroke:#000000;stroke-width:5;stroke-opacity:1"
     d = "M 196.7161,228.018 201.5684,210.466 205.3333,192.7349 209.0256,174.1702 214.2959,153.5966 220.1902,132.9743 223.6821,113.9873 225.3122,96.83131 225.1535,81.24254 225.3082,65.82627 227.1501,50.09524 227.6587,47.95477 "
id = "10" />
  <path
     style="fill:none;stroke:#000000;stroke-width:5;stroke-opacity:1"
     d = "M 198.5461,228.0586 203.714,210.2992 207.959,192.2187 212.2256,173.2636 218.1675,152.4328 224.1573,131.8676 227.9876,113.1104 229.6471,96.5452 229.5983,81.12526 229.9625,65.88278 231.9862,50.35894 232.5988,47.93518 "
id = "11" />
  <path
     style="fill:none;stroke:#000000;stroke-width:5;stroke-opacity:1"
     d = "M 201.2901,228.1594 206.8295,210.0658 211.632,191.4755 216.7513,171.7533 223.4403,150.5911 229.5191,130.2189 233.7145,112.032 235.4984,96.10315 235.9623,81.00623 236.8334,65.86142 239.2519,50.52283 239.9342,47.91042 "
id = "12" />
  <path
     style="fill:none;stroke:#000000;stroke-width:5;stroke-opacity:1"
     d = "M 204.0045,228.3065 209.916,209.9171 215.12,190.7256 220.7644,170.2312 227.965,148.679 234.0547,128.5768 238.3832,110.9468 240.4963,95.6496 241.4673,80.82833 242.8346,65.83091 245.6278,50.45065 246.2859,47.9353 "
id = "13" />
  <path
     style="fill:none;stroke:#000000;stroke-width:5;stroke-opacity:1"
     d = "M 206.7706,228.5047 213.0932,209.7625 218.6653,189.925 224.7475,168.7749 232.0555,147.1112 238.1435,127.2859 242.546,110.1938 244.8626,95.58395 246.1685,81.16896 247.9583,66.43351 250.8517,51.01035 251.6872,47.92136 "
id = "14" />
  <path
     style="fill:none;stroke:#000000;stroke-width:5;stroke-opacity:1"
     d = "M 209.5055,228.749 216.2143,209.697 222.1943,189.1982 228.5379,167.5413 235.827,145.9165 241.8803,126.3515 246.3073,109.8771 248.6009,95.84408 250.2395,81.84891 252.3705,67.40161 255.369,52.03394 256.5166,47.99374 "
id = "15" />
  <path
     style="fill:none;stroke:#000000;stroke-width:5;stroke-opacity:1"
     d = "M 212.2357,229.041 219.2777,209.7044 225.647,188.7022 232.2794,166.6173 239.5026,145.0113 245.3971,125.6114 249.7124,109.681 251.9611,96.13072 253.9012,82.43629 256.2921,68.23953 259.3862,52.87115 260.8368,47.98192 "
id = "16" />
  <path
     style="fill:none;stroke:#000000;stroke-width:5;stroke-opacity:1"
     d = "M 215.8673,229.5044 223.2749,209.9273 230.1053,188.3595 236.7562,165.6869 243.7895,144.0816 249.3684,124.8675 253.3541,109.5623 255.5778,96.39031 257.9279,82.97096 260.6081,68.99147 263.8979,53.68953 265.6722,47.95764 "
id = "17" />
  <path
     style="fill:none;stroke:#000000;stroke-width:5;stroke-opacity:1"
     d = "M 218.5834,229.9073 226.1795,210.1696 233.2107,188.2649 239.7345,165.3254 246.5902,143.6998 251.8917,124.6505 255.7773,109.6735 258.0801,96.68718 260.6638,83.4341 263.5427,69.56168 266.9755,54.20646 269.0562,47.94293 "
id = "18" />
  <path
     style="fill:none;stroke:#000000;stroke-width:5;stroke-opacity:1"
     d = "M 221.2921,230.3575 228.9112,210.519 236.1163,188.354 242.3891,165.1501 249.0421,143.4894 254.1024,124.6243 257.9088,109.8409 260.304,96.99034 263.043,83.88445 266.1315,70.07623 269.819,54.7256 272.236,47.94347 "
id = "19" />
  <path
     style="fill:none;stroke:#000000;stroke-width:5;stroke-opacity:1"
     d = "M 223.9924,230.855 231.6171,211.0352 238.9169,188.7467 244.8798,165.2816 251.3224,143.5112 256.1918,124.7633 259.9243,110.0899 262.408,97.36682 265.4033,84.39313 268.7024,70.65 272.7635,55.27528 275.5319,47.98331 "
id = "20" />
  <path
     style="fill:none;stroke:#000000;stroke-width:5;stroke-opacity:1"
     d = "M 226.6837,231.3995 234.3085,211.6501 241.5986,189.2797 247.2258,165.6061 253.4107,143.7086 258.1999,124.9929 261.8887,110.4278 264.5068,97.78461 267.7566,84.97993 271.2588,71.33547 275.6884,55.97903 278.9462,47.91238 "
id = "21" />
  <path
     style="fill:none;stroke:#000000;stroke-width:5;stroke-opacity:1"
     d = "M 228.4724,231.7886 236.087,212.0885 243.2845,189.7062 248.6787,165.8678 254.7137,143.902 259.4438,125.188 263.137,110.6881 265.8898,98.0531 269.3253,85.34364 272.9774,71.81259 277.6635,56.46746 281.2292,47.98705 "
id = "22" />
  <path
     style="fill:none;stroke:#000000;stroke-width:5;stroke-opacity:1"
     d = "M 231.1467,232.4111 238.7392,212.7881 245.8423,190.3969 250.882,166.3317 256.6588,144.1642 261.3035,125.4356 264.9987,111.0397 267.9597,98.40529 271.6733,85.82561 275.5579,72.42671 280.68,57.14779 284.7856,47.91945 "
id = "23" />
  <path
     style="fill:none;stroke:#000000;stroke-width:5;stroke-opacity:1"
     d = "M 233.8097,233.0803 241.343,213.6082 248.2963,191.3328 252.9838,167.137 258.5441,144.733 263.1053,125.8818 266.848,111.5586 270.0262,98.93353 274.0415,86.47225 278.2894,73.20911 283.8734,58.02553 288.5752,47.9703 "
id = "24" />
  <path
     style="fill:none;stroke:#000000;stroke-width:5;stroke-opacity:1"
     d = "M 236.4606,233.7957 244.0002,214.4035 250.6739,192.3463 255.0562,168.1052 260.4059,145.4507 264.8852,126.44 268.6865,112.1342 272.1015,99.581 276.4156,87.28599 281.107,74.21939 287.2015,59.27908 292.7886,47.98521 "
id = "25" />
  <path
     style="fill:none;stroke:#000000;stroke-width:5;stroke-opacity:1"
     d = "M 239.0723,234.5496 246.6739,215.1901 253.0754,193.3911 257.105,169.0555 262.2535,146.1327 266.6406,126.9697 270.5269,112.678 274.0919,100.1847 278.5707,88.07589 283.6253,75.21246 290.2012,60.51695 296.8271,47.9574 "
id = "26" />
  <path
     style="fill:none;stroke:#000000;stroke-width:5;stroke-opacity:1"
     d = "M 241.7231,235.365 249.2442,216.0435 255.3603,194.4919 259.0001,170.0446 263.9932,146.8278 268.3233,127.5366 272.3273,113.1975 275.9353,100.8014 280.5407,88.84718 285.9283,76.12422 292.9316,61.72261 300.5545,47.99745 "
id = "27" />
  <path
     style="fill:none;stroke:#000000;stroke-width:5;stroke-opacity:1"
     d = "M 244.3329,236.2183 251.7407,216.9702 257.5299,195.6145 260.8297,171.1125 265.633,147.6372 269.9161,128.1882 274.0674,113.7426 277.7311,101.4219 282.39,89.61814 288.0811,77.07124 295.5394,62.93642 304.2084,47.96497 "
id = "28" />
  <path
     style="fill:none;stroke:#000000;stroke-width:5;stroke-opacity:1"
     d = "M 246.9274,237.117 254.2842,217.9693 259.6691,196.7971 262.7003,172.277 267.289,148.5495 271.5231,128.9246 275.7632,114.3594 279.4566,102.1132 284.1462,90.47783 290.0875,78.12184 297.8843,64.2773 307.3673,48.50394 307.7514,47.91869 "
id = "29" />
  <path
     style="fill:none;stroke:#000000;stroke-width:5;stroke-opacity:1"
     d = "M 249.5059,238.0608 256.761,219.1432 261.8914,198.1689 264.7077,173.6642 268.9945,149.6433 273.1642,129.797 277.3172,115.1243 281.0464,102.9224 285.7058,91.40539 291.831,79.22741 299.828,65.59039 309.5876,50.10181 311.0786,47.97168 "
id = "30" />
  <path
     style="fill:none;stroke:#000000;stroke-width:5;stroke-opacity:1"
     d = "M 252.0675,239.0495 259.2035,220.4247 264.1639,199.5917 266.7612,175.1917 270.6784,150.8116 274.7566,130.7549 278.7608,115.9333 282.5123,103.7017 287.1582,92.24316 293.391,80.25957 301.4915,66.77237 311.4581,51.60287 314.1291,47.98099 "
id = "31" />
  <path
     style="fill:none;stroke:#000000;stroke-width:5;stroke-opacity:1"
     d = "M 254.6116,240.0827 261.6133,221.6916 266.4668,200.994 268.876,176.7376 272.4112,152.0247 276.3337,131.758 280.2278,116.7406 283.9432,104.5055 288.5409,93.01452 294.8246,81.20586 302.9922,67.87771 313.1088,53.01116 317.0034,47.93304 "
id = "32" />
  <path
     style="fill:none;stroke:#000000;stroke-width:5;stroke-opacity:1"
     d = "M 257.1119,241.1493 263.9334,222.9653 268.7334,202.3816 271.0637,178.3171 274.2227,153.452 277.9543,132.8483 281.6885,117.6643 285.3258,105.4051 289.8304,93.88985 296.0707,82.17116 304.285,69.00975 314.4676,54.38276 319.545,47.94398 "
id = "33" />
  <path
     style="fill:none;stroke:#000000;stroke-width:5;stroke-opacity:1"
     d = "M 260.4745,242.6651 267.1179,224.891 271.8466,204.5284 274.2354,180.8224 276.8504,155.7078 280.2915,134.4849 283.7438,119.0148 287.3067,106.6286 291.6601,95.04765 297.7812,83.39905 306.0535,70.45644 316.2769,56.1345 323.0087,47.94585 "
id = "34" />
  <path
     style="fill:none;stroke:#000000;stroke-width:5;stroke-opacity:1"
     d = "M 262.9541,243.8445 269.5169,226.431 274.2101,206.3476 276.726,183.058 279.0982,157.9754 282.1469,136.0781 285.4136,120.2389 288.9119,107.6836 293.0956,96.13342 299.0039,84.55566 307.1673,71.74687 317.3568,57.64291 325.5501,47.93904 "
id = "35" />
  <path
     style="fill:none;stroke:#000000;stroke-width:5;stroke-opacity:1"
     d = "M 265.4127,245.067 271.9418,227.9784 276.6292,208.3303 279.3014,185.5126 281.5434,160.6278 284.0691,137.935 287.1247,121.6526 290.5423,108.8851 294.5699,97.35728 300.2168,85.84392 308.1597,73.17845 318.2766,59.28386 327.9937,47.98939 "
id = "36" />
  <path
     style="fill:none;stroke:#000000;stroke-width:5;stroke-opacity:1"
     d = "M 267.8496,246.3322 274.3672,229.4899 279.0862,210.2176 281.9056,187.771 284.1134,163.1779 286.1977,139.8822 289.0216,123.0747 292.2528,110.0601 296.1317,98.57943 301.4781,87.09073 309.1781,74.55304 319.2127,60.90462 330.5401,47.96184 "
id = "37" />
  <path
     style="fill:none;stroke:#000000;stroke-width:5;stroke-opacity:1"
     d = "M 270.2642,247.6398 276.8045,231.032 281.5301,212.1951 284.4897,190.1354 286.6934,165.8623 288.6,141.9754 291.0637,124.4046 294.1506,111.0654 297.8622,99.61996 302.9266,88.10882 310.4408,75.68076 320.3902,62.28884 332.3254,48.92809 333.3645,47.98969 "
id = "38" />
  <path
     style="fill:none;stroke:#000000;stroke-width:5;stroke-opacity:1"
     d = "M 272.6554,248.9893 279.3678,232.5383 284.0308,214.2071 287.0767,192.5346 289.2953,168.6988 291.184,144.2704 293.3333,125.8279 296.1977,112.1799 299.6854,100.7202 304.4824,89.16846 311.8034,76.85516 321.6257,63.67921 333.6066,50.48438 336.0709,48.28907 "
id = "39" />
  <path
     style="fill:none;stroke:#000000;stroke-width:5;stroke-opacity:1"
     d = "M 275.0228,250.3803 281.9099,234.1102 286.5688,216.2673 289.7786,195.136 292.0797,171.7857 294.0052,146.8684 295.9035,127.6021 298.3553,113.5386 301.5741,101.9464 306.1327,90.29335 313.1997,78.05154 322.8101,65.06433 334.8071,52.01134 336.0088,50.95501 "
id = "40" />
  <path
     style="fill:none;stroke:#000000;stroke-width:5;stroke-opacity:1"
     d = "M 277.3655,251.8125 284.4012,235.6973 289.1572,218.2789 292.6016,197.8016 295.064,174.9981 297.2097,149.7777 298.844,129.682 300.7802,115.0786 303.7024,103.2004 307.9685,91.35657 314.7569,79.13725 324.1825,66.32085 336.0186,53.56742 "
id = "41" />
  <path
     style="fill:none;stroke:#000000;stroke-width:5;stroke-opacity:1"
     d = "M 279.6829,253.2853 286.9001,237.3249 291.9022,220.2255 295.6503,200.4236 298.3901,178.1459 300.8957,152.8678 302.3802,131.8983 303.5997,116.618 306.2026,104.3424 310.2606,92.33246 316.6892,80.04291 325.9599,67.29807 336.0311,56.59052 "
id = "42" />
  <path
     style="fill:none;stroke:#000000;stroke-width:5;stroke-opacity:1"
     d = "M 281.2134,254.2895 288.5973,238.4182 293.8097,221.4933 297.7903,202.1178 300.8183,180.209 303.5442,155.1328 305.0741,133.5619 305.778,117.8028 308.0484,105.226 311.902,93.11938 318.0695,80.767 327.1953,68.05534 336.0569,58.68218 "
id = "43" />
  <path
     style="fill:none;stroke:#000000;stroke-width:5;stroke-opacity:1"
     d = "M 283.4869,255.8291 291.1323,239.9872 296.7011,223.2602 301.0357,204.5319 304.4914,183.265 307.6878,158.7549 309.6434,136.5106 309.8338,119.8605 311.2743,106.8654 314.63,94.54272 320.3651,82.04888 329.2076,69.35942 336.0416,62.1953 "
id = "44" />
  <path
     style="fill:none;stroke:#000000;stroke-width:5;stroke-opacity:1"
     d = "M 285.7332,257.4081 293.5959,241.4586 299.6123,224.8249 304.2768,206.7379 308.1959,186.2956 312.1779,162.6943 315.0582,140.1063 315.4282,122.6634 316.0299,109.2264 318.5235,96.61453 323.6536,83.79634 332.0927,71.08078 336.0646,66.85486 "
id = "45" />
  <path
     style="fill:none;stroke:#000000;stroke-width:5;stroke-opacity:1"
     d = "M 287.9518,259.0262 296.0697,242.9382 302.5609,226.298 307.4754,208.7154 311.7428,189.2102 316.4424,166.7995 320.3837,144.5811 321.4207,126.6978 321.1912,112.6899 322.5367,99.92805 326.7068,86.90034 334.3249,73.99904 336.0515,72.05487 "
id = "46" />
  <path
     style="fill:none;stroke:#000000;stroke-width:5;stroke-opacity:1"
     d = "M 290.1416,260.6826 298.5869,244.4879 305.5874,227.8161 310.7666,210.6574 315.4093,192.1356 320.8289,171.0054 326.0927,149.5605 328.3014,131.6005 327.6149,117.0947 327.802,104.4317 330.1666,91.50459 336.0289,79.01245 "
id = "47" />
  <path
     style="fill:none;stroke:#000000;stroke-width:5;stroke-opacity:1"
     d = "M 292.3022,262.377 301.1488,246.1386 308.594,229.3906 314.3148,212.6291 319.5026,195.1443 325.658,175.5529 332.5446,155.3226 336.0119,141.3458 "
id = "48" />
  <path
     style="fill:none;stroke:#000000;stroke-width:5;stroke-opacity:1"
     d = "M 294.4329,264.1089 303.6883,247.7943 311.5486,231.0023 317.9417,214.7687 324.0697,198.3686 331.3397,180.744 336.0059,170.7823 "
id = "49" />
  <path
     style="fill:none;stroke:#000000;stroke-width:5;stroke-opacity:1"
     d = "M 296.5331,265.8777 306.269,249.6007 314.6067,232.763 321.7789,217.0838 329.0337,201.7691 336.0106,189.6331 "
id = "50" />
  <path
     style="fill:none;stroke:#000000;stroke-width:5;stroke-opacity:1"
     d = "M 298.6021,267.6829 308.9429,251.466 317.8961,234.6128 325.8271,219.4272 334.1036,205.2693 336.046,202.7263 "
id = "51" />
  <path
     style="fill:none;stroke:#000000;stroke-width:5;stroke-opacity:1"
     d = "M 300.619,269.5054 311.5798,253.3156 321.2396,236.55 329.9529,221.8773 336.0377,213.1966 "
id = "52" />
  <path
     style="fill:none;stroke:#000000;stroke-width:5;stroke-opacity:1"
     d = "M 302.644,271.4002 314.2641,255.2728 324.688,238.6069 334.1564,224.5638 336.0406,222.3593 "
id = "53" />
  <path
     style="fill:none;stroke:#000000;stroke-width:5;stroke-opacity:1"
     d = "M 304.6157,273.3112 316.9108,257.2361 328.0936,240.8186 336.0441,230.5334 "
id = "54" />
  <path
     style="fill:none;stroke:#000000;stroke-width:5;stroke-opacity:1"
     d = "M 306.5537,275.2563 319.5093,259.2643 331.5533,243.0996 336.0046,238.0921 "
id = "55" />
  <path
     style="fill:none;stroke:#000000;stroke-width:5;stroke-opacity:1"
     d = "M 308.4575,277.235 322.0504,261.4226 334.9963,245.5735 336.0579,244.5138 "
id = "56" />
  <path
     style="fill:none;stroke:#000000;stroke-width:5;stroke-opacity:1"
     d = "M 310.3264,279.2465 324.5064,263.6455 336.0611,250.6358 "
id = "57" />
  <path
     style="fill:none;stroke:#000000;stroke-width:5;stroke-opacity:1"
     d = "M 312.16,281.2904 326.9475,265.8375 336.0305,256.3987 "
id = "58" />
  <path
     style="fill:none;stroke:#000000;stroke-width:5;stroke-opacity:1"
     d = "M 313.9576,283.3659 329.345,268.0914 336.0373,261.6346 "
id = "59" />
  <path
     style="fill:none;stroke:#000000;stroke-width:5;stroke-opacity:1"
     d = "M 315.7188,285.4726 331.7298,270.3973 336.0168,266.4908 "
id = "60" />
  <path
     style="fill:none;stroke:#000000;stroke-width:5;stroke-opacity:1"
     d = "M 317.4428,287.6096 333.9155,272.7403 336.0313,270.9066 "
id = "61" />
  <path
     style="fill:none;stroke:#000000;stroke-width:5;stroke-opacity:1"
     d = "M 319.1294,289.7764 335.9129,275.2507 336.067,275.1233 "
id = "62" />
  <path
     style="fill:none;stroke:#000000;stroke-width:5;stroke-opacity:1"
     d = "M 320.7778,291.9723 336.0653,279.3858 "
id = "63" />
  <path
     style="fill:none;stroke:#000000;stroke-width:5;stroke-opacity:1"
     d = "M 322.3877,294.1966 336.03,283.5531 "
id = "64" />
  <path
     style="fill:none;stroke:#000000;stroke-width:5;stroke-opacity:1"
     d = "M 323.9585,296.4488 336.0389,287.5544 "
id = "65" />
  <path
     style="fill:none;stroke:#000000;stroke-width:5;stroke-opacity:1"
     d = "M 325.4746,298.705 336.0137,291.4433 "
id = "66" />
  <path
     style="fill:none;stroke:#000000;stroke-width:5;stroke-opacity:1"
     d = "M 327.4692,301.8077 336.0792,296.3386 "
id = "67" />
  <path
     style="fill:none;stroke:#000000;stroke-width:5;stroke-opacity:1"
     d = "M 328.9064,304.1473 336.0037,299.8438 "
id = "68" />
  <path
     style="fill:none;stroke:#000000;stroke-width:5;stroke-opacity:1"
     d = "M 330.3025,306.5117 336.0288,303.2306 "
id = "69" />
  <path
     style="fill:none;stroke:#000000;stroke-width:5;stroke-opacity:1"
     d = "M 331.6572,308.9 336.0594,306.5288 "
id = "70" />
  <path
     style="fill:none;stroke:#000000;stroke-width:5;stroke-opacity:1"
     d = "M 332.97,311.3117 336.0879,309.7213 "
id = "71" />
  <path
     style="fill:none;stroke:#000000;stroke-width:5;stroke-opacity:1"
     d = "M 334.2405,313.7458 336.041,312.8749 "
id = "72" />
  <path
     style="fill:none;stroke:#000000;stroke-width:5;stroke-opacity:1"
     d = "M 335.4684,316.2018 336.0133,315.9506 "
id = "73" />
  <path
     style="fill:none;stroke:#000000;stroke-width:5;stroke-opacity:1"
     d = "M 334.8075,455.7763 336.0191,456.2472 "
id = "126" />
  <path
     style="fill:none;stroke:#000000;stroke-width:5;stroke-opacity:1"
     d = "M 333.5565,458.2206 336.0729,459.1995 "
id = "127" />
  <path
     style="fill:none;stroke:#000000;stroke-width:5;stroke-opacity:1"
     d = "M 332.2629,460.6426 336.0817,462.1341 "
id = "128" />
  <path
     style="fill:none;stroke:#000000;stroke-width:5;stroke-opacity:1"
     d = "M 330.9274,463.0417 336.045,465.0558 "
id = "129" />
  <path
     style="fill:none;stroke:#000000;stroke-width:5;stroke-opacity:1"
     d = "M 329.5501,465.4171 336.0635,467.9806 "
id = "130" />
  <path
     style="fill:none;stroke:#000000;stroke-width:5;stroke-opacity:1"
     d = "M 328.1317,467.7681 336.0537,470.8472 "
id = "131" />
  <path
     style="fill:none;stroke:#000000;stroke-width:5;stroke-opacity:1"
     d = "M 326.6871,470.0709 336.0819,473.7789 "
id = "132" />
  <path
     style="fill:none;stroke:#000000;stroke-width:5;stroke-opacity:1"
     d = "M 325.1727,472.3941 336.0551,476.9567 "
id = "133" />
  <path
     style="fill:none;stroke:#000000;stroke-width:5;stroke-opacity:1"
     d = "M 323.1111,475.4195 335.6025,481.069 336.0682,481.2509 "
id = "134" />
  <path
     style="fill:none;stroke:#000000;stroke-width:5;stroke-opacity:1"
     d = "M 321.519,477.6566 333.6482,483.5106 336.0556,484.4929 "
id = "135" />
  <path
     style="fill:none;stroke:#000000;stroke-width:5;stroke-opacity:1"
     d = "M 319.8882,479.8656 331.6787,485.9579 336.0806,487.8739 "
id = "136" />
  <path
     style="fill:none;stroke:#000000;stroke-width:5;stroke-opacity:1"
     d = "M 318.219,482.0458 329.7362,488.4466 336.0594,491.448 "
id = "137" />
  <path
     style="fill:none;stroke:#000000;stroke-width:5;stroke-opacity:1"
     d = "M 316.512,484.1966 327.8985,491.0835 336.0378,495.3708 "
id = "138" />
  <path
     style="fill:none;stroke:#000000;stroke-width:5;stroke-opacity:1"
     d = "M 314.7678,486.3172 326.0795,493.6678 336.019,499.2516 "
id = "139" />
  <path
     style="fill:none;stroke:#000000;stroke-width:5;stroke-opacity:1"
     d = "M 312.9868,488.407 324.2165,496.203 335.3123,502.7864 336.0115,503.1753 "
id = "140" />
  <path
     style="fill:none;stroke:#000000;stroke-width:5;stroke-opacity:1"
     d = "M 311.1696,490.4655 322.305,498.7021 333.2947,505.7862 336.0349,507.4386 "
id = "141" />
  <path
     style="fill:none;stroke:#000000;stroke-width:5;stroke-opacity:1"
     d = "M 309.3168,492.4919 320.3119,501.1206 331.1836,508.7619 336.0335,511.9427 "
id = "142" />
  <path
     style="fill:none;stroke:#000000;stroke-width:5;stroke-opacity:1"
     d = "M 307.4288,494.4857 318.2179,503.4861 328.973,511.7325 336.0407,516.8036 "
id = "143" />
  <path
     style="fill:none;stroke:#000000;stroke-width:5;stroke-opacity:1"
     d = "M 305.5064,496.4462 315.9929,505.9322 326.6117,514.8202 336.0526,522.225 "
id = "144" />
  <path
     style="fill:none;stroke:#000000;stroke-width:5;stroke-opacity:1"
     d = "M 303.5501,498.3729 313.7554,508.3589 324.1642,517.8663 334.6004,526.7346 336.0314,527.9847 "
id = "145" />
  <path
     style="fill:none;stroke:#000000;stroke-width:5;stroke-opacity:1"
     d = "M 301.5604,500.2651 311.4166,510.7388 321.6434,520.9355 331.9948,530.3159 336.0214,534.0623 "
id = "146" />
  <path
     style="fill:none;stroke:#000000;stroke-width:5;stroke-opacity:1"
     d = "M 299.538,502.1223 309.0079,513.0664 319.0657,523.8654 329.282,533.8312 336.0408,540.6457 "
id = "147" />
  <path
     style="fill:none;stroke:#000000;stroke-width:5;stroke-opacity:1"
     d = "M 297.4835,503.944 306.6381,515.4001 316.5654,526.7672 326.6224,537.2818 336.0392,547.3724 "
id = "148" />
  <path
     style="fill:none;stroke:#000000;stroke-width:5;stroke-opacity:1"
     d = "M 296.1172,505.1205 305.0945,516.9163 314.9341,528.6252 324.8812,539.455 334.6053,550.0787 336.0379,552.0035 "
id = "149" />
  <path
     style="fill:none;stroke:#000000;stroke-width:5;stroke-opacity:1"
     d = "M 293.2806,507.4783 302.0256,519.9656 311.6453,532.3856 321.3844,543.8895 331.3187,555.1866 336.0575,561.632 "
id = "150" />
  <path
     style="fill:none;stroke:#000000;stroke-width:5;stroke-opacity:1"
     d = "M 291.1336,509.1899 299.699,522.0906 309.1153,534.9639 318.9283,546.9184 329.1241,558.6176 336.051,568.0439 "
id = "151" />
  <path
     style="fill:none;stroke:#000000;stroke-width:5;stroke-opacity:1"
     d = "M 288.957,510.8639 297.4086,524.1082 306.6753,537.3823 316.638,549.6101 327.0671,561.6232 336.0072,573.6716 "
id = "152" />
  <path
     style="fill:none;stroke:#000000;stroke-width:5;stroke-opacity:1"
     d = "M 286.7516,512.4995 295.0757,526.106 304.4025,539.7448 314.528,552.1035 325.0948,564.3879 334.8836,577.4753 336.0357,579.5803 "
id = "153" />
  <path
     style="fill:none;stroke:#000000;stroke-width:5;stroke-opacity:1"
     d = "M 284.5179,514.0964 292.8083,528.1307 302.3192,542.1354 312.6015,554.5786 323.2708,567.0515 333.2713,580.3895 336.0078,585.5048 "
id = "154" />
  <path
     style="fill:none;stroke:#000000;stroke-width:5;stroke-opacity:1"
     d = "M 282.2567,515.6541 290.5475,530.1089 300.2172,544.4944 310.7215,557.0704 321.5497,569.744 331.7404,583.215 336.0289,591.4683 "
id = "155" />
  <path
     style="fill:none;stroke:#000000;stroke-width:5;stroke-opacity:1"
     d = "M 279.9687,517.1721 288.2551,531.9726 298.0362,546.7397 308.6873,559.4215 319.7326,572.3024 330.0927,585.9003 336.0054,597.5898 "
id = "156" />
  <path
     style="fill:none;stroke:#000000;stroke-width:5;stroke-opacity:1"
     d = "M 277.6545,518.6499 285.8809,533.7562 295.7515,548.9236 306.515,561.8993 317.8011,574.947 328.3789,588.7469 336.0254,604.3797 "
id = "157" />
  <path
     style="fill:none;stroke:#000000;stroke-width:5;stroke-opacity:1"
     d = "M 275.3148,520.0871 283.4544,535.5067 293.3649,551.0891 304.2694,564.4768 315.8224,577.6998 326.5686,591.7902 335.3129,610.4908 336.0026,612.3682 "
id = "158" />
  <path
     style="fill:none;stroke:#000000;stroke-width:5;stroke-opacity:1"
     d = "M 272.9505,521.4833 280.9796,537.1969 290.8336,553.1308 301.8882,567.05 313.8323,580.481 324.7137,594.8946 333.318,614.0467 336.0197,621.364 "
id = "159" />
  <path
     style="fill:none;stroke:#000000;stroke-width:5;stroke-opacity:1"
     d = "M 270.5622,522.838 278.4464,538.8133 288.1569,555.1261 299.3367,569.6547 311.7482,583.3646 322.7,598.0363 331.2052,617.4489 336.0283,630.4886 "
id = "160" />
  <path
     style="fill:none;stroke:#000000;stroke-width:5;stroke-opacity:1"
     d = "M 268.1506,524.1508 275.8248,540.3771 285.3072,556.9729 296.6337,572.1329 309.2411,586.1187 320.2563,601.0484 328.7189,620.6833 336.021,640.4775 "
id = "161" />
  <path
     style="fill:none;stroke:#000000;stroke-width:5;stroke-opacity:1"
     d = "M 265.7163,525.4213 273.1514,541.895 282.4271,558.8359 293.9257,574.6101 306.4306,588.959 317.7114,604.2265 326.224,624.1433 335.2188,648.1631 336.0224,649.7737 "
id = "162" />
  <path
     style="fill:none;stroke:#000000;stroke-width:5;stroke-opacity:1"
     d = "M 263.2604,526.6491 270.4993,543.4084 279.617,560.7971 291.2141,577.0983 303.6458,591.755 315.1045,607.239 323.6165,627.3784 332.5724,651.7092 336.0096,658.4863 "
id = "163" />
  <path
     style="fill:none;stroke:#000000;stroke-width:5;stroke-opacity:1"
     d = "M 260.7834,527.8339 267.8212,544.7939 276.7614,562.6442 288.3737,579.395 300.7818,594.3026 312.2078,609.9927 320.648,630.3036 329.3704,654.8408 336.0354,668.2808 "
id = "164" />
  <path
     style="fill:none;stroke:#000000;stroke-width:5;stroke-opacity:1"
     d = "M 258.286,528.9752 265.0849,546.11 273.8597,564.4255 285.5579,581.5088 297.8765,596.7267 309.0211,612.5148 317.1718,632.968 325.497,657.5375 336.0073,679.7742 "
id = "165" />
  <path
     style="fill:none;stroke:#000000;stroke-width:5;stroke-opacity:1"
     d = "M 255.7692,530.0728 262.3643,547.3643 270.8805,566.0646 282.5912,583.476 294.773,599.0421 305.3405,614.8921 313.1593,635.4387 320.6324,659.8786 330.9908,683.7274 336.008,691.4371 "
id = "166" />
  <path
     style="fill:none;stroke:#000000;stroke-width:5;stroke-opacity:1"
     d = "M 253.2335,531.1263 259.596,548.4846 267.8602,567.5059 279.2637,585.2039 291.2037,601.1611 301.106,617.1926 308.6371,637.6229 315.06,661.5846 323.8911,684.8234 335.1484,704.8489 336.0297,706.1838 "
id = "167" />
  <path
     style="fill:none;stroke:#000000;stroke-width:5;stroke-opacity:1"
     d = "M 250.6798,532.1354 256.7845,549.5241 264.8241,568.877 275.8724,587.0299 287.3811,603.3098 296.4883,619.7177 303.4788,639.7098 308.897,662.6911 315.8656,685.4583 324.9823,705.8314 332.7887,720.0301 "
id = "168" />
  <path
     style="fill:none;stroke:#000000;stroke-width:5;stroke-opacity:1"
     d = "M 248.109,533.0999 253.9499,550.4954 261.7332,570.1523 272.3553,588.751 283.3551,605.4678 291.6273,622.2325 297.6754,641.7144 301.9385,663.3331 306.8418,685.3848 314.0319,705.7482 320.0062,720.0524 "
id = "169" />
  <path
     style="fill:none;stroke:#000000;stroke-width:5;stroke-opacity:1"
     d = "M 245.5217,534.0192 251.1968,551.4295 258.6409,571.2596 268.7533,590.2429 279.0658,607.3384 286.5717,624.5891 291.1577,643.3354 294.0238,663.7133 297.1676,684.7684 302.6957,705.2191 307.6136,720.025 "
id = "170" />
  <path
     style="fill:none;stroke:#000000;stroke-width:5;stroke-opacity:1"
     d = "M 243.788,534.607 249.3208,552.0083 256.4592,571.9399 266.2654,591.1122 276.1738,608.4284 283.145,625.9099 286.7156,644.1811 288.6981,663.9809 290.9738,684.5371 295.5145,704.7983 300.0805,720.0248 "
id = "171" />
  <path
     style="fill:none;stroke:#000000;stroke-width:5;stroke-opacity:1"
     d = "M 241.1751,535.4507 246.4216,552.8451 253.0479,572.8793 262.3376,592.3755 271.7113,610.0445 277.935,627.783 280.3387,645.7709 281.2033,664.91 282.5949,685.0089 286.1772,705.4796 290.1218,720.0598 "
id = "172" />
  <path
     style="fill:none;stroke:#000000;stroke-width:5;stroke-opacity:1"
     d = "M 238.5478,536.2487 243.4381,553.6202 249.5728,573.7674 258.1908,593.6277 267.1504,611.7014 272.5286,629.5394 273.9613,647.351 273.8895,666.2921 274.7285,686.1085 277.6357,706.6578 280.9417,720.0585 "
id = "173" />
  <path
     style="fill:none;stroke:#000000;stroke-width:5;stroke-opacity:1"
     d = "M 235.907,537.0007 240.2672,554.4045 245.8023,574.7299 253.8947,594.9293 262.4692,613.5605 267.0067,631.4363 267.5969,649.5439 266.7312,668.3742 267.3071,688.1466 269.9864,708.6871 272.6607,720.0772 "
id = "174" />
  <path
     style="fill:none;stroke:#000000;stroke-width:5;stroke-opacity:1"
     d = "M 233.2535,537.7065 237.0024,555.1882 241.8002,575.6876 249.3033,596.3097 257.5023,615.1857 261.3299,632.989 261.2929,651.2406 259.9923,669.9333 260.4503,689.2981 263.3562,709.8635 265.7979,720.0726 "
id = "175" />
  <path
     style="fill:none;stroke:#000000;stroke-width:5;stroke-opacity:1"
     d = "M 230.588,538.366 233.7283,555.9552 237.7248,576.4244 244.4431,597.3461 252.3996,616.5059 255.8547,634.2101 255.5909,652.4578 254.2209,671.1594 254.774,690.0562 258.0427,710.4124 260.4506,720.0139 "
id = "176" />
  <path
     style="fill:none;stroke:#000000;stroke-width:5;stroke-opacity:1"
     d = "M 227.9115,538.9787 230.4798,556.688 233.9543,577.0941 240.1891,598.3114 247.7457,617.7137 251.0997,635.4772 250.6978,653.5787 249.5302,672.1764 250.283,690.8321 254.005,710.8256 256.4286,720.0101 "
id = "177" />
  <path
     style="fill:none;stroke:#000000;stroke-width:5;stroke-opacity:1"
     d = "M 225.2247,539.5447 227.2393,557.3716 230.2944,577.8473 236.3272,599.3993 243.6713,619.0153 246.8855,636.9003 246.4693,654.9228 245.5753,673.3277 246.649,691.9166 250.5452,711.377 252.9183,720.0562 "
id = "178" />
  <path
     style="fill:none;stroke:#000000;stroke-width:5;stroke-opacity:1"
     d = "M 222.5284,540.0637 224.0491,558.0208 226.8255,578.4698 232.6314,600.1464 239.9145,620.0502 242.986,638.2286 242.6369,656.2765 241.9752,674.4891 243.2921,693.0806 247.1812,712.0417 249.3874,720.0408 "
id = "179" />
  <path
     style="fill:none;stroke:#000000;stroke-width:5;stroke-opacity:1"
     d = "M 219.8234,540.5356 220.7986,558.6465 223.3074,578.988 228.8192,600.6587 236.0048,620.9785 239.0211,639.7332 238.8577,658.0671 238.3901,676.3602 240.0323,695.0801 243.9235,713.6106 245.7137,720.0677 "
id = "180" />
  <path
     style="fill:none;stroke:#000000;stroke-width:5;stroke-opacity:1"
     d = "M 217.1106,540.9601 217.6899,559.1179 219.8433,579.3647 225.1178,601.0203 232.1214,621.8986 235.0782,641.3352 235.2178,660.1053 234.9732,678.6155 236.9086,697.5385 240.879,715.7273 242.0902,720.0614 "
id = "181" />
  <path
     style="fill:none;stroke:#000000;stroke-width:5;stroke-opacity:1"
     d = "M 214.3909,541.3373 214.6074,559.4622 216.4458,579.5957 221.5288,601.3716 228.2149,622.7316 231.2166,642.696 231.7425,661.8186 231.773,680.6597 233.8159,699.5381 237.811,717.4417 238.5337,720.0438 "
id = "182" />
  <path
     style="fill:none;stroke:#000000;stroke-width:5;stroke-opacity:1"
     d = "M 211.665,541.667 211.5312,559.7147 213.0742,579.8719 218.1291,601.7974 224.7289,623.6111 227.8088,644.0385 228.5292,663.4582 228.7515,682.5397 230.7381,701.1635 234.7618,718.829 235.0946,720.0858 "
id = "183" />
  <path
     style="fill:none;stroke:#000000;stroke-width:5;stroke-opacity:1"
     d = "M 208.9337,541.949 208.4306,559.8333 209.6198,579.978 214.5685,602.0528 221.0824,624.2811 224.2925,645.2219 225.0046,664.7676 225.4261,684.1375 227.292,702.4399 231.2593,719.7849 231.3309,720.0762 "
id = "184" />
  <path
     style="fill:none;stroke:#000000;stroke-width:5;stroke-opacity:1"
     d = "M 206.1979,542.1833 205.4286,559.81 206.3565,579.8522 211.0249,602.077 217.4773,624.5096 221.0643,646.0447 221.7771,665.7458 222.3026,685.3496 224.1535,703.3998 227.9213,720.0781 "
id = "185" />
  <path
     style="fill:none;stroke:#000000;stroke-width:5;stroke-opacity:1"
     d = "M 203.4584,542.3699 202.5252,559.7471 203.2144,579.6406 207.6378,601.8593 214.0546,624.3768 218.0001,646.415 218.6748,666.3546 219.1974,686.0626 221.1048,704.0074 224.5456,720.043 "
id = "186" />
  <path
     style="fill:none;stroke:#000000;stroke-width:5;stroke-opacity:1"
     d = "M 200.7161,542.5085 199.5764,559.634 200.0535,579.3763 204.2266,601.5329 210.6647,624.1136 214.8548,646.4693 215.5164,666.7127 216.0248,686.4425 217.8851,704.4105 220.9517,720.0155 "
id = "187" />
  <path
     style="fill:none;stroke:#000000;stroke-width:5;stroke-opacity:1"
     d = "M 197.9719,542.5994 196.6761,559.5367 196.9907,579.1116 200.9997,601.1355 207.3538,623.8463 211.5027,646.5118 212.1393,667.071 212.556,686.8789 214.3214,704.8924 216.8498,720.0818 "
id = "188" />
  <path
     style="fill:none;stroke:#000000;stroke-width:5;stroke-opacity:1"
     d = "M 195.2264,542.6423 193.7955,559.3811 193.9762,578.852 197.8461,600.6782 204.092,623.431 208.2131,646.2158 208.8547,666.9728 209.1251,686.8941 210.714,705.037 212.7875,720.0941 "
id = "189" />
  <path
     style="fill:none;stroke:#000000;stroke-width:5;stroke-opacity:1"
     d = "M 192.4806,542.6373 190.8813,559.246 191.0288,578.5565 194.7445,600.1083 200.8083,622.8951 204.9732,645.8087 205.7219,666.8005 205.8472,686.8823 207.1507,705.1896 208.7785,720.0041 "
id = "190" />
  <path
     style="fill:none;stroke:#000000;stroke-width:5;stroke-opacity:1"
     d = "M 189.7353,542.5844 188.0182,559.0465 188.1265,578.1638 191.7475,599.472 197.4943,622.2344 201.6732,645.2285 202.4891,666.3495 202.4329,686.5266 203.3385,704.9973 204.4145,720.0568 "
id = "191" />
  <path
     style="fill:none;stroke:#000000;stroke-width:5;stroke-opacity:1"
     d = "M 186.9914,542.4835 185.2007,558.8538 185.3421,577.7881 188.8375,598.9247 194.1967,621.7241 198.1647,644.7023 198.8527,666.031 198.459,686.3165 198.8181,705.0129 199.1912,720.0092 "
id = "192" />
  <path
     style="fill:none;stroke:#000000;stroke-width:5;stroke-opacity:1"
     d = "M 184.2496,542.3348 182.4875,558.6408 182.7766,577.3381 186.1042,598.3016 191.0641,621.1296 194.6558,644.1007 195.1444,665.6467 194.5537,685.907 194.198,704.8663 193.8316,720.0626 "
id = "193" />
  <path
     style="fill:none;stroke:#000000;stroke-width:5;stroke-opacity:1"
     d = "M 181.5108,542.1382 179.7942,558.3759 180.2417,576.8008 183.3664,597.5685 187.9615,620.313 191.0959,643.3687 191.3176,664.9871 190.416,685.231 189.2775,704.3858 188.1276,720.0436 "
id = "194" />
  <path
     style="fill:none;stroke:#000000;stroke-width:5;stroke-opacity:1"
     d = "M 178.7759,541.8939 177.1031,558.0613 177.6668,576.1918 180.7404,596.7651 184.9842,619.3803 187.6633,642.4966 187.6532,664.2584 186.3267,684.5562 184.4669,704.0762 182.6122,720.074 "
id = "195" />
  <path
     style="fill:none;stroke:#000000;stroke-width:5;stroke-opacity:1"
     d = "M 176.0457,541.6019 174.4452,557.6741 175.1041,575.524 178.1493,595.8132 182.0628,618.2371 184.3843,641.3264 184.1514,663.2739 182.3533,683.6404 179.7134,703.4821 177.2722,720.0048 "
id = "196" />
  <path
     style="fill:none;stroke:#000000;stroke-width:5;stroke-opacity:1"
     d = "M 173.321,541.2623 171.931,557.2524 172.7823,574.8755 175.7764,594.8754 179.4195,617.04 181.4134,640.0239 180.9269,662.0973 178.6572,682.5759 175.3754,702.6208 172.2236,720.0356 "
id = "197" />
  <path
     style="fill:none;stroke:#000000;stroke-width:5;stroke-opacity:1"
     d = "M 170.6026,540.8752 169.4266,556.7426 170.5978,574.0623 173.5263,593.7465 176.9448,615.6291 178.6432,638.5709 177.8064,660.7379 175.0832,681.2783 171.0894,701.3347 167.0704,720.0104 "
id = "198" />
  <path
     style="fill:none;stroke:#000000;stroke-width:5;stroke-opacity:1"
     d = "M 167.8914,540.4407 166.8874,556.1533 168.3061,573.2297 171.1312,592.5204 174.2994,614.0723 175.823,636.9396 174.5228,659.2183 171.3435,679.7712 166.6931,699.8395 161.6657,720.0251 "
id = "199" />
  <path
     style="fill:none;stroke:#000000;stroke-width:5;stroke-opacity:1"
     d = "M 165.1882,539.959 164.3518,555.4818 166.0339,572.2469 168.8289,591.0372 171.752,612.2175 173.1682,635.0017 171.4377,657.3075 167.9131,677.7703 162.6965,698.0968 156.5017,719.7889 156.4209,720.0778 "
id = "200" />
  <path
     style="fill:none;stroke:#000000;stroke-width:5;stroke-opacity:1"
     d = "M 162.4938,539.4302 161.8404,554.7404 163.749,571.1715 166.626,589.454 169.3117,610.291 170.5911,632.9566 168.5798,655.1227 164.8932,675.4878 159.3791,695.915 152.6719,717.8425 151.9907,720.0394 "
id = "201" />
  <path
     style="fill:none;stroke:#000000;stroke-width:5;stroke-opacity:1"
     d = "M 159.8091,538.8544 159.3322,553.9464 161.439,570.0305 164.3608,587.7702 166.7377,608.1993 167.8833,630.6041 165.6825,652.5469 161.763,672.779 156.1071,693.251 149.0304,715.3838 147.4297,720.0134 "
id = "202" />
  <path
     style="fill:none;stroke:#000000;stroke-width:5;stroke-opacity:1"
     d = "M 157.1348,538.2318 156.8593,553.102 159.1153,568.8563 161.9503,586.2077 164.0132,606.179 164.9977,628.2087 162.5491,649.9635 158.3181,670.1041 152.4431,690.4889 145.0748,712.8006 142.41,720.024 "
id = "203" />
  <path
     style="fill:none;stroke:#000000;stroke-width:5;stroke-opacity:1"
     d = "M 154.4718,537.5627 154.3943,552.2155 156.6296,567.741 159.3576,584.7341 161.2312,604.2404 162.042,625.8701 159.4452,647.3785 154.9371,667.4316 148.8029,687.5837 141.2255,709.8102 137.2744,720.0757 "
id = "204" />
  <path
     style="fill:none;stroke:#000000;stroke-width:5;stroke-opacity:1"
     d = "M 151.8209,536.8472 151.8424,551.3568 154.0219,566.7037 156.6949,583.351 158.5415,602.3218 159.1547,623.5229 156.541,644.7347 151.8615,664.6642 145.5811,684.6318 137.874,706.6724 132.5808,720.0669 "
id = "205" />
  <path
     style="fill:none;stroke:#000000;stroke-width:5;stroke-opacity:1"
     d = "M 149.1827,536.0855 149.2684,550.4559 151.3663,565.6161 153.9969,581.9014 155.8114,600.3571 156.1931,620.9744 153.5054,641.8485 148.6624,661.6487 142.3269,681.4827 134.6138,703.4188 128.0914,720.0908 "
id = "206" />
  <path
     style="fill:none;stroke:#000000;stroke-width:5;stroke-opacity:1"
     d = "M 146.5584,535.2779 146.6261,549.5497 148.6739,564.4615 151.2623,580.3589 153.0198,598.3228 153.2387,618.3671 150.394,638.9722 145.358,658.6936 138.9792,678.1514 131.374,699.9267 123.6776,720.0042 "
id = "207" />
  <path
     style="fill:none;stroke:#000000;stroke-width:5;stroke-opacity:1"
     d = "M 143.9746,534.4333 143.9136,548.6537 145.9729,563.2888 148.5022,578.8265 150.2536,596.3353 150.3782,615.8024 147.4056,636.0465 141.9626,655.6909 135.4665,674.8434 128.024,696.3203 119.2414,719.498 119.0125,720.0528 "
id = "208" />
  <path
     style="fill:none;stroke:#000000;stroke-width:5;stroke-opacity:1"
     d = "M 141.354,533.526 141.1364,547.78 143.1382,562.3541 145.587,577.568 147.3642,594.6051 147.3624,613.4863 144.1842,633.3583 138.337,652.9205 131.5734,672.0603 124.1453,693.5504 115.2574,716.5812 113.8573,720.0071 "
id = "209" />
  <path
     style="fill:none;stroke:#000000;stroke-width:5;stroke-opacity:1"
     d = "M 138.7755,532.5822 138.3887,546.8896 140.3111,561.4131 142.7115,576.3919 144.5189,592.8156 144.3318,611.1121 140.9336,630.5949 134.7181,650.228 127.7719,669.6626 120.317,691.3591 111.4059,714.0833 109.0109,720.0169 "
id = "210" />
  <path
     style="fill:none;stroke:#000000;stroke-width:5;stroke-opacity:1"
     d = "M 136.2139,531.5934 135.557,545.9543 137.4071,560.3853 139.7645,575.0901 141.4241,590.9984 140.9178,608.6074 137.3033,627.6398 130.7213,647.142 123.6953,666.8552 116.2587,688.7307 107.4302,711.3051 103.9914,720.0545 "
id = "211" />
  <path
     style="fill:none;stroke:#000000;stroke-width:5;stroke-opacity:1"
     d = "M 133.67,530.5602 132.5297,545.0002 134.1075,559.3833 136.3188,573.8124 137.8064,589.2681 137.0391,606.0553 133.2513,624.5037 126.481,643.7948 119.1481,663.7996 111.8401,685.7107 103.3058,708.6723 98.86041,720.0353 "
id = "212" />
  <path
     style="fill:none;stroke:#000000;stroke-width:5;stroke-opacity:1"
     d = "M 131.1444,529.4828 129.4781,544.093 130.781,558.4429 132.8019,572.6502 134.1657,587.668 133.1829,603.7339 128.9944,621.4884 121.9913,640.4988 114.2944,660.6523 107.1619,682.8642 99.03823,706.126 93.49929,720.0695 "
id = "213" />
  <path
     style="fill:none;stroke:#000000;stroke-width:5;stroke-opacity:1"
     d = "M 128.6381,528.3614 126.2676,543.1313 127.1591,557.4568 128.9639,571.4584 130.2085,585.9694 129.0609,601.4672 124.4633,618.4047 117.0517,637.0324 108.9585,657.1641 101.6417,679.7762 94.01288,703.2529 87.35822,720.0891 "
id = "214" />
  <path
     style="fill:none;stroke:#000000;stroke-width:5;stroke-opacity:1"
     d = "M 126.1517,527.1964 123.0391,542.0623 123.1661,556.3579 124.7242,570.0837 125.7569,584.0382 124.3663,598.9784 119.4742,614.9907 111.542,632.8715 102.9577,652.7126 95.12202,675.2721 88.13043,698.6592 80.12822,719.1885 79.60919,720.043 "
id = "215" />
  <path
     style="fill:none;stroke:#000000;stroke-width:5;stroke-opacity:1"
     d = "M 123.6858,525.9882 119.8103,541.0222 119.0088,555.3498 119.957,568.8383 120.5122,582.3225 118.813,596.657 113.7364,612.0724 105.4924,629.2679 96.40699,648.7455 88.10283,671.3375 81.16817,694.7188 73.20536,714.3699 69.67982,720.0664 "
id = "216" />
  <path
     style="fill:none;stroke:#000000;stroke-width:5;stroke-opacity:1"
     d = "M 121.2416,524.7372 116.5295,539.9894 114.903,554.4596 115.1064,567.7649 115.0096,580.9162 112.9822,594.6727 107.499,609.8038 98.92414,626.5085 89.33087,646.0375 80.59556,668.5719 73.10046,691.342 64.81676,709.8817 57.9166,720.0616 "
id = "217" />
  <path
     style="fill:none;stroke:#000000;stroke-width:5;stroke-opacity:1"
     d = "M 118.8196,523.4437 113.2359,538.9221 110.7334,553.5295 110.0211,566.8486 109.1332,579.7539 106.1819,593.0751 99.70406,608.0502 90.39088,624.4444 80.27059,644.032 71.64171,666.3642 63.33083,687.5595 54.30195,704.6851 47.9412,712.9117 "
id = "218" />
  <path
     style="fill:none;stroke:#000000;stroke-width:5;stroke-opacity:1"
     d = "M 116.4444,522.1216 110.0779,537.8054 106.8119,552.681 105.2012,566.0906 103.1441,579.1899 98.74693,592.838 90.86691,608.1555 80.53703,625.0395 70.29495,644.3719 61.90371,665.0009 53.17115,684.1677 47.9918,692.0106 "
id = "219" />
  <path
     style="fill:none;stroke:#000000;stroke-width:5;stroke-opacity:1"
     d = "M 114.0451,520.7309 106.9431,536.6534 102.7602,551.8461 100.2465,565.6785 96.81328,579.2634 90.71803,593.4052 81.6164,608.5877 70.43761,625.1036 60.10896,643.0986 51.15977,661.3721 47.97305,667.0374 "
id = "220" />
  <path
     style="fill:none;stroke:#000000;stroke-width:5;stroke-opacity:1"
     d = "M 111.6941,519.3124 103.8651,535.4969 98.81146,551.1155 95.04451,565.6741 89.98,579.7366 82.2973,594.2352 71.95708,609.3998 60.35804,625.5573 49.76716,641.9706 47.99663,644.8738 "
id = "221" />
  <path
     style="fill:none;stroke:#000000;stroke-width:5;stroke-opacity:1"
     d = "M 109.3682,517.8531 100.8188,534.3338 94.86347,550.4376 90.04478,565.7035 83.49448,580.3191 74.02759,594.9786 62.58687,609.753 51.0219,624.9523 47.97953,629.0456 "
id = "222" />
  <path
     style="fill:none;stroke:#000000;stroke-width:5;stroke-opacity:1"
     d = "M 107.0681,516.3535 97.7093,533.1425 90.72502,549.7563 84.66965,565.8333 76.75026,580.8511 65.94756,595.4356 54.14625,609.9261 47.98768,617.2914 "
id = "223" />
  <path
     style="fill:none;stroke:#000000;stroke-width:5;stroke-opacity:1"
     d = "M 104.7946,514.8138 94.5603,531.8358 86.53528,548.992 79.19598,565.8618 70.08156,581.1316 58.30865,595.4554 47.96594,607.4038 "
id = "224" />
  <path
     style="fill:none;stroke:#000000;stroke-width:5;stroke-opacity:1"
     d = "M 102.5481,513.2347 91.49249,530.339 82.40967,548.0535 73.88791,565.6761 63.81921,581.0388 51.34386,595.0825 47.93639,598.7416 "
id = "225" />
  <path
     style="fill:none;stroke:#000000;stroke-width:5;stroke-opacity:1"
     d = "M 100.3297,511.6168 88.52851,528.7654 78.36583,546.92 68.74903,565.077 57.73109,580.6182 47.99156,590.9493 "
id = "226" />
  <path
     style="fill:none;stroke:#000000;stroke-width:5;stroke-opacity:1"
     d = "M 98.13985,509.9603 85.60902,527.2137 74.39685,545.6795 63.68156,564.1345 51.75663,579.7607 47.95172,583.5939 "
id = "227" />
  <path
     style="fill:none;stroke:#000000;stroke-width:5;stroke-opacity:1"
     d = "M 95.97923,508.2659 82.71407,525.5491 70.45629,544.3405 58.69043,562.9295 47.97097,576.2576 "
id = "228" />
  <path
     style="fill:none;stroke:#000000;stroke-width:5;stroke-opacity:1"
     d = "M 93.84852,506.534 79.88464,523.7853 66.67273,542.8489 54.00151,561.4774 47.9426,568.7949 "
id = "229" />
  <path
     style="fill:none;stroke:#000000;stroke-width:5;stroke-opacity:1"
     d = "M 91.74835,504.7652 77.13392,521.9022 63.06479,541.1287 49.52554,559.907 47.96236,561.7278 "
id = "230" />
  <path
     style="fill:none;stroke:#000000;stroke-width:5;stroke-opacity:1"
     d = "M 89.67937,502.9601 74.42596,519.9202 59.47507,539.2288 47.98989,554.2367 "
id = "231" />
  <path
     style="fill:none;stroke:#000000;stroke-width:5;stroke-opacity:1"
     d = "M 87.64222,501.119 71.78969,517.9031 56.12218,537.2419 47.94817,547.4763 "
id = "232" />
  <path
     style="fill:none;stroke:#000000;stroke-width:5;stroke-opacity:1"
     d = "M 85.6375,499.2428 69.19038,515.8407 52.88199,535.175 47.98989,541.1201 "
id = "233" />
  <path
     style="fill:none;stroke:#000000;stroke-width:5;stroke-opacity:1"
     d = "M 83.66584,497.3318 66.74514,513.8218 50.02858,533.0936 47.96559,535.5389 "
id = "234" />
  <path
     style="fill:none;stroke:#000000;stroke-width:5;stroke-opacity:1"
     d = "M 81.72773,495.3866 64.47202,511.7267 47.97248,530.5103 "
id = "235" />
  <path
     style="fill:none;stroke:#000000;stroke-width:5;stroke-opacity:1"
     d = "M 79.82395,493.408 62.44133,509.5014 47.94178,525.6466 "
id = "236" />
  <path
     style="fill:none;stroke:#000000;stroke-width:5;stroke-opacity:1"
     d = "M 77.95501,491.3964 60.54038,507.1751 47.94616,520.8643 "
id = "237" />
  <path
     style="fill:none;stroke:#000000;stroke-width:5;stroke-opacity:1"
     d = "M 76.12145,489.3525 58.84533,504.8426 47.99452,516.3281 "
id = "238" />
  <path
     style="fill:none;stroke:#000000;stroke-width:5;stroke-opacity:1"
     d = "M 74.32384,487.277 57.2942,502.4817 47.93827,512.0753 "
id = "239" />
  <path
     style="fill:none;stroke:#000000;stroke-width:5;stroke-opacity:1"
     d = "M 72.56274,485.1704 55.89901,500.1987 47.97573,508.1147 "
id = "240" />
  <path
     style="fill:none;stroke:#000000;stroke-width:5;stroke-opacity:1"
     d = "M 70.83866,483.0334 54.69573,497.9145 47.96444,504.4751 "
id = "241" />
  <path
     style="fill:none;stroke:#000000;stroke-width:5;stroke-opacity:1"
     d = "M 69.15214,480.8665 53.57961,495.631 47.95331,501.0344 "
id = "242" />
  <path
     style="fill:none;stroke:#000000;stroke-width:5;stroke-opacity:1"
     d = "M 67.5037,478.6707 52.50954,493.1778 47.93758,497.5114 "
id = "243" />
  <path
     style="fill:none;stroke:#000000;stroke-width:5;stroke-opacity:1"
     d = "M 65.89383,476.4464 51.48006,490.6654 47.97982,493.9496 "
id = "244" />
  <path
     style="fill:none;stroke:#000000;stroke-width:5;stroke-opacity:1"
     d = "M 64.32293,474.1941 50.48244,488.1053 47.93499,490.5054 "
id = "245" />
  <path
     style="fill:none;stroke:#000000;stroke-width:5;stroke-opacity:1"
     d = "M 62.79166,471.915 49.47083,485.4949 47.95108,486.9439 "
id = "246" />
  <path
     style="fill:none;stroke:#000000;stroke-width:5;stroke-opacity:1"
     d = "M 61.30042,469.6094 48.4262,482.8436 47.99395,483.2598 "
id = "247" />
  <path
     style="fill:none;stroke:#000000;stroke-width:5;stroke-opacity:1"
     d = "M 59.84963,467.2782 47.93904,479.5469 "
id = "248" />
  <path
     style="fill:none;stroke:#000000;stroke-width:5;stroke-opacity:1"
     d = "M 58.43975,464.9221 47.96669,475.6612 "
id = "249" />
  <path
     style="fill:none;stroke:#000000;stroke-width:5;stroke-opacity:1"
     d = "M 57.0712,462.5417 47.9395,471.7934 "
id = "250" />
  <path
     style="fill:none;stroke:#000000;stroke-width:5;stroke-opacity:1"
     d = "M 55.74441,460.1377 47.9559,467.9056 "
id = "251" />
  <path
     style="fill:none;stroke:#000000;stroke-width:5;stroke-opacity:1"
     d = "M 54.45977,457.711 47.95233,464.0733 "
id = "252" />
  <path
     style="fill:none;stroke:#000000;stroke-width:5;stroke-opacity:1"
     d = "M 53.22996,455.2868 47.9309,460.3082 "
id = "253" />
  <path
     style="fill:none;stroke:#000000;stroke-width:5;stroke-opacity:1"
     d = "M 52.01845,452.792 47.94418,456.4863 "
id = "254" />
  <path
     style="fill:none;stroke:#000000;stroke-width:5;stroke-opacity:1"
     d = "M 50.86258,450.3013 47.98544,452.7842 "
id = "255" />
  <path
     style="fill:none;stroke:#000000;stroke-width:5;stroke-opacity:1"
     d = "M 49.75035,447.7909 47.96427,449.2403 "
id = "256" />
  <path
     style="fill:none;stroke:#000000;stroke-width:5;stroke-opacity:1"
     d = "M 48.68211,445.2614 47.96463,445.8047 "
id = "257" />
  <path
     style="fill:none;stroke:#000000;stroke-width:5;stroke-opacity:1"
     d = "M 48.20824,326.5446 47.92363,326.4498 "
id = "301" />
  <path
     style="fill:none;stroke:#000000;stroke-width:5;stroke-opacity:1"
     d = "M 49.25625,324.0067 47.94669,323.5115 "
id = "302" />
  <path
     style="fill:none;stroke:#000000;stroke-width:5;stroke-opacity:1"
     d = "M 50.3484,321.4875 47.95524,320.4711 "
id = "303" />
  <path
     style="fill:none;stroke:#000000;stroke-width:5;stroke-opacity:1"
     d = "M 51.48436,318.9877 47.96171,317.3143 "
id = "304" />
  <path
     style="fill:none;stroke:#000000;stroke-width:5;stroke-opacity:1"
     d = "M 52.66376,316.5081 47.96916,314.048 "
id = "305" />
  <path
     style="fill:none;stroke:#000000;stroke-width:5;stroke-opacity:1"
     d = "M 53.88626,314.0495 47.98415,310.6732 "
id = "306" />
  <path
     style="fill:none;stroke:#000000;stroke-width:5;stroke-opacity:1"
     d = "M 55.15148,311.6126 47.94407,307.1068 "
id = "307" />
  <path
     style="fill:none;stroke:#000000;stroke-width:5;stroke-opacity:1"
     d = "M 56.45911,309.198 47.93603,303.4143 "
id = "308" />
  <path
     style="fill:none;stroke:#000000;stroke-width:5;stroke-opacity:1"
     d = "M 57.3406,307.6252 47.97763,300.9466 "
id = "309" />
  <path
     style="fill:none;stroke:#000000;stroke-width:5;stroke-opacity:1"
     d = "M 59.19964,304.4394 47.99539,295.7161 "
id = "310" />
  <path
     style="fill:none;stroke:#000000;stroke-width:5;stroke-opacity:1"
     d = "M 60.63177,302.0966 47.99882,291.6364 "
id = "311" />
  <path
     style="fill:none;stroke:#000000;stroke-width:5;stroke-opacity:1"
     d = "M 62.10457,299.7793 47.97528,287.5268 "
id = "312" />
  <path
     style="fill:none;stroke:#000000;stroke-width:5;stroke-opacity:1"
     d = "M 63.61759,297.488 48.89016,284.1337 47.95066,283.2351 "
id = "313" />
  <path
     style="fill:none;stroke:#000000;stroke-width:5;stroke-opacity:1"
     d = "M 65.17037,295.2234 50.68183,281.429 47.97183,278.7653 "
id = "314" />
  <path
     style="fill:none;stroke:#000000;stroke-width:5;stroke-opacity:1"
     d = "M 66.76242,292.9863 52.56107,278.7917 47.97389,274.1857 "
id = "315" />
  <path
     style="fill:none;stroke:#000000;stroke-width:5;stroke-opacity:1"
     d = "M 68.39329,290.7773 54.43171,276.2622 47.9584,269.7261 "
id = "316" />
  <path
     style="fill:none;stroke:#000000;stroke-width:5;stroke-opacity:1"
     d = "M 70.06245,288.5972 56.3291,273.7837 47.93372,265.2107 "
id = "317" />
  <path
     style="fill:none;stroke:#000000;stroke-width:5;stroke-opacity:1"
     d = "M 71.7695,286.4463 58.21394,271.3093 47.93472,260.6636 "
id = "318" />
  <path
     style="fill:none;stroke:#000000;stroke-width:5;stroke-opacity:1"
     d = "M 73.51374,284.3257 60.13068,268.8398 47.94366,256.1425 "
id = "319" />
  <path
     style="fill:none;stroke:#000000;stroke-width:5;stroke-opacity:1"
     d = "M 75.29472,282.2359 62.07941,266.4011 49.38116,252.9635 47.95673,251.7062 "
id = "320" />
  <path
     style="fill:none;stroke:#000000;stroke-width:5;stroke-opacity:1"
     d = "M 77.11191,280.1774 63.99555,264.0561 51.5296,250.7258 47.95154,247.5266 "
id = "321" />
  <path
     style="fill:none;stroke:#000000;stroke-width:5;stroke-opacity:1"
     d = "M 78.96474,278.151 66.08867,261.9443 53.90695,248.6149 47.97311,243.2499 "
id = "322" />
  <path
     style="fill:none;stroke:#000000;stroke-width:5;stroke-opacity:1"
     d = "M 80.85265,276.1573 68.2635,259.929 56.56582,246.7155 47.94069,238.8103 "
id = "323" />
  <path
     style="fill:none;stroke:#000000;stroke-width:5;stroke-opacity:1"
     d = "M 82.77507,274.1967 70.45771,257.8809 59.32222,244.8664 47.9857,234.15 "
id = "324" />
  <path
     style="fill:none;stroke:#000000;stroke-width:5;stroke-opacity:1"
     d = "M 84.73142,272.2701 72.64361,255.8056 62.01668,242.9793 50.12276,231.3508 47.98856,229.3874 "
id = "325" />
  <path
     style="fill:none;stroke:#000000;stroke-width:5;stroke-opacity:1"
     d = "M 86.72109,270.3779 74.85947,253.8293 64.6991,241.1135 53.29387,229.6091 47.93492,224.5065 "
id = "326" />
  <path
     style="fill:none;stroke:#000000;stroke-width:5;stroke-opacity:1"
     d = "M 88.74359,268.5206 77.22932,251.9309 67.56272,239.3166 56.82929,228.0095 47.97952,219.3229 "
id = "327" />
  <path
     style="fill:none;stroke:#000000;stroke-width:5;stroke-opacity:1"
     d = "M 90.79809,266.6989 79.68497,250.0828 70.59335,237.5615 60.67226,226.4186 49.40623,215.0603 47.94749,213.6922 "
id = "328" />
  <path
     style="fill:none;stroke:#000000;stroke-width:5;stroke-opacity:1"
     d = "M 92.88406,264.9134 82.24288,248.2996 73.65117,235.7024 64.52248,224.6713 54.04479,213.7585 47.93723,207.8468 "
id = "329" />
  <path
     style="fill:none;stroke:#000000;stroke-width:5;stroke-opacity:1"
     d = "M 95.00089,263.1646 84.92968,246.6129 76.81419,233.8196 68.45348,222.8998 59.02868,212.5425 48.12576,201.5115 47.99304,201.3619 "
id = "330" />
  <path
     style="fill:none;stroke:#000000;stroke-width:5;stroke-opacity:1"
     d = "M 97.1479,261.453 87.60431,244.9461 80.0482,231.9452 72.67778,221.2173 64.24063,211.3467 54.33794,200.7245 47.98078,193.665 "
id = "331" />
  <path
     style="fill:none;stroke:#000000;stroke-width:5;stroke-opacity:1"
     d = "M 99.32446,259.7791 90.40289,243.2678 83.44508,230.0988 77.11299,219.4648 70.06721,209.9095 61.47072,200.0361 51.65609,188.8547 47.98378,183.8596 "
id = "332" />
  <path
     style="fill:none;stroke:#000000;stroke-width:5;stroke-opacity:1"
     d = "M 101.5299,258.1435 93.29714,241.4846 86.95871,228.1977 81.59505,217.5704 76.05291,208.1989 69.11045,199.065 60.79818,188.6113 51.45109,175.7353 47.96083,170.4904 "
id = "333" />
  <path
     style="fill:none;stroke:#000000;stroke-width:5;stroke-opacity:1"
     d = "M 103.7636,256.5465 96.1861,239.7415 90.58411,226.3893 86.04568,215.6798 81.92522,206.218 76.88512,197.2898 70.67419,187.5224 62.97796,175.9623 53.8766,161.9872 47.9856,152.6969 "
id = "334" />
  <path
     style="fill:none;stroke:#000000;stroke-width:5;stroke-opacity:1"
     d = "M 106.0247,254.9889 99.10682,238.0884 94.17603,224.7055 90.54084,213.7402 87.54814,204.1506 84.03001,195.064 79.59785,185.696 73.94315,174.9775 66.7562,162.3565 58.10686,147.6057 47.99388,131.996 "
id = "335" />
  <path
     style="fill:none;stroke:#000000;stroke-width:5;stroke-opacity:1"
     d = "M 108.3128,253.4709 102.1099,236.6598 97.83545,223.3112 94.90845,212.072 92.70551,202.3682 90.27058,193.0044 86.9072,183.2659 82.36675,172.546 76.75816,160.5823 69.24594,146.4086 59.88312,130.5609 49.1798,114.459 47.99648,112.6043 "
id = "336" />
  <path
     style="fill:none;stroke:#000000;stroke-width:5;stroke-opacity:1"
     d = "M 110.6271,251.993 105.0692,235.3139 101.4411,221.8963 99.23382,210.5982 97.759,200.7233 95.7652,191.1923 92.90169,180.8857 88.89516,169.5477 83.82749,157.1896 77.17452,142.9895 68.78065,127.1774 59.34691,111.4821 50.41801,95.98711 47.96295,91.29008 "
id = "337" />
  <path
     style="fill:none;stroke:#000000;stroke-width:5;stroke-opacity:1"
     d = "M 112.9667,250.5558 108.0271,234.0154 104.9849,220.5517 103.3709,209.2567 102.3354,199.2807 100.6172,189.4814 97.92053,178.8091 94.29751,166.8345 89.39548,153.4657 83.20596,138.4494 75.65074,121.6526 67.18343,105.5491 59.44084,90.29951 52.98071,74.93982 48.66037,60.13598 47.98743,57.31512 "
id = "338" />
  <path
     style="fill:none;stroke:#000000;stroke-width:5;stroke-opacity:1"
     d = "M 115.331,249.1597 111.0006,232.6646 108.4345,219.2159 107.2461,207.9359 106.3644,197.8188 104.7856,187.6974 102.188,176.6543 98.683,164.0229 93.93638,149.6127 88.35273,133.1318 81.3578,115.49 73.84012,98.63182 67.24214,82.84673 61.98499,67.67181 58.21753,53.32367 56.78626,47.90961 "
id = "339" />
  <path
     style="fill:none;stroke:#000000;stroke-width:5;stroke-opacity:1"
     d = "M 117.7194,247.805 113.9188,231.4269 111.8013,217.9982 110.9732,206.6966 110.2085,196.3036 108.5788,185.8543 105.9507,174.3074 102.4209,160.9708 98.10018,145.4055 93.11263,127.4012 86.59344,108.8154 79.9671,91.26369 74.14476,75.01698 69.58331,60.10767 66.18991,47.97313 "
id = "340" />
  <path
     style="fill:none;stroke:#000000;stroke-width:5;stroke-opacity:1"
     d = "M 120.131,246.4922 116.7401,230.231 115.0132,216.8608 114.4126,205.5252 113.6986,194.8784 111.9511,183.9671 109.218,171.9665 105.6811,157.8774 101.7964,141.2323 97.24157,122.1928 91.57069,102.7855 85.8346,84.60721 80.53162,68.08107 75.84648,53.20783 74.1785,47.96682 "
id = "341" />
  <path
     style="fill:none;stroke:#000000;stroke-width:5;stroke-opacity:1"
     d = "M 121.7513,245.6404 118.5853,229.445 117.1001,216.1149 116.5948,204.7388 115.8779,193.9304 114.033,182.6809 111.2782,170.3349 107.7814,155.7943 104.0028,138.4233 99.72739,118.7309 94.7499,98.72359 89.68074,80.2444 84.69515,63.83285 79.77052,49.03908 79.3611,47.91106 "
id = "342" />
  <path
     style="fill:none;stroke:#000000;stroke-width:5;stroke-opacity:1"
     d = "M 124.2001,244.3984 121.3461,228.218 120.2662,214.968 119.8778,203.4513 119.0251,192.3506 116.9832,180.6367 114.2205,167.6576 110.8582,152.3361 107.1392,133.9248 103.6956,113.1591 99.57661,92.20186 95.48744,72.96339 90.28381,56.44806 86.99364,47.96367 "
id = "343" />
  <path
     style="fill:none;stroke:#000000;stroke-width:5;stroke-opacity:1"
     d = "M 126.6702,243.1992 124.0484,227.0889 123.3042,213.7986 123.0057,201.9998 121.8951,190.5168 119.6264,178.3571 116.7942,164.7092 113.5574,148.4925 110.09,129.0904 107.5284,107.6849 104.6635,85.84341 100.978,65.91086 95.10067,49.09555 94.5517,47.91717 "
id = "344" />
  <path
     style="fill:none;stroke:#000000;stroke-width:5;stroke-opacity:1"
     d = "M 129.1608,242.0433 126.8405,225.989 126.3212,212.5717 126.0809,200.4144 124.6548,188.5524 122.2412,175.8229 119.2951,161.4393 116.1651,144.3786 113.1846,123.9339 111.5651,101.6817 109.7025,79.08614 105.8792,58.87273 101.4048,47.95427 "
id = "345" />
  <path
     style="fill:none;stroke:#000000;stroke-width:5;stroke-opacity:1"
     d = "M 131.6713,240.9311 129.6295,224.8602 129.1966,211.2362 128.7877,198.7667 127.1571,186.5177 124.5937,173.0877 121.5095,157.8591 118.4546,139.7609 116.2188,118.4061 115.2376,95.31596 113.7195,72.15052 108.903,51.93688 107.0124,47.96378 "
id = "346" />
  <path
     style="fill:none;stroke:#000000;stroke-width:5;stroke-opacity:1"
     d = "M 134.2007,239.8629 132.3752,223.8547 131.9065,210.0226 131.1916,197.2367 129.3531,184.5927 126.6055,170.5093 123.5017,154.4716 120.7001,135.3387 119.2961,113.103 119.0638,89.3448 117.5166,66.12978 112.6456,47.97184 "
id = "347" />
  <path
     style="fill:none;stroke:#000000;stroke-width:5;stroke-opacity:1"
     d = "M 136.7484,238.8389 135.1535,222.8348 134.5592,208.7473 133.602,195.6679 131.4659,182.5434 128.5151,167.7808 125.5064,150.9617 123.0059,130.7978 122.4245,107.6737 122.8056,83.61562 121.222,60.56052 117.5011,47.99993 "
id = "348" />
  <path
     style="fill:none;stroke:#000000;stroke-width:5;stroke-opacity:1"
     d = "M 139.3136,237.8596 137.9672,221.8462 137.2383,207.4436 135.9641,194.1771 133.5969,180.5405 130.4856,165.1269 127.6109,147.6221 125.5574,126.6124 125.7972,102.7663 126.5175,78.28561 124.7488,55.36076 122.2952,47.95662 "
id = "349" />
  <path
     style="fill:none;stroke:#000000;stroke-width:5;stroke-opacity:1"
     d = "M 141.8957,236.9251 140.7614,220.9499 139.9093,206.3944 138.3001,192.9085 135.72,178.7596 132.4698,162.843 129.5006,144.6193 128.0101,122.9211 128.8587,98.4819 129.8205,73.8926 127.849,51.11095 126.6879,47.91528 "
id = "350" />
  <path
     style="fill:none;stroke:#000000;stroke-width:5;stroke-opacity:1"
     d = "M 144.4935,236.0359 143.5517,220.1322 142.4777,205.7338 140.6516,192.0582 137.9302,177.5768 134.5348,161.1843 131.5825,142.345 130.6763,120.1861 132.0251,95.30217 133.2359,70.85072 131.2899,48.20188 131.1854,47.92069 "
id = "351" />
  <path
     style="fill:none;stroke:#000000;stroke-width:5;stroke-opacity:1"
     d = "M 147.1064,235.1922 146.3942,219.3638 145.1157,205.055 143.0921,191.4266 140.1821,176.6422 136.6146,159.7893 133.814,140.3506 133.4099,117.8619 135.2674,92.77905 136.8906,68.49388 135.1869,47.96431 "
id = "352" />
  <path
     style="fill:none;stroke:#000000;stroke-width:5;stroke-opacity:1"
     d = "M 149.7337,234.3942 149.1946,218.5807 147.7541,204.4361 145.5525,191.021 142.4459,176.1123 138.8066,158.9364 136.1286,139.0569 136.059,116.2301 138.343,91.08629 140.3462,66.96474 138.9531,47.91541 "
id = "353" />
  <path
     style="fill:none;stroke:#000000;stroke-width:5;stroke-opacity:1"
     d = "M 152.3745,233.6422 152.0269,217.8895 150.4697,203.8835 148.1071,190.6918 144.8634,175.8056 141.1029,158.3438 138.5063,138.1318 138.6853,115.0552 141.3208,89.91727 143.6837,65.98329 142.4934,47.92223 "
id = "354" />
  <path
     style="fill:none;stroke:#000000;stroke-width:5;stroke-opacity:1"
     d = "M 155.028,232.9364 154.988,217.3429 153.2782,203.4563 150.7089,190.4199 147.5592,175.6007 143.6835,157.9639 141.1364,137.5273 141.4859,114.2785 144.3517,89.22334 147.1112,65.55452 146.2062,47.97762 "
id = "355" />
  <path
     style="fill:none;stroke:#000000;stroke-width:5;stroke-opacity:1"
     d = "M 157.6934,232.277 157.8289,216.8738 156.0967,203.143 153.4038,190.1628 150.4065,175.4232 146.4746,157.7513 143.9898,137.1141 144.4259,113.8214 147.4331,89.07915 150.6702,65.67517 150.1004,47.98428 "
id = "356" />
  <path
     style="fill:none;stroke:#000000;stroke-width:5;stroke-opacity:1"
     d = "M 160.37,231.6642 160.6198,216.423 158.9281,202.7092 156.1493,189.6911 153.2096,174.8711 149.3652,157.1669 147.0403,136.3452 147.612,113.0795 150.6754,88.81479 154.3266,65.70503 154.0197,47.90741 "
id = "357" />
  <path
     style="fill:none;stroke:#000000;stroke-width:5;stroke-opacity:1"
     d = "M 163.0568,231.0983 163.502,216.0246 161.9654,202.2172 159.0998,189.0313 156.2499,174.018 152.6755,156.3622 150.4639,135.3594 151.1441,112.198 154.1481,88.45115 157.9772,65.6461 157.907,47.94637 "
id = "358" />
  <path
     style="fill:none;stroke:#000000;stroke-width:5;stroke-opacity:1"
     d = "M 165.7532,230.5792 166.4739,215.5647 165.237,201.6812 162.5521,188.1608 159.8743,172.7716 156.6297,155.0576 154.6182,134.0029 155.3371,111.2274 158.3472,88.14934 162.1435,65.8725 162.3183,47.97338 "
id = "359" />
  <path
     style="fill:none;stroke:#000000;stroke-width:5;stroke-opacity:1"
     d = "M 48,48 336,48 336,720 48,720 48,48 "
id = "360" />
</svg>
