mtllib gMOB.mtl
v -504.2279 19.58791 -418.2368
vt 0 1
vn 0.7382503 3.688663E-07 0.6745268
v -491.0409 19.58791 -432.6696
vt 0.25 1
v -491.0409 0.03791051 -432.6696
vt 0.25 0
v -504.2279 0.03791051 -418.2368
vt 0 0
v -619.7246 19.58791 106.5848
vn 0.988088 1.271605E-06 -0.1538897
v -622.7332 19.58791 87.26767
v -622.7332 0.03791051 87.26767
v -619.7246 0.03791051 106.5848
v -508.7331 19.58791 -348.251
vn 0.8325964 -1.011888E-06 0.5538802
v -497.9047 19.58791 -364.5283
v -497.9047 0.03791051 -364.5283
v -508.7331 0.03791051 -348.251
v -109.4833 19.58791 -688.9988
vn 0.1602901 -2.32098E-08 0.98707
v -90.18608 19.58791 -692.1325
v -90.18608 0.03791051 -692.1325
v -109.4833 0.03791051 -688.9988
o polySurface199_0
g polygon_0
usemtl Audience_b1_lambert2
f 3/3/1 2/2/1 1/1/1
f 4/4/1 3/3/1 1/1/1
f 7/3/2 6/2/2 5/1/2
f 8/4/2 7/3/2 5/1/2
f 11/3/3 10/2/3 9/1/3
f 12/4/3 11/3/3 9/1/3
f 15/3/4 14/2/4 13/1/4
f 16/4/4 15/3/4 13/1/4
v -352.7668 19.58791 -634.7686
vn 0.4904106 8.370639E-08 0.8714915
v -335.7291 19.58791 -644.3561
v -335.7291 0.03791051 -644.3561
v -352.7668 0.03791051 -634.7686
v -639.3262 19.58791 -484.7115
vn 0.801738 3.569214E-07 0.5976756
v -627.6417 19.58791 -500.3855
v -627.6417 0.03791051 -500.3855
v -639.3262 0.03791051 -484.7115
v -598.9015 19.58791 -92.9289
vn 0.9886945 -1.734949E-07 0.1499436
v -595.9701 19.58791 -112.2579
v -595.9701 0.03791051 -112.2579
v -598.9015 0.03791051 -92.9289
v -190.6662 19.58791 -732.084
vn 0.1811061 5.065952E-08 0.9834636
v -171.4395 19.58791 -735.6246
v -171.4395 0.03791051 -735.6246
v -190.6662 0.03791051 -732.084
o polySurface199_1
g polygon_0
usemtl Audience_a1_lambert2
f 19/3/5 18/2/5 17/1/5
f 20/4/5 19/3/5 17/1/5
f 23/3/6 22/2/6 21/1/6
f 24/4/6 23/3/6 21/1/6
f 27/3/7 26/2/7 25/1/7
f 28/4/7 27/3/7 25/1/7
f 31/3/8 30/2/8 29/1/8
f 32/4/8 31/3/8 29/1/8
v -163.3419 19.58791 -808.4301
vn 0.1692492 8.98665E-09 0.9855733
v -144.0739 19.58791 -811.739
v -144.0739 0.03791051 -811.739
v -163.3419 0.03791051 -808.4301
v -718.8239 19.58791 -214.3824
vn 0.954902 -3.428764E-07 0.2969212
v -713.019 19.58791 -233.0508
v -713.019 0.03791051 -233.0508
v -718.8239 0.03791051 -214.3824
v -603.426 19.58791 -24.74206
vn 0.9984651 -9.260971E-07 0.05538434
v -602.3432 19.58791 -44.26205
v -602.3432 0.03791051 -44.26205
v -603.426 0.03791051 -24.74206
v -285.4709 19.58791 -640.787
vn 0.3932589 -2.910808E-07 0.9194278
v -267.4961 19.58791 -648.4753
v -267.4961 0.03791051 -648.4753
v -285.4709 0.03791051 -640.787
o polySurface199_2
g polygon_0
usemtl Audience_a2_lambert2
f 35/3/9 34/2/9 33/1/9
f 36/4/9 35/3/9 33/1/9
f 39/3/10 38/2/10 37/1/10
f 40/4/10 39/3/10 37/1/10
f 43/3/11 42/2/11 41/1/11
f 44/4/11 43/3/11 41/1/11
f 47/3/12 46/2/12 45/1/12
f 48/4/12 47/3/12 45/1/12
v -270.5218 19.58791 -719.6565
vn 0.3371825 -1.17516E-07 0.9414393
v -252.1166 19.58791 -726.2484
v -252.1166 0.03791051 -726.2484
v -270.5218 0.03791051 -719.6565
v -655.6745 19.58791 -72.00675
vn 0.9918687 -7.21195E-07 0.1272653
v -653.1865 19.58791 -91.39779
v -653.1865 0.03791051 -91.39779
v -655.6745 0.03791051 -72.00675
v -566.1239 19.58791 55.90529
vn 0.9954298 -3.852951E-08 -0.09549586
v -567.9908 19.58791 36.44464
v -567.9908 0.03791051 36.44464
v -566.1239 0.03791051 55.90529
v -195.9288 19.58791 -658.1516
vn 0.2544196 3.70285E-08 0.9670939
v -177.0222 19.58791 -663.1255
v -177.0222 0.03791051 -663.1255
v -195.9288 0.03791051 -658.1516
o polySurface199_3
g polygon_0
usemtl Audience_a3_lambert2
f 51/3/13 50/2/13 49/1/13
f 52/4/13 51/3/13 49/1/13
f 55/3/14 54/2/14 53/1/14
f 56/4/14 55/3/14 53/1/14
f 59/3/15 58/2/15 57/1/15
f 60/4/15 59/3/15 57/1/15
f 63/3/16 62/2/16 61/1/16
f 64/4/16 63/3/16 61/1/16
v -364.7091 19.58791 -566.3549
vn 0.5343996 -1.41486E-07 0.845232
v -348.1848 19.58791 -576.8024
v -348.1848 0.03791051 -576.8024
v -364.7091 0.03791051 -566.3549
v -628.7216 19.58791 16.8451
vn 0.9999793 -5.052723E-07 -0.006443814
v -628.8476 19.58791 -2.70449
v -628.8476 0.03791051 -2.70449
v -628.7216 0.03791051 16.8451
v -443.4533 19.58791 -402.6291
vn 0.753904 -2.154795E-07 0.6569845
v -430.6093 19.58791 -417.368
v -430.6093 0.03791051 -417.368
v -443.4533 0.03791051 -402.6291
o polySurface199_4
g polygon_0
usemtl Audience_b2_lambert2
f 67/3/17 66/2/17 65/1/17
f 68/4/17 67/3/17 65/1/17
f 71/3/18 70/2/18 69/1/18
f 72/4/18 71/3/18 69/1/18
f 75/3/19 74/2/19 73/1/19
f 76/4/19 75/3/19 73/1/19
v -216.4689 19.58791 691.6725
vn 0.3117507 -9.006132E-09 -0.950164
v -235.0446 19.58791 685.5778
v -235.0446 0.03791051 685.5778
v -216.4689 0.03791051 691.6725
v -612.9751 19.58791 399.861
vn 0.8498924 8.70729E-07 -0.5269562
v -623.2771 19.58791 383.2456
v -623.2771 0.03791051 383.2456
v -612.9751 0.03791051 399.861
v -34.67142 19.58791 627.8669
vn 0.07092526 -2.314889E-09 -0.9974816
v -54.17218 19.58791 626.4803
v -54.17218 0.03791051 626.4803
v -34.67142 0.03791051 627.8669
o polySurface198_0
g polygon_0
usemtl Audience_b1_lambert20
f 79/3/20 78/2/20 77/1/20
f 80/4/20 79/3/20 77/1/20
f 83/3/21 82/2/21 81/1/21
f 84/4/21 83/3/21 81/1/21
f 87/3/22 86/2/22 85/1/22
f 88/4/22 87/3/22 85/1/22
v -650.3359 19.58791 317.075
vn 0.9168049 3.284902E-07 -0.3993356
v -658.1429 19.58791 299.1514
v -658.1429 0.03791051 299.1514
v -650.3359 0.03791051 317.075
v -505.3092 19.58791 715.5411
vn 0.5863174 5.659866E-07 -0.8100814
v -521.1463 19.58791 704.0786
v -521.1463 0.03791051 704.0786
v -505.3092 0.03791051 715.5411
o polySurface198_1
g polygon_0
usemtl Audience_a1_lambert20
f 91/3/23 90/2/23 89/1/23
f 92/4/23 91/3/23 89/1/23
f 95/3/24 94/2/24 93/1/24
f 96/4/24 95/3/24 93/1/24
v -634.378 19.58791 479.8455
vn 0.8041062 -4.128593E-07 -0.5944856
v -646.0002 19.58791 464.1252
v -646.0002 0.03791051 464.1252
v -634.378 0.03791051 479.8455
v -346.5088 19.58791 665.7902
vn 0.473471 3.582956E-08 -0.8808094
v -363.7287 19.58791 656.5338
v -363.7287 0.03791051 656.5338
v -346.5088 0.03791051 665.7902
o polySurface198_2
g polygon_0
usemtl Audience_a2_lambert20
f 99/3/25 98/2/25 97/1/25
f 100/4/25 99/3/25 97/1/25
f 103/3/26 102/2/26 101/1/26
f 104/4/26 103/3/26 101/1/26
v -426.1959 19.58791 695.064
vn 0.5457085 -4.051501E-07 -0.837975
v -442.5783 19.58791 684.3954
v -442.5783 0.03791051 684.3954
v -426.1959 0.03791051 695.064
v -239.1195 19.58791 615.097
vn 0.377401 1.530556E-07 -0.9260499
v -257.2238 19.58791 607.7189
v -257.2238 0.03791051 607.7189
v -239.1195 0.03791051 615.097
o polySurface198_3
g polygon_0
usemtl Audience_a3_lambert20
f 107/3/27 106/2/27 105/1/27
f 108/4/27 107/3/27 105/1/27
f 111/3/28 110/2/28 109/1/28
f 112/4/28 111/3/28 109/1/28
v -473.0228 19.58791 605.9651
vn 0.6035083 3.107508E-07 -0.7973567
v -488.6111 19.58791 594.1666
v -488.6111 0.03791051 594.1666
v -473.0228 0.03791051 605.9651
v -593.5762 19.58791 336.9735
vn 0.8644067 3.883563E-07 -0.5027933
v -603.4058 19.58791 320.0744
v -603.4058 0.03791051 320.0744
v -593.5762 0.03791051 336.9735
v -124.1509 19.58791 616.5721
vn 0.2172971 -5.90784E-09 -0.9761055
v -143.2338 19.58791 612.324
v -143.2338 0.03791051 612.324
v -124.1509 0.03791051 616.5721
o polySurface198_4
g polygon_0
usemtl Audience_b2_lambert20
f 115/3/29 114/2/29 113/1/29
f 116/4/29 115/3/29 113/1/29
f 119/3/30 118/2/30 117/1/30
f 120/4/30 119/3/30 117/1/30
f 123/3/31 122/2/31 121/1/31
f 124/4/31 123/3/31 121/1/31
v 699.1522 19.58791 61.50421
vn -0.9923306 -8.247361E-07 -0.1236125
v 696.7356 19.58791 80.90428
v 696.7356 0.03791051 80.90428
v 699.1522 0.03791051 61.50421
v 303.058 19.58791 506.1005
vn -0.5409763 -5.792106E-08 -0.8410379
v 286.6157 19.58791 516.6766
v 286.6157 0.03791051 516.6766
v 303.058 0.03791051 506.1005
v 512.1511 19.58791 573.6694
vn -0.6422399 3.351468E-07 -0.7665037
v 497.1659 19.58791 586.2252
v 497.1659 0.03791051 586.2252
v 512.1511 0.03791051 573.6694
o polySurface197_0
g polygon_0
usemtl Audience_b2_lambert21
f 127/3/32 126/2/32 125/1/32
f 128/4/32 127/3/32 125/1/32
f 131/3/33 130/2/33 129/1/33
f 132/4/33 131/3/33 129/1/33
f 135/3/34 134/2/34 133/1/34
f 136/4/34 135/3/34 133/1/34
v 512.1986 19.58791 432.5476
vn -0.794793 1.365685E-07 -0.6068806
v 500.3341 19.58791 448.0858
v 500.3341 0.03791051 448.0858
v 512.1986 0.03791051 432.5476
v 157.0237 19.58791 669.437
vn -0.1842478 2.877285E-08 -0.9828798
v 137.8084 19.58791 673.039
v 137.8084 0.03791051 673.039
v 157.0237 0.03791051 669.437
v 579.6666 19.58791 163.6981
vn -0.9593159 -8.125011E-07 -0.282335
v 574.1469 19.58791 182.4528
v 574.1469 0.03791051 182.4528
v 579.6666 0.03791051 163.6981
o polySurface197_1
g polygon_0
usemtl Audience_a1_lambert21
f 139/3/35 138/2/35 137/1/35
f 140/4/35 139/3/35 137/1/35
f 143/3/36 142/2/36 141/1/36
f 144/4/36 143/3/36 141/1/36
f 147/3/37 146/2/37 145/1/37
f 148/4/37 147/3/37 145/1/37
v 681.4411 19.58791 321.8762
vn -0.8755355 -9.526207E-07 -0.4831537
v 671.9954 19.58791 338.9929
v 671.9954 0.03791051 338.9929
v 681.4411 0.03791051 321.8762
v 183.726 19.58791 608.3273
vn -0.2306789 -6.534323E-08 -0.97303
v 164.7033 19.58791 612.837
v 164.7033 0.03791051 612.837
v 183.726 0.03791051 608.3273
v 344.3473 19.58791 717.5446
vn -0.3996526 2.773968E-08 -0.9166667
v 326.4265 19.58791 725.3578
v 326.4265 0.03791051 725.3578
v 344.3473 0.03791051 717.5446
v 634.2134 19.58791 -14.50839
vn -0.9999734 6.479763E-07 0.007286754
v 634.3558 19.58791 5.041095
v 634.3558 0.03791051 5.041095
v 634.2134 0.03791051 -14.50839
o polySurface197_2
g polygon_0
usemtl Audience_a2_lambert21
f 151/3/38 150/2/38 149/1/38
f 152/4/38 151/3/38 149/1/38
f 155/3/39 154/2/39 153/1/39
f 156/4/39 155/3/39 153/1/39
f 159/3/40 158/2/40 157/1/40
f 160/4/40 159/3/40 157/1/40
f 163/3/41 162/2/41 161/1/41
f 164/4/41 163/3/41 161/1/41
v 707.3245 19.58791 124.0967
vn -0.983325 -9.889402E-07 -0.1818567
v 703.7692 19.58791 143.3207
v 703.7692 0.03791051 143.3207
v 707.3245 0.03791051 124.0967
v 228.5013 19.58791 571.905
vn -0.3686139 9.93258E-08 -0.9295826
v 210.328 19.58791 579.1114
v 210.328 0.03791051 579.1114
v 228.5013 0.03791051 571.905
v 389.434 19.58791 465.6939
vn -0.6422613 -3.66688E-07 -0.7664858
v 374.4492 19.58791 478.2502
v 374.4492 0.03791051 478.2502
v 389.434 0.03791051 465.6939
v 641.2097 19.58791 84.72395
vn -0.9901113 -8.170853E-07 -0.1402841
v 638.4672 19.58791 104.0806
v 638.4672 0.03791051 104.0806
v 641.2097 0.03791051 84.72395
o polySurface197_3
g polygon_0
usemtl Audience_a3_lambert21
f 167/3/42 166/2/42 165/1/42
f 168/4/42 167/3/42 165/1/42
f 171/3/43 170/2/43 169/1/43
f 172/4/43 171/3/43 169/1/43
f 175/3/44 174/2/44 173/1/44
f 176/4/44 175/3/44 173/1/44
f 179/3/45 178/2/45 177/1/45
f 180/4/45 179/3/45 177/1/45
v 481.8412 19.58791 468.3301
vn -0.7083983 4.11787E-07 -0.7058129
v 468.0426 19.58791 482.1793
v 468.0426 0.03791051 482.1793
v 481.8412 0.03791051 468.3301
v 611.3035 19.58791 264.9587
vn -0.9163939 -1.267875E-07 -0.4002775
v 603.478 19.58791 282.8743
v 603.478 0.03791051 282.8743
v 611.3035 0.03791051 264.9587
o polySurface197_4
g polygon_0
usemtl Audience_b1_lambert21
f 183/3/46 182/2/46 181/1/46
f 184/4/46 183/3/46 181/1/46
f 187/3/47 186/2/47 185/1/47
f 188/4/47 187/3/47 185/1/47
v 249.4586 19.58791 -461.9844
vn -0.4717969 9.230314E-08 0.8817073
v 266.696 19.58791 -452.7608
v 266.696 0.03791051 -452.7608
v 249.4586 0.03791051 -461.9844
v 42.66698 19.58791 -479.2899
vn -0.1004382 3.11779E-09 0.9949433
v 62.11813 19.58791 -477.3263
v 62.11813 0.03791051 -477.3263
v 42.66698 0.03791051 -479.2899
v 542.1143 19.58791 -234.7303
vn -0.9406987 -1.115928E-06 0.3392431
v 548.7465 19.58791 -216.3396
v 548.7465 0.03791051 -216.3396
v 542.1143 0.03791051 -234.7303
o polySurface196_0
g polygon_0
usemtl Audience_b2_lambert21
f 191/3/48 190/2/48 189/1/48
f 192/4/48 191/3/48 189/1/48
f 195/3/49 194/2/49 193/1/49
f 196/4/49 195/3/49 193/1/49
f 199/3/50 198/2/50 197/1/50
f 200/4/50 199/3/50 197/1/50
v 179.1564 19.58791 -483.9587
vn -0.3537081 -7.570655E-08 0.9353559
v 197.4426 19.58791 -477.0437
v 197.4426 0.03791051 -477.0437
v 179.1564 0.03791051 -483.9587
v 655.4172 19.58791 -235.6844
vn -0.9602963 -1.07442E-06 0.278982
v 660.8713 19.58791 -216.9106
v 660.8713 0.03791051 -216.9106
v 655.4172 0.03791051 -235.6844
v 581.9921 19.58791 -337.2322
vn -0.8621843 -6.121051E-07 0.5065947
v 591.8961 19.58791 -320.3765
v 591.8961 0.03791051 -320.3765
v 581.9921 0.03791051 -337.2322
o polySurface196_1
g polygon_0
usemtl Audience_b1_lambert21
f 203/3/51 202/2/51 201/1/51
f 204/4/51 203/3/51 201/1/51
f 207/3/52 206/2/52 205/1/52
f 208/4/52 207/3/52 205/1/52
f 211/3/53 210/2/53 209/1/53
f 212/4/53 211/3/53 209/1/53
v 707.6179 19.58791 -346.6618
vn -0.9016918 -1.202809E-06 0.4323794
v 716.0709 19.58791 -329.0338
v 716.0709 0.03791051 -329.0338
v 707.6179 0.03791051 -346.6618
v 626.0301 19.58791 -407.1616
vn -0.8293945 -9.669603E-07 0.5586634
v 636.952 19.58791 -390.9469
v 636.952 0.03791051 -390.9469
v 626.0301 0.03791051 -407.1616
o polySurface196_2
g polygon_0
usemtl Audience_a1_lambert21
f 215/3/54 214/2/54 213/1/54
f 216/4/54 215/3/54 213/1/54
f 219/3/55 218/2/55 217/1/55
f 220/4/55 219/3/55 217/1/55
v 560.7403 19.58791 -421.5116
vn -0.8082306 -1.190097E-06 0.588866
v 572.2526 19.58791 -405.7107
v 572.2526 0.03791051 -405.7107
v 560.7403 0.03791051 -421.5116
v 461.1926 19.58791 -595.7933
vn -0.6259006 2.869493E-08 0.7799028
v 476.4397 19.58791 -583.557
v 476.4397 0.03791051 -583.557
v 461.1926 0.03791051 -595.7933
o polySurface196_3
g polygon_0
usemtl Audience_a2_lambert21
f 223/3/56 222/2/56 221/1/56
f 224/4/56 223/3/56 221/1/56
f 227/3/57 226/2/57 225/1/57
f 228/4/57 227/3/57 225/1/57
v 478.188 19.58791 -680.191
vn -0.5768892 -2.316928E-07 0.8168224
v 494.1569 19.58791 -668.9128
v 494.1569 0.03791051 -668.9128
v 478.188 0.03791051 -680.191
v 436.9492 19.58791 -507.6246
vn -0.6607955 5.658069E-07 0.750566
v 451.6227 19.58791 -494.706
v 451.6227 0.03791051 -494.706
v 436.9492 0.03791051 -507.6246
o polySurface196_4
g polygon_0
usemtl Audience_a3_lambert21
f 231/3/58 230/2/58 229/1/58
f 232/4/58 231/3/58 229/1/58
f 235/3/59 234/2/59 233/1/59
f 236/4/59 235/3/59 233/1/59
v 632.4503 248.053 468.2376
vn -0.626097 0 -0.7797452
v 617.2063 248.053 480.4778
v 617.2063 228.503 480.4778
v 632.4503 228.503 468.2376
o tree1:audience_a3_8_0
g polygon_0
usemtl tree1:Audience_a3_lambert2
f 239/3/60 238/2/60 237/1/60
f 240/4/60 239/3/60 237/1/60
v 602.9432 248.053 510.653
vn -0.6260974 0 -0.7797449
v 587.6992 248.053 522.8931
v 587.6992 228.503 522.8931
v 602.9432 228.503 510.653
o tree1:audience_b1_8_0
g polygon_0
usemtl tree1:Audience_b1_lambert2
f 243/3/61 242/2/61 241/1/61
f 244/4/61 243/3/61 241/1/61
v 614.032 248.053 491.8317
vn -0.6260971 0 -0.779745
v 598.7879 248.053 504.0719
v 598.7879 228.503 504.0719
v 614.032 228.503 491.8317
o tree1:audience_b2_8_0
g polygon_0
usemtl tree1:Audience_b2_lambert2
f 247/3/62 246/2/62 245/1/62
f 248/4/62 247/3/62 245/1/62
v 666.1862 248.053 461.6403
vn -0.6260965 0 -0.7797455
v 650.9422 248.053 473.8805
v 650.9422 228.503 473.8805
v 666.1862 228.503 461.6403
o tree1:audience_a2_8_0
g polygon_0
usemtl tree1:Audience_a2_lambert2
f 251/3/63 250/2/63 249/1/63
f 252/4/63 251/3/63 249/1/63
v 16.69172 152.2098 755.6783
vn -0.07105954 0 -0.9974721
v -2.808861 152.2098 757.0676
v -2.808861 132.6598 757.0676
v 16.69172 132.6598 755.6783
o tree1:audience_a3_7_0
g polygon_0
usemtl tree1:Audience_a3_lambert20
f 255/3/64 254/2/64 253/1/64
f 256/4/64 255/3/64 253/1/64
v 41.21005 152.2098 746.1312
vn -0.07106 0 -0.997472
v 21.70947 152.2098 747.5204
v 21.70947 132.6598 747.5204
v 41.21005 132.6598 746.1312
o tree1:audience_b1_7_0
g polygon_0
usemtl tree1:Audience_b1_lambert20
f 259/3/65 258/2/65 257/1/65
f 260/4/65 259/3/65 257/1/65
v 89.31138 152.2098 764.1836
vn -0.002848074 0 -0.9999959
v 69.76145 152.2098 764.2393
v 69.76145 132.6598 764.2393
v 89.31138 132.6598 764.1836
o tree1:audience_b2_7_0
g polygon_0
usemtl tree1:Audience_b2_lambert20
f 263/3/66 262/2/66 261/1/66
f 264/4/66 263/3/66 261/1/66
v 65.39808 152.2098 756.8099
vn -0.00284731 0 -0.9999959
v 45.84816 152.2098 756.8655
v 45.84816 132.6598 756.8655
v 65.39808 132.6598 756.8099
o tree1:audience_a2_7_0
g polygon_0
usemtl tree1:Audience_a2_lambert20
f 267/3/67 266/2/67 265/1/67
f 268/4/67 267/3/67 265/1/67
v 539.0111 189.3111 -804.8741
vn -0.4386681 8.751061E-17 0.5637149
v 560.6115 189.3111 -788.0652
v 560.6115 163.8961 -788.0652
v 539.0111 163.8961 -804.8741
o tree1:audience_a1_11_0
g polygon_0
usemtl tree1:Audience_a1_lambert2
f 271/3/68 270/2/68 269/1/68
f 272/4/68 271/3/68 269/1/68
v 588.9456 189.3111 -740.5728
v 610.546 189.3111 -723.7639
v 610.546 163.8961 -723.7639
v 588.9456 163.8961 -740.5728
o tree1:audience_b1_11_0
g polygon_0
usemtl tree1:Audience_b1_lambert21
f 275/3/68 274/2/68 273/1/68
f 276/4/68 275/3/68 273/1/68
v 538.8472 189.3111 -774.4623
vn -0.4386683 8.751061E-17 0.5637147
v 560.4476 189.3111 -757.6534
v 560.4476 163.8961 -757.6534
v 538.8472 163.8961 -774.4623
o tree1:audience_b2_11_0
g polygon_0
usemtl tree1:Audience_b2_lambert21
f 279/3/69 278/2/69 277/1/69
f 280/4/69 279/3/69 277/1/69
v 556.5849 189.3111 -753.9918
vn -0.4386687 8.751061E-17 0.5637144
v 578.1853 189.3111 -737.1829
v 578.1853 163.8961 -737.1829
v 556.5849 163.8961 -753.9918
o tree1:audience_a2_11_0
g polygon_0
usemtl tree1:Audience_a2_lambert21
f 283/3/70 282/2/70 281/1/70
f 284/4/70 283/3/70 281/1/70
v 623.5344 171.9019 -542.0844
vn -0.5133081 8.75106E-17 0.4967081
v 642.5672 171.9019 -522.4154
v 642.5672 146.4869 -522.4154
v 623.5344 146.4869 -542.0844
o tree1:audience_a1_10_0
g polygon_0
usemtl tree1:Audience_a1_lambert20
f 287/3/71 286/2/71 285/1/71
f 288/4/71 287/3/71 285/1/71
v 619.6166 171.9019 -577.4399
vn -0.5133083 8.75106E-17 0.4967079
v 638.6495 171.9019 -557.7709
v 638.6495 146.4869 -557.7709
v 619.6166 146.4869 -577.4399
o tree1:audience_a3_10_0
g polygon_0
usemtl tree1:Audience_a3_lambert21
f 291/3/72 290/2/72 289/1/72
f 292/4/72 291/3/72 289/1/72
v 639.6298 171.9019 -518.5353
v 658.6627 171.9019 -498.8664
v 658.6627 146.4869 -498.8664
v 639.6298 146.4869 -518.5353
o tree1:audience_b1_10_0
g polygon_0
usemtl tree1:Audience_b1_lambert21
f 295/3/71 294/2/71 293/1/71
f 296/4/71 295/3/71 293/1/71
v 642.4731 171.9019 -571.1636
vn -0.5133082 8.75106E-17 0.4967079
v 661.5059 171.9019 -551.4947
v 661.5059 146.4869 -551.4947
v 642.4731 146.4869 -571.1636
o tree1:audience_b2_10_0
g polygon_0
usemtl tree1:Audience_b2_lambert21
f 299/3/73 298/2/73 297/1/73
f 300/4/73 299/3/73 297/1/73
v 659.665 171.9019 -516.8542
vn -0.5133086 8.75106E-17 0.4967075
v 678.6979 171.9019 -497.1852
v 678.6979 146.4869 -497.1852
v 659.665 146.4869 -516.8542
o tree1:audience_a2_10_0
g polygon_0
usemtl tree1:Audience_a2_lambert21
f 303/3/74 302/2/74 301/1/74
f 304/4/74 303/3/74 301/1/74
v 555.5713 163.4548 619.118
vn -0.581943 0 -0.8132296
v 539.6726 163.4548 630.4949
v 539.6726 143.9048 630.4949
v 555.5713 143.9048 619.118
o tree1:audience_a1_9_0
g polygon_0
usemtl tree1:Audience_a1_lambert21
f 307/3/75 306/2/75 305/1/75
f 308/4/75 307/3/75 305/1/75
v 471.2669 163.4548 656.669
vn -0.5803842 0 -0.8143428
v 455.3465 163.4548 668.0155
v 455.3465 143.9048 668.0155
v 471.2669 143.9048 656.669
o tree1:audience_a3_9_0
g polygon_0
usemtl tree1:Audience_a3_lambert21
f 311/3/76 310/2/76 309/1/76
f 312/4/76 311/3/76 309/1/76
v 509.0357 163.4548 616.8107
vn -0.5803846 0 -0.8143426
v 493.1153 163.4548 628.1572
v 493.1153 143.9048 628.1572
v 509.0357 143.9048 616.8107
o tree1:audience_b1_9_0
g polygon_0
usemtl tree1:Audience_b1_lambert21
f 315/3/77 314/2/77 313/1/77
f 316/4/77 315/3/77 313/1/77
v 531.9633 163.4548 611.9984
vn -0.5803843 0 -0.8143427
v 516.0428 163.4548 623.3449
v 516.0428 143.9048 623.3449
v 531.9633 143.9048 611.9984
o tree1:audience_b2_9_0
g polygon_0
usemtl tree1:Audience_b2_lambert21
f 319/3/78 318/2/78 317/1/78
f 320/4/78 319/3/78 317/1/78
v 485.758 163.4548 636.3777
vn -0.5803837 0 -0.8143432
v 469.8376 163.4548 647.7242
v 469.8376 143.9048 647.7242
v 485.758 143.9048 636.3777
o tree1:audience_a2_9_0
g polygon_0
usemtl tree1:Audience_a2_lambert21
f 323/3/79 322/2/79 321/1/79
f 324/4/79 323/3/79 321/1/79
