<svg
   width="384"
   height = "768"
   version="1.1"
   id="svg2"
   xmlns="http://www.w3.org/2000/svg"
   xmlns:svg="http://www.w3.org/2000/svg">
  <defs
     id="defs6" />

<rect
   style="fill:#79F145;stroke-width:0;stroke-opacity:0"
   id="Background"
   width="384"
   height="768"
   x="0"
   y="0"
   rx="0" />
  <path
     style="fill:none;stroke:#000000;stroke-width:5;stroke-opacity:1"
     d = "M 267.5963,301.7803 285.0683,298.1367 299.421,292.7532 312.5838,281.807 327.8505,263.8493 336.0331,251.6374 "
id = "0" />
  <path
     style="fill:none;stroke:#000000;stroke-width:5;stroke-opacity:1"
     d = "M 269.8624,303.9234 287.2083,301.1013 301.3387,296.3922 314.2995,286.3427 329.2817,269.699 336.024,260.5075 "
id = "1" />
  <path
     style="fill:none;stroke:#000000;stroke-width:5;stroke-opacity:1"
     d = "M 272.0677,306.1287 289.2788,303.9936 303.0255,299.9954 315.6646,290.7579 330.1305,275.3677 336.0396,267.8004 "
id = "2" />
  <path
     style="fill:none;stroke:#000000;stroke-width:5;stroke-opacity:1"
     d = "M 274.2108,308.3947 291.2792,306.9242 304.5954,303.4504 316.8864,295.0351 330.7623,280.7359 336.0405,274.2016 "
id = "3" />
  <path
     style="fill:none;stroke:#000000;stroke-width:5;stroke-opacity:1"
     d = "M 276.2899,310.7196 292.9702,309.8946 305.7146,306.7802 317.4504,299.132 330.8806,286.1599 336.0124,280.0222 "
id = "4" />
  <path
     style="fill:none;stroke:#000000;stroke-width:5;stroke-opacity:1"
     d = "M 278.3034,313.1015 294.4566,312.9361 306.5024,310.1855 317.4732,303.3559 330.2979,291.8424 336.0168,285.2845 "
id = "5" />
  <path
     style="fill:none;stroke:#000000;stroke-width:5;stroke-opacity:1"
     d = "M 280.2491,315.539 295.8195,316.0787 307.0577,313.8561 317.1298,307.9435 329.087,298.0464 336.0369,290.4428 "
id = "6" />
  <path
     style="fill:none;stroke:#000000;stroke-width:5;stroke-opacity:1"
     d = "M 282.1261,318.0298 297.0285,319.2831 307.5179,317.6286 316.6374,312.7516 327.5356,304.5273 336.0134,296.0349 "
id = "7" />
  <path
     style="fill:none;stroke:#000000;stroke-width:5;stroke-opacity:1"
     d = "M 283.933,320.5721 298.0484,322.2539 307.8906,321.1147 316.3023,316.973 326.1377,310.0325 336.0363,301.4532 "
id = "8" />
  <path
     style="fill:none;stroke:#000000;stroke-width:5;stroke-opacity:1"
     d = "M 285.6683,323.1636 298.9717,325.0975 308.3638,324.395 316.4856,320.6552 325.752,314.6248 336.0749,306.722 "
id = "9" />
  <path
     style="fill:none;stroke:#000000;stroke-width:5;stroke-opacity:1"
     d = "M 287.3307,325.8025 299.8647,328.2673 308.7855,327.9003 316.6691,324.6448 325.443,319.2537 336.0371,311.5459 "
id = "10" />
  <path
     style="fill:none;stroke:#000000;stroke-width:5;stroke-opacity:1"
     d = "M 288.9182,328.4872 300.6684,331.3781 309.3055,331.2363 317.2177,328.5289 325.7599,323.248 336.0536,315.9806 "
id = "11" />
  <path
     style="fill:none;stroke:#000000;stroke-width:5;stroke-opacity:1"
     d = "M 290.4303,331.215 301.4344,334.4631 310.0328,334.5859 318.1337,332.3615 326.7401,327.2003 336.0325,320.5937 "
id = "12" />
  <path
     style="fill:none;stroke:#000000;stroke-width:5;stroke-opacity:1"
     d = "M 291.8658,333.9839 302.4166,337.2722 311.2056,337.686 319.5948,335.7513 328.5746,330.6738 336.0006,325.414 "
id = "13" />
  <path
     style="fill:none;stroke:#000000;stroke-width:5;stroke-opacity:1"
     d = "M 293.2235,336.7918 303.6223,340.0055 312.7114,340.6885 321.4684,338.9463 330.851,334.049 336.0805,330.5345 "
id = "14" />
  <path
     style="fill:none;stroke:#000000;stroke-width:5;stroke-opacity:1"
     d = "M 294.5024,339.6364 304.8882,342.8731 314.3331,343.7296 323.4751,342.2043 333.4815,337.6283 336.0459,336.0719 "
id = "15" />
  <path
     style="fill:none;stroke:#000000;stroke-width:5;stroke-opacity:1"
     d = "M 295.7009,342.5158 306.3008,345.866 316.1668,346.9904 325.8935,345.6422 336.0624,341.7137 "
id = "16" />
  <path
     style="fill:none;stroke:#000000;stroke-width:5;stroke-opacity:1"
     d = "M 296.8186,345.4276 307.6627,348.8971 317.9794,350.1956 328.4342,349.0204 336.0148,346.4666 "
id = "17" />
  <path
     style="fill:none;stroke:#000000;stroke-width:5;stroke-opacity:1"
     d = "M 297.8548,348.3693 308.9658,351.9943 319.645,353.5222 330.9803,352.5672 336.0477,351.0161 "
id = "18" />
  <path
     style="fill:none;stroke:#000000;stroke-width:5;stroke-opacity:1"
     d = "M 298.8085,351.3388 310.3202,355.0899 321.4267,356.8538 333.8719,355.9518 336.0878,355.3348 "
id = "19" />
  <path
     style="fill:none;stroke:#000000;stroke-width:5;stroke-opacity:1"
     d = "M 299.6791,354.3337 311.5447,358.0544 323.1017,359.9355 336.0826,359.2293 "
id = "20" />
  <path
     style="fill:none;stroke:#000000;stroke-width:5;stroke-opacity:1"
     d = "M 300.4652,357.3519 312.6298,361.0787 324.5967,363.0315 336.0904,362.6138 "
id = "21" />
  <path
     style="fill:none;stroke:#000000;stroke-width:5;stroke-opacity:1"
     d = "M 301.1668,360.3909 313.7506,364.1617 326.333,366.0953 336.0277,365.7519 "
id = "22" />
  <path
     style="fill:none;stroke:#000000;stroke-width:5;stroke-opacity:1"
     d = "M 301.7834,363.4482 314.7532,367.119 328.2106,368.8997 336.099,368.4778 "
id = "23" />
  <path
     style="fill:none;stroke:#000000;stroke-width:5;stroke-opacity:1"
     d = "M 302.3146,366.5215 315.7845,370.0173 330.4086,371.7005 336.095,371.3004 "
id = "24" />
  <path
     style="fill:none;stroke:#000000;stroke-width:5;stroke-opacity:1"
     d = "M 302.8418,370.2531 316.9873,373.6461 333.2759,375.1773 336.0641,374.9235 "
id = "25" />
  <path
     style="fill:none;stroke:#000000;stroke-width:5;stroke-opacity:1"
     d = "M 303.1183,372.7067 317.8752,376.1575 335.3459,377.4181 336.0423,377.3476 "
id = "26" />
  <path
     style="fill:none;stroke:#000000;stroke-width:5;stroke-opacity:1"
     d = "M 303.3901,375.8137 319.0616,379.3318 336.0367,380.2293 "
id = "27" />
  <path
     style="fill:none;stroke:#000000;stroke-width:5;stroke-opacity:1"
     d = "M 303.5753,378.9271 320.3022,382.5072 336.0935,383.0858 "
id = "28" />
  <path
     style="fill:none;stroke:#000000;stroke-width:5;stroke-opacity:1"
     d = "M 303.6736,382.0444 321.3368,385.7148 336.0287,386.1409 "
id = "29" />
  <path
     style="fill:none;stroke:#000000;stroke-width:5;stroke-opacity:1"
     d = "M 303.6849,385.1633 321.9945,388.8292 336.0867,389.281 "
id = "30" />
  <path
     style="fill:none;stroke:#000000;stroke-width:5;stroke-opacity:1"
     d = "M 303.6086,388.2813 322.503,391.7379 336.0956,392.1945 "
id = "31" />
  <path
     style="fill:none;stroke:#000000;stroke-width:5;stroke-opacity:1"
     d = "M 303.4454,391.3959 322.8788,394.6224 336.0715,395.0172 "
id = "32" />
  <path
     style="fill:none;stroke:#000000;stroke-width:5;stroke-opacity:1"
     d = "M 303.1955,394.5048 323.1489,397.6589 336.0457,397.903 "
id = "33" />
  <path
     style="fill:none;stroke:#000000;stroke-width:5;stroke-opacity:1"
     d = "M 302.8589,397.6054 323.2472,400.6969 336.048,400.7946 "
id = "34" />
  <path
     style="fill:none;stroke:#000000;stroke-width:5;stroke-opacity:1"
     d = "M 302.4361,400.6956 322.9536,403.7679 336.0544,403.8359 "
id = "35" />
  <path
     style="fill:none;stroke:#000000;stroke-width:5;stroke-opacity:1"
     d = "M 301.9266,403.7725 322.3295,406.82 336.0261,407.0081 "
id = "36" />
  <path
     style="fill:none;stroke:#000000;stroke-width:5;stroke-opacity:1"
     d = "M 301.3315,406.8341 321.3675,410.055 336.0594,410.5664 "
id = "37" />
  <path
     style="fill:none;stroke:#000000;stroke-width:5;stroke-opacity:1"
     d = "M 300.6513,409.8779 320.3637,413.2902 336.0359,414.1958 "
id = "38" />
  <path
     style="fill:none;stroke:#000000;stroke-width:5;stroke-opacity:1"
     d = "M 299.8866,412.9016 319.2484,416.5945 336.0772,418.1417 "
id = "39" />
  <path
     style="fill:none;stroke:#000000;stroke-width:5;stroke-opacity:1"
     d = "M 299.0378,415.9028 318.0778,419.973 336.0845,422.6335 "
id = "40" />
  <path
     style="fill:none;stroke:#000000;stroke-width:5;stroke-opacity:1"
     d = "M 298.105,418.8789 316.7758,423.3784 336.0322,427.5447 "
id = "41" />
  <path
     style="fill:none;stroke:#000000;stroke-width:5;stroke-opacity:1"
     d = "M 297.0896,421.8279 315.3512,426.8036 335.7662,432.7044 336.0587,432.7714 "
id = "42" />
  <path
     style="fill:none;stroke:#000000;stroke-width:5;stroke-opacity:1"
     d = "M 295.9924,424.7475 313.7849,430.1873 333.5471,437.2052 336.0314,437.9724 "
id = "43" />
  <path
     style="fill:none;stroke:#000000;stroke-width:5;stroke-opacity:1"
     d = "M 294.8143,427.6352 312.1079,433.709 330.9492,441.7057 336.0634,443.7283 "
id = "44" />
  <path
     style="fill:none;stroke:#000000;stroke-width:5;stroke-opacity:1"
     d = "M 293.2839,431.0792 309.8676,438.0659 327.417,447.3083 336.0537,451.5007 "
id = "45" />
  <path
     style="fill:none;stroke:#000000;stroke-width:5;stroke-opacity:1"
     d = "M 292.2182,433.3065 308.1859,441.0782 324.8682,451.0562 336.0652,457.0519 "
id = "46" />
  <path
     style="fill:none;stroke:#000000;stroke-width:5;stroke-opacity:1"
     d = "M 290.8022,436.0854 305.9559,444.8626 321.4943,455.6718 336.0207,464.5017 "
id = "47" />
  <path
     style="fill:none;stroke:#000000;stroke-width:5;stroke-opacity:1"
     d = "M 289.3094,438.8238 303.6612,448.4169 318.1357,460.1248 335.8135,472.323 336.0715,472.4761 "
id = "48" />
  <path
     style="fill:none;stroke:#000000;stroke-width:5;stroke-opacity:1"
     d = "M 287.7509,441.5029 301.554,451.8674 315.258,464.6714 332.2654,478.1012 336.0585,480.5223 "
id = "49" />
  <path
     style="fill:none;stroke:#000000;stroke-width:5;stroke-opacity:1"
     d = "M 285.7461,444.7169 298.943,455.9389 311.8249,470.1559 328.1204,484.4174 336.0303,489.3104 "
id = "50" />
  <path
     style="fill:none;stroke:#000000;stroke-width:5;stroke-opacity:1"
     d = "M 284.3807,446.7743 297.1716,458.5399 309.4768,473.4419 325.6991,488.0552 336.0373,494.149 "
id = "51" />
  <path
     style="fill:none;stroke:#000000;stroke-width:5;stroke-opacity:1"
     d = "M 282.5919,449.3291 294.9008,461.765 306.8488,477.2685 322.8379,492.1446 336.0489,499.6639 "
id = "52" />
  <path
     style="fill:none;stroke:#000000;stroke-width:5;stroke-opacity:1"
     d = "M 280.7324,451.8332 292.7375,464.8853 304.8694,480.8274 320.879,495.85 336.0248,504.6139 "
id = "53" />
  <path
     style="fill:none;stroke:#000000;stroke-width:5;stroke-opacity:1"
     d = "M 278.8039,454.2844 290.6678,467.7809 303.1351,484.0201 319.3202,499.1087 336.0185,509.1836 "
id = "54" />
  <path
     style="fill:none;stroke:#000000;stroke-width:5;stroke-opacity:1"
     d = "M 276.8079,456.6808 288.6659,470.6125 301.39,486.9788 317.8795,502.0825 336.0546,513.3807 "
id = "55" />
  <path
     style="fill:none;stroke:#000000;stroke-width:5;stroke-opacity:1"
     d = "M 274.7452,459.0203 286.6745,473.0987 299.4491,489.5689 316.0981,505.042 335.7526,517.6711 336.0086,517.8277 "
id = "56" />
  <path
     style="fill:none;stroke:#000000;stroke-width:5;stroke-opacity:1"
     d = "M 272.6181,461.3013 284.5817,475.3793 297.3308,491.9153 314.0846,507.7552 333.7117,520.7297 336.0504,522.2695 "
id = "57" />
  <path
     style="fill:none;stroke:#000000;stroke-width:5;stroke-opacity:1"
     d = "M 270.4283,463.5222 282.4114,477.5957 295.1009,494.0831 312.0297,510.3667 331.7011,523.7898 336.0067,526.8823 "
id = "58" />
  <path
     style="fill:none;stroke:#000000;stroke-width:5;stroke-opacity:1"
     d = "M 268.1775,465.6811 280.2031,479.7985 293.0616,496.0652 310.1025,512.7 329.6163,526.6633 336.0601,531.7332 "
id = "59" />
  <path
     style="fill:none;stroke:#000000;stroke-width:5;stroke-opacity:1"
     d = "M 265.8673,467.7765 277.9126,482.0125 291.0294,498.1353 308.1788,515.0215 327.4663,529.5479 336.0733,537.0208 "
id = "60" />
  <path
     style="fill:none;stroke:#000000;stroke-width:5;stroke-opacity:1"
     d = "M 263.4991,469.8061 275.5283,484.1688 288.8925,500.3154 306.1143,517.3821 325.2757,532.7059 336.0659,542.8412 "
id = "61" />
  <path
     style="fill:none;stroke:#000000;stroke-width:5;stroke-opacity:1"
     d = "M 261.0753,471.7689 273.126,486.2868 286.6788,502.4537 303.9962,519.7535 323.0668,535.8525 336.0655,549.1577 "
id = "62" />
  <path
     style="fill:none;stroke:#000000;stroke-width:5;stroke-opacity:1"
     d = "M 258.5977,473.6634 270.6736,488.247 284.4119,504.4742 301.6999,522.0407 320.5435,538.9462 334.7369,554.8098 336.0368,558.059 "
id = "63" />
  <path
     style="fill:none;stroke:#000000;stroke-width:5;stroke-opacity:1"
     d = "M 256.0683,475.4881 268.1984,490.1442 282.139,506.6616 299.3101,524.4799 317.8473,542.1914 331.2983,559.4185 336.0301,573.2308 "
id = "64" />
  <path
     style="fill:none;stroke:#000000;stroke-width:5;stroke-opacity:1"
     d = "M 253.5052,477.2308 265.5934,491.9708 279.6668,508.8186 296.726,527.0644 314.5594,545.7762 327.0242,564.7308 332.4821,583.515 335.4897,603.4435 336.0256,605.371 "
id = "65" />
  <path
     style="fill:none;stroke:#000000;stroke-width:5;stroke-opacity:1"
     d = "M 250.8614,478.9218 262.7484,493.7155 276.9283,510.9175 293.7221,529.6226 310.5378,549.4677 322.2302,570.729 327.7123,592.4286 331.8249,613.9038 336.0328,625.4576 "
id = "66" />
  <path
     style="fill:none;stroke:#000000;stroke-width:5;stroke-opacity:1"
     d = "M 248.2048,480.5183 259.7917,495.2992 273.916,512.7899 290.4576,531.9463 306.2383,553.1327 317.1478,577.0533 323.0591,601.3287 327.8712,622.9877 335.1093,641.7607 336.026,643.1926 "
id = "67" />
  <path
     style="fill:none;stroke:#000000;stroke-width:5;stroke-opacity:1"
     d = "M 245.4709,482.0594 256.6515,496.8602 270.7357,514.493 286.8866,534.0706 301.652,556.4871 312.3551,582.7894 318.7744,608.8716 323.8058,630.4484 331.2706,649.2012 336.0195,656.8477 "
id = "68" />
  <path
     style="fill:none;stroke:#000000;stroke-width:5;stroke-opacity:1"
     d = "M 242.7121,483.5143 253.3421,498.4052 267.2901,516.1733 282.8134,536.1539 296.7904,559.5206 307.7657,587.4175 314.3887,614.5674 319.5248,636.5754 326.8664,655.0352 336.0024,671.0049 "
id = "69" />
  <path
     style="fill:none;stroke:#000000;stroke-width:5;stroke-opacity:1"
     d = "M 239.9139,484.8917 249.9392,500.0973 263.6172,518.0453 278.5168,538.2425 291.9308,562.4703 302.9253,591.628 309.4986,619.8238 314.7391,641.7669 321.2818,660.0948 330.3048,677.8535 336.0058,689.5411 "
id = "70" />
  <path
     style="fill:none;stroke:#000000;stroke-width:5;stroke-opacity:1"
     d = "M 237.078,486.1899 246.4139,501.837 259.5115,519.9771 273.8599,540.5663 286.9012,565.2155 297.631,595.3507 303.9908,624.2178 309.1057,645.8998 314.5881,664.4595 322.0972,681.9592 327.0635,697.0992 328.1045,710.1484 326.3691,720.098 "
id = "71" />
  <path
     style="fill:none;stroke:#000000;stroke-width:5;stroke-opacity:1"
     d = "M 234.207,487.4086 242.7644,503.3829 255.1606,521.9388 269.1691,542.7307 281.908,567.5684 292.1818,597.994 298.8673,627.0129 304.0381,648.8802 309.0107,667.5776 315.2082,685.0787 318.3567,699.9283 318.043,713.4763 316.6076,720.0193 "
id = "72" />
  <path
     style="fill:none;stroke:#000000;stroke-width:5;stroke-opacity:1"
     d = "M 231.3033,488.5468 238.9924,504.9739 250.4024,523.6761 263.981,544.1594 276.4188,568.8584 286.4131,598.5782 294.1014,627.6232 299.2633,649.7859 303.9348,668.7118 308.9612,686.3184 311.2869,701.1205 310.5507,715.132 309.5619,720.0331 "
id = "73" />
  <path
     style="fill:none;stroke:#000000;stroke-width:5;stroke-opacity:1"
     d = "M 228.3689,489.6036 235.2079,506.493 245.6355,525.343 258.7141,545.3074 271.0515,569.5107 280.9736,598.5205 289.1711,627.1396 294.3861,649.5297 298.7863,668.7788 303.1147,686.2407 305.0623,701.2135 304.1438,715.376 303.1375,720.0693 "
id = "74" />
  <path
     style="fill:none;stroke:#000000;stroke-width:5;stroke-opacity:1"
     d = "M 225.4062,490.5782 231.2734,508.0244 240.8124,527.2794 253.0307,546.3852 265.4286,569.2526 275.838,597.0568 284.5464,624.8011 289.6646,647.6558 293.9195,667.6252 297.6898,685.1451 299.6609,700.4143 298.6422,714.4713 297.3932,720.0342 "
id = "75" />
  <path
     style="fill:none;stroke:#000000;stroke-width:5;stroke-opacity:1"
     d = "M 222.4172,491.4691 227.0658,509.5793 235.5237,529.4222 247.0249,548.3956 259.4151,569.574 270.3531,595.4977 279.7802,622.1038 284.7527,645.5339 288.5853,665.9993 291.9262,683.5809 294.3891,698.8258 293.6514,712.7772 291.8845,720.0648 "
id = "76" />
  <path
     style="fill:none;stroke:#000000;stroke-width:5;stroke-opacity:1"
     d = "M 219.4046,492.2763 222.7799,511.0359 230.0785,531.3057 240.7724,550.1633 252.6918,569.4502 264.1894,592.4333 274.4678,617.8258 280.0704,641.5173 283.6101,662.5251 287.2057,680.5166 290.2059,695.9485 290.1318,709.9766 287.8246,720.0164 "
id = "77" />
  <path
     style="fill:none;stroke:#000000;stroke-width:5;stroke-opacity:1"
     d = "M 216.3707,492.9993 218.5716,512.3979 224.5562,532.8328 234.0441,551.2518 244.8029,568.3984 255.8752,587.5435 266.3979,610.4195 273.4825,633.1152 277.4485,654.1608 280.6112,673.0061 284.2065,689.3432 285.7952,703.8618 284.0058,716.7903 282.8976,720.0048 "
id = "78" />
  <path
     style="fill:none;stroke:#000000;stroke-width:5;stroke-opacity:1"
     d = "M 213.3177,493.6374 214.5372,513.5638 219.1509,534.0341 227.0254,552.1242 235.6769,567.2472 245.1722,582.4451 255.1487,601.4165 263.665,621.9069 268.3381,642.2664 271.9778,662.1512 275.7461,679.7705 279.1315,695.1354 279.6489,708.484 276.9724,720.076 "
id = "79" />
  <path
     style="fill:none;stroke:#000000;stroke-width:5;stroke-opacity:1"
     d = "M 210.2482,494.1902 210.6203,514.3698 213.9267,534.7585 219.8257,552.7963 226.5,566.6645 234.5934,579.0862 243.4455,593.2779 251.6622,610.1899 258.476,628.3856 262.0959,647.1274 265.1347,666.1647 269.2558,683.6244 272.253,698.6099 271.5866,711.2437 269.19,720.0248 "
id = "80" />
  <path
     style="fill:none;stroke:#000000;stroke-width:5;stroke-opacity:1"
     d = "M 207.1644,494.6565 206.5038,515.0197 208.3466,535.3387 212.1709,553.4669 216.8072,566.6595 222.4617,577.0542 229.0687,587.1891 236.0504,598.572 242.9021,611.9556 248.841,627.8375 252.337,645.7043 255.0686,664.1514 259.0078,683.0994 262.4123,698.473 262.1595,711.3591 259.7673,720.0328 "
id = "81" />
  <path
     style="fill:none;stroke:#000000;stroke-width:5;stroke-opacity:1"
     d = "M 204.0688,495.0366 202.3155,515.4926 202.4256,535.9691 204.2189,553.9438 206.376,567.1479 208.8017,576.7359 211.9721,585.1099 215.9476,593.2565 220.5097,601.8392 225.6881,611.3365 231.0884,623.059 235.8379,638.4102 238.4021,656.5187 241.6623,677.1981 245.1349,696.4489 245.8326,713.3049 243.5434,720.0261 "
id = "82" />
  <path
     style="fill:none;stroke:#000000;stroke-width:5;stroke-opacity:1"
     d = "M 200.9637,495.3303 198.1903,515.8978 196.6994,536.5734 196.8156,554.6476 196.7041,568.2766 195.9999,578.7312 195.7983,587.7021 196.5351,596.2285 198.9115,605.0104 203.0923,615.6843 207.8953,629.4132 212.8347,647.5334 216.53,670.0616 220.3911,694.9544 220.2731,717.5472 219.2473,720.0455 "
id = "83" />
  <path
     style="fill:none;stroke:#000000;stroke-width:5;stroke-opacity:1"
     d = "M 197.8517,495.5373 194.063,516.1459 191.0375,536.9018 189.255,555.1956 186.5529,569.9614 183.5866,582.4481 182.3533,594.1429 183.5905,605.8269 187.9916,618.6198 194.0019,634.567 200.0987,655.8148 204.3025,681.1501 205.5096,706.095 201.6178,720.0605 "
id = "84" />
  <path
     style="fill:none;stroke:#000000;stroke-width:5;stroke-opacity:1"
     d = "M 194.0855,495.6715 189.0154,516.3134 184.2843,537.2955 180.2423,556.3069 175.1677,572.6128 171.3469,588.0634 170.4943,602.7566 173.1928,618.0294 179.0703,635.4195 185.5487,656.8651 188.5008,682.2014 186.3732,706.8511 181.3279,720.0182 "
id = "85" />
  <path
     style="fill:none;stroke:#000000;stroke-width:5;stroke-opacity:1"
     d = "M 191.6164,495.69 185.7454,516.42 180.1439,537.6065 174.8161,557.0247 168.6243,574.3393 164.2346,590.7452 163.6777,606.4517 167.0662,622.9228 172.5927,641.3135 177.7063,663.8718 176.9036,689.7426 171.1716,712.6406 167.6732,720.0578 "
id = "86" />
  <path
     style="fill:none;stroke:#000000;stroke-width:5;stroke-opacity:1"
     d = "M 188.498,495.6356 181.6553,516.4293 175.1761,537.6095 168.2178,557.1766 160.9543,575.5616 156.1104,592.5526 156.1368,608.4911 159.8556,624.9178 164.2827,643.2109 167.0913,665.9748 163.6702,691.541 155.3362,713.9467 152.9866,720.0087 "
id = "87" />
  <path
     style="fill:none;stroke:#000000;stroke-width:5;stroke-opacity:1"
     d = "M 185.3823,495.4943 177.6847,516.0972 170.3362,537.0443 162.1883,556.695 154.0414,575.8016 149.2718,593.1938 149.1091,609.2497 152.0565,625.1713 154.8389,642.9719 155.3165,664.6667 149.3461,688.3923 139.1815,711.547 137.1305,720.0006 "
id = "88" />
  <path
     style="fill:none;stroke:#000000;stroke-width:5;stroke-opacity:1"
     d = "M 182.2718,495.2662 173.9526,515.5018 165.5931,536.0746 156.5637,555.7228 148.0675,575.4308 143.6893,593.3519 142.9769,609.1486 144.6728,624.6275 145.664,641.8685 143.5316,662.1778 135.5196,684.3228 124.4448,706.8677 120.9938,720.0245 "
id = "89" />
  <path
     style="fill:none;stroke:#000000;stroke-width:5;stroke-opacity:1"
     d = "M 178.5235,494.875 169.5218,514.6509 160.0513,534.6661 150.5654,554.7618 142.4016,574.8347 137.7187,592.5863 136.2153,608.2614 136.1274,623.4169 134.904,640.2462 130.4895,659.4043 120.4437,680.981 109.3955,702.7062 104.3193,720.0837 "
id = "90" />
  <path
     style="fill:none;stroke:#000000;stroke-width:5;stroke-opacity:1"
     d = "M 176.0759,494.5497 166.6249,513.9198 156.6411,533.339 146.9204,553.2729 139.0715,573.3322 133.9296,590.9926 131.5941,606.6031 130.0327,621.4232 127.5507,637.911 122.1296,657.0028 111.7253,678.9023 100.4455,700.0619 94.98115,718.1525 94.90113,720.0508 "
id = "91" />
  <path
     style="fill:none;stroke:#000000;stroke-width:5;stroke-opacity:1"
     d = "M 172.9954,494.0618 163.0689,512.8959 152.6571,531.4501 142.892,550.7522 135.085,570.8095 129.7237,588.0335 126.172,603.3348 122.8794,617.7344 119.1555,633.5356 112.686,652.5279 101.7211,674.1635 90.02535,695.8025 82.83034,714.2196 81.18843,720.0947 "
id = "92" />
  <path
     style="fill:none;stroke:#000000;stroke-width:5;stroke-opacity:1"
     d = "M 169.9297,493.4883 159.7108,511.8283 148.974,529.3911 139.0354,547.944 131.1177,567.709 125.8106,584.4852 121.3504,599.2195 117.0323,613.1312 111.744,627.9135 104.496,646.0598 93.23856,667.4421 81.04852,690.59 71.51683,710.735 67.64318,720.062 "
id = "93" />
  <path
     style="fill:none;stroke:#000000;stroke-width:5;stroke-opacity:1"
     d = "M 166.8812,492.8295 156.3427,510.5042 145.4243,527.0413 135.3189,544.4265 127.172,563.4881 121.6605,579.6709 116.6014,593.8304 111.6035,607.0165 104.973,620.6225 96.13702,637.2657 84.55116,658.9267 72.3885,683.7444 61.14073,705.7531 54.32214,720.0063 "
id = "94" />
  <path
     style="fill:none;stroke:#000000;stroke-width:5;stroke-opacity:1"
     d = "M 163.2239,491.9204 152.4139,508.5231 141.4361,523.9052 131.1511,539.8252 122.6556,557.6913 116.7816,573.5803 111.4701,587.4965 105.4798,600.1229 97.96626,612.9563 87.9463,629.0326 75.63923,651.1283 63.68249,677.4743 52.22533,699.7383 47.99982,707.5715 "
id = "95" />
  <path
     style="fill:none;stroke:#000000;stroke-width:5;stroke-opacity:1"
     d = "M 160.8453,491.2576 149.8792,507.1569 138.7784,521.7888 128.3577,536.8055 119.8676,553.7368 113.8604,569.5189 108.3792,583.2813 101.9606,595.6498 94.03745,608.2238 83.54819,623.9643 71.15004,645.7996 59.38022,672.5375 48.2459,695.5908 47.99341,696.0223 "
id = "96" />
  <path
     style="fill:none;stroke:#000000;stroke-width:5;stroke-opacity:1"
     d = "M 157.8627,490.3458 146.6588,505.444 135.4436,519.0656 124.8675,533.1147 116.5051,548.7679 110.2871,564.224 104.5802,577.7691 98.11137,589.7334 89.86921,601.8903 79.23373,616.6873 66.66585,636.9809 55.24834,662.9601 47.96468,679.8619 "
id = "97" />
  <path
     style="fill:none;stroke:#000000;stroke-width:5;stroke-opacity:1"
     d = "M 154.9251,489.3576 143.4262,503.7227 132.1133,516.4166 121.5821,529.4914 113.3907,544.0071 106.8968,558.8728 101.1788,572.4386 94.75767,584.1755 86.41987,595.8951 75.61375,609.5464 63.13845,627.8663 51.89793,652.9968 47.97865,662.6325 "
id = "98" />
  <path
     style="fill:none;stroke:#000000;stroke-width:5;stroke-opacity:1"
     d = "M 151.9795,488.2745 140.2632,501.9293 128.7816,513.882 118.3966,526.2476 110.1848,539.899 103.6685,553.991 98.03244,567.4069 91.57945,579.2537 83.43263,590.3516 72.55932,602.8541 60.21053,619.3597 48.20939,643.1329 47.98941,643.691 "
id = "99" />
  <path
     style="fill:none;stroke:#000000;stroke-width:5;stroke-opacity:1"
     d = "M 148.4843,486.8653 136.7212,499.7379 125.0721,510.7404 114.8083,522.2483 106.5693,535.216 99.99487,548.5012 94.65871,561.7112 88.18726,573.561 80.36227,584.256 70.00115,595.9956 57.87176,610.8 47.98753,628.3066 "
id = "100" />
  <path
     style="fill:none;stroke:#000000;stroke-width:5;stroke-opacity:1"
     d = "M 146.2211,485.8779 134.3505,498.3094 122.5793,508.7579 112.355,519.7361 103.9988,532.3937 97.43204,545.2451 91.94296,558.3127 85.78864,570.1792 78.07441,580.6567 68.21276,592.0168 56.68129,606.1326 47.96547,620.7316 "
id = "101" />
  <path
     style="fill:none;stroke:#000000;stroke-width:5;stroke-opacity:1"
     d = "M 143.3945,484.5598 131.4931,496.5882 119.6762,506.2645 109.3873,516.5997 100.4175,528.894 93.82706,541.5524 88.2268,554.764 82.19397,566.5297 74.83624,577.063 65.65474,588.3423 54.7993,601.9884 47.96629,612.8087 "
id = "102" />
  <path
     style="fill:none;stroke:#000000;stroke-width:5;stroke-opacity:1"
     d = "M 140.6056,483.1635 128.7205,494.7952 116.7823,503.7154 106.4832,513.6166 97.1457,525.4341 90.16029,538.2291 84.44061,552.0861 78.60106,564.0574 71.60873,574.7466 62.75012,585.9697 52.3509,599.395 47.95984,606.2027 "
id = "103" />
  <path
     style="fill:none;stroke:#000000;stroke-width:5;stroke-opacity:1"
     d = "M 137.8567,481.6899 126.1156,493.0256 114.2932,501.6201 104.0208,511.1481 94.50166,522.6617 87.00791,535.853 81.18701,550.095 75.50033,562.5207 68.63084,573.3224 59.80785,584.5848 49.61808,597.9532 47.94666,600.5643 "
id = "104" />
  <path
     style="fill:none;stroke:#000000;stroke-width:5;stroke-opacity:1"
     d = "M 134.5917,479.808 122.9279,490.8892 111.3104,499.437 101.0162,508.6059 91.3174,520.2197 83.53346,533.8763 77.61497,548.4211 71.92006,561.0722 65.1154,572.0051 56.38276,583.279 47.96833,594.342 "
id = "105" />
  <path
     style="fill:none;stroke:#000000;stroke-width:5;stroke-opacity:1"
     d = "M 132.488,478.5153 120.91,489.5536 109.4324,498.2394 99.03433,507.3059 89.2518,519.0785 81.32835,532.8849 75.31491,547.4023 69.47121,560.0552 62.68351,571.0476 53.9036,582.3171 47.99429,590.0077 "
id = "106" />
  <path
     style="fill:none;stroke:#000000;stroke-width:5;stroke-opacity:1"
     d = "M 129.8723,476.8166 118.377,487.8537 107.0218,496.6746 96.33754,505.6934 86.46581,517.6113 78.39405,531.4596 72.23216,545.8412 66.28725,558.4928 59.64867,569.636 50.8068,581.0073 47.94801,584.7366 "
id = "107" />
  <path
     style="fill:none;stroke:#000000;stroke-width:5;stroke-opacity:1"
     d = "M 127.3049,475.0457 115.8074,486.0494 104.4226,494.8665 93.4436,504.1563 83.56771,516.1257 75.54038,529.9652 69.10558,544.2096 63.02386,556.8923 56.5399,568.2186 47.95207,579.6523 "
id = "108" />
  <path
     style="fill:none;stroke:#000000;stroke-width:5;stroke-opacity:1"
     d = "M 124.7878,473.2039 113.2369,484.3424 101.6433,493.3127 90.44032,503.0756 80.66638,515.0942 72.78866,528.9341 66.05061,542.9059 59.73278,555.6556 53.36733,566.8434 47.95074,574.278 "
id = "109" />
  <path
     style="fill:none;stroke:#000000;stroke-width:5;stroke-opacity:1"
     d = "M 122.3232,471.2928 110.6366,482.6505 98.77581,491.8399 87.39888,502.0675 77.68902,514.2274 69.79888,527.9347 62.81254,541.6233 56.20172,554.2746 49.99113,565.2686 47.96078,568.1205 "
id = "110" />
  <path
     style="fill:none;stroke:#000000;stroke-width:5;stroke-opacity:1"
     d = "M 119.9132,469.313 108.1263,480.9819 95.85637,490.3662 84.34046,500.7526 74.64663,513.022 66.68917,526.5217 59.4915,539.9438 52.62495,552.4669 47.96195,560.631 "
id = "111" />
  <path
     style="fill:none;stroke:#000000;stroke-width:5;stroke-opacity:1"
     d = "M 117.5593,467.2668 105.7009,479.1819 92.98715,488.7568 81.50757,499.2974 71.62059,511.619 63.48278,525.0021 56.18166,538.2383 49.00749,550.5469 47.99431,552.2717 "
id = "112" />
  <path
     style="fill:none;stroke:#000000;stroke-width:5;stroke-opacity:1"
     d = "M 115.2634,465.1558 103.2346,477.1705 90.11803,486.9749 78.63803,497.6609 68.43124,509.9764 60.07899,523.119 52.53852,536.0815 47.99812,543.3829 "
id = "113" />
  <path
     style="fill:none;stroke:#000000;stroke-width:5;stroke-opacity:1"
     d = "M 113.0272,462.9817 100.8233,475.0019 87.3779,485.0877 75.64755,495.9562 65.13763,508.2471 56.47771,521.1156 48.68392,533.5997 47.96366,534.6819 "
id = "114" />
  <path
     style="fill:none;stroke:#000000;stroke-width:5;stroke-opacity:1"
     d = "M 110.8525,460.7461 98.45428,472.7852 84.99742,483.1194 72.99629,493.9933 62.13002,506.1758 52.8989,518.6727 47.9632,525.836 "
id = "115" />
  <path
     style="fill:none;stroke:#000000;stroke-width:5;stroke-opacity:1"
     d = "M 108.7414,458.4501 96.13209,470.5863 82.79682,481.0148 70.51166,491.8906 59.30277,503.8647 49.63678,516.0579 47.98873,518.1969 "
id = "116" />
  <path
     style="fill:none;stroke:#000000;stroke-width:5;stroke-opacity:1"
     d = "M 106.6952,456.0963 93.82575,468.1925 80.45013,478.5399 67.9258,489.453 56.52384,501.0715 47.97604,510.9981 "
id = "117" />
  <path
     style="fill:none;stroke:#000000;stroke-width:5;stroke-opacity:1"
     d = "M 104.7155,453.6863 91.52308,465.7857 77.93625,475.9879 64.98215,486.9222 53.44408,498.0429 47.932,503.978 "
id = "118" />
  <path
     style="fill:none;stroke:#000000;stroke-width:5;stroke-opacity:1"
     d = "M 102.8036,451.2221 89.19908,463.4209 75.62735,473.5088 62.29065,484.2798 50.62252,494.9142 47.98891,497.5135 "
id = "119" />
  <path
     style="fill:none;stroke:#000000;stroke-width:5;stroke-opacity:1"
     d = "M 100.9612,448.7056 86.90367,460.8644 73.23958,470.7987 59.7182,481.4102 47.97833,491.3783 "
id = "120" />
  <path
     style="fill:none;stroke:#000000;stroke-width:5;stroke-opacity:1"
     d = "M 99.19024,446.1382 84.59566,458.2527 70.49031,468.1395 56.77405,478.6489 47.92303,485.8331 "
id = "121" />
  <path
     style="fill:none;stroke:#000000;stroke-width:5;stroke-opacity:1"
     d = "M 97.49156,443.5226 82.44946,455.638 67.89279,465.5222 53.96012,475.8565 47.93594,480.4906 "
id = "122" />
  <path
     style="fill:none;stroke:#000000;stroke-width:5;stroke-opacity:1"
     d = "M 95.86644,440.8605 80.33802,452.8619 65.39668,462.6992 51.30083,472.7876 47.99839,475.2175 "
id = "123" />
  <path
     style="fill:none;stroke:#000000;stroke-width:5;stroke-opacity:1"
     d = "M 94.31615,438.1542 78.27053,449.8462 62.96223,459.5308 48.71776,469.6049 47.98071,470.1212 "
id = "124" />
  <path
     style="fill:none;stroke:#000000;stroke-width:5;stroke-opacity:1"
     d = "M 92.84189,435.4057 76.21861,446.7094 60.51695,456.182 47.9734,464.7682 "
id = "125" />
  <path
     style="fill:none;stroke:#000000;stroke-width:5;stroke-opacity:1"
     d = "M 91.44549,432.6169 74.11043,443.5635 57.97306,452.777 47.95395,459.1977 "
id = "126" />
  <path
     style="fill:none;stroke:#000000;stroke-width:5;stroke-opacity:1"
     d = "M 90.12737,429.7902 72.14597,440.2987 55.42316,449.1508 47.99874,453.4917 "
id = "127" />
  <path
     style="fill:none;stroke:#000000;stroke-width:5;stroke-opacity:1"
     d = "M 88.88857,426.928 70.41492,436.8383 53.10047,445.096 47.96874,447.7988 "
id = "128" />
  <path
     style="fill:none;stroke:#000000;stroke-width:5;stroke-opacity:1"
     d = "M 87.73,424.0322 68.90678,433.1438 51.01275,440.5276 47.99163,441.8549 "
id = "129" />
  <path
     style="fill:none;stroke:#000000;stroke-width:5;stroke-opacity:1"
     d = "M 86.65912,421.1237 67.4459,429.4546 49.15547,435.841 47.92953,436.2734 "
id = "130" />
  <path
     style="fill:none;stroke:#000000;stroke-width:5;stroke-opacity:1"
     d = "M 85.65791,418.1493 66.20925,425.4806 47.92999,430.6643 "
id = "131" />
  <path
     style="fill:none;stroke:#000000;stroke-width:5;stroke-opacity:1"
     d = "M 84.74603,415.1667 65.02874,421.5044 47.9429,425.2909 "
id = "132" />
  <path
     style="fill:none;stroke:#000000;stroke-width:5;stroke-opacity:1"
     d = "M 83.91761,412.1599 63.80104,417.5977 47.91133,420.1919 "
id = "133" />
  <path
     style="fill:none;stroke:#000000;stroke-width:5;stroke-opacity:1"
     d = "M 83.17768,409.15 62.72511,413.8022 47.90263,415.3209 "
id = "134" />
  <path
     style="fill:none;stroke:#000000;stroke-width:5;stroke-opacity:1"
     d = "M 82.51376,406.0826 61.67088,409.9255 47.98101,410.4482 "
id = "135" />
  <path
     style="fill:none;stroke:#000000;stroke-width:5;stroke-opacity:1"
     d = "M 81.94018,403.017 60.50183,406.1156 47.9102,405.658 "
id = "136" />
  <path
     style="fill:none;stroke:#000000;stroke-width:5;stroke-opacity:1"
     d = "M 81.45224,399.9365 59.46826,402.2562 47.95251,400.8614 "
id = "137" />
  <path
     style="fill:none;stroke:#000000;stroke-width:5;stroke-opacity:1"
     d = "M 81.05037,396.8436 58.53823,398.3306 47.94233,396.241 "
id = "138" />
  <path
     style="fill:none;stroke:#000000;stroke-width:5;stroke-opacity:1"
     d = "M 80.73486,393.7407 57.74136,394.5088 47.96284,391.9813 "
id = "139" />
  <path
     style="fill:none;stroke:#000000;stroke-width:5;stroke-opacity:1"
     d = "M 80.50597,390.6303 57.15871,390.7701 47.97488,387.9752 "
id = "140" />
  <path
     style="fill:none;stroke:#000000;stroke-width:5;stroke-opacity:1"
     d = "M 80.36461,387.5146 56.78286,387.031 47.99387,383.9914 "
id = "141" />
  <path
     style="fill:none;stroke:#000000;stroke-width:5;stroke-opacity:1"
     d = "M 80.31015,384.3961 56.61786,383.3569 47.94132,380.0079 "
id = "142" />
  <path
     style="fill:none;stroke:#000000;stroke-width:5;stroke-opacity:1"
     d = "M 80.34264,381.2774 56.76755,379.6204 47.99865,375.9674 "
id = "143" />
  <path
     style="fill:none;stroke:#000000;stroke-width:5;stroke-opacity:1"
     d = "M 80.46204,378.1608 57.0167,375.8564 47.9375,371.9107 "
id = "144" />
  <path
     style="fill:none;stroke:#000000;stroke-width:5;stroke-opacity:1"
     d = "M 80.66827,375.0488 57.51948,371.9903 47.98212,367.8421 "
id = "145" />
  <path
     style="fill:none;stroke:#000000;stroke-width:5;stroke-opacity:1"
     d = "M 80.96191,371.9437 57.95602,368.0016 47.9643,363.6473 "
id = "146" />
  <path
     style="fill:none;stroke:#000000;stroke-width:5;stroke-opacity:1"
     d = "M 81.34198,368.848 58.30414,364.0109 47.99834,359.3762 "
id = "147" />
  <path
     style="fill:none;stroke:#000000;stroke-width:5;stroke-opacity:1"
     d = "M 81.80818,365.7642 58.88083,359.9993 47.92111,354.8703 "
id = "148" />
  <path
     style="fill:none;stroke:#000000;stroke-width:5;stroke-opacity:1"
     d = "M 82.36018,362.6946 59.76624,355.9778 47.99022,350.237 "
id = "149" />
  <path
     style="fill:none;stroke:#000000;stroke-width:5;stroke-opacity:1"
     d = "M 82.99751,359.6415 60.99037,352.0537 47.96502,345.2393 "
id = "150" />
  <path
     style="fill:none;stroke:#000000;stroke-width:5;stroke-opacity:1"
     d = "M 83.72044,356.6075 62.4745,348.2645 47.99294,340.1489 "
id = "151" />
  <path
     style="fill:none;stroke:#000000;stroke-width:5;stroke-opacity:1"
     d = "M 84.52764,353.5949 64.21252,344.5973 47.97537,334.9246 "
id = "152" />
  <path
     style="fill:none;stroke:#000000;stroke-width:5;stroke-opacity:1"
     d = "M 85.4185,350.6059 66.03558,340.852 47.99599,329.3383 "
id = "153" />
  <path
     style="fill:none;stroke:#000000;stroke-width:5;stroke-opacity:1"
     d = "M 86.39233,347.643 68.01841,337.2361 47.93557,323.9167 "
id = "154" />
  <path
     style="fill:none;stroke:#000000;stroke-width:5;stroke-opacity:1"
     d = "M 87.44837,344.7083 70.0495,333.661 50.56147,319.9839 47.93868,318.3311 "
id = "155" />
  <path
     style="fill:none;stroke:#000000;stroke-width:5;stroke-opacity:1"
     d = "M 88.58651,341.8045 72.15016,330.1866 54.0408,316.4759 47.93138,312.4793 "
id = "156" />
  <path
     style="fill:none;stroke:#000000;stroke-width:5;stroke-opacity:1"
     d = "M 89.80514,338.9335 74.32707,326.6463 57.42685,313.231 47.96048,306.8783 "
id = "157" />
  <path
     style="fill:none;stroke:#000000;stroke-width:5;stroke-opacity:1"
     d = "M 91.10329,336.0977 76.45596,323.3521 60.54403,310.4362 47.94247,301.7608 "
id = "158" />
  <path
     style="fill:none;stroke:#000000;stroke-width:5;stroke-opacity:1"
     d = "M 92.48001,333.2991 78.32579,320.0303 63.03734,307.7463 47.92366,297.0759 "
id = "159" />
  <path
     style="fill:none;stroke:#000000;stroke-width:5;stroke-opacity:1"
     d = "M 93.93422,330.5399 80.13327,316.7959 65.41664,304.9495 49.65214,293.9257 47.95192,292.6933 "
id = "160" />
  <path
     style="fill:none;stroke:#000000;stroke-width:5;stroke-opacity:1"
     d = "M 95.45564,327.8396 81.86675,313.6604 67.51099,302.1824 52.39008,291.8266 47.94053,288.4257 "
id = "161" />
  <path
     style="fill:none;stroke:#000000;stroke-width:5;stroke-opacity:1"
     d = "M 97.0717,325.1494 83.50497,310.6447 69.43631,299.6788 54.73527,289.6972 47.96731,284.3904 "
id = "162" />
  <path
     style="fill:none;stroke:#000000;stroke-width:5;stroke-opacity:1"
     d = "M 98.75194,322.5217 85.28165,308.0023 71.47285,297.5032 57.15642,287.9149 47.94938,280.5327 "
id = "163" />
  <path
     style="fill:none;stroke:#000000;stroke-width:5;stroke-opacity:1"
     d = "M 100.5048,319.942 87.17562,305.4664 73.64513,295.4251 59.76514,286.2198 47.96204,276.641 "
id = "164" />
  <path
     style="fill:none;stroke:#000000;stroke-width:5;stroke-opacity:1"
     d = "M 102.3172,317.4277 89.09013,303.0265 75.80836,293.3817 62.36356,284.6104 50.5596,274.9759 47.96044,272.3427 "
id = "165" />
  <path
     style="fill:none;stroke:#000000;stroke-width:5;stroke-opacity:1"
     d = "M 104.2232,314.9345 91.04299,300.6922 77.71615,291.643 64.59962,283.135 53.19448,273.7484 47.96224,268.0994 "
id = "166" />
  <path
     style="fill:none;stroke:#000000;stroke-width:5;stroke-opacity:1"
     d = "M 106.186,312.5106 93.11003,298.5313 79.72204,290.0193 66.81345,281.8287 55.92072,272.7951 47.94003,263.7002 "
id = "167" />
  <path
     style="fill:none;stroke:#000000;stroke-width:5;stroke-opacity:1"
     d = "M 108.2156,310.1424 95.382,296.5473 82.00172,288.4038 69.22326,280.5945 58.70535,272.1318 50.86238,262.8874 47.9642,257.864 "
id = "168" />
  <path
     style="fill:none;stroke:#000000;stroke-width:5;stroke-opacity:1"
     d = "M 110.3103,307.8317 97.6413,294.5086 84.2966,286.734 71.67911,279.2552 61.47086,271.416 54.01321,262.595 48.58736,252.8617 47.9717,251.3849 "
id = "169" />
  <path
     style="fill:none;stroke:#000000;stroke-width:5;stroke-opacity:1"
     d = "M 112.9263,305.1189 100.2284,292.0653 87.07945,284.5652 74.58116,277.3825 64.68812,270.1404 57.52558,261.868 52.2859,252.5898 48.85273,243.2002 47.98606,240.5376 "
id = "170" />
  <path
     style="fill:none;stroke:#000000;stroke-width:5;stroke-opacity:1"
     d = "M 114.6895,303.3904 102.0758,290.3633 89.06385,282.827 76.75001,275.8632 67.17226,269.2011 60.19273,261.4072 54.97781,252.4741 51.66562,243.3094 48.90511,234.0009 47.98224,231.6773 "
id = "171" />
  <path
     style="fill:none;stroke:#000000;stroke-width:5;stroke-opacity:1"
     d = "M 116.9705,301.2633 104.584,288.165 91.84737,280.2938 79.85504,273.4976 70.60496,267.5309 63.75801,260.4377 58.5327,252.0872 55.12004,243.203 52.4879,234.0833 48.74463,223.687 47.97062,221.9518 "
id = "172" />
  <path
     style="fill:none;stroke:#000000;stroke-width:5;stroke-opacity:1"
     d = "M 119.3099,299.2006 107.2268,285.9644 94.72747,277.6418 83.00436,270.882 73.89325,265.1985 67.14055,258.6366 61.89328,250.7908 58.36496,242.1432 55.44775,232.9118 51.73413,222.2986 47.9779,213.5721 "
id = "173" />
  <path
     style="fill:none;stroke:#000000;stroke-width:5;stroke-opacity:1"
     d = "M 121.7059,297.204 110.0855,283.7694 97.76149,274.9284 86.11978,268.0013 77.14415,261.9839 70.31563,255.2338 64.93385,247.593 60.95739,238.9196 57.57078,229.3911 53.427,218.1531 47.98073,206.7905 "
id = "174" />
  <path
     style="fill:none;stroke:#000000;stroke-width:5;stroke-opacity:1"
     d = "M 124.674,294.8816 113.6832,281.1443 101.9969,271.6885 90.52168,264.0979 81.10402,256.8983 73.66823,249.1989 67.98553,240.6152 63.15487,231.4401 58.75031,220.6011 53.03956,208.0686 47.96461,198.9915 "
id = "175" />
  <path
     style="fill:none;stroke:#000000;stroke-width:5;stroke-opacity:1"
     d = "M 126.6606,293.4154 116.0924,279.405 104.9964,269.4445 93.64145,261.2243 84.13562,253.0453 76.1221,244.5654 69.81136,235.2539 64.26062,225.4198 58.7956,213.571 51.3249,200.1827 47.99078,194.0282 "
id = "176" />
  <path
     style="fill:none;stroke:#000000;stroke-width:5;stroke-opacity:1"
     d = "M 129.2154,291.6264 119.2548,277.015 108.9611,266.2958 98.08768,257.2008 88.399,247.8487 79.54128,237.7111 72.03461,227.2862 65.12236,215.9111 57.08478,202.5191 47.99425,187.098 "
id = "177" />
  <path
     style="fill:none;stroke:#000000;stroke-width:5;stroke-opacity:1"
     d = "M 131.8191,289.9094 122.4433,274.5943 112.9651,263.1147 102.7021,252.9023 92.46251,242.0486 82.85506,230.1464 73.86523,218.0596 64.50568,204.6059 54.36979,189.9416 47.95674,177.3855 "
id = "178" />
  <path
     style="fill:none;stroke:#000000;stroke-width:5;stroke-opacity:1"
     d = "M 134.4697,288.2656 125.711,272.2304 117.0329,259.9154 107.3048,248.1827 96.65041,234.7455 86.45092,221.2065 75.79022,207.1558 64.2865,192.2509 53.11247,174.6227 47.9738,164.5583 "
id = "179" />
  <path
     style="fill:none;stroke:#000000;stroke-width:5;stroke-opacity:1"
     d = "M 137.732,286.379 129.9819,269.5806 122.2086,256.0563 113.0129,241.9986 102.5123,225.4308 91.50177,210.0684 78.99581,194.0135 66.43697,178.3726 54.05518,156.5405 47.97425,145.8482 "
id = "180" />
  <path
     style="fill:none;stroke:#000000;stroke-width:5;stroke-opacity:1"
     d = "M 139.9034,285.2035 132.8485,267.9933 125.727,253.4507 117.1714,237.7969 107.3,219.4931 95.91228,202.7339 83.14586,186.5036 69.7419,169.6653 56.54709,147.4382 47.98632,132.4048 "
id = "181" />
  <path
     style="fill:none;stroke:#000000;stroke-width:5;stroke-opacity:1"
     d = "M 142.6824,283.7875 136.3332,265.921 130.1015,250.0574 122.6346,232.7869 113.6531,212.7222 101.8556,195.1875 89.04635,178.6791 75.57895,160.828 62.62015,138.9417 48.28037,111.618 47.96143,110.8843 "
id = "182" />
  <path
     style="fill:none;stroke:#000000;stroke-width:5;stroke-opacity:1"
     d = "M 145.4997,282.4495 139.8124,263.953 134.4771,246.8001 128.1141,228.2127 119.7041,207.1132 108.0221,189.3751 95.14268,172.6592 81.78784,154.2109 69.86398,132.917 58.37586,106.7727 50.36362,79.29597 47.9958,70.50922 "
id = "183" />
  <path
     style="fill:none;stroke:#000000;stroke-width:5;stroke-opacity:1"
     d = "M 148.3532,281.1906 143.3853,262.3111 138.9842,244.1014 133.5853,224.6702 126.05,203.3563 114.9256,185.5536 102.458,169.4133 89.73347,151.0802 79.2767,130.8828 70.34814,107.2516 65.92427,81.61641 63.87561,58.1254 60.33458,47.92253 "
id = "184" />
  <path
     style="fill:none;stroke:#000000;stroke-width:5;stroke-opacity:1"
     d = "M 151.8464,279.7764 147.8239,260.4302 144.323,241.1566 139.9524,221.2996 132.5124,200.5051 122.1321,183.1664 110.4423,167.5323 98.95171,150.3988 90.51559,131.3759 84.45072,110.7465 83.32235,87.65787 83.51778,65.84041 80.16998,47.95096 "
id = "185" />
  <path
     style="fill:none;stroke:#000000;stroke-width:5;stroke-opacity:1"
     d = "M 154.1602,278.9145 150.8228,259.1778 148.0597,239.2357 144.5064,219.3097 137.5994,199.283 127.8628,182.6423 116.7308,167.0839 106.125,151.1635 98.64411,133.2737 93.81345,114.4783 93.62072,93.5521 95.30393,73.17248 93.46698,53.97419 91.67223,47.93528 "
id = "186" />
  <path
     style="fill:none;stroke:#000000;stroke-width:5;stroke-opacity:1"
     d = "M 157.1092,277.899 154.7582,257.4479 153.2723,236.9091 150.8208,216.9559 144.6579,198.2149 135.2879,182.3177 124.8477,167.2852 114.9212,152.3772 108.2344,136.1894 104.9365,118.5979 105.1646,99.99847 107.9055,81.25229 107.8715,62.62623 104.4084,47.92852 "
id = "187" />
  <path
     style="fill:none;stroke:#000000;stroke-width:5;stroke-opacity:1"
     d = "M 160.0853,276.9662 158.7716,255.7999 158.5516,234.9156 157.2601,215.4932 151.9886,198.4349 143.7745,184.0301 134.3614,169.9719 125.2679,155.6913 118.6776,140.6705 116.4134,123.7581 117.7191,106.162 120.6761,87.5804 120.1994,69.01548 115.1839,49.84062 114.3165,47.92811 "
id = "188" />
  <path
     style="fill:none;stroke:#000000;stroke-width:5;stroke-opacity:1"
     d = "M 163.0863,276.1167 162.8787,254.0814 163.8259,233.1041 163.5064,214.6061 159.4052,199.06 152.5674,185.7593 143.8811,172.8512 135.4382,159.0166 128.9981,144.3508 126.3594,128.1845 127.7778,110.2068 131.0848,91.23589 130.9713,71.48578 125.1333,52.22081 123.136,47.96624 "
id = "189" />
  <path
     style="fill:none;stroke:#000000;stroke-width:5;stroke-opacity:1"
     d = "M 166.7423,275.2024 167.9071,252.4769 170.0366,231.713 170.877,214.2831 168.6848,200.2655 163.8839,188.0361 157.0162,175.9856 149.7334,162.945 143.4892,148.8903 140.5763,133.0646 141.2683,114.2233 143.8511,93.37518 142.5279,71.82854 135.1043,52.33737 132.9816,47.92119 "
id = "190" />
  <path
     style="fill:none;stroke:#000000;stroke-width:5;stroke-opacity:1"
     d = "M 169.1536,274.6709 171.1624,251.5746 174.0473,230.9309 175.6304,214.0807 174.6498,200.8834 171.0992,188.9709 165.5011,177.1522 158.9478,165.0453 153.5738,152.0719 149.8462,137.0398 149.7092,118.4971 150.8992,95.97919 148.8279,73.13255 141.0824,52.89724 138.6461,47.96611 "
id = "191" />
  <path
     style="fill:none;stroke:#000000;stroke-width:5;stroke-opacity:1"
     d = "M 172.2151,274.0758 175.2368,250.6453 179.1168,230.2465 181.6832,214.2499 181.8528,201.9793 179.7559,190.1859 175.5771,178.3874 170.0809,166.7276 164.8144,154.0243 160.5647,138.7707 158.8091,119.8031 158.0356,95.62939 154.3947,71.4998 146.1816,51.0925 144.6163,47.96212 "
id = "192" />
  <path
     style="fill:none;stroke:#000000;stroke-width:5;stroke-opacity:1"
     d = "M 175.2921,273.5662 179.357,249.8926 183.9097,229.8748 187.465,214.8414 188.7563,203.065 187.925,191.2153 185.3818,178.8388 180.9817,166.3741 175.9191,151.6926 170.5991,133.3798 167.4717,111.4324 165.1972,84.89008 158.766,61.53442 152.2132,47.93057 "
id = "193" />
  <path
     style="fill:none;stroke:#000000;stroke-width:5;stroke-opacity:1"
     d = "M 178.3821,273.1426 183.3619,249.3292 188.6896,229.9771 193.2316,215.4898 195.5804,203.9049 196.1456,191.5096 195.1398,177.8737 191.6107,162.6836 186.9869,144.5448 181.6595,123.1999 177.5591,97.97645 172.3727,71.9474 164.9172,51.39635 163.4685,47.99168 "
id = "194" />
  <path
     style="fill:none;stroke:#000000;stroke-width:5;stroke-opacity:1"
     d = "M 182.1298,272.746 188.1404,248.7012 194.4641,230.0588 200.2532,215.7651 204.4981,203.7446 206.9606,190.4378 207.4826,174.2203 205.6062,154.2081 201.4295,132.1166 195.2282,108.7558 189.0576,84.24868 184.1823,60.74209 181.4738,47.92513 "
id = "195" />
  <path
     style="fill:none;stroke:#000000;stroke-width:5;stroke-opacity:1"
     d = "M 184.5721,272.5566 191.2197,248.4785 198.2946,230.1118 204.9928,215.865 210.204,203.2632 213.9062,188.5732 215.8629,169.8639 214.8967,146.7958 210.7724,123.2073 203.9668,99.59995 198.2846,77.31505 194.7684,55.85824 193.9957,47.99603 "
id = "196" />
  <path
     style="fill:none;stroke:#000000;stroke-width:5;stroke-opacity:1"
     d = "M 187.7062,272.392 195.1546,248.2284 203.0917,230.0594 210.5995,216.0048 216.8943,202.8324 222.3674,186.1545 225.919,165.1303 226.0439,139.3016 221.392,114.8838 215.7543,94.19869 210.9341,74.06043 207.5395,54.39078 207.5239,47.99088 "
id = "197" />
  <path
     style="fill:none;stroke:#000000;stroke-width:5;stroke-opacity:1"
     d = "M 190.8242,272.3156 199.1197,248.164 208.0175,230.3026 216.4084,216.2394 223.8226,202.2825 230.3037,183.9382 235.3046,160.9713 237.2755,133.7956 234.7565,110.7524 230.9779,91.62778 226.9629,72.79393 224.5566,54.72055 224.8398,47.92636 "
id = "198" />
  <path
     style="fill:none;stroke:#000000;stroke-width:5;stroke-opacity:1"
     d = "M 193.9431,272.3262 202.9222,247.997 212.639,230.4527 221.8913,216.5439 230.054,201.7889 237.168,181.9888 243.4471,156.7146 246.8331,129.5283 246.2832,107.1378 243.7282,87.55644 240.2409,68.0891 238.8177,49.37349 238.8867,47.97517 "
id = "199" />
  <path
     style="fill:none;stroke:#000000;stroke-width:5;stroke-opacity:1"
     d = "M 197.7094,272.455 207.4909,248.3594 218.1528,231.2646 228.1048,217.356 236.8684,201.655 244.9786,180.4731 252.9092,153.3429 257.8078,126.843 259.323,103.5309 258.188,82.05069 256.1227,60.60604 256.0103,47.90672 "
id = "200" />
  <path
     style="fill:none;stroke:#000000;stroke-width:5;stroke-opacity:1"
     d = "M 200.1738,272.6088 210.4075,248.9704 221.3993,232.2091 231.4516,218.0538 240.5724,201.7033 249.1512,179.823 258.0408,152.1167 264.0402,125.9626 266.8435,101.8169 267.7933,79.06013 267.6312,55.30537 268.3877,47.94416 "
id = "201" />
  <path
     style="fill:none;stroke:#000000;stroke-width:5;stroke-opacity:1"
     d = "M 203.2808,272.8806 214.147,249.9826 225.3754,233.3915 235.4873,218.9905 244.8659,201.7689 254.0091,179.1044 264.1328,151.2119 271.786,125.0736 276.5287,100.0332 279.4108,75.35512 282.3555,49.27978 282.6798,47.91782 "
id = "202" />
  <path
     style="fill:none;stroke:#000000;stroke-width:5;stroke-opacity:1"
     d = "M 206.3791,273.2389 218.014,251.0317 229.5421,234.598 239.691,219.6446 249.3234,201.3087 259.1063,177.9396 270.2141,150.3037 278.5557,124.1378 285.258,98.86553 290.3757,72.16718 295.1396,47.93114 "
id = "203" />
  <path
     style="fill:none;stroke:#000000;stroke-width:5;stroke-opacity:1"
     d = "M 209.4661,273.6834 221.9097,252.1479 233.9729,235.8331 244.1725,220.1038 253.6918,200.5562 264.1276,176.7176 275.8333,149.5831 285.4488,123.6868 294.218,98.17723 301.5381,69.7989 307.2144,47.92342 "
id = "204" />
  <path
     style="fill:none;stroke:#000000;stroke-width:5;stroke-opacity:1"
     d = "M 213.178,274.3352 226.2649,253.6295 238.6803,237.0417 249.1478,220.497 258.8268,200.0229 269.8015,175.6707 281.8712,149.3688 293.4791,123.7978 304.2356,97.39838 313.1035,68.65714 319.2273,47.94306 "
id = "205" />
  <path
     style="fill:none;stroke:#000000;stroke-width:5;stroke-opacity:1"
     d = "M 215.5969,274.8304 229.1801,254.674 241.6963,237.8956 252.3694,220.8121 262.3006,199.8242 273.4276,175.2975 285.7556,149.6721 298.4871,124.4105 310.1587,97.56862 320.1402,69.04697 326.8644,47.99606 "
id = "206" />
  <path
     style="fill:none;stroke:#000000;stroke-width:5;stroke-opacity:1"
     d = "M 218.6359,275.532 232.7848,256.0611 245.3805,239.1401 256.3207,221.3722 266.411,199.7445 277.6913,175.156 290.1158,150.0893 303.6212,125.1143 316.5169,98.01035 327.3883,70.15331 335.4475,47.97134 "
id = "207" />
  <path
     style="fill:none;stroke:#000000;stroke-width:5;stroke-opacity:1"
     d = "M 221.6541,276.318 236.2194,257.6176 248.9327,240.5876 260.0426,222.099 270.1089,200.0093 281.3408,175.3143 294.0618,150.4949 308.1208,125.6654 322.0526,98.33714 333.5338,71.2499 336.0331,65.24938 "
id = "208" />
  <path
     style="fill:none;stroke:#000000;stroke-width:5;stroke-opacity:1"
     d = "M 224.6492,277.1878 239.7029,259.2336 252.4816,242.0129 263.3435,222.8676 273.496,200.5693 284.7526,175.9099 297.8207,151.1323 312.5015,126.306 327.2668,99.04539 336.0161,80.28507 "
id = "209" />
  <path
     style="fill:none;stroke:#000000;stroke-width:5;stroke-opacity:1"
     d = "M 228.2342,278.3498 243.6533,261.3425 256.5032,244.3336 267.1699,224.8123 277.2042,202.4568 288.3428,177.8488 301.5778,153.0602 317.0715,128.3045 332.8568,101.5227 336.0235,95.50511 "
id = "210" />
  <path
     style="fill:none;stroke:#000000;stroke-width:5;stroke-opacity:1"
     d = "M 230.5607,279.1769 246.0983,262.8464 259.1537,246.1069 269.7262,226.5994 279.5342,204.0199 290.6142,179.3486 303.8733,154.6325 319.7313,129.9069 336.045,103.6634 "
id = "211" />
  <path
     style="fill:none;stroke:#000000;stroke-width:5;stroke-opacity:1"
     d = "M 233.4725,280.2946 249.2,264.8242 262.5766,248.493 273.0941,228.8192 282.6336,205.7215 293.6637,180.7786 307.0311,156.0906 323.3178,131.3988 336.0336,111.9938 "
id = "212" />
  <path
     style="fill:none;stroke:#000000;stroke-width:5;stroke-opacity:1"
     d = "M 236.3519,281.493 252.3024,266.8214 266.0898,251.1211 276.5875,231.3581 285.7799,207.5559 296.647,182.458 310.1619,157.8394 326.6662,133.1185 336.0179,119.4025 "
id = "213" />
  <path
     style="fill:none;stroke:#000000;stroke-width:5;stroke-opacity:1"
     d = "M 239.1968,282.7712 255.447,269.1183 269.7649,254.1771 280.2051,234.4593 289.3607,209.8625 299.7808,184.7535 313.4259,160.3477 330.1338,135.5174 336.0232,127.1906 "
id = "214" />
  <path
     style="fill:none;stroke:#000000;stroke-width:5;stroke-opacity:1"
     d = "M 242.0051,284.1282 258.5942,271.3281 273.3789,256.9917 284.1199,237.2597 293.3449,212.1263 303.3881,187.0108 317.212,162.7959 334.1719,138.0196 336.0139,135.5263 "
id = "215" />
  <path
     style="fill:none;stroke:#000000;stroke-width:5;stroke-opacity:1"
     d = "M 244.774,285.5636 261.8192,273.6364 276.9457,259.8422 288.1075,240.3783 297.6307,215.0183 307.4509,189.6517 320.9844,165.182 336.002,143.4694 "
id = "216" />
  <path
     style="fill:none;stroke:#000000;stroke-width:5;stroke-opacity:1"
     d = "M 247.5019,287.0757 264.9846,275.985 280.4013,262.9211 291.8792,244.041 302.1254,218.476 311.7809,192.7894 324.6318,167.7189 336.0461,151.5401 "
id = "217" />
  <path
     style="fill:none;stroke:#000000;stroke-width:5;stroke-opacity:1"
     d = "M 250.1865,288.6632 268.046,278.3372 283.5836,266.0233 295.4273,247.6841 306.5313,221.8537 316.415,195.9582 328.6645,170.3862 336.0517,160.0573 "
id = "218" />
  <path
     style="fill:none;stroke:#000000;stroke-width:5;stroke-opacity:1"
     d = "M 252.8259,290.3249 271.1178,280.9819 286.5106,269.4976 298.5779,251.7816 310.4857,226.1246 320.9875,199.3659 333.2797,173.5019 336.0236,169.6866 "
id = "219" />
  <path
     style="fill:none;stroke:#000000;stroke-width:5;stroke-opacity:1"
     d = "M 255.4179,292.0595 274.0133,283.7689 288.9862,273.2527 301.2275,256.4415 313.7328,231.4805 325.4892,203.9753 336.0406,181.9752 "
id = "220" />
  <path
     style="fill:none;stroke:#000000;stroke-width:5;stroke-opacity:1"
     d = "M 257.9601,293.8664 276.4969,286.5994 291.1496,277.1279 303.5981,261.5348 316.8388,237.6592 329.8188,209.4545 336.0287,196.6837 "
id = "221" />
  <path
     style="fill:none;stroke:#000000;stroke-width:5;stroke-opacity:1"
     d = "M 260.451,295.7433 278.6447,289.3158 293.1295,280.8489 305.7785,266.5679 319.6569,243.8764 333.7858,215.4809 336.0104,211.3407 "
id = "222" />
  <path
     style="fill:none;stroke:#000000;stroke-width:5;stroke-opacity:1"
     d = "M 262.8885,297.689 280.7473,292.0933 295.1899,284.5631 308.1759,271.4609 322.5925,249.9113 336.0437,224.8983 "
id = "223" />
  <path
     style="fill:none;stroke:#000000;stroke-width:5;stroke-opacity:1"
     d = "M 265.271,299.7019 282.916,295.0884 297.3756,288.6947 310.4456,276.6992 325.4499,256.9129 336.0114,239.2286 "
id = "224" />
  <path
     style="fill:none;stroke:#000000;stroke-width:5;stroke-opacity:1"
     d = "M 48,48 336,48 336,720 48,720 48,48 "
id = "225" />
</svg>
